<?xml version="1.0" encoding="utf-8"?>
<svg viewBox="3058.7167 1212.0768 209.28 296.8319" xmlns="http://www.w3.org/2000/svg">
  <g id="g5010" transform="matrix(1.3333330154418945, 0, 0, -1.3333330154418945, 3066.6861545370493, 1212.076766413138)">
    <path d="m 0,0 h 145.008 l 2.304,-0.648 1.944,-1.872 1.223,-2.665 0.504,-3.383 v -205.56 l -0.504,-3.24 -1.223,-2.736 -1.944,-1.873 -2.304,-0.647 H 0 l -2.377,0.647 -1.871,1.873 -1.296,2.736 -0.433,3.24 v 205.56 l 0.433,3.383 1.296,2.665 1.871,1.872 z" style="fill:#000000;fill-opacity:1;fill-rule:nonzero;stroke:none" id="path5012"/>
  </g>
  <g id="g5014" transform="matrix(1.3333330154418945, 0, 0, -1.3333330154418945, 3069.6614142443586, 1216.7811923748486)">
    <path d="m 0,0 h 140.472 l 2.304,-0.575 1.8,-1.801 1.296,-2.592 0.504,-3.24 v -199.224 l -0.504,-3.168 -1.296,-2.591 -1.8,-1.8 -2.304,-0.649 H 0 l -2.231,0.649 -1.873,1.8 -1.224,2.591 -0.432,3.168 V -8.208 l 0.432,3.24 1.224,2.592 1.873,1.801 z" style="fill:#ffffff;fill-opacity:1;fill-rule:nonzero;stroke:none" id="path5016"/>
  </g>
  <g id="g5018" transform="matrix(1.3333330154418945, 0, 0, -1.3333330154418945, 3083.964796250832, 1264.2043581516157)">
    <path d="m 0,0 v -18.504 h -2.159 l 1.296,2.376 0.576,2.592 -0.072,2.231 -0.72,1.657 -0.433,0.071 0.504,-1.007 0.145,-1.152 -0.288,-1.296 -0.72,-0.937 -1.08,-0.648 -1.225,-0.215 -1.151,0.288 -0.864,0.72 -0.72,1.008 -0.216,1.295 1.08,3.241 2.52,3.384 2.591,3.167 z M 0,26.063 V 21.815 L -2.808,12.672 H 0 V 9.936 H -3.239 L -5.256,3.312 h -2.735 l 6.696,22.751 z M 0,9.936 v 2.736 H 2.881 L 0.145,22.319 0,21.815 v 4.248 H 1.873 L 8.497,3.312 H 5.832 L 3.816,9.936 Z m 0,-28.44 V 0 l 0.505,0.863 1.368,-2.592 2.447,-3.167 2.376,-3.384 1.009,-3.241 -0.144,-1.295 -0.72,-1.008 -1.009,-0.72 -1.151,-0.288 -1.153,0.215 -1.08,0.648 -0.792,0.937 -0.287,1.296 0.215,1.152 0.505,1.007 -0.433,-0.071 -0.647,-1.657 -0.072,-2.231 0.576,-2.521 1.151,-2.447 z m 121.681,-137.953 v -2.735 h -2.88 l 2.736,-9.577 0.144,0.504 v -4.319 h -1.872 l -6.624,22.752 h 2.664 l 2.015,-6.625 z m 0,28.584 v -18.575 l -0.577,-0.937 -1.368,2.664 -2.376,3.241 -2.376,3.383 -1.08,3.168 0.288,1.297 0.649,1.079 1.008,0.721 1.151,0.288 1.152,-0.288 1.08,-0.648 0.721,-0.936 0.287,-1.297 -0.143,-1.151 -0.504,-1.009 0.431,0.072 0.72,1.729 v 2.232 l -0.504,2.447 -1.296,2.52 z m -50.905,15.337 -22.967,0.143 3.456,5.617 2.591,5.832 1.728,6.048 1.009,5.903 0.143,5.545 -0.576,5.112 -1.296,4.535 -1.943,3.529 -2.16,0.071 1.368,-2.232 1.08,-2.448 0.647,-2.592 0.216,-2.807 -0.359,-3.097 -1.008,-2.808 -1.513,-2.591 -2.015,-2.088 -2.376,-1.728 -2.592,-1.297 -2.809,-0.864 -2.952,-0.216 -2.807,0.288 -2.664,0.937 -2.376,1.367 -2.088,1.944 -1.8,2.305 -1.368,2.663 -0.792,2.881 -0.288,3.239 0.36,3.672 1.08,3.744 1.655,3.817 2.088,3.96 2.521,4.031 2.88,3.96 3.095,4.033 3.241,4.031 3.24,3.96 3.239,3.817 3.024,3.743 2.809,3.6 2.447,3.385 2.16,3.239 1.512,3.025 0.937,2.807 2.303,-5.759 4.248,-6.624 5.544,-7.273 6.048,-7.847 5.905,-8.064 5.112,-8.064 3.6,-7.777 1.295,-7.416 -0.215,-3.239 -0.792,-2.881 -1.369,-2.663 -1.799,-2.305 -2.088,-1.944 -2.449,-1.367 -2.591,-0.937 -2.88,-0.288 -2.88,0.216 -2.881,0.864 -2.519,1.297 -2.376,1.728 -2.017,2.088 -1.512,2.591 -1.008,2.808 -0.359,3.097 0.287,2.807 0.649,2.592 0.935,2.448 1.368,2.232 -2.159,-0.071 -1.944,-3.529 -1.296,-4.535 -0.576,-5.112 0.216,-5.545 0.864,-5.976 1.727,-5.975 2.521,-5.905 z m 50.905,-33.912 v 18.575 h 2.232 l -1.297,-2.447 -0.504,-2.52 v -2.232 l 0.792,-1.729 0.433,-0.072 -0.505,1.009 -0.216,1.151 0.288,1.297 0.721,0.936 1.08,0.648 1.151,0.288 1.225,-0.288 0.936,-0.721 0.647,-1.079 0.217,-1.297 -1.08,-3.168 -2.521,-3.383 -2.519,-3.241 z m 0,-26.136 v 4.319 l 2.88,9.073 h -2.88 v 2.735 h 3.311 l 2.017,6.625 h 2.664 l -6.624,-22.752 z" style="fill:#000000;fill-opacity:1;fill-rule:nonzero;stroke:none" id="path5020"/>
  </g>
</svg>