<?xml version="1.0" encoding="utf-8"?>
<svg viewBox="3058.7167 532.6849 209.28 296.8319" xmlns="http://www.w3.org/2000/svg">
  <g id="g1866" transform="matrix(1.3333330154418945, 0, 0, -1.3333330154418945, 3066.6861545370493, 532.6849606193683)">
    <path d="m 0,0 h 145.008 l 2.304,-0.648 1.944,-1.872 1.223,-2.664 0.504,-3.384 v -205.56 l -0.504,-3.312 -1.223,-2.664 -1.944,-1.872 -2.304,-0.648 H 0 l -2.377,0.648 -1.871,1.872 -1.296,2.664 -0.433,3.312 v 205.56 l 0.433,3.384 1.296,2.664 1.871,1.872 z" style="fill:#000000;fill-opacity:1;fill-rule:nonzero;stroke:none" id="path1868"/>
  </g>
  <g id="g1870" transform="matrix(1.3333330154418945, 0, 0, -1.3333330154418945, 3069.6614142443586, 537.3892238207009)">
    <path d="m 0,0 h 140.472 l 2.304,-0.576 1.8,-1.8 1.296,-2.592 0.504,-3.24 v -199.224 l -0.504,-3.168 -1.296,-2.664 -1.8,-1.728 -2.304,-0.648 H 0 l -2.231,0.648 -1.873,1.728 -1.224,2.664 -0.432,3.168 V -8.208 l 0.432,3.24 1.224,2.592 1.873,1.8 z" style="fill:#ffffff;fill-opacity:1;fill-rule:nonzero;stroke:none" id="path1872"/>
  </g>
  <g id="g1874" transform="matrix(1.3333330154418945, 0, 0, -1.3333330154418945, 3083.964796250832, 585.6772168652351)">
    <path d="m 0,0 v -17.352 h -1.655 l 1.223,4.248 -0.719,2.52 v -0.072 -0.216 l -0.288,-1.584 -0.865,-1.296 -1.296,-0.792 -1.584,-0.36 -1.511,0.36 -1.296,0.792 -0.864,1.296 -0.289,1.584 0.289,1.512 0.864,1.224 1.296,0.864 1.511,0.36 0.865,-0.144 0.719,-0.144 0.649,-0.432 0.647,-0.432 0.288,0.144 0.216,0.072 0.145,0.288 -0.937,0.72 -0.647,0.792 -0.433,1.008 -0.143,1.08 0.288,1.512 0.864,1.296 1.224,0.864 z M 0,26.712 V 22.464 L -2.808,13.32 H 0 V 10.584 H -3.239 L -5.256,3.96 h -2.735 l 6.696,22.752 z M 0,10.584 V 13.32 H 2.881 L 0.145,22.896 0,22.464 v 4.248 H 1.873 L 8.497,3.96 H 5.832 L 3.816,10.584 Z M 0,-17.352 V 0 H 0.072 L 1.656,-0.288 2.809,-1.152 3.673,-2.448 4.032,-3.96 3.889,-4.968 3.528,-5.904 2.881,-6.696 2.089,-7.344 2.16,-7.704 2.305,-7.848 2.664,-7.992 3.24,-7.56 3.889,-7.2 4.608,-7.056 5.328,-6.912 6.912,-7.272 8.209,-8.136 9,-9.36 9.36,-10.872 9,-12.456 l -0.791,-1.296 -1.297,-0.792 -1.584,-0.36 -1.584,0.36 -1.223,0.792 -0.865,1.296 -0.359,1.584 v 0.216 0.072 l -0.649,-2.52 1.153,-4.248 z m 121.681,-138.456 v -2.736 h -2.88 l 2.736,-9.576 0.144,0.504 v -4.392 h -1.872 l -6.624,22.824 h 2.664 l 2.015,-6.624 z m 0,28.224 v -17.352 l -0.433,-0.072 -1.584,0.288 -1.224,0.864 -0.864,1.296 -0.359,1.512 0.216,1.152 0.431,0.936 0.72,0.864 0.864,0.648 -0.143,0.288 -0.216,0.072 -0.288,0.144 -0.576,-0.432 -0.649,-0.36 -0.72,-0.216 -0.864,-0.144 -1.584,0.36 -1.223,0.864 -0.865,1.224 -0.359,1.656 0.359,1.584 0.865,1.224 1.223,0.864 1.584,0.288 1.584,-0.288 1.225,-0.864 0.863,-1.224 0.289,-1.584 v -0.216 -0.216 l 0.791,2.664 -1.296,4.176 z m -59.472,63.792 0.071,-0.216 v -0.432 l 0.649,-3.24 1.8,-2.664 2.664,-1.728 3.24,-0.72 3.168,0.72 2.664,1.728 1.8,2.664 0.648,3.24 -0.648,3.168 -1.8,2.664 -2.664,1.8 -3.168,0.648 -1.584,-0.144 -1.441,-0.504 -1.295,-0.648 -1.153,-0.936 -0.791,0.216 -0.505,0.432 -0.071,0.72 1.655,1.296 1.296,1.728 0.864,1.944 0.288,2.088 -0.648,3.24 -1.8,2.664 -2.592,1.728 -3.168,0.648 -3.24,-0.648 -2.592,-1.728 -1.799,-2.664 -0.649,-3.24 0.288,-2.304 1.009,-2.088 1.44,-1.8 1.944,-1.224 -0.288,-0.72 -0.504,-0.216 -0.649,-0.216 -1.223,1.008 -1.441,0.72 -1.511,0.504 -1.729,0.144 -3.168,-0.648 -2.663,-1.8 -1.801,-2.664 -0.647,-3.168 0.647,-3.24 1.801,-2.664 2.663,-1.728 3.168,-0.72 3.24,0.72 2.664,1.728 1.8,2.664 0.649,3.24 v 0.432 0.216 l 1.151,-1.584 0.36,-3.816 -0.719,-4.464 -1.8,-4.176 h 7.128 l -1.729,4.176 -0.719,4.464 0.288,3.816 z m 59.472,-81.144 v 17.352 h 1.223 l -1.152,-4.176 0.648,-2.664 0.073,0.216 v 0.216 l 0.359,1.584 0.793,1.224 1.224,0.864 1.656,0.288 1.512,-0.288 1.296,-0.864 0.791,-1.224 0.361,-1.584 -0.361,-1.656 -0.791,-1.224 -1.296,-0.864 -1.512,-0.36 -0.792,0.144 -0.649,0.144 -0.719,0.36 -0.576,0.504 -0.289,-0.216 -0.215,-0.144 v -0.36 l 0.792,-0.576 0.576,-0.864 0.431,-0.936 0.073,-1.008 -0.361,-1.512 -0.792,-1.296 -1.223,-0.864 z m 0,-27.072 v 4.392 l 2.88,9.072 h -2.88 v 2.736 h 3.311 l 2.017,6.624 h 2.664 l -6.624,-22.824 z" style="fill:#000000;fill-opacity:1;fill-rule:nonzero;stroke:none" id="path1876"/>
  </g>
</svg>