<?xml version="1.0" encoding="utf-8"?>
<svg viewBox="3058.7167 874.349 209.28 296.7373" xmlns="http://www.w3.org/2000/svg">
  <g id="g3148" transform="matrix(1.3333330154418945, 0, 0, -1.3333330154418945, 3066.6861545370493, 874.3490230404968)">
    <path d="m 0,0 h 145.008 l 2.304,-0.647 1.944,-1.874 1.223,-2.664 0.504,-3.383 v -205.489 l -0.504,-3.239 -1.223,-2.736 -1.944,-1.872 -2.304,-0.649 H 0 l -2.377,0.649 -1.871,1.872 -1.296,2.736 -0.433,3.239 V -8.568 l 0.433,3.383 1.296,2.664 1.871,1.874 z" style="fill:#000000;fill-opacity:1;fill-rule:nonzero;stroke:none" id="path3150"/>
  </g>
  <g id="g3152" transform="matrix(1.3333330154418945, 0, 0, -1.3333330154418945, 3069.6614142443586, 879.0533676220185)">
    <path d="m 0,0 h 140.472 l 2.304,-0.576 1.8,-1.8 1.296,-2.592 0.504,-3.24 v -199.151 l -0.504,-3.169 -1.296,-2.592 -1.8,-1.8 -2.304,-0.648 H 0 l -2.231,0.648 -1.873,1.8 -1.224,2.592 -0.432,3.169 V -8.208 l 0.432,3.24 1.224,2.592 1.873,1.8 z" style="fill:#ffffff;fill-opacity:1;fill-rule:nonzero;stroke:none" id="path3154"/>
  </g>
  <g id="g3156" transform="matrix(1.3333330154418945, 0, 0, -1.3333330154418945, 3083.964796250832, 930.7968448687425)">
    <path d="m 0,0 v -15.192 l -0.791,2.232 -2.664,4.031 -2.592,4.177 -1.297,3.815 0.288,1.584 0.865,1.225 1.152,0.792 1.367,0.36 1.368,-0.289 1.368,-0.719 0.792,-1.152 z m -7.991,6.624 6.696,22.752 H 0 v -4.32 L -2.808,15.911 H 0 V 13.176 H -3.239 L -5.256,6.624 Z m 66.095,-57.816 v 2.015 l -0.791,3.313 -1.944,2.664 -2.808,1.8 -3.313,0.648 -3.096,-0.72 -2.591,-1.944 -1.657,-2.808 -0.719,-3.456 0.719,-4.249 2.017,-4.535 2.735,-4.536 3.24,-4.608 3.241,-4.68 2.736,-4.464 2.088,-4.392 0.791,-3.96 0.793,3.96 2.088,4.392 2.807,4.464 3.168,4.68 3.241,4.608 2.807,4.536 1.945,4.535 0.864,4.249 -0.721,3.456 -1.727,2.808 -2.592,1.944 -3.168,0.72 -1.656,-0.216 -1.657,-0.432 -1.439,-0.792 -1.296,-1.008 -1.152,-1.153 -0.865,-1.511 -0.576,-1.584 -0.143,-1.729 v -2.015 l -0.649,-0.36 z M 0,-15.192 V 0 l 0.145,-0.648 v -0.936 l 0.36,-0.144 0.359,0.144 v 0.936 L 1.152,0.864 2.017,2.016 3.313,2.735 4.752,3.024 6.121,2.664 7.272,1.872 8.064,0.647 8.353,-0.937 7.129,-4.752 4.465,-8.929 1.801,-12.96 0.505,-16.632 Z m 119.736,-135.577 v -2.735 h -2.88 l 2.88,-9.072 v -4.32 h -1.367 l -6.625,22.824 h 2.664 l 2.017,-6.697 z m 0,30.169 v -14.544 l -0.288,-0.073 v -0.935 l -0.288,-1.512 -0.863,-1.152 -1.225,-0.792 -1.511,-0.216 -1.296,0.288 -1.153,0.863 -0.864,1.225 -0.287,1.511 1.296,3.817 2.592,4.103 2.735,4.033 z M 0,29.376 H 1.873 L 8.497,6.624 H 5.832 L 3.816,13.176 H 0 v 2.735 H 2.881 L 0.145,25.56 0,25.056 Z m 119.736,-164.52 v 14.544 l 0.073,0.287 1.295,-3.671 2.592,-4.033 2.664,-4.103 1.296,-3.817 -0.287,-1.511 -0.793,-1.225 -1.223,-0.863 -1.296,-0.288 -1.512,0.216 -1.225,0.792 -0.863,1.152 -0.36,1.512 v 0.935 l -0.288,0.145 z m 0,-31.752 v 4.32 l 0.145,-0.433 2.664,9.505 h -2.809 v 2.735 h 3.817 l 1.944,6.697 h 2.735 l -6.624,-22.824 z" style="fill:#ff0000;fill-opacity:1;fill-rule:nonzero;stroke:none" id="path3158"/>
  </g>
</svg>