<?xml version="1.0" encoding="utf-8"?>
<svg viewBox="3058.7167 190.5412 209.28 296.8319" xmlns="http://www.w3.org/2000/svg">
  <g id="g118" transform="matrix(1.3333330154418945, 0, 0, -1.3333330154418945, 3066.6861545370493, 190.54116198449262)">
    <path d="m 0,0 h 145.008 l 2.304,-0.648 1.944,-1.872 1.223,-2.736 0.504,-3.312 v -205.56 l -0.504,-3.312 -1.223,-2.664 -1.944,-1.872 -2.304,-0.648 H 0 l -2.377,0.648 -1.871,1.872 -1.296,2.664 -0.433,3.312 v 205.56 l 0.433,3.312 1.296,2.736 1.871,1.872 z" style="fill:#000000;fill-opacity:1;fill-rule:nonzero;stroke:none" id="path120"/>
  </g>
  <g id="g122" transform="matrix(1.3333330154418945, 0, 0, -1.3333330154418945, 3069.6614142443586, 195.2449369046917)">
    <path d="m 0,0 h 140.472 l 2.304,-0.576 1.8,-1.8 1.296,-2.592 0.504,-3.312 v -199.152 l -0.504,-3.168 -1.296,-2.664 -1.8,-1.728 -2.304,-0.648 H 0 l -2.231,0.648 -1.873,1.728 -1.224,2.664 -0.432,3.168 V -8.28 l 0.432,3.312 1.224,2.592 1.873,1.8 z" style="fill:#ffffff;fill-opacity:1;fill-rule:nonzero;stroke:none" id="path124"/>
  </g>
  <g id="g126" transform="matrix(1.3333330154418945, 0, 0, -1.3333330154418945, 3083.964796250832, 241.90117578097488)">
    <path d="m 0,0 v -20.232 l -7.487,10.152 z m -7.991,2.736 6.696,22.752 H 0 V 21.24 L -2.808,12.096 H 0 V 9.36 H -3.239 L -5.256,2.736 Z m 83.448,-70.92 -2.232,2.664 -2.304,2.664 -2.089,2.736 -2.088,2.736 -1.943,2.808 -1.801,2.736 -1.655,2.664 -1.513,2.52 -1.512,-2.592 -1.656,-2.664 -1.871,-2.664 -1.944,-2.808 -2.088,-2.664 -2.16,-2.736 -2.304,-2.736 -2.376,-2.664 2.16,-2.448 2.087,-2.52 2.017,-2.52 2.015,-2.736 1.945,-2.664 1.944,-2.808 1.872,-2.952 1.8,-3.024 1.655,2.736 1.801,2.736 1.943,2.808 1.944,2.736 2.017,2.808 2.016,2.736 2.16,2.592 z M 0,-20.232 V 0 L 0.072,0.072 7.488,-10.08 0.072,-20.304 Z m 119.736,-134.424 v -2.736 h -2.88 l 2.88,-9.072 v -4.32 h -1.367 l -6.625,22.752 h 2.664 l 2.017,-6.624 z m 0,29.736 v -20.52 l -7.488,10.152 z M 0,25.488 H 1.873 L 8.497,2.736 H 5.832 L 3.816,9.36 H 0 v 2.736 H 2.881 L 0.145,21.672 0,21.24 Z M 119.736,-145.44 v 20.52 l 4.033,-5.616 0.503,1.8 1.225,-4.248 1.655,-2.304 -0.719,-1.008 0.576,-2.088 h -2.088 z m 0,-25.344 v 4.32 l 0.145,-0.504 2.664,9.576 h -2.809 v 2.736 h 3.817 l 1.944,6.624 h 2.735 l -6.624,-22.752 z" style="fill:#ff0000;fill-opacity:1;fill-rule:nonzero;stroke:none" id="path128"/>
  </g>
</svg>