<?xml version="1.0" encoding="utf-8"?>
<svg viewBox="1586.8458 532.6849 209.2813 296.8319" xmlns="http://www.w3.org/2000/svg">
  <g id="g1832" transform="matrix(1.3333330154418945, 0, 0, -1.3333330154418945, 1594.9098127276234, 532.6849606193683)">
    <path d="m 0,0 h 144.936 l 2.305,-0.648 1.943,-1.872 1.225,-2.664 0.504,-3.384 v -205.56 l -0.504,-3.312 -1.225,-2.664 -1.943,-1.872 -2.305,-0.648 H 0 l -2.376,0.648 -1.872,1.872 -1.296,2.664 -0.504,3.312 v 205.56 l 0.504,3.384 1.296,2.664 1.872,1.872 z" style="fill:#000000;fill-opacity:1;fill-rule:nonzero;stroke:none" id="path1834"/>
  </g>
  <g id="g1836" transform="matrix(1.3333330154418945, 0, 0, -1.3333330154418945, 1597.8857234764441, 537.3892238207009)">
    <path d="m 0,0 h 140.4 l 2.304,-0.576 1.8,-1.8 1.296,-2.592 0.504,-3.24 v -199.224 l -0.504,-3.168 -1.296,-2.664 -1.8,-1.728 -2.304,-0.648 H 0 l -2.232,0.648 -1.872,1.728 -1.224,2.664 -0.432,3.168 V -8.208 l 0.432,3.24 1.224,2.592 1.872,1.8 z" style="fill:#ffffff;fill-opacity:1;fill-rule:nonzero;stroke:none" id="path1838"/>
  </g>
  <g id="g1840" transform="matrix(1.3333330154418945, 0, 0, -1.3333330154418945, 1608.541970935796, 584.7166864952851)">
    <path d="m 0,0 v -10.008 l -0.072,0.144 -0.288,1.296 v 0.144 l -0.072,0.144 -0.504,-2.088 0.864,-3.456 h -2.736 l 1.008,3.456 -0.648,2.088 v -0.144 -0.144 l -0.216,-1.296 -0.648,-1.009 -1.008,-0.648 -1.296,-0.287 -1.296,0.287 -1.008,0.648 -0.648,1.009 -0.36,1.296 0.36,1.296 0.648,1.008 1.008,0.648 1.296,0.288 0.648,-0.072 0.576,-0.216 0.576,-0.288 0.504,-0.36 0.216,0.144 h 0.144 l 0.144,0.36 -0.792,0.432 -0.504,0.648 -0.36,0.864 -0.144,0.936 0.288,1.224 0.648,1.08 1.08,0.648 1.224,0.288 1.296,-0.288 z m -5.76,10.872 v 0.432 l -0.072,0.432 0.072,1.152 0.288,0.936 0.36,0.936 0.504,0.864 0.792,0.72 0.72,0.504 -0.864,0.648 -0.648,1.008 -0.36,1.224 -0.144,1.152 0.144,1.44 0.504,1.512 0.288,0.576 0.432,0.576 0.432,0.504 0.576,0.431 0.576,0.433 0.648,0.216 0.72,0.216 H -0.072 0 V 24.408 H -0.072 L -0.576,24.335 -1.08,24.264 -1.512,23.976 -1.944,23.688 -2.592,22.68 -2.88,21.384 l 0.288,-1.512 0.504,-1.152 0.504,-0.36 0.36,-0.288 0.504,-0.144 0.648,-0.073 H 0 v -2.231 h -0.432 l -0.36,-0.072 -0.432,-0.073 -0.36,-0.215 -0.792,-0.576 -0.576,-0.864 -0.36,-0.865 -0.072,-1.151 0.072,-1.225 0.36,-1.007 0.576,-0.721 0.792,-0.647 0.36,-0.145 0.432,-0.144 0.36,-0.071 L 0,7.776 V 5.184 H -0.072 -0.864 L -1.512,5.328 -2.088,5.543 -2.736,5.832 -3.312,6.192 -3.888,6.696 -4.392,7.344 -4.824,7.919 -5.472,9.36 Z M 0,-10.008 V 0 L 0.864,-0.576 1.584,-1.656 1.8,-2.88 1.368,-4.464 0.216,-5.688 0.288,-5.976 0.432,-6.12 H 0.72 l 0.504,0.287 0.504,0.217 0.504,0.216 0.648,0.072 1.224,-0.288 1.08,-0.648 0.648,-1.008 0.288,-1.296 -0.288,-1.296 -0.648,-1.009 -1.08,-0.648 -1.224,-0.287 -1.296,0.287 -1.008,0.648 z m 44.353,-125.856 v -7.2 l -1.369,-2.16 -2.664,-1.8 -3.096,-0.576 -1.512,0.144 -1.512,0.432 -1.368,0.792 -1.224,0.864 -0.576,-0.144 -0.504,-0.216 -0.216,-0.792 1.8,-1.152 1.44,-1.656 0.936,-2.016 0.288,-2.304 -0.576,-3.096 -1.728,-2.52 -2.592,-1.8 -3.096,-0.576 -3.24,0.576 -2.52,1.8 -1.8,2.52 -0.576,3.096 0.288,2.16 0.792,1.8 1.296,1.728 1.656,1.224 -0.144,0.576 -0.504,0.432 -0.648,0.216 -1.152,-0.864 -1.224,-0.648 -1.44,-0.432 -1.512,-0.144 -3.096,0.576 -2.52,1.8 -1.8,2.592 -0.648,3.168 0.648,3.096 1.8,2.592 2.52,1.728 3.096,0.648 3.096,-0.648 2.52,-1.728 1.728,-2.592 0.648,-3.096 v -0.432 l 0.072,-0.432 1.296,1.656 0.216,3.672 -0.72,4.536 -1.728,3.96 h 7.128 l -1.728,-3.96 -0.792,-4.464 0.288,-3.744 1.152,-1.656 v 0.432 0.432 l 0.648,3.096 1.728,2.592 2.592,1.728 3.024,0.648 3.096,-0.648 2.664,-1.728 z m 0,31.032 v -7.2 l -0.289,0.432 -0.576,3.168 0.576,3.168 z m 0,39.888 v -7.272 l -1.369,-2.016 -2.664,-1.8 -3.096,-0.648 -1.512,0.216 -1.512,0.432 -1.368,0.72 -1.224,0.936 -0.576,-0.216 -0.504,-0.216 -0.216,-0.72 1.8,-1.224 1.44,-1.656 0.936,-2.016 0.288,-2.304 -0.576,-3.096 -1.728,-2.52 -2.592,-1.728 -3.096,-0.648 -3.24,0.648 -2.52,1.728 -1.8,2.52 -0.576,3.096 0.288,2.16 0.792,1.8 1.296,1.728 1.656,1.224 -0.144,0.648 -0.504,0.432 -0.648,0.215 -1.152,-0.863 -1.224,-0.72 -1.44,-0.36 -1.512,-0.216 -3.096,0.648 -2.52,1.8 -1.8,2.52 -0.648,3.168 0.648,3.168 1.8,2.448 2.52,1.8 3.096,0.648 3.096,-0.648 2.52,-1.8 1.728,-2.448 0.648,-3.168 v -0.432 l 0.072,-0.432 1.296,1.656 0.216,3.672 -0.72,4.464 -1.728,4.032 h 7.128 l -1.728,-4.032 -0.792,-4.464 0.288,-3.672 1.152,-1.656 v 0.432 0.432 l 0.648,3.168 1.728,2.448 2.592,1.8 3.024,0.648 3.096,-0.648 2.664,-1.8 z m 0,31.752 v -7.128 l -0.289,0.432 -0.576,3.168 0.576,3.095 z m 0,30.888 v -6.841 l -1.513,-2.231 -2.592,-1.728 -3.024,-0.72 -3.168,0.72 -2.52,1.728 -1.728,2.52 -0.648,3.168 v 0.36 l -0.072,0.36 -1.152,-1.657 -0.216,-3.527 0.648,-4.464 1.656,-4.032 H 23.04 l 1.8,4.032 0.72,4.392 -0.288,3.599 -1.224,1.657 v -0.36 -0.36 l -0.648,-3.168 -1.728,-2.52 -2.52,-1.728 -3.096,-0.72 -3.096,0.72 -2.52,1.728 -1.8,2.52 -0.648,3.168 0.648,3.096 1.8,2.52 2.52,1.8 3.096,0.576 1.584,-0.144 1.512,-0.432 1.368,-0.792 1.152,-0.864 0.648,0.216 0.432,0.144 0.288,0.792 -1.8,1.151 -1.512,1.657 -0.792,2.016 -0.36,2.304 0.576,3.096 1.728,2.592 2.592,1.728 3.096,0.576 3.168,-0.576 2.448,-1.728 1.8,-2.592 0.576,-3.096 -0.288,-2.16 -0.792,-1.8 -1.296,-1.656 -1.656,-1.296 0.144,-0.576 0.504,-0.432 0.648,-0.216 1.152,0.864 1.296,0.648 1.44,0.432 1.512,0.144 3.024,-0.576 2.592,-1.8 z M 0,26.784 H 0.72 L 1.44,26.568 2.16,26.352 2.736,25.992 3.384,25.56 3.888,25.056 4.248,24.479 4.608,23.904 5.112,22.608 5.328,21.167 5.184,19.872 4.752,18.72 4.032,17.712 3.168,16.848 3.744,16.488 4.32,15.84 4.824,15.264 5.184,14.616 5.688,13.176 5.832,11.736 5.688,10.08 5.112,8.496 4.68,7.776 4.176,7.127 3.672,6.552 2.952,6.048 2.232,5.688 1.584,5.328 0.72,5.184 H 0 V 7.776 H 0.072 L 0.72,7.848 1.44,8.063 1.944,8.424 2.52,8.928 3.312,10.224 3.528,11.808 3.312,13.464 2.52,14.688 1.944,15.12 1.44,15.479 0.72,15.624 H 0.072 0 v 2.231 L 0.648,18 l 0.72,0.288 0.504,0.432 0.576,0.72 0.36,0.792 L 2.88,21.24 2.664,22.536 2.088,23.472 1.584,23.832 1.08,24.12 0.576,24.335 0,24.408 Z M 44.353,-9.145 v 6.841 l 0.214,-0.288 0.577,-3.096 -0.577,-3.168 z m 0,-63.071 v 7.272 l 0.287,-0.432 0.576,-3.168 -0.576,-3.168 z m 0,-70.848 v 7.2 l 0.287,-0.504 0.576,-3.096 -0.576,-3.168 z m 35.423,7.2 v -7.272 l -0.36,0.504 -0.576,3.168 0.576,3.096 z m 0,31.032 v -7.272 l -1.44,-2.088 -2.521,-1.728 -3.167,-0.648 -1.584,0.216 -1.512,0.432 -1.296,0.72 -1.296,0.864 -0.576,-0.144 -0.432,-0.216 -0.288,-0.72 1.8,-1.296 1.439,-1.656 0.866,-1.944 0.359,-2.304 -0.576,-3.096 -1.728,-2.52 -2.593,-1.728 -3.095,-0.72 -3.168,0.72 -2.52,1.728 -1.8,2.52 -0.576,3.096 0.288,2.088 0.791,1.872 1.225,1.656 1.656,1.296 -0.072,0.576 -0.504,0.432 -0.648,0.216 -1.152,-0.864 -1.296,-0.648 -1.44,-0.36 -1.512,-0.216 -3.096,0.648 -2.52,1.728 -1.439,2.16 v 7.2 l 1.439,2.088 2.52,1.728 3.096,0.648 3.168,-0.648 2.592,-1.728 1.656,-2.52 0.648,-3.168 v -0.432 l 0.072,-0.36 1.225,1.584 0.287,3.672 -0.792,4.464 -1.728,4.032 h 7.128 l -1.8,-4.032 -0.72,-4.392 0.288,-3.744 1.152,-1.584 v 0.36 0.432 l 0.72,3.168 1.656,2.52 2.592,1.728 3.096,0.648 3.167,-0.648 2.521,-1.728 z m 0,39.888 v -7.272 l -0.36,0.504 -0.576,3.168 0.576,3.168 z m 0,31.608 v -6.84 l -1.512,-2.232 -2.663,-1.728 -3.097,-0.648 -3.096,0.648 -2.52,1.728 -1.728,2.52 -0.648,3.168 v 0.36 l -0.073,0.288 -1.151,-1.512 -0.217,-3.6 0.649,-4.536 1.728,-3.96 h -6.984 l 1.8,3.96 0.648,4.464 -0.288,3.672 -1.152,1.512 v -0.288 -0.36 l -0.648,-3.168 -1.656,-2.52 -2.592,-1.728 -3.168,-0.648 -3.096,0.648 -2.52,1.728 -1.439,2.088 v 7.128 l 1.439,2.088 2.52,1.728 3.096,0.647 1.656,-0.144 1.512,-0.503 1.296,-0.72 1.296,-0.864 0.576,0.216 0.36,0.144 0.36,0.72 -1.8,1.296 -1.513,1.656 -0.863,2.016 -0.36,2.232 0.648,3.096 1.728,2.592 2.592,1.728 3.096,0.648 3.025,-0.648 2.591,-1.728 1.656,-2.592 0.648,-3.096 -0.288,-2.088 -0.721,-1.8 -1.295,-1.728 -1.656,-1.296 0.071,-0.576 0.504,-0.432 0.721,-0.216 1.008,0.864 1.368,0.648 1.44,0.431 1.44,0.144 3.097,-0.647 2.663,-1.728 z m 0,31.176 v -7.128 l -0.36,0.432 -0.576,3.168 0.576,3.096 z m 0,-7.128 v 7.128 l 1.44,2.088 2.592,1.8 3.095,0.576 L 88.487,2.16 90,1.728 l 1.368,-0.792 1.153,-0.864 0.647,0.216 0.433,0.144 0.287,0.792 -1.871,1.151 -1.441,1.657 -0.864,2.016 -0.359,2.304 0.647,3.096 1.728,2.592 2.52,1.728 3.168,0.576 3.096,-0.576 2.592,-1.728 1.656,-2.592 0.648,-3.096 -0.288,-2.16 -0.792,-1.8 -1.224,-1.656 -1.728,-1.296 0.145,-0.576 0.502,-0.432 0.649,-0.216 1.08,0.864 1.368,0.648 1.44,0.432 1.44,0.144 3.096,-0.576 2.664,-1.8 1.656,-2.52 0.648,-3.096 -0.648,-3.168 -1.656,-2.52 -2.664,-1.728 -3.096,-0.72 -3.097,0.72 -2.591,1.728 -1.656,2.52 -0.648,3.168 v 0.36 l -0.144,0.36 -1.152,-1.657 -0.145,-3.527 0.649,-4.464 1.656,-4.032 h -6.984 l 1.728,4.032 0.792,4.392 -0.36,3.599 -1.08,1.657 v -0.36 -0.36 l -0.72,-3.168 -1.727,-2.52 -2.521,-1.728 -3.097,-0.72 -3.095,0.72 -2.592,1.728 z m 0,-30.888 v 6.84 l 0.144,-0.289 0.647,-3.095 -0.647,-3.168 z m 0,-32.04 v 7.272 l 1.44,2.016 2.592,1.8 3.095,0.648 3.097,-0.648 2.521,-1.8 1.727,-2.448 0.72,-3.168 v -0.432 -0.432 l 1.296,1.656 0.216,3.672 -0.72,4.464 -1.8,4.032 h 7.2 l -1.8,-4.032 -0.72,-4.464 0.216,-3.672 1.224,-1.656 v 0.432 0.432 l 0.648,3.168 1.728,2.448 2.592,1.8 3.023,0.648 3.169,-0.648 2.592,-1.8 1.728,-2.448 0.576,-3.168 -0.576,-3.168 -1.728,-2.52 -2.592,-1.8 -3.169,-0.648 -1.511,0.216 -1.512,0.432 -1.368,0.72 -1.224,0.936 -0.576,-0.216 -0.504,-0.216 -0.216,-0.72 1.8,-1.224 1.439,-1.656 0.865,-2.016 0.36,-2.304 -0.576,-3.096 -1.8,-2.52 -2.592,-1.728 -3.096,-0.648 -3.096,0.648 -2.592,1.728 -1.801,2.52 -0.575,3.096 0.216,2.16 0.864,1.8 1.224,1.728 1.656,1.224 -0.072,0.648 -0.504,0.432 -0.649,0.215 -1.151,-0.863 -1.224,-0.72 -1.44,-0.36 -1.513,-0.216 -3.095,0.648 -2.592,1.8 z m 0,-39.888 v 7.272 l 0.288,-0.432 0.648,-3.168 -0.648,-3.168 z m 0,-31.032 v 7.272 l 1.44,2.088 2.592,1.728 3.095,0.648 3.097,-0.648 2.521,-1.728 1.727,-2.592 0.72,-3.096 v -0.432 -0.432 l 1.296,1.656 0.216,3.672 -0.72,4.536 -1.8,3.96 h 7.2 l -1.8,-3.96 -0.72,-4.464 0.216,-3.744 1.224,-1.656 v 0.432 0.432 l 0.648,3.096 1.728,2.592 2.592,1.728 3.023,0.648 3.169,-0.648 2.592,-1.728 1.728,-2.592 0.576,-3.096 -0.576,-3.168 -1.728,-2.592 -2.592,-1.8 -3.169,-0.576 -1.511,0.144 -1.512,0.432 -1.368,0.792 -1.224,0.864 -0.576,-0.144 -0.504,-0.216 -0.216,-0.792 1.8,-1.152 1.439,-1.656 0.865,-2.016 0.36,-2.304 -0.576,-3.096 -1.8,-2.52 -2.592,-1.8 -3.096,-0.576 -3.096,0.576 -2.592,1.8 -1.801,2.52 -0.575,3.096 0.216,2.16 0.864,1.8 1.224,1.728 1.656,1.224 -0.072,0.576 -0.504,0.432 -0.649,0.216 -1.151,-0.864 -1.224,-0.648 -1.44,-0.432 -1.513,-0.144 -3.095,0.576 -2.592,1.8 z m 45.864,-9 v -2.736 l -0.792,-0.144 -0.648,-0.144 -0.504,-0.36 -0.576,-0.504 -0.721,-1.296 -0.287,-1.584 0.287,-1.584 0.721,-1.296 0.576,-0.504 0.504,-0.288 0.648,-0.144 0.792,-0.072 v -2.16 l -0.576,-0.144 -0.792,-0.288 -0.503,-0.504 -0.577,-0.648 -0.289,-0.792 -0.143,-0.936 0.288,-1.296 0.576,-1.008 0.432,-0.36 0.504,-0.288 0.504,-0.216 0.576,-0.072 v -2.448 l -0.648,0.072 -0.792,0.216 -0.648,0.216 -0.649,0.288 -0.647,0.432 -0.504,0.504 -0.36,0.576 -0.36,0.576 -0.505,1.368 -0.143,1.44 0.072,1.296 0.432,1.152 0.72,1.008 0.936,0.792 -0.648,0.504 -0.504,0.504 -0.504,0.648 -0.432,0.648 -0.504,1.44 -0.144,1.512 0.144,1.584 0.575,1.512 0.433,0.792 0.504,0.72 0.576,0.504 0.648,0.504 0.72,0.504 0.792,0.288 0.792,0.144 z m 0,20.664 v -1.8 l -0.432,-1.656 0.432,-1.728 v -8.856 l -0.864,-0.216 -1.224,0.288 -1.08,0.72 -0.72,1.008 -0.216,1.296 0.072,0.936 0.432,0.792 0.576,0.648 0.792,0.504 -0.144,0.36 h -0.216 l -0.288,0.072 -0.504,-0.36 -0.504,-0.216 -0.504,-0.288 h -0.721 l -1.296,0.288 -1.007,0.648 -0.72,1.008 -0.288,1.368 0.288,1.296 0.72,0.936 1.007,0.648 1.296,0.36 1.225,-0.36 1.008,-0.648 0.72,-0.936 0.289,-1.296 v -0.216 -0.144 l 0.647,2.088 -1.008,3.456 z m 0,-1.8 v 1.8 h 0.504 z m 0,-12.24 v 8.856 l 0.072,-0.36 0.072,0.144 v 0.216 l 0.216,1.296 0.72,0.936 1.008,0.648 1.295,0.36 1.225,-0.36 1.08,-0.648 0.72,-0.936 0.216,-1.296 -0.216,-1.368 -0.72,-1.008 -1.08,-0.648 -1.225,-0.288 h -0.647 l -0.504,0.144 -0.504,0.36 -0.504,0.288 h -0.36 l -0.144,-0.216 v -0.288 l 1.152,-1.08 0.432,-1.656 -0.288,-1.296 -0.648,-1.008 -1.008,-0.72 z m 0,-28.44 v 2.448 l 0.072,-0.072 0.504,0.144 0.432,0.072 0.503,0.288 0.505,0.36 0.575,0.936 0.29,1.296 -0.217,1.512 -0.576,1.08 -0.432,0.432 -0.432,0.288 -0.504,0.144 -0.576,0.072 h -0.144 v 2.16 H 126 l 0.432,0.144 0.432,0.072 0.432,0.216 0.721,0.576 0.647,0.792 0.288,0.936 0.071,1.152 -0.071,1.152 -0.288,1.008 -0.647,0.72 -0.721,0.648 -0.432,0.216 -0.432,0.144 H 126 l -0.36,0.144 v 2.736 h 0.144 l 0.72,-0.072 0.647,-0.144 0.649,-0.288 0.576,-0.36 0.647,-0.36 0.504,-0.504 0.505,-0.648 0.504,-0.504 0.576,-1.368 0.287,-1.584 v -0.432 l 0.145,-0.36 -0.145,-1.152 -0.287,-1.08 -0.36,-0.936 -0.504,-0.792 -0.721,-0.72 -0.792,-0.576 0.866,-0.648 0.647,-1.008 0.36,-1.152 0.144,-1.224 -0.144,-1.368 -0.504,-1.512 -0.289,-0.648 -0.359,-0.576 -0.504,-0.504 -0.576,-0.432 -0.504,-0.36 -0.721,-0.216 -0.719,-0.216 -0.72,-0.072 z" style="fill:#000000;fill-opacity:1;fill-rule:nonzero;stroke:none" id="path1842"/>
  </g>
</svg>