<?xml version="1.0" encoding="utf-8"?>
<svg viewBox="1586.8458 1212.0768 209.2813 296.8319" xmlns="http://www.w3.org/2000/svg">
  <g id="g3948" transform="matrix(1.3333330154418945, 0, 0, -1.3333330154418945, 1594.9098127276234, 1212.076766413138)">
    <path d="m 0,0 h 144.936 l 2.305,-0.648 1.943,-1.872 1.225,-2.665 0.504,-3.383 v -205.56 l -0.504,-3.24 -1.225,-2.736 -1.943,-1.873 -2.305,-0.647 H 0 l -2.376,0.647 -1.872,1.873 -1.296,2.736 -0.504,3.24 v 205.56 l 0.504,3.383 1.296,2.665 1.872,1.872 z" style="fill:#000000;fill-opacity:1;fill-rule:nonzero;stroke:none" id="path3950"/>
  </g>
  <g id="g3952" transform="matrix(1.3333330154418945, 0, 0, -1.3333330154418945, 1597.8857234764441, 1216.7811923748486)">
    <path d="m 0,0 h 140.4 l 2.304,-0.575 1.8,-1.801 1.296,-2.592 0.504,-3.24 v -199.224 l -0.504,-3.168 -1.296,-2.591 -1.8,-1.8 -2.304,-0.649 H 0 l -2.232,0.649 -1.872,1.8 -1.224,2.591 -0.432,3.168 V -8.208 l 0.432,3.24 1.224,2.592 1.872,1.801 z" style="fill:#ffffff;fill-opacity:1;fill-rule:nonzero;stroke:none" id="path3954"/>
  </g>
  <g id="g3956" transform="matrix(1.3333330154418945, 0, 0, -1.3333330154418945, 1608.541970935796, 1228.397034331978)">
    <path d="m 0,0 v -2.376 h -0.072 -0.504 l -0.504,-0.145 -0.432,-0.215 -0.432,-0.36 -0.648,-0.936 -0.288,-1.367 0.288,-1.513 0.504,-1.08 0.504,-0.432 0.36,-0.217 0.504,-0.214 0.648,-0.073 L 0,-8.855 v -2.233 h -0.432 l -0.36,-0.144 -0.432,-0.072 -0.36,-0.217 -0.792,-0.575 -0.576,-0.792 -0.36,-0.936 -0.072,-1.153 0.072,-1.151 0.36,-1.008 0.576,-0.792 0.792,-0.648 0.36,-0.144 0.432,-0.143 0.36,-0.074 H 0 V -21.6 h -0.072 l -0.792,0.072 -0.648,0.144 -0.576,0.144 -0.648,0.36 -0.576,0.288 -0.576,0.504 -0.504,0.649 -0.432,0.647 -0.648,1.368 -0.288,1.512 v 0.433 l -0.072,0.431 0.072,1.152 0.288,1.008 0.36,0.865 0.504,0.863 0.792,0.721 0.72,0.502 -0.864,0.649 -0.648,1.009 -0.36,1.222 -0.144,1.225 0.144,1.44 0.504,1.44 0.288,0.576 0.432,0.647 0.432,0.504 0.576,0.433 0.576,0.359 0.648,0.217 0.72,0.216 0.72,0.072 z m 0,-43.992 h -2.952 l 1.224,2.448 0.648,2.521 v 2.303 l -0.792,1.728 H -2.304 L -1.8,-36 l 0.216,-1.152 -0.36,-1.224 -0.72,-1.008 -1.08,-0.648 -1.152,-0.216 -1.224,0.216 -1.008,0.792 -0.648,1.008 -0.144,1.295 1.08,3.313 2.52,3.384 2.592,3.168 1.512,2.593 L 0,-24.983 Z m 29.952,-1.441 h -9.72 l 2.592,4.897 1.08,4.968 -0.072,4.536 -1.44,3.456 h -0.864 l 1.008,-2.016 0.36,-2.232 -0.576,-2.52 -1.512,-1.944 -2.088,-1.296 -2.376,-0.504 -2.304,0.504 -1.944,1.439 -1.224,2.162 -0.504,2.519 0.576,3.096 1.584,3.385 2.304,3.383 2.664,3.312 2.736,3.311 2.448,3.097 1.872,2.735 1.08,2.521 0.936,-2.448 1.872,-2.737 2.232,-3.095 2.664,-3.312 2.52,-3.312 2.088,-3.455 1.584,-3.242 0.504,-3.239 -0.504,-2.519 -1.296,-2.162 -1.872,-1.439 -2.376,-0.504 -2.376,0.504 -2.088,1.296 -1.44,1.944 -0.648,2.52 0.36,2.232 1.008,2.016 h -0.864 l -1.368,-3.456 -0.216,-4.536 1.224,-4.968 z m 0,-32.183 h -9.72 l 2.592,-4.823 1.08,-5.04 -0.072,-4.538 -1.44,-3.382 -0.864,-0.074 1.008,2.017 0.36,2.304 -0.576,2.448 -1.512,2.016 -2.088,1.296 -2.376,0.36 -2.304,-0.504 -1.944,-1.368 -1.224,-2.088 -0.504,-2.592 0.576,-3.096 1.584,-3.312 2.304,-3.384 2.664,-3.384 2.736,-3.311 2.448,-3.097 1.872,-2.809 1.08,-2.447 0.936,2.447 1.872,2.737 2.232,3.169 2.664,3.239 2.52,3.456 2.088,3.384 1.584,3.24 0.504,3.168 -0.504,2.592 -1.296,2.088 -1.872,1.368 -2.376,0.504 -2.376,-0.36 -2.088,-1.296 -1.44,-2.016 -0.648,-2.448 0.36,-2.304 1.008,-2.017 -0.864,0.074 -1.368,3.382 -0.216,4.538 1.224,5.04 z m 37.584,-35.424 h -9.648 l 2.52,-4.823 1.152,-5.041 -0.144,-4.535 -1.368,-3.385 -0.936,-0.072 1.008,2.016 0.36,2.304 -0.577,2.448 -1.439,2.016 -2.16,1.224 -2.376,0.504 -2.304,-0.504 -1.872,-1.44 -1.296,-2.159 -0.504,-2.521 0.649,-3.096 1.584,-3.383 2.231,-3.313 2.735,-3.384 2.664,-3.312 2.449,-3.096 1.944,-2.881 1.008,-2.447 0.935,2.447 1.801,2.737 2.304,3.095 2.592,3.385 2.591,3.384 2.088,3.385 1.585,3.311 0.504,3.168 -0.504,2.521 -1.224,2.159 -1.944,1.44 -2.377,0.504 -2.303,-0.504 -2.16,-1.224 -1.512,-2.016 -0.575,-2.448 0.359,-2.304 1.008,-2.016 -0.936,0.072 -1.368,3.385 -0.143,4.535 1.151,5.041 z m 0,36.504 h -9.648 l 2.52,4.824 1.152,5.04 -0.144,4.536 -1.368,3.384 -0.936,0.072 1.008,-2.015 0.36,-2.305 -0.577,-2.521 -1.439,-1.943 -2.16,-1.296 -2.376,-0.431 -2.304,0.503 -1.872,1.44 -1.296,2.088 -0.504,2.519 0.649,3.097 1.584,3.384 2.231,3.385 2.735,3.383 2.664,3.24 2.449,3.095 1.944,2.809 1.008,2.448 0.935,-2.376 1.801,-2.807 2.304,-3.097 2.592,-3.312 2.591,-3.312 2.088,-3.456 1.585,-3.239 0.504,-3.242 -0.504,-2.519 -1.224,-2.088 -1.944,-1.44 -2.377,-0.503 -2.303,0.431 -2.16,1.296 -1.512,1.943 -0.575,2.521 0.359,2.305 1.008,2.015 -0.936,-0.072 -1.368,-3.384 -0.143,-4.536 1.151,-5.04 z m -37.584,-76.392 h -9.72 l 2.592,-4.824 1.08,-5.04 -0.072,-4.536 -1.44,-3.456 h -0.864 l 1.008,1.944 0.36,2.304 -0.576,2.448 -1.512,2.017 -2.088,1.296 -2.376,0.504 -2.304,-0.504 -1.944,-1.513 -1.224,-2.088 -0.504,-2.52 0.576,-3.096 1.584,-3.384 2.304,-3.384 2.664,-3.311 2.736,-3.313 2.448,-3.168 1.872,-2.807 1.08,-2.45 0.936,2.45 1.872,2.807 2.232,3.024 2.664,3.383 2.52,3.385 2.088,3.384 1.584,3.313 0.504,3.167 -0.504,2.52 -1.296,2.088 -1.872,1.513 -2.376,0.504 -2.376,-0.504 -2.088,-1.296 -1.44,-2.017 -0.648,-2.448 0.36,-2.304 1.008,-1.944 h -0.864 l -1.368,3.456 -0.216,4.536 1.224,5.04 z m 75.312,107.495 h -9.72 l 2.52,4.897 1.152,4.968 -0.145,4.536 -1.367,3.456 h -0.935 l 1.007,-2.016 0.36,-2.232 -0.576,-2.52 -1.512,-1.944 -2.088,-1.296 -2.376,-0.504 -2.376,0.504 -1.8,1.439 -1.296,2.162 -0.504,2.519 0.648,3.096 1.584,3.385 2.231,3.383 2.664,3.312 2.737,3.311 2.376,3.097 2.016,2.735 1.008,2.521 1.008,-2.448 1.8,-2.737 2.376,-3.095 2.52,-3.312 2.52,-3.312 2.16,-3.455 1.513,-3.242 0.575,-3.239 -0.504,-2.519 -1.224,-2.162 -2.015,-1.439 -2.305,-0.504 -2.448,0.504 -2.088,1.296 -1.512,1.944 -0.504,2.52 0.36,2.232 1.008,2.016 h -0.936 l -1.368,-3.456 -0.144,-4.536 1.151,-4.968 z m 0,-32.183 h -9.72 l 2.52,-4.823 1.152,-5.04 -0.145,-4.538 -1.367,-3.382 -0.935,-0.074 1.007,2.017 0.36,2.304 -0.576,2.448 -1.512,2.016 -2.088,1.296 -2.376,0.36 -2.376,-0.504 -1.8,-1.368 -1.296,-2.088 -0.504,-2.592 0.648,-3.096 1.584,-3.312 2.231,-3.384 2.664,-3.384 2.737,-3.311 2.376,-3.097 2.016,-2.809 1.008,-2.447 1.008,2.447 1.8,2.737 2.376,3.169 2.52,3.239 2.52,3.456 2.16,3.384 1.513,3.24 0.575,3.168 -0.504,2.592 -1.224,2.088 -2.015,1.368 -2.305,0.504 -2.448,-0.36 -2.088,-1.296 -1.512,-2.016 -0.504,-2.448 0.36,-2.304 1.008,-2.017 -0.936,0.074 -1.368,3.382 -0.144,4.538 1.151,5.04 z m 0,-75.312 h -9.72 l 2.52,-4.824 1.152,-5.04 -0.145,-4.536 -1.367,-3.456 h -0.935 l 1.007,1.944 0.36,2.304 -0.576,2.448 -1.512,2.017 -2.088,1.296 -2.376,0.504 -2.376,-0.504 -1.8,-1.513 -1.296,-2.088 -0.504,-2.52 0.648,-3.096 1.584,-3.384 2.231,-3.384 2.664,-3.311 2.737,-3.313 2.376,-3.168 2.016,-2.807 1.008,-2.45 1.008,2.45 1.8,2.807 2.376,3.024 2.52,3.383 2.52,3.385 2.16,3.384 1.513,3.313 0.575,3.167 -0.504,2.52 -1.224,2.088 -2.015,1.513 -2.305,0.504 -2.448,-0.504 -2.088,-1.296 -1.512,-2.017 -0.504,-2.448 0.36,-2.304 1.008,-1.944 h -0.936 l -1.368,3.456 -0.144,4.536 1.151,5.04 z M 0,-21.6 v 2.663 H 0.072 0.72 l 0.72,0.217 0.504,0.432 0.576,0.504 0.792,1.223 0.216,1.584 -0.216,1.657 -0.792,1.297 -0.576,0.431 -0.504,0.288 -0.72,0.144 -0.648,0.072 H 0 v 2.233 l 0.648,0.071 0.72,0.288 0.504,0.504 0.576,0.648 0.36,0.865 L 2.88,-5.544 2.664,-4.248 2.088,-3.24 1.584,-2.88 1.08,-2.592 0.576,-2.447 0,-2.376 V 0 h 0.72 l 0.72,-0.216 0.72,-0.217 0.576,-0.359 0.648,-0.433 0.504,-0.504 0.36,-0.503 0.36,-0.648 0.504,-1.296 0.216,-1.44 -0.144,-1.296 -0.432,-1.151 -0.72,-1.009 -0.864,-0.865 0.576,-0.359 0.576,-0.648 0.504,-0.577 0.36,-0.647 0.504,-1.368 0.144,-1.512 -0.144,-1.656 -0.576,-1.584 -0.432,-0.649 -0.504,-0.719 -0.504,-0.576 -0.72,-0.504 -0.72,-0.36 -0.648,-0.288 -0.864,-0.144 z m 125.64,-157.32 v -2.736 l -0.792,-0.073 -0.648,-0.143 -0.504,-0.432 -0.576,-0.505 -0.721,-1.223 -0.287,-1.656 0.287,-1.583 0.721,-1.297 0.576,-0.503 0.504,-0.217 0.648,-0.145 0.792,-0.143 v -2.16 l -0.576,-0.144 -0.792,-0.288 -0.503,-0.504 -0.577,-0.648 -0.289,-0.72 -0.143,-1.008 0.288,-1.296 0.576,-1.008 0.432,-0.36 0.504,-0.288 0.504,-0.216 0.576,-0.072 v -2.376 l -0.648,0.072 -0.792,0.145 -0.648,0.215 -0.649,0.36 -0.647,0.433 -0.504,0.502 -0.36,0.504 -0.36,0.649 -0.505,1.297 -0.143,1.439 0.072,1.368 0.432,1.152 0.72,0.936 0.936,0.863 -0.648,0.433 -0.504,0.504 -0.504,0.647 -0.432,0.721 -0.504,1.367 -0.144,1.513 0.144,1.656 0.575,1.512 0.433,0.792 0.504,0.647 0.576,0.504 0.648,0.505 0.72,0.504 0.792,0.288 0.792,0.144 z m 0,24.048 v -19.512 l -1.224,2.447 -2.52,3.242 -2.375,3.455 -1.009,3.312 0.216,1.224 0.648,1.08 1.008,0.72 1.152,0.216 1.224,-0.216 1.009,-0.648 0.791,-0.935 0.288,-1.297 -0.144,-1.153 -0.576,-0.935 h 0.432 l 0.72,1.656 0.073,2.304 -0.577,2.52 -1.224,2.52 z M 1.872,-43.992 H 0 v 19.009 l 1.152,-2.089 2.52,-3.168 2.304,-3.384 1.008,-3.313 -0.144,-1.295 -0.72,-1.008 -1.008,-0.792 -1.152,-0.216 -1.224,0.216 -1.008,0.648 -0.792,1.008 -0.288,1.224 0.216,1.152 0.504,1.008 H 0.936 L 0.216,-36.72 0.144,-39.023 0.72,-41.544 Z M 125.64,-174.384 v 19.512 h 2.881 l -1.225,-2.52 -0.648,-2.52 0.072,-2.304 0.719,-1.656 h 0.433 l -0.504,0.935 -0.144,1.153 0.288,1.297 0.792,0.935 1.008,0.648 1.224,0.216 1.152,-0.216 1.008,-0.72 0.648,-1.08 0.216,-1.224 -1.152,-3.312 -2.448,-3.384 -2.664,-3.313 -1.584,-2.591 z m 0,-26.28 v 2.376 h 0.072 l 0.504,0.072 0.432,0.145 0.503,0.216 0.505,0.359 0.575,0.935 0.29,1.37 -0.217,1.511 -0.576,1.008 -0.432,0.432 -0.432,0.288 -0.504,0.143 -0.576,0.073 h -0.144 v 2.16 H 126 l 0.432,0.143 0.432,0.145 0.432,0.143 0.721,0.577 0.647,0.793 0.288,0.935 0.071,1.152 -0.071,1.152 -0.288,1.008 -0.647,0.792 -0.721,0.648 -0.432,0.216 -0.432,0.143 H 126 l -0.36,0.073 v 2.736 h 0.144 l 0.72,-0.072 0.647,-0.144 0.649,-0.288 0.576,-0.36 0.647,-0.287 0.504,-0.505 0.505,-0.649 0.504,-0.575 0.576,-1.368 0.287,-1.512 v -0.504 l 0.145,-0.36 -0.145,-1.151 -0.287,-1.08 -0.36,-0.866 -0.504,-0.792 -0.721,-0.792 -0.792,-0.504 0.866,-0.647 0.647,-1.008 0.36,-1.152 0.144,-1.296 -0.144,-1.368 -0.504,-1.512 -0.289,-0.576 -0.359,-0.649 -0.504,-0.502 -0.576,-0.433 -0.504,-0.36 -0.721,-0.215 -0.719,-0.145 -0.72,-0.144 z" style="fill:#000000;fill-opacity:1;fill-rule:nonzero;stroke:none" id="path3958"/>
  </g>
</svg>