<?xml version="1.0" encoding="utf-8"?>
<svg viewBox="1586.8458 874.349 209.2813 296.7373" xmlns="http://www.w3.org/2000/svg">
  <g id="g3114" transform="matrix(1.3333330154418945, 0, 0, -1.3333330154418945, 1594.9098127276234, 874.3490230404968)">
    <path d="m 0,0 h 144.936 l 2.305,-0.647 1.943,-1.874 1.225,-2.664 0.504,-3.383 v -205.489 l -0.504,-3.239 -1.225,-2.736 -1.943,-1.872 -2.305,-0.649 H 0 l -2.376,0.649 -1.872,1.872 -1.296,2.736 -0.504,3.239 V -8.568 l 0.504,3.383 1.296,2.664 1.872,1.874 z" style="fill:#000000;fill-opacity:1;fill-rule:nonzero;stroke:none" id="path3116"/>
  </g>
  <g id="g3118" transform="matrix(1.3333330154418945, 0, 0, -1.3333330154418945, 1597.8857234764441, 879.0533676220185)">
    <path d="m 0,0 h 140.4 l 2.304,-0.576 1.8,-1.8 1.296,-2.592 0.504,-3.24 v -199.151 l -0.504,-3.169 -1.296,-2.592 -1.8,-1.8 -2.304,-0.648 H 0 l -2.232,0.648 -1.872,1.8 -1.224,2.592 -0.432,3.169 V -8.208 l 0.432,3.24 1.224,2.592 1.872,1.8 z" style="fill:#ffffff;fill-opacity:1;fill-rule:nonzero;stroke:none" id="path3120"/>
  </g>
  <g id="g3122" transform="matrix(1.3333330154418945, 0, 0, -1.3333330154418945, 1608.541970935796, 929.3567410454234)">
    <path d="m 0,0 v -13.392 l -0.72,2.375 -2.376,3.529 -2.376,3.672 -1.152,3.456 0.36,1.368 0.648,1.08 1.008,0.792 1.296,0.288 1.224,-0.216 1.152,-0.721 0.72,-1.08 z M 0,29.088 V 26.64 H -0.072 -0.576 L -1.08,26.495 -1.512,26.28 -1.944,25.92 -2.592,24.983 -2.88,23.616 l 0.288,-1.512 0.504,-1.08 0.504,-0.432 0.36,-0.216 0.504,-0.217 0.648,-0.071 L 0,20.159 v -2.231 h -0.432 l -0.36,-0.144 -0.432,-0.072 -0.36,-0.217 -0.792,-0.575 -0.576,-0.792 -0.36,-0.936 -0.072,-1.152 0.072,-1.152 0.36,-1.008 0.576,-0.792 0.792,-0.648 0.36,-0.144 0.432,-0.145 0.36,-0.072 H 0 V 7.416 h -0.072 l -0.792,0.071 -0.648,0.145 -0.576,0.144 -0.648,0.36 -0.576,0.359 -0.576,0.433 -0.504,0.647 -0.432,0.649 -0.648,1.368 -0.288,1.512 v 0.432 l -0.072,0.432 0.072,1.152 0.288,1.008 0.36,0.863 0.504,0.865 0.792,0.719 0.72,0.504 -0.864,0.649 -0.648,1.007 -0.36,1.225 -0.144,1.224 0.144,1.44 0.504,1.439 0.288,0.577 0.432,0.648 0.432,0.504 0.576,0.432 0.576,0.36 0.648,0.216 0.72,0.216 0.72,0.072 z m 23.544,-182.664 v -1.656 l -0.504,-2.808 -1.728,-2.232 -2.376,-1.441 -2.664,-0.575 -2.592,0.648 -2.16,1.512 -1.44,2.375 -0.576,2.952 0.576,3.457 1.656,3.671 2.304,3.889 2.736,3.816 2.664,3.816 2.304,3.815 1.728,3.601 0.648,3.311 0.792,-3.311 1.656,-3.601 2.304,-3.815 2.664,-3.816 2.664,-3.816 2.376,-3.889 1.656,-3.671 0.648,-3.457 -0.648,-2.952 -1.368,-2.375 -2.16,-1.512 -2.664,-0.648 -2.664,0.504 -2.304,1.512 -1.656,2.232 -0.72,2.808 v 1.656 l -0.576,0.359 z M 61.56,-20.664 v 1.655 l -0.648,2.809 -1.656,2.232 -2.376,1.44 -2.664,0.576 -2.592,-0.576 -2.16,-1.584 -1.441,-2.448 -0.575,-2.808 0.648,-3.6 1.656,-3.672 2.231,-3.816 2.737,-3.889 2.664,-3.887 2.376,-3.672 1.656,-3.601 0.72,-3.383 0.648,3.383 1.655,3.601 2.376,3.672 2.665,3.887 2.664,3.889 2.304,3.816 1.656,3.672 0.648,3.6 -0.576,2.808 -1.368,2.448 -2.232,1.584 -2.593,0.576 -2.735,-0.504 -2.304,-1.512 -1.656,-2.232 -0.648,-2.809 v -1.655 l -0.504,-0.36 z m 0,-94.824 v -1.656 l -0.648,-2.88 -1.656,-2.161 -2.376,-1.511 -2.664,-0.504 -2.592,0.648 -2.16,1.512 -1.441,2.376 -0.575,2.88 0.648,3.527 1.656,3.673 2.231,3.888 2.737,3.816 2.664,3.888 2.376,3.744 1.656,3.6 0.72,3.311 0.648,-3.311 1.655,-3.6 2.376,-3.744 2.665,-3.888 2.664,-3.816 2.304,-3.888 1.656,-3.673 0.648,-3.527 -0.576,-2.88 -1.368,-2.376 -2.232,-1.512 -2.593,-0.648 -2.735,0.504 -2.304,1.511 -1.656,2.161 -0.648,2.88 v 1.656 l -0.504,0.288 z m -38.016,37.296 v -1.657 l -0.504,-2.88 -1.728,-2.159 -2.376,-1.512 -2.664,-0.432 -2.592,0.575 -2.16,1.513 -1.44,2.376 -0.576,2.88 0.576,3.528 1.656,3.672 2.304,3.816 2.736,3.888 2.664,3.815 2.304,3.745 1.728,3.599 0.648,3.385 0.792,-3.385 1.656,-3.599 2.304,-3.745 2.664,-3.815 2.664,-3.888 2.376,-3.816 1.656,-3.672 0.648,-3.528 -0.648,-2.88 -1.368,-2.376 -2.16,-1.513 -2.664,-0.575 -2.664,0.432 -2.304,1.512 -1.656,2.159 -0.72,2.88 v 1.657 l -0.576,0.36 z M 99.72,12.239 v 1.657 l -0.576,2.808 -1.657,2.232 -2.375,1.44 -2.664,0.504 -2.592,-0.649 -2.16,-1.439 -1.44,-2.448 -0.576,-2.88 0.576,-3.528 1.656,-3.744 2.304,-3.816 2.736,-3.889 2.664,-3.815 2.232,-3.816 1.8,-3.6 0.648,-3.312 0.721,3.312 1.655,3.6 2.376,3.816 2.664,3.815 2.664,3.889 2.376,3.816 1.656,3.744 0.575,3.528 -0.575,2.88 -1.44,2.448 -2.16,1.439 -2.592,0.649 -2.664,-0.504 -2.376,-1.44 -1.655,-2.232 -0.649,-2.808 v -1.657 l -0.576,-0.359 z m 0,-165.815 v -1.656 l -0.576,-2.808 -1.657,-2.232 -2.375,-1.441 -2.664,-0.575 -2.592,0.648 -2.16,1.512 -1.44,2.375 -0.576,2.952 0.576,3.457 1.656,3.671 2.304,3.889 2.736,3.816 2.664,3.816 2.232,3.815 1.8,3.601 0.648,3.311 0.721,-3.311 1.655,-3.601 2.376,-3.815 2.664,-3.816 2.664,-3.816 2.376,-3.889 1.656,-3.671 0.575,-3.457 -0.575,-2.952 -1.44,-2.375 -2.16,-1.512 -2.592,-0.648 -2.664,0.504 -2.376,1.512 -1.655,2.232 -0.649,2.808 v 1.656 l -0.576,0.359 z m 0,75.384 v -1.657 l -0.576,-2.88 -1.657,-2.159 -2.375,-1.512 -2.664,-0.432 -2.592,0.575 -2.16,1.513 -1.44,2.376 -0.576,2.88 0.576,3.528 1.656,3.672 2.304,3.816 2.736,3.888 2.664,3.815 2.232,3.745 1.8,3.599 0.648,3.385 0.721,-3.385 1.655,-3.599 2.376,-3.745 2.664,-3.815 2.664,-3.888 2.376,-3.816 1.656,-3.672 0.575,-3.528 -0.575,-2.88 -1.44,-2.376 -2.16,-1.513 -2.592,-0.575 -2.664,0.432 -2.376,1.512 -1.655,2.159 -0.649,2.88 v 1.657 l -0.576,0.36 z M 0,7.416 v 2.663 H 0.072 0.72 l 0.72,0.217 0.504,0.432 0.576,0.503 0.792,1.225 L 3.528,14.04 3.312,15.696 2.52,16.991 1.944,17.424 1.44,17.712 0.72,17.856 0.072,17.928 H 0 v 2.231 l 0.648,0.072 0.72,0.289 0.504,0.504 0.576,0.648 0.36,0.864 0.072,0.936 -0.216,1.296 -0.576,1.008 -0.504,0.36 L 1.08,26.424 0.576,26.567 0,26.64 v 2.448 L 0.72,29.016 1.44,28.8 2.16,28.584 2.736,28.296 3.384,27.792 3.888,27.288 4.248,26.784 4.608,26.136 5.112,24.84 5.328,23.399 5.184,22.104 4.752,20.952 4.032,19.944 3.168,19.079 3.744,18.72 4.32,18.144 4.824,17.495 5.184,16.848 5.688,15.479 5.832,13.968 5.688,12.312 5.112,10.728 4.68,10.079 4.176,9.36 3.672,8.784 2.952,8.28 2.232,7.92 1.584,7.632 0.72,7.487 Z M 0,-13.392 V 0 L 0.072,-0.144 V -0.937 L 0.36,-1.08 0.648,-0.937 v 0.793 L 0.936,1.151 1.728,2.231 2.88,2.952 4.104,3.168 5.328,2.88 6.336,2.088 6.984,1.008 7.272,-0.36 6.264,-3.816 3.888,-7.488 1.44,-11.017 0.36,-14.328 Z m 125.64,-136.44 v -2.736 l -0.792,-0.072 -0.648,-0.144 -0.504,-0.433 -0.576,-0.503 -0.721,-1.224 -0.287,-1.657 0.287,-1.584 0.721,-1.295 0.576,-0.504 0.504,-0.216 0.648,-0.144 0.792,-0.144 v -2.16 l -0.576,-0.144 -0.792,-0.288 -0.503,-0.504 -0.577,-0.648 -0.289,-0.72 -0.143,-1.008 0.288,-1.297 0.576,-1.007 0.432,-0.36 0.504,-0.288 0.504,-0.217 0.576,-0.071 v -2.376 l -0.648,0.071 -0.792,0.145 -0.648,0.216 -0.649,0.36 -0.647,0.431 -0.504,0.504 -0.36,0.505 -0.36,0.648 -0.505,1.296 -0.143,1.44 0.072,1.367 0.432,1.153 0.72,1.007 0.936,0.793 -0.648,0.432 -0.504,0.576 -0.504,0.576 -0.432,0.719 -0.504,1.369 -0.144,1.512 0.144,1.655 0.575,1.513 0.433,0.792 0.504,0.647 0.576,0.505 0.648,0.503 0.72,0.504 0.792,0.289 0.792,0.216 z m 0,22.535 v -12.96 l -0.287,-0.143 v -0.792 l -0.217,-1.296 -0.72,-1.152 -1.152,-0.648 -1.296,-0.217 -1.224,0.217 -1.009,0.792 -0.718,1.152 -0.289,1.368 1.08,3.383 2.448,3.601 2.304,3.599 z M 23.544,12.239 v 1.657 l -0.504,2.808 -1.728,2.232 -2.376,1.44 -2.664,0.504 -2.592,-0.649 -2.16,-1.439 -1.44,-2.448 -0.576,-2.88 0.576,-3.528 1.656,-3.744 2.304,-3.816 2.736,-3.889 2.664,-3.815 2.304,-3.816 1.728,-3.6 0.648,-3.312 0.792,3.312 1.656,3.6 2.304,3.816 2.664,3.815 2.664,3.889 2.376,3.816 1.656,3.744 0.648,3.528 -0.648,2.88 -1.368,2.448 -2.16,1.439 -2.664,0.649 -2.664,-0.504 -2.304,-1.44 -1.656,-2.232 -0.72,-2.808 V 12.239 L 24.12,11.88 Z M 125.64,-140.257 v 12.96 l 0.072,0.145 1.08,-3.241 2.376,-3.599 2.376,-3.601 1.008,-3.383 -0.216,-1.368 -0.648,-1.152 -1.008,-0.792 -1.224,-0.217 -1.296,0.217 -1.152,0.648 -0.792,1.152 -0.216,1.296 v 0.792 l -0.288,0.143 z m 0,-31.319 v 2.376 h 0.072 l 0.504,0.071 0.432,0.145 0.503,0.216 0.505,0.36 0.575,0.936 0.29,1.368 -0.217,1.511 -0.576,1.009 -0.432,0.432 -0.432,0.288 -0.504,0.144 -0.576,0.072 h -0.144 v 2.16 H 126 l 0.432,0.144 0.432,0.144 0.432,0.144 0.721,0.576 0.647,0.792 0.288,0.935 0.071,1.152 -0.071,1.153 -0.288,1.008 -0.647,0.792 -0.721,0.648 -0.432,0.216 -0.432,0.144 H 126 l -0.36,0.072 v 2.736 h 0.144 0.72 l 0.647,-0.216 0.649,-0.289 0.576,-0.359 0.647,-0.288 0.504,-0.504 0.505,-0.648 0.504,-0.577 0.576,-1.367 0.287,-1.513 v -0.504 l 0.145,-0.359 -0.145,-1.152 -0.287,-1.08 -0.36,-0.864 -0.504,-0.792 -0.721,-0.792 -0.792,-0.504 0.866,-0.648 0.647,-1.009 0.36,-1.151 0.144,-1.296 -0.144,-1.368 -0.504,-1.512 -0.289,-0.576 -0.359,-0.649 -0.504,-0.504 -0.576,-0.431 -0.504,-0.36 -0.721,-0.216 -0.719,-0.145 -0.72,-0.143 z" style="fill:#ff0000;fill-opacity:1;fill-rule:nonzero;stroke:none" id="path3124"/>
  </g>
</svg>