<?xml version="1.0" encoding="utf-8"?>
<svg viewBox="1586.8458 190.5412 209.2813 296.8319" xmlns="http://www.w3.org/2000/svg">
  <g id="g84" transform="matrix(1.3333330154418945, 0, 0, -1.3333330154418945, 1594.9098127276234, 190.54116198449262)">
    <path d="m 0,0 h 144.936 l 2.305,-0.648 1.943,-1.872 1.225,-2.736 0.504,-3.312 v -205.56 l -0.504,-3.312 -1.225,-2.664 -1.943,-1.872 -2.305,-0.648 H 0 l -2.376,0.648 -1.872,1.872 -1.296,2.664 -0.504,3.312 v 205.56 l 0.504,3.312 1.296,2.736 1.872,1.872 z" style="fill:#000000;fill-opacity:1;fill-rule:nonzero;stroke:none" id="path86"/>
  </g>
  <g id="g88" transform="matrix(1.3333330154418945, 0, 0, -1.3333330154418945, 1597.8857234764441, 195.2449369046917)">
    <path d="m 0,0 h 140.4 l 2.304,-0.576 1.8,-1.8 1.296,-2.592 0.504,-3.312 v -199.152 l -0.504,-3.168 -1.296,-2.664 -1.8,-1.728 -2.304,-0.648 H 0 l -2.232,0.648 -1.872,1.728 -1.224,2.664 -0.432,3.168 V -8.28 l 0.432,3.312 1.224,2.592 1.872,1.8 z" style="fill:#ffffff;fill-opacity:1;fill-rule:nonzero;stroke:none" id="path90"/>
  </g>
  <g id="g92" transform="matrix(1.3333330154418945, 0, 0, -1.3333330154418945, 1608.541970935796, 242.4773475186048)">
    <path d="m 0,0 v -15.408 l -5.616,7.704 z m -5.76,10.8 v 0.432 l -0.072,0.36 0.072,1.152 0.288,1.008 0.36,0.936 0.504,0.864 0.792,0.72 0.72,0.504 -0.864,0.648 -0.648,1.008 -0.36,1.224 -0.144,1.152 0.144,1.44 0.504,1.512 0.288,0.576 0.432,0.576 0.432,0.504 0.576,0.432 0.576,0.432 0.648,0.216 0.72,0.144 0.72,0.072 H 0 V 24.336 H -0.072 L -0.576,24.264 -1.08,24.192 -1.512,23.904 -1.944,23.544 -2.592,22.608 -2.88,21.24 -2.592,19.8 -2.088,18.648 -1.584,18.288 -1.224,18 -0.72,17.856 -0.072,17.784 H 0 v -2.232 h -0.432 l -0.36,-0.072 -0.432,-0.072 -0.36,-0.216 -0.792,-0.648 -0.576,-0.792 -0.36,-0.864 -0.072,-1.152 0.072,-1.224 0.36,-1.008 0.576,-0.72 0.792,-0.648 0.36,-0.144 0.432,-0.144 0.36,-0.072 L 0,7.704 V 5.112 L -0.072,5.04 -0.864,5.112 -1.512,5.256 -2.088,5.472 -2.736,5.76 -3.312,6.12 -3.888,6.624 -4.392,7.272 -4.824,7.848 -5.472,9.288 Z M 37.728,0.792 35.712,3.096 33.84,5.328 l -1.872,2.304 -1.728,2.376 -1.656,2.376 -1.656,2.376 -1.44,2.376 -1.44,2.376 L 22.68,17.28 21.24,14.904 19.656,12.528 17.928,10.224 16.128,7.848 14.256,5.472 12.24,3.096 10.224,0.792 l 1.8,-2.232 1.8,-2.16 1.8,-2.304 1.8,-2.304 1.656,-2.304 1.656,-2.448 1.656,-2.592 1.656,-2.592 1.44,2.376 1.584,2.376 1.584,2.448 1.728,2.448 1.728,2.304 1.8,2.448 1.872,2.304 z m 76.32,0 -1.944,2.304 -1.944,2.232 -1.8,2.304 -1.8,2.376 -1.657,2.376 -1.584,2.376 -1.439,2.376 -1.512,2.376 -1.297,-2.232 -1.511,-2.376 -1.512,-2.376 -1.8,-2.304 -1.727,-2.376 -1.873,-2.376 -2.016,-2.376 -2.016,-2.304 1.8,-2.232 1.8,-2.16 1.801,-2.304 1.727,-2.304 1.728,-2.304 1.656,-2.448 1.656,-2.592 1.584,-2.592 1.512,2.376 1.512,2.376 1.656,2.448 1.656,2.448 1.8,2.304 1.8,2.448 1.872,2.304 z m -76.32,-75.456 -2.016,2.232 -1.872,2.304 -1.872,2.304 -1.728,2.376 -1.656,2.304 -1.656,2.448 -1.44,2.376 -1.44,2.376 -1.368,-2.304 -1.44,-2.304 -1.584,-2.448 -1.728,-2.304 -1.8,-2.376 -1.872,-2.376 -2.016,-2.304 -2.016,-2.304 1.8,-2.232 1.8,-2.16 1.8,-2.232 1.8,-2.304 1.656,-2.376 1.656,-2.448 1.656,-2.52 1.656,-2.664 1.44,2.304 1.584,2.448 1.584,2.448 1.728,2.448 1.728,2.304 1.8,2.448 1.872,2.304 z m 76.32,0 -1.944,2.232 -1.944,2.304 -1.8,2.304 -1.8,2.376 -1.657,2.304 -1.584,2.448 -1.439,2.376 -1.512,2.376 -1.297,-2.304 -1.511,-2.304 -1.512,-2.448 -1.8,-2.304 -1.727,-2.376 -1.873,-2.376 -2.016,-2.304 -2.016,-2.304 1.8,-2.232 1.8,-2.16 1.801,-2.232 1.727,-2.304 1.728,-2.376 1.656,-2.448 1.656,-2.52 1.584,-2.664 1.512,2.304 1.512,2.448 1.656,2.448 1.656,2.448 1.8,2.304 1.8,2.448 1.872,2.304 z m -37.296,-36.792 -1.944,2.304 -1.944,2.304 -1.8,2.304 -1.8,2.304 -1.656,2.448 -1.585,2.376 -1.511,2.376 -1.368,2.376 -1.368,-2.232 -1.512,-2.376 -1.512,-2.376 -1.729,-2.304 -1.727,-2.448 -1.943,-2.376 -1.945,-2.304 -2.16,-2.376 1.944,-2.16 1.728,-2.16 1.872,-2.304 1.656,-2.376 1.8,-2.232 1.655,-2.52 1.657,-2.52 1.584,-2.664 1.368,2.448 1.584,2.376 1.656,2.376 1.656,2.448 1.8,2.448 1.8,2.376 1.872,2.304 z m 0,76.464 -1.944,2.304 -1.944,2.232 -1.8,2.376 -1.8,2.304 -1.656,2.376 -1.585,2.376 -1.511,2.376 -1.368,2.448 -1.368,-2.304 -1.512,-2.376 -1.512,-2.376 -1.729,-2.304 -1.727,-2.376 -1.943,-2.376 -1.945,-2.376 -2.16,-2.304 1.944,-2.16 1.728,-2.16 1.872,-2.304 1.656,-2.376 1.8,-2.304 1.655,-2.448 1.657,-2.52 1.584,-2.664 1.368,2.376 1.584,2.376 1.656,2.448 1.656,2.448 1.8,2.376 1.8,2.376 1.872,2.376 z m -39.024,-113.832 -2.016,2.232 -1.872,2.304 -1.872,2.376 -1.728,2.304 -1.656,2.376 -1.656,2.376 -1.44,2.376 -1.44,2.376 -1.368,-2.304 -1.44,-2.304 -1.584,-2.376 -1.728,-2.304 -1.8,-2.376 -1.872,-2.376 -2.016,-2.376 -2.016,-2.304 1.8,-2.232 1.8,-2.16 1.8,-2.232 1.8,-2.376 1.656,-2.304 1.656,-2.448 1.656,-2.52 1.656,-2.664 1.44,2.376 1.584,2.376 1.584,2.448 1.728,2.448 1.728,2.376 1.8,2.376 1.872,2.304 z m 76.32,0 -1.944,2.232 -1.944,2.304 -1.8,2.376 -1.8,2.304 -1.657,2.376 -1.584,2.376 -1.439,2.376 -1.512,2.376 -1.297,-2.304 -1.511,-2.304 -1.512,-2.376 -1.8,-2.304 -1.727,-2.376 -1.873,-2.376 -2.016,-2.376 -2.016,-2.304 1.8,-2.232 1.8,-2.16 1.801,-2.232 1.727,-2.376 1.728,-2.304 1.656,-2.448 1.656,-2.52 1.584,-2.664 1.512,2.376 1.512,2.376 1.656,2.448 1.656,2.448 1.8,2.376 1.8,2.376 1.872,2.304 z M 0,-15.408 V 0 L 0.36,0.504 6.336,-7.704 0.36,-15.84 Z m 125.64,-136.8 v -2.736 l -0.792,-0.144 -0.648,-0.144 -0.504,-0.36 -0.576,-0.504 -0.721,-1.296 -0.287,-1.584 0.287,-1.584 0.721,-1.296 0.576,-0.504 0.504,-0.288 0.648,-0.144 0.792,-0.072 v -2.16 l -0.576,-0.144 -0.792,-0.288 -0.503,-0.504 -0.577,-0.648 -0.289,-0.792 -0.143,-1.008 0.288,-1.296 0.576,-0.936 0.432,-0.36 0.504,-0.288 0.504,-0.216 0.576,-0.144 v -2.376 l -0.648,0.072 -0.792,0.144 -0.648,0.288 -0.649,0.288 -0.647,0.432 -0.504,0.504 -0.36,0.576 -0.36,0.576 -0.505,1.368 -0.143,1.368 0.072,1.368 0.432,1.152 0.72,1.008 0.936,0.792 -0.648,0.432 -0.504,0.576 -0.504,0.576 -0.432,0.72 -0.504,1.44 -0.144,1.44 0.144,1.656 0.575,1.512 0.433,0.792 0.504,0.72 0.576,0.504 0.648,0.504 0.72,0.504 0.792,0.288 0.792,0.144 z m 0,20.304 v -16.344 l -5.976,8.208 z M 0,26.712 0.72,26.64 1.44,26.496 2.16,26.28 2.736,25.92 3.384,25.488 3.888,24.984 4.248,24.408 4.608,23.832 5.112,22.536 5.328,21.096 5.184,19.8 4.752,18.648 4.032,17.64 3.168,16.776 3.744,16.344 4.32,15.768 4.824,15.192 5.184,14.544 5.688,13.104 5.832,11.592 5.688,10.008 5.112,8.424 4.68,7.704 4.176,7.056 3.672,6.48 2.952,5.976 2.232,5.544 1.584,5.256 0.72,5.112 H 0 V 7.704 H 0.072 L 0.72,7.776 1.44,7.992 1.944,8.352 2.52,8.856 3.312,10.152 3.528,11.736 3.312,13.392 2.52,14.616 1.944,15.048 1.44,15.408 0.72,15.552 H 0.072 0 v 2.232 l 0.648,0.144 0.72,0.216 0.504,0.504 0.576,0.648 0.36,0.864 L 2.88,21.096 2.664,22.392 2.088,23.4 1.584,23.76 1.08,24.048 0.576,24.192 0,24.336 Z m 125.64,-174.96 v 16.344 l 5.904,-8.136 z m 0,-25.776 v 2.376 h 0.072 l 0.504,0.144 0.432,0.072 0.503,0.288 0.505,0.288 0.575,1.008 0.29,1.296 -0.217,1.512 -0.576,1.08 -0.432,0.432 -0.432,0.288 -0.504,0.144 -0.576,0.072 h -0.144 v 2.16 H 126 l 0.432,0.144 0.432,0.072 0.432,0.144 0.721,0.648 0.647,0.792 0.288,0.936 0.071,1.152 -0.071,1.152 -0.288,1.008 -0.647,0.72 -0.721,0.648 -0.432,0.216 -0.432,0.144 H 126 l -0.36,0.144 v 2.736 h 0.144 l 0.72,-0.072 0.647,-0.144 0.649,-0.288 0.576,-0.36 0.647,-0.36 0.504,-0.504 0.505,-0.648 0.504,-0.504 0.576,-1.368 0.287,-1.584 v -0.432 l 0.145,-0.432 -0.145,-1.152 -0.287,-1.008 -0.36,-0.936 -0.504,-0.792 -0.721,-0.72 -0.792,-0.576 0.866,-0.648 0.647,-1.008 0.36,-1.152 0.144,-1.224 -0.144,-1.368 -0.504,-1.512 -0.289,-0.648 -0.359,-0.576 -0.504,-0.504 -0.576,-0.432 -0.504,-0.36 -0.721,-0.288 -0.719,-0.144 -0.72,-0.072 z" style="fill:#ff0000;fill-opacity:1;fill-rule:nonzero;stroke:none" id="path94"/>
  </g>
</svg>