<?xml version="1.0" encoding="utf-8"?>
<svg viewBox="819.9978 190.5412 209.3759 296.8319" xmlns="http://www.w3.org/2000/svg">
  <g id="g48" transform="matrix(1.3333330154418948, 0, 0, -1.3333330154418948, 828.0617696470301, 190.54116198449276)">
    <path d="m 0,0 h 145.008 l 2.304,-0.648 1.944,-1.872 1.224,-2.736 0.504,-3.312 v -205.56 l -0.504,-3.312 -1.224,-2.664 -1.944,-1.872 -2.304,-0.648 H 0 l -2.376,0.648 -1.872,1.872 -1.295,2.664 -0.505,3.312 v 205.56 l 0.505,3.312 1.295,2.736 1.872,1.872 z" style="fill:#000000;fill-opacity:1;fill-rule:nonzero;stroke:none" id="path50"/>
  </g>
  <g id="g52" transform="matrix(1.3333330154418948, 0, 0, -1.3333330154418948, 831.038250057173, 195.2449369046917)">
    <path d="m 0,0 h 140.472 l 2.304,-0.576 1.8,-1.8 1.296,-2.592 0.504,-3.312 v -199.152 l -0.504,-3.168 -1.296,-2.664 -1.8,-1.728 -2.304,-0.648 H 0 l -2.232,0.648 -1.872,1.728 -1.224,2.664 -0.432,3.168 V -8.28 l 0.432,3.312 1.224,2.592 1.872,1.8 z" style="fill:#ffffff;fill-opacity:1;fill-rule:nonzero;stroke:none" id="path54"/>
  </g>
  <g id="g56" transform="matrix(1.3333330154418948, 0, 0, -1.3333330154418948, 1004.3180752804922, 452.62125900492174)">
    <path d="m 0,0 0.216,-1.296 0.36,-1.152 0.648,-0.936 0.648,-0.72 0.504,-0.144 0.432,-0.288 0.432,-0.072 0.432,-0.072 0.504,0.072 0.36,0.072 0.432,0.144 0.504,0.288 0.792,0.576 0.792,0.936 H 9.288 L 7.776,-14.328 h -9.432 v 2.664 H 5.832 L 6.48,-6.048 6.12,-6.48 5.472,-6.768 4.968,-6.984 4.536,-7.056 4.104,-7.128 3.456,-7.2 3.024,-7.128 2.376,-7.056 1.872,-6.912 1.296,-6.768 0.792,-6.48 0.36,-6.264 l -0.504,0.36 -0.432,0.432 -0.792,1.08 -0.648,1.368 -0.36,1.584 -0.216,1.944 0.072,1.296 0.36,1.224 0.576,1.224 0.72,1.08 0.432,0.576 L 0,6.336 0.504,6.768 1.08,7.2 1.656,7.416 2.376,7.632 3.024,7.704 3.672,7.776 4.464,7.704 5.328,7.56 6.12,7.344 6.84,6.912 7.416,6.552 8.064,6.048 8.568,5.4 8.928,4.752 9.576,3.168 9.72,1.512 H 7.272 L 7.128,2.52 6.768,3.528 6.12,4.248 5.544,4.752 4.824,5.04 4.104,5.112 3.6,5.04 H 3.096 L 2.592,4.896 2.16,4.608 1.296,3.888 0.648,2.88 0.216,1.656 0,0.216 Z m -84.24,158.4 -2.016,2.304 -1.872,2.232 -1.872,2.304 -1.728,2.376 -1.656,2.376 -1.656,2.376 -1.44,2.376 -1.44,2.376 -1.368,-2.232 -1.44,-2.376 -1.584,-2.376 -1.728,-2.304 -1.8,-2.376 -1.872,-2.376 -2.016,-2.376 -2.016,-2.304 1.8,-2.232 1.8,-2.16 1.8,-2.304 1.8,-2.304 1.656,-2.304 1.656,-2.448 1.656,-2.592 1.656,-2.592 1.44,2.376 1.584,2.376 1.584,2.448 1.728,2.448 1.728,2.304 1.8,2.448 1.872,2.304 z m -31.32,-8.496 -5.976,8.208 -5.904,-8.208 5.904,-8.136 z M 9.648,17.568 3.672,25.704 -2.304,17.568 3.672,9.36 Z M -7.776,158.4 l -2.016,2.304 -1.944,2.232 -1.8,2.304 -1.8,2.376 -1.656,2.376 -1.584,2.376 -1.44,2.376 -1.512,2.376 -1.296,-2.232 -1.512,-2.376 -1.512,-2.376 -1.728,-2.304 -1.8,-2.376 -1.872,-2.376 -2.016,-2.376 -2.016,-2.304 1.8,-2.232 1.8,-2.16 1.8,-2.304 1.728,-2.304 1.728,-2.304 1.656,-2.448 1.656,-2.592 1.584,-2.592 1.512,2.376 1.512,2.376 1.656,2.448 1.656,2.448 1.8,2.304 1.8,2.448 1.872,2.304 z M -84.24,8.784 -86.256,11.016 -88.128,13.32 -90,15.696 -91.728,18 l -1.656,2.376 -1.656,2.376 -1.44,2.376 -1.44,2.376 -1.368,-2.304 -1.44,-2.304 -1.584,-2.376 -1.728,-2.304 -1.8,-2.376 -1.872,-2.376 -2.016,-2.376 -2.016,-2.304 1.8,-2.232 1.8,-2.16 1.8,-2.232 1.8,-2.376 1.656,-2.304 1.656,-2.448 1.656,-2.52 1.656,-2.664 1.44,2.376 1.584,2.376 1.584,2.448 1.728,2.448 1.728,2.376 1.8,2.376 1.872,2.304 z m 38.376,73.152 -2.016,2.304 -1.872,2.232 -1.872,2.304 -1.728,2.376 -1.656,2.304 -1.584,2.448 -1.44,2.376 -1.512,2.376 -1.224,-2.304 -1.512,-2.304 -1.584,-2.448 -1.728,-2.304 -1.728,-2.304 -1.872,-2.376 -2.016,-2.304 -2.088,-2.376 1.872,-2.232 1.8,-2.088 1.8,-2.304 1.728,-2.304 1.656,-2.376 1.656,-2.448 1.656,-2.52 1.584,-2.664 1.512,2.304 1.512,2.448 1.584,2.448 1.8,2.448 1.728,2.304 1.8,2.448 1.872,2.304 z m 38.088,-73.152 -2.016,2.232 -1.944,2.304 -1.8,2.376 -1.8,2.304 -1.656,2.376 -1.584,2.376 -1.44,2.376 -1.512,2.376 -1.296,-2.304 -1.512,-2.304 -1.512,-2.376 -1.728,-2.304 -1.8,-2.376 -1.872,-2.376 -2.016,-2.376 -2.016,-2.304 1.8,-2.232 1.8,-2.16 1.8,-2.232 1.728,-2.376 1.728,-2.304 1.656,-2.448 1.656,-2.52 1.584,-2.664 1.512,2.376 1.512,2.376 1.656,2.448 1.656,2.448 1.8,2.376 1.8,2.376 1.872,2.304 z M -118.584,171 l -0.144,1.368 -0.36,1.152 -0.576,0.864 -0.72,0.72 -0.504,0.288 -0.432,0.144 -0.432,0.144 -0.432,0.072 -0.504,-0.072 -0.36,-0.144 -0.504,-0.144 -0.432,-0.216 -0.792,-0.648 -0.792,-0.864 h -2.232 l 1.512,11.736 h 9.36 v -2.664 h -7.488 l -0.648,-5.688 0.432,0.504 0.648,0.288 0.432,0.216 0.504,0.072 0.504,0.072 h 0.504 0.504 l 0.648,-0.072 0.504,-0.216 0.576,-0.144 0.504,-0.216 0.504,-0.288 0.36,-0.36 0.504,-0.36 0.792,-1.08 0.648,-1.44 0.36,-1.512 0.216,-1.944 -0.144,-1.224 -0.36,-1.296 -0.504,-1.224 -0.72,-1.08 -0.432,-0.576 -0.504,-0.432 -0.504,-0.432 -0.504,-0.288 -0.648,-0.288 -0.648,-0.144 -0.648,-0.144 -0.648,-0.072 -0.864,0.072 -0.864,0.144 -0.72,0.216 -0.72,0.288 -0.576,0.504 -0.648,0.504 -0.504,0.504 -0.36,0.72 -0.648,1.584 -0.144,1.656 h 2.448 l 0.216,-1.08 0.288,-0.936 0.576,-0.72 0.648,-0.504 0.72,-0.288 0.792,-0.072 h 0.504 l 0.432,0.072 0.504,0.216 0.432,0.216 0.864,0.648 0.648,1.008 0.432,1.296 0.144,1.368 z" style="fill:#ff0000;fill-opacity:1;fill-rule:nonzero;stroke:none" id="path58"/>
  </g>
</svg>