<?xml version="1.0" encoding="utf-8"?>
<svg viewBox="819.9978 1212.0768 209.3759 296.8319" xmlns="http://www.w3.org/2000/svg">
  <g id="g3912" transform="matrix(1.3333330154418948, 0, 0, -1.3333330154418948, 828.0617696470301, 1212.076766413138)">
    <path d="m 0,0 h 145.008 l 2.304,-0.648 1.944,-1.872 1.224,-2.665 0.504,-3.383 v -205.56 l -0.504,-3.24 -1.224,-2.736 -1.944,-1.873 -2.304,-0.647 H 0 l -2.376,0.647 -1.872,1.873 -1.295,2.736 -0.505,3.24 v 205.56 l 0.505,3.383 1.295,2.665 1.872,1.872 z" style="fill:#000000;fill-opacity:1;fill-rule:nonzero;stroke:none" id="path3914"/>
  </g>
  <g id="g3916" transform="matrix(1.3333330154418948, 0, 0, -1.3333330154418948, 831.038250057173, 1216.7811923748488)">
    <path d="m 0,0 h 140.472 l 2.304,-0.575 1.8,-1.801 1.296,-2.592 0.504,-3.24 v -199.224 l -0.504,-3.168 -1.296,-2.591 -1.8,-1.8 -2.304,-0.649 H 0 l -2.232,0.649 -1.872,1.8 -1.224,2.591 -0.432,3.168 V -8.208 l 0.432,3.24 1.224,2.592 1.872,1.801 z" style="fill:#ffffff;fill-opacity:1;fill-rule:nonzero;stroke:none" id="path3918"/>
  </g>
  <g id="g3920" transform="matrix(1.3333330154418948, 0, 0, -1.3333330154418948, 884.6060269991583, 1288.9738428060045)">
    <path d="m 0,0 h -9.648 l 2.52,4.896 1.08,4.968 -0.072,4.536 -1.44,3.456 h -0.864 l 1.008,-2.015 0.288,-2.233 -0.504,-2.519 -1.512,-1.944 -2.16,-1.296 -2.304,-0.504 -2.376,0.504 -1.872,1.439 -1.296,2.161 -0.504,2.52 0.648,3.095 1.584,3.385 2.304,3.384 2.664,3.312 2.664,3.311 2.52,3.097 1.872,2.735 1.08,2.521 0.936,-2.449 1.8,-2.736 2.376,-3.096 2.52,-3.311 L 5.904,23.904 7.992,20.449 9.504,17.208 10.08,13.969 9.576,11.449 8.352,9.288 6.408,7.849 4.032,7.345 1.656,7.849 l -2.16,1.296 -1.44,1.944 -0.504,2.519 0.288,2.233 1.008,2.015 H -2.016 L -3.456,14.4 -3.6,9.864 -2.448,4.896 Z m 35.424,-36.647 h -9.648 l 2.52,-4.752 1.152,-5.04 -0.144,-4.608 -1.368,-3.312 -0.936,-0.072 1.008,1.944 0.36,2.232 -0.576,2.52 -1.44,2.015 -2.16,1.297 -2.376,0.432 -2.304,-0.504 -1.872,-1.441 -1.296,-2.087 -0.504,-2.521 0.648,-3.096 1.584,-3.311 2.232,-3.456 2.736,-3.313 2.664,-3.311 2.448,-3.168 1.944,-2.808 1.008,-2.448 0.936,2.448 1.8,2.808 2.304,3.095 2.664,3.312 2.52,3.385 2.088,3.456 1.584,3.239 0.504,3.168 -0.504,2.521 -1.224,2.087 -1.944,1.441 -2.376,0.504 -2.304,-0.432 -2.16,-1.297 -1.512,-2.015 -0.576,-2.52 0.36,-2.232 1.008,-1.944 -0.864,0.072 -1.44,3.312 -0.144,4.608 1.152,5.04 z M 70.92,0 H 61.2 l 2.592,4.896 1.08,4.968 -0.072,4.536 -1.44,3.456 h -0.864 l 1.008,-2.015 0.288,-2.233 -0.504,-2.519 -1.512,-1.944 -2.16,-1.296 -2.376,-0.504 -2.232,0.504 -1.944,1.439 -1.224,2.161 -0.504,2.52 0.504,3.095 1.656,3.385 2.304,3.384 2.592,3.312 2.736,3.311 2.52,3.097 1.872,2.735 1.08,2.521 0.936,-2.449 1.8,-2.736 2.304,-3.096 2.592,-3.311 2.52,-3.313 2.088,-3.455 1.656,-3.241 L 81,13.969 80.496,11.449 79.2,9.288 77.256,7.849 74.952,7.345 l -2.376,0.504 -2.088,1.296 -1.512,1.944 -0.576,2.519 0.36,2.233 1.008,2.015 H 68.832 L 67.464,14.4 67.248,9.864 68.472,4.896 Z M 0,-107.495 h -9.648 l 2.52,-4.824 1.08,-5.04 -0.072,-4.537 -1.44,-3.456 h -0.864 l 1.008,1.945 0.288,2.303 -0.504,2.449 -1.512,2.016 -2.16,1.296 -2.304,0.504 -2.376,-0.504 -1.872,-1.512 -1.296,-2.088 -0.504,-2.52 0.648,-3.097 1.584,-3.383 2.304,-3.384 2.664,-3.312 2.664,-3.312 2.52,-3.168 1.872,-2.808 1.08,-2.449 0.936,2.449 1.8,2.808 2.376,3.023 2.52,3.384 2.592,3.385 2.088,3.384 1.512,3.312 0.576,3.168 -0.504,2.52 -1.224,2.088 -1.944,1.512 -2.376,0.504 -2.376,-0.504 -2.16,-1.296 -1.44,-2.016 -0.504,-2.449 0.288,-2.303 1.008,-1.945 h -0.864 l -1.44,3.456 -0.144,4.537 1.152,5.04 z m 70.92,0 H 61.2 l 2.592,-4.824 1.08,-5.04 -0.072,-4.537 -1.44,-3.456 h -0.864 l 1.008,1.945 0.288,2.303 -0.504,2.449 -1.512,2.016 -2.16,1.296 -2.376,0.504 -2.232,-0.504 -1.944,-1.512 -1.224,-2.088 -0.504,-2.52 0.504,-3.097 1.656,-3.383 2.304,-3.384 2.592,-3.312 2.736,-3.312 2.52,-3.168 1.872,-2.808 1.08,-2.449 0.936,2.449 1.8,2.808 2.304,3.023 2.592,3.384 2.52,3.385 2.088,3.384 1.656,3.312 0.504,3.168 -0.504,2.52 -1.296,2.088 -1.944,1.512 -2.304,0.504 -2.376,-0.504 -2.088,-1.296 -1.512,-2.016 -0.576,-2.449 0.36,-2.303 1.008,-1.945 h -0.936 l -1.368,3.456 -0.216,4.537 1.224,5.04 z m -99.72,139.68 -0.144,1.368 -0.36,1.151 -0.576,0.792 -0.72,0.792 -0.504,0.217 -0.432,0.143 -0.432,0.144 -0.432,0.072 -0.504,-0.072 -0.36,-0.144 -0.504,-0.143 -0.432,-0.217 -0.792,-0.647 -0.792,-0.865 h -2.232 l 1.512,11.737 h 9.36 v -2.664 h -7.488 l -0.648,-5.688 0.432,0.504 0.648,0.288 0.432,0.216 0.504,0.072 0.504,0.072 0.504,0.072 0.504,-0.072 0.648,-0.072 0.504,-0.144 0.576,-0.144 0.504,-0.288 0.504,-0.216 0.36,-0.36 0.504,-0.432 0.792,-1.08 0.648,-1.369 0.36,-1.584 0.216,-1.943 -0.144,-1.225 -0.36,-1.295 -0.504,-1.152 -0.72,-1.153 -0.432,-0.576 -0.504,-0.431 -0.504,-0.361 -0.504,-0.359 -0.648,-0.288 -0.648,-0.145 -0.648,-0.143 h -0.648 -0.864 l -0.864,0.143 -0.72,0.289 -0.72,0.215 -0.576,0.504 -0.648,0.504 -0.504,0.577 -0.36,0.72 -0.648,1.512 -0.144,1.728 H -36 l 0.216,-1.152 0.288,-0.936 0.576,-0.648 0.648,-0.504 0.72,-0.36 0.792,-0.072 0.504,0.072 h 0.432 l 0.504,0.215 0.432,0.217 0.864,0.72 0.648,1.008 0.432,1.223 0.144,1.368 z M 91.44,-109.439 h 4.968 l -1.224,-2.52 -0.576,-2.52 v -2.304 l 0.72,-1.656 h 0.432 l -0.504,0.935 -0.144,1.152 0.288,1.297 0.792,0.936 1.008,0.647 1.224,0.217 1.152,-0.217 1.008,-0.719 0.648,-1.08 0.216,-1.224 -1.152,-3.313 -2.448,-3.383 -2.664,-3.313 -1.584,-2.592 -1.296,2.592 -2.52,3.241 -2.376,3.455 -1.008,3.313 0.216,1.224 0.648,1.08 1.008,0.719 1.152,0.217 1.224,-0.217 1.008,-0.647 0.792,-0.936 0.36,-1.297 -0.216,-1.152 -0.576,-0.935 h 0.432 l 0.72,1.656 0.072,2.304 -0.576,2.52 z m -1.08,-29.376 0.144,-1.296 0.432,-1.224 0.576,-0.864 0.792,-0.792 0.36,-0.145 0.432,-0.216 0.504,-0.143 h 0.432 0.36 l 0.504,0.143 0.432,0.144 0.432,0.217 0.864,0.648 0.792,0.864 h 2.16 l -1.512,-11.665 h -9.36 v 2.593 h 7.488 l 0.648,5.688 -0.432,-0.433 -0.648,-0.359 -0.432,-0.145 -0.432,-0.143 h -0.504 l -0.504,-0.072 -0.648,0.072 h -0.432 l -0.648,0.143 -0.504,0.145 -0.504,0.288 -0.504,0.216 -0.504,0.359 -0.36,0.433 -0.792,1.08 -0.72,1.44 -0.36,1.584 -0.144,1.943 0.072,1.224 0.36,1.296 0.576,1.153 0.72,1.079 0.432,0.577 0.432,0.432 0.504,0.504 0.576,0.359 0.576,0.289 0.648,0.144 0.72,0.144 0.648,0.071 0.792,-0.071 0.864,-0.216 0.72,-0.217 0.792,-0.359 0.576,-0.432 0.648,-0.504 0.504,-0.648 0.36,-0.649 0.648,-1.511 0.144,-1.729 h -2.448 l -0.216,1.08 -0.36,0.937 -0.504,0.72 -0.648,0.503 -0.72,0.289 -0.792,0.144 -0.432,-0.144 h -0.504 l -0.504,-0.144 -0.504,-0.217 -0.792,-0.792 -0.648,-1.007 -0.504,-1.152 -0.144,-1.441 z M -30.24,1.44 h -4.896 l 1.296,2.449 0.576,2.52 v 2.304 l -0.792,1.727 h -0.432 l 0.504,-1.007 0.216,-1.153 -0.36,-1.223 -0.72,-1.008 -1.08,-0.649 -1.152,-0.215 -1.224,0.215 -0.936,0.792 -0.72,1.008 -0.144,1.296 1.08,3.313 2.52,3.383 2.592,3.168 1.512,2.593 1.368,-2.593 2.52,-3.168 2.304,-3.383 L -25.2,8.496 -25.344,7.2 -26.064,6.192 -27.072,5.4 -28.224,5.185 -29.448,5.4 l -1.008,0.649 -0.792,1.008 -0.288,1.223 0.216,1.153 0.504,1.007 h -0.432 l -0.72,-1.727 -0.072,-2.304 0.576,-2.52 z" style="fill:#000000;fill-opacity:1;fill-rule:nonzero;stroke:none" id="path3922"/>
  </g>
</svg>