<?xml version="1.0" encoding="utf-8"?>
<svg viewBox="819.9978 874.349 209.3759 296.7373" xmlns="http://www.w3.org/2000/svg">
  <g id="g3078" transform="matrix(1.3333330154418948, 0, 0, -1.3333330154418948, 828.0617696470301, 874.3490230404971)">
    <path d="m 0,0 h 145.008 l 2.304,-0.647 1.944,-1.874 1.224,-2.664 0.504,-3.383 v -205.489 l -0.504,-3.239 -1.224,-2.736 -1.944,-1.872 -2.304,-0.649 H 0 l -2.376,0.649 -1.872,1.872 -1.295,2.736 -0.505,3.239 V -8.568 l 0.505,3.383 1.295,2.664 1.872,1.874 z" style="fill:#000000;fill-opacity:1;fill-rule:nonzero;stroke:none" id="path3080"/>
  </g>
  <g id="g3082" transform="matrix(1.3333330154418948, 0, 0, -1.3333330154418948, 831.038250057173, 879.0533676220186)">
    <path d="m 0,0 h 140.472 l 2.304,-0.576 1.8,-1.8 1.296,-2.592 0.504,-3.24 v -199.151 l -0.504,-3.169 -1.296,-2.592 -1.8,-1.8 -2.304,-0.648 H 0 l -2.232,0.648 -1.872,1.8 -1.224,2.592 -0.432,3.169 V -8.208 l 0.432,3.24 1.224,2.592 1.872,1.8 z" style="fill:#ffffff;fill-opacity:1;fill-rule:nonzero;stroke:none" id="path3084"/>
  </g>
  <g id="g3086" transform="matrix(1.3333330154418948, 0, 0, -1.3333330154418948, 1004.3180752804922, 1136.2369407447661)">
    <path d="M 0,0 0.216,-1.296 0.576,-2.52 1.224,-3.384 1.872,-4.177 2.376,-4.32 2.808,-4.536 3.24,-4.681 h 0.432 0.504 l 0.36,0.145 0.432,0.144 0.504,0.215 0.792,0.649 0.792,0.864 H 9.288 L 7.776,-14.328 h -9.432 v 2.592 H 5.832 L 6.48,-6.048 6.12,-6.479 5.472,-6.84 4.968,-6.983 4.536,-7.128 H 4.104 L 3.456,-7.2 3.024,-7.128 H 2.376 l -0.504,0.145 -0.576,0.143 -0.504,0.287 -0.432,0.217 -0.504,0.36 -0.432,0.504 -0.792,1.008 -0.648,1.44 -0.36,1.584 -0.216,1.944 0.072,1.224 0.36,1.296 0.576,1.152 0.72,1.152 0.432,0.504 L 0,6.264 0.504,6.768 1.08,7.128 1.656,7.416 2.376,7.56 3.024,7.704 3.672,7.775 4.464,7.704 5.328,7.487 6.12,7.272 6.84,6.912 7.416,6.48 8.064,5.976 8.568,5.328 8.928,4.68 9.576,3.168 9.72,1.44 H 7.272 L 7.128,2.521 6.768,3.528 6.12,4.176 5.544,4.68 4.824,4.968 4.104,5.112 3.6,4.968 H 3.096 L 2.592,4.823 2.16,4.608 1.296,3.816 0.648,2.808 0.216,1.655 0,0.216 Z m -98.424,167.399 v 1.657 l -0.504,2.808 -1.728,2.232 -2.376,1.44 -2.664,0.504 -2.592,-0.648 -2.16,-1.44 -1.44,-2.448 -0.576,-2.88 0.576,-3.528 1.656,-3.743 2.304,-3.817 2.736,-3.889 2.664,-3.815 2.304,-3.815 1.8,-3.601 0.648,-3.312 0.72,3.312 1.656,3.601 2.376,3.815 2.592,3.815 2.664,3.889 2.376,3.817 1.656,3.743 0.648,3.528 -0.648,2.88 -1.368,2.448 -2.16,1.44 -2.664,0.648 -2.664,-0.504 -2.304,-1.44 -1.656,-2.232 -0.72,-2.808 v -1.657 l -0.504,-0.359 z m 0,-165.815 v -1.656 l -0.504,-2.808 -1.728,-2.232 -2.376,-1.441 -2.664,-0.575 -2.592,0.649 -2.16,1.511 -1.44,2.375 -0.576,2.952 0.576,3.457 1.656,3.671 2.304,3.889 2.736,3.816 2.664,3.816 2.304,3.815 1.8,3.601 0.648,3.311 0.72,-3.311 1.656,-3.601 2.376,-3.815 2.592,-3.816 2.664,-3.816 2.376,-3.889 1.656,-3.671 0.648,-3.457 -0.648,-2.952 -1.368,-2.375 -2.16,-1.511 -2.664,-0.649 -2.664,0.504 -2.304,1.512 -1.656,2.232 -0.72,2.808 v 1.656 l -0.504,0.359 z m 38.088,77.976 v -1.584 l -0.648,-2.88 -1.656,-2.233 -2.376,-1.439 -2.664,-0.504 -2.592,0.504 -2.16,1.584 -1.44,2.448 -0.576,2.808 0.648,3.528 1.656,3.672 2.232,3.816 2.736,3.888 2.664,3.816 2.376,3.744 1.656,3.672 0.72,3.312 0.648,-3.312 1.656,-3.672 2.376,-3.744 2.664,-3.816 2.664,-3.888 2.304,-3.816 1.656,-3.672 0.648,-3.528 -0.576,-2.808 -1.368,-2.448 -2.232,-1.584 -2.592,-0.504 -2.664,0.504 -2.376,1.439 -1.656,2.233 -0.648,2.88 v 1.584 l -0.504,0.36 z m -61.56,74.664 v 0.793 l -0.288,1.295 -0.72,1.08 -1.152,0.72 -1.224,0.216 -1.296,-0.288 -1.008,-0.792 -0.648,-1.08 -0.36,-1.368 1.152,-3.456 2.376,-3.672 2.376,-3.528 1.08,-3.312 1.08,3.312 2.448,3.528 2.376,3.672 1.08,3.456 -0.36,1.368 -0.648,1.08 -1.008,0.792 -1.224,0.288 -1.224,-0.216 -1.152,-0.72 -0.792,-1.08 -0.288,-1.295 v -0.793 l -0.288,-0.144 z M 3.456,14.76 V 13.968 L 3.24,12.672 2.52,11.521 1.368,10.872 0.072,10.655 l -1.224,0.217 -1.008,0.792 -0.72,1.152 -0.288,1.369 1.08,3.382 2.448,3.601 2.304,3.6 1.152,3.24 1.08,-3.24 2.376,-3.6 2.376,-3.601 1.008,-3.382 L 10.44,12.816 9.792,11.664 8.784,10.872 7.56,10.655 6.264,10.872 5.112,11.521 4.32,12.672 4.104,13.968 v 0.792 l -0.288,0.143 z m -25.632,152.639 v 1.657 l -0.576,2.808 -1.656,2.232 -2.376,1.44 -2.664,0.504 -2.592,-0.648 -2.16,-1.44 -1.44,-2.448 -0.576,-2.88 0.576,-3.528 1.656,-3.743 2.304,-3.817 2.736,-3.889 2.664,-3.815 2.304,-3.815 1.728,-3.601 0.648,-3.312 0.72,3.312 1.656,3.601 2.448,3.815 2.592,3.815 2.664,3.889 2.376,3.817 1.656,3.743 0.576,3.528 -0.576,2.88 -1.44,2.448 -2.16,1.44 -2.592,0.648 -2.664,-0.504 -2.376,-1.44 -1.656,-2.232 -0.648,-2.808 v -1.657 L -21.6,167.04 Z m 0,-165.815 v -1.656 l -0.576,-2.808 -1.656,-2.232 -2.376,-1.441 -2.664,-0.575 -2.592,0.649 -2.16,1.511 -1.44,2.375 -0.576,2.952 0.576,3.457 1.656,3.671 2.304,3.889 2.736,3.816 2.664,3.816 2.304,3.815 1.728,3.601 0.648,3.311 0.72,-3.311 1.656,-3.601 2.448,-3.815 2.592,-3.816 2.664,-3.816 2.376,-3.889 1.656,-3.671 0.576,-3.457 -0.576,-2.952 -1.44,-2.375 -2.16,-1.511 -2.592,-0.649 -2.664,0.504 -2.376,1.512 -1.656,2.232 -0.648,2.808 V 1.584 L -21.6,1.943 Z m -96.408,169.344 -0.144,1.368 -0.36,1.152 -0.576,0.791 -0.72,0.793 -0.504,0.216 -0.432,0.144 -0.432,0.144 -0.432,0.072 -0.504,-0.072 -0.36,-0.144 -0.504,-0.144 -0.432,-0.144 -0.792,-0.648 -0.792,-0.935 h -2.232 l 1.512,11.735 h 9.36 v -2.664 h -7.488 l -0.648,-5.689 0.432,0.504 0.648,0.289 0.432,0.216 0.504,0.144 h 0.504 l 0.504,0.072 0.504,-0.072 h 0.648 l 0.504,-0.216 0.576,-0.144 0.504,-0.289 0.504,-0.215 0.36,-0.36 0.504,-0.433 0.792,-1.08 0.648,-1.367 0.36,-1.584 0.216,-1.944 -0.144,-1.224 -0.36,-1.297 -0.504,-1.151 -0.72,-1.151 -0.432,-0.577 -0.504,-0.432 -0.504,-0.361 -0.504,-0.359 -0.648,-0.217 -0.648,-0.215 -0.648,-0.144 h -0.648 -0.864 l -0.864,0.144 -0.72,0.288 -0.72,0.216 -0.576,0.504 -0.648,0.504 -0.504,0.576 -0.36,0.72 -0.648,1.512 -0.144,1.727 h 2.448 l 0.216,-1.151 0.288,-0.937 0.576,-0.647 0.648,-0.504 0.72,-0.36 0.792,-0.073 0.504,0.073 h 0.432 l 0.504,0.216 0.432,0.215 0.864,0.721 0.648,1.008 0.432,1.224 0.144,1.368 z" style="fill:#ff0000;fill-opacity:1;fill-rule:nonzero;stroke:none" id="path3088"/>
  </g>
</svg>