<?xml version="1.0" encoding="utf-8"?>
<svg viewBox="819.9978 532.6849 209.3759 296.8319" xmlns="http://www.w3.org/2000/svg">
  <g id="g1796" transform="matrix(1.3333330154418948, 0, 0, -1.3333330154418948, 828.0617696470301, 532.6849606193682)">
    <path d="m 0,0 h 145.008 l 2.304,-0.648 1.944,-1.872 1.224,-2.664 0.504,-3.384 v -205.56 l -0.504,-3.312 -1.224,-2.664 -1.944,-1.872 -2.304,-0.648 H 0 l -2.376,0.648 -1.872,1.872 -1.295,2.664 -0.505,3.312 v 205.56 l 0.505,3.384 1.295,2.664 1.872,1.872 z" style="fill:#000000;fill-opacity:1;fill-rule:nonzero;stroke:none" id="path1798"/>
  </g>
  <g id="g1800" transform="matrix(1.3333330154418948, 0, 0, -1.3333330154418948, 831.038250057173, 537.3892238207009)">
    <path d="m 0,0 h 140.472 l 2.304,-0.576 1.8,-1.8 1.296,-2.592 0.504,-3.24 v -199.224 l -0.504,-3.168 -1.296,-2.664 -1.8,-1.728 -2.304,-0.648 H 0 l -2.232,0.648 -1.872,1.728 -1.224,2.664 -0.432,3.168 V -8.208 l 0.432,3.24 1.224,2.592 1.872,1.8 z" style="fill:#ffffff;fill-opacity:1;fill-rule:nonzero;stroke:none" id="path1802"/>
  </g>
  <g id="g1804" transform="matrix(1.3333330154418948, 0, 0, -1.3333330154418948, 842.2700182126434, 595.7572112067683)">
    <path d="M 0,0 0.144,-0.144 V -0.288 L 0.36,-1.584 1.008,-2.592 2.016,-3.24 3.312,-3.528 4.608,-3.24 5.616,-2.592 6.336,-1.584 6.552,-0.288 6.336,1.008 5.616,2.016 4.608,2.664 3.312,2.952 2.736,2.88 2.16,2.664 1.656,2.448 1.152,2.16 H 0.864 L 0.72,2.304 0.648,2.592 1.8,3.816 2.304,5.4 1.944,6.624 1.296,7.704 0.36,8.352 -0.864,8.64 -2.16,8.352 -3.24,7.704 -3.888,6.624 -4.176,5.4 -4.032,4.464 -3.672,3.6 -3.096,2.952 -2.376,2.52 -2.448,2.16 H -2.592 L -2.88,2.016 -3.384,2.376 -3.888,2.664 -4.536,2.88 -5.184,2.952 -6.408,2.664 -7.416,2.016 -8.208,1.008 l -0.216,-1.296 0.216,-1.296 0.792,-1.008 1.008,-0.648 1.224,-0.288 1.296,0.288 1.008,0.648 0.648,1.008 0.288,1.296 V -0.144 0 l 0.576,-2.088 -1.008,-3.456 h 2.808 l -0.936,3.456 z m 125.352,-128.736 0.072,0.144 v 0.216 l 0.288,1.296 0.648,0.936 1.008,0.648 1.296,0.36 1.296,-0.36 1.008,-0.648 0.72,-0.936 0.216,-1.296 -0.216,-1.368 -0.72,-1.008 -1.008,-0.648 -1.296,-0.288 h -0.648 l -0.504,0.144 -0.504,0.36 -0.504,0.288 h -0.36 L 126,-131.112 v -0.288 l 1.152,-1.08 0.432,-1.656 -0.288,-1.296 -0.648,-1.008 -0.936,-0.72 -1.296,-0.288 -1.224,0.288 -1.08,0.72 -0.72,1.008 -0.216,1.296 0.072,0.936 0.432,0.792 0.576,0.648 0.792,0.504 -0.144,0.36 h -0.144 l -0.36,0.072 -0.504,-0.36 -0.504,-0.216 -0.504,-0.288 h -0.72 l -1.296,0.288 -1.008,0.648 -0.72,1.008 -0.288,1.368 0.288,1.296 0.72,0.936 1.008,0.648 1.296,0.36 1.224,-0.36 1.008,-0.648 0.72,-0.936 0.288,-1.296 v -0.216 -0.144 l 0.648,2.088 -1.008,3.456 h 2.736 l -0.936,-3.456 z M 28.656,7.704 28.728,7.416 v -0.36 l 0.648,-3.168 1.728,-2.52 2.52,-1.728 3.168,-0.72 3.024,0.72 2.592,1.728 1.8,2.52 0.576,3.168 -0.576,3.096 -1.8,2.52 -2.592,1.728 -3.024,0.576 -1.512,-0.144 -1.368,-0.36 -1.368,-0.648 -1.152,-0.864 -0.648,0.144 -0.432,0.504 -0.216,0.576 1.656,1.296 1.296,1.656 0.864,1.872 0.216,2.016 -0.576,3.096 -1.8,2.664 -2.448,1.728 -3.168,0.576 -3.024,-0.576 -2.664,-1.728 -1.728,-2.664 -0.576,-3.096 0.36,-2.232 0.792,-2.016 1.512,-1.656 1.8,-1.152 -0.288,-0.792 -0.432,-0.216 -0.576,-0.144 -1.224,0.864 -1.368,0.72 -1.512,0.432 -1.584,0.144 -3.096,-0.576 -2.52,-1.728 -1.8,-2.52 -0.648,-3.096 0.648,-3.168 1.8,-2.52 2.52,-1.728 3.096,-0.72 3.096,0.72 2.592,1.728 1.656,2.52 0.648,3.168 v 0.36 0.288 l 1.224,-1.584 0.288,-3.6 -0.72,-4.464 -1.8,-3.96 h 6.984 l -1.656,3.96 -0.648,4.464 0.216,3.6 z m 70.848,0 0.144,-0.288 v -0.36 l 0.648,-3.168 1.656,-2.52 2.592,-1.728 3.168,-0.72 3.024,0.72 2.664,1.728 1.656,2.52 0.648,3.168 -0.648,3.096 -1.656,2.52 -2.664,1.728 -3.024,0.576 -1.512,-0.144 -1.44,-0.36 -1.368,-0.648 -1.08,-0.864 -0.648,0.144 -0.504,0.504 -0.144,0.576 1.728,1.296 1.224,1.656 0.792,1.872 0.288,2.016 -0.648,3.096 -1.656,2.664 -2.592,1.728 -3.096,0.576 -3.096,-0.576 -2.592,-1.728 -1.728,-2.664 -0.648,-3.096 0.36,-2.232 0.864,-2.016 1.44,-1.656 1.872,-1.152 -0.288,-0.792 -0.432,-0.216 -0.648,-0.144 -1.152,0.864 -1.368,0.72 -1.512,0.432 -1.584,0.144 -3.096,-0.576 -2.592,-1.728 -1.8,-2.52 -0.576,-3.096 0.576,-3.168 1.8,-2.52 2.592,-1.728 3.096,-0.72 3.096,0.72 2.52,1.728 1.728,2.52 0.72,3.168 v 0.36 0.288 l 1.152,-1.584 0.288,-3.6 -0.792,-4.464 -1.728,-3.96 h 6.984 l -1.656,3.96 -0.648,4.464 0.144,3.6 z m -75.744,-139.752 -0.144,0.432 v 0.432 l -0.648,3.096 -1.656,2.592 -2.592,1.728 -3.096,0.648 -3.096,-0.648 -2.52,-1.728 -1.8,-2.592 -0.648,-3.096 0.648,-3.168 1.8,-2.592 2.52,-1.8 3.096,-0.576 1.512,0.144 1.44,0.432 1.224,0.648 1.152,0.864 0.648,-0.216 0.504,-0.432 0.144,-0.576 -1.656,-1.224 -1.296,-1.728 -0.792,-1.8 -0.288,-2.16 0.576,-3.096 1.8,-2.52 2.52,-1.8 3.24,-0.576 3.096,0.576 2.592,1.8 1.728,2.52 0.576,3.096 -0.288,2.304 -0.936,2.016 -1.44,1.656 -1.8,1.152 0.216,0.792 0.504,0.216 0.576,0.144 1.224,-0.864 1.368,-0.792 1.512,-0.432 1.512,-0.144 3.168,0.576 2.592,1.8 1.728,2.592 0.576,3.168 -0.576,3.096 -1.728,2.592 -2.592,1.728 -3.168,0.648 -3.024,-0.648 -2.592,-1.728 -1.728,-2.592 -0.648,-3.096 v -0.432 -0.432 l -1.152,1.656 -0.288,3.744 0.792,4.464 1.728,3.96 h -7.128 l 1.728,-3.96 0.72,-4.536 -0.216,-3.672 z m 70.848,0 v 0.432 0.432 l -0.72,3.096 -1.728,2.592 -2.52,1.728 -3.096,0.648 -3.096,-0.648 -2.592,-1.728 -1.8,-2.592 -0.576,-3.096 0.576,-3.168 1.8,-2.592 2.592,-1.8 3.096,-0.576 1.512,0.144 1.44,0.432 1.224,0.648 1.152,0.864 0.648,-0.216 0.504,-0.432 0.072,-0.576 -1.584,-1.224 -1.296,-1.728 -0.864,-1.8 -0.216,-2.16 0.576,-3.096 1.8,-2.52 2.592,-1.8 3.096,-0.576 3.096,0.576 2.664,1.8 1.728,2.52 0.576,3.096 -0.36,2.304 -0.864,2.016 -1.44,1.656 -1.8,1.152 0.216,0.792 0.504,0.216 0.576,0.144 1.224,-0.864 1.44,-0.792 1.44,-0.432 1.512,-0.144 3.168,0.576 2.592,1.8 1.728,2.592 0.576,3.168 -0.576,3.096 -1.728,2.592 -2.592,1.728 -3.168,0.648 -3.024,-0.648 -2.592,-1.728 -1.728,-2.592 -0.648,-3.096 v -0.432 -0.432 l -1.224,1.656 -0.216,3.744 0.72,4.464 1.8,3.96 h -7.2 l 1.8,-3.96 0.72,-4.536 -0.216,-3.672 z m -35.424,75.456 -0.072,0.36 v 0.36 l -0.648,3.168 -1.656,2.52 -2.592,1.728 -3.168,0.648 -3.096,-0.648 -2.52,-1.728 -1.728,-2.52 -0.648,-3.168 0.648,-3.168 1.728,-2.592 2.52,-1.728 3.096,-0.576 1.512,0.144 1.44,0.36 1.296,0.648 1.152,0.936 0.648,-0.288 0.504,-0.36 0.072,-0.648 -1.656,-1.224 -1.224,-1.656 -0.792,-1.872 -0.288,-2.088 0.576,-3.096 1.8,-2.52 2.52,-1.8 3.168,-0.648 3.096,0.648 2.592,1.8 1.728,2.52 0.576,3.096 -0.36,2.304 -0.864,1.944 -1.44,1.656 -1.8,1.224 0.288,0.72 0.432,0.216 0.576,0.144 1.296,-0.864 1.296,-0.72 1.512,-0.432 1.584,-0.144 3.168,0.576 2.52,1.728 1.728,2.592 0.648,3.168 -0.648,3.168 -1.728,2.52 -2.52,1.728 -3.168,0.648 -3.096,-0.648 -2.592,-1.728 -1.656,-2.52 -0.72,-3.168 v -0.36 -0.36 l -1.152,1.512 -0.288,3.744 0.72,4.392 1.8,4.032 h -7.128 l 1.728,-4.032 0.792,-4.392 -0.288,-3.744 z m 62.352,-92.592 0.216,-1.296 0.36,-1.224 0.648,-0.936 0.648,-0.72 0.504,-0.144 0.432,-0.288 0.432,-0.072 0.432,-0.072 0.504,0.072 0.36,0.072 0.432,0.144 0.504,0.288 0.792,0.576 0.792,0.936 h 2.232 l -1.512,-11.736 h -9.432 v 2.664 h 7.488 l 0.648,5.688 -0.36,-0.504 -0.648,-0.288 -0.504,-0.216 -0.432,-0.072 -0.432,-0.072 h -0.648 -0.432 l -0.648,0.072 -0.504,0.144 -0.576,0.144 -0.504,0.288 -0.432,0.216 -0.504,0.36 -0.432,0.432 -0.792,1.08 -0.648,1.368 -0.36,1.584 -0.216,2.016 0.072,1.224 0.36,1.224 0.576,1.224 0.72,1.08 0.432,0.576 0.432,0.432 0.504,0.432 0.576,0.432 0.576,0.216 0.72,0.216 0.648,0.144 h 0.648 0.792 l 0.864,-0.216 0.792,-0.216 0.72,-0.432 0.576,-0.36 0.648,-0.504 0.504,-0.648 0.36,-0.648 0.648,-1.584 0.144,-1.656 h -2.448 l -0.144,1.008 -0.36,1.008 -0.648,0.72 -0.576,0.504 -0.72,0.288 -0.72,0.072 -0.504,-0.072 h -0.504 l -0.504,-0.144 -0.432,-0.288 -0.864,-0.72 -0.648,-1.008 -0.432,-1.224 -0.216,-1.44 z m -118.584,171 -0.144,1.296 -0.36,1.152 -0.576,0.864 -0.72,0.792 -0.504,0.216 -0.432,0.144 -0.432,0.144 -0.432,0.072 -0.504,-0.072 -0.36,-0.144 -0.504,-0.144 -0.432,-0.216 -0.792,-0.648 -0.792,-0.864 h -2.232 l 1.512,11.736 h 9.36 V 33.48 H -2.88 l -0.648,-5.688 0.432,0.504 0.648,0.288 0.432,0.216 0.504,0.072 0.504,0.072 0.504,0.072 L 0,28.944 0.648,28.872 1.152,28.656 1.728,28.512 2.232,28.296 2.736,28.008 3.096,27.72 3.6,27.288 4.392,26.208 5.04,24.768 5.4,23.256 5.616,21.312 5.472,20.088 5.112,18.792 4.608,17.568 3.888,16.488 3.456,15.912 2.952,15.48 2.448,15.12 1.944,14.76 1.296,14.472 0.648,14.328 0,14.184 l -0.648,-0.072 -0.864,0.072 -0.864,0.144 -0.72,0.288 -0.72,0.216 -0.576,0.504 -0.648,0.504 -0.504,0.576 -0.36,0.648 -0.648,1.584 -0.144,1.656 h 2.448 l 0.216,-1.08 0.288,-0.936 0.576,-0.72 0.648,-0.504 0.72,-0.288 0.792,-0.072 h 0.504 l 0.432,0.072 0.504,0.216 0.432,0.216 0.864,0.648 0.648,1.008 0.432,1.296 0.144,1.368 z" style="fill:#000000;fill-opacity:1;fill-rule:nonzero;stroke:none" id="path1806"/>
  </g>
</svg>