<?xml version="1.0" encoding="utf-8"?>
<svg viewBox="572.8932 874.349 209.2813 296.7373" xmlns="http://www.w3.org/2000/svg">
  <g id="g3066" transform="matrix(1.3333330154418948, 0, 0, -1.3333330154418948, 580.8624877636328, 874.3490230404971)">
    <path d="m 0,0 h 145.008 l 2.304,-0.647 1.944,-1.874 1.224,-2.664 0.504,-3.383 v -205.489 l -0.504,-3.239 -1.224,-2.736 -1.944,-1.872 -2.304,-0.649 H 0 l -2.376,0.649 -1.872,1.872 -1.296,2.736 -0.433,3.239 V -8.568 l 0.433,3.383 1.296,2.664 1.872,1.874 z" style="fill:#000000;fill-opacity:1;fill-rule:nonzero;stroke:none" id="path3068"/>
  </g>
  <g id="g3070" transform="matrix(1.3333330154418948, 0, 0, -1.3333330154418948, 583.8377881610365, 879.0533676220186)">
    <path d="m 0,0 h 140.472 l 2.304,-0.576 1.8,-1.8 1.368,-2.592 0.432,-3.24 v -199.151 l -0.432,-3.169 -1.368,-2.592 -1.8,-1.8 -2.304,-0.648 H 0 l -2.231,0.648 -1.873,1.8 -1.224,2.592 -0.432,3.169 V -8.208 l 0.432,3.24 1.224,2.592 1.873,1.8 z" style="fill:#ffffff;fill-opacity:1;fill-rule:nonzero;stroke:none" id="path3072"/>
  </g>
  <g id="g3074" transform="matrix(1.3333330154418948, 0, 0, -1.3333330154418948, 592.477841439629, 925.901012702667)">
    <path d="m 0,0 v -12.456 l -1.584,2.376 -2.375,3.672 -1.081,3.456 0.289,1.368 0.647,1.08 1.008,0.792 1.296,0.288 1.224,-0.216 z m 0,11.231 h -4.968 v 3.168 L 0,22.608 V 18.433 L -2.735,13.896 H 0 Z M 25.057,9.647 v 1.657 l -0.505,2.808 -1.728,2.232 -2.376,1.44 -2.663,0.504 -2.593,-0.648 -2.16,-1.44 -1.44,-2.448 -0.576,-2.88 0.649,-3.528 1.584,-3.743 2.303,-3.817 2.737,-3.888 2.664,-3.816 2.303,-3.815 1.801,-3.601 0.648,-3.311 0.719,3.311 1.657,3.601 2.376,3.815 2.591,3.816 2.664,3.888 2.376,3.817 1.657,3.743 0.648,3.528 -0.577,2.88 -1.44,2.448 -2.16,1.44 -2.664,0.648 -2.664,-0.504 -2.304,-1.44 -1.656,-2.232 -0.72,-2.808 V 9.647 L 25.705,9.288 Z m 0,-165.815 v -1.656 l -0.505,-2.808 -1.728,-2.232 -2.376,-1.441 -2.663,-0.575 -2.593,0.649 -2.16,1.511 -1.44,2.375 -0.576,2.952 0.649,3.457 1.584,3.671 2.303,3.889 2.737,3.816 2.664,3.816 2.303,3.815 1.801,3.601 0.648,3.311 0.719,-3.311 1.657,-3.601 2.376,-3.815 2.591,-3.816 2.664,-3.816 2.376,-3.889 1.657,-3.671 0.648,-3.457 -0.577,-2.952 -1.44,-2.375 -2.16,-1.511 -2.664,-0.649 -2.664,0.504 -2.304,1.512 -1.656,2.232 -0.72,2.808 v 1.656 l -0.503,0.359 z M 101.304,9.647 v 1.657 l -0.576,2.808 -1.656,2.232 -2.376,1.44 -2.664,0.504 L 91.44,17.64 89.28,16.2 87.84,13.752 87.264,10.872 87.84,7.344 89.497,3.601 91.8,-0.216 94.537,-4.104 97.2,-7.92 l 2.304,-3.815 1.728,-3.601 0.648,-3.311 0.72,3.311 1.656,3.601 2.449,3.815 2.591,3.816 2.664,3.888 2.376,3.817 1.656,3.743 0.576,3.528 -0.504,2.88 -1.512,2.448 -2.088,1.44 -2.664,0.648 -2.664,-0.504 -2.376,-1.44 -1.656,-2.232 -0.647,-2.808 V 9.647 L 101.88,9.288 Z m 0,-165.815 v -1.656 l -0.576,-2.808 -1.656,-2.232 -2.376,-1.441 -2.664,-0.575 -2.592,0.649 -2.16,1.511 -1.44,2.375 -0.576,2.952 0.576,3.457 1.657,3.671 2.303,3.889 2.737,3.816 2.663,3.816 2.304,3.815 1.728,3.601 0.648,3.311 0.72,-3.311 1.656,-3.601 2.449,-3.815 2.591,-3.816 2.664,-3.816 2.376,-3.889 1.656,-3.671 0.576,-3.457 -0.504,-2.952 -1.512,-2.375 -2.088,-1.511 -2.664,-0.649 -2.664,0.504 -2.376,1.512 -1.656,2.232 -0.647,2.808 v 1.656 l -0.577,0.359 z M 0,-12.456 V 0 l 0.577,-0.36 0.719,-1.08 0.288,-1.295 v -0.793 l 0.289,-0.144 0.288,0.144 v 0.793 L 2.448,-1.44 3.312,-0.36 4.393,0.36 5.616,0.576 6.913,0.288 7.849,-0.504 8.497,-1.584 8.856,-2.952 7.776,-6.408 5.4,-10.08 2.953,-13.608 1.873,-16.92 0.792,-13.608 Z m 128.448,-143.353 v -2.735 h -2.736 v -9 l 2.736,4.464 v -4.105 l -3.168,-5.255 h -1.8 v 13.896 h -2.52 v 2.735 h 2.52 v 5.041 h 2.232 v -5.041 z m 0,22.681 v -12.816 l -0.648,0.864 -0.216,1.296 v 0.792 l -0.288,0.143 -0.288,-0.143 v -0.792 l -0.288,-1.296 -0.72,-1.151 -1.152,-0.649 -1.296,-0.217 -1.223,0.217 -1.009,0.792 -0.72,1.152 -0.288,1.369 1.152,3.382 2.376,3.601 2.305,3.6 1.151,3.24 1.08,-3.24 z M 2.808,6.192 v 5.039 H 0 v 2.665 h 2.808 v 9.072 L 0,18.433 v 4.175 l 3.168,5.184 H 4.896 V 13.896 H 7.561 V 11.231 H 4.896 V 6.192 Z m 125.64,-152.136 v 12.816 l 2.304,-3.456 2.376,-3.601 1.08,-3.382 -0.288,-1.369 -0.648,-1.152 -1.008,-0.792 -1.223,-0.217 -1.225,0.217 -1.151,0.649 z m 0,-21.241 v 4.105 l 2.808,4.536 h -2.808 v 2.735 h 4.968 v -3.168 z" style="fill:#ff0000;fill-opacity:1;fill-rule:nonzero;stroke:none" id="path3076"/>
  </g>
</svg>