<?xml version="1.0" encoding="utf-8"?>
<svg viewBox="572.8932 190.5412 209.2813 296.8319" xmlns="http://www.w3.org/2000/svg">
  <g id="g36" transform="matrix(1.3333330154418948, 0, 0, -1.3333330154418948, 580.8624877636328, 190.54116198449276)">
    <path d="m 0,0 h 145.008 l 2.304,-0.648 1.944,-1.872 1.224,-2.736 0.504,-3.312 v -205.56 l -0.504,-3.312 -1.224,-2.664 -1.944,-1.872 -2.304,-0.648 H 0 l -2.376,0.648 -1.872,1.872 -1.296,2.664 -0.433,3.312 v 205.56 l 0.433,3.312 1.296,2.736 1.872,1.872 z" style="fill:#000000;fill-opacity:1;fill-rule:nonzero;stroke:none" id="path38"/>
  </g>
  <g id="g40" transform="matrix(1.3333330154418948, 0, 0, -1.3333330154418948, 583.8377881610365, 195.2449369046917)">
    <path d="m 0,0 h 140.472 l 2.304,-0.576 1.8,-1.8 1.368,-2.592 0.432,-3.312 v -199.152 l -0.432,-3.168 -1.368,-2.664 -1.8,-1.728 -2.304,-0.648 H 0 l -2.231,0.648 -1.873,1.728 -1.224,2.664 -0.432,3.168 V -8.28 l 0.432,3.312 1.224,2.592 1.873,1.8 z" style="fill:#ffffff;fill-opacity:1;fill-rule:nonzero;stroke:none" id="path42"/>
  </g>
  <g id="g44" transform="matrix(1.3333330154418948, 0, 0, -1.3333330154418948, 592.477841439629, 245.45325826742567)">
    <path d="m 0,0 v -10.944 l -3.959,5.472 z m 0,13.68 h -4.968 v 3.168 L 0,25.056 V 20.952 L -2.735,16.416 H 0 Z M 39.24,3.024 37.224,5.328 35.353,7.56 33.48,9.864 31.752,12.24 30.096,14.616 28.512,16.992 27,19.368 25.561,21.744 24.265,19.512 22.752,17.136 21.168,14.76 19.44,12.456 17.712,10.08 15.769,7.704 13.752,5.328 11.736,3.024 l 1.872,-2.232 1.8,-2.16 1.8,-2.304 1.728,-2.304 1.729,-2.304 1.584,-2.448 1.655,-2.592 1.657,-2.592 1.439,2.376 1.584,2.376 1.584,2.448 1.728,2.448 1.728,2.304 1.8,2.448 1.872,2.304 z m 76.465,0 -2.017,2.304 -1.872,2.232 -1.872,2.304 -1.728,2.376 -1.728,2.376 -1.584,2.376 -1.44,2.376 -1.511,2.376 -1.297,-2.232 -1.44,-2.376 L 97.632,14.76 95.904,12.456 94.104,10.08 92.232,7.704 90.216,5.328 88.2,3.024 90,0.792 l 1.8,-2.16 1.8,-2.304 1.729,-2.304 1.727,-2.304 1.656,-2.448 1.657,-2.592 1.584,-2.592 1.511,2.376 1.513,2.376 1.655,2.448 1.728,2.448 1.728,2.304 1.8,2.448 1.872,2.304 z m -76.465,-149.616 -2.016,2.232 -1.871,2.304 -1.873,2.376 -1.728,2.304 -1.656,2.376 -1.584,2.376 -1.512,2.376 -1.439,2.376 -1.296,-2.304 -1.513,-2.304 -1.584,-2.376 -1.728,-2.304 -1.728,-2.376 -1.943,-2.376 -2.017,-2.376 -2.016,-2.304 1.872,-2.232 1.8,-2.16 1.8,-2.232 1.728,-2.376 1.729,-2.304 1.584,-2.448 1.655,-2.52 1.657,-2.664 1.439,2.376 1.584,2.376 1.584,2.448 1.728,2.448 1.728,2.376 1.8,2.376 1.872,2.304 z m 76.465,0 -2.017,2.232 -1.872,2.304 -1.872,2.376 -1.728,2.304 -1.728,2.376 -1.584,2.376 -1.44,2.376 -1.511,2.376 -1.297,-2.304 -1.44,-2.304 -1.584,-2.376 -1.728,-2.304 -1.8,-2.376 -1.872,-2.376 -2.016,-2.376 -2.016,-2.304 1.8,-2.232 1.8,-2.16 1.8,-2.232 1.729,-2.376 1.727,-2.304 1.656,-2.448 1.657,-2.52 1.584,-2.664 1.511,2.376 1.513,2.376 1.655,2.448 1.728,2.448 1.728,2.376 1.8,2.376 1.872,2.304 z M 0,-10.944 V 0 L 2.016,2.736 7.92,-5.472 2.016,-13.608 Z M 128.448,-153.36 v -2.808 h -2.736 v -9 l 2.736,4.536 v -4.104 l -3.168,-5.256 h -1.8 v 13.824 h -2.52 v 2.808 h 2.52 v 5.04 h 2.232 v -5.04 z m 0,21.888 v -12.744 l -1.296,-1.8 -5.976,8.208 5.976,8.136 z M 2.808,8.712 V 13.68 H 0 v 2.736 h 2.808 v 9.072 L 0,20.952 v 4.104 l 3.168,5.256 H 4.896 V 16.416 H 7.561 V 13.68 H 4.896 V 8.712 Z m 125.64,-152.928 v 12.744 l 4.68,-6.336 z m 0,-20.52 v 4.104 l 2.808,4.464 h -2.808 v 2.808 h 4.968 v -3.24 z" style="fill:#ff0000;fill-opacity:1;fill-rule:nonzero;stroke:none" id="path46"/>
  </g>
</svg>