<?xml version="1.0" encoding="utf-8"?>
<svg viewBox="572.8932 1212.0768 209.2813 296.8319" xmlns="http://www.w3.org/2000/svg">
  <g id="g3900" transform="matrix(1.3333330154418948, 0, 0, -1.3333330154418948, 580.8624877636328, 1212.076766413138)">
    <path d="m 0,0 h 145.008 l 2.304,-0.648 1.944,-1.872 1.224,-2.665 0.504,-3.383 v -205.56 l -0.504,-3.24 -1.224,-2.736 -1.944,-1.873 -2.304,-0.647 H 0 l -2.376,0.647 -1.872,1.873 -1.296,2.736 -0.433,3.24 v 205.56 l 0.433,3.383 1.296,2.665 1.872,1.872 z" style="fill:#000000;fill-opacity:1;fill-rule:nonzero;stroke:none" id="path3902"/>
  </g>
  <g id="g3904" transform="matrix(1.3333330154418948, 0, 0, -1.3333330154418948, 583.8377881610365, 1216.7811923748488)">
    <path d="m 0,0 h 140.472 l 2.304,-0.575 1.8,-1.801 1.368,-2.592 0.432,-3.24 v -199.224 l -0.432,-3.168 -1.368,-2.591 -1.8,-1.8 -2.304,-0.649 H 0 l -2.231,0.649 -1.873,1.8 -1.224,2.591 -0.432,3.168 V -8.208 l 0.432,3.24 1.224,2.592 1.873,1.801 z" style="fill:#ffffff;fill-opacity:1;fill-rule:nonzero;stroke:none" id="path3906"/>
  </g>
  <g id="g3908" transform="matrix(1.3333330154418948, 0, 0, -1.3333330154418948, 592.477841439629, 1233.4855747854417)">
    <path d="M 0,0 V -4.176 L -2.735,-8.712 H 0 v -2.663 h -4.968 v 3.168 z m 0,-31.896 -0.288,0.72 h -0.504 l 0.504,-1.008 0.216,-1.152 -0.36,-1.224 -0.719,-1.007 -1.08,-0.649 -1.153,-0.216 -1.152,0.216 -1.007,0.792 -0.649,1.008 -0.216,1.296 1.08,3.312 2.52,3.384 2.593,3.168 0.215,0.432 z m 0,-8.28 h -1.439 l 1.295,2.448 0.144,0.72 z m 33.696,-1.44 h -9.648 l 2.52,4.896 1.08,4.968 -0.071,4.536 -1.369,3.456 h -0.936 l 1.008,-2.015 0.288,-2.233 -0.504,-2.519 -1.512,-1.945 -2.088,-1.296 -2.376,-0.503 -2.376,0.503 -1.799,1.44 -1.297,2.161 -0.504,2.52 0.576,3.095 1.584,3.385 2.305,3.384 2.663,3.311 2.664,3.312 2.52,3.097 1.872,2.735 1.08,2.52 0.936,-2.448 1.8,-2.736 2.376,-3.096 2.52,-3.311 2.592,-3.313 2.088,-3.455 1.512,-3.241 0.576,-3.239 -0.504,-2.52 -1.224,-2.161 -1.944,-1.44 -2.376,-0.503 -2.375,0.503 -2.088,1.296 -1.513,1.945 -0.503,2.519 0.359,2.233 1.008,2.015 H 31.68 l -1.44,-3.456 -0.144,-4.536 1.153,-4.968 z m 70.92,0 h -9.72 l 2.592,4.896 1.08,4.968 -0.071,4.536 -1.441,3.456 h -0.864 l 1.008,-2.015 0.36,-2.233 -0.576,-2.519 -1.512,-1.945 -2.16,-1.296 -2.304,-0.503 -2.303,0.503 -1.945,1.44 -1.223,2.161 -0.505,2.52 0.576,3.095 1.584,3.385 2.305,3.384 2.664,3.311 2.663,3.312 2.52,3.097 1.872,2.735 1.08,2.52 0.936,-2.448 1.8,-2.736 2.376,-3.096 2.52,-3.311 2.52,-3.313 2.16,-3.455 1.584,-3.241 0.504,-3.239 -0.504,-2.52 -1.296,-2.161 -1.943,-1.44 -2.305,-0.503 -2.376,0.503 -2.087,1.296 -1.513,1.945 -0.576,2.519 0.361,2.233 1.007,2.015 h -0.936 l -1.367,-3.456 -0.145,-4.536 1.152,-4.968 z m -70.92,-107.495 h -9.648 l 2.52,-4.825 1.08,-5.04 -0.071,-4.536 -1.369,-3.456 h -0.936 l 1.008,1.945 0.288,2.303 -0.504,2.449 -1.512,2.016 -2.088,1.296 -2.376,0.504 -2.376,-0.504 -1.799,-1.513 -1.297,-2.088 -0.504,-2.519 0.576,-3.097 1.584,-3.384 2.305,-3.383 2.663,-3.312 2.664,-3.312 2.52,-3.168 1.872,-2.808 1.08,-2.449 0.936,2.449 1.8,2.808 2.376,3.023 2.52,3.384 2.592,3.385 2.088,3.383 1.512,3.313 0.576,3.168 -0.504,2.519 -1.224,2.088 -1.944,1.513 -2.376,0.504 -2.375,-0.504 -2.088,-1.296 -1.513,-2.016 -0.503,-2.449 0.359,-2.303 1.008,-1.945 H 31.68 l -1.44,3.456 -0.144,4.536 1.153,5.04 z m 70.92,0 h -9.72 l 2.592,-4.825 1.08,-5.04 -0.071,-4.536 -1.441,-3.456 h -0.864 l 1.008,1.945 0.36,2.303 -0.576,2.449 -1.512,2.016 -2.16,1.296 -2.304,0.504 -2.303,-0.504 -1.945,-1.513 -1.223,-2.088 -0.505,-2.519 0.576,-3.097 1.584,-3.384 2.305,-3.383 2.664,-3.312 2.663,-3.312 2.52,-3.168 1.872,-2.808 1.08,-2.449 0.936,2.449 1.8,2.808 2.376,3.023 2.52,3.384 2.52,3.385 2.16,3.383 1.584,3.313 0.504,3.168 -0.504,2.519 -1.296,2.088 -1.943,1.513 -2.305,0.504 -2.376,-0.504 -2.087,-1.296 -1.513,-2.016 -0.576,-2.449 0.361,-2.303 1.007,-1.945 h -0.936 l -1.367,3.456 -0.145,4.536 1.152,5.04 z M 0,-11.375 v 2.663 H 2.808 V 0.36 L 0,-4.176 V 0 L 3.168,5.185 H 4.896 V -8.712 h 2.665 v -2.663 H 4.896 v -5.041 H 2.808 v 5.041 z m 128.448,-167.112 v -2.737 h -2.736 v -9 l 2.736,4.464 v -4.103 l -3.168,-5.257 h -1.8 v 13.896 h -2.52 v 2.737 h 2.52 v 5.04 h 2.232 v -5.04 z m 0,27.431 v -4.319 l -0.144,-0.721 v -2.303 l 0.144,-0.289 v -10.152 l -1.152,-1.872 -1.296,2.592 -2.52,3.241 -2.376,3.455 -1.008,3.313 0.216,1.223 0.648,1.08 1.008,0.72 1.152,0.217 1.224,-0.217 1.009,-0.647 0.792,-0.936 0.359,-1.297 -0.215,-1.152 -0.577,-0.936 h 0.433 l 0.719,1.657 0.144,2.303 -0.648,2.521 -1.152,2.519 z M 3.457,-40.176 H 0 v 3.168 l 0.432,1.801 v 2.304 L 0,-31.896 v 9.072 l 1.296,2.161 1.369,-2.593 2.52,-3.168 2.303,-3.384 1.009,-3.312 -0.144,-1.296 -0.721,-1.008 -1.008,-0.792 -1.152,-0.216 -1.223,0.216 -1.009,0.649 -0.792,1.007 -0.287,1.224 0.215,1.152 0.504,1.008 H 2.448 l -0.72,-1.727 -0.072,-2.304 0.576,-2.521 z m 124.991,-115.199 0.432,1.8 1.224,2.519 h -1.656 z m 0,-13.465 v 10.152 l 0.576,-1.368 h 0.433 l -0.504,0.936 -0.145,1.152 0.288,1.297 0.792,0.936 1.008,0.647 1.224,0.217 1.152,-0.217 1.008,-0.72 0.648,-1.08 0.217,-1.223 -1.081,-3.313 -2.52,-3.384 -2.664,-3.312 z m 0,-21.023 v 4.103 l 2.808,4.536 h -2.808 v 2.737 h 4.968 v -3.169 z" style="fill:#000000;fill-opacity:1;fill-rule:nonzero;stroke:none" id="path3910"/>
  </g>
</svg>