<?xml version="1.0" encoding="utf-8"?>
<svg viewBox="572.8932 532.6849 209.2813 296.8319" xmlns="http://www.w3.org/2000/svg">
  <g id="g1784" transform="matrix(1.3333330154418948, 0, 0, -1.3333330154418948, 580.8624877636328, 532.6849606193682)">
    <path d="m 0,0 h 145.008 l 2.304,-0.648 1.944,-1.872 1.224,-2.664 0.504,-3.384 v -205.56 l -0.504,-3.312 -1.224,-2.664 -1.944,-1.872 -2.304,-0.648 H 0 l -2.376,0.648 -1.872,1.872 -1.296,2.664 -0.433,3.312 v 205.56 l 0.433,3.384 1.296,2.664 1.872,1.872 z" style="fill:#000000;fill-opacity:1;fill-rule:nonzero;stroke:none" id="path1786"/>
  </g>
  <g id="g1788" transform="matrix(1.3333330154418948, 0, 0, -1.3333330154418948, 583.8377881610365, 537.3892238207009)">
    <path d="m 0,0 h 140.472 l 2.304,-0.576 1.8,-1.8 1.368,-2.592 0.432,-3.24 v -199.224 l -0.432,-3.168 -1.368,-2.664 -1.8,-1.728 -2.304,-0.648 H 0 l -2.231,0.648 -1.873,1.728 -1.224,2.664 -0.432,3.168 V -8.208 l 0.432,3.24 1.224,2.592 1.873,1.8 z" style="fill:#ffffff;fill-opacity:1;fill-rule:nonzero;stroke:none" id="path1790"/>
  </g>
  <g id="g1792" transform="matrix(1.3333330154418948, 0, 0, -1.3333330154418948, 592.477841439629, 554.1886989820598)">
    <path d="M 0,0 V -4.104 L -2.735,-8.64 H 0 v -2.736 h -4.968 v 3.168 z m 0,-22.608 -1.08,-0.216 -1.08,-0.648 -0.648,-1.08 -0.288,-1.224 0.144,-0.936 0.36,-0.864 0.505,-0.648 0.792,-0.432 -0.144,-0.36 h -0.145 l -0.216,-0.144 -0.504,0.36 -0.576,0.288 -0.504,0.216 -0.72,0.072 -1.296,-0.288 -0.935,-0.648 -0.721,-1.008 -0.288,-1.296 0.288,-1.296 0.721,-1.009 0.935,-0.648 1.296,-0.287 1.296,0.287 1.008,0.648 0.649,1.009 0.215,1.296 v 0.144 0.144 l 0.648,-2.088 -1.007,-3.456 H 0 Z m 30.6,-5.256 0.072,-0.36 v -0.36 l 0.648,-3.168 1.728,-2.52 2.52,-1.728 3.168,-0.72 3.024,0.72 2.593,1.728 1.799,2.52 0.576,3.168 -0.576,3.096 -1.799,2.52 -2.593,1.8 -3.024,0.576 -1.512,-0.144 -1.368,-0.432 -1.368,-0.648 -1.08,-0.864 -0.648,0.216 -0.504,0.432 -0.144,0.576 1.584,1.296 1.368,1.656 0.792,1.8 0.216,2.16 -0.575,3.096 -1.801,2.592 -2.447,1.728 -3.168,0.576 -3.024,-0.576 -2.593,-1.728 -1.799,-2.592 -0.577,-3.096 0.36,-2.304 0.864,-2.016 1.44,-1.657 1.8,-1.151 -0.287,-0.792 -0.433,-0.144 -0.576,-0.216 -1.224,0.864 -1.367,0.792 -1.513,0.432 -1.584,0.144 -3.096,-0.576 -2.519,-1.8 -1.801,-2.52 -0.648,-3.096 0.648,-3.168 1.801,-2.52 2.519,-1.728 3.096,-0.72 3.097,0.72 2.591,1.728 1.657,2.52 0.648,3.168 v 0.36 0.36 l 1.224,-1.657 0.287,-3.599 -0.719,-4.392 -1.801,-4.032 h 7.056 l -1.728,4.032 -0.648,4.464 0.216,3.527 z m 70.848,0 0.144,-0.36 v -0.36 l 0.648,-3.168 1.656,-2.52 2.592,-1.728 3.168,-0.72 3.024,0.72 2.664,1.728 1.656,2.52 0.648,3.168 -0.648,3.096 -1.656,2.52 -2.664,1.8 -3.024,0.576 -1.511,-0.144 -1.44,-0.432 -1.297,-0.648 -1.152,-0.864 -0.648,0.216 -0.504,0.432 -0.144,0.576 1.728,1.296 1.225,1.656 0.792,1.8 0.287,2.16 -0.576,3.096 -1.728,2.592 -2.592,1.728 -3.096,0.576 -3.096,-0.576 -2.592,-1.728 -1.728,-2.592 -0.576,-3.096 0.288,-2.304 0.865,-2.016 1.439,-1.657 1.872,-1.151 -0.287,-0.792 -0.433,-0.144 -0.648,-0.216 -1.151,0.864 -1.369,0.792 -1.512,0.432 -1.584,0.144 -3.096,-0.576 -2.592,-1.8 -1.8,-2.52 -0.576,-3.096 0.576,-3.168 1.8,-2.52 2.592,-1.728 3.096,-0.72 3.096,0.72 2.52,1.728 1.728,2.52 0.72,3.168 v 0.36 0.36 l 1.153,-1.657 0.287,-3.599 -0.792,-4.392 -1.728,-4.032 h 6.985 l -1.657,4.032 -0.648,4.464 0.144,3.527 z m -75.743,-130.896 -0.144,0.432 v 0.36 l -0.648,3.168 -1.657,2.592 -2.591,1.656 -3.097,0.648 -3.096,-0.648 -2.519,-1.656 -1.801,-2.592 -0.648,-3.168 0.648,-3.096 1.801,-2.592 2.519,-1.8 3.096,-0.576 1.513,0.144 1.439,0.432 1.296,0.648 1.08,0.864 0.72,-0.216 0.432,-0.432 0.144,-0.576 -1.656,-1.296 -1.224,-1.656 -0.864,-1.872 -0.287,-2.088 0.647,-3.096 1.8,-2.592 2.449,-1.8 3.239,-0.576 3.097,0.576 2.591,1.8 1.728,2.592 0.648,3.096 -0.36,2.232 -0.936,2.016 -1.44,1.656 -1.8,1.224 0.288,0.792 0.504,0.144 0.504,0.144 1.296,-0.792 1.296,-0.792 1.512,-0.432 1.584,-0.144 3.096,0.576 2.593,1.8 1.727,2.592 0.576,3.096 -0.576,3.168 -1.727,2.592 -2.593,1.656 -3.096,0.648 -3.096,-0.648 -2.592,-1.656 -1.656,-2.592 -0.719,-3.168 v -0.36 -0.432 l -1.153,1.584 -0.288,3.816 0.792,4.392 1.728,3.96 h -7.128 l 1.728,-3.96 0.792,-4.464 -0.288,-3.744 z m 70.847,0 v 0.432 0.36 l -0.72,3.168 -1.728,2.592 -2.52,1.656 -3.096,0.648 -3.096,-0.648 -2.592,-1.656 -1.8,-2.592 -0.576,-3.168 0.576,-3.096 1.8,-2.592 2.592,-1.8 3.096,-0.576 1.512,0.144 1.44,0.432 1.225,0.648 1.151,0.864 0.648,-0.216 0.504,-0.432 0.144,-0.576 -1.655,-1.296 -1.296,-1.656 -0.865,-1.872 -0.215,-2.088 0.575,-3.096 1.801,-2.592 2.591,-1.8 3.168,-0.576 3.096,0.576 2.592,1.8 1.728,2.592 0.576,3.096 -0.36,2.232 -0.864,2.016 -1.44,1.656 -1.799,1.224 0.215,0.792 0.504,0.144 0.577,0.144 1.223,-0.792 1.441,-0.792 1.44,-0.432 1.511,-0.144 3.168,0.576 2.592,1.8 1.729,2.592 0.575,3.096 -0.575,3.168 -1.729,2.592 -2.592,1.656 -3.168,0.648 -3.024,-0.648 -2.591,-1.656 -1.729,-2.592 -0.647,-3.168 v -0.36 -0.432 l -1.153,1.584 -0.288,3.816 0.792,4.392 1.729,3.96 h -7.129 l 1.728,-3.96 0.72,-4.464 -0.216,-3.744 z M 0,-11.376 V -8.64 H 2.808 V 0.432 L 0,-4.104 V 0 L 3.168,5.256 H 4.896 V -8.64 h 2.665 v -2.736 H 4.896 v -4.968 H 2.808 v 4.968 z m 128.448,-167.04 v -2.808 h -2.736 v -9 l 2.736,4.536 v -4.104 l -3.168,-5.256 h -1.8 v 13.824 h -2.52 v 2.808 h 2.52 v 5.04 h 2.232 v -5.04 z m 0,21.24 v -4.896 h -0.287 l -0.145,-0.216 v -0.288 l 0.432,-0.432 v -4.68 l -0.792,-0.648 -1.296,-0.288 -1.224,0.288 -1.08,0.72 -0.648,1.008 -0.288,1.296 0.144,0.936 0.36,0.792 0.576,0.648 0.792,0.504 -0.144,0.36 h -0.143 l -0.289,0.072 -0.503,-0.36 -0.577,-0.216 -0.504,-0.288 h -0.72 l -1.296,0.288 -1.008,0.648 -0.647,1.008 -0.361,1.368 0.361,1.296 0.647,0.936 1.008,0.648 1.296,0.36 1.296,-0.36 1.008,-0.648 0.648,-0.936 0.289,-1.296 v -0.216 -0.144 l 0.647,2.088 -1.008,3.456 h 2.736 l -0.936,-3.456 0.504,-2.088 0.073,0.144 v 0.216 l 0.287,1.296 0.648,0.936 z m -127.367,126 0.071,-0.144 v -0.144 l 0.288,-1.296 0.648,-1.009 1.008,-0.648 1.297,-0.287 1.223,0.287 1.08,0.648 0.72,1.009 0.216,1.296 -0.216,1.296 -0.72,1.008 -1.08,0.648 -1.223,0.288 -0.577,-0.072 -0.576,-0.216 -0.504,-0.217 -0.504,-0.287 H 1.944 l -0.144,0.144 -0.072,0.288 1.152,1.224 0.432,1.584 -0.216,1.224 -0.72,1.08 -0.936,0.648 -1.224,0.288 L 0,-22.608 V -36.72 h 1.512 l -0.935,3.456 z m 127.367,-130.896 v 4.896 l 0.864,0.504 1.296,0.36 1.296,-0.36 1.009,-0.648 0.719,-0.936 0.216,-1.296 -0.216,-1.368 -0.719,-1.008 -1.009,-0.648 -1.296,-0.288 h -0.648 l -0.503,0.144 -0.504,0.36 z m 0,-5.616 v 4.68 l 0.648,-0.648 0.432,-1.656 -0.216,-1.296 -0.647,-1.008 z m 0,-22.104 v 4.104 l 2.808,4.464 h -2.808 v 2.808 h 4.968 v -3.24 z" style="fill:#000000;fill-opacity:1;fill-rule:nonzero;stroke:none" id="path1794"/>
  </g>
</svg>