<?xml version="1.0" encoding="utf-8"?>
<svg viewBox="2332.0938 189.5809 210.048 297.7919" xmlns="http://www.w3.org/2000/svg">
  <g id="g130" transform="matrix(1.3333330154418945, 0, 0, -1.3333330154418945, 2340.157681921643, 189.58087575510945)">
    <path d="m 0,0 h 145.584 l 2.231,-0.792 2.017,-1.728 1.225,-2.736 0.431,-3.384 v -206.208 l -0.431,-3.312 -1.225,-2.736 -2.017,-1.8 -2.231,-0.648 H 0 l -2.304,0.648 -1.944,1.8 -1.296,2.736 -0.504,3.312 V -8.64 l 0.504,3.384 1.296,2.736 1.944,1.728 z" style="fill:#000000;fill-opacity:1;fill-rule:nonzero;stroke:none" id="path132"/>
  </g>
  <g id="g134" transform="matrix(1.3333330154418945, 0, 0, -1.3333330154418945, 2343.229295772646, 194.18894757312592)">
    <path d="m 0,0 h 140.977 l 2.303,-0.72 1.8,-1.728 1.368,-2.664 0.361,-3.312 v -199.8 l -0.361,-3.168 -1.368,-2.664 -1.8,-1.8 -2.303,-0.648 H 0 l -2.304,0.648 -1.8,1.8 -1.223,2.664 -0.433,3.168 v 199.8 l 0.433,3.312 1.223,2.664 1.8,1.728 z" style="fill:#ffffff;fill-opacity:1;fill-rule:nonzero;stroke:none" id="path136"/>
  </g>
  <g id="g138" transform="matrix(1.3333330154418945, 0, 0, -1.3333330154418945, 2340.733202617761, 224.04506024653892)">
    <path d="m 0,0 h 2.521 v -2.16 l 0.215,-1.44 0.577,-0.936 0.431,-0.432 0.504,-0.216 0.433,-0.072 0.575,-0.072 0.576,0.072 0.36,0.072 0.433,0.216 0.432,0.36 0.576,1.008 0.216,1.44 v 17.28 h 2.447 V -1.872 L 10.225,-3.672 9.721,-5.184 9.288,-5.832 8.928,-6.48 8.353,-6.84 7.849,-7.272 7.2,-7.56 6.625,-7.776 5.904,-7.848 5.256,-7.92 H 4.824 L 4.248,-7.848 3.672,-7.776 3.097,-7.56 2.521,-7.344 1.944,-7.056 1.44,-6.552 1.008,-6.048 0.288,-4.392 0,-2.16 Z" style="fill:#ff0000;fill-opacity:1;fill-rule:nonzero;stroke:none" id="path140"/>
  </g>
  <g id="g142" transform="matrix(1.3333330154418945, 0, 0, -1.3333330154418945, 2530.524824034568, 453.3892438478615)">
    <path d="M 0,0 H -2.447 V 2.16 L -2.735,3.456 -3.383,4.536 -3.815,4.968 -4.176,5.112 -4.752,5.256 -5.256,5.4 -5.76,5.256 -6.264,5.112 -6.695,4.968 -7.127,4.536 -7.631,3.528 -7.848,2.16 v -17.352 h -2.519 V 1.944 l 0.143,1.728 0.505,1.584 0.432,0.576 0.432,0.576 0.432,0.432 0.575,0.36 0.649,0.288 0.648,0.216 0.648,0.216 h 0.576 0.575 0.576 L -3.672,7.704 -3.168,7.56 -2.591,7.416 -2.016,7.056 -1.512,6.624 -1.079,6.048 -0.287,4.464 0,2.16 Z" style="fill:#ff0000;fill-opacity:1;fill-rule:nonzero;stroke:none" id="path144"/>
  </g>
  <g id="g146" transform="matrix(1.3333330154418945, 0, 0, -1.3333330154418945, 2357.3425736577774, 249.5808614499947)">
    <path d="M 0,0 -1.873,2.304 -3.673,4.536 -5.257,6.912 -6.841,9.288 -8.209,7.056 -9.721,4.68 -11.593,2.376 -13.608,0 l 1.727,-2.16 1.872,-2.304 1.656,-2.376 1.512,-2.592 1.584,2.376 1.728,2.52 1.728,2.232 z" style="fill:#ff0000;fill-opacity:1;fill-rule:nonzero;stroke:none" id="path148"/>
  </g>
  <g id="g150" transform="matrix(1.3333330154418945, 0, 0, -1.3333330154418945, 2513.7253488732094, 427.85295436327215)">
    <path d="M 0,0 2.016,-2.304 3.744,-4.608 5.4,-6.984 6.84,-9.36 8.208,-7.056 9.864,-4.68 11.736,-2.376 13.68,0 11.809,2.232 10.152,4.464 8.424,6.912 6.84,9.504 5.328,7.2 3.672,4.608 1.801,2.304 Z" style="fill:#ff0000;fill-opacity:1;fill-rule:nonzero;stroke:none" id="path152"/>
  </g>
  <g id="g154" transform="matrix(1.3333330154418945, 0, 0, -1.3333330154418945, 2511.3256098620186, 455.3093280254943)">
    <path d="m 0,0 v 175.248 l -112.896,0.072 V -0.144 Z" style="fill:#000000;fill-opacity:1;fill-rule:nonzero;stroke:none" id="path156"/>
  </g>
  <g id="g158" transform="matrix(1.3333330154418945, 0, 0, -1.3333330154418945, 2509.117277055193, 453.67724833648754)">
    <path d="M 0,0 0.288,172.728 H -109.296 V -0.072 Z" style="fill:#ffffff;fill-opacity:1;fill-rule:nonzero;stroke:none" id="path160"/>
  </g>
  <g id="g162" transform="matrix(1.3333330154418945, 0, 0, -1.3333330154418945, 2475.037858097028, 266.57304489874156)">
    <path d="m 0,0 -1.512,5.112 -1.368,5.832 -1.512,5.472 -2.304,5.04 4.176,10.8 h -52.56 l 7.704,-10.584 -0.648,-5.688 0.792,-5.976 0.72,-5.688 -0.432,-4.968 -0.432,0.576 -0.648,0.504 -0.865,0.288 -1.295,-0.072 -0.577,-0.36 -0.647,-0.504 -0.36,-0.72 -0.36,-0.72 -8.352,-4.248 3.024,-2.088 3.311,-1.728 3.384,-1.44 3.673,-1.08 3.743,-0.792 3.889,-0.576 3.96,-0.432 3.96,-0.144 3.815,0.072 3.889,0.216 3.888,0.288 3.744,0.36 3.6,0.576 3.528,0.576 3.24,0.576 3.024,0.648 0.288,-0.072 0.144,-0.504 -0.937,-1.08 -0.791,-1.008 -1.008,-0.792 -1.368,-0.288 -1.296,-1.008 -1.296,-0.792 -1.512,-0.576 h -1.801 l -1.511,0.576 -1.728,0.432 h -1.513 l -1.655,-0.504 -0.648,-0.288 -0.72,-0.432 -0.576,-0.36 -0.577,-0.288 -1.367,-0.144 -1.152,0.288 -1.152,0.432 -1.224,0.576 -1.08,0.432 -1.08,0.144 -1.152,-0.144 -1.296,-0.936 -1.224,-0.504 -1.368,-0.288 -1.441,-0.216 -1.223,0.432 -1.08,0.864 -1.153,0.792 -1.151,0.504 -1.296,-0.216 -1.656,-0.576 -1.512,-0.36 h -1.584 l -1.225,0.864 -1.151,1.296 -1.152,0.72 -1.368,0.216 -1.44,-0.072 -1.297,-0.144 -1.151,-0.144 -1.08,0.144 -1.224,0.288 -1.512,1.728 -2.016,1.944 -2.16,1.512 -2.16,1.008 -4.248,-1.944 -5.472,2.952 -4.68,-2.952 v -4.176 l -5.04,-4.176 v -71.64 l 5.04,-3.168 v -33.696 l 5.184,-3.528 5.04,3.672 v 7.92 l 1.512,-1.08 1.368,-0.936 1.368,-1.224 1.296,-1.224 1.223,-1.512 1.081,-1.584 1.224,-1.944 1.152,-2.088 -0.216,2.88 -0.432,2.808 -0.936,2.952 -1.152,2.808 -1.368,2.736 -1.656,2.304 -1.8,1.872 -1.944,1.512 0.144,12.312 7.632,-3.816 -1.729,-0.864 -0.935,-1.368 -0.216,-1.44 0.288,-1.44 0.863,-1.584 1.081,-0.72 0.432,-0.144 0.504,-0.072 0.504,-0.072 0.576,0.072 0.432,0.144 0.504,0.288 0.288,0.288 0.215,0.504 -0.215,0.936 -1.152,-1.44 -1.944,0.072 -0.36,0.504 -0.504,0.576 -0.288,1.944 1.08,1.512 2.088,0.648 2.16,-0.72 0.288,-0.216 0.504,-0.36 0.72,-0.288 -0.504,0.576 -0.576,0.576 -0.648,0.576 -0.649,0.648 3.745,-0.504 2.015,-1.8 1.297,-2.16 0.864,-2.592 0.792,-2.808 1.008,-4.608 1.152,-4.608 1.512,-4.392 1.871,-3.888 h -2.664 l -0.575,0.792 -0.433,0.864 -0.503,1.08 -0.504,0.792 -1.44,4.68 -1.08,4.824 -1.224,4.536 -1.584,4.464 0.503,-2.448 0.577,-2.592 0.576,-2.664 0.647,-2.664 0.649,-3.168 0.792,-3.024 1.08,-2.88 1.368,-2.448 -2.088,-0.072 -2.232,6.192 -1.945,6.12 -2.015,6.12 -2.304,6.048 -0.936,0.648 -0.72,0.144 -0.504,0.144 -0.937,-0.504 -0.575,-1.008 0.144,-0.864 1.008,-0.504 -0.577,1.08 0.721,0.936 1.152,-0.072 0.648,-0.72 0.432,-1.08 0.287,-0.864 1.512,-5.472 1.441,-5.76 1.584,-5.544 2.232,-4.968 -4.752,-10.872 h 51.983 l -6.623,10.584 0.72,5.688 -0.72,6.048 -0.865,5.76 0.505,4.896 0.504,-0.576 0.576,-0.576 0.864,-0.288 1.295,0.072 0.577,0.432 0.576,0.576 0.431,0.576 0.361,0.792 8.425,4.248 -3.025,2.016 -3.384,1.728 -3.384,1.368 -3.672,1.152 -3.744,0.792 -3.888,0.648 -4.032,0.36 -3.888,0.144 -3.816,-0.072 -3.888,-0.144 -3.888,-0.288 -3.744,-0.432 -3.672,-0.504 -3.384,-0.576 -3.312,-0.576 -3.025,-0.72 -0.431,0.216 v 0.36 l 0.792,1.08 0.935,1.008 1.009,0.864 1.367,0.36 1.297,0.864 1.224,0.864 1.656,0.504 1.728,0.144 1.511,-0.72 1.657,-0.36 1.584,0.072 1.584,0.432 0.719,0.36 0.649,0.36 0.648,0.36 0.576,0.288 1.296,0.144 1.296,-0.36 1.08,-0.432 1.224,-0.576 1.08,-0.36 1.08,-0.216 1.151,0.288 1.369,0.792 1.152,0.504 1.368,0.432 1.512,0.072 1.152,-0.432 1.008,-0.864 1.224,-0.72 1.152,-0.432 1.296,0.144 1.656,0.504 1.512,0.504 1.512,-0.072 1.296,-0.792 1.079,-1.296 1.225,-0.792 1.368,-0.288 1.367,0.144 1.369,0.144 1.08,0.072 1.152,-0.072 1.224,-0.288 1.224,-1.584 1.224,-1.584 1.513,-1.44 1.943,-0.936 10.152,-2.952 5.472,3.744 v 4.32 l 5.112,3.384 v 72.504 l -4.104,3.528 -0.288,33.192 -5.184,3.888 -5.04,-3.6 v -7.92 L 9.863,11.16 8.424,12.168 7.128,13.32 5.832,14.616 4.608,16.128 3.456,17.712 2.232,19.584 1.151,21.672 1.296,18.936 1.8,15.984 2.664,13.104 3.816,10.296 5.256,7.56 6.912,5.184 l 1.8,-1.872 1.943,-1.368 -0.143,-12.312 -7.632,3.744 1.728,0.936 0.936,1.296 0.288,1.44 -0.36,1.44 L 4.608,0.072 3.527,0.864 3.168,1.008 2.735,1.08 2.232,1.152 H 1.729 L 1.151,1.08 0.72,0.864 0.359,0.576 Z" style="fill:#000000;fill-opacity:1;fill-rule:nonzero;stroke:none" id="path164"/>
  </g>
  <g id="g166" transform="matrix(1.3333330154418945, 0, 0, -1.3333330154418945, 2475.9024412242293, 266.76510214461814)">
    <path d="M 0,0 1.224,0.576 2.735,0.36 3.096,-0.072 3.6,-0.72 3.96,-2.664 2.808,-4.176 0.72,-4.824 l -2.16,0.648 -0.289,0.216 -0.503,0.432 -0.577,0.288 -0.072,0.072 0.432,-0.72 0.577,-0.576 0.647,-0.504 0.649,-0.648 -3.744,0.504 -2.016,1.728 -1.152,2.304 -1.08,2.592 -0.721,2.736 -1.008,4.608 -1.152,4.536 -1.512,4.464 -1.8,3.888 h 2.664 l 0.504,-0.72 0.433,-1.008 0.504,-0.936 0.575,-0.864 1.368,-4.752 1.225,-4.752 1.152,-4.536 1.584,-4.464 -0.648,2.376 -0.577,2.664 -0.576,2.592 -0.576,2.736 -0.576,3.168 -1.008,3.024 -1.008,2.88 -1.296,2.448 h 2.161 l 2.16,-6.12 1.944,-6.12 2.088,-6.12 2.304,-6.048 0.288,-0.36 0.719,-0.216 0.648,-0.288 h 0.433 l 0.936,0.504 0.504,0.792 -0.072,1.008 -1.009,0.504 0.648,-1.08 -0.792,-0.936 -1.152,0.072 -0.72,0.792 -0.36,1.008 z" style="fill:#ffff83;fill-opacity:1;fill-rule:nonzero;stroke:none" id="path168"/>
  </g>
  <g id="g170" transform="matrix(1.3333330154418945, 0, 0, -1.3333330154418945, 2397.949334809702, 410.4771447039056)">
    <path d="m 0,0 -1.224,-0.576 -1.512,0.288 -0.36,0.504 -0.576,0.576 -0.288,1.944 1.08,1.512 2.088,0.648 2.16,-0.72 L 1.801,3.96 2.305,3.6 2.809,3.312 H 2.881 L 2.376,3.888 1.801,4.464 1.225,5.04 0.576,5.688 4.32,5.184 6.264,3.456 7.561,1.152 l 1.007,-2.52 0.72,-2.808 1.009,-4.608 1.079,-4.608 1.513,-4.392 1.871,-3.888 h -2.664 l -0.503,0.792 -0.433,0.864 -0.576,1.008 -0.504,0.864 -1.439,4.68 -1.08,4.824 -1.225,4.536 -1.584,4.464 0.576,-2.448 0.649,-2.592 0.575,-2.664 0.577,-2.664 0.575,-3.168 0.937,-3.024 1.08,-2.88 1.295,-2.448 -2.16,-0.072 -2.232,6.192 -1.944,6.12 -2.016,6.12 L 0.36,2.88 0,3.168 -0.575,3.456 -1.296,3.672 H -1.728 L -2.664,3.312 -3.168,2.376 -3.096,1.44 -2.159,0.936 -2.736,2.016 -1.944,2.952 -0.792,2.88 -0.072,2.088 0.288,1.08 Z" style="fill:#ffff83;fill-opacity:1;fill-rule:nonzero;stroke:none" id="path172"/>
  </g>
  <g id="g174" transform="matrix(1.3333330154418945, 0, 0, -1.3333330154418945, 2496.06129058465, 402.41285626199897)">
    <path d="M 0,0 4.32,3.168 V 72.72 H 3.024 L 3.168,3.456 0,1.584 -3.096,3.096 V 72.864 L -4.68,73.152 -4.607,2.16 Z" style="fill:#ffff83;fill-opacity:1;fill-rule:nonzero;stroke:none" id="path176"/>
  </g>
  <g id="g178" transform="matrix(1.3333330154418945, 0, 0, -1.3333330154418945, 2376.350381625962, 275.5971312888978)">
    <path d="m 0,0 -4.32,-2.88 -0.073,-69.912 h 1.225 L -3.024,-3.384 0,-1.44 3.096,-3.168 v -69.84 H 5.184 L 4.896,-2.88 Z" style="fill:#ffff83;fill-opacity:1;fill-rule:nonzero;stroke:none" id="path180"/>
  </g>
  <g id="g182" transform="matrix(1.3333330154418945, 0, 0, -1.3333330154418945, 2493.566499512788, 338.5730277326038)">
    <path d="M 0,0 0.071,24.84 H 0.575 L 0.719,0 Z" style="fill:#ffff83;fill-opacity:1;fill-rule:nonzero;stroke:none" id="path184"/>
  </g>
  <g id="g186" transform="matrix(1.3333330154418945, 0, 0, -1.3333330154418945, 2497.7904568390513, 338.5730277326038)">
    <path d="M 0,0 0.071,25.632 H 0.647 L 0.575,0 Z" style="fill:#ffff83;fill-opacity:1;fill-rule:nonzero;stroke:none" id="path188"/>
  </g>
  <g id="g190" transform="matrix(1.3333330154418945, 0, 0, -1.3333330154418945, 2493.566499512788, 338.5730277326038)">
    <path d="m 0,0 -0.072,-43.992 1.943,-1.296 1.872,1.296 0,43.992 H 3.168 L 3.023,-43.92 1.871,-44.712 0.791,-43.776 0.719,0 Z" style="fill:#ffff83;fill-opacity:1;fill-rule:nonzero;stroke:none" id="path192"/>
  </g>
  <g id="g194" transform="matrix(1.3333330154418945, 0, 0, -1.3333330154418945, 2373.6615801836892, 338.5730277326038)">
    <path d="m 0,0 0.072,43.272 1.945,1.44 1.943,-1.44 V 0 H 3.168 L 3.024,43.056 1.944,43.92 0.792,43.128 0.647,0 Z" style="fill:#ffff83;fill-opacity:1;fill-rule:nonzero;stroke:none" id="path196"/>
  </g>
  <path d="m 1767.562,1011.374 h 0.575 v 25.344 h -0.575 z" style="fill:#ffff83;fill-opacity:1;fill-rule:nonzero;stroke:none" id="path198" transform="matrix(1.3333330154418945, 0, 0, -1.3333330154418945, 17.00979830339236, 1720.8630627522327)"/>
  <g id="g200" transform="matrix(1.3333330154418945, 0, 0, -1.3333330154418945, 2377.8855375099524, 338.5730277326038)">
    <path d="M 0,0 V -25.632 L 0.648,-25.56 0.792,0 Z" style="fill:#ffff83;fill-opacity:1;fill-rule:nonzero;stroke:none" id="path202"/>
  </g>
  <g id="g204" transform="matrix(1.3333330154418945, 0, 0, -1.3333330154418945, 2370.4936121889914, 377.5494181794893)">
    <path d="M 0,0 0.072,-2.664 H 9.721 L 9.721,0 Z" style="fill:#ffffff;fill-opacity:1;fill-rule:nonzero;stroke:none" id="path206"/>
  </g>
  <g id="g208" transform="matrix(1.3333330154418945, 0, 0, -1.3333330154418945, 2385.949337670725, 359.6928143639197)">
    <path d="m 0,0 2.016,2.592 2.16,2.592 2.016,2.664 2.016,2.736 0.864,3.023 L 9.36,16.488 9.072,19.439 8.208,22.176 7.344,23.399 6.408,24.768 5.545,25.776 4.752,26.784 0.504,32.112 0.648,28.944 3.168,25.56 5.76,22.32 7.416,18.72 7.344,14.256 5.832,10.512 3.384,7.416 1.009,4.464 -0.144,0.792 V 0.288 Z" style="fill:#c2c2ff;fill-opacity:1;fill-rule:nonzero;stroke:none" id="path210"/>
  </g>
  <g id="g212" transform="matrix(1.3333330154418945, 0, 0, -1.3333330154418945, 2487.6133759321237, 359.3093509136779)">
    <path d="m 0,0 -0.432,2.52 -1.08,2.376 -1.511,2.088 -1.584,2.088 -1.441,2.232 -1.151,2.304 -0.289,2.376 0.504,2.952 1.728,3.6 2.448,2.88 2.304,2.952 1.08,3.672 L -1.439,29.952 -3.6,27.36 -5.76,24.624 -7.848,21.816 -8.855,18.864 -9.216,15.768 -8.783,12.816 -7.703,9.936 -5.904,7.344 -3.96,4.896 -2.016,2.376 -0.072,0 Z" style="fill:#c2c2ff;fill-opacity:1;fill-rule:nonzero;stroke:none" id="path214"/>
  </g>
  <g id="g216" transform="matrix(1.3333330154418945, 0, 0, -1.3333330154418945, 2446.238385796693, 338.5730277326038)">
    <path d="M 0,0 -6.841,8.568 -13.393,0 -6.769,-8.136 Z" style="fill:#ffc2c2;fill-opacity:1;fill-rule:nonzero;stroke:none" id="path218"/>
  </g>
  <g id="g220" transform="matrix(1.3333330154418945, 0, 0, -1.3333330154418945, 2437.3100025087197, 346.06130719725843)">
    <path d="M 0,0 4.752,6.048 -0.145,11.952 -4.969,6.048 Z" style="fill:#ffc2c2;fill-opacity:1;fill-rule:nonzero;stroke:none" id="path222"/>
  </g>
  <g id="g224" transform="matrix(1.3333330154418945, 0, 0, -1.3333330154418945, 2441.053491199535, 338.3816215282386)">
    <path d="m 0,0 -2.952,3.888 -2.592,-3.6 2.664,-3.672 z" style="fill:#ffffff;fill-opacity:1;fill-rule:nonzero;stroke:none" id="path226"/>
  </g>
  <g id="g228" transform="matrix(1.3333330154418945, 0, 0, -1.3333330154418945, 2507.6784753148972, 297.58085000590285)">
    <path d="m 0,0 0.071,3.096 -3.96,-4.969 0.288,-2.159 z" style="fill:#c2c2ff;fill-opacity:1;fill-rule:nonzero;stroke:none" id="path230"/>
  </g>
  <g id="g232" transform="matrix(1.3333330154418945, 0, 0, -1.3333330154418945, 2366.07694657534, 378.9888709612969)">
    <path d="M 0,0 -0.071,-3.096 2.664,0.36 v 2.592 z" style="fill:#c2c2ff;fill-opacity:1;fill-rule:nonzero;stroke:none" id="path234"/>
  </g>
  <g id="g236" transform="matrix(1.3333330154418945, 0, 0, -1.3333330154418945, 2501.7253517342333, 296.1413972240952)">
    <path d="M 0,0 V 2.664 H -9 V 0.144 Z" style="fill:#ffffff;fill-opacity:1;fill-rule:nonzero;stroke:none" id="path238"/>
  </g>
  <g id="g240" transform="matrix(1.3333330154418945, 0, 0, -1.3333330154418945, 2501.7253517342333, 304.8770722246809)">
    <path d="M 0,0 V 2.232 L -9,2.448 -9.144,0.432 Z" style="fill:#ffffff;fill-opacity:1;fill-rule:nonzero;stroke:none" id="path242"/>
  </g>
  <g id="g244" transform="matrix(1.3333330154418945, 0, 0, -1.3333330154418945, 2370.5899663326854, 381.77353826613034)">
    <path d="M 0,0 V -2.592 H 9.648 V 0.072 Z" style="fill:#ffffff;fill-opacity:1;fill-rule:nonzero;stroke:none" id="path246"/>
  </g>
  <g id="g248" transform="matrix(1.3333330154418945, 0, 0, -1.3333330154418945, 2427.0378695411205, 337.3249811551614)">
    <path d="m 0,0 0.576,1.008 -26.496,32.976 -2.736,1.512 z" style="fill:#ffff83;fill-opacity:1;fill-rule:nonzero;stroke:none" id="path250"/>
  </g>
  <g id="g252" transform="matrix(1.3333330154418945, 0, 0, -1.3333330154418945, 2447.0053126971766, 336.8451635612255)">
    <path d="m 0,0 7.633,9.144 2.735,3.6 2.88,3.6 3.024,3.6 2.88,3.384 2.88,3.6 2.737,3.6 2.519,3.672 2.376,3.888 -3.815,-4.536 -3.745,-4.464 -3.816,-4.68 L 14.544,19.584 10.801,14.832 7.056,10.008 3.24,5.184 -0.504,0.36 -0.432,0.144 -0.144,-0.072 Z" style="fill:#ffff83;fill-opacity:1;fill-rule:nonzero;stroke:none" id="path254"/>
  </g>
  <g id="g256" transform="matrix(1.3333330154418945, 0, 0, -1.3333330154418945, 2435.5821383373404, 327.0534992290741)">
    <path d="m 0,0 0.504,0.72 -16.128,20.52 -1.872,0.504 z" style="fill:#ffff83;fill-opacity:1;fill-rule:nonzero;stroke:none" id="path258"/>
  </g>
  <g id="g260" transform="matrix(1.3333330154418945, 0, 0, -1.3333330154418945, 2439.037866680097, 326.7650878395034)">
    <path d="m 0,0 30.168,37.584 -0.216,0.504 -0.576,0.288 H 29.088 L 28.872,38.232 26.208,34.992 -0.576,0.72 -0.216,-0.216 0,-0.072 Z" style="fill:#ffff83;fill-opacity:1;fill-rule:nonzero;stroke:none" id="path262"/>
  </g>
  <g id="g264" transform="matrix(1.3333330154418945, 0, 0, -1.3333330154418945, 2370.8777266807447, 301.51704698410686)">
    <path d="m 0,0 -0.145,2.304 -1.08,1.872 -1.583,1.8 -1.368,1.872 -0.216,-1.728 0.504,-1.8 1.008,-1.152 0.936,-1.152 0.864,-1.008 0.935,-1.08 z" style="fill:#c2c2ff;fill-opacity:1;fill-rule:nonzero;stroke:none" id="path266"/>
  </g>
  <g id="g268" transform="matrix(1.3333330154418945, 0, 0, -1.3333330154418945, 2463.229267162417, 292.493611635462)">
    <path d="m 0,0 v 0.288 0.216 l -3.456,-0.648 -3.672,-0.576 -3.672,-0.504 -3.672,-0.432 -3.816,-0.216 -3.527,-0.144 h -3.745 l -3.744,0.288 -3.815,0.289 -3.528,0.719 -3.672,0.792 -3.456,1.008 -3.529,1.368 -3.24,1.512 -3.096,1.8 -3.168,2.16 V 7.488 6.912 l 2.88,-2.016 3.024,-1.872 3.312,-1.44 3.456,-1.296 3.601,-1.008 3.671,-0.864 3.745,-0.647 3.888,-0.361 3.887,-0.216 h 3.96 l 3.672,0.072 3.744,0.361 3.672,0.359 3.672,0.577 3.385,0.647 z" style="fill:#ffff83;fill-opacity:1;fill-rule:nonzero;stroke:none" id="path270"/>
  </g>
  <g id="g272" transform="matrix(1.3333330154418945, 0, 0, -1.3333330154418945, 2447.2943751282583, 339.4376108598044)">
    <path d="m 0,0 -0.505,-1.008 26.353,-32.904 2.736,-1.512 z" style="fill:#ffff83;fill-opacity:1;fill-rule:nonzero;stroke:none" id="path274"/>
  </g>
  <g id="g276" transform="matrix(1.3333330154418945, 0, 0, -1.3333330154418945, 2427.134223684814, 339.82107431004624)">
    <path d="m 0,0 -7.417,-9.072 -2.879,-3.672 -2.88,-3.672 -2.953,-3.528 -2.879,-3.456 -2.881,-3.6 -2.736,-3.528 -2.592,-3.744 -2.304,-3.744 3.745,4.464 3.887,4.536 3.744,4.68 3.672,4.68 3.817,4.752 3.744,4.824 3.744,4.896 3.744,4.752 v 0.288 L 0.216,0.072 H 0.144 Z" style="fill:#ffff83;fill-opacity:1;fill-rule:nonzero;stroke:none" id="path278"/>
  </g>
  <g id="g280" transform="matrix(1.3333330154418945, 0, 0, -1.3333330154418945, 2438.750106332038, 349.6133896837091)">
    <path d="m 0,0 -0.576,-0.72 16.2,-20.52 1.8,-0.504 z" style="fill:#ffff83;fill-opacity:1;fill-rule:nonzero;stroke:none" id="path282"/>
  </g>
  <g id="g284" transform="matrix(1.3333330154418945, 0, 0, -1.3333330154418945, 2435.198023845588, 349.90115003176834)">
    <path d="m 0,0 -30.096,-37.656 0.215,-0.432 0.577,-0.288 h 0.215 l 0.36,0.072 2.593,3.24 L 0.72,-0.72 0.144,0.216 V 0.072 Z" style="fill:#ffff83;fill-opacity:1;fill-rule:nonzero;stroke:none" id="path286"/>
  </g>
  <g id="g288" transform="matrix(1.3333330154418945, 0, 0, -1.3333330154418945, 2502.0144141653145, 373.1327525658381)">
    <path d="m 0,0 0.071,-2.376 1.153,-1.944 1.511,-1.8 1.513,-1.8 0.215,1.8 -0.648,1.728 -0.936,1.152 -0.936,1.152 -0.863,1.08 -1.009,1.08 z" style="fill:#c2c2ff;fill-opacity:1;fill-rule:nonzero;stroke:none" id="path290"/>
  </g>
  <g id="g292" transform="matrix(1.3333330154418945, 0, 0, -1.3333330154418945, 2411.005321280245, 384.1732772773212)">
    <path d="m 0,0 v -0.288 -0.216 l 3.528,0.648 3.6,0.648 3.673,0.432 3.815,0.36 3.672,0.288 3.672,0.072 h 3.744 l 3.672,-0.216 3.744,-0.36 3.672,-0.576 3.601,-0.864 3.456,-1.08 3.383,-1.224 3.384,-1.656 3.168,-1.8 3.025,-2.088 0.143,0.504 -0.143,0.432 -2.737,2.016 -3.168,1.8 -3.312,1.584 -3.384,1.296 -3.6,1.08 L 36.937,1.584 33.12,2.16 29.232,2.52 25.345,2.808 H 21.456 L 17.784,2.664 13.968,2.376 10.296,1.944 6.769,1.44 3.313,0.792 Z" style="fill:#ffff83;fill-opacity:1;fill-rule:nonzero;stroke:none" id="path294"/>
  </g>
  <path d="m 1863.537,1074.518 h -8.928 v -2.664 h 8.928 z" style="fill:#ffffff;fill-opacity:1;fill-rule:nonzero;stroke:none" id="path296" transform="matrix(1.3333330154418945, 0, 0, -1.3333330154418945, 17.00979830339236, 1720.8630627522327)"/>
  <path d="m 1765.041,998.485 h 9.793 v 2.448 h -9.793 z" style="fill:#ffffff;fill-opacity:1;fill-rule:nonzero;stroke:none" id="path298" transform="matrix(1.3333330154418945, 0, 0, -1.3333330154418945, 17.00979830339236, 1720.8630627522327)"/>
  <g id="g300" transform="matrix(1.3333330154418945, 0, 0, -1.3333330154418945, 2492.8933225899527, 287.1173108339389)">
    <path d="M 0,0 0.072,16.56 0.433,16.128 0.576,0 H 1.729 V 15.768 L 4.32,15.048 V 0 H 5.4 V 14.616 L 5.904,14.4 6.12,0 h 1.513 l -0.145,33.048 -4.536,3.168 -4.248,-2.88 v -8.928 l -1.512,0.792 -1.511,0.936 -1.441,1.152 -1.296,1.224 -1.296,1.368 -1.152,1.368 -1.008,1.44 -0.792,1.512 0.432,-2.592 0.648,-2.448 0.864,-2.304 1.08,-2.232 1.297,-2.016 1.511,-1.872 1.657,-1.656 1.943,-1.44 0,-17.64 z" style="fill:#ffff83;fill-opacity:1;fill-rule:nonzero;stroke:none" id="path302"/>
  </g>
  <g id="g304" transform="matrix(1.3333330154418945, 0, 0, -1.3333330154418945, 2426.3659947013075, 278.7650992835952)">
    <path d="m 0,0 1.08,0.144 1.871,0.72 2.664,1.008 2.881,1.224 3.024,1.44 2.88,1.512 2.16,1.584 1.511,1.512 L 9,30.744 H -8.712 l 0.071,-4.104 0.937,-4.032 1.224,0.936 1.44,0.432 1.512,-0.072 1.368,-0.936 0.359,3.384 -5.04,0.936 -1.367,1.224 6.911,0.432 0.865,-2.88 -2.16,-9.864 2.016,-1.224 0.504,-2.376 -0.936,1.8 -2.736,1.44 1.296,5.544 -1.224,-0.504 -1.368,-0.144 -1.296,0.144 -1.225,0.216 v -4.248 l 0.937,-4.032 0.72,0.288 0.432,-0.072 0.36,-0.288 0.288,-0.864 -0.648,0.216 -0.577,0.072 v -0.36 l -0.215,-0.432 0.432,-0.288 0.504,-0.288 3.96,1.872 0.576,-1.368 -4.32,-1.296 -1.152,0.36 0.432,-2.232 0.792,-2.52 1.08,-2.52 1.224,-2.088 0.576,-0.432 0.576,-0.216 0.792,-0.216 z" style="fill:#ffffff;fill-opacity:1;fill-rule:nonzero;stroke:none" id="path306"/>
  </g>
  <g id="g308" transform="matrix(1.3333330154418945, 0, 0, -1.3333330154418945, 2470.5248383396834, 275.2130167971445)">
    <path d="M 0,0 0.072,0.072 -2.447,2.376 -4.464,5.472 -5.976,9 l -1.08,3.816 -1.007,4.032 -1.081,3.96 -1.08,3.672 -1.511,3.456 -2.449,-0.072 1.584,-4.392 1.584,-4.752 1.512,-4.968 1.152,-4.824 1.008,-2.592 1.153,-2.376 1.511,-2.016 1.872,-1.296 0.72,-0.216 0.793,-0.144 0.72,-0.072 z" style="fill:#ffff83;fill-opacity:1;fill-rule:nonzero;stroke:none" id="path310"/>
  </g>
  <g id="g312" transform="matrix(1.3333330154418945, 0, 0, -1.3333330154418945, 2443.7409905587847, 274.06132436339607)">
    <path d="M 0,0 9.576,0.936 9.648,1.08 V 1.44 L 6.408,4.392 -0.144,0.144 h 0.073 z" style="fill:#ffffff;fill-opacity:1;fill-rule:nonzero;stroke:none" id="path314"/>
  </g>
  <g id="g316" transform="matrix(1.3333330154418945, 0, 0, -1.3333330154418945, 2413.3100082307647, 273.58085572794874)">
    <path d="M 0,0 1.008,0.144 1.8,0.576 2.376,1.152 2.735,1.872 3.024,2.664 2.159,6.624 1.368,10.584 0.863,14.472 1.008,18.36 0.144,22.248 -0.288,25.776 -0.792,19.8 0.072,13.68 0.792,7.776 -0.792,2.52 -1.512,2.376 -2.089,2.304 -2.736,2.376 -3.313,2.52 -3.673,3.023 -3.888,3.815 -3.673,4.32 -3.096,4.68 -2.808,4.248 -3.096,3.528 -3.024,3.24 -2.808,3.023 h 0.432 L -2.017,2.952 -1.8,3.096 -1.584,3.24 -1.44,4.32 -1.8,5.04 -2.521,5.472 -4.177,5.04 -4.32,4.896 -4.608,4.68 -4.68,2.808 -3.888,1.224 -2.88,0.936 -1.584,0.864 -0.433,1.152 0.432,1.656 0.863,2.16 1.368,2.52 1.655,2.376 1.584,2.16 1.368,1.44 0.936,0.864 0.36,0.36 -0.216,0 h 0.071 z" style="fill:#ffff83;fill-opacity:1;fill-rule:nonzero;stroke:none" id="path318"/>
  </g>
  <g id="g320" transform="matrix(1.3333330154418945, 0, 0, -1.3333330154418945, 2462.557392322604, 273.3894495235836)">
    <path d="M 0,0 H 0.216 0.36 l -1.944,2.664 -1.368,3.168 -1.079,3.384 -0.792,3.672 -0.865,3.672 -0.864,3.6 -1.224,3.384 -1.656,3.024 h -2.807 l 2.088,-4.68 1.943,-5.328 1.512,-5.544 1.584,-5.328 0.504,-0.792 0.432,-0.72 0.433,-0.648 0.359,-0.72 z" style="fill:#ffff83;fill-opacity:1;fill-rule:nonzero;stroke:none" id="path322"/>
  </g>
  <g id="g324" transform="matrix(1.3333330154418945, 0, 0, -1.3333330154418945, 2423.48578705467, 270.4128877332514)">
    <path d="M 0,0 5.04,0.432 0,0.647 Z" style="fill:#000000;fill-opacity:1;fill-rule:nonzero;stroke:none" id="path326"/>
  </g>
  <g id="g328" transform="matrix(1.3333330154418945, 0, 0, -1.3333330154418945, 2456.221456333209, 269.6453097912563)">
    <path d="m 0,0 -2.088,4.536 -1.368,5.184 -1.224,5.328 -1.727,4.896 -0.649,1.08 -0.648,1.08 -0.72,0.864 -0.792,0.936 -1.943,-0.216 0.647,-3.24 1.296,-3.384 1.225,-3.672 L -6.695,9.864 -5.399,6.84 -3.96,4.032 -2.088,1.8 Z" style="fill:#ffff83;fill-opacity:1;fill-rule:nonzero;stroke:none" id="path330"/>
  </g>
  <g id="g332" transform="matrix(1.3333330154418945, 0, 0, -1.3333330154418945, 2433.0860451824565, 268.6850235618731)">
    <path d="M 0,0 -1.152,2.16 -1.584,1.656 -3.673,2.016 -4.824,1.512 -5.76,2.016 -8.353,1.944 -8.28,0.432 -7.776,1.224 -1.08,1.008 Z" style="fill:#000000;fill-opacity:1;fill-rule:nonzero;stroke:none" id="path334"/>
  </g>
  <g id="g336" transform="matrix(1.3333330154418945, 0, 0, -1.3333330154418945, 2435.005315558199, 265.4213524649931)">
    <path d="M 0,0 H 0.792 1.584 L 2.232,0.144 2.88,0.504 3.168,1.08 3.24,1.872 2.809,2.448 2.017,2.664 H 1.729 L 1.584,2.592 2.017,2.448 2.521,2.232 2.736,2.088 2.88,1.584 2.809,1.152 2.521,0.72 1.944,0.288 H 1.296 L 0.505,0.36 -0.216,0.72 -1.439,1.296 -2.592,1.872 -3.6,2.304 -4.896,2.376 -4.968,2.088 -4.896,1.656 Z" style="fill:#000000;fill-opacity:1;fill-rule:nonzero;stroke:none" id="path338"/>
  </g>
  <g id="g340" transform="matrix(1.3333330154418945, 0, 0, -1.3333330154418945, 2500.2852479109133, 265.1329410754224)">
    <path d="m 0,0 0.072,4.248 -2.376,0.72 -2.16,0.648 -1.8,0.576 -1.799,0.936 -1.657,0.864 -1.584,1.224 -1.584,1.44 -1.584,2.016 0.792,-2.16 0.937,-2.016 1.367,-2.017 1.584,-1.871 1.944,-1.584 2.16,-1.368 2.665,-1.08 z" style="fill:#ffc2c2;fill-opacity:1;fill-rule:nonzero;stroke:none" id="path342"/>
  </g>
  <g id="g344" transform="matrix(1.3333330154418945, 0, 0, -1.3333330154418945, 2429.053494060558, 258.70130198384504)">
    <path d="M 0,0 H 1.656 L 1.944,0.144 2.232,0.504 2.16,1.008 1.728,1.512 1.872,1.008 V 0.504 L 1.656,0.36 1.08,0.144 -1.439,1.368 H -2.52 L -2.808,1.152 -2.52,0.72 Z" style="fill:#000000;fill-opacity:1;fill-rule:nonzero;stroke:none" id="path346"/>
  </g>
  <g id="g348" transform="matrix(1.3333330154418945, 0, 0, -1.3333330154418945, 2498.8451440875942, 257.0691409146493)">
    <path d="M 0,0 V 7.704 L -1.296,9.072 -2.592,7.992 -2.663,0.864 Z" style="fill:#000000;fill-opacity:1;fill-rule:nonzero;stroke:none" id="path350"/>
  </g>
  <g id="g352" transform="matrix(1.3333330154418945, 0, 0, -1.3333330154418945, 2500.0938417065486, 257.74101575446184)">
    <path d="M 0,0 -0.072,9.36 -2.232,11.376 -4.752,9.432 -4.824,1.8 -5.328,2.088 v 7.488 l 3.096,2.52 2.879,-2.592 v -9.72 z" style="fill:#000000;fill-opacity:1;fill-rule:nonzero;stroke:none" id="path354"/>
  </g>
  <g id="g356" transform="matrix(1.3333330154418945, 0, 0, -1.3333330154418945, 2437.3100025087197, 249.3894552456295)">
    <path d="m 0,0 -0.864,1.44 -1.872,0.576 -2.16,-0.36 -1.728,-1.584 1.8,-1.008 2.088,-0.216 1.799,0.36 z" style="fill:#000000;fill-opacity:1;fill-rule:nonzero;stroke:none" id="path358"/>
  </g>
  <g id="g360" transform="matrix(1.3333330154418945, 0, 0, -1.3333330154418945, 2440.2852622160285, 243.34127960429396)">
    <path d="M 0,0 -0.287,0.504 -0.72,0.864 -1.296,1.296 -1.943,1.584 -8.64,2.088 -6.768,0.864 -4.392,0.576 h 2.161 L 0,-0.144 v 0.072 z" style="fill:#000000;fill-opacity:1;fill-rule:nonzero;stroke:none" id="path362"/>
  </g>
  <g id="g364" transform="matrix(1.3333330154418945, 0, 0, -1.3333330154418945, 2380.76574515659, 390.4128591230219)">
    <path d="M 0,0 -0.072,-16.632 -0.576,-16.2 V 0 H -1.8 v -15.84 l -2.664,0.72 V 0 H -5.472 V -14.688 L -6.048,-14.472 -6.265,0 h -1.367 l 0.071,-33.192 4.464,-3.168 4.393,3.168 0.072,8.712 1.512,-0.792 1.512,-0.936 1.368,-1.08 1.368,-1.296 1.296,-1.296 1.152,-1.369 1.008,-1.511 0.72,-1.44 -0.361,2.592 -0.719,2.376 -0.865,2.376 -1.006,2.232 -1.441,1.944 -1.368,1.872 -1.8,1.656 -1.872,1.512 V 0 Z" style="fill:#ffff83;fill-opacity:1;fill-rule:nonzero;stroke:none" id="path366"/>
  </g>
  <g id="g368" transform="matrix(1.3333330154418945, 0, 0, -1.3333330154418945, 2447.2943751282583, 398.66936757118316)">
    <path d="m 0,0 -1.081,-0.288 -1.943,-0.72 -2.737,-1.008 -2.807,-1.152 -3.097,-1.512 -2.735,-1.512 -2.304,-1.584 -1.368,-1.44 8.927,-21.528 17.857,-0.072 0.216,1.872 -0.145,1.944 -0.504,2.16 -0.575,2.16 -1.009,-0.864 -1.655,-0.36 -1.728,0.36 -1.153,0.792 -0.287,-3.672 5.039,-0.936 1.368,-1.224 -6.983,-0.36 -0.793,2.88 2.017,9.792 -1.873,1.224 -0.576,2.304 1.008,-1.872 2.664,-1.368 -1.512,-5.472 1.008,0.72 1.368,0.36 1.513,-0.216 1.367,-0.648 0.217,3.96 -1.08,4.32 -0.648,-0.216 -0.433,0.072 -0.432,0.216 -0.215,0.792 0.503,-0.072 0.721,-0.072 v 0.36 0.432 l -0.217,0.432 -0.576,0.072 -3.888,-1.872 -0.647,1.44 4.319,1.368 1.009,-0.576 -0.217,2.376 -0.792,2.448 -1.08,2.592 -1.296,2.088 -0.504,0.432 -0.792,0.216 -0.647,0.216 z" style="fill:#ffffff;fill-opacity:1;fill-rule:nonzero;stroke:none" id="path370"/>
  </g>
  <g id="g372" transform="matrix(1.3333330154418945, 0, 0, -1.3333330154418945, 2403.1342294068604, 402.2215314378227)">
    <path d="m 0,0 -0.145,-0.144 h -0.072 l 2.592,-2.376 1.944,-3.024 1.584,-3.528 1.224,-3.816 1.009,-3.96 0.935,-4.032 1.225,-3.744 1.512,-3.456 2.376,0.216 -1.512,4.32 -1.656,4.68 -1.512,4.968 -1.08,4.824 -1.08,2.664 -1.153,2.376 -1.439,1.944 -1.872,1.368 -0.937,0.216 -0.576,0.072 -0.791,0.216 z" style="fill:#ffff83;fill-opacity:1;fill-rule:nonzero;stroke:none" id="path374"/>
  </g>
  <g id="g376" transform="matrix(1.3333330154418945, 0, 0, -1.3333330154418945, 2429.918077187758, 403.46884559356477)">
    <path d="m 0,0 -9.576,-0.936 -0.216,-0.216 0.071,-0.288 3.313,-3.024 6.624,4.248 -0.144,0.144 z" style="fill:#ffffff;fill-opacity:1;fill-rule:nonzero;stroke:none" id="path378"/>
  </g>
  <g id="g380" transform="matrix(1.3333330154418945, 0, 0, -1.3333330154418945, 2460.350361598801, 403.85296008531805)">
    <path d="m 0,0 -1.08,-0.288 -0.793,-0.432 -0.575,-0.576 -0.433,-0.72 -0.216,-0.72 0.792,-3.96 0.936,-4.032 0.432,-3.816 -0.143,-3.96 0.863,-3.816 0.504,-3.528 0.576,6.048 -0.935,6.048 -0.649,5.904 1.584,5.184 0.649,0.216 0.576,0.072 0.647,-0.072 0.649,-0.216 0.36,-0.504 0.215,-0.792 -0.215,-0.432 -0.648,-0.36 -0.288,0.432 0.288,0.792 v 0.144 L 2.808,-3.168 2.375,-3.096 H 2.016 L 1.8,-3.168 1.655,-3.384 1.439,-4.464 1.8,-5.04 l 0.792,-0.504 1.656,0.36 0.215,0.216 0.072,0.216 0.216,1.872 -0.792,1.512 -1.008,0.36 H 1.583 L 0.359,-1.152 -0.504,-1.8 l -0.433,-0.504 -0.576,-0.36 -0.216,0.216 v 0.144 l 0.216,0.648 0.504,0.648 0.576,0.504 L 0.215,0 H 0.071 Z" style="fill:#ffff83;fill-opacity:1;fill-rule:nonzero;stroke:none" id="path382"/>
  </g>
  <g id="g384" transform="matrix(1.3333330154418945, 0, 0, -1.3333330154418945, 2411.005321280245, 404.2370745770713)">
    <path d="M 0,0 H -0.216 -0.36 l 1.944,-2.592 1.513,-3.168 1.007,-3.384 0.792,-3.672 0.864,-3.672 0.936,-3.6 1.153,-3.384 1.656,-3.096 h 2.808 l -2.089,4.752 -1.799,5.328 -1.656,5.544 -1.584,5.4 -0.505,0.648 -0.432,0.72 -0.36,0.72 -0.36,0.648 z" style="fill:#ffff83;fill-opacity:1;fill-rule:nonzero;stroke:none" id="path386"/>
  </g>
  <g id="g388" transform="matrix(1.3333330154418945, 0, 0, -1.3333330154418945, 2450.269634835568, 407.0216605017158)">
    <path d="m 0,0 -5.256,-0.576 5.184,-0.216 z" style="fill:#000000;fill-opacity:1;fill-rule:nonzero;stroke:none" id="path390"/>
  </g>
  <g id="g392" transform="matrix(1.3333330154418945, 0, 0, -1.3333330154418945, 2417.3425593526626, 407.8848601657046)">
    <path d="M 0,0 2.231,-4.536 3.6,-9.72 l 1.223,-5.4 1.728,-4.968 0.576,-0.936 0.721,-1.008 0.719,-1.009 0.72,-0.791 2.016,0.216 -0.648,3.096 -1.223,3.528 -1.369,3.6 -1.224,3.528 -1.296,2.952 -1.512,2.808 -1.8,2.376 z" style="fill:#ffff83;fill-opacity:1;fill-rule:nonzero;stroke:none" id="path394"/>
  </g>
  <g id="g396" transform="matrix(1.3333330154418945, 0, 0, -1.3333330154418945, 2440.669376707782, 408.74952467309413)">
    <path d="M 0,0 1.152,-2.16 1.584,-1.8 3.673,-2.16 4.752,-1.656 5.616,-2.16 8.353,-1.944 8.208,-0.504 7.704,-1.368 1.009,-1.08 Z" style="fill:#000000;fill-opacity:1;fill-rule:nonzero;stroke:none" id="path398"/>
  </g>
  <g id="g400" transform="matrix(1.3333330154418945, 0, 0, -1.3333330154418945, 2438.653752188344, 412.01311438978513)">
    <path d="M 0,0 H -0.792 -1.44 l -0.864,-0.216 -0.648,-0.36 -0.216,-0.648 -0.072,-0.72 0.432,-0.648 0.72,-0.216 0.216,0.072 0.288,0.072 -0.576,0.072 -0.504,0.288 -0.144,0.216 -0.144,0.36 v 0.504 l 0.288,0.432 0.576,0.36 h 0.864 l 0.72,-0.144 0.792,-0.216 1.224,-0.648 1.08,-0.648 1.08,-0.288 1.368,-0.144 v 0.288 0.432 z" style="fill:#000000;fill-opacity:1;fill-rule:nonzero;stroke:none" id="path402"/>
  </g>
  <g id="g404" transform="matrix(1.3333330154418945, 0, 0, -1.3333330154418945, 2373.2774656919355, 412.3008747378444)">
    <path d="m 0,0 -0.071,-4.392 2.376,-0.72 2.159,-0.576 1.944,-0.648 1.729,-0.864 1.655,-0.936 1.656,-1.152 1.512,-1.512 1.656,-2.016 -0.792,2.087 -1.008,2.089 -1.296,2.016 -1.656,1.872 -1.872,1.656 -2.304,1.44 -2.591,1.08 z" style="fill:#ffc2c2;fill-opacity:1;fill-rule:nonzero;stroke:none" id="path406"/>
  </g>
  <g id="g408" transform="matrix(1.3333330154418945, 0, 0, -1.3333330154418945, 2444.6055736859857, 418.7330021105554)">
    <path d="m 0,0 h -1.8 l -0.216,-0.288 -0.288,-0.36 0.144,-0.576 0.36,-0.36 v 0.36 L -1.872,-0.648 -1.656,-0.36 -1.151,0 1.368,-1.512 H 2.52 l 0.289,0.288 -0.289,0.36 z" style="fill:#000000;fill-opacity:1;fill-rule:nonzero;stroke:none" id="path410"/>
  </g>
  <g id="g412" transform="matrix(1.3333330154418945, 0, 0, -1.3333330154418945, 2374.8139236589486, 420.3654073203179)">
    <path d="m 0,0 v -7.848 l 1.367,-1.44 1.297,1.224 v 7.2 z" style="fill:#000000;fill-opacity:1;fill-rule:nonzero;stroke:none" id="path414"/>
  </g>
  <g id="g416" transform="matrix(1.3333330154418945, 0, 0, -1.3333330154418945, 2373.470173979324, 419.59709695662247)">
    <path d="m 0,0 0.144,-9.576 2.231,-2.016 2.521,2.016 v 7.704 L 5.472,-2.16 v -7.56 l -3.097,-2.52 -2.951,2.52 v 9.936 z" style="fill:#000000;fill-opacity:1;fill-rule:nonzero;stroke:none" id="path418"/>
  </g>
  <g id="g420" transform="matrix(1.3333330154418945, 0, 0, -1.3333330154418945, 2436.1576590334594, 428.14136575284283)">
    <path d="m 0,0 1.008,-1.008 1.944,-0.576 2.233,0.288 1.727,1.8 L 5.328,1.44 3.384,1.872 1.368,1.368 Z" style="fill:#000000;fill-opacity:1;fill-rule:nonzero;stroke:none" id="path422"/>
  </g>
  <g id="g424" transform="matrix(1.3333330154418945, 0, 0, -1.3333330154418945, 2433.3738055305153, 434.0932686306733)">
    <path d="m 0,0 0.359,-0.504 0.433,-0.504 0.504,-0.36 0.576,-0.36 6.84,-0.504 L 6.84,-0.864 4.464,-0.648 2.16,-0.576 0,0.144 V 0.072 Z" style="fill:#000000;fill-opacity:1;fill-rule:nonzero;stroke:none" id="path426"/>
  </g>
  <g id="g428" transform="matrix(1.3333330154418945, 0, 0, -1.3333330154418945, 2405.0534997826035, 249.48515834781207)">
    <path d="m 0,0 -1.728,1.944 -1.656,1.872 -1.584,2.088 -1.512,2.088 -1.44,2.016 -1.368,2.016 -1.296,2.088 -1.224,2.088 -1.152,-1.872 -1.296,-2.088 -1.439,-2.088 L -17.064,8.064 -18.648,6.048 -20.232,3.96 -21.96,1.944 -23.832,0 l 1.656,-1.872 1.584,-1.944 1.512,-1.872 1.584,-2.088 1.44,-2.016 1.368,-2.088 1.512,-2.304 1.368,-2.232 1.296,2.016 1.296,2.16 1.44,2.088 1.44,2.088 1.512,2.088 1.584,2.16 1.656,1.872 z" style="fill:#ff0000;fill-opacity:1;fill-rule:nonzero;stroke:none" id="path430"/>
  </g>
  <g id="g432" transform="matrix(1.3333330154418945, 0, 0, -1.3333330154418945, 2498.36597753517, 427.85295436327215)">
    <path d="m 0,0 -1.729,1.872 -1.584,2.016 -1.583,1.944 -1.512,2.088 -1.512,2.088 -1.368,2.016 -1.224,2.088 -1.224,2.016 -1.224,-1.944 -1.297,-2.016 -1.296,-2.016 L -16.992,8.064 -18.576,5.976 -20.232,4.032 -21.96,1.944 -23.761,0 l 1.585,-1.944 1.584,-1.872 1.512,-1.944 1.584,-2.088 1.439,-2.016 1.441,-2.088 1.368,-2.232 1.512,-2.232 1.296,2.016 1.223,2.088 1.441,2.088 1.44,2.16 1.512,2.088 1.584,2.016 1.656,1.944 z" style="fill:#ff0000;fill-opacity:1;fill-rule:nonzero;stroke:none" id="path434"/>
  </g>
  <g id="g436" transform="matrix(1.3333330154418945, 0, 0, -1.3333330154418945, 2458.0456746482814, 231.3412824653169)">
    <path d="M 0,0 1.225,-0.072 2.304,0 3.312,0.288 4.104,0.72 4.824,1.512 5.473,2.592 5.904,3.888 6.191,5.04 H 4.104 L 2.952,2.808 2.448,2.304 1.8,2.232 1.152,2.304 0.504,2.592 -0.576,3.024 -1.512,3.816 -2.376,4.608 -3.313,5.184 -4.68,5.4 -5.832,5.328 -6.984,4.968 -8.28,4.536 -9.359,4.104 -10.584,3.816 -11.88,3.6 l -1.368,0.072 -1.584,0.72 -1.296,0.648 -1.513,0.504 -1.727,-0.216 -1.728,0.216 -1.8,-0.144 -1.656,-0.36 -1.8,-0.432 -1.584,-0.36 -1.656,-0.216 -1.801,0.216 -1.798,0.648 -1.872,0.504 -1.945,0.144 -1.944,-0.072 -1.944,0.072 1.008,-0.144 1.079,-0.216 1.297,-0.288 1.296,-0.432 1.224,-0.432 1.296,-0.432 1.296,-0.576 1.224,-0.432 1.584,-0.144 1.512,0.144 1.439,0.36 1.584,0.432 1.585,0.648 1.584,0.216 h 1.8 l 1.584,-0.432 1.224,-0.864 1.44,-0.72 1.296,-0.72 1.296,-0.648 h 1.368 l 1.08,0.216 1.224,0.432 1.008,0.36 1.152,0.504 1.08,0.288 h 1.224 l 1.296,-0.36 1.08,-0.576 0.793,-0.648 0.863,-0.576 z" style="fill:#ffc2c2;fill-opacity:1;fill-rule:nonzero;stroke:none" id="path438"/>
  </g>
  <g id="g440" transform="matrix(1.3333330154418945, 0, 0, -1.3333330154418945, 2413.0222478827054, 445.90112714358474)">
    <path d="M 0,0 -1.296,0.144 -2.377,0 -3.385,-0.216 -4.176,-0.792 -4.969,-1.512 -5.545,-2.664 -5.977,-3.888 -6.265,-5.112 h 2.089 l 1.079,2.376 0.576,0.36 0.648,0.144 0.648,-0.144 0.649,-0.216 1.152,-0.432 1.008,-0.792 0.863,-0.864 0.865,-0.576 1.368,-0.144 1.223,0.072 1.224,0.288 1.08,0.432 1.225,0.432 1.152,0.36 1.296,0.144 h 1.367 l 1.585,-0.792 1.439,-0.576 1.512,-0.504 1.584,0.216 1.873,-0.216 1.656,0.144 1.727,0.36 1.729,0.36 1.584,0.432 1.799,0.144 1.657,-0.144 1.799,-0.648 1.872,-0.504 2.016,-0.144 h 1.872 2.017 l -1.009,0.144 -1.079,0.144 -1.296,0.36 -1.296,0.36 -1.296,0.432 -1.369,0.432 -1.224,0.576 -1.152,0.504 -1.584,0.072 -1.584,-0.144 -1.512,-0.288 -1.511,-0.504 -1.584,-0.576 -1.584,-0.216 H 20.16 l -1.656,0.432 -0.937,0.864 -1.511,0.72 -1.513,0.648 -1.296,0.648 -1.296,0.072 L 10.728,-1.08 9.72,-1.512 8.64,-1.944 7.416,-2.376 6.264,-2.736 h -1.08 l -1.225,0.36 -1.151,0.648 -0.865,0.648 -0.935,0.576 z" style="fill:#ffc2c2;fill-opacity:1;fill-rule:nonzero;stroke:none" id="path442"/>
  </g>
  <g id="g444" transform="matrix(1.3333330154418945, 0, 0, -1.3333330154418945, 2435.5821383373404, 247.85299727861636)">
    <path d="m 0,0 1.008,-1.008 -1.296,-0.72 z" style="fill:#ffffff;fill-opacity:1;fill-rule:nonzero;stroke:none" id="path446"/>
  </g>
  <g id="g448" transform="matrix(1.3333330154418945, 0, 0, -1.3333330154418945, 2422.2383915187393, 247.85299727861636)">
    <path d="M 0,0 0.936,-0.936 -0.145,-1.584 Z" style="fill:#ffffff;fill-opacity:1;fill-rule:nonzero;stroke:none" id="path450"/>
  </g>
  <g id="g452" transform="matrix(1.3333330154418945, 0, 0, -1.3333330154418945, 2430.685004088242, 247.85299727861636)">
    <path d="m 0,0 -0.936,-1.008 1.153,-0.72 z" style="fill:#ffffff;fill-opacity:1;fill-rule:nonzero;stroke:none" id="path454"/>
  </g>
  <g id="g456" transform="matrix(1.3333330154418945, 0, 0, -1.3333330154418945, 2417.725371761393, 247.85299727861636)">
    <path d="M 0,0 -1.152,-1.368 0.432,-1.944 Z" style="fill:#ffffff;fill-opacity:1;fill-rule:nonzero;stroke:none" id="path458"/>
  </g>
  <g id="g460" transform="matrix(1.3333330154418945, 0, 0, -1.3333330154418945, 2438.269637696591, 429.1973550844086)">
    <path d="M 0,0 -1.152,0.792 0,1.656 Z" style="fill:#ffffff;fill-opacity:1;fill-rule:nonzero;stroke:none" id="path462"/>
  </g>
  <g id="g464" transform="matrix(1.3333330154418945, 0, 0, -1.3333330154418945, 2451.2292700234398, 429.3892495699074)">
    <path d="M 0,0 -0.936,1.008 0.36,2.016 Z" style="fill:#ffffff;fill-opacity:1;fill-rule:nonzero;stroke:none" id="path466"/>
  </g>
  <g id="g468" transform="matrix(1.3333330154418945, 0, 0, -1.3333330154418945, 2443.2618240063603, 428.90894369483794)">
    <path d="m 0,0 1.008,0.936 -1.296,0.72 z" style="fill:#ffffff;fill-opacity:1;fill-rule:nonzero;stroke:none" id="path470"/>
  </g>
  <g id="g472" transform="matrix(1.3333330154418945, 0, 0, -1.3333330154418945, 2456.4128625375743, 429.4851154324679)">
    <path d="M 0,0 0.793,1.08 -0.504,2.088 Z" style="fill:#ffffff;fill-opacity:1;fill-rule:nonzero;stroke:none" id="path474"/>
  </g>
  <g id="g476" transform="matrix(1.3333330154418945, 0, 0, -1.3333330154418945, 2370.4936121889914, 373.9974984534165)">
    <path d="M 0,0 9.647,-0.072 V -2.088 L 0,-2.232 Z" style="fill:#ffffff;fill-opacity:1;fill-rule:nonzero;stroke:none" id="path478"/>
  </g>
  <g id="g480" transform="matrix(1.3333330154418945, 0, 0, -1.3333330154418945, 2501.821705877927, 301.037229390171)">
    <path d="m 0,0 -0.072,2.88 -9,0.144 v -2.88 z" style="fill:#ffffff;fill-opacity:1;fill-rule:nonzero;stroke:none" id="path482"/>
  </g>
</svg>