<?xml version="1.0" encoding="utf-8"?>
<svg viewBox="2332.0938 876.1732 208.128 294.9133" xmlns="http://www.w3.org/2000/svg">
  <g id="g3160" transform="matrix(1.3333330154418945, 0, 0, -1.3333330154418945, 2340.157681921643, 876.1731599753803)">
    <path d="m 0,0 h 144.145 l 2.231,-0.576 2.017,-1.871 1.223,-2.664 0.432,-3.385 v -204.192 l -0.432,-3.312 -1.223,-2.736 -2.017,-1.8 -2.231,-0.649 H 0 l -2.376,0.649 -1.872,1.8 -1.296,2.736 -0.504,3.312 V -8.496 l 0.504,3.385 1.296,2.664 1.872,1.871 z" style="fill:#000000;fill-opacity:1;fill-rule:nonzero;stroke:none" id="path3162"/>
  </g>
  <g id="g3164" transform="matrix(1.3333330154418945, 0, 0, -1.3333330154418945, 2343.1342437119747, 880.6848776497027)">
    <path d="m 0,0 h 139.607 l 2.305,-0.72 1.871,-1.728 1.296,-2.592 0.433,-3.24 v -197.928 l -0.433,-3.097 -1.296,-2.663 -1.871,-1.656 -2.305,-0.721 H 0 l -2.232,0.721 -1.872,1.656 -1.152,2.663 -0.432,3.097 V -8.28 l 0.432,3.24 1.152,2.592 1.872,1.728 z" style="fill:#ffffff;fill-opacity:1;fill-rule:nonzero;stroke:none" id="path3166"/>
  </g>
  <g id="g3168" transform="matrix(1.3333330154418945, 0, 0, -1.3333330154418945, 2353.790491171327, 932.0455424876964)">
    <path d="m 0,0 v 0.793 l -0.217,1.295 -0.72,1.008 -1.152,0.72 -1.296,0.216 -1.223,-0.216 -1.009,-0.792 -0.648,-1.151 -0.36,-1.369 1.152,-3.455 2.376,-3.601 2.304,-3.6 1.152,-3.168 1.08,3.168 2.304,3.6 2.448,3.601 L 7.199,0.504 6.983,1.873 6.336,3.024 5.256,3.816 4.031,4.032 2.808,3.816 1.655,3.096 0.863,2.088 0.647,0.793 V 0 L 0.359,-0.216 Z" style="fill:#ff0000;fill-opacity:1;fill-rule:nonzero;stroke:none" id="path3170"/>
  </g>
  <g id="g3172" transform="matrix(1.3333330154418945, 0, 0, -1.3333330154418945, 2519.96493071891, 1116.8448962145449)">
    <path d="m 0,0 v -0.792 l -0.215,-1.296 -0.793,-1.08 -1.079,-0.721 -1.296,-0.215 -1.224,0.215 -1.008,0.792 -0.649,1.081 -0.288,1.44 1.08,3.384 2.376,3.528 2.305,3.527 1.08,3.241 L 1.369,9.863 3.816,6.336 6.192,2.808 7.201,-0.576 6.984,-2.016 6.265,-3.097 5.329,-3.889 4.104,-4.104 2.809,-3.889 1.656,-3.168 0.864,-2.088 0.576,-0.792 V 0 L 0.289,0.072 Z" style="fill:#ff0000;fill-opacity:1;fill-rule:nonzero;stroke:none" id="path3174"/>
  </g>
  <g id="g3176" transform="matrix(1.3333330154418945, 0, 0, -1.3333330154418945, 2365.3100196748564, 1137.0050476579893)">
    <path d="M 0,0 H 107.928 L 106.92,1.296 H 75.528 L 68.472,1.368 66.312,2.376 63.936,2.664 61.344,2.593 58.68,2.304 55.872,1.872 53.28,1.8 50.904,2.16 48.528,3.097 47.016,3.384 45.432,3.24 43.991,2.952 42.552,2.593 41.112,2.16 39.743,1.872 38.304,2.017 36.792,2.376 35.784,3.384 34.92,4.032 33.84,4.536 32.616,4.896 31.248,3.744 30.96,2.664 30.528,2.376 h -0.72 -0.577 l -0.576,-0.072 -0.216,1.728 0.792,1.656 1.008,1.008 1.009,0.432 1.079,0.433 1.08,0.071 1.225,-0.36 1.584,-0.936 1.512,-0.937 1.656,-0.647 1.728,0.144 1.584,0.648 1.584,0.721 1.583,0.359 1.584,-0.072 1.584,-0.791 1.368,-0.721 1.225,-0.792 1.224,-0.72 1.727,-0.36 1.945,0.216 1.872,0.36 1.872,0.72 1.872,0.576 1.944,0.216 1.728,-0.216 1.944,-0.936 1.872,-0.864 2.016,-0.864 1.944,-0.792 1.944,-0.216 -5.184,9.576 v 6.696 l 0.576,1.873 1.224,1.799 1.295,1.8 0.937,1.728 -0.36,1.944 -2.161,1.368 -0.575,1.079 0.144,0.433 0.216,0.359 -0.36,0.865 -0.504,0.72 v 0.432 l 0.215,0.504 -0.791,1.872 0.432,1.584 0.288,1.656 -0.288,1.512 -1.008,1.296 -0.432,0.217 -0.36,0.287 h -0.36 l -0.432,0.072 1.367,1.439 1.729,1.297 1.8,1.224 1.872,1.224 5.832,4.175 3.888,-3.168 L 84.456,46.513 84.024,45.792 83.376,45.216 82.8,44.64 81.792,44.063 79.848,43.2 l -1.872,-0.864 -1.512,-0.72 -1.008,-1.008 -0.864,-1.44 -0.288,-1.872 0.36,-1.8 0.36,-0.792 0.648,-0.864 0.792,1.368 0.935,0.792 1.08,0.792 1.584,1.008 1.009,0.72 0.791,0.648 0.792,0.72 1.009,0.576 0.648,1.152 0.576,1.296 0.36,1.44 v 1.512 l 1.079,-0.217 1.009,-0.863 0.935,-1.008 1.081,-0.936 7.559,8.784 -4.031,7.344 14.04,6.912 V 1.296 L 108,0 107.928,170.136 H 0 V 0 L 1.512,1.584 H 1.368 Z" style="fill:#000000;fill-opacity:1;fill-rule:nonzero;stroke:none" id="path3178"/>
  </g>
  <g id="g3180" transform="matrix(1.3333330154418945, 0, 0, -1.3333330154418945, 2375.0053298633143, 1133.837201733575)">
    <path d="M 0,0 -5.327,3.385 -6.12,55.225 V 53.063 -0.863 h 23.904 l 6.553,15.191 -2.017,4.752 -1.08,5.184 -0.648,5.328 -0.936,5.328 -0.647,-1.152 -0.937,-1.008 -1.151,-0.792 -1.297,-0.504 -1.584,0.217 -1.439,0.431 -1.153,0.72 -0.864,0.936 -0.936,2.736 0.289,2.592 0.359,0.793 0.433,0.647 0.503,0.576 0.36,0.504 -3.671,2.88 -1.513,-25.2 1.225,0.721 1.079,0.863 0.936,1.08 0.648,1.44 -0.359,2.592 -1.008,2.233 0.216,0.359 0.215,0.145 2.953,-1.441 2.519,-2.376 1.872,-2.88 1.08,-3.385 0.072,-3.743 L 16.992,11.305 15.408,8.352 13.104,6.048 10.44,4.176 8.208,3.601 H 8.064 L 7.921,3.96 8.929,5.4 9.648,6.984 9.937,8.855 9.505,10.729 8.856,11.88 7.992,12.816 7.056,13.536 6.12,14.04 5.544,3.672 Z" style="fill:#ffffff;fill-opacity:1;fill-rule:nonzero;stroke:none" id="path3182"/>
  </g>
  <g id="g3184" transform="matrix(1.3333330154418945, 0, 0, -1.3333330154418945, 2381.2449117090146, 1128.6522664463228)">
    <path d="M 0,0 0.433,10.151 0.937,20.231 1.584,30.527 2.161,40.68 1.801,41.615 1.297,42.047 1.08,41.976 0.864,41.759 -1.512,0.504 -4.607,-1.513 -8.136,0.504 -7.991,50.328 -9.504,51.407 -9.575,0 -4.823,-3.024 Z" style="fill:#ffffff;fill-opacity:1;fill-rule:nonzero;stroke:none" id="path3186"/>
  </g>
  <g id="g3188" transform="matrix(1.3333330154418945, 0, 0, -1.3333330154418945, 2381.2449117090146, 1128.6522664463228)">
    <path d="M 0,0 0.433,10.151 0.937,20.231 1.584,30.527 2.161,40.68 1.801,41.615 1.297,42.047 1.08,41.976 0.864,41.759 -1.512,0.504 -4.607,-1.513 -8.136,0.504 -7.991,50.328 -9.504,51.407 -9.575,0 -4.823,-3.024 Z" style="fill:#ffff83;fill-opacity:1;fill-rule:nonzero;stroke:none" id="path3190"/>
  </g>
  <g id="g3192" transform="matrix(1.3333330154418945, 0, 0, -1.3333330154418945, 2395.2618354504525, 1120.973882860326)">
    <path d="M 0,0 1.368,3.169 1.8,6.48 1.368,9.864 0.216,12.96 l -1.008,1.44 -1.296,1.296 -1.368,1.225 -1.44,0.792 0.792,-3.24 -0.648,-2.52 L -6.336,9.937 -8.855,8.425 -9.072,5.4 -7.56,4.465 l 1.224,-0.937 1.08,-1.296 0.504,-1.655 0.288,-1.584 -0.288,-1.513 -0.504,-1.368 -0.576,-1.079 1.872,0.792 1.872,1.512 1.296,1.656 z" style="fill:#ffffff;fill-opacity:1;fill-rule:nonzero;stroke:none" id="path3194"/>
  </g>
  <g id="g3196" transform="matrix(1.3333330154418945, 0, 0, -1.3333330154418945, 2395.2618354504525, 1120.973882860326)">
    <path d="M 0,0 1.368,3.169 1.8,6.48 1.368,9.864 0.216,12.96 l -1.008,1.44 -1.296,1.296 -1.368,1.225 -1.44,0.792 0.792,-3.24 -0.648,-2.52 L -6.336,9.937 -8.855,8.425 -9.072,5.4 -7.56,4.465 l 1.224,-0.937 1.08,-1.296 0.504,-1.655 0.288,-1.584 -0.288,-1.513 -0.504,-1.368 -0.576,-1.079 1.872,0.792 1.872,1.512 1.296,1.656 z" style="fill:#ffff83;fill-opacity:1;fill-rule:nonzero;stroke:none" id="path3198"/>
  </g>
  <g id="g3200" transform="matrix(1.3333330154418945, 0, 0, -1.3333330154418945, 2457.757914300222, 1122.316249076739)">
    <path d="m 0,0 0.071,2.735 0.145,2.664 0.359,2.376 1.08,2.232 0.793,1.153 0.864,1.223 0.576,1.152 0.072,1.441 -0.864,0.503 -0.792,0.577 -0.72,0.647 -0.36,1.008 0.144,0.721 L 1.224,19.08 0.288,19.584 0,19.943 l -0.504,-0.288 -1.08,3.168 0.216,0.433 0.359,-0.145 0.361,-0.431 0.144,-0.576 0.792,-0.865 0.287,0.073 0.217,0.215 -0.576,1.729 0.288,2.16 0.143,1.943 -1.151,1.584 -1.584,0.145 -1.728,-0.145 -1.584,-0.072 -1.656,-0.359 -1.584,-0.432 -1.728,-0.504 -1.584,-0.505 -1.584,-0.575 -1.512,-0.433 -1.297,-0.503 -1.295,-0.649 -1.008,-0.935 1.223,-2.088 1.08,-2.017 0.937,-2.304 0.864,-2.303 1.08,-3.888 1.152,-3.601 1.656,-3.383 2.231,-2.88 z" style="fill:#ffffff;fill-opacity:1;fill-rule:nonzero;stroke:none" id="path3202"/>
  </g>
  <g id="g3204" transform="matrix(1.3333330154418945, 0, 0, -1.3333330154418945, 2442.877709514607, 1120.204392483891)">
    <path d="M 0,0 H 0.288 0.72 l -0.936,2.088 -1.08,2.304 -1.008,2.376 -0.864,2.519 -1.224,3.096 -1.08,2.952 -1.511,2.809 -1.584,2.664 -1.801,2.376 -1.945,2.303 -2.303,1.872 -2.447,1.945 1.439,-2.017 1.439,-2.231 1.297,-2.449 1.224,-2.447 1.152,-2.449 0.936,-2.735 0.864,-2.808 0.649,-2.881 -0.217,-0.143 -0.287,-0.073 -1.297,3.312 -1.296,3.24 -1.296,3.313 -1.584,2.952 -1.656,2.88 -2.088,2.591 -2.376,2.376 -2.88,1.8 -0.648,0.145 -0.504,0.071 -0.577,0.288 -0.575,0.145 2.952,-2.305 2.304,-2.951 1.8,-3.24 1.512,-3.528 1.224,-3.744 1.224,-3.744 1.224,-3.672 1.44,-3.601 -0.072,-0.072 h -0.36 l -1.8,3.096 -1.512,3.6 -1.296,3.745 -1.296,3.816 -1.296,3.6 -1.728,3.383 -2.232,2.737 -2.807,2.088 -1.153,0.504 -1.224,0.36 -1.081,0.359 -1.151,0.217 0.864,-0.433 0.504,-0.864 -2.016,0.864 -2.159,0.144 3.671,-3.239 -0.216,-0.288 -0.216,-0.145 -2.448,2.017 -1.512,0.36 h -1.728 l -1.656,-0.36 -1.368,-0.937 -1.08,-2.304 v -2.808 l 0.719,-0.936 0.937,-0.719 1.008,-0.649 1.223,-0.431 h 0.649 l 0.647,0.288 0.505,0.215 0.648,0.289 0.792,0.792 0.36,1.08 0.288,1.295 -0.288,1.296 -0.288,0.721 -0.504,0.575 -0.576,0.361 -0.576,0.288 h -0.936 l -0.648,-0.288 -0.648,-0.217 -0.36,-0.648 -0.36,-1.584 0.576,-1.08 0.792,-0.288 h 0.792 l 0.431,0.72 0.361,1.009 0.505,-0.217 0.287,-0.432 -0.648,-1.152 -0.936,-0.863 -0.936,0.144 -0.721,0.287 -0.647,0.361 -0.647,0.647 -0.145,1.873 0.576,1.728 1.655,1.008 1.153,0.071 1.08,-0.215 1.008,-0.433 0.792,-0.864 2.16,-5.903 1.08,-6.697 1.296,-6.479 2.88,-5.329 3.816,-1.151 -2.808,4.751 -1.512,5.688 -1.224,5.833 -1.944,5.543 v 0.36 0.144 l 1.44,-1.655 0.865,-2.088 0.719,-2.376 0.575,-2.376 0.865,-3.888 1.008,-3.744 1.512,-3.385 2.088,-2.951 1.729,-0.36 7.342,-1.08 -0.143,0.36 -0.072,0.432 0.215,0.072 h 0.288 L -9.072,1.799 -7.776,1.295 -6.479,1.08 -5.185,0.936 -7.488,5.688 V 5.976 L -7.2,6.191 -6.192,4.896 -5.328,3.312 -4.464,1.728 -2.952,0.72 -2.16,0.647 -1.368,0.432 -0.792,0.215 Z" style="fill:#ffff83;fill-opacity:1;fill-rule:nonzero;stroke:none" id="path3206"/>
  </g>
  <g id="g3208" transform="matrix(1.3333330154418945, 0, 0, -1.3333330154418945, 2456.893331173022, 1120.0129455894316)">
    <path d="M 0,0 0.145,0.071 0,0.792 -0.36,1.296 -0.864,1.8 -1.512,2.088 -7.776,3.6 V 3.168 L -7.344,2.664 -6.84,2.16 -6.407,1.584 Z" style="fill:#000000;fill-opacity:1;fill-rule:nonzero;stroke:none" id="path3210"/>
  </g>
  <g id="g3212" transform="matrix(1.3333330154418945, 0, 0, -1.3333330154418945, 2422.6212039274687, 1115.693854822308)">
    <path d="m 0,0 h 0.072 v 0.145 l -1.584,3.24 -1.368,3.527 -1.224,3.744 -1.224,3.672 -1.295,3.528 -1.44,3.457 -1.873,2.88 -2.304,2.592 1.873,-2.592 1.584,-3.168 1.367,-3.457 1.225,-3.672 L -4.896,10.08 -3.527,6.409 -2.016,2.952 -0.144,0 Z" style="fill:#000000;fill-opacity:1;fill-rule:nonzero;stroke:none" id="path3214"/>
  </g>
  <g id="g3216" transform="matrix(1.3333330154418945, 0, 0, -1.3333330154418945, 2457.08603946041, 1115.0207999697561)">
    <path d="M 0,0 -0.792,1.296 V 3.528 L -2.232,3.888 -3.888,3.815 -5.616,3.528 -7.344,3.096 -6.984,2.735 -7.056,2.088 -6.552,1.512 -5.76,1.008 -2.232,0.216 -3.097,0.792 -2.881,1.008 h 0.217 L 0,-0.216 v 0.144 z" style="fill:#000000;fill-opacity:1;fill-rule:nonzero;stroke:none" id="path3218"/>
  </g>
  <g id="g3220" transform="matrix(1.3333330154418945, 0, 0, -1.3333330154418945, 2451.613384515193, 1113.6770502901309)">
    <path d="M 0,0 H 0.145 L -0.359,0.432 -1.08,0.72 -1.8,0.937 -2.447,1.296 -1.872,0.937 -1.367,0.576 -0.792,0.288 Z" style="fill:#ffffff;fill-opacity:1;fill-rule:nonzero;stroke:none" id="path3222"/>
  </g>
  <g id="g3224" transform="matrix(1.3333330154418945, 0, 0, -1.3333330154418945, 2452.188905211311, 1110.8931967871872)">
    <path d="M 0,0 -1.296,0.072 -1.584,-0.071 V -0.36 l 1.297,-0.432 z" style="fill:#ffffff;fill-opacity:1;fill-rule:nonzero;stroke:none" id="path3226"/>
  </g>
  <g id="g3228" transform="matrix(1.3333330154418945, 0, 0, -1.3333330154418945, 2456.4128625375743, 1103.1170349041897)">
    <path d="M 0,0 0.145,1.368 0.36,1.512 H 0.721 L 2.953,0.216 h 0.36 0.432 L 3.601,0.647 3.097,0.936 2.377,1.08 1.873,1.512 1.225,1.728 H 0.721 0.217 L -0.215,1.512 -0.287,1.224 -0.504,0.72 -0.071,-0.144 0,-0.072 Z" style="fill:#000000;fill-opacity:1;fill-rule:nonzero;stroke:none" id="path3230"/>
  </g>
  <g id="g3232" transform="matrix(1.3333330154418945, 0, 0, -1.3333330154418945, 2448.733176868555, 1099.3736275935626)">
    <path d="M 0,0 H 0.288 0.793 L 1.296,0.504 V 1.296 L 1.008,1.225 V 0.721 L 0.505,0.576 H 0 l -0.504,0.432 -0.216,0.865 0.144,0.359 0.36,0.289 0.504,0.215 H 1.08 L 2.16,2.377 3.24,1.8 4.393,1.225 5.688,0.576 7.057,0.145 7.416,0.36 7.344,0.721 6.265,1.296 5.185,1.8 4.104,2.232 2.952,2.881 1.801,3.24 0.648,3.313 -0.287,3.169 -1.079,2.736 V 2.664 L -1.224,1.873 -1.079,0.937 Z" style="fill:#000000;fill-opacity:1;fill-rule:nonzero;stroke:none" id="path3234"/>
  </g>
  <g id="g3236" transform="matrix(1.3333330154418945, 0, 0, -1.3333330154418945, 2431.4545351547717, 1088.2369521888577)">
    <path d="M 0,0 7.92,2.88 6.623,3.312 5.327,3.384 3.959,3.601 H 2.808 1.439 L 0,3.528 h -1.369 l -1.295,0.073 z" style="fill:#ffffff;fill-opacity:1;fill-rule:nonzero;stroke:none" id="path3238"/>
  </g>
  <g id="g3240" transform="matrix(1.3333330154418945, 0, 0, -1.3333330154418945, 2445.0860423214326, 1083.8214665879461)">
    <path d="M 0,0 5.112,1.08 3.815,1.512 2.52,1.729 1.151,2.017 0,2.377 -1.872,2.592 -3.601,2.809 -5.4,2.881 -6.984,2.952 h -1.728 -1.8 -1.801 -1.799 L -14.76,2.881 -15.48,2.809 -16.272,2.664 h -0.577 l 1.729,-1.296 h 1.727 1.8 1.729 l 1.728,-0.071 1.728,-0.145 1.8,-0.215 1.656,-0.361 1.8,-0.287 0.719,-0.217 z" style="fill:#ffff83;fill-opacity:1;fill-rule:nonzero;stroke:none" id="path3242"/>
  </g>
  <g id="g3244" transform="matrix(1.3333330154418945, 0, 0, -1.3333330154418945, 2485.213636920933, 1078.3489337130125)">
    <path d="M 0,0 0.72,1.008 1.368,2.16 -1.728,5.256 H -1.872 -2.16 Z" style="fill:#ffffff;fill-opacity:1;fill-rule:nonzero;stroke:none" id="path3246"/>
  </g>
  <g id="g3248" transform="matrix(1.3333330154418945, 0, 0, -1.3333330154418945, 2483.773533097614, 1078.253881652341)">
    <path d="m 0,0 -0.144,0.288 -0.36,0.433 V 1.08 l 0.36,0.217 -2.664,5.111 4.248,5.113 3.6,-1.8 V 9.576 9.288 L 2.736,10.009 2.592,9.793 2.304,9.576 2.592,9.145 2.664,8.641 2.592,8.497 2.304,8.353 1.872,8.497 1.513,8.641 1.152,8.353 0.792,7.776 4.752,4.681 5.328,5.185 5.761,5.904 2.664,8.353 2.808,8.641 H 3.097 L 6.336,6.553 6.769,6.841 7.2,7.561 5.256,8.856 V 9.145 9.36 h 0.72 L 6.552,9.217 3.6,14.113 2.16,13.608 0.792,12.744 -0.504,11.664 -1.943,10.656 -3.096,9.648 -4.392,8.785 -5.616,7.92 -6.768,6.769 -2.088,2.089 H -1.8 -1.512 L -0.937,1.872 -0.576,1.297 -0.792,1.08 -1.224,1.152 0,-0.071 Z" style="fill:#ffffff;fill-opacity:1;fill-rule:nonzero;stroke:none" id="path3250"/>
  </g>
  <g id="g3252" transform="matrix(1.3333330154418945, 0, 0, -1.3333330154418945, 2392.188919516426, 1077.2929443814467)">
    <path d="m 0,0 0.217,0.216 0.071,0.288 -5.543,3.96 -12.816,11.808 -0.216,-1.08 0.504,-1.008 0.863,-0.791 0.937,-0.866 0.792,-1.007 0.864,-0.72 1.727,-1.512 1.729,-1.512 1.656,-1.44 L -7.416,5.04 -5.688,3.672 -3.959,2.376 -2.087,1.08 -0.359,-0.145 -0.215,0 Z" style="fill:#ffffff;fill-opacity:1;fill-rule:nonzero;stroke:none" id="path3254"/>
  </g>
  <g id="g3256" transform="matrix(1.3333330154418945, 0, 0, -1.3333330154418945, 2392.188919516426, 1077.2929443814467)">
    <path d="m 0,0 0.217,0.216 0.071,0.288 -5.543,3.96 -12.816,11.808 -0.216,-1.08 0.504,-1.008 0.863,-0.791 0.937,-0.866 0.792,-1.007 0.864,-0.72 1.727,-1.512 1.729,-1.512 1.656,-1.44 L -7.416,5.04 -5.688,3.672 -3.959,2.376 -2.087,1.08 -0.359,-0.145 -0.215,0 Z" style="fill:#ffff83;fill-opacity:1;fill-rule:nonzero;stroke:none" id="path3258"/>
  </g>
  <g id="g3260" transform="matrix(1.3333330154418945, 0, 0, -1.3333330154418945, 2499.902435502183, 911.3085682651108)">
    <path d="m 0,0 5.184,-3.385 0.792,-51.767 v 2.088 52.847 h -23.905 l -6.624,-14.111 2.016,-4.68 1.152,-5.184 0.649,-5.472 0.864,-5.185 0.72,1.08 0.863,1.009 1.08,0.791 1.44,0.433 1.584,-0.216 1.296,-0.433 1.153,-0.647 1.007,-0.937 0.936,-2.664 -0.432,-2.807 -0.288,-0.576 -0.431,-0.792 -0.505,-0.504 -0.432,-0.504 3.744,-2.88 1.513,25.199 -1.225,-0.72 -1.007,-0.792 -0.937,-1.08 -0.72,-1.439 0.288,-2.664 0.936,-2.305 -0.071,-0.215 -0.145,-0.217 -3.023,1.369 -2.449,2.448 -1.943,2.88 -1.08,3.311 -0.145,3.744 0.936,3.6 1.585,3.024 2.231,2.376 2.809,1.801 2.159,0.648 0.145,-0.073 0.143,-0.36 -0.935,-1.439 -0.721,-1.584 -0.359,-1.872 0.431,-1.873 0.649,-1.152 0.863,-0.863 0.864,-0.721 0.936,-0.576 0.721,10.44 z" style="fill:#ffffff;fill-opacity:1;fill-rule:nonzero;stroke:none" id="path3262"/>
  </g>
  <g id="g3264" transform="matrix(1.3333330154418945, 0, 0, -1.3333330154418945, 2493.3737912254005, 916.5898170059627)">
    <path d="m 0,0 -0.432,-10.08 -0.504,-10.151 -0.648,-10.224 -0.504,-10.297 0.36,-0.863 0.503,-0.432 h 0.145 l 0.216,0.287 2.376,41.256 3.24,2.017 3.456,-2.017 -0.072,-49.895 1.44,-0.865 L 9.72,0 4.896,3.168 Z" style="fill:#ffffff;fill-opacity:1;fill-rule:nonzero;stroke:none" id="path3266"/>
  </g>
  <g id="g3268" transform="matrix(1.3333330154418945, 0, 0, -1.3333330154418945, 2493.3737912254005, 916.5898170059627)">
    <path d="m 0,0 -0.432,-10.08 -0.504,-10.151 -0.648,-10.224 -0.504,-10.297 0.36,-0.863 0.503,-0.432 h 0.145 l 0.216,0.287 2.376,41.256 3.24,2.017 3.456,-2.017 -0.072,-49.895 1.44,-0.865 L 9.72,0 4.896,3.168 Z" style="fill:#ffff83;fill-opacity:1;fill-rule:nonzero;stroke:none" id="path3270"/>
  </g>
  <g id="g3272" transform="matrix(1.3333330154418945, 0, 0, -1.3333330154418945, 2479.2618154232914, 924.1731485312885)">
    <path d="m 0,0 -1.296,-3.168 -0.504,-3.384 0.361,-3.311 1.223,-3.168 1.008,-1.513 1.296,-1.296 1.368,-1.152 1.44,-0.863 -0.865,3.311 0.721,2.521 1.728,2.015 L 9,-8.496 9.145,-5.472 7.704,-4.464 6.408,-3.527 5.256,-2.304 4.752,-0.648 4.536,0.936 4.752,2.448 5.256,3.96 5.976,5.04 4.031,4.248 2.232,2.664 0.792,1.08 Z" style="fill:#ffffff;fill-opacity:1;fill-rule:nonzero;stroke:none" id="path3274"/>
  </g>
  <g id="g3276" transform="matrix(1.3333330154418945, 0, 0, -1.3333330154418945, 2479.2618154232914, 924.1731485312885)">
    <path d="m 0,0 -1.296,-3.168 -0.504,-3.384 0.361,-3.311 1.223,-3.168 1.008,-1.513 1.296,-1.296 1.368,-1.152 1.44,-0.863 -0.865,3.311 0.721,2.521 1.728,2.015 L 9,-8.496 9.145,-5.472 7.704,-4.464 6.408,-3.527 5.256,-2.304 4.752,-0.648 4.536,0.936 4.752,2.448 5.256,3.96 5.976,5.04 4.031,4.248 2.232,2.664 0.792,1.08 Z" style="fill:#ffff83;fill-opacity:1;fill-rule:nonzero;stroke:none" id="path3278"/>
  </g>
  <g id="g3280" transform="matrix(1.3333330154418945, 0, 0, -1.3333330154418945, 2482.52483547866, 967.9492611411224)">
    <path d="m 0,0 -0.215,-0.216 -0.144,-0.288 5.544,-3.889 12.96,-11.806 0.144,1.008 -0.433,1.151 -0.863,0.72 -0.864,0.936 -0.864,0.792 -0.937,0.792 -1.655,1.584 -1.729,1.441 L 9.217,-6.264 7.561,-4.968 5.688,-3.6 3.961,-2.304 2.089,-1.008 0.36,0.288 0.217,0.145 Z" style="fill:#ffffff;fill-opacity:1;fill-rule:nonzero;stroke:none" id="path3282"/>
  </g>
  <g id="g3284" transform="matrix(1.3333330154418945, 0, 0, -1.3333330154418945, 2482.52483547866, 967.9492611411224)">
    <path d="m 0,0 -0.215,-0.216 -0.144,-0.288 5.544,-3.889 12.96,-11.806 0.144,1.008 -0.433,1.151 -0.863,0.72 -0.864,0.936 -0.864,0.792 -0.937,0.792 -1.655,1.584 -1.729,1.441 L 9.217,-6.264 7.561,-4.968 5.688,-3.6 3.961,-2.304 2.089,-1.008 0.36,0.288 0.217,0.145 Z" style="fill:#ffff83;fill-opacity:1;fill-rule:nonzero;stroke:none" id="path3286"/>
  </g>
  <g id="g3288" transform="matrix(1.3333330154418945, 0, 0, -1.3333330154418945, 2462.557392322604, 1075.8527998680331)">
    <path d="M 0,0 1.872,1.367 0,5.4 l -2.231,3.816 -2.233,3.672 -2.447,3.599 -2.664,3.529 -2.664,3.384 -3.025,3.383 -3.096,3.313 -1.871,-3.744 -2.088,-3.6 -2.088,-3.528 -2.305,-3.312 -2.304,-3.384 -2.52,-3.312 -2.808,-3.168 -3.024,-3.168 4.248,0.36 4.248,0.36 4.248,0.144 4.32,0.144 4.033,-0.288 4.247,-0.504 4.248,-0.72 4.248,-1.152 0.793,-0.216 0.791,-0.288 0.648,-0.361 0.649,-0.143 0.431,-0.145 z" style="fill:#ffff83;fill-opacity:1;fill-rule:nonzero;stroke:none" id="path3290"/>
  </g>
  <g id="g3292" transform="matrix(1.3333330154418945, 0, 0, -1.3333330154418945, 2462.557392322604, 1074.7017584757962)">
    <path d="m 0,0 h 0.072 l 0.073,0.145 -1.296,3.599 -1.801,3.385 -2.088,3.24 -2.231,3.383 -1.153,1.801 -1.223,1.655 -1.297,1.657 -1.44,1.728 -1.296,1.727 -1.44,1.584 -1.44,1.729 -1.44,1.439 -1.512,-2.303 -1.296,-2.376 -1.511,-2.449 -1.513,-2.303 -1.584,-2.376 -1.584,-2.304 -1.655,-2.305 -1.801,-2.16 -1.152,-1.367 -1.152,-1.296 -1.224,-1.225 -0.864,-1.295 3.456,0.072 3.672,0.143 3.528,0.073 3.672,0.071 3.457,-0.144 3.527,-0.215 3.6,-0.577 L -6.264,1.873 -5.112,1.729 -4.031,1.44 -2.88,1.08 -1.944,0.721 -1.44,0.433 -0.863,0.217 -0.504,0 Z" style="fill:#ffc2c2;fill-opacity:1;fill-rule:nonzero;stroke:none" id="path3294"/>
  </g>
  <g id="g3296" transform="matrix(1.3333330154418945, 0, 0, -1.3333330154418945, 2488.2852507719363, 1074.5090908785023)">
    <path d="M 0,0 0.145,0.072 H 0.216 L 0.793,1.296 -2.736,3.96 -3.743,3.6 -0.144,-0.145 H 0 Z" style="fill:#ffffff;fill-opacity:1;fill-rule:nonzero;stroke:none" id="path3298"/>
  </g>
  <g id="g3300" transform="matrix(1.3333330154418945, 0, 0, -1.3333330154418945, 2399.101678284963, 1072.2044039279829)">
    <path d="m 0,0 h 0.072 0.073 l 4.319,4.319 -10.728,7.777 -1.368,0.935 -1.223,0.937 -1.153,0.935 -1.152,1.08 -1.153,1.009 -1.295,1.079 -1.296,1.368 -1.44,1.512 -7.055,7.416 v -7.92 l 3.743,-0.071 0.432,-0.937 -0.288,-1.152 -0.576,-1.151 -0.143,-1.297 0.503,-0.504 0.648,-0.359 1.008,0.359 1.009,0.288 1.151,0.145 0.864,-0.504 -0.504,-4.176 0.36,-0.433 h 0.576 l 0.72,0.073 0.577,0.288 0.791,0.288 0.793,0.072 0.863,-0.072 0.792,-0.216 0.504,-1.008 -0.863,-3.312 0.359,-0.289 h 0.36 0.576 0.432 L -5.76,7.416 -5.112,6.768 -4.968,5.688 -5.399,3.96 -4.968,2.52 -0.792,4.607 -0.216,4.248 0.145,3.527 -0.288,0.144 -0.072,0.071 Z" style="fill:#c2c2ff;fill-opacity:1;fill-rule:nonzero;stroke:none" id="path3302"/>
  </g>
  <g id="g3304" transform="matrix(1.3333330154418945, 0, 0, -1.3333330154418945, 2482.9102520534366, 1068.5572286907664)">
    <path d="M 0,0 H 0.144 L 0.288,0.216 0.144,0.36 -0.289,0.433 V 0.072 Z" style="fill:#ffffff;fill-opacity:1;fill-rule:nonzero;stroke:none" id="path3306"/>
  </g>
  <g id="g3308" transform="matrix(1.3333330154418945, 0, 0, -1.3333330154418945, 2473.213639781956, 1066.9244165800592)">
    <path d="m 0,0 0.792,1.512 0.936,1.44 0.864,1.295 0.792,1.585 2.736,5.688 2.447,6.047 1.945,6.193 1.368,6.479 0.721,6.264 -0.217,6.336 -1.224,6.408 -2.088,6.12 -0.505,0.649 -0.575,0.576 -0.504,0.504 -0.505,0.288 2.089,-4.176 1.945,-6.769 0.719,-6.983 L 11.16,32.472 10.008,25.56 7.992,18.936 5.688,12.815 2.952,7.128 0.216,2.447 V 2.016 L 0.145,1.512 -6.912,12.815 -4.536,19.943 -2.16,27.144 -0.144,34.2 1.44,41.472 2.448,46.224 3.312,51.12 3.815,55.8 3.384,60.264 3.097,57.096 2.736,53.783 2.304,50.327 1.728,46.943 0.504,40.823 -0.864,34.704 -2.664,28.872 -4.319,23.111 -5.112,20.375 -6.048,18 -6.912,15.479 -7.848,13.032 0,-0.072 Z" style="fill:#ffff83;fill-opacity:1;fill-rule:nonzero;stroke:none" id="path3310"/>
  </g>
  <g id="g3312" transform="matrix(1.3333330154418945, 0, 0, -1.3333330154418945, 2402.5574066277186, 979.0845937727098)">
    <path d="m 0,0 -3.6,-5.904 -3.168,-6.409 -2.664,-6.984 -1.872,-7.199 -1.152,-7.416 v -7.344 l 1.152,-7.128 2.376,-6.984 0.361,-0.721 0.576,-0.575 0.647,-0.36 0.504,-0.36 -2.232,4.104 -1.872,6.84 -0.791,6.983 0.288,6.769 1.223,6.984 1.872,6.767 2.448,6.336 2.808,5.761 3.024,5.039 v 0.145 L 0,-1.584 7.056,-12.816 4.681,-19.944 2.448,-27.217 0.433,-34.2 l -1.801,-7.273 -0.936,-4.824 -0.792,-4.823 -0.504,-4.609 0.288,-4.535 0.36,3.167 0.288,3.384 0.36,3.385 0.649,3.384 1.223,6.12 1.512,6.12 1.728,5.832 1.728,5.831 0.721,2.593 0.935,2.52 0.864,2.375 0.936,2.592 -7.776,13.033 z" style="fill:#ffff83;fill-opacity:1;fill-rule:nonzero;stroke:none" id="path3314"/>
  </g>
  <g id="g3316" transform="matrix(1.3333330154418945, 0, 0, -1.3333330154418945, 2484.2540017330616, 1066.7329289955053)">
    <path d="M 0,0 0.216,0.288 0.287,0.72 -0.072,0.647 -0.217,0.216 -0.145,0 Z" style="fill:#ffffff;fill-opacity:1;fill-rule:nonzero;stroke:none" id="path3318"/>
  </g>
  <g id="g3320" transform="matrix(1.3333330154418945, 0, 0, -1.3333330154418945, 2439.037866680097, 1060.3006388624165)">
    <path d="m 0,0 0.504,-0.505 0.504,-0.647 0.36,-0.073 H 1.872 L 2.447,-1.009 3.024,-0.505 2.808,0.648 2.088,1.584 1.729,2.016 1.296,2.376 0.72,2.736 0.359,3.023 -0.36,2.592 -0.936,2.16 -1.368,1.871 -1.729,1.656 -2.16,1.08 l -0.504,-1.225 0.576,-0.864 0.72,-0.216 0.792,0.577 z" style="fill:#ffffff;fill-opacity:1;fill-rule:nonzero;stroke:none" id="path3322"/>
  </g>
  <g id="g3324" transform="matrix(1.3333330154418945, 0, 0, -1.3333330154418945, 2506.5248297566145, 1012.397085830391)">
    <path d="M 0,0 V 7.92 H -3.239 L -3.887,9 l 0.36,2.088 0.576,1.8 0.071,-0.361 -0.359,0.649 -0.504,0.431 -0.864,-0.359 -1.008,-0.36 -1.153,-0.216 -1.08,0.288 0.217,4.824 -1.297,-0.143 -1.223,-0.433 -1.296,-0.36 -1.368,0.36 -0.432,1.151 0.216,1.225 0.431,1.225 -0.143,1.223 -1.729,-0.576 -1.799,-0.504 -1.369,0.216 -0.215,1.728 0.215,1.44 -0.215,1.439 -1.296,-0.718 -1.225,-0.793 -1.007,-0.36 -1.297,0.216 -0.431,0.432 -0.216,0.792 0.647,1.872 -0.431,1.8 -4.608,-4.176 1.512,-1.367 1.584,-1.225 1.584,-1.152 1.8,-1.153 1.655,-1.079 1.584,-1.297 1.729,-1.296 1.583,-1.367 2.161,-1.44 1.943,-1.441 1.656,-1.584 1.584,-1.727 z" style="fill:#c2c2ff;fill-opacity:1;fill-rule:nonzero;stroke:none" id="path3326"/>
  </g>
  <g id="g3328" transform="matrix(1.3333330154418945, 0, 0, -1.3333330154418945, 2436.541773525212, 1010.0923988798713)">
    <path d="m 0,0 1.512,3.815 1.944,3.888 2.16,3.744 2.448,3.529 2.664,3.528 2.808,3.168 2.736,2.951 2.736,2.809 L 16.776,27.144 14.544,27 12.24,26.783 9.864,26.64 7.487,26.496 5.04,26.424 2.735,26.352 0.36,26.424 -1.872,26.496 -4.393,26.783 -6.696,27 l -2.376,0.432 -2.304,0.576 -2.305,0.72 -2.159,0.792 -2.304,1.007 -0.576,-0.143 -0.432,-0.288 -0.432,-0.361 -0.433,-0.431 1.081,-2.808 1.296,-2.664 1.368,-2.52 1.44,-2.376 1.584,-2.305 1.656,-2.447 1.656,-2.305 L -8.208,9.432 -6.192,6.983 -4.104,4.535 -2.088,2.088 -0.144,0 Z" style="fill:#ffff83;fill-opacity:1;fill-rule:nonzero;stroke:none" id="path3330"/>
  </g>
  <g id="g3332" transform="matrix(1.3333330154418945, 0, 0, -1.3333330154418945, 2458.524841200706, 975.2446695580111)">
    <path d="m 0,0 -5.399,-0.36 -4.825,-0.36 h -4.464 l -4.031,0.215 -4.033,0.361 -3.959,0.791 -4.104,1.081 -4.32,1.44 1.079,-2.952 1.441,-2.737 1.584,-2.736 1.511,-2.664 1.441,-2.159 1.512,-2.233 1.511,-2.087 1.584,-1.944 1.512,-2.089 1.657,-1.943 1.728,-1.944 1.655,-1.8 1.584,3.096 1.44,3.024 1.657,2.808 1.727,2.736 1.945,2.951 2.231,2.809 2.809,3.168 z" style="fill:#ffc2c2;fill-opacity:1;fill-rule:nonzero;stroke:none" id="path3334"/>
  </g>
  <g id="g3336" transform="matrix(1.3333330154418945, 0, 0, -1.3333330154418945, 2384.7982962784886, 986.9569877291179)">
    <path d="m 0,0 -3.961,6.984 7.849,9.577 3.96,-3.601 0.215,2.952 1.153,2.304 2.015,1.872 2.088,1.512 1.512,0.576 1.152,0.792 0.936,1.152 0.577,1.151 1.295,-2.16 v -2.447 l -0.936,-2.016 -0.936,-1.152 -2.231,-1.152 -2.161,-0.792 -1.872,-1.296 -1.511,-2.016 3.383,-3.599 3.385,2.375 9.215,6.48 -0.359,0.359 -0.504,0.217 -0.433,0.144 -0.359,0.288 -1.08,1.584 0.072,2.016 0.288,2.16 -0.576,1.872 v 0.719 l 0.288,0.577 -0.505,1.297 -0.144,1.223 -0.215,0.432 -0.432,0.36 -0.576,0.287 -0.72,0.433 -0.792,0.936 -0.504,1.368 4.104,6.768 v 7.632 l -1.441,2.16 -1.223,2.016 -1.225,2.088 -1.224,2.088 h -31.32 V -8.641 Z" style="fill:#ffffff;fill-opacity:1;fill-rule:nonzero;stroke:none" id="path3338"/>
  </g>
  <g id="g3340" transform="matrix(1.3333330154418945, 0, 0, -1.3333330154418945, 2435.485784193647, 989.9334681392611)">
    <path d="M 0,0 2.16,2.592 2.304,3.528 1.8,4.104 H 0.936 L 0.216,3.24 -0.721,4.104 H -1.584 L -2.088,3.528 -1.944,2.521 Z" style="fill:#ffffff;fill-opacity:1;fill-rule:nonzero;stroke:none" id="path3342"/>
  </g>
  <g id="g3344" transform="matrix(1.3333330154418945, 0, 0, -1.3333330154418945, 2386.3334521624793, 986.1886773654223)">
    <path d="M 0,0 7.272,5.4 10.296,7.56 5.904,12.023 4.824,12.168 3.601,13.176 6.264,8.424 5.472,6.624 4.464,5.184 3.096,3.816 1.584,2.736 -3.239,5.184 -0.36,0.072 h 0.072 z" style="fill:#ffffff;fill-opacity:1;fill-rule:nonzero;stroke:none" id="path3346"/>
  </g>
  <g id="g3348" transform="matrix(1.3333330154418945, 0, 0, -1.3333330154418945, 2386.91027494162, 980.8137600271111)">
    <path d="M 0,0 0.216,0.36 0.432,0.793 -3.385,3.672 -3.889,3.385 -4.176,2.664 Z" style="fill:#ffffff;fill-opacity:1;fill-rule:nonzero;stroke:none" id="path3350"/>
  </g>
  <g id="g3352" transform="matrix(1.3333330154418945, 0, 0, -1.3333330154418945, 2388.5417849693044, 978.6053458400966)">
    <path d="M 0,0 0.288,0.217 0.576,0.504 V 0.793 1.008 L -3.024,3.816 -3.672,3.6 -4.032,3.024 -3.815,2.521 -3.384,2.16 -2.808,1.801 -2.16,1.512 -2.017,1.297 -1.8,1.008 Z" style="fill:#ffffff;fill-opacity:1;fill-rule:nonzero;stroke:none" id="path3354"/>
  </g>
  <g id="g3356" transform="matrix(1.3333330154418945, 0, 0, -1.3333330154418945, 2391.8061071076954, 977.5481358056968)">
    <path d="M 0,0 0.144,0.071 0.359,0.215 0.144,0.504 -0.072,0.432 -0.217,0.144 Z" style="fill:#ffffff;fill-opacity:1;fill-rule:nonzero;stroke:none" id="path3358"/>
  </g>
  <g id="g3360" transform="matrix(1.3333330154418945, 0, 0, -1.3333330154418945, 2390.653763632436, 976.1093340654006)">
    <path d="M 0,0 0.216,0.288 0.36,0.505 -3.024,4.032 H -3.24 L -3.528,3.816 -3.744,3.384 -4.032,2.736 -0.36,-0.071 h 0.215 z" style="fill:#ffffff;fill-opacity:1;fill-rule:nonzero;stroke:none" id="path3362"/>
  </g>
  <g id="g3364" transform="matrix(1.3333330154418945, 0, 0, -1.3333330154418945, 2392.28527366012, 973.901001258575)">
    <path d="M 0,0 -1.943,5.112 -3.023,4.319 -3.6,3.24 0,-0.144 Z" style="fill:#ffffff;fill-opacity:1;fill-rule:nonzero;stroke:none" id="path3366"/>
  </g>
  <g id="g3368" transform="matrix(1.3333330154418945, 0, 0, -1.3333330154418945, 2472.350358737778, 969.0050877123103)">
    <path d="M 0,0 -0.433,0.072 -0.864,0.433 V 0.576 0.792 L 3.239,0.288 2.951,0.576 2.447,0.647 -0.145,2.88 V 3.097 L 0,3.384 2.088,1.8 3.384,1.44 4.607,1.296 5.832,1.368 7.056,1.8 7.991,2.448 8.64,3.168 9.144,4.177 9.432,5.328 9.359,7.632 8.279,9.433 7.344,10.152 6.119,10.513 H 4.823 L 3.455,10.224 2.592,9.36 2.016,8.353 1.655,7.056 1.583,5.832 1.871,5.328 2.016,4.752 2.664,4.177 3.6,3.672 4.607,3.456 5.76,3.528 6.624,4.536 7.056,5.904 6.983,6.408 6.912,6.624 6.552,7.056 6.264,7.345 5.76,7.56 5.184,7.776 4.463,7.056 4.031,5.976 3.6,6.048 3.239,6.408 4.031,8.063 4.751,8.353 H 5.472 L 6.264,8.136 6.695,7.776 7.487,7.056 7.848,6.408 7.775,4.681 6.695,3.24 5.976,2.664 4.968,2.448 H 3.888 L 2.951,2.664 0.287,6.84 l -1.151,4.896 -0.72,5.256 -1.152,5.04 -0.649,2.088 -0.792,2.088 -1.223,1.729 -1.441,1.151 -0.647,0.216 -0.72,0.144 h -0.648 -0.72 l 2.807,-4.896 1.584,-5.615 1.225,-6.049 1.728,-5.543 -0.721,0.359 -0.648,0.936 -0.648,2.088 -0.575,1.944 -0.649,2.089 -0.504,2.088 -0.792,3.599 -1.08,3.528 -1.44,3.096 -1.871,2.521 -8.928,1.511 0.287,-0.648 0.072,-0.935 -0.935,0.863 -0.649,0.936 -3.744,0.504 2.305,-5.4 -0.144,-0.216 h -0.289 l -1.08,1.944 -1.007,1.872 -1.441,1.657 -1.871,0.863 -0.648,0.072 -0.721,0.072 -0.575,0.144 -0.721,0.072 0.721,-1.368 0.792,-1.584 1.367,-3.744 1.297,-3.527 1.511,-3.601 1.512,-3.311 1.872,-3.168 2.089,-2.954 2.303,-2.591 2.808,-2.375 0.648,-0.433 0.577,-0.288 0.503,-0.432 0.721,-0.144 -1.801,2.088 -1.583,2.088 -1.441,2.377 -1.223,2.447 -1.153,2.592 -0.935,2.736 -0.937,2.881 -0.792,2.879 0.073,0.144 0.216,0.216 0.864,-1.151 0.647,-1.729 1.08,-3.599 1.296,-3.313 1.584,-3.023 1.872,-2.954 0.937,-1.223 1.008,-1.152 0.863,-1.08 1.08,-1.08 L -9.792,2.664 -8.496,1.8 -7.2,1.152 -5.688,0.647 h 0.288 0.288 l -2.737,2.089 -2.088,2.736 -1.872,2.952 -1.511,3.456 -1.225,3.599 -1.224,3.673 -1.151,3.816 -1.369,3.672 0.072,0.216 L -18,27 l 0.359,-0.36 0.361,-0.577 1.439,-3.023 1.225,-3.384 1.151,-3.384 1.08,-3.384 1.225,-3.241 1.512,-3.023 1.872,-2.592 2.303,-2.088 1.584,-1.007 z" style="fill:#ffff83;fill-opacity:1;fill-rule:nonzero;stroke:none" id="path3370"/>
  </g>
  <g id="g3372" transform="matrix(1.3333330154418945, 0, 0, -1.3333330154418945, 2392.4779819475084, 968.4283463133579)">
    <path d="M 0,0 -1.008,1.008 -0.576,0.359 Z" style="fill:#ffffff;fill-opacity:1;fill-rule:nonzero;stroke:none" id="path3374"/>
  </g>
  <g id="g3376" transform="matrix(1.3333330154418945, 0, 0, -1.3333330154418945, 2435.485784193647, 965.4530866060485)">
    <path d="M 0,0 6.048,-0.36 12.313,0 10.729,1.368 0.504,2.017 -2.809,2.808 -9.648,2.017 Z" style="fill:#ffff83;fill-opacity:1;fill-rule:nonzero;stroke:none" id="path3378"/>
  </g>
  <g id="g3380" transform="matrix(1.3333330154418945, 0, 0, -1.3333330154418945, 2468.509213820246, 965.4530866060485)">
    <path d="m 0,0 -1.8,2.304 -1.512,2.664 -1.152,3.024 -1.151,3.168 -1.008,3.168 -1.152,3.384 -1.153,3.096 -1.511,2.808 -0.432,0.936 -0.504,0.792 -0.505,0.719 -0.504,0.793 1.296,-2.591 1.152,-2.809 1.008,-2.88 0.936,-2.88 0.936,-3.024 1.08,-2.952 1.08,-2.737 L -3.6,4.248 -2.592,3.168 -1.8,2.017 -1.008,0.864 0,-0.071 Z" style="fill:#000000;fill-opacity:1;fill-rule:nonzero;stroke:none" id="path3382"/>
  </g>
  <g id="g3384" transform="matrix(1.3333330154418945, 0, 0, -1.3333330154418945, 2442.0144284704297, 955.373661925838)">
    <path d="m 0,0 -1.656,2.592 -1.297,2.881 -1.151,3.168 -0.792,3.168 -1.081,3.312 -1.295,3.024 -1.728,2.736 -2.16,2.304 -7.488,0.792 V 20.16 l -0.577,-3.744 -3.599,-6.552 1.008,-1.584 1.943,-1.655 -0.071,-0.433 -0.216,-0.504 0.647,-0.792 0.865,-0.648 0.288,0.289 0.431,0.144 h 0.216 l 0.145,-0.216 0.431,-2.809 -0.216,-0.359 -0.36,-0.072 -0.359,0.504 -0.288,0.719 -0.361,0.361 -0.648,0.144 0.432,-2.52 -0.719,-2.88 0.575,-1.657 1.513,-0.864 2.736,0.576 2.159,0.288 1.656,0.289 1.728,0.143 1.584,0.36 2.088,0.648 2.304,1.08 z" style="fill:#ffffff;fill-opacity:1;fill-rule:nonzero;stroke:none" id="path3386"/>
  </g>
  <g id="g3388" transform="matrix(1.3333330154418945, 0, 0, -1.3333330154418945, 2442.0144284704297, 961.997358263292)">
    <path d="M 0,0 3.815,0.072 0.863,3.673 -6.336,0.792 Z" style="fill:#ffffff;fill-opacity:1;fill-rule:nonzero;stroke:none" id="path3390"/>
  </g>
  <g id="g3392" transform="matrix(1.3333330154418945, 0, 0, -1.3333330154418945, 2423.8699015464226, 950.2851214723742)">
    <path d="M 0,0 1.008,-0.072 1.8,0.145 2.304,0.792 2.664,1.439 2.448,2.736 1.296,3.313 0.936,3.24 0.432,2.952 0.216,2.592 0.36,1.872 H 0.504 0.792 L 0.72,2.448 0.936,2.736 1.728,2.809 2.088,2.376 2.16,1.872 2.304,1.439 2.088,1.08 1.8,0.864 -0.072,0.792 l -1.8,0.864 -1.8,1.08 -2.089,0.216 -0.215,-0.143 0.215,-0.361 1.584,-0.576 1.297,-0.576 1.44,-0.648 z" style="fill:#000000;fill-opacity:1;fill-rule:nonzero;stroke:none" id="path3394"/>
  </g>
  <g id="g3396" transform="matrix(1.3333330154418945, 0, 0, -1.3333330154418945, 2417.725371761393, 944.8137686101799)">
    <path d="M 0,0 0.648,0.36 1.08,1.152 0.937,1.513 0.648,1.873 V 1.369 L 0.504,0.648 0.145,0.504 -0.36,0.648 -0.72,0.793 -1.152,1.225 -1.656,1.656 -2.448,1.801 H -3.023 L -3.456,1.729 -3.096,1.297 -2.736,0.937 -2.16,0.793 -1.656,0.721 -1.152,0.36 -0.864,0.145 -0.647,0 Z" style="fill:#000000;fill-opacity:1;fill-rule:nonzero;stroke:none" id="path3398"/>
  </g>
  <g id="g3400" transform="matrix(1.3333330154418945, 0, 0, -1.3333330154418945, 2419.4545380157942, 935.3085625430649)">
    <path d="M 0,0 5.903,0.647 1.296,2.951 5.472,1.728 4.607,2.52 3.455,3.096 2.231,3.455 0.863,3.815 0.936,3.672 1.224,3.24 0.647,3.023 0,3.24 -0.505,3.672 -1.009,3.959 -1.225,3.672 -0.721,3.24 -0.217,0.072 Z" style="fill:#000000;fill-opacity:1;fill-rule:nonzero;stroke:none" id="path3402"/>
  </g>
  <g id="g3404" transform="matrix(1.3333330154418945, 0, 0, -1.3333330154418945, 2422.7175580711632, 934.5403335595585)">
    <path d="M 0,0 1.439,0.071 0.721,0.575 -0.072,0.791 V 0.359 l 0,-0.359 z" style="fill:#ffffff;fill-opacity:1;fill-rule:nonzero;stroke:none" id="path3406"/>
  </g>
  <g id="g3408" transform="matrix(1.3333330154418945, 0, 0, -1.3333330154418945, 2428.477973364439, 930.0299179682588)">
    <path d="M 0,0 V 0.072 0.217 L -1.296,1.656 -3.385,2.377 -5.688,2.664 -7.776,3.457 V 2.809 L -7.2,2.017 Z" style="fill:#000000;fill-opacity:1;fill-rule:nonzero;stroke:none" id="path3410"/>
  </g>
  <g id="g3412" transform="matrix(1.3333330154418945, 0, 0, -1.3333330154418945, 2463.7097357978637, 918.5090873817061)">
    <path d="M 0,0 1.08,-0.072 2.231,0 3.168,0.288 3.96,0.648 4.752,1.439 5.4,2.52 5.76,3.816 6.048,4.968 H 3.96 L 2.88,2.664 2.376,2.305 1.729,2.16 1.008,2.305 0.504,2.52 -0.576,2.952 -1.512,3.672 -2.376,4.607 -3.312,5.184 -4.68,5.256 H -5.832 L -6.984,4.968 -8.28,4.464 -9.36,4.032 -10.584,3.672 -11.809,3.527 -13.104,3.672 -14.76,4.32 -16.128,4.968 -17.784,5.4 -19.439,5.184 -20.952,5.4 -22.68,5.256 -24.408,4.968 -26.064,4.607 -27.72,4.176 -29.448,3.96 -31.176,4.176 -32.904,4.752 -34.849,5.256 -36.72,5.4 h -1.944 -1.943 l 1.007,-0.144 1.08,-0.072 1.224,-0.432 1.368,-0.288 1.224,-0.504 1.296,-0.433 1.296,-0.504 1.152,-0.503 1.512,-0.144 1.584,0.144 1.44,0.36 1.584,0.433 1.584,0.576 1.512,0.359 1.512,-0.072 1.656,-0.504 1.223,-0.792 1.441,-0.72 1.512,-0.648 1.296,-0.648 1.295,-0.072 1.081,0.216 1.08,0.431 1.152,0.433 1.08,0.504 1.151,0.288 h 1.153 l 1.296,-0.359 1.007,-0.721 0.865,-0.576 0.936,-0.504 z" style="fill:#ffffff;fill-opacity:1;fill-rule:nonzero;stroke:none" id="path3414"/>
  </g>
  <g id="g3416" transform="matrix(1.3333330154418945, 0, 0, -1.3333330154418945, 2389.5014201571757, 925.9010127026667)">
    <path d="m 0,0 v 1.44 l -0.576,2.52 -1.44,1.872 -2.088,1.296 -2.448,0.576 -2.303,-0.576 -1.945,-1.44 -1.296,-2.016 -0.431,-2.592 0.504,-3.168 1.439,-3.311 2.088,-3.385 2.377,-3.528 2.375,-3.457 2.089,-3.382 1.584,-3.169 0.575,-2.952 0.576,2.952 1.584,3.169 2.088,3.382 2.448,3.457 2.376,3.528 2.016,3.385 1.512,3.311 0.504,3.168 -0.431,2.592 -1.296,2.016 -1.873,1.44 L 7.488,7.704 5.184,7.128 3.096,5.832 1.656,3.96 0.937,1.44 V 0 L 0.504,-0.433 Z" style="fill:#ff0000;fill-opacity:1;fill-rule:nonzero;stroke:none" id="path3418"/>
  </g>
  <g id="g3420" transform="matrix(1.3333330154418945, 0, 0, -1.3333330154418945, 2483.5821268932486, 1118.6691959098061)">
    <path d="m 0,0 v -1.512 l -0.648,-2.304 -1.44,-2.087 -1.944,-1.225 -2.448,-0.432 -2.233,0.504 -1.943,1.368 -1.225,2.016 -0.432,2.521 0.504,3.095 1.512,3.168 1.944,3.313 2.304,3.384 2.376,3.383 1.944,3.241 1.513,3.023 0.575,2.952 L 0.936,21.456 2.447,18.433 4.464,15.192 6.912,11.809 9.216,8.425 11.159,5.112 12.6,1.944 13.176,-1.151 12.743,-3.672 11.447,-5.688 9.576,-7.056 7.344,-7.56 4.896,-7.128 2.88,-5.903 1.512,-3.816 0.791,-1.512 V 0 L 0.432,0.288 Z" style="fill:#ff0000;fill-opacity:1;fill-rule:nonzero;stroke:none" id="path3422"/>
  </g>
  <g id="g3424" transform="matrix(1.3333330154418945, 0, 0, -1.3333330154418945, 2345.4376285794715, 909.1965896019792)">
    <path d="m 0,0 h 2.448 v -2.232 l 0.288,-1.225 0.576,-1.008 0.503,-0.359 0.433,-0.288 0.504,-0.073 0.576,-0.215 0.504,0.215 0.36,0.073 0.432,0.288 0.432,0.359 0.504,0.937 0.216,1.296 v 17.28 h 2.52 V -2.017 L 10.225,-3.672 9.647,-5.185 9.288,-5.76 8.855,-6.336 8.352,-6.84 7.776,-7.2 7.2,-7.488 6.624,-7.704 5.904,-7.849 H 5.328 4.752 L 4.248,-7.704 H 3.672 L 3.168,-7.488 2.521,-7.272 2.017,-6.984 1.513,-6.48 0.936,-5.977 0.36,-4.32 0,-2.232 Z" style="fill:#ff0000;fill-opacity:1;fill-rule:nonzero;stroke:none" id="path3426"/>
  </g>
  <g id="g3428" transform="matrix(1.3333330154418945, 0, 0, -1.3333330154418945, 2528.989668150578, 1139.9803887454875)">
    <path d="M 0,0 H -2.521 V 2.231 L -2.809,3.527 -3.313,4.535 -3.744,4.896 -4.248,5.184 -4.752,5.328 H -5.256 -5.76 L -6.265,5.184 -6.696,4.896 -7.128,4.607 -7.56,3.6 -7.776,2.231 v -17.208 h -2.592 V 2.016 l 0.143,1.655 0.505,1.513 0.36,0.648 0.505,0.576 0.431,0.432 0.575,0.431 0.578,0.216 0.719,0.216 0.576,0.072 0.577,0.145 h 0.647 L -4.248,7.775 -3.744,7.703 -3.168,7.487 -2.592,7.271 -2.017,6.983 -1.512,6.479 -1.008,5.976 -0.288,4.392 0,2.231 Z" style="fill:#ff0000;fill-opacity:1;fill-rule:nonzero;stroke:none" id="path3430"/>
  </g>
  <g id="g3432" transform="matrix(1.3333330154418945, 0, 0, -1.3333330154418945, 2421.373808391538, 1016.9088035047135)">
    <path d="m 0,0 h 30.744 l 1.008,-1.152 H 1.296 Z" style="fill:#ffffff;fill-opacity:1;fill-rule:nonzero;stroke:none" id="path3434"/>
  </g>
  <g id="g3436" transform="matrix(1.3333330154418945, 0, 0, -1.3333330154418945, 2454.684998366196, 1030.3489858471985)">
    <path d="m 0,0 h -30.6 l -0.936,1.296 H -1.08 Z" style="fill:#ffffff;fill-opacity:1;fill-rule:nonzero;stroke:none" id="path3438"/>
  </g>
  <g id="g3440" transform="matrix(1.3333330154418945, 0, 0, -1.3333330154418945, 2419.9337045682187, 1014.3162748259456)">
    <path d="M 0,0 H 30.527 L 31.32,-0.793 H 0.937 Z" style="fill:#ffffff;fill-opacity:1;fill-rule:nonzero;stroke:none" id="path3442"/>
  </g>
  <g id="g3444" transform="matrix(1.3333330154418945, 0, 0, -1.3333330154418945, 2456.4128625375743, 1032.8449976218947)">
    <path d="m 0,0 h -30.6 l -0.864,0.863 h 30.457 z" style="fill:#ffffff;fill-opacity:1;fill-rule:nonzero;stroke:none" id="path3446"/>
  </g>
</svg>