<?xml version="1.0" encoding="utf-8"?>
<svg viewBox="2332.0938 1213.8059 208.224 295.1026" xmlns="http://www.w3.org/2000/svg">
  <g id="g4322" transform="matrix(1.3333330154418945, 0, 0, -1.3333330154418945, 2340.157681921643, 1213.8058512873506)">
    <path d="m 0,0 h 144.145 l 2.303,-0.647 1.945,-1.8 1.295,-2.737 0.432,-3.311 v -204.336 l -0.432,-3.313 -1.295,-2.736 -1.945,-1.8 -2.303,-0.647 H 0 l -2.376,0.647 -1.872,1.8 -1.296,2.736 -0.504,3.313 V -8.495 l 0.504,3.311 1.296,2.737 1.872,1.8 z" style="fill:#000000;fill-opacity:1;fill-rule:nonzero;stroke:none" id="path4324"/>
  </g>
  <g id="g4326" transform="matrix(1.3333330154418945, 0, 0, -1.3333330154418945, 2343.1342437119747, 1218.4126617124386)">
    <path d="m 0,0 h 139.68 l 2.232,-0.576 1.871,-1.8 1.225,-2.592 0.504,-3.312 v -198 l -0.504,-3.096 -1.225,-2.664 -1.871,-1.656 -2.232,-0.792 H 0 l -2.232,0.792 -1.872,1.656 -1.224,2.664 -0.36,3.096 v 198 l 0.36,3.312 1.224,2.592 1.872,1.8 z" style="fill:#ffffff;fill-opacity:1;fill-rule:nonzero;stroke:none" id="path4328"/>
  </g>
  <path d="m 1760.577,355.237 h 107.784 V 183.95 h -107.784 z" style="fill:#000000;fill-opacity:1;fill-rule:nonzero;stroke:none" id="path4330" transform="matrix(1.3333330154418945, 0, 0, -1.3333330154418945, 17.00979830339236, 1720.8630627522327)"/>
  <path d="m 1762.161,353.654 h 104.688 V 185.389 h -104.688 z" style="fill:#ffffff;fill-opacity:1;fill-rule:nonzero;stroke:none" id="path4332" transform="matrix(1.3333330154418945, 0, 0, -1.3333330154418945, 17.00979830339236, 1720.8630627522327)"/>
  <g id="g4334" transform="matrix(1.3333330154418945, 0, 0, -1.3333330154418945, 2352.636845613045, 1288.300625193075)">
    <path d="M 0,0 H -4.896 L -3.6,2.448 -2.951,4.896 -3.096,7.271 -3.743,8.928 H -4.247 L -3.743,7.92 -3.6,6.768 -3.887,5.472 -4.607,4.536 -5.688,3.888 -6.84,3.672 -7.991,3.96 -9,4.68 l -0.647,1.08 -0.289,1.223 1.225,3.169 2.447,3.384 2.592,3.239 1.513,2.665 1.368,-2.665 2.52,-3.239 L 3.961,10.152 5.113,6.983 4.825,5.76 4.177,4.68 3.097,3.96 2.017,3.672 0.793,3.888 -0.287,4.536 -1.079,5.472 -1.224,6.768 -1.079,7.92 -0.647,8.928 H -1.079 L -1.799,7.271 V 4.896 l 0.575,-2.448 z" style="fill:#000000;fill-opacity:1;fill-rule:nonzero;stroke:none" id="path4336"/>
  </g>
  <g id="g4338" transform="matrix(1.3333330154418945, 0, 0, -1.3333330154418945, 2518.9102434703673, 1435.2771323060845)">
    <path d="M 0,0 H 4.968 L 3.672,-2.52 3.023,-5.04 3.168,-7.344 3.888,-9 h 0.359 l -0.432,1.008 -0.143,1.081 0.216,1.296 0.792,0.935 1.08,0.649 1.08,0.215 1.223,-0.215 0.937,-0.792 0.72,-1.009 0.216,-1.224 -1.081,-3.24 -2.52,-3.384 -2.663,-3.24 -1.512,-2.664 -1.369,2.664 -2.52,3.168 -2.375,3.456 -1.008,3.24 0.288,1.224 0.648,1.009 0.936,0.792 1.223,0.215 1.224,-0.215 L 0.288,-4.68 0.936,-5.615 1.295,-6.911 1.08,-7.992 0.504,-9 h 0.432 l 0.792,1.656 v 2.304 l -0.504,2.52 z" style="fill:#000000;fill-opacity:1;fill-rule:nonzero;stroke:none" id="path4340"/>
  </g>
  <g id="g4342" transform="matrix(1.3333330154418945, 0, 0, -1.3333330154418945, 2394.58996061064, 1299.3410278342747)">
    <path d="M 0,0 H -8.712 L -6.48,4.464 -5.472,9 -5.616,13.176 -6.84,16.2 H -7.704 L -6.696,14.399 -6.408,12.313 -6.84,10.151 -8.28,8.353 -10.152,7.2 -12.313,6.769 -14.544,7.2 -16.2,8.567 l -1.152,1.801 -0.432,2.376 0.576,2.88 1.368,2.952 2.088,3.024 2.376,3.169 2.52,2.952 2.16,2.807 1.8,2.52 1.008,2.16 0.791,-2.088 1.729,-2.592 L 0.72,27.721 3.096,24.769 5.256,21.672 7.271,18.647 8.64,15.624 9.144,12.744 8.712,10.368 7.56,8.567 5.76,7.2 3.672,6.769 1.512,7.2 l -1.944,1.153 -1.297,1.798 -0.503,2.162 0.36,2.086 0.863,1.801 H -1.801 L -3.097,13.176 -3.24,9 -2.232,4.464 Z" style="fill:#000000;fill-opacity:1;fill-rule:nonzero;stroke:none" id="path4344"/>
  </g>
  <g id="g4346" transform="matrix(1.3333330154418945, 0, 0, -1.3333330154418945, 2500.6693624026666, 1297.5167688291076)">
    <path d="M 0,0 0.72,-7.056 0,-13.969 l -4.823,0.145 8.927,-5.472 v -32.04 l -6.263,2.808 -0.937,-1.512 7.2,-12.6 v -16.129 l -32.616,-15.12 -0.719,-0.359 -0.361,-0.433 1.153,-0.431 1.007,-0.648 0.36,-1.296 -0.36,-1.728 -1.007,-1.08 -1.369,-0.575 -1.368,-0.145 h -0.504 l 0.361,0.648 0.935,0.072 0.792,0.143 0.72,0.433 0.648,0.648 0.288,1.44 -0.36,1.152 -0.504,0.288 -0.504,0.216 -0.72,0.071 -0.504,-0.071 -0.215,-0.216 -0.072,-0.288 0.215,-2.16 -0.719,-1.728 -0.504,-0.648 -1.369,-3.168 0.504,-0.576 0.792,-1.008 1.081,-4.176 -0.504,-4.104 -1.369,-4.176 -1.511,-3.601 2.663,-10.727 h -48.455 l 5.111,10.727 1.584,4.033 -1.8,4.824 -1.584,5.544 0.649,0.504 0.863,0.288 0.792,0.288 0.864,0.288 1.008,2.735 -0.36,0.361 -0.072,0.505 0.504,1.584 -0.576,2.447 0.433,0.792 0.575,0.648 0.576,0.504 0.72,0.432 h 0.793 l 1.008,0.072 h 1.151 l 1.296,0.071 -13.104,7.345 -2.087,-7.632 h -14.545 l -0.719,7.344 0.719,6.84 4.753,-0.145 -9.72,5.257 v 30.817 l 9.071,-2.305 1.008,0.864 -10.079,15.264 v 14.76 l 33.407,15.48 0.721,0.216 0.288,0.504 -1.08,0.432 -1.009,0.72 -0.36,1.224 0.36,1.728 1.009,1.079 1.367,0.504 1.368,0.217 0.144,-0.647 -0.936,-0.074 -0.792,-0.143 -0.72,-0.432 -0.648,-0.648 -0.359,-1.368 0.431,-1.224 1.008,-0.504 0.648,-0.072 0.792,0.288 0.073,0.288 -0.217,2.231 0.72,1.729 -0.144,0.576 2.16,3.168 -0.504,0.575 -0.936,1.009 -1.008,4.176 0.432,4.248 1.369,4.032 1.512,3.672 -2.809,10.296 h 48.384 l -4.896,-10.296 -1.512,-4.104 1.728,-4.896 1.656,-5.472 -0.719,-0.504 -0.865,-0.288 -0.864,-0.289 -0.863,-0.287 -0.865,-2.664 0.216,-0.432 0.145,-0.504 -0.505,-1.657 0.576,-2.447 -0.432,-0.648 -0.504,-0.648 -0.648,-0.576 -0.72,-0.432 h -0.864 L -27.432,0 h -1.08 l -1.296,-0.072 13.104,-7.344 2.089,7.344 z" style="fill:#000000;fill-opacity:1;fill-rule:nonzero;stroke:none" id="path4348"/>
  </g>
  <g id="g4350" transform="matrix(1.3333330154418945, 0, 0, -1.3333330154418945, 2403.6133959592853, 1368.2693968171336)">
    <path d="M 0,0 -1.008,0.721 -1.872,2.16 -2.016,4.176 v 1.656 l -1.08,1.009 -5.4,1.584 -1.296,1.367 0.145,2.232 0.288,2.376 -0.793,1.944 -1.08,0.936 -1.152,0.72 -1.08,0.648 -0.864,0.792 -0.504,1.441 0.072,1.367 0.649,1.512 0.647,1.152 0.504,2.736 -0.863,2.088 -1.009,1.008 -0.864,1.152 -0.432,1.296 0.36,1.225 1.512,1.8 v 0.359 l -0.576,0.288 h -0.864 l -0.864,-0.143 -0.936,-0.361 -0.936,-0.864 -0.648,-1.079 -0.216,-1.44 0.864,-1.657 1.296,-1.439 1.224,-1.441 0.216,-1.799 -0.864,-2.016 -1.008,-2.017 -0.576,-1.872 0.936,-1.944 0.576,-0.504 1.153,-0.792 1.079,-0.72 0.936,-0.72 1.08,-2.16 0.072,-2.808 0.216,-2.735 1.441,-1.945 1.079,-0.359 1.008,-0.217 1.008,-0.072 0.936,-0.215 1.872,-1.369 1.08,-2.447 1.008,-2.52 1.872,-1.801 0.36,1.296 z" style="fill:#c0c0ff;fill-opacity:1;fill-rule:nonzero;stroke:none" id="path4352"/>
  </g>
  <g id="g4354" transform="matrix(1.3333330154418945, 0, 0, -1.3333330154418945, 2469.277442803752, 1353.9647534177311)">
    <path d="m 0,0 1.08,-0.72 0.792,-1.512 0.144,-1.872 0.144,-1.728 1.008,-1.08 5.473,-1.584 1.223,-1.296 -0.143,-2.16 -0.217,-2.521 0.792,-1.943 1.152,-0.937 1.08,-0.792 1.008,-0.575 0.864,-0.864 0.576,-1.224 -0.144,-1.512 -0.648,-1.441 -0.648,-1.223 -0.432,-2.592 0.792,-2.088 1.008,-1.08 0.936,-1.225 0.36,-1.223 -0.36,-1.153 -1.512,-1.871 v -0.432 l 0.576,-0.216 h 0.936 l 0.864,0.072 0.937,0.359 0.935,0.865 0.576,1.223 0.216,1.296 -0.792,1.801 -1.368,1.367 -1.224,1.441 -0.144,1.728 0.864,2.016 1.008,2.016 0.505,1.944 -0.937,1.944 -0.576,0.504 -1.08,0.792 -1.152,0.792 -0.936,0.576 -1.08,2.159 v 2.809 l -0.216,2.807 -1.511,1.873 -1.008,0.36 -1.08,0.216 -0.937,0.216 -0.936,0.072 -1.944,1.44 -0.936,2.375 -1.224,2.593 -1.8,1.944 -0.36,-1.369 z" style="fill:#c0c0ff;fill-opacity:1;fill-rule:nonzero;stroke:none" id="path4356"/>
  </g>
  <g id="g4358" transform="matrix(1.3333330154418945, 0, 0, -1.3333330154418945, 2467.7409848367392, 1353.8697013570602)">
    <path d="M 0,0 6.912,34.849 6.408,35.209 5.832,35.713 -0.72,2.376 H -7.056 V 42.48 l -1.584,0.216 -1.655,0.217 -1.728,0.215 -1.584,0.433 -1.657,0.431 -1.584,0.504 -1.44,0.576 -1.151,0.72 -0.289,-0.792 -0.503,-0.791 -0.504,-0.721 -0.649,-0.719 -0.935,-0.504 -1.08,-0.361 -0.936,-0.216 -1.225,-0.215 -1.295,0.144 -1.153,0.071 -1.296,0.216 -1.008,0.217 -0.648,-0.36 -0.936,-0.288 V 1.801 h -6.983 l 0.144,7.92 -0.433,8.424 -1.8,8.064 -3.887,6.839 -0.865,1.152 -0.935,0.792 -0.937,0.792 -0.792,0.721 -6.552,-2.736 5.113,-3.601 3.672,-3.6 2.376,-3.599 1.44,-3.96 0.72,-4.105 0.359,-4.464 0.433,-4.967 0.431,-5.544 z" style="fill:#ffffff;fill-opacity:1;fill-rule:nonzero;stroke:none" id="path4360"/>
  </g>
  <g id="g4362" transform="matrix(1.3333330154418945, 0, 0, -1.3333330154418945, 2496.7331654244626, 1314.7017012553372)">
    <path d="M 0,0 H 2.088 L 2.377,0.648 V 1.369 L -3.527,1.944 -3.815,1.801 -4.176,1.44 -4.392,1.656 V 2.16 L -6.048,2.449 -6.191,2.16 -6.048,1.656 Z" style="fill:#ffffff;fill-opacity:1;fill-rule:nonzero;stroke:none" id="path4364"/>
  </g>
  <g id="g4366" transform="matrix(1.3333330154418945, 0, 0, -1.3333330154418945, 2486.365980396193, 1311.244630139463)">
    <path d="M 0,0 0.071,0.144 1.08,7.199 7.344,8.352 6.84,8.712 6.336,9.216 H -3.096 L -4.969,2.88 -0.217,0 h 0.145 z" style="fill:#ffffff;fill-opacity:1;fill-rule:nonzero;stroke:none" id="path4368"/>
  </g>
  <g id="g4370" transform="matrix(1.3333330154418945, 0, 0, -1.3333330154418945, 2498.076915104088, 1311.244630139463)">
    <path d="M 0,0 H 1.152 L 1.369,0.575 V 1.296 L -5.04,1.728 -5.327,1.152 -5.76,0.936 -5.688,1.368 -5.76,1.728 H -7.487 L -7.703,1.512 -7.487,1.296 Z" style="fill:#ffffff;fill-opacity:1;fill-rule:nonzero;stroke:none" id="path4372"/>
  </g>
  <g id="g4374" transform="matrix(1.3333330154418945, 0, 0, -1.3333330154418945, 2487.806084219512, 1307.3085145414482)">
    <path d="M 0,0 H 8.855 L 9.144,0.647 V 1.439 L 3.023,0.792 2.808,0.432 2.448,0.144 1.943,0.863 H 1.512 L 1.079,0.72 0.575,0.647 H 0.216 Z" style="fill:#ffffff;fill-opacity:1;fill-rule:nonzero;stroke:none" id="path4376"/>
  </g>
  <g id="g4378" transform="matrix(1.3333330154418945, 0, 0, -1.3333330154418945, 2488.6693652636895, 1304.33317345395)">
    <path d="M 0,0 8.784,0.648 8.425,3.24 7.2,2.52 5.904,1.872 4.464,1.368 2.736,0.864 2.521,0.576 2.16,0.144 2.016,0.576 1.872,0.792 H 1.296 L 0.36,0.576 0,0.288 Z" style="fill:#ffffff;fill-opacity:1;fill-rule:nonzero;stroke:none" id="path4380"/>
  </g>
  <g id="g4382" transform="matrix(1.3333330154418945, 0, 0, -1.3333330154418945, 2420.0300587119127, 1285.5167716901308)">
    <path d="m 0,0 h 0.432 0.36 l -1.08,3.96 -0.072,4.104 0.792,4.176 1.439,3.959 -0.432,0.289 H 0.792 l -0.864,-1.081 -0.72,-1.223 -0.576,-1.296 -0.792,-1.44 -0.792,-2.736 -0.144,-2.88 0.503,-2.736 1.225,-2.448 z" style="fill:#ffff80;fill-opacity:1;fill-rule:nonzero;stroke:none" id="path4384"/>
  </g>
  <g id="g4386" transform="matrix(1.3333330154418945, 0, 0, -1.3333330154418945, 2456.5092166812683, 1300.9738399449816)">
    <path d="m 0,0 v -34.271 l -0.216,-1.152 -0.648,-0.936 -0.936,-0.72 -1.152,-0.217 h -15.624 l -1.152,0.217 -0.936,0.72 -0.72,0.936 -0.216,1.152 V 0 l 0.936,-1.439 2.592,-1.008 3.24,-0.72 4.032,-0.145 3.96,0.145 3.385,0.791 2.591,1.009 z" style="fill:#000000;fill-opacity:1;fill-rule:nonzero;stroke:none" id="path4388"/>
  </g>
  <g id="g4390" transform="matrix(1.3333330154418945, 0, 0, -1.3333330154418945, 2455.7409876977617, 1305.1964951882221)">
    <path d="m 0,0 v -30.24 l -0.215,-1.08 -0.577,-0.865 -0.792,-0.648 -1.151,-0.144 h -14.328 l -1.081,0.144 -0.864,0.648 -0.72,0.865 -0.144,1.08 V 0 l 0.936,-1.368 2.305,-1.009 2.88,-0.575 3.671,-0.144 3.745,0.144 3.239,0.647 2.233,1.009 z" style="fill:#ffc0c0;fill-opacity:1;fill-rule:nonzero;stroke:none" id="path4392"/>
  </g>
  <g id="g4394" transform="matrix(1.3333330154418945, 0, 0, -1.3333330154418945, 2478.3008781523968, 1423.180862403602)">
    <path d="M 0,0 H 8.856 L 6.625,-4.32 5.545,-9 l 0.143,-4.104 1.224,-3.024 h 0.864 l -1.007,1.8 -0.216,2.016 0.431,2.304 1.441,1.728 1.872,1.152 2.088,0.504 2.232,-0.504 1.655,-1.296 1.224,-1.944 0.36,-2.232 -0.431,-2.88 -1.513,-2.953 -2.088,-3.095 -2.375,-3.096 -2.52,-3.097 -2.304,-2.807 -1.729,-2.52 -0.935,-2.304 -1.008,2.304 -1.513,2.52 -2.159,2.807 -2.304,3.025 -2.232,3.096 -2.016,3.024 -1.369,3.096 -0.504,2.88 0.432,2.232 1.152,1.944 1.8,1.296 2.089,0.504 2.159,-0.504 1.872,-1.152 1.441,-1.728 0.504,-2.304 -0.432,-2.016 -0.793,-1.8 H 1.873 L 3.097,-13.104 3.24,-9 2.161,-4.32 Z" style="fill:#000000;fill-opacity:1;fill-rule:nonzero;stroke:none" id="path4396"/>
  </g>
  <g id="g4398" transform="matrix(1.3333330154418945, 0, 0, -1.3333330154418945, 2405.1498539262975, 1368.5571571651928)">
    <path d="m 0,0 -6.84,-34.92 0.504,-0.433 0.576,-0.359 6.48,33.191 h 6.336 v -40.103 l 1.584,-0.072 1.656,-0.288 1.728,-0.287 1.656,-0.361 1.656,-0.504 1.512,-0.431 1.368,-0.649 1.296,-0.647 0.217,0.792 0.503,0.718 0.576,0.793 0.648,0.648 0.864,0.576 1.008,0.36 1.008,0.288 1.224,0.072 1.295,-0.072 1.225,-0.215 1.08,-0.073 1.153,-0.216 0.647,0.289 1.008,0.287 v 39.744 h 6.84 v -7.92 l 0.505,-8.424 1.727,-8.063 3.96,-6.913 0.792,-1.152 0.937,-0.719 0.935,-0.793 0.936,-0.864 6.48,2.88 -5.328,3.601 -3.528,3.527 -2.304,3.744 -1.512,3.817 -0.72,4.175 -0.36,4.392 -0.288,5.112 -0.576,5.544 z" style="fill:#ffffff;fill-opacity:1;fill-rule:nonzero;stroke:none" id="path4400"/>
  </g>
  <g id="g4402" transform="matrix(1.3333330154418945, 0, 0, -1.3333330154418945, 2376.157673338574, 1407.8214096853737)">
    <path d="M 0,0 H -2.088 L -2.304,-0.647 V -1.512 L 3.6,-2.016 3.96,-1.8 4.248,-1.512 4.464,-1.656 4.536,-2.231 6.12,-2.448 6.264,-2.088 6.12,-1.656 Z" style="fill:#ffffff;fill-opacity:1;fill-rule:nonzero;stroke:none" id="path4404"/>
  </g>
  <g id="g4406" transform="matrix(1.3333330154418945, 0, 0, -1.3333330154418945, 2386.621212510538, 1411.2771380281301)">
    <path d="m 0,0 -0.072,-0.144 -0.144,-0.072 -0.863,-6.983 -6.409,-1.153 0.505,-0.288 0.647,-0.504 H 3.097 L 5.041,-2.88 0.217,0 H 0.072 Z" style="fill:#ffffff;fill-opacity:1;fill-rule:nonzero;stroke:none" id="path4408"/>
  </g>
  <g id="g4410" transform="matrix(1.3333330154418945, 0, 0, -1.3333330154418945, 2374.9102778026427, 1411.2771380281301)">
    <path d="m 0,0 h -1.296 l -0.217,-0.576 v -0.72 L 5.039,-1.728 5.399,-1.152 5.76,-1.008 5.688,-1.368 5.831,-1.8 H 7.56 l 0.144,0.288 -0.144,0.216 z" style="fill:#ffffff;fill-opacity:1;fill-rule:nonzero;stroke:none" id="path4412"/>
  </g>
  <g id="g4414" transform="matrix(1.3333330154418945, 0, 0, -1.3333330154418945, 2385.1824107702414, 1415.1170012076875)">
    <path d="m 0,0 h -9.072 l -0.145,-0.72 v -0.792 l 6.12,0.72 0.288,0.145 0.288,0.359 0.432,-0.649 h 0.433 l 0.575,0.145 h 0.504 0.432 z" style="fill:#ffffff;fill-opacity:1;fill-rule:nonzero;stroke:none" id="path4416"/>
  </g>
  <g id="g4418" transform="matrix(1.3333330154418945, 0, 0, -1.3333330154418945, 2384.221473499347, 1418.1885947136436)">
    <path d="m 0,0 -8.784,-0.576 0.288,-2.737 1.224,0.793 1.369,0.648 1.511,0.432 1.584,0.576 0.36,0.288 0.36,0.432 v -0.361 l 0.216,-0.287 0.504,-0.072 1.08,0.288 0.36,0.288 z" style="fill:#ffffff;fill-opacity:1;fill-rule:nonzero;stroke:none" id="path4420"/>
  </g>
  <g id="g4422" transform="matrix(1.3333330154418945, 0, 0, -1.3333330154418945, 2447.8698958243767, 1436.7172564744506)">
    <path d="M 0,0 H -0.504 L -0.864,0.145 -1.296,0 l -0.36,-0.216 -0.216,-0.216 -0.216,-0.36 1.079,-2.016 0.793,-2.303 0.36,-2.521 L 0,-10.08 l -0.504,-3.096 -0.936,-2.952 0.072,-0.288 0.216,-0.216 h 0.504 0.576 0.432 l 0.432,0.216 1.512,3.528 L 3.024,-9 2.808,-5.039 1.584,-1.296 0.936,-0.576 0.144,0 Z" style="fill:#ffff80;fill-opacity:1;fill-rule:nonzero;stroke:none" id="path4424"/>
  </g>
  <g id="g4426" transform="matrix(1.3333330154418945, 0, 0, -1.3333330154418945, 2435.9649507460717, 1436.7172564744506)">
    <path d="M 0,0 H -0.287 -0.72 l -0.288,-0.144 -0.287,-0.215 1.512,-3.457 0.576,-4.104 0.288,-4.464 -0.36,-4.392 0.288,-0.144 0.504,0.072 0.504,0.072 0.504,0.144 0.864,4.032 0.071,4.104 -0.575,3.961 -1.368,3.527 z" style="fill:#ffff80;fill-opacity:1;fill-rule:nonzero;stroke:none" id="path4428"/>
  </g>
  <g id="g4430" transform="matrix(1.3333330154418945, 0, 0, -1.3333330154418945, 2452.957134194818, 1437.0049964774626)">
    <path d="m 0,0 h -0.432 -0.431 l 1.152,-3.96 v -4.104 l -0.721,-4.175 -1.584,-3.961 0.504,-0.361 h 0.649 l 0.935,1.081 0.721,1.224 0.647,1.368 0.72,1.44 0.792,2.736 0.217,2.88 -0.505,2.736 -1.224,2.448 z" style="fill:#ffff80;fill-opacity:1;fill-rule:nonzero;stroke:none" id="path4432"/>
  </g>
  <g id="g4434" transform="matrix(1.3333330154418945, 0, 0, -1.3333330154418945, 2441.2448974039, 1437.0049964774626)">
    <path d="m 0,0 h -0.504 -0.503 l -0.432,-0.144 -0.432,-0.216 1.727,-3.671 0.792,-4.033 -0.215,-4.32 -0.937,-4.177 h 2.736 l 1.081,2.881 0.503,3.168 v 3.025 L 3.313,-4.393 2.736,-2.88 2.089,-1.728 1.225,-0.72 Z" style="fill:#ffff80;fill-opacity:1;fill-rule:nonzero;stroke:none" id="path4436"/>
  </g>
  <g id="g4438" transform="matrix(1.3333330154418945, 0, 0, -1.3333330154418945, 2377.406370957528, 1423.3735096558485)">
    <path d="m 0,0 -2.736,-0.071 0.575,0.431 1.009,0.361 z" style="fill:#ffffff;fill-opacity:1;fill-rule:nonzero;stroke:none" id="path4440"/>
  </g>
  <g id="g4442" transform="matrix(1.3333330154418945, 0, 0, -1.3333330154418945, 2342.5574209328333, 1245.964779166938)">
    <path d="m 0,0 h 2.521 v -2.232 l 0.143,-1.224 0.649,-1.08 0.36,-0.288 0.504,-0.288 0.431,-0.216 h 0.577 0.503 l 0.432,0.216 0.433,0.288 0.359,0.216 0.648,1.08 0.144,1.296 v 17.208 h 2.592 V -1.944 L 10.08,-3.744 9.648,-5.184 9.288,-5.832 8.784,-6.336 8.28,-6.841 7.776,-7.2 7.2,-7.488 6.48,-7.704 5.904,-7.848 H 5.257 4.681 L 4.177,-7.704 H 3.6 L 3.096,-7.488 2.521,-7.271 2.016,-6.984 1.44,-6.48 1.009,-5.977 0.216,-4.32 0,-2.232 Z" style="fill:#000000;fill-opacity:1;fill-rule:nonzero;stroke:none" id="path4444"/>
  </g>
  <g id="g4446" transform="matrix(1.3333330154418945, 0, 0, -1.3333330154418945, 2529.086022294273, 1476.844851073951)">
    <path d="m 0,0 h -2.521 v 2.16 l -0.143,1.224 -0.721,1.08 -0.359,0.36 -0.433,0.287 -0.576,0.145 H -5.257 -5.76 L -6.265,5.111 -6.696,4.824 -7.056,4.464 -7.561,3.527 -7.776,2.16 v -17.208 h -2.592 V 2.016 l 0.144,1.656 0.576,1.439 0.36,0.649 0.432,0.576 0.503,0.432 0.577,0.432 0.576,0.287 0.576,0.145 0.72,0.143 0.576,0.074 h 0.575 L -4.177,7.775 -3.673,7.632 -3.168,7.487 -2.593,7.272 -2.017,6.912 -1.512,6.48 -1.009,5.977 -0.216,4.319 0,2.16 Z" style="fill:#000000;fill-opacity:1;fill-rule:nonzero;stroke:none" id="path4448"/>
  </g>
  <g id="g4450" transform="matrix(1.3333330154418945, 0, 0, -1.3333330154418945, 2492.5092080981995, 1297.613163662896)">
    <path d="m 0,0 1.944,2.16 0.792,2.448 -0.504,2.376 -1.08,1.871 -1.872,4.681 2.952,8.929 0.216,1.871 -0.288,1.801 -0.863,1.223 -1.225,0.865 -1.151,0.647 -1.369,0.288 -1.728,-0.072 -1.296,-0.432 -1.223,-0.864 -1.08,-1.367 -0.577,-1.513 0.073,-2.304 0.576,-1.8 0.72,-1.008 0.504,-0.575 1.295,-4.681 -1.08,-2.88 L -7.488,8.568 -8.063,5.256 -7.271,2.088 -6.768,1.296 -6.191,0.721 -5.615,0.288 -4.896,0 Z" style="fill:#000000;fill-opacity:1;fill-rule:nonzero;stroke:none" id="path4452"/>
  </g>
  <g id="g4454" transform="matrix(1.3333330154418945, 0, 0, -1.3333330154418945, 2486.461032456864, 1259.5011528927391)">
    <path d="m 0,0 -0.936,-0.504 -1.007,-0.647 -0.792,-1.008 -0.577,-1.225 -0.144,-1.224 0.144,-1.368 0.36,-1.512 1.009,-1.008 0.647,-0.504 1.008,-0.359 1.08,-0.217 0.721,0.217 0.792,2.591 H 1.368 l -1.008,0.36 -0.792,0.792 v 1.512 l 0.577,0.936 1.08,0.433 1.08,-0.073 0.719,-0.864 -0.503,-3.96 -1.512,-4.103 -1.872,-4.105 -1.584,-4.319 -0.576,-3.529 1.08,-3.24 1.296,-0.935 1.295,-0.361 1.513,-0.072 h 1.655 l 1.008,0.576 0.72,0.792 0.576,0.936 0.649,1.152 v 1.368 l -0.073,1.224 -0.576,1.225 -0.935,1.007 -0.649,0.361 -0.864,0.431 -0.792,0.073 -0.792,-0.073 -1.079,-2.376 h 1.727 l 1.08,-0.935 0.361,-1.441 -0.864,-1.44 -0.792,-0.36 h -0.72 l -0.864,0.36 -0.649,0.721 L 0,-23.976 v 0.792 l 0.217,0.792 0.216,0.792 1.007,2.233 0.504,1.151 0.361,1.153 3.815,10.368 0.36,1.727 -0.215,2.16 -0.936,1.584 -1.657,0.865 -1.728,0.504 z" style="fill:#ffff80;fill-opacity:1;fill-rule:nonzero;stroke:none" id="path4456"/>
  </g>
  <g id="g4458" transform="matrix(1.3333330154418945, 0, 0, -1.3333330154418945, 2490.9740522142097, 1280.0454188279364)">
    <path d="M 0,0 -1.08,-3.312 0,-3.384 0.936,-3.6 1.512,-3.959 1.8,-4.104 Z" style="fill:#ffff80;fill-opacity:1;fill-rule:nonzero;stroke:none" id="path4460"/>
  </g>
  <g id="g4462" transform="matrix(1.3333330154418945, 0, 0, -1.3333330154418945, 2486.365980396193, 1277.5481049702178)">
    <path d="M 0,0 1.512,3.6 0.936,3.527 0.288,3.6 -0.36,3.743 -1.152,3.959 Z" style="fill:#ffff80;fill-opacity:1;fill-rule:nonzero;stroke:none" id="path4464"/>
  </g>
  <g id="g4466" transform="matrix(1.3333330154418945, 0, 0, -1.3333330154418945, 2495.485769888532, 1299.0533081763099)">
    <path d="M 0,0 2.736,0.072 2.16,-0.432 1.152,-0.792 Z" style="fill:#ffffff;fill-opacity:1;fill-rule:nonzero;stroke:none" id="path4468"/>
  </g>
  <g id="g4470" transform="matrix(1.3333330154418945, 0, 0, -1.3333330154418945, 2488.2852507719363, 1263.9178185063904)">
    <path d="M 0,0 H 0.433 L 0.793,-0.215 1.08,-0.359 1.152,-0.575 0.864,-2.951 0.433,-3.023 H 0 l -0.359,0.072 -0.361,0.144 -0.288,0.215 -0.216,0.288 -0.215,0.433 -0.073,0.359 0.073,0.72 0.431,0.433 L -0.576,0 Z" style="fill:#ffc0c0;fill-opacity:1;fill-rule:nonzero;stroke:none" id="path4472"/>
  </g>
  <g id="g4474" transform="matrix(1.3333330154418945, 0, 0, -1.3333330154418945, 2489.0534797554437, 1293.3891656465387)">
    <path d="m 0,0 -0.648,0.216 -0.36,0.505 -0.288,0.431 -0.216,0.432 0.432,1.728 0.504,0.073 h 0.432 L 0.36,3.312 0.792,3.168 1.152,2.881 1.44,2.664 1.656,2.305 1.728,1.872 1.584,1.08 1.296,0.504 0.792,0.145 Z" style="fill:#ffc0c0;fill-opacity:1;fill-rule:nonzero;stroke:none" id="path4476"/>
  </g>
  <g id="g4478" transform="matrix(1.3333330154418945, 0, 0, -1.3333330154418945, 2379.806109968719, 1424.4281969043914)">
    <path d="m 0,0 -2.017,-2.16 -0.719,-2.448 0.504,-2.376 1.08,-1.872 1.799,-4.681 -2.879,-8.927 -0.216,-1.872 0.288,-1.801 0.863,-1.223 1.225,-0.865 1.08,-0.647 1.44,-0.288 1.728,0.071 1.296,0.433 1.223,0.863 1.08,1.44 0.577,1.44 -0.073,2.305 -0.576,1.799 -0.72,1.008 -0.504,0.576 -1.295,4.68 1.08,2.881 1.152,3.096 0.647,3.312 L 7.271,-2.089 6.768,-1.297 6.191,-0.721 5.544,-0.289 4.896,0 Z" style="fill:#000000;fill-opacity:1;fill-rule:nonzero;stroke:none" id="path4480"/>
  </g>
  <g id="g4482" transform="matrix(1.3333330154418945, 0, 0, -1.3333330154418945, 2385.852983527031, 1462.541530102619)">
    <path d="M 0,0 0.937,0.504 1.944,1.152 2.736,2.232 3.313,3.384 3.456,4.681 3.313,5.977 2.881,7.488 1.944,8.496 1.297,9 0.289,9.36 -0.791,9.576 -1.512,9.36 -2.376,6.769 h 0.937 L -0.359,6.408 0.433,5.616 V 4.104 l -0.577,-0.935 -1.08,-0.433 -1.08,0.073 -0.719,0.863 0.431,4.032 1.512,4.032 1.873,4.105 1.655,4.32 0.576,3.527 -1.08,3.241 -1.296,0.935 -1.295,0.361 -1.512,0.071 h -1.656 l -1.008,-0.575 -0.792,-0.792 -0.504,-0.937 -0.649,-1.151 v -1.368 l 0.073,-1.224 0.576,-1.225 0.935,-1.007 0.649,-0.361 0.863,-0.431 0.793,-0.073 0.792,0.073 1.007,2.376 h -1.655 l -1.08,0.936 -0.361,1.44 0.864,1.44 0.72,0.359 h 0.793 L -0.936,25.417 -0.287,24.696 0,23.977 V 23.185 L -0.215,22.393 -0.503,21.601 -1.439,19.368 -1.943,18.217 -2.376,17.064 -6.119,6.696 -6.552,4.968 -6.264,2.809 -5.327,1.225 -3.672,0.36 -1.943,-0.144 Z" style="fill:#ffff80;fill-opacity:1;fill-rule:nonzero;stroke:none" id="path4484"/>
  </g>
  <g id="g4486" transform="matrix(1.3333330154418945, 0, 0, -1.3333330154418945, 2381.3425679357315, 1441.9008489885855)">
    <path d="M 0,0 1.007,3.312 H 0 L -0.865,3.528 -1.44,3.96 -1.729,4.104 Z" style="fill:#ffff80;fill-opacity:1;fill-rule:nonzero;stroke:none" id="path4488"/>
  </g>
  <g id="g4490" transform="matrix(1.3333330154418945, 0, 0, -1.3333330154418945, 2385.949337670725, 1444.4920552392834)">
    <path d="m 0,0 -1.512,-3.457 0.576,0.072 0.72,-0.072 0.576,-0.144 0.72,-0.36 z" style="fill:#ffff80;fill-opacity:1;fill-rule:nonzero;stroke:none" id="path4492"/>
  </g>
  <g id="g4494" transform="matrix(1.3333330154418945, 0, 0, -1.3333330154418945, 2376.829548178386, 1422.8931427456375)">
    <path d="m 0,0 h -2.808 l 0.72,0.36 1.008,0.432 z" style="fill:#ffffff;fill-opacity:1;fill-rule:nonzero;stroke:none" id="path4496"/>
  </g>
  <g id="g4498" transform="matrix(1.3333330154418945, 0, 0, -1.3333330154418945, 2383.9337131512875, 1458.1248644889674)">
    <path d="m 0,0 h -0.359 l -0.361,0.216 -0.217,0.143 -0.215,0.217 0.36,2.304 0.433,0.072 H 0 L 0.432,2.88 0.792,2.809 1.08,2.592 1.296,2.304 1.512,1.872 V 1.512 0.863 L 1.08,0.359 0.648,0.071 Z" style="fill:#ffc0c0;fill-opacity:1;fill-rule:nonzero;stroke:none" id="path4500"/>
  </g>
  <g id="g4502" transform="matrix(1.3333330154418945, 0, 0, -1.3333330154418945, 2383.165484167781, 1428.6521949207493)">
    <path d="M 0,0 0.721,-0.217 1.08,-0.721 1.368,-1.152 1.513,-1.584 1.152,-3.313 0.576,-3.385 H 0.217 l -0.505,0.072 -0.432,0.145 -0.36,0.288 -0.287,0.216 -0.217,0.359 -0.072,0.433 0.144,0.792 0.288,0.576 0.504,0.359 z" style="fill:#ffc0c0;fill-opacity:1;fill-rule:nonzero;stroke:none" id="path4504"/>
  </g>
  <g id="g4506" transform="matrix(1.3333330154418945, 0, 0, -1.3333330154418945, 2440.9571370558406, 1286.956916203544)">
    <path d="M 0,0 H -1.08 -2.231 L -3.24,0.288 -4.247,0.648 -5.328,0.145 -6.408,0 l -1.296,0.145 -1.151,0.431 -1.153,-0.72 -1.512,-0.215 -1.511,-0.073 -1.657,-0.36 -2.087,-2.88 -0.361,0.145 -0.216,0.287 0.937,0.935 0.647,1.08 -0.503,0.433 -0.865,0.36 -1.727,-3.6 -0.576,-1.008 -0.145,-1.439 0.217,-0.433 0.431,-0.504 0.504,-0.216 0.577,-0.072 0.071,0.072 0.144,0.361 -0.144,1.439 0.505,1.296 0.575,0.647 0.433,0.362 h 0.288 v -0.217 l -0.792,-1.656 0.36,-1.871 0.432,-0.217 0.431,-0.144 0.433,-0.072 h 0.431 l 0.216,1.225 0.144,1.294 1.369,1.658 h 0.215 l 0.144,-0.217 -0.576,-1.08 -0.143,-1.296 0.288,-1.151 1.223,-0.649 1.296,0.432 -0.36,2.088 0.721,1.584 0.36,0.289 h 0.144 l 0.288,-0.145 0.071,-0.36 -0.359,-1.728 0.503,-1.728 0.504,-0.216 0.433,-0.071 h 0.503 0.504 l -0.432,1.296 0.145,1.439 0.647,1.296 1.584,1.008 h 1.368 l 0.937,2.52 0.359,-0.072 0.217,-0.433 -1.08,-2.806 0.287,-1.297 -0.359,-1.296 -0.217,0.216 0.072,1.584 -0.216,0.431 -0.431,0.362 h -0.649 l -0.504,-0.145 -0.864,-0.864 -0.359,-1.44 0.359,-0.864 0.505,-0.648 0.72,-0.216 h 0.864 0.72 l 0.576,0.288 1.512,1.152 0.792,1.296 0.359,1.728 z" style="fill:#ffff80;fill-opacity:1;fill-rule:nonzero;stroke:none" id="path4508"/>
  </g>
  <g id="g4510" transform="matrix(1.3333330154418945, 0, 0, -1.3333330154418945, 2442.3008867354665, 1284.8448968503183)">
    <path d="M 0,0 1.513,-0.288 3.385,0.072 4.608,1.152 5.185,2.664 5.112,3.672 4.32,4.536 2.664,5.184 1.513,4.536 0.937,3.24 1.513,2.088 1.584,1.728 1.225,1.512 0.36,2.231 0,3.384 0.217,4.536 0.648,5.184 -0.144,7.775 -0.504,10.44 -0.287,13.104 0.36,15.84 0,16.128 h -0.575 -0.721 -0.503 l -0.864,-1.225 -0.36,-1.511 -0.216,-1.44 -0.144,-1.656 0.144,-2.735 0.359,-2.809 0.792,-2.521 0.792,-1.368 z" style="fill:#ffff80;fill-opacity:1;fill-rule:nonzero;stroke:none" id="path4512"/>
  </g>
  <g id="g4514" transform="matrix(1.3333330154418945, 0, 0, -1.3333330154418945, 2445.8529692219163, 1263.3410364173435)">
    <path d="m 0,0 -1.151,-1.655 -0.577,-1.946 -0.215,-2.303 v -2.088 l 0.288,-1.296 0.504,-1.08 0.792,0.288 h 1.08 l 0.792,-0.288 0.792,-0.504 0.935,-1.296 0.216,-1.512 -0.288,-1.296 -0.72,-1.007 -0.935,-0.866 -1.153,-0.575 -1.872,-0.217 -1.367,0.217 -0.072,-1.801 v -1.367 l 1.512,-1.296 2.16,-1.008 2.447,-0.72 2.736,-0.575 2.664,-0.433 2.592,-0.145 h 2.233 l 1.656,0.217 0.647,0.361 0.505,0.359 0.432,0.576 0.287,0.72 -0.359,1.8 0.359,1.799 -1.871,-0.792 -0.792,-1.295 0.287,2.88 0.505,-0.432 2.304,1.513 0.503,1.223 0.792,1.152 0.577,0.216 0.576,0.216 0.504,0.216 0.431,0.36 -1.296,5.256 -1.655,4.536 v 0.792 l 0.144,0.792 0.504,0.865 0.719,0.935 v 0.36 0.289 z" style="fill:#ffffff;fill-opacity:1;fill-rule:nonzero;stroke:none" id="path4516"/>
  </g>
  <g id="g4518" transform="matrix(1.3333330154418945, 0, 0, -1.3333330154418945, 2414.0769351312483, 1291.6600807723262)">
    <path d="m 0,0 -0.72,-1.657 0.145,-2.52 -0.792,-0.288 -0.649,0.072 -1.007,0.504 -0.432,1.224 0.287,1.368 1.44,1.08 z" style="fill:#ffff80;fill-opacity:1;fill-rule:nonzero;stroke:none" id="path4520"/>
  </g>
  <g id="g4522" transform="matrix(1.3333330154418945, 0, 0, -1.3333330154418945, 2432.2214620552554, 1435.4685995455911)">
    <path d="M 0,0 H 1.152 2.305 L 3.24,-0.288 4.32,-0.72 5.4,-0.217 6.48,0 l 1.296,-0.217 1.08,-0.359 1.224,0.72 1.513,0.143 1.439,0.073 1.656,0.432 2.16,2.808 0.289,-0.072 0.288,-0.36 -1.009,-0.936 -0.575,-1.008 0.504,-0.432 0.792,-0.432 1.8,3.6 0.576,1.008 0.143,1.44 L 19.44,6.912 19.009,7.344 18.504,7.56 17.929,7.704 17.856,7.56 17.712,7.271 17.856,5.76 17.352,4.464 16.776,3.888 16.345,3.528 H 16.056 V 3.672 L 16.848,5.399 16.416,7.271 16.056,7.487 15.624,7.56 15.12,7.704 H 14.688 L 14.544,6.408 14.328,5.112 13.032,3.528 H 12.816 L 12.672,3.672 13.248,4.824 13.392,6.12 13.032,7.271 11.88,7.848 10.584,7.487 10.944,5.399 10.224,3.743 9.864,3.528 H 9.648 L 9.433,3.6 9.36,3.96 9.648,5.688 9.144,7.487 8.712,7.704 H 8.28 7.776 7.272 L 7.704,6.408 7.56,4.968 6.912,3.672 5.328,2.663 H 3.96 L 3.024,0.216 H 2.664 L 2.448,0.72 3.384,3.528 3.168,4.752 3.528,6.12 H 3.601 L 3.816,5.904 3.672,4.32 3.96,3.816 4.392,3.528 H 4.968 L 5.472,3.6 6.408,4.464 6.768,5.976 6.408,6.768 5.904,7.487 5.185,7.704 H 4.32 3.601 L 3.024,7.344 1.513,6.264 0.721,4.896 0.288,3.168 Z" style="fill:#ffff80;fill-opacity:1;fill-rule:nonzero;stroke:none" id="path4524"/>
  </g>
  <g id="g4526" transform="matrix(1.3333330154418945, 0, 0, -1.3333330154418945, 2430.87771237563, 1437.5805985537702)">
    <path d="m 0,0 -1.44,0.288 -1.873,-0.433 -1.223,-1.007 -0.576,-1.584 0.072,-0.937 0.792,-0.935 1.656,-0.576 1.152,0.648 0.576,1.296 -0.576,1.151 -0.144,0.289 0.433,0.215 0.863,-0.719 0.288,-1.08 -0.145,-1.152 -0.431,-0.648 0.792,-2.665 0.288,-2.663 -0.145,-2.592 -0.647,-2.808 0.36,-0.217 H 0.647 1.296 1.8 l 0.935,1.225 0.361,1.368 0.217,1.512 0.143,1.656 -0.143,2.808 -0.361,2.736 -0.864,2.52 -0.72,1.44 z" style="fill:#ffff80;fill-opacity:1;fill-rule:nonzero;stroke:none" id="path4528"/>
  </g>
  <g id="g4530" transform="matrix(1.3333330154418945, 0, 0, -1.3333330154418945, 2427.4219840328738, 1459.0858017598623)">
    <path d="m 0,0 1.151,1.584 0.577,2.017 0.216,2.232 v 2.16 L 1.655,9.288 1.151,10.368 0.36,10.08 h -1.081 l -0.863,0.288 -0.792,0.504 -0.864,1.296 -0.216,1.369 0.288,1.367 0.72,1.008 0.864,0.937 1.224,0.576 1.872,0.144 1.368,-0.144 0.071,1.8 v 1.296 l -1.511,1.368 -2.161,0.936 -2.447,0.719 -2.736,0.577 -2.736,0.504 -2.592,0.071 h -2.16 l -1.728,-0.216 -0.576,-0.288 -0.504,-0.359 -0.504,-0.648 -0.216,-0.648 0.36,-1.8 -0.36,-1.8 1.8,0.792 0.863,1.224 -0.359,-2.88 -0.504,0.432 -2.233,-1.512 -0.503,-1.152 -0.792,-1.224 -0.576,-0.144 -0.576,-0.216 -0.576,-0.217 -0.36,-0.503 1.296,-5.184 1.656,-4.464 V 3.097 L -18,2.232 -18.433,1.44 -19.152,0.505 v -0.36 -0.289 z" style="fill:#ffffff;fill-opacity:1;fill-rule:nonzero;stroke:none" id="path4532"/>
  </g>
  <g id="g4534" transform="matrix(1.3333330154418945, 0, 0, -1.3333330154418945, 2458.9102577754825, 1430.7641939289279)">
    <path d="M 0,0 0.72,1.655 0.576,4.176 1.295,4.463 1.872,4.319 2.951,3.888 3.384,2.663 3.096,1.224 1.655,0.144 Z" style="fill:#ffff80;fill-opacity:1;fill-rule:nonzero;stroke:none" id="path4536"/>
  </g>
  <g id="g4538" transform="matrix(1.3333330154418945, 0, 0, -1.3333330154418945, 2443.8373447024787, 1330.9243536375545)">
    <path d="m 0,0 -2.231,0.071 0.864,2.233 -0.361,1.8 H -1.944 L -1.656,3.671 V 3.096 L -2.088,2.087 -3.096,1.8 -4.032,2.159 -4.535,3.312 -3.96,4.607 -2.808,6.191 -1.656,7.704 -0.936,8.855 -0.432,7.704 0.721,6.191 1.729,4.68 2.232,3.312 1.872,2.159 0.937,1.8 l -1.081,0.287 -0.503,1.009 0.215,0.575 0.216,0.433 h -0.216 l -0.432,-1.8 z" style="fill:#ffffff;fill-opacity:1;fill-rule:nonzero;stroke:none" id="path4540"/>
  </g>
  <g id="g4542" transform="matrix(1.3333330154418945, 0, 0, -1.3333330154418945, 2412.0613106118117, 1436.4281940433686)">
    <path d="m 0,0 h -1.296 l -1.151,-0.289 -1.225,-0.504 -1.367,-0.575 0.287,-0.361 h 0.504 l 0.648,0.216 0.649,0.288 0.504,0.216 0.647,0.216 0.648,0.217 0.648,0.143 H 0.432 L 0.937,-1.009 V -1.656 L 0.217,-2.305 -0.287,-2.376 -0.936,-2.16 -0.575,-2.449 0,-2.664 l 0.648,0.215 0.432,0.36 0.072,1.225 z" style="fill:#000000;fill-opacity:1;fill-rule:nonzero;stroke:none" id="path4544"/>
  </g>
  <g id="g4546" transform="matrix(1.3333330154418945, 0, 0, -1.3333330154418945, 2405.342562213686, 1440.652192059726)">
    <path d="m 0,0 -0.793,0.144 -0.72,-0.216 -0.792,-0.288 -0.576,-0.432 0.576,-0.217 0.792,0.217 0.576,0.288 0.577,0.359 H 0 0.287 L 0.575,-0.36 0.863,-0.792 0.575,-0.288 Z" style="fill:#000000;fill-opacity:1;fill-rule:nonzero;stroke:none" id="path4548"/>
  </g>
  <g id="g4550" transform="matrix(1.3333330154418945, 0, 0, -1.3333330154418945, 2408.4128739816665, 1453.8057940668916)">
    <path d="M 0,0 4.104,1.729 3.745,2.017 -0.359,0.217 Z" style="fill:#000000;fill-opacity:1;fill-rule:nonzero;stroke:none" id="path4552"/>
  </g>
  <g id="g4554" transform="matrix(1.3333330154418945, 0, 0, -1.3333330154418945, 2408.605582269054, 1452.5571167929847)">
    <path d="M 0,0 0.936,0.576 1.8,0.937 2.809,1.368 3.96,1.8 3.023,2.304 2.017,2.664 0.936,3.024 0,3.168 H -1.368 L -1.8,1.8 -1.656,0.504 -2.376,-0.72 h 0.216 l 0.504,0.145 0.648,0.359 z" style="fill:#000000;fill-opacity:1;fill-rule:nonzero;stroke:none" id="path4556"/>
  </g>
  <g id="g4558" transform="matrix(1.3333330154418945, 0, 0, -1.3333330154418945, 2411.005321280245, 1449.5805956927472)">
    <path d="m 0,0 -1.224,0.359 0.216,-1.367 1.945,0.575 z" style="fill:#ffffff;fill-opacity:1;fill-rule:nonzero;stroke:none" id="path4560"/>
  </g>
  <g id="g4562" transform="matrix(1.3333330154418945, 0, 0, -1.3333330154418945, 2416.5730282861336, 1453.9008664726098)">
    <path d="m 0,0 -1.655,-0.864 -1.872,-0.144 h -2.016 l -1.944,-0.143 -0.432,-0.362 -0.433,-0.504 -0.431,-0.575 -0.433,-0.576 1.08,0.288 1.224,0.216 1.369,0.072 1.296,0.216 1.295,0.071 1.152,0.362 1.08,0.575 0.865,0.864 0.072,0.36 z" style="fill:#000000;fill-opacity:1;fill-rule:nonzero;stroke:none" id="path4564"/>
  </g>
  <g id="g4566" transform="matrix(1.3333330154418945, 0, 0, -1.3333330154418945, 2423.0053184192225, 1291.2771462933126)">
    <path d="M 0,0 0.72,1.08 1.296,2.305 -0.216,0.144 V 0 Z" style="fill:#000000;fill-opacity:1;fill-rule:nonzero;stroke:none" id="path4568"/>
  </g>
  <g id="g4570" transform="matrix(1.3333330154418945, 0, 0, -1.3333330154418945, 2426.9415153974264, 1290.9894266353479)">
    <path d="M 0,0 0.792,0.937 1.152,2.089 0.36,1.225 -0.216,0.072 H 0 Z" style="fill:#000000;fill-opacity:1;fill-rule:nonzero;stroke:none" id="path4572"/>
  </g>
  <g id="g4574" transform="matrix(1.3333330154418945, 0, 0, -1.3333330154418945, 2431.740993419808, 1290.6053121435943)">
    <path d="M 0,0 0.576,0.937 0.721,2.088 -0.288,0.504 -0.215,0.145 Z" style="fill:#000000;fill-opacity:1;fill-rule:nonzero;stroke:none" id="path4576"/>
  </g>
  <g id="g4578" transform="matrix(1.3333330154418945, 0, 0, -1.3333330154418945, 2425.117297082354, 1285.8058341212127)">
    <path d="M 0,0 H 0.792 L 1.584,0.217 1.729,0.433 1.944,0.721 0.937,2.809 0.145,5.112 -0.144,7.561 0,10.08 l 0.433,3.097 0.935,2.88 v 0.359 L 1.08,16.561 H 0.576 l -0.504,0.144 -0.36,-0.144 -0.504,-0.145 -1.512,-3.6 -0.647,-3.887 0.143,-3.96 1.224,-3.672 0.792,-0.72 L -0.144,0 Z" style="fill:#ffff80;fill-opacity:1;fill-rule:nonzero;stroke:none" id="path4580"/>
  </g>
  <g id="g4582" transform="matrix(1.3333330154418945, 0, 0, -1.3333330154418945, 2438.0769294092033, 1285.8058341212127)">
    <path d="m 0,0 h 0.721 l 0.863,0.289 -1.799,3.6 -0.936,4.104 -0.216,4.32 0.576,4.392 -0.576,0.216 h -0.361 l -0.647,-0.216 -0.721,-0.144 -1.008,-4.033 -0.072,-4.032 0.721,-3.96 1.727,-3.527 z" style="fill:#ffff80;fill-opacity:1;fill-rule:nonzero;stroke:none" id="path4584"/>
  </g>
  <g id="g4586" transform="matrix(1.3333330154418945, 0, 0, -1.3333330154418945, 2431.740993419808, 1285.5167716901308)">
    <path d="m 0,0 h 0.504 0.433 l 0.432,0.145 0.504,0.215 -1.801,3.6 -0.647,4.104 0.072,4.176 1.007,4.248 H -2.088 L -3.312,13.536 -3.815,10.512 V 7.416 L -3.312,4.393 -2.735,2.88 -2.088,1.656 -1.151,0.72 Z" style="fill:#ffff80;fill-opacity:1;fill-rule:nonzero;stroke:none" id="path4588"/>
  </g>
  <g id="g4590" transform="matrix(1.3333330154418945, 0, 0, -1.3333330154418945, 2460.7331740075315, 1285.900886181884)">
    <path d="M 0,0 H 1.296 L 2.521,0.145 3.744,0.648 5.112,1.224 4.824,1.584 H 4.32 L 3.672,1.368 3.024,1.08 2.448,0.792 1.801,0.648 1.225,0.433 0.505,0.288 h -0.792 l -0.504,0.576 0.144,0.72 0.575,0.576 H 0.433 L 0.937,2.088 0.648,2.376 0.145,2.448 -0.504,2.232 -0.936,1.944 -1.008,0.648 Z" style="fill:#000000;fill-opacity:1;fill-rule:nonzero;stroke:none" id="path4592"/>
  </g>
  <g id="g4594" transform="matrix(1.3333330154418945, 0, 0, -1.3333330154418945, 2467.7409848367392, 1281.8697185231977)">
    <path d="M 0,0 H 0.648 L 1.44,0.072 2.232,0.36 2.809,0.721 2.232,1.009 1.44,0.864 0.721,0.505 0.145,0.072 H 0 -0.288 l -0.287,0.361 -0.361,0.288 0.361,-0.504 z" style="fill:#000000;fill-opacity:1;fill-rule:nonzero;stroke:none" id="path4596"/>
  </g>
  <g id="g4598" transform="matrix(1.3333330154418945, 0, 0, -1.3333330154418945, 2464.4779647813702, 1268.717296528772)">
    <path d="m 0,0 -4.032,-1.8 0.36,-0.143 4.104,1.727 z" style="fill:#000000;fill-opacity:1;fill-rule:nonzero;stroke:none" id="path4600"/>
  </g>
  <g id="g4602" transform="matrix(1.3333330154418945, 0, 0, -1.3333330154418945, 2464.381610637676, 1269.9647734448918)">
    <path d="M 0,0 -0.936,-0.504 -1.872,-0.937 -2.809,-1.44 -3.96,-1.801 -2.952,-2.304 -2.016,-2.736 -0.936,-2.952 0,-3.24 H 1.368 L 1.8,-1.729 1.656,-0.433 2.376,0.647 2.16,0.792 1.656,0.576 0.936,0.288 Z" style="fill:#000000;fill-opacity:1;fill-rule:nonzero;stroke:none" id="path4604"/>
  </g>
  <g id="g4606" transform="matrix(1.3333330154418945, 0, 0, -1.3333330154418945, 2461.9818716264854, 1273.036387295895)">
    <path d="M 0,0 1.08,-0.145 0.864,1.08 -0.937,0.432 Z" style="fill:#ffffff;fill-opacity:1;fill-rule:nonzero;stroke:none" id="path4608"/>
  </g>
  <g id="g4610" transform="matrix(1.3333330154418945, 0, 0, -1.3333330154418945, 2456.4128625375743, 1268.5246289314784)">
    <path d="M 0,0 1.584,0.792 3.457,1.008 5.473,0.792 7.345,1.151 7.849,1.367 8.281,1.871 8.641,2.52 9.145,3.096 8.064,2.663 6.769,2.592 5.545,2.52 4.177,2.304 2.881,2.159 1.656,1.871 0.648,1.296 0,0.359 -0.215,0.072 Z" style="fill:#000000;fill-opacity:1;fill-rule:nonzero;stroke:none" id="path4612"/>
  </g>
  <g id="g4614" transform="matrix(1.3333330154418945, 0, 0, -1.3333330154418945, 2416.5730282861336, 1421.2615309927169)">
    <path d="m 0,0 v 34.345 l 0.217,1.151 0.72,0.937 0.936,0.719 1.151,0.145 h 15.624 l 1.081,-0.145 1.007,-0.719 0.649,-0.937 0.216,-1.151 L 21.601,0 20.593,1.513 18.145,2.521 14.761,3.169 10.873,3.385 6.913,3.169 3.457,2.521 1.009,1.44 Z" style="fill:#000000;fill-opacity:1;fill-rule:nonzero;stroke:none" id="path4616"/>
  </g>
  <g id="g4618" transform="matrix(1.3333330154418945, 0, 0, -1.3333330154418945, 2417.3425593526626, 1417.1326053820776)">
    <path d="m 0,0 v 30.239 l 0.215,1.08 0.648,0.937 0.865,0.576 1.08,0.216 h 14.471 l 1.08,-0.216 0.865,-0.576 0.647,-0.937 0.145,-1.08 V 0 L 19.151,1.368 16.848,2.376 13.823,2.952 10.079,3.168 6.407,2.952 3.239,2.304 0.936,1.368 Z" style="fill:#ffc0c0;fill-opacity:1;fill-rule:nonzero;stroke:none" id="path4620"/>
  </g>
  <g id="g4622" transform="matrix(1.3333330154418945, 0, 0, -1.3333330154418945, 2429.2449002649228, 1390.157412431956)">
    <path d="m 0,0 2.232,-0.144 -0.792,-2.16 0.289,-1.8 H 1.944 L 1.657,-3.6 v 0.36 L 2.161,-2.159 3.169,-1.728 4.032,-2.159 4.537,-3.24 4.032,-4.68 2.881,-6.264 1.657,-7.775 1.08,-8.855 l -0.647,1.08 -1.153,1.511 -1.008,1.513 -0.576,1.511 0.361,1.081 1.007,0.431 L 0.145,-2.159 0.648,-3.24 0.577,-3.6 0.36,-4.104 h 0.217 l 0.287,1.8 z" style="fill:#ffffff;fill-opacity:1;fill-rule:nonzero;stroke:none" id="path4624"/>
  </g>
  <g id="g4626" transform="matrix(1.3333330154418945, 0, 0, -1.3333330154418945, 2449.9818744875083, 1431.340996363022)">
    <path d="M 0,0 -0.792,-1.008 -1.296,-2.304 0.288,-0.071 0.216,0 Z" style="fill:#000000;fill-opacity:1;fill-rule:nonzero;stroke:none" id="path4628"/>
  </g>
  <g id="g4630" transform="matrix(1.3333330154418945, 0, 0, -1.3333330154418945, 2445.9493233656103, 1431.4360687687404)">
    <path d="m 0,0 -0.72,-0.937 -0.432,-1.295 0.72,0.935 0.72,1.08 -0.143,0.072 z" style="fill:#000000;fill-opacity:1;fill-rule:nonzero;stroke:none" id="path4632"/>
  </g>
  <g id="g4634" transform="matrix(1.3333330154418945, 0, 0, -1.3333330154418945, 2441.2448974039, 1431.9177784520691)">
    <path d="m 0,0 -0.647,-0.936 -0.216,-1.223 1.151,1.584 -0.071,0.504 z" style="fill:#000000;fill-opacity:1;fill-rule:nonzero;stroke:none" id="path4636"/>
  </g>
</svg>