<?xml version="1.0" encoding="utf-8"?>
<svg viewBox="2332.0938 534.4128 208.224 295.1039" xmlns="http://www.w3.org/2000/svg">
  <g id="g1878" transform="matrix(1.3333330154418945, 0, 0, -1.3333330154418945, 2340.157681921643, 534.4128247907465)">
    <path d="m 0,0 h 144.145 l 2.303,-0.648 1.945,-1.8 1.295,-2.808 0.432,-3.24 v -204.408 l -0.432,-3.24 -1.295,-2.736 -1.945,-1.8 -2.303,-0.648 H 0 l -2.376,0.648 -1.872,1.8 -1.296,2.736 -0.504,3.24 V -8.496 l 0.504,3.24 1.296,2.808 1.872,1.8 z" style="fill:#000000;fill-opacity:1;fill-rule:nonzero;stroke:none" id="path1880"/>
  </g>
  <g id="g1882" transform="matrix(1.3333330154418945, 0, 0, -1.3333330154418945, 2343.1342437119747, 539.0216290304633)">
    <path d="m 0,0 h 139.68 l 2.232,-0.647 1.871,-1.728 1.225,-2.593 0.504,-3.312 v -198 l -0.504,-3.168 -1.225,-2.664 -1.871,-1.656 -2.232,-0.72 H 0 l -2.232,0.72 -1.872,1.656 -1.224,2.664 -0.36,3.168 v 198 l 0.36,3.312 1.224,2.593 1.872,1.728 z" style="fill:#ffffff;fill-opacity:1;fill-rule:nonzero;stroke:none" id="path1884"/>
  </g>
  <path d="m 1760.577,864.782 h 107.784 V 693.494 h -107.784 z" style="fill:#000000;fill-opacity:1;fill-rule:nonzero;stroke:none" id="path1886" transform="matrix(1.3333330154418945, 0, 0, -1.3333330154418945, 17.00979830339236, 1720.8630627522327)"/>
  <path d="m 1762.161,863.198 h 104.688 V 694.934 h -104.688 z" style="fill:#ffffff;fill-opacity:1;fill-rule:nonzero;stroke:none" id="path1888" transform="matrix(1.3333330154418945, 0, 0, -1.3333330154418945, 17.00979830339236, 1720.8630627522327)"/>
  <g id="g1890" transform="matrix(1.3333330154418945, 0, 0, -1.3333330154418945, 2366.3660090064222, 569.8373768917482)">
    <path d="m 0,0 h 17.496 17.352 49.32 20.304 v -46.728 -78.264 -43.2 H 70.271 19.943 0 v 47.376 77.472 z" style="fill:#ffffff;fill-opacity:1;fill-rule:nonzero;stroke:none" id="path1892"/>
  </g>
  <g id="g1894" transform="matrix(1.3333330154418945, 0, 0, -1.3333330154418945, 2505.6615487124363, 736.5891274996065)">
    <path d="m 0,0 -5.4,-1.872 v -5.976 l -7.2,-2.664 v 6.552 l -27.36,-8.712 0.936,-0.72 1.081,-0.864 1.006,-0.648 1.009,-0.864 0.936,-1.584 -0.288,-2.232 -0.576,-0.576 -0.72,-0.504 -0.792,-0.216 -0.936,-0.144 -1.656,-2.52 v -3.168 -3.24 l -0.936,-3.024 4.464,-7.416 2.16,-2.88 h -50.256 l 1.512,3.384 -1.872,0.648 -1.512,1.008 -1.152,1.584 -0.648,2.376 0.144,3.456 v 3.312 l -0.216,3.168 -1.008,2.88 2.304,-0.576 1.657,-1.944 1.223,-3.024 0.72,-3.528 0.36,-1.872 0.361,-1.656 0.718,-1.224 1.081,-0.864 1.944,3.168 -1.512,4.968 v 5.04 l 0.361,5.184 -0.649,5.112 -1.368,0.504 -0.936,1.08 -0.36,1.656 0.576,2.016 0.504,0.864 0.792,0.72 0.792,0.576 1.008,0.432 -9.649,4.176 -2.59,-1.008 0.071,-30.024 h 1.728 l -5.4,-4.896 -5.399,4.896 h 1.799 V 2.088 l -4.104,1.224 -1.296,0.864 v 77.328 l 5.4,2.592 v 6.12 l 7.272,2.448 v -6.048 l 27.288,8.496 -0.937,0.72 -1.079,0.792 -1.008,0.72 -1.08,0.792 -0.936,1.584 0.36,2.232 0.576,0.648 0.576,0.504 0.936,0.216 0.937,0.072 1.51,2.52 0.217,3.168 -0.072,3.312 0.864,2.952 -4.392,7.488 -1.512,2.16 h 49.32 l -1.224,-2.808 1.944,-0.504 1.44,-1.08 1.081,-1.512 0.719,-2.448 -0.216,-3.456 v -3.312 l 0.288,-3.096 1.008,-2.952 -2.303,0.504 -1.657,2.088 -1.224,3.024 -0.72,3.456 -0.36,1.944 -0.504,1.584 -0.576,1.296 -1.152,0.792 -1.872,-3.168 1.512,-4.968 v -5.04 l -0.359,-5.112 0.647,-5.112 1.368,-0.576 0.936,-1.08 0.289,-1.584 -0.433,-2.088 -0.576,-0.864 -0.792,-0.72 -0.792,-0.576 -1.008,-0.432 9.576,-4.176 2.664,1.008 v 30.096 h -1.8 l 5.329,4.896 5.471,-4.896 H -5.472 L -5.4,80.352 -1.368,79.056 0,78.336 Z" style="fill:#000000;fill-opacity:1;fill-rule:nonzero;stroke:none" id="path1896"/>
  </g>
  <g id="g1898" transform="matrix(1.3333330154418945, 0, 0, -1.3333330154418945, 2460.9258822949205, 622.5410589876665)">
    <path d="m 0,0 1.296,1.44 1.008,1.944 0.864,1.944 0.792,2.16 0.792,3.024 0.72,3.168 0.36,3.24 0.432,3.168 -1.728,-0.144 H 2.664 L 1.08,20.376 0,20.88 0.36,18.864 1.151,17.064 1.872,15.12 2.447,13.176 2.304,12.6 1.872,12.168 1.08,11.736 0.36,11.088 0,10.584 -0.504,9.288 l -0.217,0.792 0.145,1.224 -0.936,0.144 -1.008,-0.216 -1.152,-0.216 -0.72,0.288 -0.36,0.72 0.216,0.648 0.504,0.36 0.647,-0.432 h -0.792 v -0.792 l 0.649,-0.288 1.008,0.36 1.008,0.432 0.864,0.072 0.431,-0.216 -0.143,-0.72 0.576,0.576 0.647,0.36 0.576,0.288 0.433,0.36 L 1.296,15.12 0,18.648 -0.936,22.752 0,26.136 1.08,26.928 2.232,27 3.6,26.856 5.472,27 l 0.36,0.216 0.576,0.792 0.072,1.8 h -17.424 l -2.592,-4.392 -1.225,-5.472 -0.504,-5.76 -0.792,-5.688 -0.359,-1.44 -0.504,-1.44 6.768,-3.96 1.007,-0.576 0.937,-0.576 1.008,-0.576 1.223,-0.432 1.225,-0.288 1.367,-0.144 1.584,0.288 z" style="fill:#ffffff;fill-opacity:1;fill-rule:nonzero;stroke:none" id="path1900"/>
  </g>
  <g id="g1902" transform="matrix(1.3333330154418945, 0, 0, -1.3333330154418945, 2458.2383829356695, 585.9656282548058)">
    <path d="m 0,0 -1.009,-0.576 -1.152,-0.36 h -1.296 -1.439 -1.296 l -1.224,-0.144 -1.152,-0.504 -0.792,-1.008 0.792,0.361 1.08,0.215 1.296,-0.144 1.44,-0.071 1.439,0.071 1.369,0.288 1.08,0.648 z" style="fill:#000000;fill-opacity:1;fill-rule:nonzero;stroke:none" id="path1904"/>
  </g>
  <g id="g1906" transform="matrix(1.3333330154418945, 0, 0, -1.3333330154418945, 2469.4701510911405, 591.916554570369)">
    <path d="M 0,0 -0.721,0.359 -1.656,0.792 -2.809,1.008 -4.032,1.08 -2.664,1.151 -1.585,1.008 -0.648,0.647 0,0.359 0.072,2.232 0,4.032 -1.297,3.096 -2.809,2.808 -4.465,2.735 -5.688,2.304 -6.408,1.584 -6.696,0 -5.112,0.359 h 1.656 L -1.729,0 -0.145,-0.937 Z" style="fill:#ffffff;fill-opacity:1;fill-rule:nonzero;stroke:none" id="path1908"/>
  </g>
  <g id="g1910" transform="matrix(1.3333330154418945, 0, 0, -1.3333330154418945, 2454.0144256094068, 591.0534362865692)">
    <path d="m 0,0 -1.369,0.432 -1.584,-0.072 -1.512,-0.432 -1.439,-0.575 1.439,0.359 1.441,0.36 1.511,0.073 z" style="fill:#000000;fill-opacity:1;fill-rule:nonzero;stroke:none" id="path1912"/>
  </g>
  <g id="g1914" transform="matrix(1.3333330154418945, 0, 0, -1.3333330154418945, 2445.2774485257983, 593.8373711697024)">
    <path d="M 0,0 1.872,-1.152 4.248,-1.368 6.624,-0.864 8.496,0.36 6.264,1.8 H 3.456 L 1.08,1.008 Z" style="fill:#000000;fill-opacity:1;fill-rule:nonzero;stroke:none" id="path1916"/>
  </g>
  <g id="g1918" transform="matrix(1.3333330154418945, 0, 0, -1.3333330154418945, 2484.2540017330616, 597.1973150300873)">
    <path d="m 0,0 -0.792,3.96 v 3.96 l -0.216,3.96 -1.152,3.24 -0.721,0.792 -0.719,0.576 -1.08,0.36 -1.081,0.288 -0.503,-0.792 2.304,-1.656 1.008,-2.304 0.36,-2.736 0.144,-3.096 0.072,-1.224 0.792,-2.088 -1.008,2.088 -0.36,2.664 -0.216,2.808 -0.648,2.52 -0.432,0.792 -0.648,0.792 -0.865,0.576 -1.008,0.216 -0.576,-1.296 0.792,-0.432 0.792,-0.648 0.504,-0.936 0.361,-1.08 0.431,-2.16 L -3.6,5.4 -2.16,1.728 Z" style="fill:#ffff80;fill-opacity:1;fill-rule:nonzero;stroke:none" id="path1920"/>
  </g>
  <g id="g1922" transform="matrix(1.3333330154418945, 0, 0, -1.3333330154418945, 2427.709744380933, 613.4213508755165)">
    <path d="M 0,0 -0.072,1.944 0.72,3.672 1.225,4.104 1.943,4.392 2.664,4.464 3.527,4.392 4.607,7.848 5.184,12.744 5.904,18 7.561,22.968 H 5.184 L 3.527,18.792 2.664,13.896 1.8,9.432 0.145,6.192 1.296,9.504 1.943,14.04 2.592,18.792 3.96,22.968 H 0.504 l -1.296,-3.456 -0.504,-3.672 -0.576,-3.528 -1.512,-3.168 1.224,3.312 0.288,3.456 0.072,3.456 0.936,3.6 h -2.304 l -1.656,-2.016 -0.504,-3.456 -0.504,-3.744 -1.439,-2.808 0.792,-0.576 0.359,-0.648 -1.224,0.936 h -1.297 l -1.007,-0.432 -0.72,-0.864 -0.288,-1.08 0.288,-1.008 0.576,-0.72 0.937,-0.288 0.502,1.368 1.082,1.08 1.439,0.432 1.656,-0.36 L -5.544,8.856 -6.624,8.424 -7.271,7.848 -7.561,7.056 -7.704,6.12 -7.561,5.328 -6.984,4.752 -6.12,4.248 -5.832,6.192 -4.536,7.272 -3.023,7.416 -1.944,6.984 -3.023,7.056 -3.96,6.84 -4.536,6.48 -5.04,5.832 -5.256,5.184 -4.968,4.248 -4.464,3.24 -3.384,2.16 -3.24,3.888 -2.232,5.184 -1.656,5.472 -0.937,5.688 0,5.472 1.225,4.752 0.432,4.968 -0.504,5.184 H -1.368 L -1.944,4.464 -2.448,3.096 -2.088,1.8 -1.152,0.72 Z" style="fill:#ffff80;fill-opacity:1;fill-rule:nonzero;stroke:none" id="path1924"/>
  </g>
  <g id="g1926" transform="matrix(1.3333330154418945, 0, 0, -1.3333330154418945, 2453.342550769594, 615.0534305645233)">
    <path d="M 0,0 0.504,0.145 0.936,0.288 1.511,0.432 H 1.871 2.88 3.6 4.319 L 5.184,0.504 5.76,0.576 H 6.479 L 7.127,0.432 7.487,0.145 7.56,-0.144 7.991,1.44 7.56,1.152 7.127,1.512 H 6.264 5.256 4.247 3.168 2.303 L 1.296,1.296 0.432,0.72 0.287,1.296 0,0.432 l -0.505,-1.008 0.288,0.36 z" style="fill:#000000;fill-opacity:1;fill-rule:nonzero;stroke:none" id="path1928"/>
  </g>
  <g id="g1930" transform="matrix(1.3333330154418945, 0, 0, -1.3333330154418945, 2431.4545351547717, 616.3008261004543)">
    <path d="m 0,0 h 1.367 l 1.225,0.576 1.008,0.72 0.576,1.152 0.863,3.816 0.433,3.744 0.216,3.6 0.576,3.744 0.575,2.016 0.648,2.016 0.648,1.872 0.936,1.872 H 5.976 L 3.815,20.52 3.312,15.84 2.88,11.088 1.584,6.335 2.447,5.4 2.808,3.744 2.303,2.448 1.151,1.728 H 0.215 L -0.577,2.231 -1.009,2.952 -1.08,4.104 -0.577,3.023 0.215,2.448 1.079,2.376 1.728,2.808 2.088,3.815 V 4.751 L 1.512,5.472 0.575,5.904 -0.145,6.048 -0.865,5.832 -1.584,5.256 -2.089,4.536 -2.232,2.88 -2.089,1.439 -1.225,0.432 Z" style="fill:#ffff80;fill-opacity:1;fill-rule:nonzero;stroke:none" id="path1932"/>
  </g>
  <g id="g1934" transform="matrix(1.3333330154418945, 0, 0, -1.3333330154418945, 2461.117288499285, 616.5890747296471)">
    <path d="M 0,0 0.145,0.144 0,0.216 -0.792,0.072 -1.655,0 H -2.663 -3.672 -3.96 l 0.288,-0.216 1.009,-0.072 h 1.008 l 0.935,0.144 z" style="fill:#000000;fill-opacity:1;fill-rule:nonzero;stroke:none" id="path1936"/>
  </g>
  <g id="g1938" transform="matrix(1.3333330154418945, 0, 0, -1.3333330154418945, 2471.294369406213, 618.7969192553392)">
    <path d="M 0,0 0.863,0.144 1.8,0.36 2.735,0.936 3.312,1.656 3.743,2.808 V 4.104 L 3.312,5.256 2.231,5.976 H 1.296 L 0.503,5.688 0,5.184 -0.433,4.464 0.071,3.168 1.151,2.808 2.159,3.96 1.151,5.112 2.447,4.464 2.663,3.384 2.087,2.664 1.224,2.16 0.144,2.232 -0.648,2.52 -1.009,3.168 -1.296,4.104 -1.225,4.896 -0.864,5.688 -0.217,6.408 0.72,6.84 0.503,11.592 1.079,16.488 1.151,21.312 0,25.992 -0.433,25.056 -0.864,24.048 -0.648,19.656 -0.792,15.048 -1.368,10.368 -2.521,5.688 -2.809,4.32 -2.521,3.168 -2.017,2.232 -1.225,1.368 -0.864,1.224 -0.36,1.152 0.288,1.08 1.079,1.152 0.575,0.936 -0.217,0.72 h -0.647 l -0.576,0.216 -0.577,0.432 -0.504,0.504 -0.432,0.72 -0.432,0.72 -0.36,-0.864 0.648,-1.08 0.792,-0.72 1.08,-0.504 z" style="fill:#ffff80;fill-opacity:1;fill-rule:nonzero;stroke:none" id="path1940"/>
  </g>
  <g id="g1942" transform="matrix(1.3333330154418945, 0, 0, -1.3333330154418945, 2463.7097357978637, 626.8605566557344)">
    <path d="M 0,0 -0.432,1.08 -0.72,1.8 -1.152,2.304 -1.728,2.592 -3.384,2.016 -4.896,1.512 h -1.583 l -1.729,0.216 -1.296,0.647 -1.44,0.793 -1.512,0.792 -1.368,0.864 -1.441,0.936 -1.439,0.864 -1.441,0.792 L -19.439,8.28 -20.52,7.416 -6.408,-3.24 Z" style="fill:#ffffff;fill-opacity:1;fill-rule:nonzero;stroke:none" id="path1944"/>
  </g>
  <g id="g1946" transform="matrix(1.3333330154418945, 0, 0, -1.3333330154418945, 2489.8217087389494, 629.6452239605678)">
    <path d="m 0,0 5.904,0.936 v 1.8 H 5.4 L 4.968,1.8 3.744,1.296 0.216,0.72 Z" style="fill:#ffffff;fill-opacity:1;fill-rule:nonzero;stroke:none" id="path1948"/>
  </g>
  <g id="g1950" transform="matrix(1.3333330154418945, 0, 0, -1.3333330154418945, 2489.8217087389494, 630.3170174201914)">
    <path d="M 0,0 V -1.296 H 0.504 1.008 L 1.296,-0.36 V -1.584 H 5.904 V 0.648 Z" style="fill:#ffffff;fill-opacity:1;fill-rule:nonzero;stroke:none" id="path1952"/>
  </g>
  <g id="g1954" transform="matrix(1.3333330154418945, 0, 0, -1.3333330154418945, 2497.6941026953577, 636.0774327134676)">
    <path d="M 0,0 V 2.376 L -5.904,2.448 V 1.081 l 0.936,-0.217 0.36,0.864 0.072,-1.224 z" style="fill:#ffffff;fill-opacity:1;fill-rule:nonzero;stroke:none" id="path1956"/>
  </g>
  <g id="g1958" transform="matrix(1.3333330154418945, 0, 0, -1.3333330154418945, 2497.6941026953577, 639.7252996822899)">
    <path d="M 0,0 V 2.088 L -5.688,3.024 V 1.296 L -5.04,1.08 -4.608,1.8 V 0.72 Z" style="fill:#ffffff;fill-opacity:1;fill-rule:nonzero;stroke:none" id="path1960"/>
  </g>
  <g id="g1962" transform="matrix(1.3333330154418945, 0, 0, -1.3333330154418945, 2484.733168285486, 639.7252996822899)">
    <path d="m 0,0 v 9.936 l -5.472,2.16 0.648,-14.544 z" style="fill:#ffff80;fill-opacity:1;fill-rule:nonzero;stroke:none" id="path1964"/>
  </g>
  <g id="g1966" transform="matrix(1.3333330154418945, 0, 0, -1.3333330154418945, 2463.806089941558, 645.7734753236255)">
    <path d="M 0,0 V 3.96 L -0.36,4.393 -1.009,4.032 -1.368,2.952 -1.584,1.8 -1.944,0.792 -2.664,0 h -0.937 l -0.575,0.648 -0.72,0.72 -0.936,0.216 -0.72,-0.792 -0.577,-1.512 -0.935,-1.152 -1.44,0.144 -0.648,2.016 -0.504,2.376 -1.008,0.504 -0.864,-0.504 -0.792,-0.576 -1.008,-0.216 -0.649,1.296 -0.431,2.665 -0.721,0.792 L -16.921,6.48 -18,6.048 l -1.009,-0.215 -0.935,1.511 -0.144,2.664 -0.576,0.792 -0.792,-0.071 -1.08,-0.505 -0.937,-0.216 -1.079,1.513 -0.072,1.727 -0.576,1.08 h -0.937 l -1.151,-0.288 -1.08,-0.216 -0.792,1.368 -0.145,1.728 -0.504,0.504 -0.504,0.072 -0.719,-0.288 -0.864,-0.432 -0.504,0.504 -0.432,1.44 -0.576,1.584 -1.368,0.648 0.143,-3.744 1.153,-1.008 2.16,-1.872 2.88,-2.592 3.096,-3.024 3.383,-3.527 2.881,-3.817 2.664,-3.96 2.016,-4.032 0.576,-1.439 0.288,-1.225 1.008,1.728 1.511,1.368 1.657,1.296 2.016,1.296 2.016,1.008 1.944,1.009 1.8,0.863 z" style="fill:#ffc0c0;fill-opacity:1;fill-rule:nonzero;stroke:none" id="path1968"/>
  </g>
  <g id="g1970" transform="matrix(1.3333330154418945, 0, 0, -1.3333330154418945, 2467.1654641406203, 681.5807584531685)">
    <path d="m 0,0 0.576,-6.984 1.008,-6.552 1.296,-5.904 1.656,-5.4 2.088,-5.04 2.593,-4.608 3.096,-4.464 3.383,-4.32 -4.608,4.751 -4.464,5.041 -4.176,5.472 -3.96,5.616 -3.672,5.688 -3.456,5.76 -3.24,5.544 -2.664,5.328 -2.16,3.744 -2.088,3.6 -2.16,3.528 -2.232,3.384 -2.015,3.168 -2.305,3.096 -2.376,3.024 -2.52,2.952 -2.664,2.664 -2.88,2.664 -2.952,2.664 -3.312,2.304 -3.456,2.232 -3.672,2.232 -4.031,2.088 -4.248,2.088 0.791,0.288 3.961,-1.584 3.743,-1.728 3.528,-2.088 3.384,-2.088 3.312,-2.305 2.952,-2.519 2.88,-2.736 2.736,-2.88 2.664,-2.952 2.52,-3.24 2.449,-3.312 2.231,-3.384 2.232,-3.601 2.304,-3.599 2.304,-3.888 2.088,-3.816 3.096,-5.688 3.024,-5.544 3.097,-5.112 3.023,-4.824 2.88,-4.321 2.736,-3.887 2.52,-3.312 2.377,-2.664 -2.377,3.888 -1.944,4.176 -1.728,4.464 -1.367,4.464 L 0.648,-13.68 0,-9 l -0.576,4.536 -0.36,4.392 -0.36,16.632 v 16.631 3.025 l -0.216,2.952 -0.576,2.88 -1.224,2.52 0.792,1.008 1.008,1.655 1.08,-0.431 V 23.472 Z" style="fill:#ffff80;fill-opacity:1;fill-rule:nonzero;stroke:none" id="path1972"/>
  </g>
  <g id="g1974" transform="matrix(1.3333330154418945, 0, 0, -1.3333330154418945, 2470.142025930953, 681.6771939770515)">
    <path d="M 0,0 0.432,-0.648 1.152,-1.656 1.943,-2.52 2.52,-3.456 v -1.296 l -0.432,-1.296 -0.792,-1.44 -0.432,-1.44 0.36,-1.368 1.08,-1.224 1.08,-1.008 0.431,-1.08 -0.576,-6.768 0.217,-1.008 0.792,-0.648 1.079,-0.72 0.864,-0.72 0.793,-1.44 -0.288,-1.728 -0.36,-1.872 v -1.728 l 0.863,-1.368 1.513,-0.648 1.44,-0.576 1.224,-1.08 0.432,-1.872 v -2.16 l 0.143,-0.936 0.433,-0.792 0.504,-0.648 0.864,-0.504 0.071,-0.864 -0.288,-1.008 -2.159,2.736 -2.304,3.6 -2.304,3.456 -1.657,3.096 -2.807,6.984 -1.872,7.488 -1.296,7.92 -0.433,7.416 -0.719,23.544 -0.073,23.184 0.721,-0.216 0.72,-0.504 0.72,-0.72 L 0.864,44.28 1.152,42.84 0.792,41.4 0,40.032 -0.648,38.664 -0.937,37.152 -0.648,35.64 0,34.272 0.936,33.048 1.296,31.464 0.936,30.024 0.216,28.656 -0.648,27.288 -0.864,25.848 -0.648,24.336 0,22.824 1.008,21.6 1.512,19.512 0.864,17.136 -0.145,15.264 -0.072,13.392 0.647,11.304 1.439,9.072 1.224,7.128 0.432,5.112 -0.432,2.664 Z" style="fill:#c0c0ff;fill-opacity:1;fill-rule:nonzero;stroke:none" id="path1976"/>
  </g>
  <g id="g1978" transform="matrix(1.3333330154418945, 0, 0, -1.3333330154418945, 2403.709750102979, 681.8691698427393)">
    <path d="m 0,0 0.647,-23.4 v -23.184 l -0.792,0.288 -0.719,0.432 -0.792,0.72 -0.649,1.08 -0.287,1.44 0.432,1.44 0.721,1.368 0.575,1.368 0.288,1.512 -0.216,1.512 -0.647,1.368 -1.009,1.152 -0.361,1.584 0.361,1.44 0.792,1.512 0.648,1.296 0.36,1.512 -0.216,1.44 -0.72,1.44 -0.864,1.296 -0.504,2.088 0.647,2.232 1.009,2.016 -0.072,1.944 -0.72,1.944 -0.792,2.304 0.144,1.944 0.864,2.016 0.792,2.52 L -1.439,0 -1.944,0.864 -2.592,1.8 -3.384,2.736 -3.96,3.672 l -0.144,1.224 0.576,1.368 0.719,1.368 0.433,1.512 -0.36,1.512 -1.008,1.08 -1.224,1.008 -0.36,1.08 0.648,6.84 -0.288,0.936 -0.72,0.792 -1.008,0.576 -0.936,0.72 -0.792,1.368 0.216,1.8 0.433,1.872 v 1.8 l -0.866,1.296 -1.439,0.72 -1.656,0.576 -1.08,0.936 -0.432,2.016 v 2.088 l -0.145,0.936 -0.431,0.792 -0.576,0.72 -0.791,0.432 -0.145,0.936 0.359,0.936 2.088,-2.736 2.377,-3.456 2.304,-3.6 1.656,-3.024 2.808,-6.984 1.944,-7.704 1.296,-7.776 z" style="fill:#c0c0ff;fill-opacity:1;fill-rule:nonzero;stroke:none" id="path1980"/>
  </g>
  <g id="g1982" transform="matrix(1.3333330154418945, 0, 0, -1.3333330154418945, 2489.2448859598085, 624.8450948966748)">
    <path d="M 0,0 H 3.889 V -0.576 H 5.544 L 5.185,-1.368 4.177,-1.872 0.217,-2.52 0,-2.88 v -8.28 l -2.951,0.72 v 9.216 z" style="fill:#ffffff;fill-opacity:1;fill-rule:nonzero;stroke:none" id="path1984"/>
  </g>
  <g id="g1986" transform="matrix(1.3333330154418945, 0, 0, -1.3333330154418945, 2391.5170446766138, 596.7166836342622)">
    <path d="m 0,0 0.072,-0.216 v -0.36 l 0.504,-2.448 1.297,-1.944 2.016,-1.368 2.376,-0.504 2.376,0.504 2.088,1.368 1.295,1.944 0.504,2.448 L 12.024,1.872 10.729,3.888 8.641,5.256 6.265,5.76 5.185,5.688 4.104,5.256 3.024,4.751 2.16,3.959 1.656,4.176 1.225,4.608 1.08,4.968 2.448,6.048 3.385,7.344 4.104,8.784 4.177,10.44 3.744,12.959 2.448,14.904 0.433,16.2 -1.943,16.776 -4.392,16.2 -6.407,14.904 -7.775,12.959 -8.279,10.44 -7.92,8.64 -7.271,7.127 -6.191,5.832 -4.751,4.751 -4.896,4.248 -5.256,4.104 -5.76,3.959 -6.695,4.68 l -1.08,0.576 -1.08,0.432 -1.369,0.072 -2.303,-0.504 -2.088,-1.368 -1.297,-2.016 -0.504,-2.448 0.504,-2.448 1.297,-1.944 2.088,-1.368 2.303,-0.504 2.449,0.504 2.015,1.368 1.368,1.944 0.504,2.448 V -0.216 0 l 0.937,-1.296 0.143,-2.808 -0.504,-3.456 -1.439,-3.169 h 5.472 l -1.296,3.169 -0.505,3.456 0.144,2.808 z" style="fill:#000000;fill-opacity:1;fill-rule:nonzero;stroke:none" id="path1988"/>
  </g>
  <g id="g1990" transform="matrix(1.3333330154418945, 0, 0, -1.3333330154418945, 2435.389430049953, 682.4453415803691)">
    <path d="M 0,0 H 0.145 L 0.288,-0.144 0.432,-2.088 -0.648,-3.6 -1.655,-3.96 h -0.937 l -0.936,0.504 -0.648,0.72 -0.288,1.872 1.152,1.44 0.361,0.144 0.575,0.072 h 0.36 L -1.584,0.72 -1.367,0.936 V 1.224 1.44 h -0.721 l -0.576,0.216 -0.504,0.36 -0.36,0.576 -0.36,0.936 0.144,1.008 0.432,0.864 0.72,0.792 0.937,0.216 h 1.007 L 0.217,5.976 0.648,5.184 1.008,3.888 0.648,2.592 0.792,2.448 H 0.864 L 1.152,2.52 1.584,3.312 2.304,4.032 3.24,4.32 H 4.176 L 5.112,3.888 5.832,3.168 6.12,1.224 4.896,-0.216 4.032,-0.504 3.024,-0.432 2.16,0 1.513,0.576 1.368,0.72 H 1.225 V 0.288 L 1.801,-0.648 2.736,-1.872 3.888,-2.664 1.801,-3.816 1.729,-2.448 1.225,-1.08 0.648,-0.144 Z" style="fill:#ffffff;fill-opacity:1;fill-rule:nonzero;stroke:none" id="path1992"/>
  </g>
  <g id="g1994" transform="matrix(1.3333330154418945, 0, 0, -1.3333330154418945, 2494.813895048719, 624.8450948966748)">
    <path d="M 0,0 H 1.512 L 1.367,-0.36 H 0 Z" style="fill:#ffffff;fill-opacity:1;fill-rule:nonzero;stroke:none" id="path1996"/>
  </g>
  <g id="g1998" transform="matrix(1.3333330154418945, 0, 0, -1.3333330154418945, 2464.093850289617, 595.373096715015)">
    <path d="M 0,0 -1.008,1.152 -1.08,2.376 -1.8,2.16 -2.521,1.8 -2.304,1.08 -1.728,0.648 -1.08,0.36 -0.504,0.216 Z" style="fill:#ffffff;fill-opacity:1;fill-rule:nonzero;stroke:none" id="path2000"/>
  </g>
  <g id="g2002" transform="matrix(1.3333330154418945, 0, 0, -1.3333330154418945, 2449.9818744875083, 595.0853363669557)">
    <path d="M 0,0 -0.648,0.864 -0.864,1.8 -1.296,1.584 -1.728,1.44 -2.16,1.08 -2.521,0.864 -2.088,0.432 -1.296,0.072 -0.648,0 Z" style="fill:#ffffff;fill-opacity:1;fill-rule:nonzero;stroke:none" id="path2004"/>
  </g>
  <g id="g2006" transform="matrix(1.3333330154418945, 0, 0, -1.3333330154418945, 2468.4128596765518, 593.6452325436366)">
    <path d="M 0,0 0.36,-0.432 0.217,-1.08 -0.575,-1.296 -0.144,-0.648 Z" style="fill:#ffffff;fill-opacity:1;fill-rule:nonzero;stroke:none" id="path2008"/>
  </g>
  <g id="g2010" transform="matrix(1.3333330154418945, 0, 0, -1.3333330154418945, 2454.8777066535845, 592.4936214900771)">
    <path d="M 0,0 0.647,-0.647 0.145,-1.08 -0.433,-1.368 -0.145,-0.647 Z" style="fill:#ffffff;fill-opacity:1;fill-rule:nonzero;stroke:none" id="path2012"/>
  </g>
  <g id="g2014" transform="matrix(1.3333330154418945, 0, 0, -1.3333330154418945, 2469.4701510911405, 622.8288193357257)">
    <path d="M 0,0 0.72,-0.289 0.936,-1.008 0.72,-1.728 0,-1.944 l -0.648,0.216 -0.289,0.72 0.289,0.719 z" style="fill:#000000;fill-opacity:1;fill-rule:nonzero;stroke:none" id="path2016"/>
  </g>
  <g id="g2018" transform="matrix(1.3333330154418945, 0, 0, -1.3333330154418945, 2388.445430825611, 633.965616810714)">
    <path d="M 0,0 0.721,-0.36 0.937,-1.008 0.721,-1.728 0,-2.016 l -0.575,0.288 -0.361,0.72 0.361,0.648 z" style="fill:#000000;fill-opacity:1;fill-rule:nonzero;stroke:none" id="path2020"/>
  </g>
  <g id="g2022" transform="matrix(1.3333330154418945, 0, 0, -1.3333330154418945, 2394.9740751023933, 647.021603281257)">
    <path d="M 0,0 0.575,-0.288 0.864,-0.936 0.575,-1.656 0,-1.872 l -0.72,0.216 -0.289,0.72 0.289,0.648 z" style="fill:#000000;fill-opacity:1;fill-rule:nonzero;stroke:none" id="path2024"/>
  </g>
  <g id="g2026" transform="matrix(1.3333330154418945, 0, 0, -1.3333330154418945, 2398.8139179369027, 660.9407894157885)">
    <path d="M 0,0 0.72,-0.289 0.936,-1.008 0.72,-1.656 0,-1.944 l -0.721,0.288 -0.215,0.648 0.215,0.719 z" style="fill:#000000;fill-opacity:1;fill-rule:nonzero;stroke:none" id="path2028"/>
  </g>
  <g id="g2030" transform="matrix(1.3333330154418945, 0, 0, -1.3333330154418945, 2400.8295424563403, 674.8606265918315)">
    <path d="m 0,0 0.576,-0.288 0.36,-0.72 -0.36,-0.576 -0.576,-0.36 -0.72,0.36 -0.288,0.576 0.288,0.72 z" style="fill:#000000;fill-opacity:1;fill-rule:nonzero;stroke:none" id="path2032"/>
  </g>
  <g id="g2034" transform="matrix(1.3333330154418945, 0, 0, -1.3333330154418945, 2469.5665052348345, 638.188760335088)">
    <path d="M 0,0 0.647,-0.216 0.863,-0.937 0.647,-1.656 0,-1.944 l -0.648,0.288 -0.289,0.719 0.289,0.721 z" style="fill:#000000;fill-opacity:1;fill-rule:nonzero;stroke:none" id="path2036"/>
  </g>
  <g id="g2038" transform="matrix(1.3333330154418945, 0, 0, -1.3333330154418945, 2469.661557295506, 654.0293327302752)">
    <path d="M 0,0 0.792,-0.216 1.008,-0.864 0.792,-1.584 0,-1.872 l -0.576,0.288 -0.288,0.72 0.288,0.648 z" style="fill:#000000;fill-opacity:1;fill-rule:nonzero;stroke:none" id="path2040"/>
  </g>
  <g id="g2042" transform="matrix(1.3333330154418945, 0, 0, -1.3333330154418945, 2469.661557295506, 669.3892737296375)">
    <path d="M 0,0 0.72,-0.216 1.008,-0.936 0.72,-1.728 0,-1.944 l -0.72,0.216 -0.217,0.792 0.217,0.72 z" style="fill:#000000;fill-opacity:1;fill-rule:nonzero;stroke:none" id="path2044"/>
  </g>
  <g id="g2046" transform="matrix(1.3333330154418945, 0, 0, -1.3333330154418945, 2411.101675423939, 740.6211903403711)">
    <path d="m 0,0 -1.224,-1.584 -1.007,-1.8 -1.009,-2.016 -0.792,-2.088 -0.72,-3.168 -0.647,-3.096 -0.505,-3.168 -0.36,-3.168 1.728,0.144 1.801,-0.072 1.584,-0.432 1.151,-0.504 -0.433,1.944 -0.718,1.944 -0.721,1.8 -0.649,2.088 0.145,0.432 0.504,0.504 0.721,0.504 0.791,0.504 0.505,0.576 0.359,1.296 0.216,-0.792 -0.144,-1.224 0.936,-0.072 1.08,0.216 1.152,0.144 0.648,-0.288 0.36,-0.648 -0.216,-0.72 -0.576,-0.432 -0.648,0.432 h 0.864 v 0.864 l -0.648,0.216 -0.936,-0.216 -0.936,-0.504 -1.08,-0.144 -0.36,0.288 0.144,0.792 -0.648,-0.576 -0.649,-0.36 -0.502,-0.36 -0.433,-0.216 0.504,-2.304 1.296,-3.528 0.936,-4.032 L 0,-26.208 -1.08,-27 h -1.151 l -1.441,0.144 -1.727,-0.144 -0.505,-0.288 -0.504,-0.792 -0.144,-1.8 h 17.424 l 2.664,4.464 1.152,5.4 0.577,5.76 0.791,5.76 0.36,1.44 0.504,1.296 -6.84,4.104 L 9.216,-1.152 8.208,-0.504 7.128,0 5.977,0.504 4.752,0.792 3.312,0.864 1.8,0.576 Z" style="fill:#ffffff;fill-opacity:1;fill-rule:nonzero;stroke:none" id="path2048"/>
  </g>
  <g id="g2050" transform="matrix(1.3333330154418945, 0, 0, -1.3333330154418945, 2413.6941227225184, 777.2930565971146)">
    <path d="M 0,0 1.08,0.648 2.304,0.936 H 3.672 4.968 6.264 L 7.488,1.08 8.567,1.584 9.432,2.592 8.64,2.232 7.488,2.088 H 6.191 L 4.752,2.232 3.384,2.088 2.016,1.944 0.863,1.152 Z" style="fill:#000000;fill-opacity:1;fill-rule:nonzero;stroke:none" id="path2052"/>
  </g>
  <g id="g2054" transform="matrix(1.3333330154418945, 0, 0, -1.3333330154418945, 2402.5574066277186, 771.1491778535966)">
    <path d="M 0,0 0.648,-0.504 1.729,-0.936 2.736,-1.08 4.032,-1.224 H 2.664 L 1.584,-1.08 0.648,-0.792 0,-0.432 -0.144,-2.376 0,-4.104 1.296,-3.168 2.88,-2.88 h 1.512 l 1.296,0.36 0.72,0.792 0.361,1.584 -1.584,-0.288 -1.729,-0.072 -1.727,0.36 -1.657,0.936 z" style="fill:#ffffff;fill-opacity:1;fill-rule:nonzero;stroke:none" id="path2056"/>
  </g>
  <g id="g2058" transform="matrix(1.3333330154418945, 0, 0, -1.3333330154418945, 2418.014434192476, 772.2050044247843)">
    <path d="M 0,0 1.439,-0.432 2.951,-0.288 4.535,0.072 5.903,0.72 4.463,0.288 2.951,-0.072 1.439,-0.216 Z" style="fill:#000000;fill-opacity:1;fill-rule:nonzero;stroke:none" id="path2060"/>
  </g>
  <g id="g2062" transform="matrix(1.3333330154418945, 0, 0, -1.3333330154418945, 2426.653755049367, 769.4213136822182)">
    <path d="m 0,0 -1.8,1.08 -2.376,0.288 -2.376,-0.504 -1.872,-1.152 2.159,-1.44 h 2.809 l 2.448,0.72 z" style="fill:#000000;fill-opacity:1;fill-rule:nonzero;stroke:none" id="path2064"/>
  </g>
  <g id="g2066" transform="matrix(1.3333330154418945, 0, 0, -1.3333330154418945, 2387.5821497814322, 765.9648529177612)">
    <path d="m 0,0 0.791,-3.888 0.072,-4.104 0.145,-3.888 1.151,-3.384 0.721,-0.648 0.792,-0.648 1.08,-0.36 1.152,-0.216 0.432,0.72 -2.305,1.656 -1.08,2.304 -0.287,2.808 -0.144,3.096 -0.144,1.152 -0.792,2.016 1.08,-2.088 0.359,-2.52 0.217,-2.88 0.648,-2.448 0.359,-0.792 0.721,-0.864 0.863,-0.576 1.009,-0.216 0.648,1.224 -0.865,0.576 -0.647,0.648 -0.577,0.864 -0.431,1.08 L 4.68,-9.288 3.743,-5.472 2.159,-1.8 Z" style="fill:#ffff80;fill-opacity:1;fill-rule:nonzero;stroke:none" id="path2068"/>
  </g>
  <g id="g2070" transform="matrix(1.3333330154418945, 0, 0, -1.3333330154418945, 2444.3178133379265, 749.8373339764039)">
    <path d="M 0,0 0.071,-1.872 -0.792,-3.6 -1.296,-4.176 -1.872,-4.32 -2.664,-4.464 -3.601,-4.32 -4.608,-7.776 -5.112,-12.6 -5.904,-18 -7.56,-22.968 h 2.304 l 1.655,4.104 0.937,4.896 0.792,4.536 1.8,3.168 -1.224,-3.168 -0.576,-4.536 -0.72,-4.752 -1.368,-4.248 h 3.456 l 1.224,3.456 0.576,3.6 0.576,3.6 1.44,3.096 -1.224,-3.168 -0.216,-3.528 -0.144,-3.528 -0.936,-3.528 h 2.376 l 1.584,2.016 0.504,3.456 0.504,3.672 1.512,2.88 -0.793,0.648 -0.431,0.576 1.296,-0.864 1.296,-0.072 1.008,0.432 0.72,0.864 0.287,1.008 -0.287,1.008 -0.648,0.72 -0.864,0.36 L 8.279,-7.56 7.2,-8.712 5.76,-9.216 4.104,-8.712 5.472,-8.856 6.552,-8.424 7.2,-7.776 7.56,-6.984 7.704,-6.048 7.56,-5.328 6.983,-4.752 6.048,-4.176 5.76,-6.264 4.536,-7.2 3.024,-7.416 1.872,-6.912 3.024,-6.984 3.96,-6.84 4.607,-6.48 5.04,-5.832 5.184,-5.112 5.04,-4.176 4.464,-3.24 3.312,-2.232 3.168,-3.888 2.304,-5.184 1.655,-5.472 0.864,-5.616 0,-5.472 l -1.225,0.72 0.792,-0.216 0.937,-0.144 h 0.792 l 0.72,0.648 0.36,1.368 -0.288,1.368 -0.937,1.08 z" style="fill:#ffff80;fill-opacity:1;fill-rule:nonzero;stroke:none" id="path2072"/>
  </g>
  <g id="g2074" transform="matrix(1.3333330154418945, 0, 0, -1.3333330154418945, 2418.589954888594, 748.1093884248365)">
    <path d="m 0,0 -0.432,-0.144 -0.432,-0.216 -0.504,-0.144 -0.504,-0.072 -0.937,0.072 h -0.719 l -0.72,-0.072 h -0.936 -0.504 -0.72 -0.648 l -0.288,0.432 -0.144,0.288 -0.504,-1.584 0.431,0.288 0.505,-0.36 0.792,-0.144 h 1.08 l 1.008,0.144 1.008,-0.072 h 1.008 l 0.864,0.216 0.864,0.576 0.215,-0.504 L 0,-0.504 0.504,0.432 0.216,0.216 Z" style="fill:#000000;fill-opacity:1;fill-rule:nonzero;stroke:none" id="path2076"/>
  </g>
  <g id="g2078" transform="matrix(1.3333330154418945, 0, 0, -1.3333330154418945, 2440.5730225640873, 746.8612604672053)">
    <path d="m 0,0 h -1.367 l -1.296,-0.576 -0.793,-0.72 -0.72,-1.224 -0.864,-3.744 -0.432,-3.744 -0.288,-3.744 -0.575,-3.6 -0.504,-2.088 -0.577,-1.944 -0.792,-1.944 -0.863,-1.872 h 3.095 l 2.161,4.608 0.576,4.752 0.359,4.68 1.296,4.752 -0.936,0.936 -0.215,1.656 0.504,1.296 1.08,0.72 h 0.935 l 0.72,-0.432 0.433,-0.792 0.215,-1.08 -0.648,1.08 -0.72,0.576 -0.792,0.072 -0.72,-0.432 -0.431,-1.008 0.072,-1.08 0.575,-0.576 0.937,-0.504 0.72,-0.072 0.792,0.216 0.576,0.504 0.504,0.72 0.215,1.728 -0.215,1.368 -0.792,0.936 z" style="fill:#ffff80;fill-opacity:1;fill-rule:nonzero;stroke:none" id="path2080"/>
  </g>
  <g id="g2082" transform="matrix(1.3333330154418945, 0, 0, -1.3333330154418945, 2410.910269219574, 746.6692846015176)">
    <path d="M 0,0 -0.145,-0.144 H 0 l 0.72,0.072 0.935,0.216 H 2.592 L 3.672,0 H 3.888 L 3.672,0.216 H 2.735 1.8 L 0.72,0.144 Z" style="fill:#000000;fill-opacity:1;fill-rule:nonzero;stroke:none" id="path2084"/>
  </g>
  <g id="g2086" transform="matrix(1.3333330154418945, 0, 0, -1.3333330154418945, 2400.6368341689526, 744.3653300726983)">
    <path d="m 0,0 -0.863,-0.072 -0.936,-0.432 -0.864,-0.504 -0.649,-0.72 -0.36,-1.08 v -1.368 l 0.36,-1.08 1.153,-0.792 h 0.935 l 0.792,0.36 0.577,0.432 0.288,0.792 -0.433,1.296 -1.151,0.36 -1.008,-1.152 1.008,-1.224 -1.152,0.72 -0.36,1.08 0.575,0.792 0.937,0.432 1.007,-0.072 0.792,-0.36 0.577,-0.576 0.072,-0.936 -0.072,-0.792 -0.288,-0.792 -0.72,-0.72 -0.864,-0.432 0.215,-4.824 -0.504,-4.824 -0.215,-4.824 1.296,-4.752 0.288,1.008 0.504,1.008 -0.289,4.32 0.217,4.68 0.575,4.68 1.153,4.68 0.216,1.296 -0.216,1.224 -0.504,0.936 -0.864,0.72 -0.36,0.216 -0.505,0.216 h -0.647 l -0.792,-0.144 0.575,0.288 0.721,0.144 0.72,-0.072 0.503,-0.144 0.649,-0.504 0.504,-0.36 0.431,-0.72 0.505,-0.792 0.287,0.864 -0.576,1.008 -0.791,0.792 -1.152,0.504 z" style="fill:#ffff80;fill-opacity:1;fill-rule:nonzero;stroke:none" id="path2088"/>
  </g>
  <g id="g2090" transform="matrix(1.3333330154418945, 0, 0, -1.3333330154418945, 2408.4128739816665, 736.4929361162904)">
    <path d="m 0,0 0.289,-1.008 0.359,-0.72 0.432,-0.504 0.576,-0.288 1.584,0.576 1.584,0.576 h 1.513 l 1.727,-0.36 1.369,-0.576 1.44,-0.792 1.44,-0.72 1.368,-0.864 1.511,-1.008 1.369,-0.792 1.511,-0.936 1.297,-0.792 1.08,0.792 L 6.265,3.24 Z" style="fill:#ffffff;fill-opacity:1;fill-rule:nonzero;stroke:none" id="path2092"/>
  </g>
  <g id="g2094" transform="matrix(1.3333330154418945, 0, 0, -1.3333330154418945, 2382.1094948362156, 733.6132981309748)">
    <path d="m 0,0 -5.976,-0.792 v -1.872 h 0.577 l 0.359,0.864 1.152,0.504 3.672,0.576 z" style="fill:#ffffff;fill-opacity:1;fill-rule:nonzero;stroke:none" id="path2096"/>
  </g>
  <g id="g2098" transform="matrix(1.3333330154418945, 0, 0, -1.3333330154418945, 2382.1094948362156, 732.9414232911622)">
    <path d="M 0,0 V 1.224 H -0.504 -1.08 L -1.296,0.36 -1.368,1.584 h -4.608 v -2.232 z" style="fill:#ffffff;fill-opacity:1;fill-rule:nonzero;stroke:none" id="path2100"/>
  </g>
  <g id="g2102" transform="matrix(1.3333330154418945, 0, 0, -1.3333330154418945, 2374.142048819136, 727.0853048957034)">
    <path d="M 0,0 V -2.448 L 5.976,-2.52 v 1.368 l -1.008,0.144 -0.288,-0.72 -0.145,1.08 z" style="fill:#ffffff;fill-opacity:1;fill-rule:nonzero;stroke:none" id="path2104"/>
  </g>
  <g id="g2106" transform="matrix(1.3333330154418945, 0, 0, -1.3333330154418945, 2374.142048819136, 723.4368682655585)">
    <path d="m 0,0 v -2.232 l 5.76,-0.864 v 1.728 L 4.968,-1.152 4.68,-1.944 4.607,-0.792 Z" style="fill:#ffffff;fill-opacity:1;fill-rule:nonzero;stroke:none" id="path2108"/>
  </g>
  <g id="g2110" transform="matrix(1.3333330154418945, 0, 0, -1.3333330154418945, 2387.101681145985, 723.6289255114352)">
    <path d="M 0,0 V -9.864 L 5.544,-11.952 5.04,2.448 Z" style="fill:#ffff80;fill-opacity:1;fill-rule:nonzero;stroke:none" id="path2112"/>
  </g>
  <g id="g2114" transform="matrix(1.3333330154418945, 0, 0, -1.3333330154418945, 2408.2214677773013, 717.4850467679171)">
    <path d="m 0,0 v -4.032 l 0.433,-0.432 0.576,0.432 0.215,1.08 0.289,1.224 L 1.872,-0.72 2.593,0 3.601,0.072 4.177,-0.648 4.824,-1.44 5.904,-1.584 6.48,-0.72 7.2,0.72 8.064,1.944 9.433,1.8 l 0.647,-2.088 0.576,-2.448 0.937,-0.432 0.935,0.432 0.792,0.576 1.008,0.288 0.576,-1.296 0.432,-2.736 0.792,-0.648 h 0.864 l 1.008,0.504 1.009,0.144 0.863,-1.44 0.216,-2.664 0.648,-0.72 h 0.792 l 1.008,0.432 0.864,0.288 1.152,-1.368 0.072,-1.944 0.576,-1.008 h 0.937 l 1.079,0.36 1.152,0.144 0.792,-1.368 0.216,-1.656 0.36,-0.648 h 0.504 l 0.792,0.36 0.792,0.36 0.504,-0.504 0.433,-1.512 0.575,-1.44 1.368,-0.792 -0.072,3.888 -1.224,0.936 -2.16,1.872 -2.808,2.52 -3.168,3.168 -3.24,3.528 L 19.08,-1.296 16.345,2.592 14.328,6.696 13.824,7.992 13.536,9.288 12.528,7.704 11.088,6.192 9.288,4.824 7.345,3.744 5.4,2.592 3.384,1.656 1.513,0.864 Z" style="fill:#ffc0c0;fill-opacity:1;fill-rule:nonzero;stroke:none" id="path2116"/>
  </g>
  <g id="g2118" transform="matrix(1.3333330154418945, 0, 0, -1.3333330154418945, 2424.7331825906003, 681.8691698427393)">
    <path d="m 0,0 -2.735,5.4 -3.168,5.616 -3.456,5.688 -3.745,5.76 -4.103,5.616 -4.32,5.4 -4.465,5.184 -4.68,4.824 3.456,-4.464 3.025,-4.392 2.591,-4.68 2.088,-4.968 1.657,-5.472 1.368,-5.76 0.935,-6.48 0.649,-7.272 0.431,-23.328 v -23.328 l 1.008,-0.432 1.08,1.584 0.792,1.152 -1.296,2.448 -0.576,2.808 -0.143,2.952 v 3.024 l -0.073,16.704 -0.288,16.56 -0.288,4.464 -0.576,4.536 -0.72,4.752 -1.223,4.68 -1.369,4.536 -1.727,4.464 -2.017,4.176 -2.303,3.888 2.303,-2.736 2.521,-3.168 2.735,-3.672 2.88,-4.248 3.096,-4.68 3.096,-5.184 3.241,-5.832 3.383,-6.264 2.232,-3.744 2.161,-3.744 2.303,-3.6 2.161,-3.6 2.159,-3.456 2.448,-3.24 2.449,-3.168 2.591,-3.096 2.664,-2.664 2.88,-2.808 3.025,-2.448 3.095,-2.376 3.384,-2.088 3.529,-2.016 3.744,-1.8 3.96,-1.512 0.792,0.36 -4.248,2.016 -4.033,2.088 -3.672,2.16 -3.456,2.232 -3.311,2.52 -2.953,2.52 -2.808,2.664 -2.664,2.664 -2.519,2.88 -2.376,3.024 -2.233,3.096 -2.015,3.24 -2.161,3.384 -2.088,3.456 -2.087,3.6 z" style="fill:#ffff80;fill-opacity:1;fill-rule:nonzero;stroke:none" id="path2120"/>
  </g>
  <g id="g2122" transform="matrix(1.3333330154418945, 0, 0, -1.3333330154418945, 2382.589963471663, 738.3169916709849)">
    <path d="m 0,0 h -3.888 v 0.432 h -1.728 l 0.504,0.864 0.864,0.432 4.103,0.72 L 0,2.808 v 8.208 L 2.88,10.368 V 1.152 Z" style="fill:#ffffff;fill-opacity:1;fill-rule:nonzero;stroke:none" id="path2124"/>
  </g>
  <g id="g2126" transform="matrix(1.3333330154418945, 0, 0, -1.3333330154418945, 2480.3178047548577, 766.4453215532085)">
    <path d="M 0,0 V 0.36 0.576 L -0.433,3.024 -1.8,5.112 -3.816,6.408 -6.265,6.984 -8.712,6.408 -10.8,5.112 l -1.297,-2.088 -0.504,-2.448 0.504,-2.52 1.297,-2.016 2.088,-1.368 2.447,-0.432 h 1.153 l 1.08,0.432 1.008,0.576 0.864,0.648 0.504,-0.144 0.504,-0.36 v -0.504 l -1.369,-1.008 -0.863,-1.296 -0.648,-1.512 -0.216,-1.584 0.504,-2.448 1.439,-2.016 1.945,-1.368 2.448,-0.504 2.376,0.504 2.088,1.368 1.368,2.016 0.504,2.448 -0.36,1.8 -0.648,1.512 -1.152,1.296 -1.44,1.008 0.216,0.576 0.359,0.216 0.433,0.072 0.937,-0.72 L 7.92,-5.328 9,-5.76 h 1.296 l 2.52,0.432 1.872,1.368 1.368,2.016 0.504,2.52 -0.504,2.448 -1.368,2.088 -1.872,1.296 -2.52,0.576 L 7.92,6.408 5.832,5.112 4.536,3.024 4.032,0.576 V 0.36 L 3.96,0 3.168,1.224 l -0.216,2.88 0.504,3.6 1.368,3.168 H -0.721 L 0.648,7.704 1.224,4.104 1.08,1.224 Z" style="fill:#000000;fill-opacity:1;fill-rule:nonzero;stroke:none" id="path2128"/>
  </g>
  <g id="g2130" transform="matrix(1.3333330154418945, 0, 0, -1.3333330154418945, 2377.0222564657743, 738.2214513291801)">
    <path d="M 0,0 H -1.584 L -1.44,0.288 H 0 Z" style="fill:#ffffff;fill-opacity:1;fill-rule:nonzero;stroke:none" id="path2132"/>
  </g>
  <g id="g2134" transform="matrix(1.3333330154418945, 0, 0, -1.3333330154418945, 2407.933707429242, 767.9811284787102)">
    <path d="M 0,0 1.008,-1.152 1.152,-2.304 1.8,-2.088 2.521,-1.728 2.304,-0.864 1.729,-0.576 1.08,-0.288 0.504,-0.216 Z" style="fill:#ffffff;fill-opacity:1;fill-rule:nonzero;stroke:none" id="path2136"/>
  </g>
  <g id="g2138" transform="matrix(1.3333330154418945, 0, 0, -1.3333330154418945, 2421.949329087656, 768.2688888267693)">
    <path d="m 0,0 0.792,-0.792 0.145,-0.864 0.431,0.144 0.504,0.216 0.36,0.216 0.289,0.36 L 2.088,-0.288 1.368,0 h -0.72 z" style="fill:#ffffff;fill-opacity:1;fill-rule:nonzero;stroke:none" id="path2140"/>
  </g>
  <g id="g2142" transform="matrix(1.3333330154418945, 0, 0, -1.3333330154418945, 2403.4219897549197, 769.4213136822182)">
    <path d="M 0,0 -0.433,0.504 -0.288,1.08 0.647,1.224 0.144,0.648 Z" style="fill:#ffffff;fill-opacity:1;fill-rule:nonzero;stroke:none" id="path2144"/>
  </g>
  <g id="g2146" transform="matrix(1.3333330154418945, 0, 0, -1.3333330154418945, 2416.957142777887, 770.6692788794717)">
    <path d="M 0,0 -0.647,0.72 -0.071,1.152 0.648,1.44 0.145,0.72 Z" style="fill:#ffffff;fill-opacity:1;fill-rule:nonzero;stroke:none" id="path2148"/>
  </g>
  <g id="g2150" transform="matrix(1.3333330154418945, 0, 0, -1.3333330154418945, 2402.366000423354, 740.3332672319339)">
    <path d="M 0,0 -0.648,0.288 -0.937,0.936 -0.648,1.728 0,1.944 0.792,1.728 1.008,0.936 0.792,0.288 Z" style="fill:#000000;fill-opacity:1;fill-rule:nonzero;stroke:none" id="path2152"/>
  </g>
  <g id="g2154" transform="matrix(1.3333330154418945, 0, 0, -1.3333330154418945, 2483.4857727495546, 729.197283558835)">
    <path d="M 0,0 -0.721,0.288 -1.008,0.936 -0.721,1.728 0,2.016 0.648,1.728 0.936,0.936 0.648,0.288 Z" style="fill:#000000;fill-opacity:1;fill-rule:nonzero;stroke:none" id="path2156"/>
  </g>
  <g id="g2158" transform="matrix(1.3333330154418945, 0, 0, -1.3333330154418945, 2476.957128472772, 716.141297088292)">
    <path d="M 0,0 -0.72,0.216 -0.936,0.936 -0.72,1.728 0,1.944 0.793,1.728 1.008,0.936 0.793,0.216 Z" style="fill:#000000;fill-opacity:1;fill-rule:nonzero;stroke:none" id="path2160"/>
  </g>
  <g id="g2162" transform="matrix(1.3333330154418945, 0, 0, -1.3333330154418945, 2473.213639781956, 702.3170002540537)">
    <path d="M 0,0 -0.792,0.288 -1.08,1.008 -0.792,1.728 0,2.016 0.647,1.728 0.936,1.008 0.647,0.288 Z" style="fill:#000000;fill-opacity:1;fill-rule:nonzero;stroke:none" id="path2164"/>
  </g>
  <g id="g2166" transform="matrix(1.3333330154418945, 0, 0, -1.3333330154418945, 2471.1980152625183, 688.3008089343165)">
    <path d="M 0,0 -0.792,0.216 -0.937,1.008 -0.792,1.728 0,1.944 0.72,1.728 0.936,1.008 0.72,0.216 Z" style="fill:#000000;fill-opacity:1;fill-rule:nonzero;stroke:none" id="path2168"/>
  </g>
  <g id="g2170" transform="matrix(1.3333330154418945, 0, 0, -1.3333330154418945, 2402.366000423354, 724.9733262325718)">
    <path d="M 0,0 -0.648,0.216 -0.937,1.008 -0.648,1.656 0,1.944 0.72,1.656 1.008,1.008 0.72,0.216 Z" style="fill:#000000;fill-opacity:1;fill-rule:nonzero;stroke:none" id="path2172"/>
  </g>
  <g id="g2174" transform="matrix(1.3333330154418945, 0, 0, -1.3333330154418945, 2402.2696462796594, 709.1327538373845)">
    <path d="M 0,0 -0.792,0.216 -1.008,0.936 -0.792,1.728 0,1.944 0.576,1.728 0.864,0.936 0.576,0.216 Z" style="fill:#000000;fill-opacity:1;fill-rule:nonzero;stroke:none" id="path2176"/>
  </g>
  <g id="g2178" transform="matrix(1.3333330154418945, 0, 0, -1.3333330154418945, 2402.2696462796594, 693.8691669817163)">
    <path d="M 0,0 -0.72,0.36 -1.008,1.008 -0.72,1.728 0,2.016 0.72,1.728 0.936,1.008 0.72,0.36 Z" style="fill:#000000;fill-opacity:1;fill-rule:nonzero;stroke:none" id="path2180"/>
  </g>
  <g id="g2182" transform="matrix(1.3333330154418945, 0, 0, -1.3333330154418945, 2353.213668392186, 597.1009608863933)">
    <path d="m 0,0 v -0.216 -0.072 l 0.288,-1.296 0.648,-0.936 1.008,-0.648 1.296,-0.36 1.296,0.36 1.008,0.648 0.721,0.936 0.214,1.296 L 6.265,1.008 5.544,1.944 4.536,2.592 3.24,2.952 2.664,2.808 2.088,2.664 1.584,2.376 1.08,2.088 0.792,2.16 0.576,2.376 V 2.592 L 1.728,3.672 2.16,5.256 1.944,6.552 1.296,7.632 0.288,8.28 -0.937,8.568 -2.231,8.28 -3.312,7.632 -3.96,6.552 -4.176,5.256 -4.104,4.392 -3.672,3.6 -3.168,2.952 -2.376,2.448 -2.521,2.16 -2.735,2.088 -3.023,1.944 -3.384,2.376 -4.032,2.592 -4.536,2.808 -5.185,2.952 -6.48,2.592 -7.488,1.944 l -0.72,-0.936 -0.216,-1.296 0.216,-1.296 0.72,-0.936 1.008,-0.648 1.295,-0.36 1.225,0.36 0.937,0.648 0.719,0.936 0.287,1.296 V -0.216 0 l 0.578,-2.088 -0.937,-3.384 H 0.36 l -0.864,3.384 z" style="fill:#000000;fill-opacity:1;fill-rule:nonzero;stroke:none" id="path2184"/>
  </g>
  <g id="g2186" transform="matrix(1.3333330154418945, 0, 0, -1.3333330154418945, 2520.541753498052, 767.7889898526446)">
    <path d="M 0,0 0.071,0.216 V 0.432 L 0.36,1.656 0.937,2.664 2.016,3.312 3.24,3.6 4.536,3.312 5.616,2.664 6.192,1.656 6.408,0.432 6.192,-0.936 5.616,-2.016 4.536,-2.664 3.24,-2.952 2.664,-2.808 2.088,-2.736 1.512,-2.448 1.08,-2.016 0.72,-2.16 0.648,-2.304 0.576,-2.592 1.728,-3.744 2.231,-5.4 1.944,-6.624 1.224,-7.632 0.216,-8.28 l -1.152,-0.288 -1.295,0.288 -1.009,0.648 -0.72,1.008 -0.216,1.224 0.072,1.008 0.432,0.792 0.432,0.648 0.792,0.504 v 0.288 l -0.216,0.144 h -0.288 l -0.504,-0.432 -0.504,-0.216 -0.576,-0.144 -0.576,-0.144 -1.296,0.288 -1.08,0.648 -0.648,1.08 -0.36,1.368 0.36,1.224 0.648,1.008 1.08,0.648 L -5.112,3.6 -3.96,3.312 -2.952,2.664 -2.304,1.656 -2.017,0.432 V 0.216 0 l 0.649,2.16 -1.08,3.384 H 0.36 L -0.576,2.16 Z" style="fill:#000000;fill-opacity:1;fill-rule:nonzero;stroke:none" id="path2188"/>
  </g>
  <g id="g2190" transform="matrix(1.3333330154418945, 0, 0, -1.3333330154418945, 2343.32564991634, 568.109431340181)">
    <path d="m 0,0 h 2.52 v -2.16 l 0.216,-1.296 0.576,-1.008 0.432,-0.36 0.504,-0.216 0.433,-0.216 0.504,-0.072 0.575,0.072 0.432,0.216 0.432,0.216 0.359,0.36 0.578,0.936 0.143,1.368 v 17.136 h 2.664 V -1.944 L 10.08,-3.672 9.647,-5.04 9.288,-5.76 8.856,-6.336 8.352,-6.768 7.776,-7.2 7.2,-7.416 6.624,-7.704 5.904,-7.848 H 5.328 4.681 L 4.248,-7.704 H 3.601 L 3.097,-7.488 2.52,-7.271 1.944,-6.912 1.513,-6.552 1.008,-5.904 0.288,-4.32 0,-2.16 Z" style="fill:#000000;fill-opacity:1;fill-rule:nonzero;stroke:none" id="path2192"/>
  </g>
  <g id="g2194" transform="matrix(1.3333330154418945, 0, 0, -1.3333330154418945, 2526.8776894874463, 798.8933118638779)">
    <path d="M 0,0 H -2.521 V 2.088 L -2.736,3.384 -3.313,4.392 -3.815,4.896 -4.248,4.968 -4.681,5.184 -5.328,5.256 -5.688,5.184 -6.192,4.968 -6.696,4.896 -7.056,4.464 -7.56,3.456 -7.776,2.088 v -17.136 h -2.52 v 16.92 l 0.145,1.728 0.431,1.512 0.432,0.648 0.433,0.576 0.431,0.432 0.648,0.36 0.576,0.216 0.576,0.288 0.72,0.072 0.576,0.072 h 0.576 L -4.248,7.704 -3.672,7.632 -3.097,7.488 -2.521,7.2 -2.017,6.84 -1.512,6.48 -1.008,5.904 -0.216,4.32 0,2.088 Z" style="fill:#000000;fill-opacity:1;fill-rule:nonzero;stroke:none" id="path2196"/>
  </g>
</svg>