<?xml version="1.0" encoding="utf-8"?>
<svg viewBox="2817.0855 1213.8059 208.3213 295.1026" xmlns="http://www.w3.org/2000/svg">
  <g id="g4638" transform="matrix(1.3333330154418945, 0, 0, -1.3333330154418945, 2825.0533996468007, 1213.8058512873506)">
    <path d="m 0,0 h 144.288 l 2.304,-0.647 1.944,-1.729 1.296,-2.735 0.433,-3.312 v -204.408 l -0.433,-3.313 -1.296,-2.736 -1.944,-1.8 -2.304,-0.647 H 0 l -2.304,0.647 -1.872,1.8 -1.296,2.736 -0.504,3.313 V -8.423 l 0.504,3.312 1.296,2.735 1.872,1.729 z" style="fill:#000000;fill-opacity:1;fill-rule:nonzero;stroke:none" id="path4640"/>
  </g>
  <g id="g4642" transform="matrix(1.3333330154418945, 0, 0, -1.3333330154418945, 2828.1263155808274, 1218.31626687865)">
    <path d="m 0,0 h 139.752 l 2.231,-0.577 1.872,-1.8 1.296,-2.592 0.361,-3.168 V -206.28 l -0.361,-3.168 -1.296,-2.664 -1.872,-1.657 -2.231,-0.719 H 0 l -2.305,0.719 -1.799,1.657 -1.224,2.664 -0.36,3.168 V -8.137 l 0.36,3.168 1.224,2.592 1.799,1.8 z" style="fill:#ffffff;fill-opacity:1;fill-rule:nonzero;stroke:none" id="path4644"/>
  </g>
  <path d="m 2124.969,356.678 h 107.713 v -170.28 h -107.713 z" style="fill:#000000;fill-opacity:1;fill-rule:nonzero;stroke:none" id="path4646" transform="matrix(1.3333330154418945, 0, 0, -1.3333330154418945, 17.0097983033927, 1720.8630627522327)"/>
  <path d="M 2126.554,354.95 H 2231.17 V 187.981 h -104.616 z" style="fill:#ffffff;fill-opacity:1;fill-rule:nonzero;stroke:none" id="path4648" transform="matrix(1.3333330154418945, 0, 0, -1.3333330154418945, 17.0097983033927, 1720.8630627522327)"/>
  <g id="g4650" transform="matrix(1.3333330154418945, 0, 0, -1.3333330154418945, 2826.5898576138143, 1254.4126531293696)">
    <path d="M 0,0 V 22.248 H 2.16 V 11.304 L 9.647,22.248 H 12.24 L 5.904,12.96 12.24,0 H 10.008 L 4.536,11.016 2.16,7.632 V 0 Z" style="fill:#000000;fill-opacity:1;fill-rule:nonzero;stroke:none" id="path4652"/>
  </g>
  <g id="g4654" transform="matrix(1.3333330154418945, 0, 0, -1.3333330154418945, 3015.5168959034204, 1466.0923105060465)">
    <path d="m 0,0 v -22.176 h -2.088 v 10.944 l -7.559,-10.944 h -2.592 l 6.336,9.287 L -12.239,0 h 2.231 l 5.473,-11.017 2.447,3.456 V 0 Z" style="fill:#000000;fill-opacity:1;fill-rule:nonzero;stroke:none" id="path4656"/>
  </g>
  <g id="g4658" transform="matrix(1.3333330154418945, 0, 0, -1.3333330154418945, 3004.765596383397, 1433.548047431872)">
    <path d="M 0,0 H 4.896 L 3.672,-2.521 3.024,-5.041 3.096,-7.272 3.888,-9 H 4.32 l -0.505,0.936 -0.143,1.295 0.216,1.153 0.792,1.007 1.08,0.577 1.152,0.287 1.151,-0.359 0.937,-0.577 0.647,-1.151 0.29,-1.225 -1.153,-3.24 -2.448,-3.384 -2.664,-3.24 -1.512,-2.592 -1.44,2.592 -2.448,3.168 -2.304,3.456 -1.08,3.24 0.288,1.225 0.576,1.151 1.008,0.577 1.152,0.359 1.224,-0.287 1.08,-0.577 L 1.008,-5.616 1.224,-6.769 1.08,-8.064 0.504,-9 h 0.504 l 0.72,1.728 0.072,2.231 -0.576,2.52 z" style="fill:#000000;fill-opacity:1;fill-rule:nonzero;stroke:none" id="path4660"/>
  </g>
  <g id="g4662" transform="matrix(1.3333330154418945, 0, 0, -1.3333330154418945, 2879.869792827551, 1299.9178099233213)">
    <path d="m 0,0 h -9.792 l 2.592,4.896 1.224,5.113 -0.216,4.536 -1.512,3.527 h -0.792 l 1.008,-2.015 0.288,-2.304 -0.504,-2.448 -1.512,-2.088 -2.16,-1.296 -2.376,-0.433 -2.376,0.433 -1.872,1.512 -1.296,2.16 -0.504,2.592 0.576,3.096 1.584,3.312 2.375,3.456 2.664,3.456 2.809,3.311 2.376,3.168 2.016,2.737 1.08,2.52 0.936,-2.52 1.871,-2.737 2.305,-3.095 2.447,-3.384 2.664,-3.385 2.16,-3.527 1.584,-3.24 0.577,-3.168 L 9.647,11.593 8.352,9.433 6.408,7.921 4.032,7.488 1.655,7.921 l -2.087,1.296 -1.512,2.088 -0.577,2.448 0.289,2.304 1.08,2.015 h -0.865 l -1.367,-3.527 -0.217,-4.536 1.225,-5.113 z" style="fill:#000000;fill-opacity:1;fill-rule:nonzero;stroke:none" id="path4664"/>
  </g>
  <g id="g4666" transform="matrix(1.3333330154418945, 0, 0, -1.3333330154418945, 2975.773415795674, 1415.4047412106995)">
    <path d="m 0,0 h -9.792 l 2.592,-4.896 1.08,-5.04 -0.072,-4.68 -1.512,-3.528 h -0.792 l 0.936,2.016 0.36,2.376 -0.575,2.447 -1.513,2.017 -2.088,1.224 -2.376,0.576 -2.376,-0.576 -2.016,-1.512 -1.152,-2.088 -0.504,-2.592 0.576,-3.024 1.584,-3.384 2.304,-3.384 2.664,-3.528 2.808,-3.313 2.448,-3.168 2.017,-2.879 1.007,-2.449 0.936,2.449 1.944,2.808 2.304,3.168 2.592,3.384 2.448,3.385 2.232,3.527 1.512,3.311 0.576,3.097 -0.504,2.592 -1.295,2.088 -1.945,1.512 -2.376,0.576 -2.376,-0.576 -2.088,-1.224 -1.512,-2.017 -0.576,-2.447 0.289,-2.376 1.08,-2.016 h -0.937 l -1.368,3.528 -0.144,4.68 1.224,5.04 z" style="fill:#000000;fill-opacity:1;fill-rule:nonzero;stroke:none" id="path4668"/>
  </g>
  <g id="g4670" transform="matrix(1.3333330154418945, 0, 0, -1.3333330154418945, 2837.9179799129784, 1285.0363844348724)">
    <path d="m 0,0 h -4.896 l 1.295,2.304 0.649,2.592 -0.144,2.232 -0.72,1.727 h -0.36 L -3.744,7.848 -3.601,6.695 -3.816,5.399 -4.68,4.463 -5.688,3.815 -6.84,3.6 l -1.152,0.359 -0.936,0.648 -0.72,1.009 -0.216,1.295 1.08,3.24 2.519,3.384 2.664,3.24 1.513,2.521 1.296,-2.521 2.448,-3.24 L 3.96,10.151 5.04,6.911 4.896,5.616 4.104,4.607 3.168,3.959 2.016,3.6 0.792,3.815 -0.217,4.463 -1.008,5.399 -1.297,6.695 -1.08,7.848 -0.576,8.855 H -1.008 L -1.729,7.128 -1.801,4.896 -1.297,2.304 Z" style="fill:#000000;fill-opacity:1;fill-rule:nonzero;stroke:none" id="path4672"/>
  </g>
  <g id="g4674" transform="matrix(1.3333330154418945, 0, 0, -1.3333330154418945, 2878.429689004232, 1470.2212564617332)">
    <path d="m 0,0 h 52.992 l -5.471,11.881 0.359,0.863 0.576,1.008 0.72,1.08 0.504,1.008 0.864,4.68 0.576,5.401 0.72,5.256 1.944,4.463 1.08,-1.295 1.871,-0.433 2.017,0.288 1.512,0.936 0.792,2.088 -0.432,2.449 -0.288,1.008 0.647,0.359 25.416,9.576 v 59.76 l -6.983,2.664 -1.152,40.392 -3.672,5.256 -4.176,-5.472 -0.288,-34.703 -3.24,1.368 -4.104,2.015 0.576,3.6 0.577,0.864 0.791,0.72 0.72,0.864 0.36,1.08 v 1.153 l -0.216,0.792 -0.648,0.719 -0.648,0.648 -0.936,0.433 -1.152,0.071 0.216,5.184 -0.792,5.472 -1.08,5.4 -0.72,5.4 0.504,1.152 0.576,0.937 0.432,1.007 0.432,0.72 1.224,2.592 1.224,2.52 1.297,2.232 1.511,2.232 -53.856,-0.144 1.296,-3.384 1.872,-3.456 1.296,-3.6 -0.504,-3.672 -1.584,-3.24 -1.153,-3.528 -1.007,-3.6 -0.792,-3.6 -0.432,-3.312 -0.647,-2.952 -1.081,0.216 -1.224,0.216 H 8.063 l -1.295,-0.576 -0.936,-0.936 -0.576,-1.151 -0.36,-1.441 v -1.584 l -0.577,-0.792 -0.935,-0.36 -0.936,-0.36 -0.792,-0.576 -0.864,-0.288 -0.648,-0.288 -0.648,-0.288 -0.792,-0.288 -0.792,-0.359 -0.792,-0.361 -0.864,-0.215 -0.648,-0.505 -0.936,-0.432 -0.864,-0.359 -1.008,-0.504 -1.008,-0.145 -1.656,-0.647 -1.584,-0.649 -1.656,-0.72 -1.656,-0.791 -1.08,-0.504 -1.223,-0.504 -1.297,-0.433 -1.08,-0.36 h -0.072 l -0.288,0.216 v -0.144 L -19.656,117 v -0.216 l -0.288,-0.36 V 56.952 l 5.256,-3.24 1.584,-37.152 5.328,-9.144 3.816,6.408 0.72,35.64 1.8,-0.863 1.8,-0.937 L 2.016,46.656 3.528,45.144 2.88,41.904 2.016,40.969 1.151,40.032 0.576,38.736 V 37.152 L 0.792,36.648 0.937,36.144 1.656,35.568 2.448,35.064 H 4.104 L 3.96,29.736 4.536,24.264 5.616,18.792 6.552,13.464 5.04,9.648 3.24,6.264 1.584,3.024 l -1.8,-2.88 h 0.144 z" style="fill:#000000;fill-opacity:1;fill-rule:nonzero;stroke:none" id="path4676"/>
  </g>
  <g id="g4678" transform="matrix(1.3333330154418945, 0, 0, -1.3333330154418945, 2927.197906543647, 1323.5324690066884)">
    <path d="m 0,0 h 0.36 l 0.648,0.216 0.36,0.143 V 0.647 L 1.512,2.304 1.368,2.664 0.36,7.199 -0.504,6.191 -1.296,5.256 -2.088,4.247 -2.809,3.023 -3.24,2.016 -3.097,1.151 -2.16,0.864 l 0.431,0.144 0.361,0.36 0.504,0.144 0.431,-0.792 z" style="fill:#ffff80;fill-opacity:1;fill-rule:nonzero;stroke:none" id="path4680"/>
  </g>
  <g id="g4682" transform="matrix(1.3333330154418945, 0, 0, -1.3333330154418945, 2926.7174379082, 1310.5727552996505)">
    <path d="m 0,0 1.368,0.145 1.08,0.647 1.008,0.863 0.792,1.081 0.72,2.375 0.792,2.161 H 5.904 L 6.12,7.128 5.904,5.111 5.328,3.168 4.536,1.44 3.384,0.071 4.896,0.288 6.048,0.864 7.2,1.8 8.064,2.952 8.496,4.68 8.712,6.264 8.928,6.479 9.216,6.695 9.288,4.248 8.352,1.655 l 1.081,0.289 0.719,0.72 0.865,0.863 0.719,0.721 3.312,-3.096 -1.655,3.671 0.143,0.145 h 0.36 l 0.72,-1.296 0.648,-1.44 1.008,-1.224 1.512,-0.72 0.504,-0.143 0.36,-0.074 L 19.08,0 h 0.36 l -1.656,1.224 -1.223,1.799 -0.649,2.088 -0.072,2.233 0.144,0.288 h 0.432 l 0.145,-1.512 0.431,-1.512 0.576,-1.585 1.08,-1.151 1.008,-0.864 1.08,-0.576 1.44,-0.287 1.297,0.215 0.647,0.288 0.504,0.289 0.792,0.863 0.648,1.223 0.288,1.513 V 5.832 L 26.064,6.695 25.848,7.344 25.272,7.848 24.624,8.208 22.393,7.991 22.248,7.848 22.032,7.632 21.889,6.912 V 6.264 l 0.359,-0.504 0.72,-0.361 0.792,0.216 0.576,0.721 0.288,-0.721 -0.288,-0.792 -0.72,-0.359 h -0.792 l -0.792,0.288 -0.648,0.359 -1.44,4.753 0.144,5.112 0.504,5.112 -0.216,5.04 -1.728,-0.359 -1.872,-0.145 -1.728,0.145 -1.655,0.575 0.071,-1.872 0.72,-2.016 0.504,-2.088 -0.215,-1.944 -2.233,-1.152 -0.36,-0.648 -0.36,-0.792 h -0.288 l -0.215,0.144 -0.217,1.584 0.217,0.36 0.215,0.143 1.872,1.153 0.289,0.359 0.143,0.577 -1.152,3.528 -0.72,3.6 0.216,3.528 2.016,3.024 0.504,0.144 h 0.648 l 0.216,-0.216 0.288,-0.361 4.104,-0.071 0.792,-0.792 0.504,-1.224 -1.008,0.072 -1.008,0.072 h -1.152 l -1.223,-0.144 -0.577,0.215 -0.504,0.361 -0.432,0.504 -0.36,0.216 -2.448,-4.104 1.224,0.36 1.44,0.36 1.512,0.072 1.584,-0.576 -0.648,0.432 -0.576,0.288 -0.576,0.144 -0.648,0.144 -0.288,0.216 -0.072,0.504 1.08,0.144 1.224,-0.144 L 18.648,28.8 19.656,28.224 19.944,27 22.68,35.28 H 2.952 L 0.145,29.088 -1.152,22.248 -2.088,15.192 -3.96,8.424 -1.152,7.632 0,11.232 0.288,11.304 0.576,11.232 0.648,10.008 0.36,8.568 0,7.632 -0.432,6.695 V 6.336 L -0.216,5.903 -0.504,5.185 -0.936,4.536 -1.512,4.032 -2.16,3.672 -2.808,3.527 -3.384,3.744 -3.888,4.032 -4.176,4.319 v 0.217 l 0.072,0.287 1.081,-0.504 0.935,0.289 0.432,0.791 V 6.336 L -2.16,7.272 -2.88,7.344 H -3.6 L -4.176,7.056 -4.824,6.479 -5.544,4.68 -5.111,2.952 -4.392,2.159 -3.527,1.728 -2.232,1.584 -1.152,1.655 0.072,2.52 1.08,3.744 1.656,4.968 2.088,6.479 2.232,7.632 2.448,8.712 2.592,8.783 2.952,8.856 3.24,8.208 V 7.344 L 1.225,1.872 0.648,1.44 0.072,0.864 -0.504,0.432 -1.296,0.145 Z" style="fill:#ffffff;fill-opacity:1;fill-rule:nonzero;stroke:none" id="path4684"/>
  </g>
  <g id="g4686" transform="matrix(1.3333330154418945, 0, 0, -1.3333330154418945, 2932.188790770394, 1277.3566173856636)">
    <path d="M 0,0 4.104,0.792 5.112,1.584 4.896,2.016 4.393,2.52 3.601,2.88 2.953,3.096 1.369,3.312 1.656,3.815 2.232,4.032 1.152,4.247 -0.071,4.032 -1.224,3.672 -2.231,3.024 -2.663,2.376 -3.671,1.944 -3.383,1.224 -2.592,0.792 Z" style="fill:#000000;fill-opacity:1;fill-rule:nonzero;stroke:none" id="path4688"/>
  </g>
  <g id="g4690" transform="matrix(1.3333330154418945, 0, 0, -1.3333330154418945, 2936.8932167321045, 1275.821420811579)">
    <path d="M 0,0 0.433,0.072 1.08,0.36 0.288,1.368 -0.216,1.152 0.288,0.505 0.216,0.217 Z" style="fill:#ffffff;fill-opacity:1;fill-rule:nonzero;stroke:none" id="path4692"/>
  </g>
  <g id="g4694" transform="matrix(1.3333330154418945, 0, 0, -1.3333330154418945, 2882.46224012613, 1468.973779545613)">
    <path d="M 0,0 25.775,-0.144 V 0.217 L 25.632,0.648 25.271,0.792 25.127,0.648 H 24.84 24.624 L 24.336,1.153 24.695,1.729 22.607,2.521 20.52,2.665 18.432,2.376 16.271,1.945 V 1.657 l 0.145,-0.36 V 1.009 L 16.271,0.648 H 15.912 L 15.624,0.792 15.264,0.505 14.688,0.217 14.327,0.433 14.111,0.864 12.959,0.648 12.672,0.864 12.455,1.297 12.6,1.729 12.959,1.945 11.231,2.593 9.359,2.881 7.344,2.665 5.472,2.305 5.832,1.945 6.191,1.584 5.976,1.153 5.615,0.937 4.896,0.864 4.319,0.505 3.888,0.648 3.6,0.937 2.231,1.153 2.016,1.584 2.231,1.872 2.52,2.089 h -3.457 l -1.007,-1.872 0.36,-0.144 h 0.575 L -0.36,0 Z" style="fill:#ffff80;fill-opacity:1;fill-rule:nonzero;stroke:none" id="path4696"/>
  </g>
  <g id="g4698" transform="matrix(1.3333330154418945, 0, 0, -1.3333330154418945, 2918.7499918911208, 1468.973779545613)">
    <path d="M 0,0 H 8.424 L 8.567,0.937 7.2,1.153 7.056,1.44 7.344,1.945 5.544,2.521 3.743,2.665 1.872,2.376 0.359,1.729 0.647,1.369 0.864,0.937 0.647,0.648 0.432,0.505 0.071,0.577 -0.433,0.505 -0.36,0.145 Z" style="fill:#ffff80;fill-opacity:1;fill-rule:nonzero;stroke:none" id="path4700"/>
  </g>
  <g id="g4702" transform="matrix(1.3333330154418945, 0, 0, -1.3333330154418945, 2944.574204484147, 1468.6847171145312)">
    <path d="M 0,0 0.791,0.36 1.008,0.937 -0.793,2.159 -2.664,2.664 H -4.896 L -7.561,2.232 -9.072,1.655 -6.984,0.647 -9.721,0 h 6.408 z" style="fill:#ffff80;fill-opacity:1;fill-rule:nonzero;stroke:none" id="path4704"/>
  </g>
  <g id="g4706" transform="matrix(1.3333330154418945, 0, 0, -1.3333330154418945, 2917.5012942721664, 1465.7081960142932)">
    <path d="M 0,0 0.792,0.72 1.801,1.224 2.809,1.584 4.104,1.943 5.256,2.016 6.553,1.8 7.848,1.511 9,1.007 9.648,0.432 10.152,0.288 h 0.577 l 0.503,0.216 0.577,0.288 0.504,0.359 L 13.32,1.584 14.473,1.8 15.624,2.016 16.848,1.943 18,1.8 l 1.152,-0.216 1.153,-0.36 1.008,-0.288 -0.865,1.727 -45.143,0.072 -0.504,-0.072 -0.361,-0.432 3.384,-1.943 1.729,1.079 2.015,0.649 2.304,0.072 2.232,-0.504 0.648,-0.36 0.504,-0.217 0.576,-0.432 0.432,-0.359 1.081,0.359 1.151,0.432 1.152,0.432 1.296,0.289 1.224,0.288 h 1.152 l 1.224,-0.288 1.08,-0.504 0.504,-0.217 0.433,-0.287 0.431,-0.288 0.504,-0.216 0.216,-0.289 z" style="fill:#ffff80;fill-opacity:1;fill-rule:nonzero;stroke:none" id="path4708"/>
  </g>
  <g id="g4710" transform="matrix(1.3333330154418945, 0, 0, -1.3333330154418945, 2866.6210980696205, 1455.7251254777768)">
    <path d="m 0,0 -0.647,5.328 -0.216,5.185 0.504,5.255 1.439,5.904 0.072,4.608 -1.007,4.033 -1.296,3.815 -0.649,3.528 1.729,4.176 1.439,4.824 0.288,4.897 -1.511,4.248 -1.008,0.504 L -2.231,56.52 -3.6,56.376 -4.607,56.16 -2.664,6.553 Z" style="fill:#ffff80;fill-opacity:1;fill-rule:nonzero;stroke:none" id="path4712"/>
  </g>
  <g id="g4714" transform="matrix(1.3333330154418945, 0, 0, -1.3333330154418945, 2871.5169302356962, 1450.2524705325598)">
    <path d="m 0,0 0.793,51.624 -3.385,0.359 1.08,-4.463 -0.143,-4.968 -1.08,-5.04 -1.8,-4.536 1.439,-5.256 1.08,-5.113 0.216,-5.471 -1.223,-6.12 -0.144,-8.496 0.936,-7.056 0.431,0.72 0.649,1.584 0.792,1.44 z" style="fill:#ffffff;fill-opacity:1;fill-rule:nonzero;stroke:none" id="path4716"/>
  </g>
  <g id="g4718" transform="matrix(1.3333330154418945, 0, 0, -1.3333330154418945, 2891.005206839328, 1453.9008664726098)">
    <path d="m 0,0 h 17.856 l 2.161,4.896 1.296,5.184 0.791,5.615 0.792,5.473 0.648,2.952 0.936,2.736 -2.016,0.936 -0.216,0.504 0.433,-0.288 0.719,-0.216 h 1.08 l 0.577,0.504 0.792,1.224 0.143,1.728 -0.431,1.008 -0.72,0.647 -0.864,0.505 -0.792,0.216 -0.721,0.145 -0.72,-0.217 -0.576,-0.287 -0.72,-0.217 -0.864,-1.224 -0.72,-1.584 -0.431,-1.8 L 18.072,26.641 18,26.496 h -0.288 l -0.287,1.655 0.359,1.801 0.649,1.8 0.863,1.513 0.648,0.504 0.432,0.503 0.504,0.432 0.793,0.288 -0.937,0.361 L 19.872,35.208 18.864,34.849 18,34.416 16.704,33.265 15.912,31.681 15.408,29.88 14.904,28.151 h -0.216 l -0.216,0.145 0.216,1.944 0.648,2.016 0.864,1.656 1.225,1.512 L 16.2,35.208 14.904,34.56 13.681,33.769 12.601,32.688 12.024,30.456 11.521,28.512 11.304,28.44 11.16,28.512 12.313,33.769 11.304,33.479 10.368,32.76 9.648,31.752 8.856,30.815 H 8.568 L 8.28,30.96 8.064,31.319 7.849,31.824 5.544,34.128 6.912,30.456 6.769,30.168 H 6.336 L 5.688,32.04 4.681,33.479 3.168,34.56 1.44,35.641 H 1.08 0.937 L 1.152,35.208 1.656,34.992 2.952,33.769 3.96,32.04 4.536,30.168 4.752,28.008 4.681,27.576 4.177,27.504 3.96,29.304 3.384,30.96 2.593,32.688 1.296,33.912 0.145,34.416 -1.08,34.776 -2.304,34.704 -3.239,34.56 -4.536,33.552 -5.327,32.256 -5.903,30.888 v -1.584 l 0.504,-0.864 0.287,-0.864 0.576,-0.216 0.576,-0.215 0.721,-0.289 0.719,-0.072 v -0.143 -0.145 l -1.295,-0.143 -1.081,0.503 -0.864,0.648 -0.864,0.792 -1.151,-0.863 -0.505,-1.369 v -1.152 l 0.505,-1.08 0.792,-0.504 1.08,-0.217 1.007,0.074 0.936,0.431 0.36,-0.72 -0.215,-0.864 -0.937,-4.968 0.433,-5.041 1.08,-4.823 0.719,-4.968 1.584,5.76 0.648,5.976 0.072,6.12 -0.216,5.976 -0.215,0.792 -0.145,0.504 -0.144,0.144 -0.215,0.072 -0.361,2.088 -0.431,0.288 h -0.505 l -0.432,-0.288 -0.504,-0.432 -0.431,0.072 -0.145,0.36 0.576,0.792 0.864,0.504 1.8,-0.504 1.368,-4.896 V 20.304 L 0.217,15.048 0.145,9.937 1.009,8.928 1.152,9.288 0.648,9.433 0.505,9.576 0.648,9.937 1.872,10.368 3.384,10.655 4.968,10.368 6.336,9.937 6.624,9.792 6.769,9.576 6.552,9.433 6.336,9.145 6.408,8.784 6.624,8.641 7.128,8.856 V 9.288 L 7.345,9.576 7.561,9.937 7.057,11.88 6.265,13.752 5.832,15.695 6.048,17.641 8.856,19.8 v 0.288 l 0.289,0.36 H 9.36 L 9.505,20.232 9.433,18.145 7.272,16.704 8.28,11.232 9,9.145 V 7.2 L 8.568,5.328 7.561,3.672 6.841,2.808 6.048,2.16 4.896,2.808 0.937,3.023 0.145,3.815 -0.288,4.968 5.04,4.464 5.832,3.456 8.208,7.416 3.744,6.695 5.04,6.552 5.257,6.479 V 6.048 L 4.393,5.76 3.24,5.976 2.304,6.191 1.44,6.695 1.152,6.983 1.009,7.2 0.937,7.704 0.36,8.064 0,6.191 -0.575,4.319 -1.224,2.52 -2.088,0.792 -1.8,0.288 -1.512,0 h 0.72 z" style="fill:#ffffff;fill-opacity:1;fill-rule:nonzero;stroke:none" id="path4720"/>
  </g>
  <g id="g4722" transform="matrix(1.3333330154418945, 0, 0, -1.3333330154418945, 2940.0611847268015, 1453.5167316358095)">
    <path d="m 0,0 1.584,2.376 1.08,3.384 0.792,4.032 0.504,4.104 0.648,4.249 0.865,3.886 1.511,3.025 2.088,1.512 1.872,0.504 0.72,-0.793 0.504,-1.008 -0.144,-0.215 -0.143,-0.287 -0.721,0.502 -0.648,0.505 -1.295,-0.505 -0.576,-0.502 v -0.866 l 0.215,-0.575 0.216,-0.432 1.44,-0.36 1.656,0.36 1.008,1.944 -0.36,2.448 -0.648,0.936 -1.008,0.576 -1.008,0.216 H 9.288 L 7.344,28.224 5.832,27 4.896,25.416 4.104,23.544 3.168,21.023 2.521,18.72 2.16,16.416 2.017,13.896 1.297,10.152 0.792,6.769 0,3.672 -1.512,0.72 -1.943,1.08 -2.16,1.656 l 1.297,4.032 0.647,3.6 0.649,3.672 0.576,4.104 0.503,1.944 0.36,2.232 0.72,2.375 1.08,2.738 1.584,2.159 0.432,0.288 0.792,0.431 0.864,0.433 1.081,0.288 1.223,0.144 0.864,0.072 L 10.08,30.312 7.561,30.888 6.48,30.672 5.473,30.312 4.393,29.952 3.456,29.231 2.16,27.72 1.225,25.92 0.504,23.903 0,22.031 -1.151,16.632 -2.016,10.8 -3.168,4.968 -5.184,-0.217 -3.023,-0.288 -1.296,-0.144 -0.216,0 Z" style="fill:#ffffff;fill-opacity:1;fill-rule:nonzero;stroke:none" id="path4724"/>
  </g>
  <g id="g4726" transform="matrix(1.3333330154418945, 0, 0, -1.3333330154418945, 2918.0768149682854, 1453.8057940668916)">
    <path d="m 0,0 h 2.305 l 1.943,3.744 1.009,4.177 0.647,4.248 0.361,4.392 0.648,4.391 1.151,4.249 1.873,3.816 3.24,3.383 -2.16,-0.36 L 8.929,31.104 7.129,29.665 5.688,27.937 3.889,22.609 2.953,17.281 2.377,11.881 1.584,6.48 1.152,4.896 0.864,3.169 0.289,1.657 -0.287,0.217 V 0.073 Z" style="fill:#ffffff;fill-opacity:1;fill-rule:nonzero;stroke:none" id="path4728"/>
  </g>
  <g id="g4730" transform="matrix(1.3333330154418945, 0, 0, -1.3333330154418945, 2926.5260317038346, 1453.9008664726098)">
    <path d="m 0,0 2.016,5.185 1.08,5.615 0.576,5.616 0.792,5.328 0.72,3.168 1.08,2.592 1.872,2.448 3.312,2.52 L 8.64,31.968 7.344,31.319 6.695,30.528 5.76,29.52 4.68,28.08 3.815,26.641 2.952,25.344 2.376,23.472 1.512,17.641 0.792,11.736 -0.288,5.903 -2.305,0.145 -1.584,0 h 0.359 0.433 z" style="fill:#ffffff;fill-opacity:1;fill-rule:nonzero;stroke:none" id="path4732"/>
  </g>
  <g id="g4734" transform="matrix(1.3333330154418945, 0, 0, -1.3333330154418945, 2944.957016892877, 1413.1013766882497)">
    <path d="M 0,0 2.881,1.656 H 1.801 1.008 L 0.072,1.512 -1.08,1.225 -4.104,-1.08 -5.976,-3.384 -7.271,-6.12 -7.92,-9.432 l -1.151,-6.264 -0.792,-5.471 -1.08,-4.825 -1.657,-4.392 h 1.512 l 0.649,-0.216 1.295,3.241 1.512,5.904 1.441,7.92 0.431,2.159 0.288,2.16 0.433,2.016 0.575,1.584 0.792,1.657 0.937,1.655 1.151,1.224 z" style="fill:#ffffff;fill-opacity:1;fill-rule:nonzero;stroke:none" id="path4736"/>
  </g>
  <g id="g4738" transform="matrix(1.3333330154418945, 0, 0, -1.3333330154418945, 2903.869787105505, 1450.9243250273248)">
    <path d="M 0,0 1.584,0.504 3.168,0.647 5.04,0.791 6.768,0.936 9.071,3.096 7.271,2.375 5.328,2.159 3.384,2.087 1.296,1.583 0.36,0.791 -0.216,0 h 0.072 z" style="fill:#000000;fill-opacity:1;fill-rule:nonzero;stroke:none" id="path4740"/>
  </g>
  <g id="g4742" transform="matrix(1.3333330154418945, 0, 0, -1.3333330154418945, 2912.0299414099727, 1445.8371070019311)">
    <path d="m 0,0 2.52,0.792 0.36,0.36 0.36,0.504 0.36,0.073 0.432,0.288 0.216,0.071 v 0.36 L 2.951,3.385 1.367,4.032 -0.433,4.104 -2.088,4.032 -2.736,3.744 -3.385,3.528 -3.889,3.24 -4.32,3.023 -4.465,2.809 -4.608,2.448 -3.889,1.656 -2.736,1.009 -1.656,0.721 -0.433,0.647 -1.656,0.217 -1.44,0.144 -0.864,0.072 -0.36,0 Z" style="fill:#000000;fill-opacity:1;fill-rule:nonzero;stroke:none" id="path4744"/>
  </g>
  <g id="g4746" transform="matrix(1.3333330154418945, 0, 0, -1.3333330154418945, 2914.8137949129164, 1443.821401102305)">
    <path d="M 0,0 0.144,0.217 0.432,0.937 0,1.585 -1.44,1.873 -1.08,2.017 -0.36,1.873 0.432,1.729 0.863,1.585 1.368,1.081 1.584,0.72 0.863,0.433 Z" style="fill:#ffffff;fill-opacity:1;fill-rule:nonzero;stroke:none" id="path4748"/>
  </g>
  <g id="g4750" transform="matrix(1.3333330154418945, 0, 0, -1.3333330154418945, 2908.669265127887, 1443.7251283387995)">
    <path d="m 0,0 -0.432,0.145 -0.792,0.791 0.577,0.577 0.792,0.143 -0.361,-0.36 V 0.864 l 0.145,-0.431 z" style="fill:#ffffff;fill-opacity:1;fill-rule:nonzero;stroke:none" id="path4752"/>
  </g>
  <g id="g4754" transform="matrix(1.3333330154418945, 0, 0, -1.3333330154418945, 2888.98958231989, 1440.84485965702)">
    <path d="m 0,0 -0.432,3.384 -0.36,3.311 V 9.937 L 0.36,13.176 0,13.824 -0.576,13.968 -1.512,10.512 V 6.84 l 0.72,-3.527 z" style="fill:#000000;fill-opacity:1;fill-rule:nonzero;stroke:none" id="path4756"/>
  </g>
  <g id="g4758" transform="matrix(1.3333330154418945, 0, 0, -1.3333330154418945, 2908.574213067216, 1432.0128712028347)">
    <path d="M 0,0 0.071,0.071 V 0.144 L 0.144,0.504 0.216,0.937 -0.145,1.584 -0.864,1.944 -4.177,0.937 -4.32,0.72 V 0.433 l 0.143,-0.217 0.361,-0.072 2.448,1.368 h 0.431 0.361 L -0.145,0.937 V -0.144 0 Z" style="fill:#000000;fill-opacity:1;fill-rule:nonzero;stroke:none" id="path4760"/>
  </g>
  <g id="g4762" transform="matrix(1.3333330154418945, 0, 0, -1.3333330154418945, 2899.165361143795, 1427.6938007807587)">
    <path d="M 0,0 H 0.36 0.792 L 1.008,0.289 V 0.721 L -3.816,2.449 -4.536,1.873 V 1.44 1.081 l 0.36,-0.504 h 0.864 l -0.936,0.648 0.217,0.504 0.504,0.36 z" style="fill:#000000;fill-opacity:1;fill-rule:nonzero;stroke:none" id="path4764"/>
  </g>
  <g id="g4766" transform="matrix(1.3333330154418945, 0, 0, -1.3333330154418945, 2906.36588026039, 1427.6938007807587)">
    <path d="M 0,0 2.016,0.433 3.815,1.44 5.472,2.377 7.704,2.089 7.848,1.873 7.992,1.513 7.775,1.081 7.199,0.721 6.768,0.864 6.336,0.721 6.768,0.577 7.199,0.289 H 7.344 L 7.704,0.433 8.063,0.577 8.352,1.081 8.28,2.017 7.344,2.449 6.336,2.881 H 5.256 L 4.176,2.664 3.384,2.232 2.592,1.944 1.8,1.729 1.08,1.368 0.359,1.152 -0.288,0.864 -0.217,0.073 Z" style="fill:#000000;fill-opacity:1;fill-rule:nonzero;stroke:none" id="path4768"/>
  </g>
  <g id="g4770" transform="matrix(1.3333330154418945, 0, 0, -1.3333330154418945, 2901.7578084423735, 1424.9087265749806)">
    <path d="M 0,0 5.184,1.08 5.76,0.575 5.976,1.224 5.832,2.304 5.616,2.016 5.472,1.728 2.88,1.08 0.576,0.792 -1.296,1.08 -2.448,1.872 -2.736,1.367 l -0.072,-0.72 0.576,0.29 0.576,-0.29 0.719,-0.287 0.792,-0.432 z" style="fill:#000000;fill-opacity:1;fill-rule:nonzero;stroke:none" id="path4772"/>
  </g>
  <g id="g4774" transform="matrix(1.3333330154418945, 0, 0, -1.3333330154418945, 2917.88540876392, 1421.5480502928951)">
    <path d="M 0,0 1.08,3.743 2.232,3.527 1.944,4.104 1.728,5.399 2.304,6.335 2.592,6.623 H 3.024 L 3.601,6.551 4.104,6.335 3.744,6.911 3.024,7.271 2.304,6.911 1.728,6.479 1.296,5.688 0.937,4.823 -0.144,0 Z" style="fill:#000000;fill-opacity:1;fill-rule:nonzero;stroke:none" id="path4776"/>
  </g>
  <g id="g4778" transform="matrix(1.3333330154418945, 0, 0, -1.3333330154418945, 2906.6536406084497, 1421.2615309927169)">
    <path d="m 0,0 -0.288,0.433 -5.4,0.792 -0.216,-0.361 z" style="fill:#000000;fill-opacity:1;fill-rule:nonzero;stroke:none" id="path4780"/>
  </g>
  <g id="g4782" transform="matrix(1.3333330154418945, 0, 0, -1.3333330154418945, 2894.076820690331, 1419.532466463552)">
    <path d="M 0,0 -0.071,3.168 -1.224,6.191 -1.943,6.84 -2.879,7.271 -4.104,7.488 H -5.472 L -5.976,7.127 -6.479,6.84 -6.84,6.479 -7.199,5.904 l 0.576,0.575 0.72,0.504 h 1.368 L -3.239,6.84 -2.016,6.335 -1.008,5.399 -0.432,2.592 -0.144,0 h 0.073 z" style="fill:#000000;fill-opacity:1;fill-rule:nonzero;stroke:none" id="path4784"/>
  </g>
  <g id="g4786" transform="matrix(1.3333330154418945, 0, 0, -1.3333330154418945, 2902.4296832821865, 1410.6052631883178)">
    <path d="m 0,0 1.296,1.44 1.08,1.081 0.936,1.152 1.152,1.655 1.656,2.233 1.728,2.447 1.656,2.592 1.512,2.88 2.52,4.897 1.296,-3.961 1.151,-3.023 1.297,-2.808 1.657,-3.457 1.223,-2.159 1.224,-1.8 0.864,-1.368 0.432,-0.793 0.432,0.36 0.648,0.576 -1.728,2.592 -1.44,2.233 L 19.296,9.072 18,11.736 16.56,14.473 15.408,16.992 14.399,19.585 13.68,22.824 13.104,21.673 12.672,20.377 12.168,19.08 11.592,18.072 9.864,14.904 8.063,11.808 6.12,8.928 4.032,5.977 2.952,4.536 1.728,3.169 0.576,1.944 -0.648,0.793 -0.36,0.432 Z" style="fill:#ffff80;fill-opacity:1;fill-rule:nonzero;stroke:none" id="path4788"/>
  </g>
  <g id="g4790" transform="matrix(1.3333330154418945, 0, 0, -1.3333330154418945, 2975.4856554476146, 1408.6847110745987)">
    <path d="m 0,0 1.729,0.647 -1.945,0.217 -1.656,0.144 -1.512,0.216 -1.368,0.288 -1.152,0.288 -1.08,0.359 -1.08,0.362 -1.008,0.503 -1.657,0.719 -1.727,0.937 -1.296,1.152 -1.512,0.937 -2.736,3.168 -2.52,3.239 -2.088,3.456 -1.8,3.816 -1.44,3.744 -0.936,4.175 -0.36,4.393 0.072,4.177 1.008,5.111 1.368,4.824 2.088,4.68 3.096,4.752 1.368,1.728 1.728,2.663 1.728,2.593 1.368,1.584 8.064,7.703 H -5.4 L -5.473,72.647 -6.768,72 l -1.368,-0.864 -1.44,-0.865 -1.008,-0.719 -1.656,-1.296 -1.656,-1.44 -1.512,-1.657 -1.368,-1.655 -1.368,-1.872 -1.296,-1.8 -1.152,-1.8 -1.297,-1.728 -3.023,-5.616 -2.088,-4.968 -1.512,-4.536 -0.72,-4.464 -0.144,-3.384 0.432,-3.672 1.008,-4.248 1.44,-4.895 1.152,-2.376 1.152,-2.376 1.296,-2.521 1.368,-2.232 1.728,-2.233 1.872,-2.014 2.088,-1.801 2.52,-1.656 1.511,-0.791 1.441,-0.721 1.513,-0.576 1.511,-0.36 1.656,-0.36 L -3.96,0.216 -2.088,0 Z" style="fill:#ffff80;fill-opacity:1;fill-rule:nonzero;stroke:none" id="path4792"/>
  </g>
  <g id="g4794" transform="matrix(1.3333330154418945, 0, 0, -1.3333330154418945, 2973.470030928177, 1405.9008575716546)">
    <path d="m 0,0 h 1.8 l -1.153,2.52 -0.503,3.168 -0.648,3.24 -1.368,2.52 0.359,2.88 -0.143,2.592 -0.792,1.728 -2.233,0.289 0.216,1.511 0.721,1.367 0.359,1.081 -1.008,1.44 -1.223,0.288 -1.513,0.504 -1.295,0.648 -0.648,0.791 -0.72,2.521 -0.864,2.088 -4.464,1.512 -0.36,0.503 -0.289,0.792 0.649,1.658 5.112,0.792 0.575,1.367 0.361,1.728 0.864,0.576 1.151,0.432 1.297,0.071 1.295,0.289 0.721,1.295 -0.792,2.233 0.143,2.664 -0.503,0.144 -0.577,-0.216 -0.575,-0.504 -0.576,-0.361 -1.8,-1.006 -1.801,-0.937 -1.872,-0.721 -1.799,-1.008 -1.008,-0.431 -1.225,-0.792 -1.295,-0.649 -1.44,-0.647 -1.296,-0.792 -1.368,-0.648 -1.153,-0.576 -0.864,-0.504 -0.791,-1.369 -0.288,-1.871 1.296,-1.801 1.439,-0.647 1.441,-0.72 1.08,-0.72 1.08,-0.792 1.151,-0.865 0.937,-0.863 0.935,-1.08 0.937,-0.936 1.872,-1.944 1.727,-2.017 1.296,-2.375 1.369,-2.304 L -6.84,14.832 -5.76,12.24 -4.681,9.72 -3.672,7.057 -3.24,5.185 -2.664,3.6 -2.16,1.944 -1.513,0.288 -0.864,0 Z" style="fill:#c0c0ff;fill-opacity:1;fill-rule:nonzero;stroke:none" id="path4796"/>
  </g>
  <g id="g4798" transform="matrix(1.3333330154418945, 0, 0, -1.3333330154418945, 2878.813803495985, 1405.0363354795957)">
    <path d="m 0,0 2.592,2.447 2.592,2.737 2.448,2.591 2.16,2.809 2.304,2.952 2.015,3.095 1.945,3.312 1.944,3.673 2.088,6.911 1.08,4.752 0.216,4.105 -0.361,4.752 -0.935,3.815 -1.152,3.744 -1.584,3.601 -1.8,3.672 -2.232,3.311 -2.592,2.88 -3.024,2.448 -3.384,1.945 -1.08,0.504 -1.296,0.575 -1.872,0.577 -2.304,0.647 -1.368,0.289 -1.224,0.144 -1.153,0.144 -1.223,-0.144 -1.08,-0.217 -1.224,-0.287 -1.152,-0.361 -1.44,-0.431 2.088,0.216 h 2.232 l 2.376,-0.216 2.591,-0.648 2.449,-0.72 2.304,-0.864 2.087,-1.153 1.873,-1.223 1.512,-0.937 1.296,-1.008 1.368,-1.151 1.296,-1.296 1.151,-1.297 1.08,-1.727 1.081,-1.801 0.864,-2.087 2.52,-5.833 1.08,-5.76 L 19.368,37.8 19.08,32.616 18.36,29.231 17.063,26.063 15.768,23.04 14.4,20.159 12.527,17.352 10.8,14.688 8.855,12.023 6.84,9.503 4.752,7.056 2.447,4.68 0.288,2.447 -2.016,0.359 -1.729,0 l 0.504,-0.36 0.577,0.144 z" style="fill:#ffff80;fill-opacity:1;fill-rule:nonzero;stroke:none" id="path4800"/>
  </g>
  <g id="g4802" transform="matrix(1.3333330154418945, 0, 0, -1.3333330154418945, 2965.4062307674035, 1363.7576791428114)">
    <path d="m 0,0 -2.521,1.729 0.72,0.503 1.729,1.009 1.584,1.079 0.864,0.649 -0.36,0.935 -6.912,-3.96 3.383,-2.376 1.945,-1.872 1.655,-2.015 1.513,-1.872 1.296,-2.088 1.295,-2.233 1.153,-2.303 1.008,-2.449 1.08,-2.663 4.536,-12.24 1.584,0.504 -0.937,2.375 -0.792,2.017 -1.008,2.448 -1.152,3.384 -0.935,2.16 -1.296,3.095 -1.296,3.025 -1.008,2.088 -0.649,1.152 -0.648,1.151 -0.72,1.08 -0.792,1.152 -0.935,1.44 -1.008,1.153 -1.152,1.007 z" style="fill:#ffff80;fill-opacity:1;fill-rule:nonzero;stroke:none" id="path4804"/>
  </g>
  <g id="g4806" transform="matrix(1.3333330154418945, 0, 0, -1.3333330154418945, 2892.253904458282, 1404.7485751315364)">
    <path d="M 0,0 H 0.144 0.359 L 1.728,1.368 3.24,2.735 4.752,4.32 5.976,5.831 7.344,7.488 8.568,9.144 9.792,10.8 l 1.151,1.8 2.592,4.607 2.448,5.545 2.233,6.768 1.296,8.352 -0.288,6.264 -1.296,7.128 -2.233,6.912 -2.735,5.76 L 9,71.64 H 6.191 l 2.305,-3.456 1.871,-3.241 2.017,-3.599 2.015,-4.393 1.225,-4.031 1.151,-4.824 0.793,-4.896 V 38.447 L 17.136,33.984 16.56,30.023 15.552,25.848 14.184,21.672 12.096,17.784 10.008,14.184 7.92,10.943 5.832,7.848 4.104,5.831 2.231,3.96 0.359,2.088 -1.368,0.432 -0.72,0.144 Z" style="fill:#ffc0c0;fill-opacity:1;fill-rule:nonzero;stroke:none" id="path4808"/>
  </g>
  <g id="g4810" transform="matrix(1.3333330154418945, 0, 0, -1.3333330154418945, 2853.949226090831, 1394.0923276721842)">
    <path d="M 0,0 3.816,3.6 V 7.271 L 2.809,6.912 2.232,6.335 1.512,5.832 0.576,5.328 -0.647,2.951 V 0.359 L -0.504,0 l 0.145,-0.145 0.143,0.073 z" style="fill:#c0c0ff;fill-opacity:1;fill-rule:nonzero;stroke:none" id="path4812"/>
  </g>
  <g id="g4814" transform="matrix(1.3333330154418945, 0, 0, -1.3333330154418945, 2856.7330795937746, 1379.5011242825096)">
    <path d="M 0,0 19.656,0.36 V 2.088 H -2.376 L -2.88,1.152 -2.735,0 h 0.431 0.865 0.863 z" style="fill:#ffffff;fill-opacity:1;fill-rule:nonzero;stroke:none" id="path4816"/>
  </g>
  <g id="g4818" transform="matrix(1.3333330154418945, 0, 0, -1.3333330154418945, 2853.4700595384065, 1376.141831463636)">
    <path d="M 0,0 1.584,-0.144 4.319,1.801 V 2.953 Z" style="fill:#ffffff;fill-opacity:1;fill-rule:nonzero;stroke:none" id="path4820"/>
  </g>
  <g id="g4822" transform="matrix(1.3333330154418945, 0, 0, -1.3333330154418945, 2860.38151622392, 1375.3735617900347)">
    <path d="M 0,0 8.424,1.008 V 2.664 L 2.952,2.377 2.88,2.809 8.424,3.097 8.641,4.32 9,4.753 9.432,4.393 9.576,3.816 11.088,3.313 10.944,4.393 10.8,5.616 2.88,5.473 H 2.592 l 0.144,0.215 h 7.92 L 10.225,10.584 4.536,11.736 0.36,12.672 -0.216,6.553 -0.288,0 h 0.143 z" style="fill:#ffffff;fill-opacity:1;fill-rule:nonzero;stroke:none" id="path4824"/>
  </g>
  <g id="g4826" transform="matrix(1.3333330154418945, 0, 0, -1.3333330154418945, 2873.628908898828, 1375.3735617900347)">
    <path d="M 0,0 -0.144,1.44 V 2.017 2.521 L -0.791,1.873 -0.72,1.152 -0.216,0.504 Z" style="fill:#ffffff;fill-opacity:1;fill-rule:nonzero;stroke:none" id="path4828"/>
  </g>
  <g id="g4830" transform="matrix(1.3333330154418945, 0, 0, -1.3333330154418945, 2875.358075153229, 1375.6600607451655)">
    <path d="M 0,0 0.071,0.071 H 0.144 L -0.145,2.592 -0.721,1.728 V 0.647 l 0.217,-0.432 z" style="fill:#ffffff;fill-opacity:1;fill-rule:nonzero;stroke:none" id="path4832"/>
  </g>
  <g id="g4834" transform="matrix(1.3333330154418945, 0, 0, -1.3333330154418945, 2881.694011142624, 1373.0688748395153)">
    <path d="m 0,0 1.871,1.512 1.513,1.08 1.656,1.008 2.304,1.152 1.44,0.72 1.367,0.648 1.513,0.72 1.151,0.576 0.792,0.359 0.721,0.649 0.575,0.431 0.505,0.577 0.432,2.52 -0.937,2.232 -2.448,1.224 -2.304,1.367 -1.872,1.513 -1.727,1.512 -1.441,1.727 -1.367,1.729 -1.44,1.801 -1.224,1.798 -2.592,4.465 -1.801,4.247 -1.368,4.609 -1.511,5.4 -3.529,0.792 -0.791,-4.896 0.936,-2.159 1.08,-1.801 -0.36,-3.817 1.512,-1.151 1.079,-0.936 0.577,-1.656 0.215,-3.311 1.801,-0.866 1.584,-0.288 0.936,-0.647 0.215,-1.944 -0.431,-1.8 0.647,-1.728 3.168,-0.72 -0.143,-1.728 0.864,-1.944 1.367,-0.792 1.153,-0.648 1.007,-0.36 0.865,0.36 0.36,-1.44 L 7.344,10.655 2.664,9.216 0.792,6.408 -2.16,6.48 -3.889,4.536 l 0.576,-5.544 0.504,0.216 1.153,0.288 1.08,0.359 z" style="fill:#c0c0ff;fill-opacity:1;fill-rule:nonzero;stroke:none" id="path4836"/>
  </g>
  <g id="g4838" transform="matrix(1.3333330154418945, 0, 0, -1.3333330154418945, 2873.4375026944626, 1367.020739888274)">
    <path d="M 0,0 -0.937,0.288 -1.151,1.224 V 0.144 Z" style="fill:#000000;fill-opacity:1;fill-rule:nonzero;stroke:none" id="path4840"/>
  </g>
  <g id="g4842" transform="matrix(1.3333330154418945, 0, 0, -1.3333330154418945, 2865.470056677383, 1364.4282112095061)">
    <path d="M 0,0 6.264,0.071 -0.072,0.863 Z" style="fill:#000000;fill-opacity:1;fill-rule:nonzero;stroke:none" id="path4844"/>
  </g>
  <g id="g4846" transform="matrix(1.3333330154418945, 0, 0, -1.3333330154418945, 2871.902346810472, 1363.180897053764)">
    <path d="M 0,0 H 0.287 L 0.647,-0.072 0.359,0.504 0.071,1.151 H 0 -0.217 L -0.289,0.359 -0.217,0.145 Z" style="fill:#000000;fill-opacity:1;fill-rule:nonzero;stroke:none" id="path4848"/>
  </g>
  <g id="g4850" transform="matrix(1.3333330154418945, 0, 0, -1.3333330154418945, 2876.126304136735, 1362.6052949774569)">
    <path d="M 0,0 4.896,2.305 7.56,4.248 3.888,7.272 0.432,10.008 0.359,9.72 0.287,9.36 1.224,7.992 2.376,6.84 3.743,5.761 5.039,4.752 5.256,4.68 V 4.752 L -0.217,1.368 V 1.08 0.864 L 0,0.504 Z" style="fill:#ffff80;fill-opacity:1;fill-rule:nonzero;stroke:none" id="path4852"/>
  </g>
  <g id="g4854" transform="matrix(1.3333330154418945, 0, 0, -1.3333330154418945, 2983.5494556083877, 1358.7642314401128)">
    <path d="M 0,0 H 0.216 0.648 V 12.815 L -7.776,11.52 -7.92,10.871 -7.776,10.08 h 5.328 l 0.36,-0.217 V 9.575 L -8.063,8.927 V 7.343 h 5.615 l 0.36,-0.216 V 6.768 L -8.063,6.479 -8.136,5.184 -8.712,5.111 v 0.361 l 0.072,0.431 -0.72,-0.071 0.648,0.575 h -1.296 L -9.937,4.896 -1.872,4.104 V 3.743 3.455 L -9.72,3.671 -9.504,1.296 Z" style="fill:#ffffff;fill-opacity:1;fill-rule:nonzero;stroke:none" id="path4856"/>
  </g>
  <g id="g4858" transform="matrix(1.3333330154418945, 0, 0, -1.3333330154418945, 2973.180968497095, 1356.2693996781563)">
    <path d="M 0,0 -0.071,1.152 -1.512,1.513 -0.287,0.937 -0.432,0 Z" style="fill:#000000;fill-opacity:1;fill-rule:nonzero;stroke:none" id="path4860"/>
  </g>
  <g id="g4862" transform="matrix(1.3333330154418945, 0, 0, -1.3333330154418945, 2874.30078373864, 1344.5571628872385)">
    <path d="m 0,0 -1.584,2.16 -1.224,1.872 -1.08,2.088 -1.223,2.592 -1.512,4.176 -1.225,3.745 -1.007,3.527 -1.008,3.744 -1.008,-1.152 0.863,-4.248 1.801,-5.688 2.016,-5.183 1.368,-2.809 1.944,-2.952 1.871,-2.88 1.872,-2.592 1.513,-1.368 0.647,0.216 -0.864,1.656 z" style="fill:#ffff80;fill-opacity:1;fill-rule:nonzero;stroke:none" id="path4864"/>
  </g>
  <g id="g4866" transform="matrix(1.3333330154418945, 0, 0, -1.3333330154418945, 2972.221333309223, 1348.9738285008898)">
    <path d="M 0,0 V 0.433 L 0.072,0.937 -1.008,0.792 -1.151,1.153 0.072,1.225 0,1.729 -1.8,1.44 -1.728,0 h 0.216 0.576 0.576 z" style="fill:#ffffff;fill-opacity:1;fill-rule:nonzero;stroke:none" id="path4868"/>
  </g>
  <g id="g4870" transform="matrix(1.3333330154418945, 0, 0, -1.3333330154418945, 2970.3007608504563, 1345.1326022031683)">
    <path d="m 0,0 0.289,1.152 -0.504,0.791 -0.793,0.649 0.288,-3.168 0.433,0.216 z" style="fill:#ffffff;fill-opacity:1;fill-rule:nonzero;stroke:none" id="path4872"/>
  </g>
  <g id="g4874" transform="matrix(1.3333330154418945, 0, 0, -1.3333330154418945, 2971.4531043257166, 1345.7082042794757)">
    <path d="M 0,0 -0.216,2.52 0.36,1.151 0.216,0.575 Z" style="fill:#ffffff;fill-opacity:1;fill-rule:nonzero;stroke:none" id="path4876"/>
  </g>
  <g id="g4878" transform="matrix(1.3333330154418945, 0, 0, -1.3333330154418945, 2984.8932052880127, 1344.8448825452035)">
    <path d="M 0,0 0.288,-1.225 5.112,2.808 4.104,2.952 Z" style="fill:#ffff80;fill-opacity:1;fill-rule:nonzero;stroke:none" id="path4880"/>
  </g>
  <g id="g4882" transform="matrix(1.3333330154418945, 0, 0, -1.3333330154418945, 2961.85284619793, 1340.9087669471883)">
    <path d="M 0,0 H 21.961 L 22.177,1.296 19.656,1.728 16.921,1.944 14.185,2.088 11.448,2.231 8.568,2.088 H 5.761 L 3.024,1.944 0.289,1.872 -0.144,1.151 -0.216,0 h 0.072 z" style="fill:#ffffff;fill-opacity:1;fill-rule:nonzero;stroke:none" id="path4884"/>
  </g>
  <g id="g4886" transform="matrix(1.3333330154418945, 0, 0, -1.3333330154418945, 2923.453115769808, 1347.1483487928892)">
    <path d="m 0,0 1.513,4.319 2.015,5.184 2.233,5.185 2.015,3.959 1.657,2.521 1.511,2.375 1.657,2.305 2.015,2.376 -1.727,-1.296 -1.153,-0.937 -1.08,-1.08 L 9.145,23.04 7.561,20.52 6.192,18.576 4.896,16.415 3.816,13.535 2.809,11.016 1.944,8.64 1.225,6.983 0.505,6.191 l -0.36,0.288 -0.433,1.44 -0.504,2.088 -0.504,2.881 -0.792,3.168 -1.008,3.095 -1.08,2.737 -0.504,2.015 -1.368,3.241 -1.008,1.728 -0.792,0.719 -0.719,0.073 2.448,-6.265 2.376,-7.775 2.304,-8.353 z" style="fill:#ffff80;fill-opacity:1;fill-rule:nonzero;stroke:none" id="path4888"/>
  </g>
  <g id="g4890" transform="matrix(1.3333330154418945, 0, 0, -1.3333330154418945, 2972.3176874529167, 1337.4530386044319)">
    <path d="m 0,0 h 2.664 l -1.152,4.752 -0.288,4.536 0.72,5.112 1.728,6.121 -1.512,9.288 -0.216,5.975 0.648,4.968 1.44,6.265 -0.72,2.591 -0.577,2.375 -0.143,2.376 0.36,2.305 L 1.151,52.2 -0.288,0.144 h 0.216 z" style="fill:#ffffff;fill-opacity:1;fill-rule:nonzero;stroke:none" id="path4892"/>
  </g>
  <g id="g4894" transform="matrix(1.3333330154418945, 0, 0, -1.3333330154418945, 2982.781226624881, 1337.4530386044319)">
    <path d="m 0,0 -0.936,51.84 -0.36,2.089 -0.576,0.43 -0.936,0.361 -0.935,1.944 L -4.176,52.2 -3.168,48.456 -3.6,44.567 -4.464,39.024 -4.536,31.68 -2.016,22.536 -3.168,17.353 -4.752,12.96 -5.399,8.496 -3.96,2.735 -3.6,1.44 -3.239,0.359 h 1.367 l 0.36,-0.071 0.504,-0.072 z" style="fill:#ffff80;fill-opacity:1;fill-rule:nonzero;stroke:none" id="path4896"/>
  </g>
  <g id="g4898" transform="matrix(1.3333330154418945, 0, 0, -1.3333330154418945, 2984.8932052880127, 1336.1092889248068)">
    <path d="M 0,0 3.888,2.232 4.752,5.688 4.896,9.216 1.009,5.688 -0.216,4.824 -0.288,0 h 0.217 z" style="fill:#c0c0ff;fill-opacity:1;fill-rule:nonzero;stroke:none" id="path4900"/>
  </g>
  <g id="g4902" transform="matrix(1.3333330154418945, 0, 0, -1.3333330154418945, 2919.1341063828736, 1391.8852766033342)">
    <path d="M 0,0 V -2.304 L 0.936,-0.36 0.791,-0.144 0.576,0.072 Z" style="fill:#ffff00;fill-opacity:1;fill-rule:nonzero;stroke:none" id="path4904"/>
  </g>
  <g id="g4906" transform="matrix(1.3333330154418945, 0, 0, -1.3333330154418945, 2917.88540876392, 1394.764202511997)">
    <path d="m 0,0 h -0.216 l -0.648,-0.145 -0.504,-0.215 0.072,-0.433 -0.144,-1.656 0.144,-0.36 0.937,-4.392 0.792,0.936 0.863,0.936 0.792,1.009 0.648,1.152 0.361,1.007 L 3.024,-1.225 2.232,-0.937 1.728,-1.152 1.513,-1.44 0.937,-1.584 0.433,-0.793 Z" style="fill:#ffff80;fill-opacity:1;fill-rule:nonzero;stroke:none" id="path4908"/>
  </g>
  <g id="g4910" transform="matrix(1.3333330154418945, 0, 0, -1.3333330154418945, 2901.7578084423735, 1308.0767435249545)">
    <path d="m 0,0 4.319,0.864 2.737,2.736 1.656,3.168 1.08,3.744 0.792,4.032 0.36,4.032 0.576,4.176 0.576,3.96 1.296,3.744 1.511,2.952 H 13.032 L 10.8,29.736 9.216,25.488 8.136,20.88 7.416,16.199 6.624,11.808 5.76,7.632 4.464,3.96 2.304,1.151 -0.145,0.072 H 0 Z" style="fill:#ffffff;fill-opacity:1;fill-rule:nonzero;stroke:none" id="path4912"/>
  </g>
  <g id="g4914" transform="matrix(1.3333330154418945, 0, 0, -1.3333330154418945, 2955.613264352229, 1308.0767435249545)">
    <path d="M 0,0 1.008,0.072 1.944,0.287 2.809,0.647 3.601,1.296 3.744,1.8 3.889,1.872 3.024,1.296 2.088,0.792 1.152,0.504 0.072,0.792 -0.359,0.864 -0.72,1.08 l -0.432,0.071 -0.432,0.288 -1.008,1.225 -0.431,1.584 -0.145,1.728 -0.216,1.8 -0.143,-1.944 0.288,-1.872 0.575,-1.8 1.08,-1.368 z" style="fill:#000000;fill-opacity:1;fill-rule:nonzero;stroke:none" id="path4916"/>
  </g>
  <g id="g4918" transform="matrix(1.3333330154418945, 0, 0, -1.3333330154418945, 2898.014319751558, 1307.4047466148586)">
    <path d="m 0,0 1.8,0.288 1.368,0.576 1.367,0.936 1.153,1.152 1.08,2.376 0.863,2.592 0.648,2.736 0.504,2.448 0.432,4.104 0.721,3.888 4.391,11.881 L 12.023,32.832 9.791,29.304 8.424,25.416 7.56,21.239 6.768,16.92 6.047,12.744 5.039,8.64 3.6,4.823 1.224,1.439 0.575,1.296 -0.217,0.936 -1.009,0.576 -1.513,0.36 Z" style="fill:#ffffff;fill-opacity:1;fill-rule:nonzero;stroke:none" id="path4920"/>
  </g>
  <g id="g4922" transform="matrix(1.3333330154418945, 0, 0, -1.3333330154418945, 2909.533848255088, 1306.9243593596002)">
    <path d="m 0,0 2.088,0.575 2.088,0.937 1.872,1.296 1.296,1.799 2.016,6.768 0.936,6.984 0.935,7.057 2.233,6.624 v 0.432 0.144 H 10.655 L 8.712,28.8 7.487,24.335 6.479,19.728 5.904,14.976 5.112,10.367 4.032,6.191 2.304,2.663 -0.216,0 h 0.144 z" style="fill:#ffffff;fill-opacity:1;fill-rule:nonzero;stroke:none" id="path4924"/>
  </g>
  <g id="g4926" transform="matrix(1.3333330154418945, 0, 0, -1.3333330154418945, 2893.213539646153, 1305.869712801152)">
    <path d="m 0,0 1.728,0.433 1.584,0.648 1.368,1.007 1.008,1.297 1.8,4.679 1.08,4.896 0.936,4.896 1.152,4.752 3.888,9.073 H 7.992 L 7.272,30.745 6.479,29.665 4.176,23.833 2.808,17.568 1.728,11.232 0,5.473 -1.512,4.825 -2.448,5.329 -1.656,5.617 -1.008,5.761 -0.36,6.48 0,7.488 -0.36,8.713 -1.512,9.505 -2.592,9.288 -3.528,9 -4.392,8.28 -5.04,7.417 -5.112,5.473 V 4.177 l 0.432,-0.288 0.36,-0.361 0.432,-0.576 0.432,-0.143 1.368,-0.216 1.224,0.216 1.08,0.359 1.08,0.864 1.584,2.737 1.08,2.736 0.504,2.736 0.36,3.528 0.288,1.944 0.576,2.231 0.576,2.376 0.505,1.657 0.792,1.944 0.719,1.655 0.792,1.656 1.008,1.44 0.288,-0.144 V 30.241 L 7.704,23.185 6.408,15.625 5.185,8.425 2.304,2.809 1.512,2.376 0.504,2.017 -0.72,1.729 -2.448,1.44 -2.088,1.009 -1.439,0.648 -0.72,0.217 0,-0.071 Z" style="fill:#ffffff;fill-opacity:1;fill-rule:nonzero;stroke:none" id="path4928"/>
  </g>
  <g id="g4930" transform="matrix(1.3333330154418945, 0, 0, -1.3333330154418945, 2962.910137612519, 1301.1652868394415)">
    <path d="M 0,0 1.151,0.864 V 4.177 L 0.576,4.536 0.071,4.896 -0.576,5.185 -1.297,5.112 -2.017,4.752 -2.448,4.464 h -0.216 l -0.36,0.288 1.007,5.112 -0.36,5.328 -0.936,5.256 -0.791,5.4 L -5.616,20.016 -5.761,14.04 -5.688,7.92 -6.192,1.944 -6.12,1.368 -5.977,0.936 -5.185,1.513 -4.32,1.872 -3.24,1.944 -2.232,1.728 -1.729,1.44 -1.152,0.936 -0.793,0.504 -0.36,-0.144 -0.217,0 Z" style="fill:#ffffff;fill-opacity:1;fill-rule:nonzero;stroke:none" id="path4932"/>
  </g>
  <g id="g4934" transform="matrix(1.3333330154418945, 0, 0, -1.3333330154418945, 2941.2135282020618, 1297.9008833208609)">
    <path d="M 0,0 2.521,0.648 1.44,0.504 H 0.433 -0.792 L -2.16,0.792 Z" style="fill:#000000;fill-opacity:1;fill-rule:nonzero;stroke:none" id="path4936"/>
  </g>
  <g id="g4938" transform="matrix(1.3333330154418945, 0, 0, -1.3333330154418945, 2935.4531129087854, 1295.885299491518)">
    <path d="M 0,0 V 0.072 L 0.145,0.36 1.656,0.937 3.24,1.225 4.968,1.296 6.552,1.368 9.072,-0.216 9.505,1.729 8.929,0.576 7.416,1.512 5.616,1.8 3.744,2.017 1.944,1.729 1.513,1.512 1.08,1.296 0.576,1.008 0.288,0.937 0,1.512 -0.144,2.088 -0.359,1.152 -0.144,0 Z" style="fill:#000000;fill-opacity:1;fill-rule:nonzero;stroke:none" id="path4940"/>
  </g>
  <g id="g4942" transform="matrix(1.3333330154418945, 0, 0, -1.3333330154418945, 2956.381493335736, 1295.885299491518)">
    <path d="M 0,0 1.296,3.24 1.225,6.841 0.576,10.656 0,14.328 V 11.952 L 0.432,9.433 0.864,6.984 0.792,4.464 0.576,2.088 -0.216,0 Z" style="fill:#000000;fill-opacity:1;fill-rule:nonzero;stroke:none" id="path4944"/>
  </g>
  <g id="g4946" transform="matrix(1.3333330154418945, 0, 0, -1.3333330154418945, 2929.6939996985316, 1293.4855604803272)">
    <path d="M 0,0 6.695,1.656 6.768,1.8 7.056,2.088 v 0.36 L 6.695,2.736 5.111,2.664 3.6,2.088 2.088,1.296 0.647,0.576 -1.152,0.864 -1.297,1.225 V 1.8 l 0.721,0.288 h 0.72 L -0.36,2.448 -1.152,2.521 -1.512,2.16 -1.8,1.584 -1.297,0.288 Z" style="fill:#000000;fill-opacity:1;fill-rule:nonzero;stroke:none" id="path4948"/>
  </g>
  <g id="g4950" transform="matrix(1.3333330154418945, 0, 0, -1.3333330154418945, 2950.1419114900355, 1293.196498049245)">
    <path d="M 0,0 1.296,0.359 V 1.583 L 0.936,2.16 0.216,2.304 V 1.943 L 0.504,1.728 0.864,1.367 0.504,1.008 0.072,0.936 h -0.648 l -3.24,1.8 -0.36,-0.144 -0.36,-0.288 0.935,-0.865 1.08,-0.576 1.225,-0.431 z" style="fill:#000000;fill-opacity:1;fill-rule:nonzero;stroke:none" id="path4952"/>
  </g>
  <g id="g4954" transform="matrix(1.3333330154418945, 0, 0, -1.3333330154418945, 2937.757799859305, 1288.1093003688986)">
    <path d="M 0,0 3.384,1.368 V 1.656 L 2.952,1.944 -0.072,0.936 -0.288,1.513 -0.072,1.944 -0.937,2.305 -1.08,1.728 -1.224,1.368 -0.937,0.792 -0.648,0.216 Z" style="fill:#000000;fill-opacity:1;fill-rule:nonzero;stroke:none" id="path4956"/>
  </g>
  <g id="g4958" transform="matrix(1.3333330154418945, 0, 0, -1.3333330154418945, 2930.653634886404, 1276.4934177216746)">
    <path d="M 0,0 -0.216,0.937 0.288,2.593 -0.072,2.377 -0.72,1.872 -1.368,1.297 -1.296,1.152 -1.512,0.648 -1.008,0.36 -0.504,0.217 Z" style="fill:#ffffff;fill-opacity:1;fill-rule:nonzero;stroke:none" id="path4960"/>
  </g>
  <g id="g4962" transform="matrix(1.3333330154418945, 0, 0, -1.3333330154418945, 2946.5898290035843, 1276.4934177216746)">
    <path d="m 0,0 h -0.432 l -0.576,0.217 -0.721,0.143 -0.503,0.144 0.864,1.008 h 0.431 l 0.649,0.144 H 0.144 L -0.288,1.297 -0.217,0.648 Z" style="fill:#ffffff;fill-opacity:1;fill-rule:nonzero;stroke:none" id="path4964"/>
  </g>
  <g id="g4966" transform="matrix(1.3333330154418945, 0, 0, -1.3333330154418945, 2928.9257707150255, 1270.8293158819981)">
    <path d="M 0,0 0.936,0.576 2.088,0.864 3.312,1.008 4.68,0.864 5.832,1.008 7.056,1.08 8.136,1.584 8.928,2.521 9.072,2.88 9.288,3.168 7.776,2.88 5.976,2.521 4.176,2.377 2.447,2.16 1.656,1.801 0.936,1.225 0.432,0.576 -0.072,0 Z" style="fill:#000000;fill-opacity:1;fill-rule:nonzero;stroke:none" id="path4968"/>
  </g>
  <g id="g4970" transform="matrix(1.3333330154418945, 0, 0, -1.3333330154418945, 2866.045577373501, 1359.053293871195)">
    <path d="M 0,0 -1.224,0.432 -2.16,1.009 -2.809,1.801 -3.023,3.024 -2.809,4.176 -2.16,4.969 -1.224,5.688 0,5.904 1.008,5.688 1.872,4.969 2.448,4.176 2.664,3.024 2.448,1.801 1.872,0.792 1.008,0.217 Z" style="fill:#ffff80;fill-opacity:1;fill-rule:nonzero;stroke:none" id="path4972"/>
  </g>
  <g id="g4974" transform="matrix(1.3333330154418945, 0, 0, -1.3333330154418945, 2901.0859336025615, 1255.4686424609354)">
    <path d="M 0,0 H 44.855 L 45.432,0.287 45.647,1.008 42.191,2.304 40.248,1.44 38.159,0.792 36,0.647 33.696,1.44 33.048,1.8 32.399,2.159 31.896,2.52 31.248,2.735 29.376,1.728 27.288,1.008 25.056,0.936 22.68,1.44 22.032,1.8 21.456,2.159 20.88,2.52 20.159,2.952 18.432,1.8 16.344,1.151 14.327,0.792 11.952,1.296 9.72,2.592 8.424,2.088 7.271,1.656 5.832,1.224 4.464,1.008 H 2.952 L 1.656,1.151 0.216,1.512 -1.08,2.159 -0.433,0.071 h 0.217 z" style="fill:#ffff80;fill-opacity:1;fill-rule:nonzero;stroke:none" id="path4976"/>
  </g>
  <g id="g4978" transform="matrix(1.3333330154418945, 0, 0, -1.3333330154418945, 2952.63800464492, 1252.6847889579915)">
    <path d="M 0,0 1.584,0.647 1.296,1.296 1.079,2.304 1.151,2.521 1.296,2.736 1.872,2.304 2.304,1.729 2.448,2.159 v 0.649 l 0.144,0.216 0.36,0.072 0.432,-0.36 V 1.944 L 4.104,2.159 4.68,2.592 H 4.896 5.184 L 5.04,1.944 4.68,1.512 7.344,0.36 9.144,3.312 H -28.513 V 2.808 2.304 l 1.441,0.432 0.143,-0.144 0.073,-0.288 -0.504,-0.575 -0.792,-0.362 1.296,-1.439 2.015,-0.36 2.377,0.503 2.088,1.081 -0.36,1.152 0.36,0.217 0.359,0.215 0.145,-0.577 0.359,-0.43 0.073,0.575 0.36,0.72 0.575,-0.503 0.145,-0.792 1.368,0.792 -0.864,-1.297 0.36,-0.216 0.935,-0.576 1.224,-0.504 1.656,-0.504 2.088,0.288 1.873,0.504 1.079,0.721 -0.071,1.007 -0.217,0.36 v 0.432 l 1.513,-1.007 0.144,0.792 0.431,0.575 0.289,-0.504 V 1.729 l 0.287,0.071 0.288,0.288 1.441,0.216 0.216,0.217 -0.216,-0.362 -0.937,-1.222 1.08,-0.721 1.441,-0.36 h 1.584 z" style="fill:#ffff80;fill-opacity:1;fill-rule:nonzero;stroke:none" id="path4980"/>
  </g>
  <g id="g4982" transform="matrix(1.3333330154418945, 0, 0, -1.3333330154418945, 2911.933587266278, 1251.1483716810728)">
    <path d="M 0,0 0.145,0.432 -0.36,0.647 -0.864,1.08 -1.225,1.584 -0.72,1.655 0,1.584 0.504,1.439 0.792,1.151 1.584,2.159 -10.8,2.231 V 1.655 l 0.432,-0.719 0.504,-0.721 0.504,-0.431 1.799,-0.721 1.513,-0.503 1.368,-0.073 1.224,0.073 1.008,0.144 0.864,0.359 0.864,0.432 z" style="fill:#ffff80;fill-opacity:1;fill-rule:nonzero;stroke:none" id="path4984"/>
  </g>
  <g id="g4986" transform="matrix(1.3333330154418945, 0, 0, -1.3333330154418945, 2977.981748602499, 1365.7732629721543)">
    <path d="M 0,0 -1.152,0.216 -2.088,0.792 -2.592,1.656 -2.808,2.664 -2.592,3.528 -2.088,4.392 -1.152,5.04 0,5.257 1.151,5.04 2.088,4.392 2.735,3.528 2.88,2.664 2.735,1.656 2.088,0.792 1.151,0.216 Z" style="fill:#ffff80;fill-opacity:1;fill-rule:nonzero;stroke:none" id="path4988"/>
  </g>
  <g id="g4990" transform="matrix(1.3333330154418945, 0, 0, -1.3333330154418945, 2925.0859278805156, 1326.5090307970206)">
    <path d="M 0,0 V 2.232 L -0.864,0.288 -0.792,0.072 -0.504,0 Z" style="fill:#ffff00;fill-opacity:1;fill-rule:nonzero;stroke:none" id="path4992"/>
  </g>
  <g id="g4994" transform="matrix(1.3333330154418945, 0, 0, -1.3333330154418945, 2897.4374969724163, 1444.0128683418116)">
    <path d="M 0,0 0.433,0.288 1.008,1.08 0.647,1.655 -0.144,1.729 0.216,1.368 0.36,0.863 0.216,0.576 Z" style="fill:#ffffff;fill-opacity:1;fill-rule:nonzero;stroke:none" id="path4996"/>
  </g>
  <g id="g4998" transform="matrix(1.3333330154418945, 0, 0, -1.3333330154418945, 2864.0299528540645, 1355.6937976018492)">
    <path d="M 0,0 0.288,1.873 0,1.656 -0.36,1.081 -0.576,-0.215 -0.217,-0.936 0.432,-1.295 0.216,-0.647 Z" style="fill:#ffff80;fill-opacity:1;fill-rule:nonzero;stroke:none" id="path5000"/>
  </g>
  <g id="g5002" transform="matrix(1.3333330154418945, 0, 0, -1.3333330154418945, 2979.037737934065, 1365.0050339886477)">
    <path d="M 0,0 0.576,0.216 1.08,0.576 1.296,2.088 0.72,3.168 0.648,1.224 0.359,0.576 Z" style="fill:#000000;fill-opacity:1;fill-rule:nonzero;stroke:none" id="path5004"/>
  </g>
  <g id="g5006" transform="matrix(1.3333330154418945, 0, 0, -1.3333330154418945, 2954.3658688162986, 1312.493409138606)">
    <path d="m 0,0 h -0.072 -0.145 l -1.512,-1.512 -1.439,-1.368 -1.512,-1.584 -1.369,-1.512 -1.295,-1.656 -1.224,-1.584 -1.152,-1.728 -1.224,-1.8 -2.592,-4.535 -2.521,-5.544 -2.088,-6.841 -1.511,-8.424 0.431,-6.191 1.369,-7.057 2.16,-6.983 2.807,-5.761 3.889,-7.703 h 2.736 l -2.16,3.456 -2.016,3.383 -1.873,3.6 -2.015,4.248 -1.296,4.105 -1.152,4.823 -0.792,4.824 v 4.824 l 0.504,4.176 0.576,4.248 1.008,4.105 1.295,4.103 2.161,3.96 2.087,3.601 2.017,3.239 2.088,3.168 1.656,1.944 2.088,2.016 1.871,1.8 1.729,1.584 -0.72,0.289 z" style="fill:#ffc0c0;fill-opacity:1;fill-rule:nonzero;stroke:none" id="path5008"/>
  </g>
</svg>