<?xml version="1.0" encoding="utf-8"?>
<svg viewBox="2817.0855 876.0769 208.2239 295.0093" xmlns="http://www.w3.org/2000/svg">
  <g id="g3448" transform="matrix(1.3333330154418945, 0, 0, -1.3333330154418945, 2825.0533996468007, 876.076887211875)">
    <path d="m 0,0 h 144.288 l 2.233,-0.576 1.943,-1.872 1.296,-2.664 0.432,-3.384 v -204.265 l -0.432,-3.311 -1.296,-2.737 -1.943,-1.799 -2.233,-0.649 H 0 l -2.304,0.649 -1.872,1.799 -1.296,2.737 -0.504,3.311 V -8.496 l 0.504,3.384 1.296,2.664 1.872,1.872 z" style="fill:#000000;fill-opacity:1;fill-rule:nonzero;stroke:none" id="path3450"/>
  </g>
  <g id="g3452" transform="matrix(1.3333330154418945, 0, 0, -1.3333330154418945, 2828.1263155808274, 880.6848776497027)">
    <path d="m 0,0 h 139.68 l 2.303,-0.576 1.8,-1.8 1.296,-2.592 0.433,-3.168 v -198.072 l -0.433,-3.097 -1.296,-2.663 -1.8,-1.656 -2.303,-0.721 H 0 l -2.305,0.721 -1.799,1.656 -1.224,2.663 -0.36,3.097 V -8.136 l 0.36,3.168 1.224,2.592 1.799,1.8 z" style="fill:#ffffff;fill-opacity:1;fill-rule:nonzero;stroke:none" id="path3454"/>
  </g>
  <path d="m 2124.321,608.605 h 107.712 V 437.317 h -107.712 z" style="fill:#000000;fill-opacity:1;fill-rule:nonzero;stroke:none" id="path3456" transform="matrix(1.3333330154418945, 0, 0, -1.3333330154418945, 17.0097983033927, 1720.8630627522327)"/>
  <path d="m 2125.905,606.949 h 104.616 V 438.902 h -104.616 z" style="fill:#ffffff;fill-opacity:1;fill-rule:nonzero;stroke:none" id="path3458" transform="matrix(1.3333330154418945, 0, 0, -1.3333330154418945, 17.0097983033927, 1720.8630627522327)"/>
  <g id="g3460" transform="matrix(1.3333330154418945, 0, 0, -1.3333330154418945, 2874.397137882334, 925.9010127026667)">
    <path d="m 0,0 v 1.512 l -0.504,2.52 -1.512,1.944 -2.088,1.296 -2.375,0.504 -2.376,-0.504 -1.873,-1.512 -1.295,-2.016 -0.432,-2.664 0.504,-3.097 1.439,-3.311 2.088,-3.384 2.376,-3.528 2.376,-3.456 2.088,-3.384 1.584,-3.096 0.576,-3.024 0.504,3.024 1.584,3.096 2.088,3.384 2.52,3.456 2.304,3.528 2.088,3.384 1.44,3.311 L 13.608,1.08 13.176,3.744 11.881,5.76 10.008,7.272 7.561,7.776 5.257,7.272 3.168,5.976 1.656,4.032 1.008,1.512 V 0 L 0.576,-0.288 Z" style="fill:#ff0000;fill-opacity:1;fill-rule:nonzero;stroke:none" id="path3462"/>
  </g>
  <g id="g3464" transform="matrix(1.3333330154418945, 0, 0, -1.3333330154418945, 2968.5741987621013, 1118.6691959098061)">
    <path d="m 0,0 v -1.512 l -0.648,-2.304 -1.369,-2.087 -2.015,-1.225 -2.448,-0.432 -2.233,0.504 -1.943,1.368 -1.153,2.016 -0.431,2.521 0.431,3.095 1.512,3.168 2.017,3.313 2.303,3.384 2.305,3.383 2.016,3.241 1.439,3.023 0.649,2.952 L 1.008,21.456 2.52,18.433 4.464,15.192 6.912,11.809 9.287,8.425 11.231,5.112 12.672,1.944 13.248,-1.151 12.743,-3.672 11.447,-5.688 9.647,-7.056 7.344,-7.56 4.968,-7.128 2.88,-5.903 1.512,-3.816 0.863,-1.512 V 0 L 0.432,0.288 Z" style="fill:#ff0000;fill-opacity:1;fill-rule:nonzero;stroke:none" id="path3466"/>
  </g>
  <g id="g3468" transform="matrix(1.3333330154418945, 0, 0, -1.3333330154418945, 2991.902318200243, 1002.2213883866752)">
    <path d="m 0,0 -8.641,33.265 -1.584,5.687 1.08,3.024 1.512,0.503 1.008,0.649 0.36,1.152 -0.072,1.584 -1.296,1.153 v 5.039 l -7.92,5.688 2.016,4.681 0.505,-0.289 0.504,-0.576 0.792,-0.576 h 0.719 l 0.792,0.216 0.792,0.36 1.008,1.512 v 2.088 l -0.935,1.296 -1.296,0.936 -1.441,0.072 -1.44,-0.576 -5.184,-8.352 -0.288,-0.359 -0.575,-0.576 -0.648,-0.577 -0.649,-0.36 -5.76,3.168 -0.072,0.216 -0.143,0.36 4.895,7.992 -52.775,0.576 2.447,-3.312 1.584,-3.888 1.009,-4.248 0.647,-4.103 -1.8,-3.673 -0.792,-4.247 -0.648,-4.32 -1.512,-3.529 -0.792,-1.944 -0.575,-1.871 -0.36,-1.801 0.215,-1.872 -0.791,-0.792 -0.649,-1.08 -3.815,-1.08 -3.745,-1.44 -3.816,-1.656 -3.815,-1.8 -3.672,-2.231 -3.673,-2.089 -3.384,-2.304 -3.168,-2.232 v -50.616 l 8.64,-28.584 0.936,-6.12 -1.007,-2.88 h -0.144 -0.576 l -0.793,-0.216 -0.863,-0.648 -0.432,-1.152 0.143,-1.008 0.432,-0.935 0.864,-0.649 v -5.471 l 7.993,-5.041 -2.161,-5.04 -0.576,0.865 -0.504,0.431 -0.719,0.144 h -0.865 l -1.007,-0.216 -0.577,-0.432 -0.504,-0.648 -0.431,-0.792 v -1.296 l 0.216,-0.864 0.792,-1.008 0.935,-0.72 0.937,-0.216 1.296,-0.072 1.872,1.368 1.296,1.873 1.007,2.015 1.296,2.016 0.361,0.936 0.647,0.864 0.576,0.792 0.504,0.576 0.361,0.289 0.359,0.287 6.192,-3.672 -4.536,-7.92 -0.287,-0.144 -0.288,-0.36 12.527,-0.504 h 40.392 l -1.943,3.313 -2.016,3.672 -1.513,4.103 -0.36,4.464 1.513,3.168 0.719,3.601 0.504,3.527 1.225,3.24 1.08,2.016 0.791,1.944 0.433,2.16 -0.144,2.304 1.008,0.432 0.719,0.865 0.504,0.935 0.216,0.72 3.529,1.152 3.528,1.152 3.599,1.44 3.529,1.584 3.672,1.656 3.672,1.945 3.599,1.943 3.817,2.088 z" style="fill:#000000;fill-opacity:1;fill-rule:nonzero;stroke:none" id="path3470"/>
  </g>
  <g id="g3472" transform="matrix(1.3333330154418945, 0, 0, -1.3333330154418945, 2927.964833444131, 1133.0689320599743)">
    <path d="M 0,0 0.793,0.648 2.017,1.08 3.168,1.512 4.32,1.8 H 5.688 L 6.984,1.656 8.209,1.296 9.36,0.792 9.937,0.288 10.44,0.145 h 0.504 l 0.433,0.287 0.359,0.36 0.361,0.144 -0.361,1.368 -0.792,1.009 -42.263,0.071 -1.584,-2.448 1.727,0.72 2.017,0.432 h 2.015 l 2.017,-0.576 0.575,-0.432 0.576,-0.36 0.649,-0.288 0.647,-0.287 2.017,0.935 2.16,0.576 2.232,0.144 2.232,-0.504 0.647,-0.216 0.577,-0.36 0.576,-0.288 0.719,-0.287 1.873,0.935 2.231,0.72 2.16,0.143 2.233,-0.647 0.792,-0.36 0.719,-0.36 0.649,-0.431 0.576,-0.217 L -0.144,0 Z" style="fill:#ffff80;fill-opacity:1;fill-rule:nonzero;stroke:none" id="path3474"/>
  </g>
  <g id="g3476" transform="matrix(1.3333330154418945, 0, 0, -1.3333330154418945, 2940.6380075059433, 1120.8762673237036)">
    <path d="M 0,0 0.071,4.247 -1.152,3.527 -2.593,3.312 H -4.32 l -1.584,-0.073 -1.8,3.456 -0.072,3.96 0.864,4.033 0.935,3.959 -2.303,1.369 -0.432,1.08 v 0.287 l 0.288,0.217 0.72,-0.577 0.647,-0.864 1.872,-1.151 -1.727,-7.777 0.216,-0.864 -0.073,-0.863 0.145,-0.289 0.432,-0.144 0.36,0.288 0.216,0.432 h -0.361 l -0.503,0.072 0.503,0.721 0.792,0.287 h 1.441 1.296 l 1.223,-0.072 1.009,-0.503 H 0 0.288 l 0.144,3.6 -0.361,3.671 -0.359,3.529 0.072,3.672 0.216,1.655 0.432,1.368 0.792,1.152 1.007,0.865 1.008,0.36 0.793,0.071 0.72,-0.143 L 5.399,29.808 5.903,28.655 5.76,27.863 5.04,27.359 4.823,27.432 4.752,27.863 4.968,28.08 5.04,28.655 v 0.288 l -0.072,0.36 H 4.752 L 4.536,29.592 3.888,29.808 3.168,29.592 2.952,29.375 2.735,29.303 2.663,28.008 2.952,26.783 3.023,26.567 3.312,26.423 V 22.247 L 2.231,18.071 H 2.159 1.872 l 0.72,4.968 -0.792,4.824 v 0.433 0.071 L 0.576,22.896 0.936,17.135 1.439,11.231 0.647,5.184 0.864,4.392 0.936,3.887 l 1.44,3.816 0.576,4.032 0.72,3.888 1.872,3.528 0.72,3.096 v 2.736 L 5.903,25.271 H 5.472 L 5.544,22.392 4.968,19.728 3.888,17.063 2.88,14.255 v -0.503 l -0.145,-0.36 -0.072,-0.073 -0.432,-0.072 0.504,3.024 0.937,3.096 0.647,3.168 -0.359,3.168 2.304,0.217 0.647,0.503 0.576,0.648 0.361,0.792 0.072,1.08 -0.504,1.44 L 6.407,31.464 5.472,31.896 4.319,31.967 3.239,31.68 2.088,31.176 1.439,30.815 1.079,30.383 0.576,30.096 0.071,29.88 l -0.216,0.216 0.073,0.143 3.384,2.664 -2.665,-0.648 -3.527,-3.384 0.144,1.009 0.719,1.007 0.792,0.865 0.792,0.936 0.504,0.359 0.576,0.217 -4.679,-2.521 2.015,2.521 -1.656,-0.361 -1.367,-0.864 -1.152,-1.152 -1.224,-1.223 -2.664,3.024 1.296,-3.745 -1.008,1.296 -1.008,1.441 -1.152,1.296 -1.729,0.792 h -0.576 l -0.287,0.071 1.008,-0.936 0.863,-1.151 0.864,-1.369 0.504,-1.44 v -0.359 -0.217 h -0.143 -0.216 l -0.576,1.513 -0.792,1.296 -1.008,1.079 -1.225,0.864 -0.504,0.145 -0.576,0.072 -0.431,0.143 -0.432,0.144 -0.864,-0.287 -0.792,-0.36 -0.649,-0.577 -0.359,-1.007 -0.072,-1.153 0.288,-0.936 0.504,-0.36 0.36,-0.576 -0.433,-0.071 -0.504,0.288 v -0.576 l 0.216,-0.793 h -0.287 -0.432 l -0.72,-0.36 -0.792,-0.359 0.935,2.375 -0.215,2.376 -0.865,1.152 -1.151,0.72 -1.225,0.432 -1.223,0.072 -1.512,-0.432 -1.225,-0.503 -1.08,-0.649 -0.863,-0.792 -0.145,0.649 0.361,0.647 0.504,0.504 0.576,0.504 0.504,0.288 0.216,0.288 -3.816,-0.648 -0.36,-0.215 -0.145,-0.073 -2.159,-2.736 v 1.009 l 0.36,0.935 0.72,0.792 0.648,0.648 -1.441,-0.288 -1.223,-0.863 -1.152,-1.296 -0.72,-1.296 -0.865,-3.169 0.288,-3.239 0.937,-3.385 1.368,-3.528 1.44,-3.599 1.368,-3.672 0.936,-3.816 0.36,-3.889 -0.073,-0.287 -0.287,-0.288 -0.217,0.072 -0.288,0.216 -0.215,2.303 -0.36,2.376 -0.504,2.376 -0.576,2.304 -1.944,5.041 -1.945,5.111 -1.08,5.184 1.153,4.969 0.719,1.079 0.72,1.009 -1.439,-0.576 -1.224,-0.936 -1.08,-1.08 -0.648,-1.369 0.36,-6.911 2.16,-6.553 2.304,-6.695 0.719,-6.913 -0.215,-0.072 -0.216,0.072 -1.08,5.689 -1.729,5.472 -2.088,5.544 -1.727,5.543 0.071,1.8 0.217,1.801 0.576,1.8 0.863,1.512 -1.656,-1.512 -1.079,-2.017 -0.576,-2.52 -0.144,-2.591 1.44,-5.689 1.872,-5.616 1.656,-5.616 0.504,-5.76 h 12.888 l 0.288,3.529 -0.433,3.671 -0.863,3.6 -0.792,3.672 -1.08,3.024 -1.224,2.953 -1.08,2.952 -0.433,3.095 1.296,-2.736 1.225,-2.808 1.152,-3.023 1.224,-2.953 1.008,-3.744 0.504,-3.743 0.215,-3.673 0.145,-3.743 2.735,-0.073 0.073,7.56 -2.016,7.416 -2.448,7.488 -1.296,7.561 0.36,0.647 0.72,0.504 0.792,0.505 1.008,0.215 0.864,-0.215 0.72,-0.36 0.576,-0.505 0.288,-0.648 0.071,-0.936 -0.359,-0.936 -0.36,-0.287 -0.432,-0.217 h -0.504 -0.576 -0.433 l 0.145,0.433 1.368,0.359 0.216,0.72 0.072,0.864 -0.576,0.576 -0.792,0.361 -1.368,-0.504 -0.72,-0.864 -0.216,-1.441 0.504,-1.656 -0.072,-0.144 -0.216,-0.071 1.224,-4.536 1.872,-4.393 1.656,-4.68 1.008,-4.824 0.215,-4.032 -0.215,-3.96 z" style="fill:#ffffff;fill-opacity:1;fill-rule:nonzero;stroke:none" id="path3478"/>
  </g>
  <g id="g3480" transform="matrix(1.3333330154418945, 0, 0, -1.3333330154418945, 2902.5260374258805, 1119.628749717489)">
    <path d="m 0,0 0.216,2.951 -0.288,3.169 -0.649,3.025 -0.792,3.095 -1.296,3.528 -1.368,3.456 -1.296,3.528 -1.007,3.527 1.512,-6.55 2.159,-6.41 2.088,-6.551 z" style="fill:#000000;fill-opacity:1;fill-rule:nonzero;stroke:none" id="path3482"/>
  </g>
  <g id="g3484" transform="matrix(1.3333330154418945, 0, 0, -1.3333330154418945, 2882.076823551354, 1098.0298779139375)">
    <path d="m 0,0 -0.647,2.953 -0.577,3.167 0.073,3.241 1.296,2.879 1.584,1.872 1.944,1.657 2.088,1.152 2.376,0.935 1.511,0.432 1.512,0.217 1.584,0.143 h 1.441 L 16.705,65.161 9.36,64.945 5.904,65.161 5.185,53.641 4.465,41.4 2.881,31.033 0.793,20.593 -1.367,10.08 -3.384,-0.287 l 1.009,-5.04 z" style="fill:#ffffff;fill-opacity:1;fill-rule:nonzero;stroke:none" id="path3486"/>
  </g>
  <g id="g3488" transform="matrix(1.3333330154418945, 0, 0, -1.3333330154418945, 2912.7018162497848, 1097.068940643043)">
    <path d="m 0,0 -3.024,7.775 0.36,0.289 H -2.16 L -1.584,7.848 -1.225,7.775 1.439,3.168 -1.225,8.641 -1.944,8.208 -2.952,8.064 -3.889,8.136 -4.752,8.567 -4.536,8.279 -4.248,8.136 Z" style="fill:#000000;fill-opacity:1;fill-rule:nonzero;stroke:none" id="path3490"/>
  </g>
  <g id="g3492" transform="matrix(1.3333330154418945, 0, 0, -1.3333330154418945, 2917.0221277197425, 1089.2929415204235)">
    <path d="M 0,0 -1.584,3.168 Z" style="fill:#000000;fill-opacity:1;fill-rule:nonzero;stroke:none" id="path3494"/>
  </g>
  <g id="g3496" transform="matrix(1.3333330154418945, 0, 0, -1.3333330154418945, 2937.277331223858, 1088.4282363229397)">
    <path d="M 0,0 2.232,5.184 1.296,4.031 0.721,2.735 0.36,1.367 Z" style="fill:#000000;fill-opacity:1;fill-rule:nonzero;stroke:none" id="path3498"/>
  </g>
  <g id="g3500" transform="matrix(1.3333330154418945, 0, 0, -1.3333330154418945, 2919.325512587239, 1086.2213276694204)">
    <path d="M 0,0 -1.151,2.017 -2.231,2.089 -1.584,1.872 -0.937,1.44 -0.576,0.792 -0.144,0 Z" style="fill:#000000;fill-opacity:1;fill-rule:nonzero;stroke:none" id="path3502"/>
  </g>
  <g id="g3504" transform="matrix(1.3333330154418945, 0, 0, -1.3333330154418945, 2926.0455630683873, 1086.3162576598081)">
    <path d="M 0,0 H 2.736 Z" style="fill:#000000;fill-opacity:1;fill-rule:nonzero;stroke:none" id="path3506"/>
  </g>
  <g id="g3508" transform="matrix(1.3333330154418945, 0, 0, -1.3333330154418945, 2935.7408732568447, 1084.5896955714527)">
    <path d="M 0,0 0.36,1.152 Z" style="fill:#000000;fill-opacity:1;fill-rule:nonzero;stroke:none" id="path3510"/>
  </g>
  <g id="g3512" transform="matrix(1.3333330154418945, 0, 0, -1.3333330154418945, 2922.014314029512, 1083.7252345145355)">
    <path d="m 0,0 -0.648,1.439 v 0.29 L -0.505,2.232 -1.009,3.528 -2.089,4.104 -2.881,3.889 -3.601,3.313 -3.673,2.809 V 2.232 l 0.217,0.144 v 0.36 l 0.359,0.577 0.72,0.503 1.584,-1.08 V 1.656 L -1.009,1.152 -1.369,0.792 -1.08,0.721 -0.793,0.504 -0.433,0.288 -0.072,-0.216 0,-0.072 Z" style="fill:#000000;fill-opacity:1;fill-rule:nonzero;stroke:none" id="path3514"/>
  </g>
  <g id="g3516" transform="matrix(1.3333330154418945, 0, 0, -1.3333330154418945, 2933.7252487374067, 1083.053359674723)">
    <path d="M 0,0 0.721,1.872 -0.216,0 Z" style="fill:#000000;fill-opacity:1;fill-rule:nonzero;stroke:none" id="path3518"/>
  </g>
  <g id="g3520" transform="matrix(1.3333330154418945, 0, 0, -1.3333330154418945, 2953.1171711973443, 1022.956979146049)">
    <path d="m 0,0 v 8.064 l 0.864,7.993 1.008,8.134 1.512,7.849 1.728,7.776 1.729,7.993 0.792,2.879 0.431,3.096 0.072,3.168 L 7.633,60.048 4.896,54.863 5.904,51.48 6.408,47.809 5.904,44.279 4.248,41.328 3.456,40.536 2.736,39.816 2.089,39.168 1.584,38.592 0.433,37.943 -0.864,37.368 -2.159,36.72 -3.527,36.359 -4.896,36 -6.336,35.784 -7.775,35.641 h -1.441 l -2.304,-46.729 5.832,0.649 4.824,-0.29 z" style="fill:#ffffff;fill-opacity:1;fill-rule:nonzero;stroke:none" id="path3522"/>
  </g>
  <g id="g3524" transform="matrix(1.3333330154418945, 0, 0, -1.3333330154418945, 2932.381499057782, 1073.068946365089)">
    <path d="M 0,0 H 0.288 L 0.792,0.216 0.864,0.288 1.152,0.504 1.008,2.52 0.216,4.392 -1.08,5.904 -2.231,7.487 -3.456,7.128 -4.607,6.48 -5.472,5.472 -6.336,4.392 -6.84,2.88 -6.912,1.368 -6.336,0.72 -5.544,0.288 -2.736,1.656 Z" style="fill:#ffffff;fill-opacity:1;fill-rule:nonzero;stroke:none" id="path3526"/>
  </g>
  <g id="g3528" transform="matrix(1.3333330154418945, 0, 0, -1.3333330154418945, 2881.694011142624, 1071.917823592663)">
    <path d="m 0,0 -0.288,1.513 -0.937,1.296 -1.296,1.08 -1.223,1.223 -1.729,1.657 -1.656,1.727 -1.584,1.584 -1.655,1.513 0.143,3.239 0.361,3.457 0.719,3.384 0.865,3.168 1.296,3.024 1.656,2.88 1.943,2.592 2.377,2.304 1.512,0.864 1.584,0.864 L 3.6,38.232 5.04,39.168 3.96,39.024 2.88,38.664 1.8,38.232 0.576,37.656 -1.368,36.217 -3.097,34.849 -4.608,33.337 -5.832,31.896 -6.984,30.241 -7.992,28.44 l -0.864,-1.944 -1.008,-2.159 0.576,18.647 -0.576,0.145 -0.576,-0.145 -1.081,-30.023 -11.448,11.447 -0.143,-1.08 0.647,-0.792 2.736,-2.807 2.88,-2.952 2.737,-2.736 2.88,-2.88 2.808,-2.736 2.736,-2.808 2.807,-2.808 z" style="fill:#ffff80;fill-opacity:1;fill-rule:nonzero;stroke:none" id="path3530"/>
  </g>
  <g id="g3532" transform="matrix(1.3333330154418945, 0, 0, -1.3333330154418945, 2978.1731548068647, 1068.1730328188241)">
    <path d="M 0,0 1.008,0.145 2.232,0.72 3.672,1.368 5.256,2.232 6.624,3.168 7.92,4.104 8.928,4.969 9.433,5.76 6.912,6.553 -3.384,0.576 Z" style="fill:#c0c0ff;fill-opacity:1;fill-rule:nonzero;stroke:none" id="path3534"/>
  </g>
  <g id="g3536" transform="matrix(1.3333330154418945, 0, 0, -1.3333330154418945, 2959.261700982374, 1053.0050676851497)">
    <path d="M 0,0 H 0.359 L 0.648,0.072 0.864,11.304 0.359,11.376 -0.288,11.088 V 0.072 h 0.143 z" style="fill:#ffff80;fill-opacity:1;fill-rule:nonzero;stroke:none" id="path3538"/>
  </g>
  <g id="g3540" transform="matrix(1.3333330154418945, 0, 0, -1.3333330154418945, 2954.7499833080515, 1052.3331928453372)">
    <path d="m 0,0 0.071,9.72 -0.935,0.432 0.072,-10.08 z" style="fill:#ffff80;fill-opacity:1;fill-rule:nonzero;stroke:none" id="path3542"/>
  </g>
  <g id="g3544" transform="matrix(1.3333330154418945, 0, 0, -1.3333330154418945, 2927.101552399953, 1048.3970772473222)">
    <path d="M 0,0 H 0.647 L 0.864,0.576 -0.144,0.792 -0.36,0.432 Z" style="fill:#ffffff;fill-opacity:1;fill-rule:nonzero;stroke:none" id="path3546"/>
  </g>
  <g id="g3548" transform="matrix(1.3333330154418945, 0, 0, -1.3333330154418945, 2927.6783751790945, 1043.4048095573637)">
    <path d="M 0,0 H 1.008 L 1.224,0.863 H 0.071 L -0.145,0.504 Z" style="fill:#ffffff;fill-opacity:1;fill-rule:nonzero;stroke:none" id="path3550"/>
  </g>
  <g id="g3552" transform="matrix(1.3333330154418945, 0, 0, -1.3333330154418945, 2933.7252487374067, 1044.4607988889295)">
    <path d="M 0,0 5.04,0.216 Z" style="fill:#000000;fill-opacity:1;fill-rule:nonzero;stroke:none" id="path3554"/>
  </g>
  <g id="g3556" transform="matrix(1.3333330154418945, 0, 0, -1.3333330154418945, 2974.3333119723547, 1034.3814555889076)">
    <path d="m 0,0 0.36,29.881 4.608,-3.889 1.944,-1.943 1.872,-2.017 1.872,-2.016 1.728,-2.016 0.36,0.648 v 0.72 L -10.584,43.2 -10.8,42.049 l 2.737,-2.809 2.375,-2.519 1.944,-2.305 1.296,-2.448 1.297,-4.68 v -4.68 L -2.808,17.425 -6.624,11.376 -7.56,10.08 -8.567,9 -9.576,8.064 -10.655,7.2 -11.735,6.408 -12.888,5.688 -14.256,5.112 -15.479,4.465 V 3.601 l 2.735,1.223 2.376,1.296 2.089,1.656 1.8,1.584 1.511,2.016 1.44,2.017 1.297,2.232 L -1.008,18 -1.151,0 Z" style="fill:#ffff80;fill-opacity:1;fill-rule:nonzero;stroke:none" id="path3558"/>
  </g>
  <g id="g3560" transform="matrix(1.3333330154418945, 0, 0, -1.3333330154418945, 2905.2135367851306, 1024.3970829693683)">
    <path d="m 0,0 3.672,2.232 3.024,2.664 2.737,2.952 2.519,3.168 2.448,3.312 2.376,3.384 2.52,3.384 2.736,3.24 2.88,3.023 0.649,5.041 0.143,4.321 -3.672,0.504 L 20.16,35.137 18.216,32.904 16.2,30.672 14.185,28.439 12.168,26.137 10.224,23.76 8.353,21.456 6.552,19.008 7.704,18.576 8.063,17.496 7.92,16.704 8.353,15.624 7.704,14.616 V 13.464 L 7.128,12.816 6.84,11.232 5.544,10.729 0.288,9.792 Z" style="fill:#ffc0c0;fill-opacity:1;fill-rule:nonzero;stroke:none" id="path3562"/>
  </g>
  <g id="g3564" transform="matrix(1.3333330154418945, 0, 0, -1.3333330154418945, 2905.3098909288246, 1010.0923988798713)">
    <path d="M 0,0 4.104,0.504 4.319,1.008 4.68,1.584 4.752,1.295 5.112,0.72 6.264,1.224 6.191,2.088 -2.16,1.872 l -0.433,0.144 0.145,0.36 7.56,0.359 V 3.743 L -2.16,3.815 -2.521,4.104 -2.448,4.319 7.488,4.68 7.632,5.184 6.768,5.688 V 5.399 L 6.624,5.184 7.271,4.968 6.768,4.68 H 6.264 L 6.048,5.328 5.76,5.976 -1.872,6.408 -2.232,6.479 -2.16,6.768 5.472,6.552 5.76,7.056 V 7.703 L -2.16,8.855 V 9 9.287 L -0.864,9.144 0.504,9.071 H 1.8 l 1.223,0.505 0.145,0.287 0.216,0.073 -2.376,0.431 -0.433,0.217 -0.359,0.575 -5.977,0.72 -5.687,-1.151 -0.073,0.503 4.752,1.224 h 1.512 l 1.656,-0.071 1.584,-0.217 h 1.657 l -0.216,3.96 -0.72,3.889 -1.297,3.887 -2.159,3.168 -2.952,0.865 -1.368,0.863 -1.296,1.297 -0.936,1.511 -0.505,1.584 -2.735,-0.719 -2.592,-0.865 -2.52,-1.08 -2.521,-1.152 -2.375,-1.151 -2.52,-1.441 -2.592,-1.367 -2.593,-1.513 1.729,0.144 1.656,-0.144 h 1.727 l 1.584,-0.288 1.657,-0.504 1.584,-0.359 1.511,-0.576 1.369,-0.649 2.808,-1.943 2.447,-2.232 1.729,-3.024 0.935,-3.529 -0.143,-10.584 1.44,-0.36 1.368,-0.144 1.511,-0.071 1.441,0.071 1.511,0.072 1.513,0.072 L -1.368,0 Z" style="fill:#ffffff;fill-opacity:1;fill-rule:nonzero;stroke:none" id="path3566"/>
  </g>
  <g id="g3568" transform="matrix(1.3333330154418945, 0, 0, -1.3333330154418945, 2936.605456384045, 1023.7252081295555)">
    <path d="m 0,0 -3.672,-2.376 -3.023,-2.664 -2.737,-2.952 -2.52,-3.168 -2.447,-3.312 -2.376,-3.383 -2.521,-3.313 -2.808,-3.312 -2.879,-3.024 -0.577,-5.112 -0.144,-4.321 3.6,-0.503 1.944,2.088 1.944,2.232 2.016,2.232 2.016,2.304 2.016,2.305 1.872,2.376 1.944,2.303 1.8,2.376 -1.223,0.504 -0.289,1.08 0.144,0.792 -0.432,1.008 0.577,1.08 v 1.224 l 0.647,0.576 0.288,1.584 1.296,0.504 5.256,0.935 z" style="fill:#ffc0c0;fill-opacity:1;fill-rule:nonzero;stroke:none" id="path3570"/>
  </g>
  <g id="g3572" transform="matrix(1.3333330154418945, 0, 0, -1.3333330154418945, 2936.509102240351, 1038.2213391135122)">
    <path d="m 0,0 -4.104,-0.504 -0.215,-0.504 -0.361,-0.576 -0.144,0.216 -0.287,0.72 -1.153,-0.504 0.073,-0.936 8.351,0.216 0.432,-0.072 -0.144,-0.432 -7.559,-0.288 v -1.08 L 2.16,-3.815 2.448,-4.031 v -0.288 l -9.935,-0.361 -0.073,-0.647 0.792,-0.576 0.073,0.359 0.143,0.217 -0.719,0.359 0.503,0.288 0.504,-0.072 0.145,-0.575 0.359,-0.649 7.632,-0.36 0.36,-0.143 L 2.16,-6.84 -5.472,-6.552 -5.76,-7.056 v -0.648 l 7.92,-1.152 v -0.072 -0.36 l -1.296,0.144 -1.368,0.073 H -1.8 l -1.223,-0.433 -0.217,-0.36 -0.144,-0.072 2.376,-0.36 0.432,-0.288 0.36,-0.504 5.976,-0.792 5.688,1.152 0.073,-0.503 -4.752,-1.153 -1.513,-0.072 -1.655,0.144 -1.657,0.216 H 0.36 l 0.216,-4.032 0.721,-3.96 1.295,-3.888 2.232,-3.816 3.096,-0.576 2.664,-1.296 1.152,-1.872 0.72,-1.296 4.608,1.224 2.52,1.008 2.592,1.152 2.377,1.224 2.519,1.368 2.592,1.369 2.592,1.511 -1.728,-0.072 -1.656,0.072 h -1.727 l -1.584,0.288 -1.729,0.432 -1.584,0.433 -1.439,0.575 -1.369,0.648 -2.879,1.945 -2.449,2.375 -1.656,2.881 -0.935,3.599 0.071,10.656 -1.44,0.288 L 8.856,0.288 7.344,0.36 5.832,0.288 4.393,0.216 2.881,0.144 1.368,0 Z" style="fill:#ffffff;fill-opacity:1;fill-rule:nonzero;stroke:none" id="path3574"/>
  </g>
  <g id="g3576" transform="matrix(1.3333330154418945, 0, 0, -1.3333330154418945, 2882.750000474189, 1010.1886716433766)">
    <path d="m 0,0 0.144,10.656 -0.936,0.36 V -0.288 Z" style="fill:#ffff80;fill-opacity:1;fill-rule:nonzero;stroke:none" id="path3578"/>
  </g>
  <g id="g3580" transform="matrix(1.3333330154418945, 0, 0, -1.3333330154418945, 2888.221353336384, 1010.0923988798713)">
    <path d="M 0,0 V 10.008 L -0.72,10.295 -0.792,0 Z" style="fill:#ffff80;fill-opacity:1;fill-rule:nonzero;stroke:none" id="path3582"/>
  </g>
  <g id="g3584" transform="matrix(1.3333330154418945, 0, 0, -1.3333330154418945, 2914.6210866255287, 1005.869743636631)">
    <path d="m 0,0 0.072,0.36 -0.288,0.216 -0.576,0.145 -0.504,0.071 -0.143,-0.575 0.143,-0.361 0.576,0.073 z" style="fill:#ffffff;fill-opacity:1;fill-rule:nonzero;stroke:none" id="path3586"/>
  </g>
  <g id="g3588" transform="matrix(1.3333330154418945, 0, 0, -1.3333330154418945, 2915.0052011172816, 1000.8763366240274)">
    <path d="m 0,0 0.072,0.287 -0.288,0.36 -0.431,0.144 H -1.224 V 0.287 l 0.432,-0.432 h 0.36 z" style="fill:#ffffff;fill-opacity:1;fill-rule:nonzero;stroke:none" id="path3590"/>
  </g>
  <g id="g3592" transform="matrix(1.3333330154418945, 0, 0, -1.3333330154418945, 2909.533848255088, 996.2694855088449)">
    <path d="M 0,0 -0.072,0.576 -2.376,0.864 -1.872,0.36 Z" style="fill:#ffffff;fill-opacity:1;fill-rule:nonzero;stroke:none" id="path3594"/>
  </g>
  <g id="g3596" transform="matrix(1.3333330154418945, 0, 0, -1.3333330154418945, 2932.188790770394, 1051.9492004238675)">
    <path d="M 0,0 0.145,-0.504 2.521,-1.008 2.017,-0.359 Z" style="fill:#ffffff;fill-opacity:1;fill-rule:nonzero;stroke:none" id="path3598"/>
  </g>
  <g id="g3600" transform="matrix(1.3333330154418945, 0, 0, -1.3333330154418945, 2853.085945046653, 988.9739143315783)">
    <path d="M 0,0 2.159,0.073 4.464,1.585 5.04,1.872 5.544,2.305 13.104,6.624 11.016,6.984 9,6.696 7.2,6.12 5.472,5.112 3.743,3.889 2.088,2.809 0.359,1.585 -1.296,0.577 -0.792,0.217 Z" style="fill:#c0c0ff;fill-opacity:1;fill-rule:nonzero;stroke:none" id="path3602"/>
  </g>
  <g id="g3604" transform="matrix(1.3333330154418945, 0, 0, -1.3333330154418945, 2911.8372331225846, 985.4206111422936)">
    <path d="M 0,0 1.368,0.863 2.664,1.943 3.672,3.24 4.32,4.896 4.248,5.832 3.744,6.408 2.952,6.695 2.16,6.479 1.368,5.904 0.648,5.184 -0.144,6.191 -0.72,6.84 -1.728,6.912 -2.376,6.623 -2.808,5.976 -3.023,4.896 -2.664,3.455 -1.943,2.16 -1.08,1.008 Z" style="fill:#ffffff;fill-opacity:1;fill-rule:nonzero;stroke:none" id="path3606"/>
  </g>
  <g id="g3608" transform="matrix(1.3333330154418945, 0, 0, -1.3333330154418945, 2938.7174350471764, 973.7096764343987)">
    <path d="m 0,0 h 1.44 l 1.44,0.433 1.224,0.575 1.008,1.009 0.792,1.007 0.72,1.008 V 3.024 L 6.192,2.088 5.4,1.225 4.752,0.504 l 1.44,0.289 1.224,0.719 1.08,1.009 0.792,1.08 0.216,6.047 -1.656,5.76 -2.16,5.688 -1.224,5.76 L 4.032,30.24 3.816,33.553 3.889,33.984 4.32,33.84 4.752,30.168 5.473,26.568 6.48,22.896 7.776,19.152 9.145,15.336 10.44,11.377 11.088,7.344 10.152,3.601 9.648,2.881 9.288,2.377 8.928,1.801 8.496,1.225 l 1.152,0.287 0.936,0.72 1.08,0.792 0.792,1.008 0.288,-0.143 V 3.601 l -0.72,-0.937 2.088,1.656 1.368,2.305 0.577,2.735 -0.145,3.025 -1.512,5.543 -1.944,5.472 -1.512,5.617 -0.576,5.688 h -12.6 l -0.216,-2.664 0.072,-2.664 0.504,-2.809 0.576,-2.664 0.937,-4.103 1.511,-4.032 1.44,-3.888 0.936,-4.105 -0.072,-0.36 -0.36,0.145 -2.448,6.408 -2.304,6.552 -1.584,6.839 -0.144,6.984 -2.88,0.289 -0.36,-3.961 0.433,-3.959 1.007,-4.032 1.296,-3.817 1.44,-3.887 1.08,-3.889 L -0.792,7.344 -1.08,3.601 -1.8,3.024 -2.592,2.664 -3.384,2.377 l -0.792,0.287 -0.576,0.36 -0.576,0.361 -0.432,0.647 -0.072,0.649 0.36,1.223 0.72,0.792 h 0.288 L -4.32,6.408 -4.536,6.121 -4.824,5.832 -4.968,5.256 V 4.393 l 0.432,-0.504 0.576,-0.504 1.728,0.359 0.793,0.937 0.287,1.44 -0.432,1.008 -0.288,1.008 0.433,0.072 0.359,0.071 -2.52,6.265 -2.376,6.479 -1.368,6.552 0.073,6.768 h -21.168 l 0.575,-3.6 1.297,0.504 h 1.799 l 1.8,0.072 1.296,0.865 0.936,-1.945 0.648,-2.16 0.288,-2.447 -0.288,-2.233 -0.504,-1.872 -0.504,-1.727 -0.504,-1.873 -0.288,-1.799 2.304,-1.441 0.216,-0.936 v -0.936 l -0.216,-0.215 -0.288,0.215 -0.864,1.296 -1.296,0.792 -0.792,0.865 v 1.223 l 0.432,1.656 0.432,1.584 0.504,1.657 0.576,1.656 -0.216,0.359 -0.36,0.217 0.36,1.367 -0.504,0.217 -0.648,0.071 v -0.36 l -0.288,-0.72 0.576,0.073 0.504,-0.073 -1.44,-0.719 -1.584,-0.217 -1.799,0.217 -1.585,0.431 -0.504,-4.896 0.648,-5.184 -0.144,-4.968 -2.088,-4.248 -0.575,-0.504 -0.577,-0.432 -0.576,-0.144 h -0.72 l -0.576,0.288 -0.36,0.361 -0.432,0.575 -0.215,0.576 0.288,0.864 0.791,0.72 h 0.288 l 0.216,-0.144 -0.288,-0.576 -0.503,-0.575 0.575,-1.009 h 1.08 l 0.72,0.576 v 1.296 l -0.648,0.936 -0.576,0.648 -1.44,0.288 -0.144,3.312 0.72,3.097 1.224,3.168 1.224,2.952 -0.288,-2.881 -0.863,-2.951 -0.721,-3.025 0.288,-3.024 0.216,-0.359 0.217,0.072 1.08,7.199 v 0.145 h 0.359 l -0.359,-5.113 0.575,-5.183 1.296,5.759 -0.36,5.976 -0.504,5.977 0.864,5.975 -0.216,0.433 -0.071,0.287 -1.225,-3.455 -0.576,-3.672 -0.576,-3.601 -1.584,-3.383 -1.224,-3.96 -0.143,-4.033 -0.793,-0.719 -0.576,-0.865 -0.144,-2.088 0.936,-1.583 1.08,-0.649 1.368,-0.143 1.296,0.36 1.152,0.504 0.792,0.576 0.721,0.575 0.503,0.576 0.504,0.504 0.288,-0.143 0.072,-0.217 -0.792,-1.08 -1.008,-0.863 -1.151,-0.865 -1.225,-0.647 2.088,0.072 1.584,1.008 1.152,1.08 0.649,0.863 0.359,-0.143 V 4.393 l -0.504,-0.792 -0.864,-0.937 -0.864,-0.791 -1.008,-0.576 1.297,0.359 1.727,1.008 1.584,1.512 1.08,2.232 h 0.216 0.288 l -0.36,-1.296 -0.72,-1.368 -0.936,-1.08 -1.295,-1.152 -0.289,-0.215 -0.215,-0.072 1.799,0.287 1.296,0.936 1.152,1.296 1.152,1.368 0.576,-1.368 0.936,-0.863 0.648,-0.576 0.792,-0.504 -1.08,2.375 -0.36,2.232 0.504,-0.648 0.576,-0.936 0.576,-1.223 0.648,-1.153 0.648,-0.792 1.296,-0.719 h 0.648 l 0.576,-0.216 0.576,-0.145 0.432,-0.072 -1.223,0.793 -1.08,1.08 -0.937,1.367 -0.647,1.512 v 0.36 0.216 l 0.287,0.217 0.288,-0.217 0.72,-1.512 1.008,-1.511 1.296,-1.153 1.728,-0.719 0.936,0.071 0.792,0.217 0.72,0.287 0.433,0.505 0.359,1.655 -0.216,1.584 -0.576,0.432 -0.504,0.72 0.072,0.288 h 0.288 l 0.432,-0.216 0.36,-0.288 -2.087,5.185 2.664,-4.033 0.719,0.361 0.648,0.575 H -6.12 L -6.048,8.137 -7.056,6.48 -7.271,4.393 -7.056,3.385 -6.552,2.448 -5.832,1.656 -4.968,1.008 -3.384,0.793 -1.8,0.937 -0.359,1.44 1.008,2.232 1.368,2.809 1.872,3.313 H 2.088 L 2.376,3.024 -0.216,0.145 h 0.072 z" style="fill:#ffffff;fill-opacity:1;fill-rule:nonzero;stroke:none" id="path3610"/>
  </g>
  <g id="g3612" transform="matrix(1.3333330154418945, 0, 0, -1.3333330154418945, 2922.3971264382426, 970.3490001523132)">
    <path d="m 0,0 0.792,0.144 0.721,0.36 0.288,0.647 V 1.872 L 1.297,0.792 0.721,0.504 H 0 L -1.008,1.8 -0.576,3.312 0.721,4.248 0.288,4.104 -0.216,3.888 -0.72,3.672 -1.08,3.601 -1.367,3.96 -1.656,4.464 -1.512,3.601 -1.08,2.735 -1.296,1.8 l 0.36,-1.008 0.36,-0.576 z" style="fill:#000000;fill-opacity:1;fill-rule:nonzero;stroke:none" id="path3614"/>
  </g>
  <g id="g3616" transform="matrix(1.3333330154418945, 0, 0, -1.3333330154418945, 2955.9023267833118, 967.6613380326853)">
    <path d="M 0,0 0.936,3.456 0.791,6.912 0,10.368 l -1.225,3.456 -1.511,3.456 -1.225,3.6 -0.935,3.457 -0.216,3.672 v -3.672 l 0.575,-3.601 1.224,-3.528 1.296,-3.672 1.224,-3.456 1.08,-3.528 0.217,-3.312 z" style="fill:#000000;fill-opacity:1;fill-rule:nonzero;stroke:none" id="path3618"/>
  </g>
  <g id="g3620" transform="matrix(1.3333330154418945, 0, 0, -1.3333330154418945, 2905.0221305807654, 966.6053487011195)">
    <path d="M 0,0 0.216,-0.144 1.296,2.377 0.504,0.937 Z" style="fill:#000000;fill-opacity:1;fill-rule:nonzero;stroke:none" id="path3622"/>
  </g>
  <g id="g3624" transform="matrix(1.3333330154418945, 0, 0, -1.3333330154418945, 2903.101558121999, 965.3567324623546)">
    <path d="m 0,0 1.44,4.823 -1.8,-4.895 0.144,-0.144 z" style="fill:#000000;fill-opacity:1;fill-rule:nonzero;stroke:none" id="path3626"/>
  </g>
  <g id="g3628" transform="matrix(1.3333330154418945, 0, 0, -1.3333330154418945, 2934.973946356361, 965.4530866060485)">
    <path d="m 0,0 -0.216,0.072 -0.36,0.144 0.431,-0.144 z" style="fill:#000000;fill-opacity:1;fill-rule:nonzero;stroke:none" id="path3630"/>
  </g>
  <g id="g3632" transform="matrix(1.3333330154418945, 0, 0, -1.3333330154418945, 2923.453115769808, 964.7812117662361)">
    <path d="M 0,0 H 1.08 L 0.145,0.864 -0.504,2.16 -0.216,1.224 0,0.072 Z" style="fill:#000000;fill-opacity:1;fill-rule:nonzero;stroke:none" id="path3634"/>
  </g>
  <g id="g3636" transform="matrix(1.3333330154418945, 0, 0, -1.3333330154418945, 2948.509099379328, 964.6848576225422)">
    <path d="m 0,0 -1.584,6.768 -2.447,6.696 -2.017,6.912 -0.504,6.984 -0.071,-6.984 1.871,-6.768 L -2.231,6.912 -0.144,0 h 0.073 z" style="fill:#000000;fill-opacity:1;fill-rule:nonzero;stroke:none" id="path3638"/>
  </g>
  <g id="g3640" transform="matrix(1.3333330154418945, 0, 0, -1.3333330154418945, 2912.89322245415, 962.5728789594106)">
    <path d="m 0,0 h 2.017 l 0.431,0.288 -3.24,0.216 0.288,-0.288 z" style="fill:#000000;fill-opacity:1;fill-rule:nonzero;stroke:none" id="path3642"/>
  </g>
  <g id="g3644" transform="matrix(1.3333330154418945, 0, 0, -1.3333330154418945, 2933.7252487374067, 961.901004119598)">
    <path d="M 0,0 1.44,-0.504 0,1.296 -1.224,3.384 -2.231,5.76 -3.096,8.136 -0.216,0.647 -0.792,0 -1.872,-0.216 -4.68,4.896 -2.088,-0.36 h 0.36 l 0.72,0.072 0.576,0.072 z" style="fill:#000000;fill-opacity:1;fill-rule:nonzero;stroke:none" id="path3646"/>
  </g>
  <g id="g3648" transform="matrix(1.3333330154418945, 0, 0, -1.3333330154418945, 2918.7499918911208, 959.5012651084071)">
    <path d="M 0,0 -0.145,-0.072 H -0.433 L -1.225,0.217 -1.944,0.432 -2.592,0.576 -3.528,0.648 -6.48,0.576 -7.416,0 -7.849,0.288 v -0.504 l 0.433,-0.36 1.8,0.504 L -3.744,0 -1.8,-0.288 0,-0.792 v 0.433 z" style="fill:#000000;fill-opacity:1;fill-rule:nonzero;stroke:none" id="path3650"/>
  </g>
  <g id="g3652" transform="matrix(1.3333330154418945, 0, 0, -1.3333330154418945, 2964.4452934965093, 956.717411605463)">
    <path d="M 0,0 10.944,-0.144 V 0.217 L 10.872,0.432 0.288,0.648 0,0.432 -0.144,-0.144 Z" style="fill:#ffff80;fill-opacity:1;fill-rule:nonzero;stroke:none" id="path3654"/>
  </g>
  <g id="g3656" transform="matrix(1.3333330154418945, 0, 0, -1.3333330154418945, 2917.213533924107, 954.0299122462129)">
    <path d="M 0,0 0.647,0.217 1.152,0.505 V 1.513 L 0.937,1.873 0.504,2.16 0.647,1.873 0.792,1.656 0.864,1.152 0.647,0.576 0.288,0.505 0,0.361 -2.952,1.656 H -3.096 L -3.24,1.44 -2.88,0.793 -1.944,0.505 -0.864,0.361 Z" style="fill:#000000;fill-opacity:1;fill-rule:nonzero;stroke:none" id="path3658"/>
  </g>
  <g id="g3660" transform="matrix(1.3333330154418945, 0, 0, -1.3333330154418945, 2977.7903423981343, 951.5325983884942)">
    <path d="M 0,0 -0.145,1.08 H -9.217 L -9.36,0.144 Z" style="fill:#ffff80;fill-opacity:1;fill-rule:nonzero;stroke:none" id="path3662"/>
  </g>
  <g id="g3664" transform="matrix(1.3333330154418945, 0, 0, -1.3333330154418945, 2973.6614371325422, 917.7408583981997)">
    <path d="M 0,0 1.368,1.584 H 2.376 L 3.097,0.863 3.456,-0.072 3.24,-0.504 2.736,-0.864 2.88,-0.072 2.088,0.792 1.656,0.72 1.296,0.432 1.08,-0.576 1.368,-1.584 1.8,-1.801 l 0.576,-0.215 0.576,0.072 0.576,0.288 1.008,1.368 V 1.367 L 4.032,2.232 3.24,3.096 2.088,3.384 0.792,3.096 -0.647,1.367 -1.8,-0.504 l -1.224,-2.088 -1.152,-1.944 -1.296,-1.8 -1.511,-1.512 -1.584,-1.08 -1.873,-0.36 0.576,-2.808 -0.287,-2.808 -0.721,-2.664 -1.224,-2.376 1.224,-3.744 v 0.36 z" style="fill:#ffff80;fill-opacity:1;fill-rule:nonzero;stroke:none" id="path3666"/>
  </g>
  <g id="g3668" transform="matrix(1.3333330154418945, 0, 0, -1.3333330154418945, 2970.686177425233, 926.8605665103497)">
    <path d="m 0,0 -1.009,-1.584 0.72,-0.721 v -1.584 l -1.151,-4.824 0.143,-0.359 0.576,-0.073 h 0.432 l 0.505,0.217 0.575,4.392 v 4.032 z" style="fill:#ffffff;fill-opacity:1;fill-rule:nonzero;stroke:none" id="path3670"/>
  </g>
  <g id="g3672" transform="matrix(1.3333330154418945, 0, 0, -1.3333330154418945, 2963.678366596025, 927.3411165259859)">
    <path d="m 0,0 -5.977,3.097 -1.007,-2.45 v -2.878 l 3.744,-2.305 -0.217,1.296 -0.359,1.009 -3.385,2.375 0.217,0.216 v 0.216 l 3.168,-2.016 1.152,0.216 1.008,0.287 0.863,0.433 z" style="fill:#ffffff;fill-opacity:1;fill-rule:nonzero;stroke:none" id="path3674"/>
  </g>
  <g id="g3676" transform="matrix(1.3333330154418945, 0, 0, -1.3333330154418945, 2979.4218524258185, 945.5820789738755)">
    <path d="M 0,0 -6.12,3.961 0.864,3.529 2.231,2.736 2.448,1.585 1.655,0.576 Z" style="fill:#ffff80;fill-opacity:1;fill-rule:nonzero;stroke:none" id="path3678"/>
  </g>
  <g id="g3680" transform="matrix(1.3333330154418945, 0, 0, -1.3333330154418945, 2979.037737934065, 946.253953813688)">
    <path d="m 0,0 -8.137,5.185 1.369,6.12 -0.576,-0.649 -0.432,-0.719 -0.432,-0.289 -0.504,-0.359 -2.52,-5.904 1.08,-5.616 h 9.288 z" style="fill:#ffffff;fill-opacity:1;fill-rule:nonzero;stroke:none" id="path3682"/>
  </g>
  <g id="g3684" transform="matrix(1.3333330154418945, 0, 0, -1.3333330154418945, 2979.5169044864892, 940.0129885047755)">
    <path d="M 0,0 0.793,0.216 1.08,0.72 0.937,4.896 -0.144,5.688 Z" style="fill:#ffffff;fill-opacity:1;fill-rule:nonzero;stroke:none" id="path3686"/>
  </g>
  <g id="g3688" transform="matrix(1.3333330154418945, 0, 0, -1.3333330154418945, 2920.188793631417, 944.2369458310386)">
    <path d="M 0,0 -1.799,2.017 -0.215,1.872 1.656,1.8 3.673,1.872 5.257,2.592 5.329,2.808 5.473,3.168 4.896,3.672 4.32,4.176 3.673,4.464 2.953,4.752 2.448,5.04 V 5.256 L 3.601,5.185 2.377,5.832 1.009,5.903 -0.215,5.544 -1.512,5.04 -0.72,5.256 0.072,5.399 0.721,5.256 0.36,4.896 -0.432,4.608 -1.224,4.176 -1.943,3.528 -2.592,2.592 Z" style="fill:#000000;fill-opacity:1;fill-rule:nonzero;stroke:none" id="path3690"/>
  </g>
  <g id="g3692" transform="matrix(1.3333330154418945, 0, 0, -1.3333330154418945, 2907.8059840837095, 943.565152371415)">
    <path d="M 0,0 1.512,1.151 0.936,1.08 0.576,0.576 0.144,0.433 -0.217,0 h 0.072 z" style="fill:#000000;fill-opacity:1;fill-rule:nonzero;stroke:none" id="path3694"/>
  </g>
  <g id="g3696" transform="matrix(1.3333330154418945, 0, 0, -1.3333330154418945, 2958.2057116508086, 940.684863344588)">
    <path d="M 0,0 0.792,2.592 0.864,4.536 -2.88,6.912 -2.736,4.319 0.504,1.944 0.432,1.44 l -2.953,1.872 1.513,-5.256 0.504,0.935 z" style="fill:#ffffff;fill-opacity:1;fill-rule:nonzero;stroke:none" id="path3698"/>
  </g>
  <g id="g3700" transform="matrix(1.3333330154418945, 0, 0, -1.3333330154418945, 2919.9973874270518, 940.876350929142)">
    <path d="M 0,0 -0.288,0.575 -0.432,1.224 -1.584,0.359 -0.936,0 Z" style="fill:#ffffff;fill-opacity:1;fill-rule:nonzero;stroke:none" id="path3702"/>
  </g>
  <g id="g3704" transform="matrix(1.3333330154418945, 0, 0, -1.3333330154418945, 2904.1575474535643, 940.684863344588)">
    <path d="M 0,0 -0.359,0.647 -0.432,1.224 -1.656,0.72 -1.008,0 Z" style="fill:#ffffff;fill-opacity:1;fill-rule:nonzero;stroke:none" id="path3706"/>
  </g>
  <g id="g3708" transform="matrix(1.3333330154418945, 0, 0, -1.3333330154418945, 2925.3736882285743, 940.684863344588)">
    <path d="M 0,0 0.288,0.144 0.576,0.432 0.072,0.864 -0.432,0 h 0.216 z" style="fill:#ffffff;fill-opacity:1;fill-rule:nonzero;stroke:none" id="path3710"/>
  </g>
  <g id="g3712" transform="matrix(1.3333330154418945, 0, 0, -1.3333330154418945, 2976.2538844311207, 939.532601249517)">
    <path d="M 0,0 H 0.936 L 1.584,0.576 1.439,6.048 -0.36,7.344 V 0 h 0.215 z" style="fill:#ffffff;fill-opacity:1;fill-rule:nonzero;stroke:none" id="path3714"/>
  </g>
  <g id="g3716" transform="matrix(1.3333330154418945, 0, 0, -1.3333330154418945, 2901.852860503045, 938.092416046009)">
    <path d="M 0,0 -0.071,-0.433 -0.216,-0.721 0.217,-0.289 0.721,0 1.297,0.144 2.377,0.432 H 3.168 4.104 L 5.112,0.287 5.688,0.359 5.041,0.647 3.385,0.791 1.729,0.647 Z" style="fill:#ffffff;fill-opacity:1;fill-rule:nonzero;stroke:none" id="path3718"/>
  </g>
  <g id="g3720" transform="matrix(1.3333330154418945, 0, 0, -1.3333330154418945, 2910.8775979347124, 938.2851243333971)">
    <path d="m 0,0 -1.512,1.08 -2.089,0.288 -2.087,-0.36 -1.152,-0.792 -0.144,1.8 0.432,1.511 h 1.512 l 1.439,-0.214 1.441,0.214 1.08,0.577 0.864,-2.016 z" style="fill:#ffffff;fill-opacity:1;fill-rule:nonzero;stroke:none" id="path3722"/>
  </g>
  <g id="g3724" transform="matrix(1.3333330154418945, 0, 0, -1.3333330154418945, 2972.605447800976, 927.7252310177391)">
    <path d="m 0,0 v -8.64 l 1.44,0.072 0.289,7.056 z" style="fill:#ffffff;fill-opacity:1;fill-rule:nonzero;stroke:none" id="path3726"/>
  </g>
  <g id="g3728" transform="matrix(1.3333330154418945, 0, 0, -1.3333330154418945, 2969.14971945822, 929.5481472497886)">
    <path d="m 0,0 -1.08,-2.232 0.72,0.431 0.504,0.576 0.144,0.649 z" style="fill:#ffffff;fill-opacity:1;fill-rule:nonzero;stroke:none" id="path3730"/>
  </g>
  <g id="g3732" transform="matrix(1.3333330154418945, 0, 0, -1.3333330154418945, 2868.3502643240217, 1130.0924109597363)">
    <path d="M 0,0 -1.44,-1.584 H -2.448 L -3.097,-0.937 -3.528,0 -3.24,0.504 -2.809,0.792 V 0 l 0.649,-0.792 0.431,0.071 0.432,0.288 0.145,1.009 L -1.368,1.512 -1.801,1.799 -2.448,1.943 -3.024,1.872 -3.601,1.655 -4.608,0.287 V -1.44 l 0.576,-0.792 0.792,-0.865 1.151,-0.288 1.225,0.217 1.439,1.728 1.153,1.944 1.295,2.088 1.153,1.943 1.296,1.8 1.511,1.513 1.513,1.007 1.943,0.432 -0.647,2.809 0.288,2.807 0.791,2.664 1.152,2.376 -1.223,3.745 v -0.36 z" style="fill:#ffff80;fill-opacity:1;fill-rule:nonzero;stroke:none" id="path3734"/>
  </g>
  <g id="g3736" transform="matrix(1.3333330154418945, 0, 0, -1.3333330154418945, 2871.325524031331, 1120.973882860326)">
    <path d="M 0,0 0.937,1.585 0.216,2.232 V 3.889 L 1.44,8.641 1.224,9 0.72,9.145 H 0.216 L -0.216,8.929 -0.792,4.465 v -3.96 z" style="fill:#ffffff;fill-opacity:1;fill-rule:nonzero;stroke:none" id="path3738"/>
  </g>
  <g id="g3740" transform="matrix(1.3333330154418945, 0, 0, -1.3333330154418945, 2878.2382827998667, 1120.3970600811845)">
    <path d="M 0,0 5.976,-3.096 6.911,-0.648 6.983,2.16 3.312,4.464 3.455,3.096 3.815,2.16 7.199,-0.072 6.983,-0.433 V -0.648 L 3.815,1.439 2.735,1.225 1.655,0.864 0.792,0.432 Z" style="fill:#ffffff;fill-opacity:1;fill-rule:nonzero;stroke:none" id="path3742"/>
  </g>
  <g id="g3744" transform="matrix(1.3333330154418945, 0, 0, -1.3333330154418945, 2862.5898490307454, 1102.3489279909663)">
    <path d="m 0,0 6.048,-3.888 -6.912,0.432 -1.441,0.792 -0.143,1.08 0.792,1.08 z" style="fill:#ffff80;fill-opacity:1;fill-rule:nonzero;stroke:none" id="path3746"/>
  </g>
  <g id="g3748" transform="matrix(1.3333330154418945, 0, 0, -1.3333330154418945, 2862.9739635224983, 1101.677053151154)">
    <path d="m 0,0 8.136,-5.112 -1.44,-6.192 0.575,0.72 0.504,0.72 0.433,0.288 0.504,0.36 2.447,5.832 -1.079,5.688 H 0.792 Z" style="fill:#ffffff;fill-opacity:1;fill-rule:nonzero;stroke:none" id="path3750"/>
  </g>
  <g id="g3752" transform="matrix(1.3333330154418945, 0, 0, -1.3333330154418945, 2862.4934948870514, 1107.8214608659002)">
    <path d="M 0,0 -0.792,-0.287 -1.08,-0.791 -0.936,-4.896 0.072,-5.688 Z" style="fill:#ffffff;fill-opacity:1;fill-rule:nonzero;stroke:none" id="path3754"/>
  </g>
  <g id="g3756" transform="matrix(1.3333330154418945, 0, 0, -1.3333330154418945, 2883.7096356620614, 1107.1484060133482)">
    <path d="m 0,0 -0.72,-2.593 -0.072,-1.872 3.744,-2.448 -0.216,2.593 -3.168,2.447 v 0.504 L 2.448,-3.24 1.08,1.943 0.504,1.007 Z" style="fill:#ffffff;fill-opacity:1;fill-rule:nonzero;stroke:none" id="path3758"/>
  </g>
  <g id="g3760" transform="matrix(1.3333330154418945, 0, 0, -1.3333330154418945, 2865.7578170254424, 1108.2043953449138)">
    <path d="m 0,0 h -0.864 l -0.72,-0.577 0.144,-5.544 1.728,-1.295 V 0 H 0.144 Z" style="fill:#ffffff;fill-opacity:1;fill-rule:nonzero;stroke:none" id="path3762"/>
  </g>
  <g id="g3764" transform="matrix(1.3333330154418945, 0, 0, -1.3333330154418945, 2869.406253655587, 1120.0129455894316)">
    <path d="M 0,0 V 8.567 H -1.44 L -1.729,1.368 Z" style="fill:#ffffff;fill-opacity:1;fill-rule:nonzero;stroke:none" id="path3766"/>
  </g>
  <g id="g3768" transform="matrix(1.3333330154418945, 0, 0, -1.3333330154418945, 2872.76562785465, 1118.2850814180529)">
    <path d="M 0,0 1.008,2.304 0.432,1.8 -0.072,1.296 -0.144,0.576 Z" style="fill:#ffffff;fill-opacity:1;fill-rule:nonzero;stroke:none" id="path3770"/>
  </g>
  <g id="g3772" transform="matrix(1.3333330154418945, 0, 0, -1.3333330154418945, 2877.949220368785, 1091.1170377652127)">
    <path d="m 0,0 -11.016,0.072 v -0.36 L -10.8,-0.576 -0.288,-0.72 0.145,-0.576 0.288,0.072 0.145,0 Z" style="fill:#ffff80;fill-opacity:1;fill-rule:nonzero;stroke:none" id="path3774"/>
  </g>
  <g id="g3776" transform="matrix(1.3333330154418945, 0, 0, -1.3333330154418945, 2864.0299528540645, 1096.3970658032304)">
    <path d="m 0,0 0.216,-1.225 h 9.072 l 0.288,1.08 z" style="fill:#ffff80;fill-opacity:1;fill-rule:nonzero;stroke:none" id="path3778"/>
  </g>
  <g id="g3780" transform="matrix(1.3333330154418945, 0, 0, -1.3333330154418945, 2864.2213590584297, 1103.1170349041897)">
    <path d="M 0,0 3.24,-2.304 Z" style="fill:#ffff80;fill-opacity:1;fill-rule:nonzero;stroke:none" id="path3782"/>
  </g>
  <g id="g3784" transform="matrix(1.3333330154418945, 0, 0, -1.3333330154418945, 2924.317698897009, 937.4206225863854)">
    <path d="M 0,0 -0.792,0.144 -1.8,0.287 -2.736,0.072 -3.744,-0.504 -2.952,-0.072 H -1.8 l 1.152,-0.073 z" style="fill:#ffffff;fill-opacity:1;fill-rule:nonzero;stroke:none" id="path3786"/>
  </g>
  <g id="g3788" transform="matrix(1.3333330154418945, 0, 0, -1.3333330154418945, 2927.101552399953, 935.8853853222063)">
    <path d="M 0,0 V 0.216 L -0.288,1.08 -0.864,1.8 -1.584,2.304 -2.376,2.593 -3.168,2.736 H -3.815 -4.464 L -5.04,2.593 -6.12,2.521 -7.056,2.376 -8.208,2.521 -9.36,2.88 -8.496,1.8 -7.128,1.224 -5.616,1.08 -4.248,1.009 -3.312,1.224 -2.521,1.08 -1.656,0.864 -0.72,0.648 -0.144,0 Z" style="fill:#000000;fill-opacity:1;fill-rule:nonzero;stroke:none" id="path3790"/>
  </g>
  <g id="g3792" transform="matrix(1.3333330154418945, 0, 0, -1.3333330154418945, 2901.1809856632326, 919.2772349850238)">
    <path d="M 0,0 H 41.185 L 43.057,2.664 41.328,1.801 39.313,1.44 37.297,1.297 35.353,1.801 34.561,2.088 33.912,2.448 33.265,2.809 32.545,3.168 30.672,2.448 28.656,1.584 26.713,1.297 24.553,1.801 23.616,2.088 22.681,2.592 21.816,2.952 20.881,3.096 19.944,2.448 18.721,1.944 17.641,1.584 16.416,1.44 H 15.12 L 14.041,1.584 12.744,2.016 11.664,2.592 10.801,3.096 10.225,3.385 9.36,3.096 8.641,2.664 7.776,2.16 6.84,1.801 5.185,1.44 h -1.8 L 1.801,1.801 0.288,2.448 -0.144,2.809 -0.504,3.096 H -0.791 -1.08 L -1.512,2.952 -1.871,2.592 -2.304,2.305 -2.808,2.088 -2.735,1.297 -2.375,0.504 Z" style="fill:#ffff80;fill-opacity:1;fill-rule:nonzero;stroke:none" id="path3794"/>
  </g>
  <g id="g3796" transform="matrix(1.3333330154418945, 0, 0, -1.3333330154418945, 2928.8294165713314, 1085.8372131776669)">
    <path d="m 0,0 h -2.016 l -0.36,-0.288 3.24,-0.288 -0.288,0.431 z" style="fill:#000000;fill-opacity:1;fill-rule:nonzero;stroke:none" id="path3798"/>
  </g>
  <g id="g3800" transform="matrix(1.3333330154418945, 0, 0, -1.3333330154418945, 2922.8775950736895, 1088.9088270286704)">
    <path d="M 0,0 0.288,0.144 H 0.432 L 1.368,-0.145 2.016,-0.288 2.736,-0.504 3.601,-0.576 6.624,-0.504 7.488,0 7.92,-0.288 V 0.216 L 7.488,0.647 5.76,0.144 3.815,0.071 1.944,0.36 0.216,0.792 0.144,0.432 Z" style="fill:#000000;fill-opacity:1;fill-rule:nonzero;stroke:none" id="path3802"/>
  </g>
  <g id="g3804" transform="matrix(1.3333330154418945, 0, 0, -1.3333330154418945, 2924.509105101374, 1094.3814819738873)">
    <path d="m 0,0 -0.647,-0.144 -0.361,-0.36 -0.216,-1.008 0.361,-0.359 0.431,-0.217 -0.144,0.217 -0.216,0.215 v 0.576 l 0.145,0.505 0.36,0.071 0.287,0.145 2.952,-1.297 0.216,0.144 0.145,0.145 -0.504,0.647 -0.865,0.288 -1.08,0.073 z" style="fill:#000000;fill-opacity:1;fill-rule:nonzero;stroke:none" id="path3806"/>
  </g>
  <g id="g3808" transform="matrix(1.3333330154418945, 0, 0, -1.3333330154418945, 2921.533845394065, 1104.1730242357553)">
    <path d="M 0,0 1.8,-1.943 0.288,-1.872 -1.656,-1.656 -3.744,-1.872 -5.185,-2.52 -5.4,-2.736 v -0.432 l 0.576,-0.504 0.504,-0.432 0.576,-0.36 0.792,-0.288 0.504,-0.216 v -0.288 l -1.153,0.145 1.297,-0.649 1.367,-0.072 1.225,0.36 1.296,0.432 -0.792,-0.216 -0.864,-0.072 -0.576,0.072 0.36,0.432 0.72,0.217 0.792,0.431 0.72,0.649 0.72,1.007 z" style="fill:#000000;fill-opacity:1;fill-rule:nonzero;stroke:none" id="path3810"/>
  </g>
  <g id="g3812" transform="matrix(1.3333330154418945, 0, 0, -1.3333330154418945, 2933.9179570247948, 1104.7486670021574)">
    <path d="m 0,0 -1.44,-1.225 0.576,0.145 0.36,0.432 0.359,0.216 L 0.216,0 H 0.144 Z" style="fill:#000000;fill-opacity:1;fill-rule:nonzero;stroke:none" id="path3814"/>
  </g>
  <g id="g3816" transform="matrix(1.3333330154418945, 0, 0, -1.3333330154418945, 2921.7252515984296, 1107.4361256713128)">
    <path d="M 0,0 0.36,-0.576 0.504,-1.297 1.512,-0.361 1.008,0 Z" style="fill:#ffffff;fill-opacity:1;fill-rule:nonzero;stroke:none" id="path3818"/>
  </g>
  <g id="g3820" transform="matrix(1.3333330154418945, 0, 0, -1.3333330154418945, 2937.661445715611, 1107.7252287924896)">
    <path d="M 0,0 0.288,-0.504 0.433,-1.152 1.584,-0.576 0.937,0 Z" style="fill:#ffffff;fill-opacity:1;fill-rule:nonzero;stroke:none" id="path3822"/>
  </g>
  <g id="g3824" transform="matrix(1.3333330154418945, 0, 0, -1.3333330154418945, 2916.445304940601, 1107.7252287924896)">
    <path d="M 0,0 -0.36,-0.072 -0.647,-0.504 -0.216,-0.72 0.433,0 H 0.216 Z" style="fill:#ffffff;fill-opacity:1;fill-rule:nonzero;stroke:none" id="path3826"/>
  </g>
  <g id="g3828" transform="matrix(1.3333330154418945, 0, 0, -1.3333330154418945, 2939.964830583108, 1110.3162519377622)">
    <path d="m 0,0 0.072,0.503 v 0.36 l -0.359,-0.504 -0.36,-0.288 -0.648,-0.143 -1.152,-0.288 -0.792,-0.073 -0.937,0.073 -0.935,0.143 -0.649,-0.072 0.721,-0.359 1.512,-0.145 1.799,0.145 z" style="fill:#ffffff;fill-opacity:1;fill-rule:nonzero;stroke:none" id="path3830"/>
  </g>
  <g id="g3832" transform="matrix(1.3333330154418945, 0, 0, -1.3333330154418945, 2930.941395234463, 1110.124927113586)">
    <path d="m 0,0 1.44,-1.008 2.088,-0.36 2.016,0.36 1.296,0.864 0.144,-1.8 L 6.48,-3.456 H 5.04 L 3.528,-3.24 2.088,-3.456 1.08,-4.177 0.216,-2.088 Z" style="fill:#ffffff;fill-opacity:1;fill-rule:nonzero;stroke:none" id="path3834"/>
  </g>
  <g id="g3836" transform="matrix(1.3333330154418945, 0, 0, -1.3333330154418945, 2917.5012942721664, 1110.9881267775747)">
    <path d="M 0,0 0.792,-0.145 1.801,-0.217 2.736,0 3.672,0.575 2.952,0.144 H 1.801 L 0.504,0.215 Z" style="fill:#ffffff;fill-opacity:1;fill-rule:nonzero;stroke:none" id="path3838"/>
  </g>
  <g id="g3840" transform="matrix(1.3333330154418945, 0, 0, -1.3333330154418945, 2914.7174407692223, 1112.6210609585653)">
    <path d="m 0,0 v 0 l -0.072,-0.072 0.36,-0.936 0.504,-0.576 0.72,-0.576 0.864,-0.36 0.648,-0.072 0.792,-0.072 0.648,0.072 0.576,0.072 1.008,0.144 1.009,0.071 L 8.064,-2.376 9.36,-2.736 8.424,-1.8 7.2,-1.152 5.616,-1.008 4.176,-0.864 3.168,-1.008 H 2.376 L 1.584,-0.792 0.648,-0.576 0.072,0.072 Z" style="fill:#000000;fill-opacity:1;fill-rule:nonzero;stroke:none" id="path3842"/>
  </g>
  <g id="g3844" transform="matrix(1.3333330154418945, 0, 0, -1.3333330154418945, 2835.6132929624587, 931.9492697241914)">
    <path d="M 0,0 V 0.721 L -0.288,2.088 -1.08,3.096 -2.088,3.816 -3.384,4.032 -4.607,3.744 -5.615,3.023 -6.336,1.872 -6.552,0.504 l 1.008,-3.456 2.376,-3.6 2.376,-3.528 1.152,-3.313 1.008,3.313 2.448,3.528 2.304,3.6 L 7.2,0.504 6.912,1.872 6.264,3.023 5.328,3.744 4.032,4.032 2.736,3.816 1.729,3.096 0.864,2.088 0.576,0.721 V 0 L 0.36,-0.216 Z" style="fill:#ff0000;fill-opacity:1;fill-rule:nonzero;stroke:none" id="path3846"/>
  </g>
  <g id="g3848" transform="matrix(1.3333330154418945, 0, 0, -1.3333330154418945, 2827.837253149745, 921.1965867409563)">
    <path d="M 0,0 V 22.248 H 2.16 V 11.304 L 9.648,22.248 H 12.24 L 5.977,12.888 12.24,0 H 10.08 L 4.608,11.016 2.16,7.632 V 0 Z" style="fill:#ff0000;fill-opacity:1;fill-rule:nonzero;stroke:none" id="path3850"/>
  </g>
  <g id="g3852" transform="matrix(1.3333330154418945, 0, 0, -1.3333330154418945, 3006.2057002067163, 1116.8448962145449)">
    <path d="m 0,0 v -0.792 l -0.288,-1.296 -0.792,-1.08 -1.08,-0.721 -1.296,-0.215 -1.152,0.215 -1.08,0.792 -0.648,1.081 -0.288,1.44 1.008,3.384 2.376,3.528 2.376,3.527 1.08,3.241 L 1.368,9.863 3.744,6.336 6.12,2.808 7.128,-0.576 6.912,-2.016 6.192,-3.097 5.256,-3.889 4.032,-4.104 2.735,-3.889 1.656,-3.168 0.72,-2.088 0.504,-0.792 V 0 L 0.216,0.072 Z" style="fill:#ff0000;fill-opacity:1;fill-rule:nonzero;stroke:none" id="path3854"/>
  </g>
  <g id="g3856" transform="matrix(1.3333330154418945, 0, 0, -1.3333330154418945, 3014.7499690029367, 1127.5011436738969)">
    <path d="m 0,0 v -22.031 h -2.16 v 10.871 l -7.488,-10.871 h -2.665 l 6.336,9.215 L -12.313,0 h 2.233 l 5.544,-11.016 2.376,3.456 V 0 Z" style="fill:#ff0000;fill-opacity:1;fill-rule:nonzero;stroke:none" id="path3858"/>
  </g>
  <g id="g3860" transform="matrix(1.3333330154418945, 0, 0, -1.3333330154418945, 2852.2213619194526, 1048.9739000264635)">
    <path d="M 0,0 21.168,-20.663 5.832,-18.216 Z" style="fill:#c0c0ff;fill-opacity:1;fill-rule:nonzero;stroke:none" id="path3862"/>
  </g>
  <g id="g3864" transform="matrix(1.3333330154418945, 0, 0, -1.3333330154418945, 2852.2213619194526, 1048.9739000264635)">
    <path d="M 0,0 21.168,-20.663 5.832,-18.216 Z" style="fill:none;stroke:#000000;stroke-width:0.221;stroke-linecap:butt;stroke-linejoin:miter;stroke-miterlimit:4;stroke-dasharray:none;stroke-opacity:1" id="path3866"/>
  </g>
  <g id="g3868" transform="matrix(1.3333330154418945, 0, 0, -1.3333330154418945, 2988.7330481225226, 1000.6848490394732)">
    <path d="M 0,0 -19.728,19.368 -4.464,16.991 Z" style="fill:#c0c0ff;fill-opacity:1;fill-rule:nonzero;stroke:none" id="path3870"/>
  </g>
  <g id="g3872" transform="matrix(1.3333330154418945, 0, 0, -1.3333330154418945, 2988.7330481225226, 1000.6848490394732)">
    <path d="M 0,0 -19.728,19.368 -4.464,16.991 Z" style="fill:none;stroke:#000000;stroke-width:0.221;stroke-linecap:butt;stroke-linejoin:miter;stroke-miterlimit:4;stroke-dasharray:none;stroke-opacity:1" id="path3874"/>
  </g>
</svg>