<?xml version="1.0" encoding="utf-8"?>
<svg viewBox="2817.0855 186.8934 208.3213 295.2959" xmlns="http://www.w3.org/2000/svg">
  <g id="g484" transform="matrix(1.3333330154418945, 0, 0, -1.3333330154418945, 2825.0533996468007, 186.89337639585935)">
    <path d="m 0,0 h 144.288 l 2.304,-0.576 1.944,-1.872 1.296,-2.736 0.433,-3.384 v -204.48 l -0.433,-3.24 -1.296,-2.736 -1.944,-1.8 -2.304,-0.648 H 0 l -2.304,0.648 -1.8,1.8 -1.368,2.736 -0.504,3.24 v 204.48 l 0.504,3.384 1.368,2.736 1.8,1.872 z" style="fill:#000000;fill-opacity:1;fill-rule:nonzero;stroke:none" id="path486"/>
  </g>
  <g id="g488" transform="matrix(1.3333330154418945, 0, 0, -1.3333330154418945, 2828.1263155808274, 191.50144821387588)">
    <path d="m 0,0 h 139.752 l 2.231,-0.648 1.945,-1.728 1.151,-2.592 0.505,-3.312 v -198.144 l -0.505,-3.168 -1.151,-2.664 -1.945,-1.656 -2.231,-0.72 H 0 l -2.305,0.72 -1.799,1.656 -1.224,2.664 -0.36,3.168 V -8.28 l 0.36,3.312 1.224,2.592 1.799,1.728 z" style="fill:#ffffff;fill-opacity:1;fill-rule:nonzero;stroke:none" id="path490"/>
  </g>
  <g id="g492" transform="matrix(1.3333330154418945, 0, 0, -1.3333330154418945, 2844.4453221067383, 248.81328350799959)">
    <path d="M 0,0 -5.976,8.136 -11.952,0 -5.976,-8.136 Z" style="fill:#ff0000;fill-opacity:1;fill-rule:nonzero;stroke:none" id="path494"/>
  </g>
  <g id="g496" transform="matrix(1.3333330154418945, 0, 0, -1.3333330154418945, 3015.13408349469, 424.205006014261)">
    <path d="M 0,0 -5.904,8.136 -11.88,0 -5.904,-8.208 Z" style="fill:#ff0000;fill-opacity:1;fill-rule:nonzero;stroke:none" id="path498"/>
  </g>
  <path d="m 2124.465,1125.422 h 107.568 V 953.99 h -107.568 z" style="fill:#000000;fill-opacity:1;fill-rule:nonzero;stroke:none" id="path500" transform="matrix(1.3333330154418945, 0, 0, -1.3333330154418945, 17.0097983033927, 1720.8630627522327)"/>
  <g id="g502" transform="matrix(1.3333330154418945, 0, 0, -1.3333330154418945, 2828.2213676414985, 232.1095114488235)">
    <path d="M 0,0 V 22.176 H 2.232 V 11.304 l 7.56,10.872 H 12.24 L 5.976,12.96 12.24,0 H 10.152 L 4.608,11.016 2.232,7.56 V 0 Z" style="fill:#ff0000;fill-opacity:1;fill-rule:nonzero;stroke:none" id="path504"/>
  </g>
  <g id="g506" transform="matrix(1.3333330154418945, 0, 0, -1.3333330154418945, 3015.325489699055, 438.4128476789302)">
    <path d="m 0,0 v -22.176 h -2.16 v 10.8 l -7.487,-10.8 H -12.24 L -5.904,-12.96 -12.24,0 h 2.232 l 5.544,-11.16 2.304,3.456 V 0 Z" style="fill:#ff0000;fill-opacity:1;fill-rule:nonzero;stroke:none" id="path508"/>
  </g>
  <g id="g510" transform="matrix(1.3333330154418945, 0, 0, -1.3333330154418945, 2852.2213619194526, 246.02943000505547)">
    <path d="m 0,0 v 17.784 l 32.976,-0.072 4.537,-8.64 1.8,-4.176 L 38.017,0.576 37.944,0 Z" style="fill:#ffffff;fill-opacity:1;fill-rule:nonzero;stroke:none" id="path512"/>
  </g>
  <g id="g514" transform="matrix(1.3333330154418945, 0, 0, -1.3333330154418945, 2956.093732987677, 246.02943000505547)">
    <path d="M 0,0 V 1.08 L 0.792,5.688 2.52,9.936 4.608,14.04 6.696,17.712 H 26.352 L 26.136,0 h -4.248 v 1.584 l -0.073,7.128 -3.527,2.52 -3.6,-3.384 L 14.328,3.6 13.319,3.888 12.6,4.176 11.952,4.392 11.304,4.752 9.72,6.336 8.567,8.28 7.992,10.224 v 2.304 L 8.712,14.616 9.576,16.2 7.487,14.4 5.688,12.024 4.176,9.288 2.952,6.264 2.088,0.432 V 0 Z" style="fill:#ffffff;fill-opacity:1;fill-rule:nonzero;stroke:none" id="path516"/>
  </g>
  <g id="g518" transform="matrix(1.3333330154418945, 0, 0, -1.3333330154418945, 2965.213522480016, 246.02943000505547)">
    <path d="M 0,0 V 0.072 L 0.792,8.856 1.368,7.56 1.8,6.264 2.88,4.896 4.32,3.672 5.976,2.664 7.561,1.8 V 0 Z" style="fill:#ffffff;fill-opacity:1;fill-rule:nonzero;stroke:none" id="path520"/>
  </g>
  <g id="g522" transform="matrix(1.3333330154418945, 0, 0, -1.3333330154418945, 2852.2213619194526, 246.02943000505547)">
    <path d="m 0,0 v -40.392 l 1.152,0.216 1.08,0.216 1.081,0.288 0.935,0.576 0.36,19.008 1.728,1.008 1.944,0.792 2.088,0.648 2.088,0.216 6.624,-12.312 0.216,-0.072 0.36,0.072 2.233,5.472 1.511,1.152 1.728,0.504 0.36,-0.072 v -0.216 l -1.368,-7.632 4.968,1.944 -0.648,1.296 -0.576,1.368 -0.504,1.584 v 1.728 l 0.432,1.008 0.504,0.936 1.009,0.648 1.296,0.504 1.223,-0.144 1.224,-0.36 1.008,-0.576 0.72,-0.792 0.288,-2.304 0.144,-0.144 h 0.36 l 1.152,2.448 -0.287,2.88 0.863,1.44 -0.648,1.152 v 1.296 l -3.168,2.304 -0.936,1.008 2.52,3.744 1.944,3.744 L 37.944,0 Z" style="fill:#ffffff;fill-opacity:1;fill-rule:nonzero;stroke:none" id="path524"/>
  </g>
  <g id="g526" transform="matrix(1.3333330154418945, 0, 0, -1.3333330154418945, 2956.093732987677, 246.02943000505547)">
    <path d="m 0,0 0.216,-4.176 1.152,-5.472 0.936,-5.328 -0.216,-5.4 -0.576,-2.304 -1.08,-2.016 -1.369,-1.728 -1.367,-1.584 2.088,-0.504 2.232,-0.648 2.16,-0.72 2.088,-0.648 2.16,-0.576 2.088,-0.648 2.088,-0.288 1.8,-0.144 0.288,29.52 -0.648,-0.144 -0.36,-0.072 -0.432,-0.072 -0.72,-0.144 -1.584,-1.08 -1.08,-1.296 -0.936,-1.368 -0.72,-1.584 -0.216,-2.016 0.216,-2.088 0.432,-2.088 0.576,-1.728 -0.576,0.432 -0.432,0.576 -3.24,4.392 L 2.664,-5.472 2.088,0 Z" style="fill:#ffffff;fill-opacity:1;fill-rule:nonzero;stroke:none" id="path528"/>
  </g>
  <g id="g530" transform="matrix(1.3333330154418945, 0, 0, -1.3333330154418945, 2965.213522480016, 246.02943000505547)">
    <path d="m 0,0 0.576,-8.856 1.296,3.312 2.16,2.16 2.232,1.296 1.297,0.504 V 0 Z" style="fill:#ffffff;fill-opacity:1;fill-rule:nonzero;stroke:none" id="path532"/>
  </g>
  <g id="g534" transform="matrix(1.3333330154418945, 0, 0, -1.3333330154418945, 2985.2773197797655, 246.02943000505547)">
    <path d="M 0,0 -0.216,-34.416 3.96,-35.712 4.248,0 Z" style="fill:#ffffff;fill-opacity:1;fill-rule:nonzero;stroke:none" id="path536"/>
  </g>
  <g id="g538" transform="matrix(1.3333330154418945, 0, 0, -1.3333330154418945, 2851.7408932840053, 421.99748700932463)">
    <path d="M 0,0 0.072,36 3.24,35.208 V 0 Z" style="fill:#ffffff;fill-opacity:1;fill-rule:nonzero;stroke:none" id="path540"/>
  </g>
  <g id="g542" transform="matrix(1.3333330154418945, 0, 0, -1.3333330154418945, 2866.141931517196, 421.99748700932463)">
    <path d="M 0,0 V 1.296 L 0.288,1.512 0.72,1.8 1.439,2.088 1.943,2.521 5.832,5.256 7.056,8.856 H 7.199 7.488 L 7.92,0.072 V 0 Z" style="fill:#ffffff;fill-opacity:1;fill-rule:nonzero;stroke:none" id="path544"/>
  </g>
  <g id="g546" transform="matrix(1.3333330154418945, 0, 0, -1.3333330154418945, 2883.7096356620614, 421.99748700932463)">
    <path d="M 0,0 V 2.952 L -1.728,8.928 -4.824,14.4 -7.776,16.704 -6.768,12.816 -7.344,8.28 -8.28,6.336 l -0.865,-1.08 -1.511,-1.08 -2.52,-1.584 0.144,30.456 16.776,-4.68 -2.88,-3.096 -1.512,-4.176 -0.36,-4.608 0.504,-4.68 L 0.504,7.56 1.296,3.384 1.584,0 Z" style="fill:#ffffff;fill-opacity:1;fill-rule:nonzero;stroke:none" id="path548"/>
  </g>
  <g id="g550" transform="matrix(1.3333330154418945, 0, 0, -1.3333330154418945, 2938.813789190871, 421.99748700932463)">
    <path d="m 0,0 0.216,1.152 0.072,2.304 1.224,2.016 1.224,1.872 1.152,1.872 1.223,2.16 v 0.36 l -0.215,0.432 -2.664,1.44 -1.08,3.24 -0.72,0.864 0.864,1.224 -0.144,3.168 1.295,2.52 H 2.592 L 2.88,24.48 2.952,22.32 3.527,21.456 4.392,20.808 5.4,20.304 6.552,20.088 7.56,20.16 l 0.936,0.361 0.792,0.503 0.504,0.72 0.576,1.728 v 1.8 L 9.792,26.928 9.288,28.368 9,28.729 l -0.145,0.143 0.793,1.008 1.296,0.648 1.296,0.576 1.512,0.504 -1.152,-8.208 1.656,0.288 1.512,1.08 0.936,1.8 0.72,2.016 0.792,2.016 2.016,-2.736 1.656,-3.168 1.727,-3.383 L 25.271,18 27,18.072 l 1.728,0.504 1.512,0.72 1.512,0.72 0.576,0.288 0.648,0.144 0.576,9.648 0.216,9.864 4.248,1.584 0,-41.544 z" style="fill:#ffffff;fill-opacity:1;fill-rule:nonzero;stroke:none" id="path552"/>
  </g>
  <g id="g554" transform="matrix(1.3333330154418945, 0, 0, -1.3333330154418945, 2851.7408932840053, 421.99748700932463)">
    <path d="M 0,0 V -18.576 H 18.721 L 24.625,-4.68 25.633,-0.792 25.561,0 h -1.584 v -3.168 l -2.304,-5.904 -1.152,-1.872 -1.369,-1.872 -1.584,-1.728 -1.584,-1.08 0.792,1.512 0.577,1.656 0.143,1.872 -0.216,1.8 -0.792,1.656 -1.08,1.296 -1.296,1.08 -1.727,1.008 -0.576,0.144 -0.504,0.432 -0.361,0.216 -0.215,-0.432 V -7.992 L 6.625,-11.52 3.24,-7.992 V 0 Z" style="fill:#ffffff;fill-opacity:1;fill-rule:nonzero;stroke:none" id="path556"/>
  </g>
  <g id="g558" transform="matrix(1.3333330154418945, 0, 0, -1.3333330154418945, 2866.141931517196, 421.99748700932463)">
    <path d="M 0,0 -0.072,-1.872 0.504,-2.376 1.224,-2.664 1.943,-3.168 2.592,-3.6 4.607,-4.68 5.832,-5.688 6.552,-6.984 7.271,-8.784 7.92,0 Z" style="fill:#ffffff;fill-opacity:1;fill-rule:nonzero;stroke:none" id="path560"/>
  </g>
  <g id="g562" transform="matrix(1.3333330154418945, 0, 0, -1.3333330154418945, 2938.813789190871, 421.99748700932463)">
    <path d="m 0,0 -0.145,-1.008 -0.719,-1.944 -0.72,-1.944 6.912,-13.608 h 32.688 l 0,18.504 z" style="fill:#ffffff;fill-opacity:1;fill-rule:nonzero;stroke:none" id="path564"/>
  </g>
  <g id="g566" transform="matrix(1.3333330154418945, 0, 0, -1.3333330154418945, 2942.462225821015, 446.4771361208368)">
    <path d="M 0,0 -0.145,1.656 -0.792,3.384 -0.937,3.528 -1.225,3.672 -2.593,4.464 V 4.032 L -2.017,3.672 -2.232,3.24 -2.593,3.024 -3.601,3.744 -3.673,3.24 -3.744,2.808 -3.889,2.664 -4.104,2.376 -4.393,2.52 -4.681,2.808 -4.896,3.744 -6.408,3.384 -6.553,3.528 -6.696,3.816 -5.832,4.608 -7.2,5.544 -8.641,5.76 h -1.584 l -1.727,0.072 -0.072,-0.576 0.503,-0.504 V 4.464 l -0.431,-0.216 -0.433,0.072 -0.431,0.432 -0.216,-0.504 -0.288,-0.576 -0.216,-0.144 -0.288,-0.144 -0.361,0.648 v 0.72 h -0.719 -0.792 l 0.575,1.08 -1.008,0.792 -1.655,0.36 -1.8,0.216 -1.584,-0.072 -0.721,-0.288 -0.431,-0.216 1.007,-1.008 -0.072,-0.36 -0.359,-0.216 -1.225,0.72 -0.216,-0.432 -0.072,-0.576 -0.143,-0.144 -0.361,-0.072 h -0.288 l -0.143,0.216 V 6.12 l -1.657,-0.432 -0.143,0.072 v 0.36 l 1.296,1.008 -1.009,0.504 -1.079,0.36 -1.008,0.288 -1.081,0.216 -1.224,0.144 h -1.151 l -1.08,-0.144 -1.152,-0.216 0.359,-0.648 0.576,-0.72 V 6.696 l -0.216,-0.144 -0.719,0.288 -0.865,0.504 -0.36,-1.224 -0.144,-0.072 -0.36,-0.144 -0.216,0.216 -0.288,0.288 0.072,0.504 v 0.504 l -1.223,-0.504 -0.216,0.072 -0.217,0.216 0.288,0.432 0.649,0.36 v 0.36 0.36 l -1.584,0.576 h -1.657 l -1.872,-0.432 -1.943,-0.144 -3.313,-8.64 z" style="fill:#ffff83;fill-opacity:1;fill-rule:nonzero;stroke:none" id="path568"/>
  </g>
  <g id="g570" transform="matrix(1.3333330154418945, 0, 0, -1.3333330154418945, 2939.005195395236, 439.0853735602541)">
    <path d="m 0,0 0.145,0.792 -1.153,2.952 -37.008,6.048 -1.584,-4.536 1.872,0.72 H -36 l 1.513,-0.72 1.439,-1.152 0.432,-0.36 0.217,-0.144 1.08,0.288 1.08,0.216 1.223,0.36 1.152,0.216 h 1.152 1.008 l 1.225,-0.36 1.08,-0.576 0.719,-0.576 0.504,-0.36 0.576,-0.36 0.432,-0.36 1.656,0.36 1.584,0.504 1.729,0.216 1.655,-0.072 0.864,-0.144 0.361,-0.36 0.576,-0.288 0.575,-0.36 0.576,-0.648 0.864,-0.504 1.153,0.504 1.223,0.504 1.296,0.144 1.296,0.144 h 1.296 L -3.168,1.8 -1.943,1.296 -0.792,0.504 -0.647,0.216 -0.432,-0.144 -0.216,0 Z" style="fill:#ffff83;fill-opacity:1;fill-rule:nonzero;stroke:none" id="path572"/>
  </g>
  <g id="g574" transform="matrix(1.3333330154418945, 0, 0, -1.3333330154418945, 2874.8776065177817, 440.5248263420617)">
    <path d="M 0,0 2.664,3.96 4.608,8.856 5.328,14.112 4.752,19.439 3.96,22.032 3.024,24.335 1.8,26.424 0.36,28.224 2.304,20.88 2.808,13.68 2.16,6.696 Z" style="fill:#ffff83;fill-opacity:1;fill-rule:nonzero;stroke:none" id="path576"/>
  </g>
  <g id="g578" transform="matrix(1.3333330154418945, 0, 0, -1.3333330154418945, 2858.9414124006007, 433.9011300046077)">
    <path d="M 0,0 0.216,43.128 -0.359,43.632 -1.151,43.848 -1.439,0.792 -0.072,-0.288 0,-0.144 Z" style="fill:#ffff83;fill-opacity:1;fill-rule:nonzero;stroke:none" id="path580"/>
  </g>
  <g id="g582" transform="matrix(1.3333330154418945, 0, 0, -1.3333330154418945, 2863.261723870558, 433.80526414204724)">
    <path d="M 0,0 0.576,0.504 1.08,1.296 1.584,41.688 1.224,42.048 0.504,42.336 -0.216,0 Z" style="fill:#ffff83;fill-opacity:1;fill-rule:nonzero;stroke:none" id="path584"/>
  </g>
  <g id="g586" transform="matrix(1.3333330154418945, 0, 0, -1.3333330154418945, 2883.421875314002, 403.949395609201)">
    <path d="m 0,0 -0.288,3.744 0.576,4.176 0.648,1.44 0.792,1.296 0.864,1.08 1.08,1.08 0.935,0.576 0.865,0.72 0.864,0.504 1.008,0.216 L 6.336,13.896 5.328,13.032 4.392,11.952 3.672,10.728 2.592,6.768 V 2.592 L 3.023,0 Z" style="fill:#ffffff;fill-opacity:1;fill-rule:nonzero;stroke:none" id="path588"/>
  </g>
  <g id="g590" transform="matrix(1.3333330154418945, 0, 0, -1.3333330154418945, 2889.5651030160084, 403.949395609201)">
    <path d="m 0,0 -0.647,2.88 v 4.032 l 1.439,4.032 1.297,1.656 1.655,1.224 1.8,0.864 2.305,0.36 -1.441,-0.72 -1.08,-0.72 L 4.32,12.6 3.169,11.232 1.297,6.912 1.585,1.944 2.089,0 Z" style="fill:#ffffff;fill-opacity:1;fill-rule:nonzero;stroke:none" id="path592"/>
  </g>
  <g id="g594" transform="matrix(1.3333330154418945, 0, 0, -1.3333330154418945, 2893.5976541379064, 403.949395609201)">
    <path d="m 0,0 -0.216,2.448 -0.072,3.312 0.576,3.384 1.584,2.88 1.512,1.296 2.016,1.008 2.016,0.36 2.088,-0.36 L 8.208,14.04 7.056,13.608 6.48,13.176 v -0.36 l 0.576,-0.864 0.648,-0.288 0.648,0.648 0.648,0.504 0.648,0.432 0.648,0.432 0.792,-0.144 0.864,-0.216 0.864,-0.144 0.648,-0.144 -0.648,-0.432 -1.152,-0.36 -1.296,-0.432 -0.72,-0.144 -0.36,-0.36 0.216,-0.216 0.432,-0.36 h 0.72 l 1.584,0.144 1.512,0.648 1.584,0.432 1.584,-0.36 1.008,-0.72 1.008,-0.936 0.648,-1.224 0.359,-1.584 -0.359,-0.936 -0.504,-0.936 -0.721,-0.72 -0.935,-0.432 -1.08,-0.216 -1.224,0.36 -0.792,0.936 -0.216,1.152 0.504,0.792 0.648,0.288 h 0.432 0.36 l 0.792,-0.432 0.288,-0.648 0.072,-0.36 V 5.544 l 0.288,-0.144 0.216,0.144 0.216,0.432 v 0.36 L 17.424,7.488 16.632,8.136 H 15.696 L 14.904,8.064 14.112,7.632 13.464,7.128 12.456,1.8 13.032,0 H 8.64 L 7.992,2.16 V 4.968 L 9,7.632 8.64,8.136 H 7.848 L 6.984,2.592 7.704,0 Z" style="fill:#ffffff;fill-opacity:1;fill-rule:nonzero;stroke:none" id="path596"/>
  </g>
  <g id="g598" transform="matrix(1.3333330154418945, 0, 0, -1.3333330154418945, 2912.3177017580315, 403.949395609201)">
    <path d="M 0,0 -0.36,4.536 0.647,2.952 2.16,2.448 3.888,2.952 5.616,4.176 6.552,6.624 6.408,9.36 l 0.36,1.512 0.864,1.368 0.935,1.296 1.08,1.296 0.937,0.864 0.864,0.72 0.936,0.792 1.152,0.576 2.016,0.72 2.088,0.504 h 2.088 L 21.672,18.288 19.8,17.856 18.072,17.28 16.56,16.344 15.336,15.048 15.552,14.832 h 0.144 l 1.8,0.936 2.016,0.792 2.088,0.36 h 2.376 l 0.792,-0.36 0.792,-0.144 0.792,-0.216 0.576,-0.504 -1.296,0.216 h -1.224 l -1.224,-0.216 -1.296,-0.36 -1.153,-0.504 -1.223,-0.504 -1.008,-0.792 -1.008,-0.72 -0.504,-0.72 -0.648,-0.792 -0.648,-0.648 V 9.864 l 1.08,1.008 1.152,1.152 1.296,1.008 1.368,0.792 2.016,0.792 2.088,0.216 1.8,-0.144 1.655,-0.936 1.081,-1.008 0.432,-2.52 L 28.872,7.92 28.368,7.632 27.72,7.272 26.784,6.912 25.632,7.128 24.768,7.56 l -0.792,0.36 -0.432,3.312 0.432,0.504 0.72,0.288 0.648,0.072 0.648,-0.144 0.432,-0.216 0.216,-0.504 v -0.72 l -0.288,-0.576 -0.72,0.072 -0.649,0.144 V 9.36 l 0.504,-0.216 h 0.576 0.289 l 1.008,0.576 0.36,1.008 -0.36,1.224 -1.008,0.792 h -1.08 L 24.264,12.6 23.256,12.24 22.248,11.736 20.808,10.224 20.376,8.352 20.16,6.264 19.8,4.536 17.928,5.328 17.64,6.192 17.352,6.768 16.992,6.696 16.92,6.624 16.992,5.256 17.496,4.248 17.928,4.176 h 0.216 L 20.592,2.52 V 2.16 L 20.376,1.656 20.664,0.288 20.952,0 Z" style="fill:#ffffff;fill-opacity:1;fill-rule:nonzero;stroke:none" id="path600"/>
  </g>
  <g id="g602" transform="matrix(1.3333330154418945, 0, 0, -1.3333330154418945, 2883.421875314002, 403.949395609201)">
    <path d="m 0,0 v -0.288 l 1.08,-4.176 1.008,-4.032 0.504,-1.656 0.216,-1.656 0.576,-0.216 0.864,-0.144 0.792,0.144 0.792,-0.144 -0.792,4.032 0.432,0.288 0.504,-0.216 1.08,-4.32 2.591,-0.576 0.289,1.152 v 1.368 l 0.288,0.288 0.288,-0.288 0.216,-1.224 v -1.008 l 0.648,-0.648 0.936,-0.216 1.08,-0.072 0.936,-0.144 0.288,1.08 -0.217,1.008 h 0.721 l 0.287,-1.008 0.072,-1.08 3.529,-0.648 -0.72,5.76 -2.16,5.616 L 15.336,0 H 7.632 L 8.063,-1.368 8.496,-2.592 9.36,-4.968 10.008,-6.984 9.936,-8.064 9.432,-7.632 7.632,-3.024 6.696,0 4.248,0.216 4.536,-1.08 5.472,-5.256 5.399,-5.76 4.68,-5.472 3.384,-1.584 3.023,0 Z" style="fill:#ffffff;fill-opacity:1;fill-rule:nonzero;stroke:none" id="path604"/>
  </g>
  <g id="g606" transform="matrix(1.3333330154418945, 0, 0, -1.3333330154418945, 2905.1171826414366, 403.949395609201)">
    <path d="m 0,0 0.217,-0.504 1.008,-2.52 0.792,-2.088 0.576,-2.088 0.431,-2.16 0.577,-2.088 v -1.512 -1.368 L 7.704,-15.12 7.2,-9.576 5.4,-3.672 4.393,0 Z" style="fill:#ffffff;fill-opacity:1;fill-rule:nonzero;stroke:none" id="path608"/>
  </g>
  <g id="g610" transform="matrix(1.3333330154418945, 0, 0, -1.3333330154418945, 2912.3177017580315, 403.949395609201)">
    <path d="m 0,0 0.072,-0.504 1.728,-4.752 1.512,-4.68 0.144,-3.024 -0.144,-2.304 14.04,-2.664 1.44,4.032 0.288,4.32 2.52,3.672 2.592,3.528 V -2.16 L 24.048,-2.016 21.384,-0.648 20.952,0 Z" style="fill:#ffffff;fill-opacity:1;fill-rule:nonzero;stroke:none" id="path612"/>
  </g>
  <g id="g614" transform="matrix(1.3333330154418945, 0, 0, -1.3333330154418945, 2901.949214646739, 416.9089465558609)">
    <path d="M 0,0 0.721,-0.936 V 1.08 l -1.009,3.528 -2.232,8.352 0.289,2.952 1.007,2.088 1.512,2.16 h -0.864 l -1.512,-1.728 -1.152,-2.088 -0.504,-2.16 0.217,-2.52 1.007,-3.024 1.081,-3.024 0.792,-2.88 z" style="fill:#000000;fill-opacity:1;fill-rule:nonzero;stroke:none" id="path616"/>
  </g>
  <g id="g618" transform="matrix(1.3333330154418945, 0, 0, -1.3333330154418945, 2974.4296661160483, 397.0372065019874)">
    <path d="m 0,0 0.072,0.432 -0.144,0.72 -1.08,0.288 0.936,0.288 -2.592,10.44 0.216,0.144 0.288,0.072 L 0.864,0.36 1.151,0.144 1.584,0.36 1.8,0.936 2.088,1.728 1.584,1.8 0.937,2.088 1.44,2.232 2.016,2.448 0.072,13.248 0.288,13.32 0.648,13.248 2.592,1.44 2.952,1.08 3.528,1.152 3.815,1.512 4.032,2.088 H 3.024 l 0.864,0.576 -0.72,11.664 0.144,0.504 0.503,0.144 1.009,-13.032 h 0.36 L 5.616,2.088 5.903,2.376 6.048,2.88 5.616,3.24 5.328,3.456 5.76,3.744 6.12,3.6 6.192,20.448 -11.304,13.32 -12.24,11.232 -12.528,8.64 l 0.144,-0.648 0.216,-0.432 -0.216,-1.512 0.792,0.504 0.504,0.648 0.432,0.864 0.504,0.936 0.36,1.224 0.144,1.152 0.36,1.008 1.008,0.72 2.16,-3.096 1.944,-3.24 1.655,-3.528 1.584,-3.6 0.504,0.144 z" style="fill:#ffffff;fill-opacity:1;fill-rule:nonzero;stroke:none" id="path620"/>
  </g>
  <g id="g622" transform="matrix(1.3333330154418945, 0, 0, -1.3333330154418945, 2927.5820210354, 390.60540465003214)">
    <path d="M 0,0 0.504,-0.072 0.863,0.36 1.584,1.512 2.447,2.808 3.455,3.888 3.312,4.176 2.88,4.32 1.512,3.24 0.504,1.8 -0.145,0.648 Z" style="fill:#000000;fill-opacity:1;fill-rule:nonzero;stroke:none" id="path624"/>
  </g>
  <g id="g626" transform="matrix(1.3333330154418945, 0, 0, -1.3333330154418945, 2920.381501918805, 390.22153429884565)">
    <path d="m 0,0 0.864,2.16 1.512,2.088 1.728,1.8 2.016,1.728 0.792,0.432 0.792,0.36 0.792,0.36 L 9.36,9.216 8.28,9.36 6.984,9.216 5.473,8.856 4.104,8.568 3.672,8.352 3.313,8.064 2.88,7.92 H 2.52 L 1.225,7.2 0.504,6.48 -0.504,5.544 -1.584,4.536 -2.231,3.528 -2.88,2.592 -0.072,-0.072 Z" style="fill:#ffffff;fill-opacity:1;fill-rule:nonzero;stroke:none" id="path628"/>
  </g>
  <g id="g630" transform="matrix(1.3333330154418945, 0, 0, -1.3333330154418945, 2877.3736996726666, 334.6368307543998)">
    <path d="m 0,0 -0.072,0.216 2.736,6.192 1.872,6.552 1.512,6.552 1.368,6.624 0.72,-2.376 0.792,-2.232 0.648,-2.52 L 10.44,16.632 12.96,5.904 13.968,0 Z" style="fill:#ffffff;fill-opacity:1;fill-rule:nonzero;stroke:none" id="path632"/>
  </g>
  <g id="g634" transform="matrix(1.3333330154418945, 0, 0, -1.3333330154418945, 2897.8216114641696, 334.6368307543998)">
    <path d="m 0,0 -0.432,3.528 -1.944,8.064 -2.231,7.92 -2.521,7.92 -2.592,7.632 0.216,0.288 0.216,0.072 H -9 -8.712 l 2.304,-6.192 2.16,-6.336 2.016,-6.552 1.8,-6.697 L 0.216,5.688 1.008,1.8 1.224,0 Z" style="fill:#ffff83;fill-opacity:1;fill-rule:nonzero;stroke:none" id="path636"/>
  </g>
  <g id="g638" transform="matrix(1.3333330154418945, 0, 0, -1.3333330154418945, 2877.565105877032, 334.6368307543998)">
    <path d="M 0,0 H -0.144 13.824 Z" style="fill:#ffffff;fill-opacity:1;fill-rule:nonzero;stroke:none" id="path640"/>
  </g>
  <g id="g642" transform="matrix(1.3333330154418945, 0, 0, -1.3333330154418945, 2897.917965607864, 334.6368307543998)">
    <path d="M 0,0 H -0.072 1.151 Z" style="fill:#ffffff;fill-opacity:1;fill-rule:nonzero;stroke:none" id="path644"/>
  </g>
  <g id="g646" transform="matrix(1.3333330154418945, 0, 0, -1.3333330154418945, 2877.565105877032, 334.6368307543998)">
    <path d="m 0,0 0.288,-1.008 0.864,-1.368 1.153,-2.017 1.296,-1.943 1.152,-2.088 1.367,-2.305 1.296,-2.807 1.656,-3.312 1.872,-3.961 2.088,-4.823 1.872,10.44 L 14.616,-4.536 13.824,0 Z" style="fill:#ffffff;fill-opacity:1;fill-rule:nonzero;stroke:none" id="path648"/>
  </g>
  <g id="g650" transform="matrix(1.3333330154418945, 0, 0, -1.3333330154418945, 2897.917965607864, 334.6368307543998)">
    <path d="m 0,0 0.647,-4.248 0.289,-8.065 -0.649,-7.991 -1.727,-7.848 -2.232,3.312 -2.16,4.031 -2.017,4.105 -2.159,3.816 -0.864,1.512 -0.72,1.44 -0.792,1.44 -0.936,2.088 -2.664,5.472 -0.432,-0.504 v -0.792 l 0.647,-1.152 0.504,-1.152 0.577,-1.296 0.648,-1.008 0.575,-1.368 0.505,-1.296 0.792,-1.225 0.504,-1.08 9.143,-18.215 -3.456,-6.336 0.073,-0.144 2.015,0.504 3.097,6.912 1.872,7.487 0.72,7.777 v 7.847 L 1.439,-1.872 1.151,0 Z" style="fill:#ffff83;fill-opacity:1;fill-rule:nonzero;stroke:none" id="path652"/>
  </g>
  <g id="g654" transform="matrix(1.3333330154418945, 0, 0, -1.3333330154418945, 2898.109371812229, 381.5808299787422)">
    <path d="m 0,0 h 0.433 0.359 l 0.721,1.8 0.719,2.088 0.648,2.16 0.721,1.944 1.511,4.68 1.08,4.752 0.792,4.896 0.72,4.68 17.496,0.216 0.36,0.36 L 25.488,28.08 8.28,28.368 7.992,37.728 7.56,47.664 6.769,57.815 5.112,67.752 4.896,68.04 H 4.464 L 5.473,59.616 6.408,51.336 6.912,42.984 6.984,34.848 6.48,26.496 5.4,18.144 3.384,9.864 0.504,1.656 0,0.936 -0.216,0.144 H 0 Z" style="fill:#ffff83;fill-opacity:1;fill-rule:nonzero;stroke:none" id="path656"/>
  </g>
  <g id="g658" transform="matrix(1.3333330154418945, 0, 0, -1.3333330154418945, 2943.2291527214993, 333.6771955665281)">
    <path d="m 0,0 -0.936,9.36 0.432,10.152 2.304,9.864 2.664,7.2 1.801,0.792 L 5.832,36.504 5.257,35.496 4.177,32.328 V 29.16 l 0.791,-3.096 1.512,-3.096 1.8,-3.024 1.872,-3.024 1.584,-3.096 1.224,-3.096 1.08,-2.16 1.297,-2.304 1.008,-2.088 0.431,-2.52 -0.143,-0.144 H 16.345 L 3.24,27.648 2.952,27.936 2.664,28.08 2.304,27.936 2.089,27.648 0.36,19.296 0,10.656 0.576,1.872 0.792,0 Z" style="fill:#ffff83;fill-opacity:1;fill-rule:nonzero;stroke:none" id="path660"/>
  </g>
  <g id="g662" transform="matrix(1.3333330154418945, 0, 0, -1.3333330154418945, 2945.62889173269, 333.6771955665281)">
    <path d="M 0,0 -0.647,4.176 -0.863,15.408 1.08,26.64 14.112,0.288 V 0 Z" style="fill:#ffffff;fill-opacity:1;fill-rule:nonzero;stroke:none" id="path664"/>
  </g>
  <g id="g666" transform="matrix(1.3333330154418945, 0, 0, -1.3333330154418945, 2943.2291527214993, 334.6368307543998)">
    <path d="M 0,0 V 0.72 H 0.792 L 0.937,0 Z" style="fill:#ffffff;fill-opacity:1;fill-rule:nonzero;stroke:none" id="path668"/>
  </g>
  <g id="g670" transform="matrix(1.3333330154418945, 0, 0, -1.3333330154418945, 2945.9179541637723, 334.6368307543998)">
    <path d="M 0,0 -0.217,0.72 H 13.896 L 13.464,0 Z" style="fill:#ffffff;fill-opacity:1;fill-rule:nonzero;stroke:none" id="path672"/>
  </g>
  <g id="g674" transform="matrix(1.3333330154418945, 0, 0, -1.3333330154418945, 2943.2291527214993, 334.6368307543998)">
    <path d="m 0,0 1.8,-9.936 1.584,-6.12 1.801,-6.12 2.015,-5.832 2.305,-5.688 h 0.215 0.36 l -2.304,7.128 -0.504,1.152 -0.503,1.728 -0.504,1.728 -0.577,1.296 -1.08,3.672 -1.007,3.816 L 2.664,-9.504 1.8,-5.76 0.937,0 Z" style="fill:#ffff83;fill-opacity:1;fill-rule:nonzero;stroke:none" id="path676"/>
  </g>
  <g id="g678" transform="matrix(1.3333330154418945, 0, 0, -1.3333330154418945, 2945.9179541637723, 334.6368307543998)">
    <path d="m 0,0 0.863,-6.264 2.593,-11.448 0.72,-1.944 0.792,-1.872 0.792,-2.016 0.504,-2.016 0.072,2.232 0.576,2.16 0.576,3.096 0.648,2.88 1.223,4.392 1.369,4.176 1.584,4.032 L 13.464,0 Z" style="fill:#ffffff;fill-opacity:1;fill-rule:nonzero;stroke:none" id="path680"/>
  </g>
  <g id="g682" transform="matrix(1.3333330154418945, 0, 0, -1.3333330154418945, 2937.565091571917, 376.68499781266655)">
    <path d="m 0,0 0.072,0.072 h 0.073 l -0.792,8.28 -0.792,8.28 -0.504,8.28 -0.145,7.92 0.576,9.072 1.224,8.928 2.16,8.784 3.168,8.352 -0.216,0.288 h -0.72 l -2.807,-6.408 -1.944,-6.84 -1.296,-7.128 -1.08,-6.84 -17.712,-0.432 v -0.864 l 17.208,-0.072 0.288,-7.416 0.143,-7.344 0.216,-7.704 0.937,-7.632 V 6.696 L -1.224,4.248 -1.008,0.72 -0.72,0.288 -0.071,-0.072 V 0 Z" style="fill:#ffff83;fill-opacity:1;fill-rule:nonzero;stroke:none" id="path684"/>
  </g>
  <g id="g686" transform="matrix(1.3333330154418945, 0, 0, -1.3333330154418945, 2958.1093575071145, 368.4291404060168)">
    <path d="M 0,0 3.744,1.8 2.88,2.376 2.16,3.384 2.232,3.744 2.448,4.176 2.952,4.68 3.816,5.04 h 0.936 1.009 l 1.008,0.792 -3.241,3.6 0.432,1.08 4.608,1.368 -0.36,0.576 -0.504,0.504 -0.576,0.36 -0.504,0.432 -0.863,0.792 -0.288,1.152 0.215,0.576 0.432,0.36 0.576,0.288 0.649,0.216 h 0.791 0.576 l 0.504,-0.144 h 0.576 l 0.288,0.144 0.36,0.144 0.216,0.36 v 0.576 L 10.08,19.08 9.216,19.8 8.353,20.592 7.92,21.744 l 0.648,1.152 4.824,0.576 0.289,0.72 -0.361,0.864 -0.792,0.504 -0.72,0.72 -0.36,0.792 0.073,1.008 0.359,0.504 0.648,0.576 4.248,-0.792 0.216,1.296 -0.647,1.296 -0.576,1.368 v 1.368 l 0.287,0.36 0.144,0.216 1.08,0.144 1.08,-0.36 1.008,-0.504 1.008,-0.432 0.576,0.216 0.504,0.72 -1.08,3.816 0.288,0.504 0.36,0.288 0.504,0.288 0.649,-0.072 0.575,-0.288 0.576,-0.288 0.36,-0.432 0.432,-0.288 0.288,4.392 -2.376,-0.72 -2.16,-1.152 -2.016,-1.512 -1.8,-1.728 L 14.328,34.92 12.816,32.904 11.304,30.816 9.937,28.872 8.208,25.776 6.624,22.752 5.185,19.368 3.816,15.984 2.664,12.024 1.44,8.064 0.576,3.96 Z" style="fill:#c2c2ff;fill-opacity:1;fill-rule:nonzero;stroke:none" id="path688"/>
  </g>
  <g id="g690" transform="matrix(1.3333330154418945, 0, 0, -1.3333330154418945, 2851.8372474276994, 355.37315393547397)">
    <path d="m 0,0 4.824,2.952 0.288,0.216 0.432,0.144 3.528,3.672 3.168,4.104 2.737,4.464 2.447,4.608 2.016,5.256 1.656,5.472 1.369,5.472 1.151,5.688 -3.744,-1.296 0.721,-0.936 0.792,-0.936 -0.289,-1.152 -0.791,-0.576 -0.937,-0.216 h -1.151 l -1.08,-0.144 -0.217,-0.144 -0.216,-0.288 0.144,-0.216 0.072,-0.288 0.864,-0.648 0.864,-0.504 0.864,-0.72 0.36,-1.224 -0.432,-1.152 -1.007,-0.72 h -2.737 l -0.288,-0.216 -0.288,-0.36 0.072,-0.216 0.144,-0.36 0.792,-0.648 1.009,-0.72 0.647,-0.792 0.361,-1.08 -0.217,-0.576 -0.287,-0.504 -4.105,-0.288 -0.359,-0.288 -0.217,-0.576 2.16,-2.448 0.504,-0.792 0.072,-0.864 -0.143,-0.504 -0.433,-0.432 -0.504,-0.432 -0.576,-0.216 -2.664,0.504 -0.72,-0.288 -0.504,-0.504 2.016,-3.024 V 14.256 L 11.952,13.392 6.912,13.824 7.992,8.712 7.488,8.136 6.624,7.56 3.672,8.928 H 3.168 2.809 L 3.168,4.032 2.881,3.672 2.376,3.312 1.729,3.24 H 1.008 L 0.433,3.744 -0.072,4.104 -0.216,0 h 0.144 z" style="fill:#c2c2ff;fill-opacity:1;fill-rule:nonzero;stroke:none" id="path692"/>
  </g>
  <g id="g694" transform="matrix(1.3333330154418945, 0, 0, -1.3333330154418945, 2887.453124352877, 345.29307821375187)">
    <path d="M 0,0 5.257,8.712 0.145,17.352 -4.68,8.712 -0.144,0 Z" style="fill:#000000;fill-opacity:1;fill-rule:nonzero;stroke:none" id="path696"/>
  </g>
  <g id="g698" transform="matrix(1.3333330154418945, 0, 0, -1.3333330154418945, 2953.79034812018, 345.29307821375187)">
    <path d="m 0,0 1.295,2.088 1.44,2.16 1.153,2.304 0.935,2.16 -1.08,2.16 -1.223,2.232 -1.081,2.088 -1.007,1.872 -5.401,-8.856 z" style="fill:#000000;fill-opacity:1;fill-rule:nonzero;stroke:none" id="path700"/>
  </g>
  <g id="g702" transform="matrix(1.3333330154418945, 0, 0, -1.3333330154418945, 2971.83721881747, 323.0215991486875)">
    <path d="m 0,0 v 1.656 l -0.504,1.368 -0.863,1.225 -1.009,1.079 -0.647,0.288 -0.361,0.432 -0.431,1.656 -0.216,2.016 -0.361,1.872 -1.152,1.368 -0.935,0.504 -0.72,0.648 -0.576,0.648 -0.433,0.792 v 1.801 l -0.288,1.511 -0.648,1.368 -1.08,0.936 -1.872,1.44 -1.008,2.017 -0.431,2.231 -0.576,2.088 -0.288,-0.215 -0.216,-0.505 0.792,-5.544 1.8,-1.512 1.584,-1.656 1.08,-2.088 0.071,-2.736 0.144,-0.576 0.432,-0.648 2.017,-1.152 1.151,-1.224 0.721,-1.656 0.288,-1.8 0.071,-2.016 0.288,-0.504 0.432,-0.36 0.504,-0.216 0.648,-0.287 0.864,-0.721 0.792,-1.08 0.504,-1.08 z" style="fill:#ffffff;fill-opacity:1;fill-rule:nonzero;stroke:none" id="path704"/>
  </g>
  <g id="g706" transform="matrix(1.3333330154418945, 0, 0, -1.3333330154418945, 2868.92578502014, 343.75727128825025)">
    <path d="m 0,0 v -1.584 l 0.504,-1.368 0.935,-1.224 1.081,-1.08 0.576,-0.288 0.288,-0.432 0.504,-1.8 0.216,-1.872 0.36,-1.872 1.224,-1.512 0.936,-0.432 0.647,-0.648 0.577,-0.576 0.431,-0.864 v -1.728 l 0.289,-1.584 0.648,-1.296 1.08,-1.008 1.872,-1.44 1.008,-2.016 0.36,-2.232 0.648,-2.088 0.36,0.288 0.216,0.432 -0.864,5.544 -1.728,1.512 -1.584,1.656 -1.08,2.088 -0.144,2.736 -0.216,0.576 -0.289,0.648 -2.087,1.152 -1.08,1.152 -0.792,1.728 -0.289,1.872 v 1.872 l -0.359,0.576 -0.36,0.36 -0.576,0.288 -0.72,0.288 L 1.8,-3.456 1.008,-2.52 0.432,-1.296 0.144,0 H 0.072 Z" style="fill:#ffffff;fill-opacity:1;fill-rule:nonzero;stroke:none" id="path708"/>
  </g>
  <g id="g710" transform="matrix(1.3333330154418945, 0, 0, -1.3333330154418945, 2859.3255268923535, 297.58085000590285)">
    <path d="m 0,0 17.496,7.416 1.441,4.968 -0.577,1.152 0.073,1.224 L 16.992,13.392 16.2,11.52 15.479,9.504 14.328,7.632 l -0.792,0.36 -0.36,0.792 -0.432,0.72 -0.36,0.792 -1.367,2.592 -1.37,2.52 -1.294,2.447 -1.297,2.593 H 6.408 L 5.616,20.231 6.12,19.08 7.128,19.368 6.769,18.792 6.336,18.072 8.856,8.208 H 8.353 L 8.208,8.136 5.328,19.944 4.608,20.231 3.96,20.088 3.672,19.584 3.816,18.648 4.608,18.792 4.32,18.36 4.032,18 6.048,7.632 5.76,7.272 H 5.185 L 3.024,19.368 H 2.448 L 1.44,18.864 1.728,18.072 2.664,18.288 1.8,17.28 2.448,5.616 2.231,5.544 1.872,5.472 0.647,18.648 0.288,18.504 -0.216,18.216 V 17.352 H 0.072 L 0.36,17.28 0.144,16.992 -0.216,16.848 -0.36,0 h 0.144 z" style="fill:#ffffff;fill-opacity:1;fill-rule:nonzero;stroke:none" id="path712"/>
  </g>
  <g id="g714" transform="matrix(1.3333330154418945, 0, 0, -1.3333330154418945, 2983.3580494040225, 291.5333254060788)">
    <path d="M 0,0 H 0.216 L 0.432,0.144 0.504,7.416 0.792,25.2 0.576,42.408 0.144,42.84 -0.433,43.2 -0.721,0.576 -0.433,0.216 Z" style="fill:#ffff83;fill-opacity:1;fill-rule:nonzero;stroke:none" id="path716"/>
  </g>
  <g id="g718" transform="matrix(1.3333330154418945, 0, 0, -1.3333330154418945, 2977.7903423981343, 289.9975184805771)">
    <path d="M 0,0 0.144,0.072 V 0.216 L 0.359,42.048 -0.145,41.616 -0.721,40.824 -1.152,0.432 -0.721,0.216 Z" style="fill:#ffff83;fill-opacity:1;fill-rule:nonzero;stroke:none" id="path720"/>
  </g>
  <g id="g722" transform="matrix(1.3333330154418945, 0, 0, -1.3333330154418945, 2890.3333319995154, 280.1095000047317)">
    <path d="M 0,0 -0.504,2.448 0.288,4.752 1.152,4.968 2.017,5.544 H 2.952 L 3.96,5.256 4.824,4.896 5.472,4.248 5.832,2.664 5.328,1.008 3.96,0.432 3.097,0.864 2.448,1.296 2.376,2.088 2.593,2.664 2.88,2.88 H 3.168 L 3.601,2.52 H 3.96 L 4.177,2.952 3.96,3.384 2.88,3.6 2.017,3.096 1.513,2.376 V 1.296 L 2.017,0.576 2.808,0 Z" style="fill:#ffffff;fill-opacity:1;fill-rule:nonzero;stroke:none" id="path724"/>
  </g>
  <g id="g726" transform="matrix(1.3333330154418945, 0, 0, -1.3333330154418945, 2896.765622132604, 280.1095000047317)">
    <path d="m 0,0 1.151,0.288 1.153,0.864 1.008,0.936 1.08,5.688 0.216,0.072 h 0.36 L 6.48,6.984 6.769,5.976 7.128,5.76 H 7.416 L 7.632,5.976 7.704,6.264 7.272,7.488 6.769,8.352 4.104,9.576 l -0.36,2.664 -3.24,1.8 v 0.36 0.216 l 2.52,3.6 1.512,3.024 1.08,4.896 1.296,4.032 14.04,-2.304 -0.072,-5.184 0.935,-4.104 2.665,-6.263 0.576,-4.969 -1.008,1.584 -0.72,0.432 -0.792,0.36 H 21.384 L 20.231,9.576 19.296,9.144 18.576,8.64 18.072,5.976 18.144,2.88 17.208,1.296 16.56,0 h -4.968 l 0.216,0.288 1.296,2.376 V 2.88 L 12.744,3.024 11.736,1.656 10.8,0.216 V 0 H 6.912 L 7.992,1.008 9,2.664 8.856,3.024 8.567,3.096 7.272,1.368 5.832,0 H 5.616 Z" style="fill:#ffffff;fill-opacity:1;fill-rule:nonzero;stroke:none" id="path728"/>
  </g>
  <g id="g730" transform="matrix(1.3333330154418945, 0, 0, -1.3333330154418945, 2920.6692622668643, 280.1095000047317)">
    <path d="M 0,0 0.216,0.432 0.648,2.304 3.024,0 Z" style="fill:#ffffff;fill-opacity:1;fill-rule:nonzero;stroke:none" id="path732"/>
  </g>
  <g id="g734" transform="matrix(1.3333330154418945, 0, 0, -1.3333330154418945, 2931.3255097262163, 280.1095000047317)">
    <path d="M 0,0 2.376,1.512 2.16,1.8 H 1.944 L 0.647,1.008 0,0.864 -0.504,0.792 -1.224,0.576 -1.872,0.432 l -1.512,0.36 -1.296,0.504 -1.224,0.792 -0.865,1.08 -0.431,2.52 0.648,2.232 3.24,1.008 0.791,-0.36 0.505,-0.576 0.36,-0.72 L -1.584,6.48 -2.016,5.688 -2.735,5.112 h -0.433 -0.36 L -4.32,5.544 -4.608,6.264 V 6.84 l -0.288,0.576 -0.432,-1.08 0.288,-1.224 0.36,-0.216 0.36,-0.216 0.216,-0.072 0.432,-0.36 0.937,0.144 0.863,0.288 0.648,0.432 0.504,0.576 0.216,0.36 0.288,0.432 -0.144,5.256 -2.448,6.48 -0.864,4.176 v 5.472 L 0.216,27.072 0.647,21.384 2.592,15.696 4.248,10.512 4.968,7.416 4.536,4.248 H 4.752 L 5.76,6.264 V 8.568 L 5.256,11.016 4.608,13.392 3.384,16.704 2.304,20.088 1.44,23.544 1.296,27.072 4.608,26.424 4.752,25.848 4.968,25.2 5.256,24.84 5.544,25.2 v 0.648 l 0.288,0.432 3.312,-0.504 0.793,-4.392 h 0.359 l 0.216,0.216 v 3.888 l 0.719,-0.144 h 0.649 0.648 l 0.576,-0.288 0.504,-1.944 0.216,-2.016 0.648,-2.088 0.936,-1.512 -0.936,7.128 0.144,0.216 h 0.288 l 2.159,-0.288 0.217,-1.584 0.576,-1.584 0.72,-2.808 0.72,-2.664 0.576,-2.664 L 20.304,10.44 20.231,7.272 19.584,4.248 18.288,1.656 16.704,0 h -1.8 l 0.288,0.288 0.72,1.008 1.368,3.096 0.432,3.456 -0.432,3.528 -1.008,3.312 -0.36,0.072 L 15.769,14.4 16.2,11.016 16.416,7.344 15.769,3.888 14.112,0.792 13.32,0 h -2.303 l 0.791,0.792 1.08,1.296 1.368,4.104 -0.36,4.32 -1.295,4.392 -1.584,4.248 -0.217,0.144 -0.216,-0.144 0.072,-1.368 0.575,-1.368 0.865,-3.312 0.648,-3.24 L 12.888,6.408 12.168,2.88 11.521,1.872 10.728,1.008 10.08,0.216 9.937,0 H 5.832 L 6.12,0.288 V 0.576 L 6.048,0.792 4.536,0 Z" style="fill:#ffffff;fill-opacity:1;fill-rule:nonzero;stroke:none" id="path736"/>
  </g>
  <g id="g738" transform="matrix(1.3333330154418945, 0, 0, -1.3333330154418945, 2890.3333319995154, 280.1095000047317)">
    <path d="m 0,0 v 0 l 1.224,-1.296 1.728,-0.576 1.872,-0.216 1.8,0.216 L 8.712,-1.08 10.44,0 H 4.824 L 4.464,-0.072 2.808,0 Z" style="fill:#ffffff;fill-opacity:1;fill-rule:nonzero;stroke:none" id="path740"/>
  </g>
  <g id="g742" transform="matrix(1.3333330154418945, 0, 0, -1.3333330154418945, 2905.9817657686367, 280.1095000047317)">
    <path d="m 0,0 -0.288,-0.36 -1.656,-1.152 -1.728,-1.008 -1.44,-0.288 -1.44,-0.36 -1.44,-0.216 -1.368,0.36 1.728,-0.936 2.016,-0.288 2.16,0.072 2.016,0.36 0.792,0.36 0.864,0.36 0.792,0.288 0.647,0.432 1.225,1.08 L 3.888,0 Z" style="fill:#ffffff;fill-opacity:1;fill-rule:nonzero;stroke:none" id="path744"/>
  </g>
  <g id="g746" transform="matrix(1.3333330154418945, 0, 0, -1.3333330154418945, 2912.2213476143374, 280.1095000047317)">
    <path d="M 0,0 -1.44,-1.728 -3.456,-3.6 -5.76,-4.896 l -0.864,-0.216 -0.863,-0.216 -0.649,-0.216 -0.792,-0.144 1.152,-0.648 1.297,-0.144 1.511,0.072 1.296,0.144 2.088,0.576 1.729,0.792 1.439,0.936 1.296,1.008 1.08,1.296 0.864,1.44 L 4.968,0 Z" style="fill:#ffffff;fill-opacity:1;fill-rule:nonzero;stroke:none" id="path748"/>
  </g>
  <g id="g750" transform="matrix(1.3333330154418945, 0, 0, -1.3333330154418945, 2920.6692622668643, 280.1095000047317)">
    <path d="m 0,0 -0.72,-1.152 -0.864,-1.44 -1.151,-1.152 -1.225,-1.008 -1.584,-0.792 -1.8,-0.72 -2.16,-0.504 1.8,0.072 1.944,0.288 1.872,0.432 1.944,0.648 1.656,0.864 1.297,1.08 1.295,1.296 1.08,1.728 L 3.024,0 Z" style="fill:#ffffff;fill-opacity:1;fill-rule:nonzero;stroke:none" id="path752"/>
  </g>
  <g id="g754" transform="matrix(1.3333330154418945, 0, 0, -1.3333330154418945, 2931.3255097262163, 280.1095000047317)">
    <path d="M 0,0 -0.72,-0.36 0.647,-0.864 1.944,-0.936 3.672,-0.504 4.536,0 Z" style="fill:#ffffff;fill-opacity:1;fill-rule:nonzero;stroke:none" id="path756"/>
  </g>
  <g id="g758" transform="matrix(1.3333330154418945, 0, 0, -1.3333330154418945, 2939.10154953893, 280.1095000047317)">
    <path d="M 0,0 -1.872,-1.512 3.601,-0.576 4.104,0 Z" style="fill:#ffffff;fill-opacity:1;fill-rule:nonzero;stroke:none" id="path760"/>
  </g>
  <g id="g762" transform="matrix(1.3333330154418945, 0, 0, -1.3333330154418945, 2946.014308307466, 280.1095000047317)">
    <path d="M 0,0 -0.505,-0.504 -1.729,-1.512 -3.024,-2.16 -1.225,-2.088 0.359,-1.512 1.8,-0.504 2.304,0 Z" style="fill:#ffffff;fill-opacity:1;fill-rule:nonzero;stroke:none" id="path764"/>
  </g>
  <g id="g766" transform="matrix(1.3333330154418945, 0, 0, -1.3333330154418945, 2951.197900821601, 280.1095000047317)">
    <path d="m 0,0 -0.576,-0.576 -0.937,-0.936 -0.863,-0.576 0.863,0.216 1.009,0.36 1.008,0.648 L 1.368,-0.36 1.8,0 Z" style="fill:#ffffff;fill-opacity:1;fill-rule:nonzero;stroke:none" id="path768"/>
  </g>
  <g id="g770" transform="matrix(1.3333330154418945, 0, 0, -1.3333330154418945, 2885.053385341686, 280.1095000047317)">
    <path d="M 0,0 0.36,2.304 -0.359,1.728 Z" style="fill:#ffffff;fill-opacity:1;fill-rule:nonzero;stroke:none" id="path772"/>
  </g>
  <g id="g774" transform="matrix(1.3333330154418945, 0, 0, -1.3333330154418945, 2942.2695175336275, 278.95715652947183)">
    <path d="M 0,0 1.296,2.232 1.944,4.968 V 7.992 L 1.296,10.872 0.72,12.96 0,15.912 -0.576,18.648 -1.296,20.736 -2.16,21.672 -2.088,20.16 -0.792,15.264 0.504,10.08 1.225,5.04 0.504,2.016 -0.359,0.144 Z" style="fill:#000000;fill-opacity:1;fill-rule:nonzero;stroke:none" id="path776"/>
  </g>
  <g id="g778" transform="matrix(1.3333330154418945, 0, 0, -1.3333330154418945, 2966.076803524193, 264.17330588755067)">
    <path d="m 0,0 -0.72,3.168 -0.575,3.456 -0.217,5.256 0.145,5.184 0.504,5.112 L 0,27.36 -2.52,23.328 -4.176,18.648 -4.823,13.392 -4.319,8.208 -3.384,5.832 -2.52,3.744 -1.367,1.8 -0.071,-0.216 Z" style="fill:#ffff83;fill-opacity:1;fill-rule:nonzero;stroke:none" id="path780"/>
  </g>
  <g id="g782" transform="matrix(1.3333330154418945, 0, 0, -1.3333330154418945, 2909.917962746841, 267.82109147618394)">
    <path d="M 0,0 2.735,-0.144 3.168,0.36 3.527,1.224 2.88,2.088 1.728,2.448 2.231,1.8 2.664,1.224 2.376,0.792 1.943,0.504 -4.536,2.52 -4.752,2.016 -4.393,1.656 Z" style="fill:#000000;fill-opacity:1;fill-rule:nonzero;stroke:none" id="path784"/>
  </g>
  <g id="g786" transform="matrix(1.3333330154418945, 0, 0, -1.3333330154418945, 2907.8059840837095, 261.1010409950359)">
    <path d="m 0,0 -0.576,-1.008 h -0.936 l -0.864,0.504 -0.36,0.288 L -3.384,0 -4.104,0.36 -4.752,0.432 H -5.616 L -5.76,0.288 V 0 l 2.879,-1.224 2.089,-0.72 1.008,0.432 z" style="fill:#000000;fill-opacity:1;fill-rule:nonzero;stroke:none" id="path788"/>
  </g>
  <g id="g790" transform="matrix(1.3333330154418945, 0, 0, -1.3333330154418945, 2907.4218695919562, 254.38164155539926)">
    <path d="M 0,0 0.575,-0.576 1.08,-1.08 1.584,-1.584 2.231,-1.872 2.592,-1.728 2.664,-1.512 2.088,-0.936 1.512,-0.432 0.936,0 0.288,0.576 0.071,0.36 Z" style="fill:#000000;fill-opacity:1;fill-rule:nonzero;stroke:none" id="path792"/>
  </g>
  <g id="g794" transform="matrix(1.3333330154418945, 0, 0, -1.3333330154418945, 2907.6132757963214, 253.2292980801394)">
    <path d="M 0,0 1.08,0.216 2.088,0.432 3.313,0.648 4.536,0.72 6.264,1.8 5.185,2.808 3.313,4.032 1.656,5.04 1.008,5.4 0.576,5.328 0.721,5.04 5.112,2.448 5.04,2.088 0.792,4.608 -1.728,4.824 -0.863,3.6 Z" style="fill:#000000;fill-opacity:1;fill-rule:nonzero;stroke:none" id="path796"/>
  </g>
  <g id="g798" transform="matrix(1.3333330154418945, 0, 0, -1.3333330154418945, 2909.2460879070286, 248.71692936430554)">
    <path d="m 0,0 0.216,-1.296 -1.009,-1.225 1.297,0.145 0.576,0.72 -0.217,1.008 z" style="fill:#ffffff;fill-opacity:1;fill-rule:nonzero;stroke:none" id="path800"/>
  </g>
  <g id="g802" transform="matrix(1.3333330154418945, 0, 0, -1.3333330154418945, 2913.661451437657, 251.30937666288446)">
    <path d="M 0,0 -1.728,1.08 -2.016,-0.432 Z" style="fill:#ffffff;fill-opacity:1;fill-rule:nonzero;stroke:none" id="path804"/>
  </g>
  <g id="g806" transform="matrix(1.3333330154418945, 0, 0, -1.3333330154418945, 2917.213533924107, 247.66094003273975)">
    <path d="M 0,0 -0.36,1.008 -0.937,1.944 -1.872,2.52 -2.952,2.952 H -4.248 L -5.472,3.096 -6.769,3.312 -7.92,3.816 -8.063,3.6 V 3.312 l 1.294,-1.08 1.657,-0.432 1.944,-0.288 1.729,-0.504 1.367,-1.08 z" style="fill:#000000;fill-opacity:1;fill-rule:nonzero;stroke:none" id="path808"/>
  </g>
  <g id="g810" transform="matrix(1.3333330154418945, 0, 0, -1.3333330154418945, 2955.0377436561107, 239.50143676978405)">
    <path d="M 0,0 1.296,4.68 -0.072,4.248 -1.368,3.96 h -1.44 l -1.44,0.36 -0.648,0.432 -0.648,0.432 -0.648,0.36 -0.576,0.36 L -6.84,6.12 -7.272,6.408 -9,5.688 l -2.016,-0.432 -2.016,-0.072 -2.016,0.432 -3.528,2.16 -1.08,-0.36 -1.08,-0.216 -1.08,-0.36 -1.152,-0.432 -1.8,0.216 -1.08,0.576 -1.297,0.72 -1.223,0.936 -1.08,-0.36 -1.08,-0.288 -1.008,-0.288 -1.152,-0.144 -1.152,-0.072 -1.152,0.072 -1.153,0.216 -1.079,0.432 -0.648,0.432 -0.72,0.288 h -1.584 l 2.16,-3.456 z" style="fill:#ffff83;fill-opacity:1;fill-rule:nonzero;stroke:none" id="path812"/>
  </g>
  <g id="g814" transform="matrix(1.3333330154418945, 0, 0, -1.3333330154418945, 2904.7330681496824, 225.10104957810472)">
    <path d="M 0,0 -0.432,1.44 -1.008,0.576 H -1.439 L -1.943,1.296 -2.376,1.08 -2.592,0.792 -2.088,0 l 0.217,-0.648 -0.505,0.072 -0.504,0.36 -0.432,0.432 -0.36,0.216 -0.576,0.72 -0.071,0.864 h 4.175 43.92 l -3.456,-6.696 -3.023,-0.432 -1.441,0.288 -1.511,0.288 -1.296,0.504 -0.937,0.864 0.504,0.144 0.433,0.432 v 0.216 0.216 h -0.793 l -0.575,-0.144 -0.145,1.008 -0.288,0.216 H 30.961 L 30.456,-1.296 30.24,-1.512 v -0.36 -0.288 l -1.368,0.864 -0.432,-0.216 -0.072,-0.36 0.792,-1.08 -0.431,-0.432 -0.577,-0.072 -0.576,-0.144 h -0.72 l -1.584,0.216 -1.656,0.216 -1.512,0.504 -1.152,0.792 0.937,0.576 0.215,0.288 v 0.216 l -0.215,0.288 H 21.601 L 20.16,-1.152 20.232,-0.36 20.017,0.288 19.44,0.432 19.008,0.144 18.864,-0.36 18.648,-0.648 17.209,0 17.137,-0.216 v -0.288 l 0.792,-1.152 -1.945,-0.432 -1.944,-0.072 -1.655,0.36 -1.441,0.936 0.504,0.576 0.216,0.576 L 10.801,0.432 10.08,0.216 9.937,1.224 9.648,1.368 H 9.36 L 9,0.936 8.568,0.432 7.776,1.008 7.488,0.936 7.2,0.648 7.704,0 7.776,-0.648 5.832,-1.08 4.032,-1.296 2.16,-1.152 0.505,-0.576 1.008,-0.144 1.225,0.144 1.152,0.432 1.008,0.576 Z" style="fill:#ffff83;fill-opacity:1;fill-rule:nonzero;stroke:none" id="path816"/>
  </g>
  <g id="g818" transform="matrix(1.3333330154418945, 0, 0, -1.3333330154418945, 2895.5169245136503, 250.34909043350126)">
    <path d="m 0,0 -2.016,2.232 -1.872,2.304 -1.8,2.304 -1.799,2.304 -1.584,2.376 -1.584,2.376 -1.512,2.448 -1.44,2.304 -1.296,-2.304 L -16.416,14.04 -18,11.664 -19.583,9.432 -21.384,6.984 -23.327,4.608 -25.271,2.304 -27.359,0 l 1.872,-2.232 1.727,-2.088 1.872,-2.304 1.657,-2.304 1.727,-2.376 1.656,-2.448 1.729,-2.52 1.512,-2.664 1.44,2.376 1.584,2.376 1.512,2.448 1.8,2.448 1.799,2.304 1.729,2.448 1.872,2.304 z" style="fill:#ff0000;fill-opacity:1;fill-rule:nonzero;stroke:none" id="path820"/>
  </g>
  <g id="g822" transform="matrix(1.3333330154418945, 0, 0, -1.3333330154418945, 2983.165341116634, 416.81324345367824)">
    <path d="m 0,0 -2.016,2.304 -1.872,2.232 -1.8,2.304 -1.8,2.304 -1.584,2.448 -1.584,2.304 -1.44,2.376 -1.511,2.448 -1.225,-2.304 -1.512,-2.304 L -18,11.736 -19.728,9.36 -21.384,7.056 -23.256,4.68 -25.271,2.376 -27.359,0 l 1.871,-2.16 1.8,-2.16 1.728,-2.232 1.728,-2.376 1.728,-2.304 1.656,-2.376 1.657,-2.592 1.584,-2.664 1.511,2.376 1.512,2.376 1.584,2.448 1.729,2.376 1.799,2.448 1.8,2.376 1.8,2.304 z" style="fill:#ff0000;fill-opacity:1;fill-rule:nonzero;stroke:none" id="path824"/>
  </g>
  <g id="g826" transform="matrix(1.3333330154418945, 0, 0, -1.3333330154418945, 2932.381499057782, 399.53313689649434)">
    <path d="m 0,0 -2.736,0.216 -0.504,-0.432 -0.36,-0.936 0.577,-0.936 1.223,-0.216 -0.431,0.576 -0.433,0.576 0.216,0.432 0.432,0.216 6.552,-1.944 0.144,0.504 -0.36,0.432 z" style="fill:#000000;fill-opacity:1;fill-rule:nonzero;stroke:none" id="path828"/>
  </g>
  <g id="g830" transform="matrix(1.3333330154418945, 0, 0, -1.3333330154418945, 2934.4934777209137, 406.0611301317658)">
    <path d="m 0,0 0.576,0.936 0.936,-0.072 0.792,-0.36 0.36,-0.36 0.72,-0.288 0.648,-0.288 0.72,-0.144 H 5.544 L 5.832,-0.432 5.688,-0.144 2.809,1.08 0.792,1.656 -0.216,1.44 Z" style="fill:#000000;fill-opacity:1;fill-rule:nonzero;stroke:none" id="path832"/>
  </g>
  <g id="g834" transform="matrix(1.3333330154418945, 0, 0, -1.3333330154418945, 2934.781238068973, 412.97340061916833)">
    <path d="M 0,0 -0.432,0.576 -1.008,1.08 -1.584,1.584 -2.159,2.016 -2.52,1.8 -2.592,1.512 -2.088,1.008 -1.512,0.432 -0.936,0 -0.216,-0.504 0,-0.288 Z" style="fill:#000000;fill-opacity:1;fill-rule:nonzero;stroke:none" id="path836"/>
  </g>
  <g id="g838" transform="matrix(1.3333330154418945, 0, 0, -1.3333330154418945, 2934.686186008302, 414.1250930529168)">
    <path d="m 0,0 -1.08,-0.144 -1.152,-0.216 -1.153,-0.288 -1.151,-0.072 -1.8,-1.008 1.08,-1.008 1.871,-1.296 1.656,-1.008 0.649,-0.288 h 0.359 v 0.288 l -4.535,2.736 0.144,0.288 4.248,-2.52 L 1.728,-4.824 0.72,-3.6 Z" style="fill:#000000;fill-opacity:1;fill-rule:nonzero;stroke:none" id="path840"/>
  </g>
  <g id="g842" transform="matrix(1.3333330154418945, 0, 0, -1.3333330154418945, 2932.8619676932294, 418.6368107272392)">
    <path d="M 0,0 -0.072,1.368 0.936,2.592 -0.36,2.448 -0.937,1.656 -0.864,0.72 Z" style="fill:#ffffff;fill-opacity:1;fill-rule:nonzero;stroke:none" id="path844"/>
  </g>
  <g id="g846" transform="matrix(1.3333330154418945, 0, 0, -1.3333330154418945, 2928.6380103669662, 416.04501447017174)">
    <path d="M 0,0 1.655,-1.008 2.016,0.504 Z" style="fill:#ffffff;fill-opacity:1;fill-rule:nonzero;stroke:none" id="path848"/>
  </g>
  <g id="g850" transform="matrix(1.3333330154418945, 0, 0, -1.3333330154418945, 2925.0859278805156, 419.692800058805)">
    <path d="M 0,0 0.359,-1.008 0.864,-1.8 1.872,-2.521 2.88,-2.88 4.248,-3.024 h 1.224 l 1.296,-0.289 1.08,-0.431 0.215,0.143 -0.143,0.288 -1.08,1.153 -1.872,0.431 -1.8,0.217 -1.8,0.504 L 0,0.144 V 0.072 Z" style="fill:#000000;fill-opacity:1;fill-rule:nonzero;stroke:none" id="path852"/>
  </g>
  <g id="g854" transform="matrix(1.3333330154418945, 0, 0, -1.3333330154418945, 2956.861961971183, 386.09328007476506)">
    <path d="M 0,0 0.647,-0.936 0,-2.664 Z" style="fill:#ffffff;fill-opacity:1;fill-rule:nonzero;stroke:none" id="path856"/>
  </g>
  <g id="g858" transform="matrix(1.3333330154418945, 0, 0, -1.3333330154418945, 2926.9101461955875, 333.86925281240474)">
    <path d="M 0,0 -4.896,6.84 -9.864,0 -4.896,-6.84 Z" style="fill:#ffc2c2;fill-opacity:1;fill-rule:nonzero;stroke:none" id="path860"/>
  </g>
</svg>