<?xml version="1.0" encoding="utf-8"?>
<svg viewBox="2817.0855 534.4128 208.2239 295.1039" xmlns="http://www.w3.org/2000/svg">
  <g id="g2198" transform="matrix(1.3333330154418945, 0, 0, -1.3333330154418945, 2825.0533996468007, 534.4128247907465)">
    <path d="m 0,0 h 144.288 l 2.233,-0.648 1.943,-1.8 1.296,-2.664 0.432,-3.384 v -204.408 l -0.432,-3.24 -1.296,-2.736 -1.943,-1.8 -2.233,-0.648 H 0 l -2.304,0.648 -1.872,1.8 -1.296,2.736 -0.504,3.24 V -8.496 l 0.504,3.384 1.296,2.664 1.872,1.8 z" style="fill:#000000;fill-opacity:1;fill-rule:nonzero;stroke:none" id="path2200"/>
  </g>
  <g id="g2202" transform="matrix(1.3333330154418945, 0, 0, -1.3333330154418945, 2828.1263155808274, 539.0216290304633)">
    <path d="m 0,0 h 139.68 l 2.303,-0.647 1.8,-1.728 1.296,-2.593 0.433,-3.24 V -206.28 l -0.433,-3.168 -1.296,-2.664 -1.8,-1.656 -2.303,-0.648 H 0 l -2.305,0.648 -1.799,1.656 -1.224,2.664 -0.36,3.168 V -8.208 l 0.36,3.24 1.224,2.593 1.799,1.728 z" style="fill:#ffffff;fill-opacity:1;fill-rule:nonzero;stroke:none" id="path2204"/>
  </g>
  <path d="m 2124.321,864.782 h 107.712 V 693.494 h -107.712 z" style="fill:#000000;fill-opacity:1;fill-rule:nonzero;stroke:none" id="path2206" transform="matrix(1.3333330154418945, 0, 0, -1.3333330154418945, 17.0097983033927, 1720.8630627522327)"/>
  <path d="m 2125.905,863.198 h 104.616 V 695.006 h -104.616 z" style="fill:#ffffff;fill-opacity:1;fill-rule:nonzero;stroke:none" id="path2208" transform="matrix(1.3333330154418945, 0, 0, -1.3333330154418945, 17.0097983033927, 1720.8630627522327)"/>
  <g id="g2210" transform="matrix(1.3333330154418945, 0, 0, -1.3333330154418945, 2836.574230233354, 597.1009608863933)">
    <path d="m 0,0 v -0.144 -0.144 l 0.287,-1.296 0.721,-0.936 0.935,-0.648 1.296,-0.36 1.225,0.36 1.079,0.648 0.648,0.936 0.288,1.296 L 6.191,1.008 5.543,1.944 4.464,2.592 3.239,2.952 2.664,2.88 2.016,2.664 1.584,2.376 1.008,2.16 H 0.791 L 0.647,2.376 0.575,2.592 1.728,3.744 2.159,5.328 1.871,6.552 1.224,7.632 0.216,8.28 -1.009,8.568 -2.232,8.28 -3.24,7.632 -3.96,6.552 -4.248,5.328 -4.104,4.464 -3.744,3.6 -3.168,2.952 -2.376,2.448 -2.448,2.16 H -2.664 L -2.952,2.016 -3.457,2.376 -3.96,2.592 -4.536,2.88 -5.257,2.952 -6.48,2.592 -7.416,1.944 -8.209,1.008 l -0.216,-1.296 0.216,-1.296 0.793,-0.936 0.936,-0.648 1.223,-0.36 1.297,0.36 1.008,0.648 0.647,0.936 0.361,1.296 V -0.144 0 l 0.576,-2.088 -1.008,-3.384 h 2.808 l -1.008,3.384 z" style="fill:#000000;fill-opacity:1;fill-rule:nonzero;stroke:none" id="path2212"/>
  </g>
  <g id="g2214" transform="matrix(1.3333330154418945, 0, 0, -1.3333330154418945, 3008.7981475052957, 767.7889898526446)">
    <path d="M 0,0 0.071,0.216 V 0.432 L 0.287,1.656 1.008,2.664 2.016,3.24 3.312,3.6 4.535,3.24 5.543,2.664 6.264,1.656 6.479,0.432 6.264,-0.936 5.543,-2.016 4.535,-2.664 3.312,-2.952 2.664,-2.808 2.088,-2.736 1.584,-2.448 1.08,-2.016 0.791,-2.16 0.647,-2.304 0.575,-2.592 1.8,-3.744 2.16,-5.4 1.943,-6.624 1.296,-7.632 0.287,-8.28 -0.937,-8.568 -2.16,-8.28 l -1.008,0.648 -0.721,1.008 -0.288,1.224 0.145,1.008 0.36,0.792 0.504,0.648 0.791,0.504 -0.144,0.288 -0.143,0.144 h -0.288 l -0.433,-0.432 -0.576,-0.216 -0.504,-0.144 -0.72,-0.144 -1.295,0.288 -0.936,0.648 -0.721,1.08 -0.359,1.368 0.359,1.224 0.721,1.008 0.936,0.576 1.295,0.36 1.296,-0.36 0.937,-0.576 0.72,-1.008 0.288,-1.224 V 0.216 0 l 0.647,2.16 -1.08,3.384 H 0.359 L -0.504,2.16 Z" style="fill:#000000;fill-opacity:1;fill-rule:nonzero;stroke:none" id="path2216"/>
  </g>
  <g id="g2218" transform="matrix(1.3333330154418945, 0, 0, -1.3333330154418945, 2827.0690241662387, 579.1492236299637)">
    <path d="M 0,0 V 22.176 H 2.16 V 11.304 L 9.648,22.176 H 12.24 L 6.049,12.888 12.24,0 H 10.009 L 4.536,11.016 2.16,7.632 V 0 Z" style="fill:#000000;fill-opacity:1;fill-rule:nonzero;stroke:none" id="path2220"/>
  </g>
  <g id="g2222" transform="matrix(1.3333330154418945, 0, 0, -1.3333330154418945, 3015.709604190809, 785.3567753776988)">
    <path d="m 0,0 v -22.248 h -2.232 v 10.944 L -9.648,-22.248 H -12.24 L -6.048,-12.96 -12.24,0 h 2.16 l 5.472,-11.088 2.376,3.456 V 0 Z" style="fill:#000000;fill-opacity:1;fill-rule:nonzero;stroke:none" id="path2224"/>
  </g>
  <g id="g2226" transform="matrix(1.3333330154418945, 0, 0, -1.3333330154418945, 2851.1653725878864, 720.7494502864974)">
    <path d="m 0,0 9.432,-5.76 2.232,-36 1.368,-1.224 2.232,1.08 1.584,30.384 0.216,0.288 0.36,0.288 10.368,-6.768 -0.936,-0.576 -0.864,-0.72 -0.648,-1.08 0.072,-1.368 0.36,-0.864 0.432,-0.576 0.504,-0.288 0.504,-0.36 0.288,-0.216 0.144,-0.36 0.72,-3.168 0.576,-5.328 0.72,-5.472 1.152,-4.176 -1.152,-4.104 -1.727,-4.104 -1.657,-3.24 -0.432,-1.296 h 50.4 l -2.232,2.736 -1.871,2.736 -1.513,2.952 -1.512,3.024 1.512,5.04 0.432,5.184 0.288,5.472 0.432,5.184 0.361,0.216 h 0.719 l 1.584,1.08 0.649,1.08 0.216,1.08 v 0.792 l 13.319,6.624 17.425,8.28 v 61.92 l -9.145,5.544 -1.872,35.784 -1.727,1.944 -1.945,-1.44 -1.8,-30.599 -0.216,-0.217 -0.288,-0.288 -10.511,6.696 0.935,0.576 0.936,0.792 0.576,1.08 -0.072,1.368 -0.287,0.864 -0.361,0.504 -0.504,0.36 -0.648,0.288 -0.288,0.216 -0.144,0.432 -0.576,3.168 -0.72,5.256 -0.648,5.616 -1.152,4.176 1.008,4.032 1.8,4.104 1.656,3.24 0.504,1.296 h -50.4 l 2.16,-2.736 1.872,-2.808 1.512,-2.88 1.513,-3.024 -1.513,-5.04 -0.36,-5.184 L 35.137,86.04 34.632,80.856 34.2,80.784 33.624,80.568 31.896,79.488 31.32,78.48 31.032,77.4 V 76.608 L 17.784,69.912 0,61.848 Z" style="fill:#000000;fill-opacity:1;fill-rule:nonzero;stroke:none" id="path2228"/>
  </g>
  <g id="g2230" transform="matrix(1.3333330154418945, 0, 0, -1.3333330154418945, 2878.1419286561727, 598.732959195211)">
    <path d="M 0,0 0.072,-0.36 V -0.72 L 0.576,-3.456 2.16,-5.76 4.464,-7.272 7.199,-7.848 9.936,-7.272 12.24,-5.76 13.752,-3.456 14.328,-0.72 13.752,2.088 12.24,4.176 9.936,5.76 7.199,6.264 H 5.832 L 4.535,5.832 3.456,5.256 2.448,4.536 1.872,4.68 1.367,5.112 1.296,5.688 l 1.44,1.08 1.224,1.44 0.575,1.656 0.289,1.872 -0.504,2.808 -1.584,2.16 -2.16,1.584 -2.808,0.504 L -4.896,18.288 -7.2,16.704 -8.784,14.544 -9.288,11.736 -9.072,9.648 -8.208,7.992 -6.984,6.48 -5.328,5.4 -5.688,4.752 -5.977,4.608 -6.48,4.392 -7.561,5.184 -8.784,5.76 l -1.296,0.432 -1.441,0.072 -2.735,-0.504 -2.305,-1.584 -1.584,-2.088 -0.503,-2.808 0.503,-2.736 1.584,-2.304 2.305,-1.512 2.735,-0.576 2.737,0.576 2.304,1.512 1.584,2.304 0.503,2.736 V -0.36 0 l 1.008,-1.44 0.217,-3.24 -0.648,-3.96 -1.512,-3.456 h 6.192 l -1.585,3.456 -0.575,3.96 0.288,3.24 z" style="fill:#000000;fill-opacity:1;fill-rule:nonzero;stroke:none" id="path2232"/>
  </g>
  <g id="g2234" transform="matrix(1.3333330154418945, 0, 0, -1.3333330154418945, 2870.6536491915185, 775.2772693172992)">
    <path d="M 0,0 2.231,57.096 1.512,57.24 0.647,56.952 -0.36,56.52 -1.008,56.016 -1.368,52.2 l 0.216,-3.744 0.216,-3.672 -0.216,-3.888 -0.792,-4.464 -0.504,-4.896 -0.216,-4.752 0.576,-4.68 0.72,-6.12 -0.288,-5.832 -0.216,-5.76 0.576,-5.688 0.863,0.432 z" style="fill:#ffffff;fill-opacity:1;fill-rule:nonzero;stroke:none" id="path2236"/>
  </g>
  <g id="g2238" transform="matrix(1.3333330154418945, 0, 0, -1.3333330154418945, 2884.0937501538147, 696.1732028907246)">
    <path d="m 0,0 -0.504,0.504 -0.72,0.36 -0.792,0.144 -0.864,0.072 h -17.208 l 0.144,1.44 -0.72,1.008 -0.792,0.288 h -0.936 l -0.72,-0.36 -0.576,-0.36 -0.577,-1.224 0.145,-1.008 0.504,-0.864 1.008,-0.648 h 1.44 1.44 1.512 l 1.512,-0.072 1.439,-0.288 1.369,-0.288 1.224,-0.72 1.008,-0.936 1.512,1.296 2.016,0.648 2.16,0.144 2.016,0.216 -0.144,-1.296 0.72,-0.792 1.008,-0.576 1.008,-0.072 0.935,0.432 0.721,0.864 0.072,0.936 z" style="fill:#ffff80;fill-opacity:1;fill-rule:nonzero;stroke:none" id="path2240"/>
  </g>
  <g id="g2242" transform="matrix(1.3333330154418945, 0, 0, -1.3333330154418945, 2885.917968468887, 685.3255492270073)">
    <path d="m 0,0 -2.376,0.72 -2.304,0.864 -2.089,1.08 -1.584,1.729 -2.303,3.599 -5.832,-3.888 5.976,-0.72 1.079,-1.656 0.216,-2.664 -0.359,-2.231 -1.225,-1.513 -4.895,-0.576 1.368,-0.72 h 1.296 l 2.088,-0.072 h 2.088 l 1.007,0.072 z" style="fill:#ffffff;fill-opacity:1;fill-rule:nonzero;stroke:none" id="path2244"/>
  </g>
  <g id="g2246" transform="matrix(1.3333330154418945, 0, 0, -1.3333330154418945, 2921.628897454736, 692.2370059125205)">
    <path d="M 0,0 0.504,0.144 0.864,0.36 1.152,1.224 0.864,2.304 1.513,2.664 2.305,2.88 2.377,3.096 2.593,3.384 2.377,4.392 1.729,4.896 0.864,4.968 0.576,5.904 0.864,6.912 1.368,7.128 1.729,7.344 H 2.305 2.809 L 3.024,6.696 V 5.832 L 3.601,5.4 H 4.393 L 4.896,5.544 5.185,5.832 5.761,6.84 6.336,6.768 6.841,6.696 7.488,6.768 7.849,7.128 7.92,7.488 7.992,7.776 7.561,8.424 6.841,8.928 6.265,8.784 5.473,8.568 5.041,9.72 4.537,10.08 3.889,10.224 3.601,10.152 3.385,9.936 3.024,9.072 2.809,8.064 2.377,7.848 1.873,7.92 1.368,8.064 0.864,8.424 0.576,9.144 v 1.008 l 1.297,0.288 0.432,0.432 0.288,0.576 v 0.216 0.216 l -0.504,0.432 -0.721,0.432 v 1.872 L 0.864,15.192 0,15.408 -0.359,15.048 -0.72,14.328 -0.432,13.248 -0.504,13.032 -0.72,12.744 -1.8,12.312 -2.088,11.448 -1.8,10.584 -1.08,10.368 -0.432,10.152 -0.287,9.792 -0.216,9.144 -0.432,8.64 -0.791,8.28 -1.367,8.064 -2.088,7.92 -2.592,8.568 -2.808,9.72 -2.951,9.936 -3.096,10.08 -3.815,10.152 -4.535,10.08 -4.751,9.576 -5.039,8.928 -5.543,8.784 -6.191,9.072 -6.768,8.784 -7.271,8.064 v -0.36 -0.36 l 0.503,-0.216 0.432,-0.144 h 0.576 l 0.504,0.072 0.36,-0.36 0.216,-0.864 0.576,-0.288 h 0.72 l 0.505,0.36 0.287,0.792 v 0.288 l -0.216,0.36 0.216,0.144 0.288,0.216 L -1.728,7.632 -1.08,7.488 -0.72,7.128 -0.432,6.696 -0.287,5.904 -0.216,5.256 -0.72,4.896 -1.512,5.04 -1.871,4.608 -2.159,3.888 V 3.672 3.384 l 0.504,-0.36 0.719,-0.36 0.216,-0.792 V 0.864 l 0.288,-0.432 z" style="fill:#ffffff;fill-opacity:1;fill-rule:nonzero;stroke:none" id="path2248"/>
  </g>
  <g id="g2250" transform="matrix(1.3333330154418945, 0, 0, -1.3333330154418945, 2863.165369726864, 691.6614038362133)">
    <path d="M 0,0 5.04,0.792 5.256,1.08 5.04,1.44 0,1.224 -0.288,0.792 -0.359,0 h 0.143 z" style="fill:#ffffff;fill-opacity:1;fill-rule:nonzero;stroke:none" id="path2252"/>
  </g>
  <g id="g2254" transform="matrix(1.3333330154418945, 0, 0, -1.3333330154418945, 2863.165369726864, 688.4929475603823)">
    <path d="M 0,0 H 4.608 L 5.04,0.504 V 1.296 L 0,1.368 -0.216,0.72 Z" style="fill:#ffffff;fill-opacity:1;fill-rule:nonzero;stroke:none" id="path2256"/>
  </g>
  <g id="g2258" transform="matrix(1.3333330154418945, 0, 0, -1.3333330154418945, 2870.4622429871533, 688.2050244519451)">
    <path d="M 0,0 0.863,0.072 0.936,0.36 V 0.936 L 0.071,1.08 0,0.504 Z" style="fill:#ffffff;fill-opacity:1;fill-rule:nonzero;stroke:none" id="path2260"/>
  </g>
  <g id="g2262" transform="matrix(1.3333330154418945, 0, 0, -1.3333330154418945, 2870.557295047824, 690.6049262235139)">
    <path d="M 0,0 H 0.576 V 0.144 0.576 L 0,0.648 v -0.36 z" style="fill:#ffffff;fill-opacity:1;fill-rule:nonzero;stroke:none" id="path2264"/>
  </g>
  <g id="g2266" transform="matrix(1.3333330154418945, 0, 0, -1.3333330154418945, 2870.557295047824, 685.7090126772491)">
    <path d="m 0,0 0.864,0.072 0.145,0.216 v 0.72 L 0.072,1.08 0,0.504 Z" style="fill:#ffffff;fill-opacity:1;fill-rule:nonzero;stroke:none" id="path2268"/>
  </g>
  <g id="g2270" transform="matrix(1.3333330154418945, 0, 0, -1.3333330154418945, 2870.6536491915185, 683.021594698188)">
    <path d="M 0,0 H 0.792 L 0.937,0.216 0.792,0.792 H 0 l -0.072,-0.36 z" style="fill:#ffffff;fill-opacity:1;fill-rule:nonzero;stroke:none" id="path2272"/>
  </g>
  <g id="g2274" transform="matrix(1.3333330154418945, 0, 0, -1.3333330154418945, 2973.6614371325422, 680.5247691216027)">
    <path d="M 0,0 -0.792,-0.144 -0.936,-0.289 -0.792,-0.864 0,-0.937 0.072,-0.504 Z" style="fill:#ffffff;fill-opacity:1;fill-rule:nonzero;stroke:none" id="path2276"/>
  </g>
  <g id="g2278" transform="matrix(1.3333330154418945, 0, 0, -1.3333330154418945, 2863.165369726864, 685.6133095750665)">
    <path d="M 0,0 H 5.184 L 5.04,1.008 0,1.368 -0.288,0.864 -0.359,0.072 h 0.143 z" style="fill:#ffffff;fill-opacity:1;fill-rule:nonzero;stroke:none" id="path2280"/>
  </g>
  <g id="g2282" transform="matrix(1.3333330154418945, 0, 0, -1.3333330154418945, 2863.165369726864, 682.7330205482393)">
    <path d="m 0,0 5.184,-0.216 0.072,0.432 v 0.36 L 0,0.936 -0.359,0.576 v -0.36 l 0.143,-0.072 z" style="fill:#ffffff;fill-opacity:1;fill-rule:nonzero;stroke:none" id="path2284"/>
  </g>
  <g id="g2286" transform="matrix(1.3333330154418945, 0, 0, -1.3333330154418945, 2919.2291584435447, 669.3892737296375)">
    <path d="m 0,0 -0.792,4.176 -1.08,4.032 -1.224,4.105 -1.44,3.959 -1.655,3.888 -1.657,3.816 -1.799,3.744 -1.873,3.6 h -0.215 -0.433 l 0.648,-1.512 0.72,-1.368 0.721,-1.512 0.647,-1.656 2.592,-5.904 2.376,-6.336 L -2.448,6.624 -0.792,0.216 -1.008,0 h -0.288 l -1.08,1.656 -1.08,1.728 -1.008,1.872 -1.08,1.728 -2.447,3.816 -2.952,3.888 -3.313,3.672 -3.744,3.528 -4.104,2.952 -4.391,2.304 -4.681,1.656 -5.04,0.648 -2.304,-1.008 3.384,-0.36 3.025,-0.504 2.735,-0.648 2.521,-1.08 2.303,-1.152 2.448,-1.512 2.592,-2.016 2.88,-2.304 2.305,-2.232 2.015,-2.304 1.873,-2.304 1.727,-2.376 1.656,-2.52 1.584,-2.448 1.729,-2.592 1.871,-2.88 0.36,0.144 0.288,0.072 0.432,0.288 z" style="fill:#ffff80;fill-opacity:1;fill-rule:nonzero;stroke:none" id="path2288"/>
  </g>
  <g id="g2290" transform="matrix(1.3333330154418945, 0, 0, -1.3333330154418945, 2924.7018133887623, 626.8605566557344)">
    <path d="m 0,0 -0.937,0.936 -0.792,1.151 -0.576,1.297 -0.287,1.584 0.216,0.36 0.36,0.144 L -1.44,3.888 -0.721,2.448 0.288,1.296 1.8,0.648 H 2.447 3.023 3.6 4.176 L 1.512,1.296 0.647,2.087 -0.216,3.24 -0.792,4.392 v 1.44 0.144 h 0.36 L 0.144,4.608 0.792,3.384 1.872,2.375 3.384,2.016 4.031,1.943 H 4.536 L 5.04,2.016 5.544,2.087 6.768,3.384 7.271,4.68 6.768,6.12 5.544,6.912 H 3.96 L 3.24,6.12 3.168,4.968 3.672,4.68 4.176,4.608 4.752,4.68 5.256,4.896 5.472,4.68 V 4.463 L 5.328,4.104 5.04,3.744 4.464,3.6 3.96,3.528 3.456,3.671 2.808,3.888 2.16,4.896 2.088,6.12 2.592,6.912 3.24,7.488 4.031,7.848 5.04,7.992 5.76,7.704 6.12,7.992 5.544,13.536 5.615,19.512 5.184,25.128 2.808,30.168 H -16.2 l 0.288,-8.064 -0.144,-1.008 -0.216,-3.888 0.216,-4.032 -0.36,-3.888 -1.584,-3.456 -0.504,-0.36 -0.36,-0.217 -1.152,-0.143 -1.08,0.504 -0.144,0.36 0.144,0.576 1.08,-0.432 1.295,0.288 0.361,1.872 -0.865,0.936 -2.088,0.288 -1.367,-0.864 -0.576,-1.584 0.432,-1.801 0.648,-0.863 1.008,-0.432 1.152,-0.072 h 1.152 l 0.936,0.216 0.72,0.359 0.576,0.649 0.432,0.504 0.432,0.575 0.432,0.865 h 0.288 l 0.216,-0.144 -0.145,-0.936 -0.431,-0.864 -0.648,-0.72 -0.648,-0.648 -0.649,-0.504 -0.792,-0.216 -0.719,-0.289 -0.792,-0.287 1.152,-0.144 1.151,0.216 1.297,0.504 1.008,0.576 0.504,0.72 0.432,0.576 0.288,0.576 0.431,0.504 h 0.145 l 0.288,-0.144 -2.088,-3.745 -1.656,-0.863 1.44,0.216 1.44,0.647 1.08,0.937 0.864,1.152 0.216,0.504 0.432,0.432 h 0.288 l 0.143,-0.144 -2.088,-3.672 h 0.433 l 0.432,0.144 1.656,1.08 1.296,1.943 0.216,0.145 0.36,-0.145 L -8.568,3.528 -9.072,2.52 -7.056,3.528 -5.977,2.52 -6.192,3.888 -5.977,4.104 -5.616,4.176 -3.313,0.72 -4.32,4.176 -4.104,4.32 h 0.288 L -3.24,3.024 -2.448,1.728 -1.44,0.648 0,-0.145 Z" style="fill:#ffffff;fill-opacity:1;fill-rule:nonzero;stroke:none" id="path2292"/>
  </g>
  <g id="g2294" transform="matrix(1.3333330154418945, 0, 0, -1.3333330154418945, 2942.8450382297456, 621.293093790413)">
    <path d="M 0,0 0.288,1.08 0.145,2.232 -0.432,2.952 -1.728,3.528 -2.375,3.312 -2.88,2.952 -3.312,2.448 -3.6,1.944 -3.815,2.016 -3.96,2.448 l -0.575,9.648 -0.576,9.648 -0.577,2.16 -0.864,1.8 -0.792,0.288 h -0.792 l 0.937,-4.896 0.359,-5.04 V 10.872 5.616 l 0.288,-1.728 0.433,-1.44 0.791,-1.296 1.08,-1.152 1.009,-0.792 1.079,-0.144 1.009,0.144 z" style="fill:#ffffff;fill-opacity:1;fill-rule:nonzero;stroke:none" id="path2296"/>
  </g>
  <g id="g2298" transform="matrix(1.3333330154418945, 0, 0, -1.3333330154418945, 2945.3411313846304, 621.1009551643475)">
    <path d="M 0,0 0.937,0.936 1.009,2.448 0.792,3.024 0.505,3.384 0.145,3.672 -0.216,3.96 -0.575,3.744 -0.936,3.6 -0.216,1.872 V 0 h 0.145 z" style="fill:#ffffff;fill-opacity:1;fill-rule:nonzero;stroke:none" id="path2300"/>
  </g>
  <g id="g2302" transform="matrix(1.3333330154418945, 0, 0, -1.3333330154418945, 2949.085922158469, 620.0449658327817)">
    <path d="M 0,0 0.071,0.144 0.216,0.288 1.08,2.088 0.864,2.88 0.216,3.528 -1.656,3.744 -0.576,2.088 -0.288,0 h 0.216 z" style="fill:#ffffff;fill-opacity:1;fill-rule:nonzero;stroke:none" id="path2304"/>
  </g>
  <g id="g2306" transform="matrix(1.3333330154418945, 0, 0, -1.3333330154418945, 2952.3502442968606, 619.3730909929691)">
    <path d="M 0,0 0.936,0.792 1.439,2.088 1.008,2.952 0.863,3.456 -0.36,4.464 -0.864,4.248 -1.368,3.96 -0.36,2.232 -0.289,0 h 0.217 z" style="fill:#ffffff;fill-opacity:1;fill-rule:nonzero;stroke:none" id="path2308"/>
  </g>
  <g id="g2310" transform="matrix(1.3333330154418945, 0, 0, -1.3333330154418945, 2914.238274216798, 618.7012161531565)">
    <path d="M 0,0 2.951,0.288 0.071,0.432 -1.225,0.648 V 0.504 0.288 Z" style="fill:#000000;fill-opacity:1;fill-rule:nonzero;stroke:none" id="path2312"/>
  </g>
  <g id="g2314" transform="matrix(1.3333330154418945, 0, 0, -1.3333330154418945, 2925.949208924693, 614.7650191749527)">
    <path d="M 0,0 0.648,0.936 0.721,2.16 0.36,2.592 -0.359,2.664 -0.936,2.52 -1.367,1.728 -0.863,2.016 -0.432,2.376 0.36,1.656 0,0.504 -1.728,0.144 -3.24,0.72 -4.752,1.512 -6.336,1.8 -6.552,1.728 -6.624,1.368 -6.552,1.08 l 0.145,-0.288 1.511,-1.008 1.945,-0.216 1.871,0.216 z" style="fill:#000000;fill-opacity:1;fill-rule:nonzero;stroke:none" id="path2316"/>
  </g>
  <g id="g2318" transform="matrix(1.3333330154418945, 0, 0, -1.3333330154418945, 2910.973952078407, 614.4770960665155)">
    <path d="m 0,0 0.359,-0.432 0.073,-0.36 1.152,0.216 0.936,-0.216 H 3.743 L 6.479,-1.224 6.768,-0.648 7.2,-2.664 6.983,-2.808 6.336,-1.872 5.544,-1.584 3.888,-1.44 H 1.943 l -1.439,-0.144 -0.288,-0.72 -0.504,-0.36 z" style="fill:#000000;fill-opacity:1;fill-rule:nonzero;stroke:none" id="path2320"/>
  </g>
  <g id="g2322" transform="matrix(1.3333330154418945, 0, 0, -1.3333330154418945, 2911.933587266278, 613.8048143257583)">
    <path d="M 0,0 0.504,0.648 0.288,1.44 -0.792,1.151 -2.304,0.576 -3.744,0 h -1.44 l -0.504,0.359 v 0.936 l 0.504,0.361 h 0.648 L -3.96,1.295 -3.744,0.936 -3.96,1.8 -4.248,2.087 -4.752,2.16 -5.472,2.087 -6.12,1.151 l 0.143,-1.079 0.649,-0.792 0.935,-0.217 0.937,-0.143 1.08,0.143 0.576,0.145 0.792,0.216 0.504,0.288 z" style="fill:#000000;fill-opacity:1;fill-rule:nonzero;stroke:none" id="path2324"/>
  </g>
  <g id="g2326" transform="matrix(1.3333330154418945, 0, 0, -1.3333330154418945, 2957.725243015361, 614.572961929076)">
    <path d="M 0,0 -0.576,1.152 -1.367,1.728 -2.736,1.368 -1.584,-0.36 -1.8,-2.448 -1.008,-2.232 -0.288,-1.8 0,-1.152 Z" style="fill:#ffffff;fill-opacity:1;fill-rule:nonzero;stroke:none" id="path2328"/>
  </g>
  <g id="g2330" transform="matrix(1.3333330154418945, 0, 0, -1.3333330154418945, 2939.5820181743775, 615.8210898867073)">
    <path d="M 0,0 2.231,0.288 1.296,4.608 1.08,9.072 v 4.464 l -0.433,4.392 -0.575,2.088 -0.72,1.656 -0.504,0.216 H -1.656 -2.16 -2.736 l 1.368,-3.96 0.36,-4.32 V 9.216 L -1.152,4.896 -0.792,2.232 -0.145,0 Z" style="fill:#ffffff;fill-opacity:1;fill-rule:nonzero;stroke:none" id="path2332"/>
  </g>
  <g id="g2334" transform="matrix(1.3333330154418945, 0, 0, -1.3333330154418945, 2901.2773398069266, 614.572961929076)">
    <path d="m 0,0 0.216,19.44 -1.368,-4.176 -0.287,-4.68 0.143,-4.752 -0.576,-4.464 1.009,3.168 v 3.168 l -0.217,3.24 0.648,3.24 L 0.072,7.128 -0.216,0 h 0.144 z" style="fill:#ffffff;fill-opacity:1;fill-rule:nonzero;stroke:none" id="path2336"/>
  </g>
  <g id="g2338" transform="matrix(1.3333330154418945, 0, 0, -1.3333330154418945, 2944.669256544818, 615.0534305645233)">
    <path d="M 0,0 1.513,0.937 -0.144,18.864 0,19.008 0.288,18.864 1.44,14.616 1.8,10.368 2.16,5.976 2.736,1.584 4.248,1.729 3.097,17.496 3.24,17.568 3.528,17.64 5.977,2.088 6.984,2.52 6.408,7.2 l -0.143,4.968 -0.577,4.68 -1.8,4.248 -0.504,0.217 H 2.736 L 3.24,18.864 3.024,18.72 2.736,18.864 1.296,21.096 1.009,21.313 H 0.648 0.145 -0.288 l -0.072,-0.577 -0.432,-0.288 -0.359,0.144 -0.217,0.504 -0.432,0.217 h -0.431 -0.504 -0.577 l 1.224,-4.681 0.504,-4.968 0.216,-5.04 0.36,-4.895 L -0.647,0.72 -0.288,0 h 0.144 z" style="fill:#ffffff;fill-opacity:1;fill-rule:nonzero;stroke:none" id="path2340"/>
  </g>
  <g id="g2342" transform="matrix(1.3333330154418945, 0, 0, -1.3333330154418945, 2914.910149056611, 610.0610814943756)">
    <path d="m 0,0 -2.448,1.368 0.792,2.376 1.152,2.376 0.863,2.52 -0.215,2.592 -0.72,1.944 -0.649,1.944 -0.143,0.072 -0.288,0.072 -1.368,-0.648 -1.728,0.072 h -1.873 l -1.439,-0.936 -0.289,-0.504 -0.143,-0.36 0.432,0.432 0.431,0.288 0.433,0.072 0.575,0.072 1.297,-0.144 1.296,-0.216 1.296,-0.144 1.368,0.144 0.504,-1.08 0.647,-1.44 0.145,-1.368 -0.145,-1.152 -0.935,-2.16 -1.008,-2.16 -0.864,-1.8 -0.216,-1.08 2.736,-1.728 0.287,-0.936 0.361,0.648 z" style="fill:#000000;fill-opacity:1;fill-rule:nonzero;stroke:none" id="path2344"/>
  </g>
  <g id="g2346" transform="matrix(1.3333330154418945, 0, 0, -1.3333330154418945, 2918.5572836037327, 609.9656225327598)">
    <path d="M 0,0 H 0.145 L 0.504,0.216 1.009,0.576 1.368,1.368 1.224,1.656 1.009,2.016 0.792,1.656 V 1.081 L 0.576,0.792 0.145,0.504 -0.36,0.864 -1.008,1.296 -1.655,1.512 -2.447,1.584 -2.664,1.296 -2.447,1.008 Z" style="fill:#000000;fill-opacity:1;fill-rule:nonzero;stroke:none" id="path2348"/>
  </g>
  <g id="g2350" transform="matrix(1.3333330154418945, 0, 0, -1.3333330154418945, 2929.6939996985316, 593.1654963298897)">
    <path d="m 0,0 v 0.144 0.072 l -0.36,0.721 -0.648,0.719 -0.864,0.432 -1.152,0.36 -1.728,-0.144 -1.656,-0.288 -1.656,0.072 -1.369,0.72 0.505,-1.224 1.079,-0.792 2.017,-0.144 2.088,0.289 h 2.088 z" style="fill:#000000;fill-opacity:1;fill-rule:nonzero;stroke:none" id="path2352"/>
  </g>
  <g id="g2354" transform="matrix(1.3333330154418945, 0, 0, -1.3333330154418945, 2899.549475635548, 578.7650277580215)">
    <path d="M 0,0 H 39.96 L 40.608,1.728 38.664,1.368 36.792,1.44 34.992,2.232 33.265,3.528 31.393,2.232 29.664,1.44 28.224,1.296 26.784,1.44 25.632,2.016 24.408,2.52 23.328,3.312 22.32,3.888 20.304,2.448 18.576,1.728 17.136,1.44 15.84,1.656 14.76,2.016 13.752,2.664 12.888,3.168 12.024,3.744 10.512,2.376 9.072,1.44 7.92,1.152 H 6.552 L 5.544,1.44 4.536,2.016 3.601,2.736 2.664,3.528 1.728,2.952 0.72,2.376 -0.36,2.16 -1.368,2.448 Z" style="fill:#ffc0c0;fill-opacity:1;fill-rule:nonzero;stroke:none" id="path2356"/>
  </g>
  <g id="g2358" transform="matrix(1.3333330154418945, 0, 0, -1.3333330154418945, 2930.3658745383445, 597.7734867677173)">
    <path d="M 0,0 -0.792,1.152 -2.664,2.304 -5.256,2.448 -8.353,0.792 -8.568,0.504 -8.712,0.216 l 1.151,-0.576 1.008,-0.432 1.08,-0.288 h 1.009 1.008 l 1.08,0.288 1.151,0.288 z" style="fill:#000000;fill-opacity:1;fill-rule:nonzero;stroke:none" id="path2360"/>
  </g>
  <g id="g2362" transform="matrix(1.3333330154418945, 0, 0, -1.3333330154418945, 2926.9101461955875, 596.0449715548276)">
    <path d="m 0,0 -0.36,0.072 -0.216,0.144 -0.576,-0.936 -0.936,-0.288 -1.009,0.432 -0.36,0.648 -0.647,-0.36 0.719,-1.08 1.297,-0.432 1.367,0.432 z" style="fill:#ffffff;fill-opacity:1;fill-rule:nonzero;stroke:none" id="path2364"/>
  </g>
  <g id="g2366" transform="matrix(1.3333330154418945, 0, 0, -1.3333330154418945, 2926.621083764506, 598.156950217959)">
    <path d="M 0,0 0.648,0.144 1.152,0.216 1.584,0.36 2.017,0.576 0.648,1.584 0.505,0.792 Z" style="fill:#ffffff;fill-opacity:1;fill-rule:nonzero;stroke:none" id="path2368"/>
  </g>
  <g id="g2370" transform="matrix(1.3333330154418945, 0, 0, -1.3333330154418945, 2921.533845394065, 597.9656253937828)">
    <path d="m 0,0 -1.152,0.576 0.648,0.432 z" style="fill:#ffffff;fill-opacity:1;fill-rule:nonzero;stroke:none" id="path2372"/>
  </g>
  <g id="g2374" transform="matrix(1.3333330154418945, 0, 0, -1.3333330154418945, 2923.9335844052557, 593.6452325436366)">
    <path d="M 0,0 H 1.512 L 3.023,-0.432 4.176,-1.296 5.04,-2.376 V -2.592 -2.808 L 3.816,-1.44 2.448,-0.648 1.08,-0.216 H -0.216 L 0,-0.144 Z" style="fill:#000000;fill-opacity:1;fill-rule:nonzero;stroke:none" id="path2376"/>
  </g>
  <g id="g2378" transform="matrix(1.3333330154418945, 0, 0, -1.3333330154418945, 2903.294266409387, 597.3892095155862)">
    <path d="M 0,0 0.792,1.08 2.447,2.16 4.823,2.376 7.775,0.72 7.991,0.504 8.063,0.288 5.976,-0.648 4.104,-1.008 2.087,-0.648 Z" style="fill:#000000;fill-opacity:1;fill-rule:nonzero;stroke:none" id="path2380"/>
  </g>
  <g id="g2382" transform="matrix(1.3333330154418945, 0, 0, -1.3333330154418945, 2906.36588026039, 595.6606943026964)">
    <path d="m 0,0 h 0.359 l 0.145,0.072 0.576,-0.648 0.792,-0.432 0.936,0.432 0.36,0.648 0.647,-0.36 -0.647,-1.008 -1.296,-0.36 -1.152,0.36 z" style="fill:#ffffff;fill-opacity:1;fill-rule:nonzero;stroke:none" id="path2384"/>
  </g>
  <g id="g2386" transform="matrix(1.3333330154418945, 0, 0, -1.3333330154418945, 2906.6536406084497, 597.6772140042121)">
    <path d="m 0,0 -0.433,0.144 -0.503,0.072 -0.432,0.072 -0.36,0.216 1.152,1.008 0.143,-0.792 z" style="fill:#ffffff;fill-opacity:1;fill-rule:nonzero;stroke:none" id="path2388"/>
  </g>
  <g id="g2390" transform="matrix(1.3333330154418945, 0, 0, -1.3333330154418945, 2911.261712426466, 597.4850753781466)">
    <path d="M 0,0 0.792,0.144 1.224,0.504 0.576,0.936 Z" style="fill:#ffffff;fill-opacity:1;fill-rule:nonzero;stroke:none" id="path2392"/>
  </g>
  <g id="g2394" transform="matrix(1.3333330154418945, 0, 0, -1.3333330154418945, 2909.0533796196405, 593.6452325436366)">
    <path d="M 0,0 H -1.296 L -2.592,-0.432 -3.744,-1.08 -4.536,-2.088 v -0.216 -0.072 l 1.009,1.152 1.295,0.792 1.44,0.288 L 0.216,-0.216 0.145,0 Z" style="fill:#000000;fill-opacity:1;fill-rule:nonzero;stroke:none" id="path2396"/>
  </g>
  <g id="g2398" transform="matrix(1.3333330154418945, 0, 0, -1.3333330154418945, 2966.173157667887, 764.6211846183252)">
    <path d="m 0,0 -0.072,0.144 v 0.36 l -0.503,2.808 -1.584,2.304 -2.305,1.512 -2.735,0.504 -2.809,-0.504 -2.232,-1.512 -1.512,-2.304 -0.576,-2.808 0.576,-2.736 1.512,-2.16 2.232,-1.584 2.809,-0.648 1.367,0.144 1.297,0.36 1.079,0.648 1.009,0.792 0.576,-0.144 0.432,-0.36 0.143,-0.648 -1.439,-1.08 -1.225,-1.512 -0.575,-1.656 -0.289,-1.8 0.505,-2.736 1.584,-2.232 2.16,-1.512 2.807,-0.576 2.737,0.576 2.231,1.512 1.584,2.232 0.504,2.736 -0.216,2.016 -0.864,1.8 -1.224,1.44 -1.656,1.152 0.288,0.576 0.361,0.216 0.503,0.072 1.081,-0.72 1.223,-0.648 1.296,-0.432 1.441,-0.216 2.735,0.648 2.305,1.584 L 18,-2.232 18.648,0.504 18,3.312 16.561,5.616 14.256,7.128 11.521,7.632 8.784,7.128 6.48,5.616 4.969,3.312 4.393,0.504 V 0.144 0 l -1.008,1.296 -0.289,3.312 0.648,3.816 1.584,3.6 H -0.863 L 0.648,8.424 1.297,4.464 1.008,1.296 Z" style="fill:#000000;fill-opacity:1;fill-rule:nonzero;stroke:none" id="path2400"/>
  </g>
  <g id="g2402" transform="matrix(1.3333330154418945, 0, 0, -1.3333330154418945, 2973.6614371325422, 588.0773627773707)">
    <path d="m 0,0 -2.231,-57.24 0.719,-0.072 0.865,0.288 1.007,0.432 0.648,0.432 0.36,3.816 -0.216,3.744 -0.144,3.745 0.288,3.815 0.648,4.393 0.577,4.896 0.143,4.896 -0.576,4.679 -0.648,6.049 0.216,5.832 0.216,5.831 L 1.296,1.152 0.433,0.864 Z" style="fill:#ffffff;fill-opacity:1;fill-rule:nonzero;stroke:none" id="path2404"/>
  </g>
  <g id="g2406" transform="matrix(1.3333330154418945, 0, 0, -1.3333330154418945, 2960.221336170246, 667.3730795488773)">
    <path d="m 0,0 0.504,-0.432 0.72,-0.36 0.793,-0.144 0.863,-0.216 h 17.208 l -0.216,-1.296 0.792,-1.08 0.792,-0.288 h 0.936 l 0.72,0.36 0.576,0.432 0.577,1.224 -0.073,1.008 L 23.616,0 22.608,0.576 21.168,0.648 19.729,0.72 H 18.216 L 16.704,0.792 15.265,1.08 13.968,1.368 12.672,2.016 11.664,3.024 10.08,1.656 8.136,1.08 6.048,0.864 3.96,0.72 4.104,1.872 3.384,2.808 2.376,3.312 1.368,3.384 0.433,3.024 -0.216,2.232 -0.36,1.152 Z" style="fill:#ffff80;fill-opacity:1;fill-rule:nonzero;stroke:none" id="path2408"/>
  </g>
  <g id="g2410" transform="matrix(1.3333330154418945, 0, 0, -1.3333330154418945, 2958.3971178551737, 678.125030110412)">
    <path d="m 0,0 2.376,-0.648 2.305,-0.936 2.088,-1.224 1.584,-1.584 2.16,-3.672 5.975,3.96 -5.975,0.648 -1.08,1.728 -0.073,2.592 0.216,2.304 1.225,1.44 4.895,0.648 L 14.4,5.904 H 13.032 L 10.944,5.976 H 8.856 L 7.849,5.904 Z" style="fill:#ffffff;fill-opacity:1;fill-rule:nonzero;stroke:none" id="path2412"/>
  </g>
  <g id="g2414" transform="matrix(1.3333330154418945, 0, 0, -1.3333330154418945, 2981.1497165971964, 671.7890127408282)">
    <path d="M 0,0 -5.112,-0.792 -5.184,-1.08 -5.04,-1.44 0,-1.296 0.216,-0.72 0.288,0 H 0.216 Z" style="fill:#ffffff;fill-opacity:1;fill-rule:nonzero;stroke:none" id="path2416"/>
  </g>
  <g id="g2418" transform="matrix(1.3333330154418945, 0, 0, -1.3333330154418945, 2981.1497165971964, 674.9570621157146)">
    <path d="M 0,0 H -4.608 L -5.112,-0.504 -5.04,-1.296 0,-1.44 0.216,-0.72 Z" style="fill:#ffffff;fill-opacity:1;fill-rule:nonzero;stroke:none" id="path2420"/>
  </g>
  <g id="g2422" transform="matrix(1.3333330154418945, 0, 0, -1.3333330154418945, 2973.8528433369074, 675.2447410835848)">
    <path d="M 0,0 H -0.863 L -1.079,-0.288 -0.936,-0.937 -0.071,-1.08 0,-0.504 Z" style="fill:#ffffff;fill-opacity:1;fill-rule:nonzero;stroke:none" id="path2424"/>
  </g>
  <g id="g2426" transform="matrix(1.3333330154418945, 0, 0, -1.3333330154418945, 2973.757791276236, 672.845083452583)">
    <path d="m 0,0 h -0.504 l -0.072,-0.216 v -0.36 L -0.072,-0.72 0,-0.288 Z" style="fill:#ffffff;fill-opacity:1;fill-rule:nonzero;stroke:none" id="path2428"/>
  </g>
  <g id="g2430" transform="matrix(1.3333330154418945, 0, 0, -1.3333330154418945, 2973.6614371325422, 677.7409156186586)">
    <path d="M 0,0 -0.936,-0.144 V -0.288 -0.936 L 0,-1.152 0.072,-0.648 Z" style="fill:#ffffff;fill-opacity:1;fill-rule:nonzero;stroke:none" id="path2432"/>
  </g>
  <g id="g2434" transform="matrix(1.3333330154418945, 0, 0, -1.3333330154418945, 2973.6614371325422, 680.5247691216027)">
    <path d="M 0,0 H -0.72 L -0.936,-0.289 -0.792,-0.864 0,-1.008 v 0.504 z" style="fill:#ffffff;fill-opacity:1;fill-rule:nonzero;stroke:none" id="path2436"/>
  </g>
  <g id="g2438" transform="matrix(1.3333330154418945, 0, 0, -1.3333330154418945, 2981.1497165971964, 677.9328914843462)">
    <path d="M 0,0 H -5.184 L -5.04,-0.936 0,-1.368 0.216,-0.792 0.288,0 H 0.216 Z" style="fill:#ffffff;fill-opacity:1;fill-rule:nonzero;stroke:none" id="path2440"/>
  </g>
  <g id="g2442" transform="matrix(1.3333330154418945, 0, 0, -1.3333330154418945, 2981.1497165971964, 680.8131805111735)">
    <path d="M 0,0 -5.184,0.216 -5.256,-0.144 -5.184,-0.648 0,-0.936 0.288,-0.648 v 0.576 L 0.216,0 Z" style="fill:#ffffff;fill-opacity:1;fill-rule:nonzero;stroke:none" id="path2444"/>
  </g>
  <g id="g2446" transform="matrix(1.3333330154418945, 0, 0, -1.3333330154418945, 2919.613272935298, 736.5891274996065)">
    <path d="M 0,0 0.937,-0.936 1.584,-2.16 2.088,-3.528 2.448,-5.04 2.305,-5.4 1.944,-5.472 1.368,-3.96 0.721,-2.52 -0.288,-1.296 -1.8,-0.648 H -2.447 -3.023 -3.6 -4.176 l 2.664,-0.648 0.865,-0.864 0.864,-1.008 0.504,-1.296 0.071,-1.368 -0.071,-0.144 -0.289,-0.072 -0.576,1.44 -0.648,1.296 -1.008,0.864 -1.584,0.432 -0.647,0.072 h -0.505 l -0.504,-0.072 -0.504,-0.144 -1.224,-1.224 -0.36,-1.44 0.36,-1.224 1.224,-0.864 h 1.584 l 0.721,0.792 0.071,1.08 -0.432,0.36 -0.576,0.072 -0.576,-0.072 -0.504,-0.288 -0.216,0.144 v 0.288 l 0.216,0.36 0.216,0.432 0.576,0.072 0.504,0.144 0.576,-0.216 0.648,-0.216 0.576,-0.864 0.072,-1.224 -0.504,-0.864 -0.647,-0.648 -0.792,-0.36 -1.009,-0.072 -0.72,0.288 -0.36,-0.288 0.576,-5.688 -0.071,-5.904 0.575,-5.616 2.304,-4.968 H 16.2 l -0.288,7.92 0.145,1.08 0.288,3.888 -0.145,4.104 0.216,3.888 1.584,3.456 0.504,0.36 0.288,0.216 1.224,0.216 1.08,-0.576 0.144,-0.432 -0.144,-0.504 -1.08,0.504 -1.295,-0.504 -0.361,-1.728 0.865,-0.936 2.088,-0.288 1.367,0.864 0.576,1.512 -0.432,1.872 -0.648,0.792 -1.008,0.504 h -1.152 -1.224 l -0.864,-0.216 -0.72,-0.36 -0.504,-0.504 -0.504,-0.576 -0.431,-0.72 -0.433,-0.792 h -0.287 l -0.217,0.216 0.145,0.936 0.503,0.864 0.577,0.648 0.647,0.72 0.649,0.432 0.792,0.36 0.647,0.216 0.864,0.216 -1.152,0.288 L 17.353,-2.52 16.057,-3.024 15.049,-3.672 14.544,-4.32 14.112,-4.968 13.824,-5.472 13.32,-6.048 h -0.072 l -0.288,0.216 2.089,3.672 1.655,0.936 -1.44,-0.216 -1.44,-0.72 -1.08,-0.864 -0.864,-1.152 -0.216,-0.648 -0.432,-0.432 h -0.288 l -0.215,0.216 2.16,3.744 H 12.456 L 12.096,-1.44 10.368,-2.52 9.072,-4.536 H 8.856 8.496 v 1.008 L 9.145,-2.52 7.057,-3.528 5.977,-2.52 6.264,-3.96 5.977,-4.176 H 5.616 L 3.313,-0.792 4.32,-4.176 4.176,-4.32 3.889,-4.464 3.24,-3.024 2.305,-1.656 1.296,-0.648 0,0.144 V 0.072 Z" style="fill:#ffffff;fill-opacity:1;fill-rule:nonzero;stroke:none" id="path2448"/>
  </g>
  <g id="g2450" transform="matrix(1.3333330154418945, 0, 0, -1.3333330154418945, 2901.4700480943147, 742.1569158856836)">
    <path d="m 0,0 -0.288,-1.08 0.143,-1.152 0.577,-0.72 1.224,-0.576 0.72,0.144 0.504,0.432 0.432,0.432 0.288,0.648 0.288,-0.288 0.072,-0.288 0.575,-9.648 0.576,-9.72 0.577,-2.16 0.935,-1.728 0.721,-0.216 0.792,-0.072 -0.937,4.824 -0.359,5.112 v 5.184 5.256 L 6.623,-3.96 6.119,-2.52 5.399,-1.224 4.248,0 3.24,0.648 2.16,1.008 1.151,0.792 Z" style="fill:#ffffff;fill-opacity:1;fill-rule:nonzero;stroke:none" id="path2452"/>
  </g>
  <g id="g2454" transform="matrix(1.3333330154418945, 0, 0, -1.3333330154418945, 2899.069007000101, 742.3490545117494)">
    <path d="m 0,0 -0.791,-0.936 -0.217,-1.512 0.217,-0.576 0.287,-0.36 0.288,-0.216 0.433,-0.288 0.359,0.072 0.433,0.216 -0.792,1.728 V 0 H 0.145 Z" style="fill:#ffffff;fill-opacity:1;fill-rule:nonzero;stroke:none" id="path2456"/>
  </g>
  <g id="g2458" transform="matrix(1.3333330154418945, 0, 0, -1.3333330154418945, 2895.3255183092847, 743.5970197090028)">
    <path d="M 0,0 H -0.072 L -0.288,-0.144 -1.08,-1.872 -0.792,-2.736 -0.288,-3.384 1.584,-3.6 0.504,-1.872 0.216,0.144 H 0.144 Z" style="fill:#ffffff;fill-opacity:1;fill-rule:nonzero;stroke:none" id="path2460"/>
  </g>
  <g id="g2462" transform="matrix(1.3333330154418945, 0, 0, -1.3333330154418945, 2892.0611961708937, 744.0769186831276)">
    <path d="m 0,0 -1.008,-0.792 -0.359,-1.296 0.359,-0.936 0.216,-0.36 1.08,-1.08 0.576,0.144 0.433,0.288 L 0.36,-2.304 0.288,0 H 0.145 Z" style="fill:#ffffff;fill-opacity:1;fill-rule:nonzero;stroke:none" id="path2464"/>
  </g>
  <g id="g2466" transform="matrix(1.3333330154418945, 0, 0, -1.3333330154418945, 2930.0768121072624, 744.6530090405686)">
    <path d="m 0,0 -2.951,-0.36 2.88,-0.144 1.368,-0.216 v 0.144 0.216 z" style="fill:#000000;fill-opacity:1;fill-rule:nonzero;stroke:none" id="path2468"/>
  </g>
  <g id="g2470" transform="matrix(1.3333330154418945, 0, 0, -1.3333330154418945, 2918.3658773993675, 748.8770477470207)">
    <path d="m 0,0 -0.648,-0.864 -0.072,-1.224 0.36,-0.36 0.648,-0.144 0.648,0.216 0.431,0.792 L 0.936,-1.872 0.432,-2.304 -0.36,-1.512 0.072,-0.432 1.656,0 3.023,-0.576 4.752,-1.368 6.336,-1.728 6.552,-1.584 6.624,-1.296 6.552,-1.08 6.408,-0.72 4.824,0.288 2.808,0.576 1.08,0.36 Z" style="fill:#000000;fill-opacity:1;fill-rule:nonzero;stroke:none" id="path2472"/>
  </g>
  <g id="g2474" transform="matrix(1.3333330154418945, 0, 0, -1.3333330154418945, 2933.2460821849822, 748.9733205105259)">
    <path d="M 0,0 -0.217,0.36 -0.36,0.792 -1.513,0.504 -2.448,0.864 -3.672,0.648 -6.336,1.152 -6.696,0.648 -7.2,2.664 -6.912,2.736 -6.336,1.872 -5.473,1.584 -3.816,1.368 h 1.944 l 1.439,0.216 0.216,0.576 0.576,0.432 z" style="fill:#000000;fill-opacity:1;fill-rule:nonzero;stroke:none" id="path2476"/>
  </g>
  <g id="g2478" transform="matrix(1.3333330154418945, 0, 0, -1.3333330154418945, 2932.381499057782, 749.6451953503383)">
    <path d="m 0,0 -0.504,-0.72 0.216,-0.72 1.08,0.288 1.512,0.504 L 3.744,0 H 5.185 L 5.688,-0.36 V -1.296 L 5.256,-1.728 H 4.536 L 4.032,-1.296 3.744,-0.936 3.96,-1.8 4.248,-2.088 4.752,-2.232 5.473,-2.088 6.12,-1.296 5.977,-0.144 5.256,0.648 4.393,0.936 3.456,1.008 2.376,0.864 1.8,0.792 1.152,0.576 0.432,0.288 Z" style="fill:#000000;fill-opacity:1;fill-rule:nonzero;stroke:none" id="path2480"/>
  </g>
  <g id="g2482" transform="matrix(1.3333330154418945, 0, 0, -1.3333330154418945, 2886.589843308699, 748.8770477470207)">
    <path d="M 0,0 0.576,-1.08 1.368,-1.8 2.736,-1.512 1.8,0.36 V 2.304 L 0.936,2.088 0.288,1.8 0,1.152 Z" style="fill:#ffffff;fill-opacity:1;fill-rule:nonzero;stroke:none" id="path2484"/>
  </g>
  <g id="g2486" transform="matrix(1.3333330154418945, 0, 0, -1.3333330154418945, 2904.8294222933773, 747.6289197893893)">
    <path d="m 0,0 -2.16,-0.36 0.864,-4.248 0.288,-4.464 v -4.536 l 0.432,-4.32 0.504,-2.088 0.648,-1.584 0.504,-0.288 H 1.584 2.16 2.664 l -1.296,3.96 -0.432,4.32 v 4.392 L 1.08,-4.896 0.792,-2.232 0.145,0 Z" style="fill:#ffffff;fill-opacity:1;fill-rule:nonzero;stroke:none" id="path2488"/>
  </g>
  <g id="g2490" transform="matrix(1.3333330154418945, 0, 0, -1.3333330154418945, 2943.037746517134, 748.8770477470207)">
    <path d="m 0,0 -0.216,-19.368 1.44,4.104 0.215,4.68 -0.215,4.752 0.504,4.464 -0.865,-3.24 V -7.776 L 1.08,-10.944 0.432,-14.256 0,-7.2 0.216,0 H 0.144 Z" style="fill:#ffffff;fill-opacity:1;fill-rule:nonzero;stroke:none" id="path2492"/>
  </g>
  <g id="g2494" transform="matrix(1.3333330154418945, 0, 0, -1.3333330154418945, 2899.7408818399135, 748.4929332552674)">
    <path d="M 0,0 -1.512,-0.864 0.072,-18.792 0,-18.936 l -0.287,0.144 -1.225,4.176 -0.359,4.32 -0.288,4.464 -0.649,4.32 -1.44,-0.072 1.08,-15.84 v -0.072 l -0.432,-0.072 -2.376,15.48 -1.007,-0.36 0.576,-4.824 0.143,-4.824 0.649,-4.68 1.727,-4.176 0.504,-0.216 0.576,-0.072 -0.36,2.448 0.145,0.072 0.215,-0.072 1.513,-2.16 0.575,-0.216 0.937,-0.072 0.143,0.576 0.433,0.36 0.287,-0.288 0.217,-0.36 0.432,-0.216 0.576,-0.072 0.36,0.072 0.575,-0.072 -1.223,4.752 -0.504,4.896 L 1.297,-6.48 0.937,-1.584 0.576,-0.72 0.217,0 H 0.072 Z" style="fill:#ffffff;fill-opacity:1;fill-rule:nonzero;stroke:none" id="path2496"/>
  </g>
  <g id="g2498" transform="matrix(1.3333330154418945, 0, 0, -1.3333330154418945, 2929.4062393504723, 753.3892537024767)">
    <path d="M 0,0 2.447,-1.512 1.655,-3.816 0.503,-6.192 -0.36,-8.64 l 0.215,-2.664 0.72,-1.944 0.649,-1.872 0.143,-0.072 0.288,-0.144 1.368,0.792 1.728,-0.144 h 1.873 l 1.512,0.936 0.216,0.504 0.143,0.288 -0.504,-0.36 -0.359,-0.288 -0.433,-0.144 H 6.624 l -1.225,0.144 -1.368,0.144 -1.368,0.216 -1.296,-0.216 -0.504,1.224 -0.647,1.296 -0.145,1.296 0.145,1.224 0.935,2.16 1.008,2.088 0.864,1.872 0.216,1.152 -2.736,1.728 -0.287,0.936 -0.504,-0.72 z" style="fill:#000000;fill-opacity:1;fill-rule:nonzero;stroke:none" id="path2500"/>
  </g>
  <g id="g2502" transform="matrix(1.3333330154418945, 0, 0, -1.3333330154418945, 2925.757802720328, 753.4850381848482)">
    <path d="m 0,0 -0.216,-0.144 -0.288,-0.072 -0.504,-0.432 -0.36,-0.792 0.144,-0.288 0.216,-0.288 0.216,0.288 0.072,0.576 0.144,0.36 0.36,0.288 0.576,-0.36 0.648,-0.36 0.647,-0.36 h 0.793 l 0.288,0.144 -0.288,0.432 z" style="fill:#000000;fill-opacity:1;fill-rule:nonzero;stroke:none" id="path2504"/>
  </g>
  <g id="g2506" transform="matrix(1.3333330154418945, 0, 0, -1.3333330154418945, 2914.7174407692223, 770.2851643877185)">
    <path d="m 0,0 v -0.144 l -0.072,-0.144 0.505,-0.648 0.575,-0.72 0.864,-0.576 1.152,-0.216 1.656,0.072 1.728,0.36 1.584,-0.072 1.441,-0.792 -0.145,0.72 -0.36,0.504 -0.504,0.576 -0.648,0.288 -2.088,0.216 -2.016,-0.36 H 1.729 Z" style="fill:#000000;fill-opacity:1;fill-rule:nonzero;stroke:none" id="path2508"/>
  </g>
  <g id="g2510" transform="matrix(1.3333330154418945, 0, 0, -1.3333330154418945, 2944.669256544818, 784.7812546815804)">
    <path d="m 0,0 h -39.96 l -0.504,-1.728 1.872,0.504 1.872,-0.216 1.8,-0.792 1.8,-1.296 1.801,1.296 1.799,0.72 1.369,0.288 1.439,-0.216 1.152,-0.504 1.224,-0.576 1.08,-0.72 1.08,-0.576 1.945,1.296 1.727,0.792 1.296,0.216 1.44,-0.144 1.08,-0.36 1.008,-0.576 0.865,-0.648 0.863,-0.576 1.513,1.512 1.439,0.792 1.296,0.36 h 1.152 l 1.08,-0.36 1.008,-0.432 1.008,-0.792 0.864,-0.792 0.937,0.576 1.008,0.648 1.08,0.216 1.007,-0.432 z" style="fill:#ffc0c0;fill-opacity:1;fill-rule:nonzero;stroke:none" id="path2512"/>
  </g>
  <g id="g2514" transform="matrix(1.3333330154418945, 0, 0, -1.3333330154418945, 2913.949211785716, 765.7734467133959)">
    <path d="m 0,0 0.864,-1.08 1.872,-1.152 2.52,-0.216 3.168,1.656 0.217,0.288 0.071,0.36 L 7.561,0.432 6.48,0.864 5.4,1.152 H 4.465 3.456 L 2.376,0.864 1.225,0.432 Z" style="fill:#000000;fill-opacity:1;fill-rule:nonzero;stroke:none" id="path2516"/>
  </g>
  <g id="g2518" transform="matrix(1.3333330154418945, 0, 0, -1.3333330154418945, 2917.4062422114957, 767.4048753608913)">
    <path d="M 0,0 0.359,-0.144 0.575,-0.288 1.151,0.648 2.087,1.08 3.023,0.576 3.384,-0.216 4.031,0.144 3.239,1.296 2.087,1.656 0.792,1.296 Z" style="fill:#ffffff;fill-opacity:1;fill-rule:nonzero;stroke:none" id="path2520"/>
  </g>
  <g id="g2522" transform="matrix(1.3333330154418945, 0, 0, -1.3333330154418945, 2917.694002559555, 765.2930594581376)">
    <path d="m 0,0 -0.504,-0.144 -0.504,-0.144 -0.576,-0.216 -0.36,-0.216 1.296,-0.864 0.215,0.792 z" style="fill:#ffffff;fill-opacity:1;fill-rule:nonzero;stroke:none" id="path2524"/>
  </g>
  <g id="g2526" transform="matrix(1.3333330154418945, 0, 0, -1.3333330154418945, 2922.6861888693243, 765.4850353238253)">
    <path d="M 0,0 1.224,-0.576 0.575,-1.08 Z" style="fill:#ffffff;fill-opacity:1;fill-rule:nonzero;stroke:none" id="path2528"/>
  </g>
  <g id="g2530" transform="matrix(1.3333330154418945, 0, 0, -1.3333330154418945, 2920.381501918805, 769.7089926500885)">
    <path d="M 0,0 H -1.439 L -2.88,0.432 -4.176,1.08 -5.04,2.304 V 2.448 2.592 L -3.815,1.296 -2.448,0.504 -0.936,0.144 0.216,0.216 0.145,0 Z" style="fill:#000000;fill-opacity:1;fill-rule:nonzero;stroke:none" id="path2532"/>
  </g>
  <g id="g2534" transform="matrix(1.3333330154418945, 0, 0, -1.3333330154418945, 2941.0221219976966, 766.2532643073318)">
    <path d="m 0,0 -0.721,-0.936 -1.727,-1.08 -2.376,-0.144 -2.952,1.44 -0.216,0.288 -0.145,0.288 2.088,0.936 1.945,0.288 1.872,-0.288 z" style="fill:#000000;fill-opacity:1;fill-rule:nonzero;stroke:none" id="path2536"/>
  </g>
  <g id="g2538" transform="matrix(1.3333330154418945, 0, 0, -1.3333330154418945, 2937.94920606367, 767.6934495108399)">
    <path d="m 0,0 -0.288,-0.072 -0.216,-0.144 -0.504,0.792 -0.864,0.36 -0.936,-0.432 -0.504,-0.72 -0.576,0.432 0.72,0.936 1.296,0.432 1.152,-0.432 z" style="fill:#ffffff;fill-opacity:1;fill-rule:nonzero;stroke:none" id="path2540"/>
  </g>
  <g id="g2542" transform="matrix(1.3333330154418945, 0, 0, -1.3333330154418945, 2937.565091571917, 765.7734467133959)">
    <path d="M 0,0 0.576,-0.144 H 1.08 L 1.513,-0.36 1.872,-0.576 0.648,-1.44 0.505,-0.792 Z" style="fill:#ffffff;fill-opacity:1;fill-rule:nonzero;stroke:none" id="path2544"/>
  </g>
  <g id="g2546" transform="matrix(1.3333330154418945, 0, 0, -1.3333330154418945, 2932.8619676932294, 765.9648529177612)">
    <path d="M 0,0 -0.576,-0.216 -1.08,-0.432 -0.433,-0.936 Z" style="fill:#ffffff;fill-opacity:1;fill-rule:nonzero;stroke:none" id="path2548"/>
  </g>
  <g id="g2550" transform="matrix(1.3333330154418945, 0, 0, -1.3333330154418945, 2935.2617067044202, 769.8052654135936)">
    <path d="M 0,0 1.296,0.072 2.592,0.36 3.744,1.08 4.536,2.088 V 2.232 L 4.464,2.376 3.527,1.152 2.088,0.504 0.792,0.072 -0.216,0.144 -0.072,0.072 Z" style="fill:#000000;fill-opacity:1;fill-rule:nonzero;stroke:none" id="path2552"/>
  </g>
  <g id="g2554" transform="matrix(1.3333330154418945, 0, 0, -1.3333330154418945, 2887.2617181485116, 654.7969106722703)">
    <path d="m 0,0 4.104,-0.792 3.167,-2.232 2.305,-3.384 0.792,-3.96 -0.792,-3.96 L 7.271,-17.64 4.104,-19.8 0,-20.592 l -3.96,0.792 -3.24,2.16 -2.232,3.312 -0.793,3.96 0.793,3.96 2.232,3.384 3.24,2.232 z" style="fill:#c0c0ff;fill-opacity:1;fill-rule:nonzero;stroke:none" id="path2556"/>
  </g>
  <g id="g2558" transform="matrix(1.3333330154418945, 0, 0, -1.3333330154418945, 2887.2617181485116, 654.7969106722703)">
    <path d="m 0,0 4.104,-0.792 3.167,-2.232 2.305,-3.384 0.792,-3.96 -0.792,-3.96 L 7.271,-17.64 4.104,-19.8 0,-20.592 l -3.96,0.792 -3.24,2.16 -2.232,3.312 -0.793,3.96 0.793,3.96 2.232,3.384 3.24,2.232 z" style="fill:none;stroke:#000000;stroke-width:0.221;stroke-linecap:butt;stroke-linejoin:miter;stroke-miterlimit:4;stroke-dasharray:none;stroke-opacity:1" id="path2560"/>
  </g>
  <g id="g2562" transform="matrix(1.3333330154418945, 0, 0, -1.3333330154418945, 2957.1497223192423, 708.6530176236374)">
    <path d="m 0,0 -4.032,0.792 -3.312,2.232 -2.16,3.24 -0.864,4.032 0.864,4.032 2.16,3.24 L -4.032,19.8 0,20.592 4.032,19.8 7.271,17.568 9.504,14.328 10.368,10.296 9.504,6.264 7.271,3.024 4.032,0.792 Z" style="fill:#c0c0ff;fill-opacity:1;fill-rule:nonzero;stroke:none" id="path2564"/>
  </g>
  <g id="g2566" transform="matrix(1.3333330154418945, 0, 0, -1.3333330154418945, 2957.1497223192423, 708.6530176236374)">
    <path d="m 0,0 -4.032,0.792 -3.312,2.232 -2.16,3.24 -0.864,4.032 0.864,4.032 2.16,3.24 L -4.032,19.8 0,20.592 4.032,19.8 7.271,17.568 9.504,14.328 10.368,10.296 9.504,6.264 7.271,3.024 4.032,0.792 Z" style="fill:none;stroke:#000000;stroke-width:0.221;stroke-linecap:butt;stroke-linejoin:miter;stroke-miterlimit:4;stroke-dasharray:none;stroke-opacity:1" id="path2568"/>
  </g>
  <g id="g2570" transform="matrix(1.3333330154418945, 0, 0, -1.3333330154418945, 2921.917959885818, 670.2532871955154)">
    <path d="m 0,0 3.168,-0.648 2.808,-1.8 1.799,-2.664 0.649,-3.312 -0.649,-3.312 -1.799,-2.736 -2.808,-1.8 L 0,-16.92 l -3.24,0.648 -2.737,1.8 -1.799,2.736 -0.72,3.312 0.72,3.312 1.799,2.664 2.737,1.8 z" style="fill:#ffc0c0;fill-opacity:1;fill-rule:nonzero;stroke:none" id="path2572"/>
  </g>
  <g id="g2574" transform="matrix(1.3333330154418945, 0, 0, -1.3333330154418945, 2921.917959885818, 670.2532871955154)">
    <path d="m 0,0 3.168,-0.648 2.808,-1.8 1.799,-2.664 0.649,-3.312 -0.649,-3.312 -1.799,-2.736 -2.808,-1.8 L 0,-16.92 l -3.24,0.648 -2.737,1.8 -1.799,2.736 -0.72,3.312 0.72,3.312 1.799,2.664 2.737,1.8 z" style="fill:none;stroke:#000000;stroke-width:0.221;stroke-linecap:butt;stroke-linejoin:miter;stroke-miterlimit:4;stroke-dasharray:none;stroke-opacity:1" id="path2576"/>
  </g>
  <g id="g2578" transform="matrix(1.3333330154418945, 0, 0, -1.3333330154418945, 2944.4778503404527, 699.6289312334811)">
    <path d="M 0,0 7.344,2.376 6.264,-5.616 8.063,-6.12 9.504,-6.192 h 1.584 L 13.031,-5.76 11.376,2.304 19.367,0.576 19.656,4.824 18.288,8.928 9.504,5.76 0.432,8.928 -0.864,4.248 Z" style="fill:#ffff80;fill-opacity:1;fill-rule:nonzero;stroke:none" id="path2580"/>
  </g>
  <g id="g2582" transform="matrix(1.3333330154418945, 0, 0, -1.3333330154418945, 2899.8372359836076, 663.5331553341786)">
    <path d="m 0,0 -7.271,-2.304 1.152,7.848 -1.801,0.432 -1.584,0.216 -1.512,-0.144 -1.872,-0.432 1.584,-7.92 -7.992,1.8 -0.288,-4.32 1.368,-4.032 8.784,3.168 9.073,-3.168 1.151,4.608 z" style="fill:#ffff80;fill-opacity:1;fill-rule:nonzero;stroke:none" id="path2584"/>
  </g>
  <g id="g2586" transform="matrix(1.3333330154418945, 0, 0, -1.3333330154418945, 2881.694011142624, 655.085322061841)">
    <path d="M 0,0 0.576,0.216 1.224,0.288 1.8,0.432 H 2.447 L 1.871,1.872 0.144,3.168 -1.872,3.816 -3.24,4.176 -2.952,3.312 -2.088,1.8 -1.008,0.432 Z" style="fill:#ffff80;fill-opacity:1;fill-rule:nonzero;stroke:none" id="path2588"/>
  </g>
  <g id="g2590" transform="matrix(1.3333330154418945, 0, 0, -1.3333330154418945, 2962.910137612519, 709.6133038530207)">
    <path d="M 0,0 -0.648,-0.216 -1.297,-0.36 -1.872,-0.432 h -0.649 l 0.504,-1.584 1.8,-1.152 2.089,-0.648 1.296,-0.36 -0.217,0.792 -0.863,1.512 -1.08,1.44 z" style="fill:#ffff80;fill-opacity:1;fill-rule:nonzero;stroke:none" id="path2592"/>
  </g>
  <g id="g2594" transform="matrix(1.3333330154418945, 0, 0, -1.3333330154418945, 2892.0611961708937, 655.085322061841)">
    <path d="M 0,0 -0.575,0.216 -1.224,0.288 -1.872,0.432 H -2.52 l 0.648,1.44 1.728,1.296 2.016,0.648 1.513,0.36 L 2.952,3.312 2.088,1.8 1.08,0.432 Z" style="fill:#ffff80;fill-opacity:1;fill-rule:nonzero;stroke:none" id="path2596"/>
  </g>
  <g id="g2598" transform="matrix(1.3333330154418945, 0, 0, -1.3333330154418945, 2952.4452963575322, 709.6133038530207)">
    <path d="M 0,0 0.648,-0.216 1.296,-0.36 1.944,-0.432 h 0.577 l -0.577,-1.584 -1.799,-1.152 -2.089,-0.648 -1.44,-0.36 0.361,0.792 0.863,1.512 1.152,1.44 z" style="fill:#ffff80;fill-opacity:1;fill-rule:nonzero;stroke:none" id="path2600"/>
  </g>
  <g id="g2602" transform="matrix(1.3333330154418945, 0, 0, -1.3333330154418945, 2889.757811303397, 649.8048057426895)">
    <path d="M 0,0 -0.433,0.648 -0.937,1.295 -1.513,1.943 -2.232,2.304 -2.952,1.8 -3.528,1.224 -3.96,0.576 l -0.432,-0.72 0.72,-0.432 0.575,-0.361 0.433,-0.503 0.576,-0.648 0.432,0.792 0.719,0.648 0.649,0.504 z" style="fill:#ffff80;fill-opacity:1;fill-rule:nonzero;stroke:none" id="path2604"/>
  </g>
  <g id="g2606" transform="matrix(1.3333330154418945, 0, 0, -1.3333330154418945, 2954.7499833080515, 714.8933318910385)">
    <path d="m 0,0 0.432,-0.72 0.504,-0.648 0.576,-0.576 0.719,-0.36 0.792,0.432 0.504,0.576 0.361,0.648 0.504,0.864 -0.72,0.36 L 3.096,0.936 2.592,1.44 2.159,2.088 1.655,1.296 0.936,0.648 0.288,0.216 Z" style="fill:#ffff80;fill-opacity:1;fill-rule:nonzero;stroke:none" id="path2608"/>
  </g>
  <g id="g2610" transform="matrix(1.3333330154418945, 0, 0, -1.3333330154418945, 2922.2057202338774, 671.4048982490749)">
    <path d="m 0,0 h -0.433 l -0.359,-0.216 -0.145,-0.864 0.145,-1.08 -0.576,-0.432 -0.72,-0.216 -0.144,-0.072 -0.216,-0.432 0.216,-1.008 0.576,-0.432 0.864,-0.144 0.216,-0.792 -0.216,-1.08 -0.36,-0.288 -0.504,-0.144 -0.432,-0.144 h -0.504 l -0.288,0.792 v 0.864 l -0.504,0.504 h -0.864 l -0.433,-0.288 -0.287,-0.216 -0.648,-1.008 -0.576,0.144 h -0.504 l -0.576,-0.144 -0.432,-0.36 -0.072,-0.288 v -0.504 l 0.288,-0.504 0.792,-0.504 0.648,0.144 0.72,0.144 0.432,-1.08 0.504,-0.36 0.648,-0.216 h 0.36 l 0.144,0.216 0.36,1.08 0.288,0.936 0.36,0.072 h 0.504 l 0.576,-0.216 0.36,-0.144 0.216,-0.864 v -1.008 l -1.152,-0.216 -0.36,-0.504 -0.36,-0.432 v -0.36 -0.216 l 0.431,-0.36 0.793,-0.504 v -1.872 l 0.432,-0.576 0.792,-0.288 0.432,0.432 0.36,0.72 -0.288,1.152 0.072,0.216 0.216,0.216 1.08,0.504 0.288,0.792 -0.288,1.008 -0.576,0.216 -0.792,0.072 -0.216,0.504 -0.144,0.504 0.36,0.504 0.432,0.36 0.504,0.288 0.72,0.072 0.504,-0.648 0.216,-1.08 0.144,-0.144 0.144,-0.288 0.648,-0.144 0.792,0.144 0.288,0.648 0.216,0.576 0.504,0.144 0.648,-0.216 0.648,0.216 0.432,0.72 v 0.288 0.36 L 6.912,-7.056 6.552,-6.84 H 5.903 L 5.4,-6.984 5.04,-6.48 4.824,-5.688 4.248,-5.472 H 3.528 L 2.952,-5.832 2.735,-6.552 2.808,-6.84 2.88,-7.344 2.664,-7.56 2.448,-7.776 l -0.576,0.072 -0.648,0.36 -0.432,0.288 -0.288,0.504 -0.216,0.864 -0.144,0.504 0.648,0.432 0.864,-0.216 0.36,0.504 0.36,0.72 V -3.6 L 2.231,-3.312 1.728,-2.808 1.08,-2.592 0.864,-1.8 0.792,-0.792 0.576,-0.216 Z" style="fill:#ffffff;fill-opacity:1;fill-rule:nonzero;stroke:none" id="path2612"/>
  </g>
  <g id="g2614" transform="matrix(1.3333330154418945, 0, 0, -1.3333330154418945, 2925.0859278805156, 694.2532814734695)">
    <path d="m 0,0 0.792,-4.032 1.08,-4.104 1.296,-4.104 1.439,-3.96 1.513,-3.888 1.728,-3.888 1.799,-3.6 1.873,-3.6 0.215,-0.072 0.361,0.072 -0.576,1.512 -0.792,1.44 -0.648,1.368 -0.648,1.584 -2.592,5.976 -2.376,6.264 -1.944,6.48 -1.728,6.48 L 1.008,0 h 0.288 l 1.08,-1.584 1.08,-1.8 1.008,-1.656 1.08,-1.872 2.447,-3.816 2.953,-3.816 3.312,-3.744 3.744,-3.456 3.96,-3.024 4.536,-2.376 4.68,-1.584 5.04,-0.576 2.304,1.008 -3.384,0.36 -3.024,0.504 -2.736,0.72 -2.521,0.864 -2.376,1.296 -2.375,1.512 -2.592,1.944 -2.88,2.304 -2.305,2.304 -2.087,2.304 -1.801,2.304 -1.727,2.376 -1.656,2.448 -1.584,2.52 L 3.743,-1.944 1.872,0.792 1.512,0.72 1.224,0.648 0.792,0.432 Z" style="fill:#ffff80;fill-opacity:1;fill-rule:nonzero;stroke:none" id="path2616"/>
  </g>
</svg>