<?xml version="1.0" encoding="utf-8"?>
<svg viewBox="1833.9492 874.349 209.3759 296.7373" xmlns="http://www.w3.org/2000/svg">
  <g id="g3126" transform="matrix(1.3333330154418945, 0, 0, -1.3333330154418945, 1842.014571521577, 874.3490230404968)">
    <path d="m 0,0 h 144.936 l 2.303,-0.647 1.945,-1.874 1.295,-2.664 0.504,-3.383 v -205.489 l -0.504,-3.239 -1.295,-2.736 -1.945,-1.872 -2.303,-0.649 H 0 l -2.377,0.649 -1.871,1.872 -1.369,2.736 -0.432,3.239 V -8.568 l 0.432,3.383 1.369,2.664 1.871,1.874 z" style="fill:#000000;fill-opacity:1;fill-rule:nonzero;stroke:none" id="path3128"/>
  </g>
  <g id="g3130" transform="matrix(1.3333330154418945, 0, 0, -1.3333330154418945, 1844.9898312288865, 879.0533676220185)">
    <path d="m 0,0 h 140.472 l 2.232,-0.576 1.872,-1.8 1.296,-2.592 0.432,-3.24 v -199.151 l -0.432,-3.169 -1.296,-2.592 -1.872,-1.8 -2.232,-0.648 H 0 l -2.231,0.648 -1.873,1.8 -1.224,2.592 -0.432,3.169 V -8.208 l 0.432,3.24 1.224,2.592 1.873,1.8 z" style="fill:#ffffff;fill-opacity:1;fill-rule:nonzero;stroke:none" id="path3132"/>
  </g>
  <g id="g3134" transform="matrix(1.3333330154418945, 0, 0, -1.3333330154418945, 1855.3583183401793, 927.8215037812444)">
    <path d="m 0,0 v -13.824 l -0.504,1.656 -2.377,3.528 -2.375,3.672 -1.152,3.456 0.36,1.368 0.648,1.081 1.007,0.792 1.225,0.288 1.296,-0.216 1.151,-0.721 z M 0,8.641 V 6.265 h -0.145 l -0.863,0.071 -0.793,0.144 -0.72,0.145 -0.575,0.359 -0.577,0.504 -0.431,0.504 -0.36,0.504 -0.288,0.649 -0.36,1.295 -0.144,1.224 h 2.375 l 0.145,-1.152 0.647,-0.936 0.36,-0.431 0.504,-0.217 0.504,-0.215 0.576,-0.072 z m 0,19.223 v -2.592 l -0.504,-0.143 -0.864,-0.217 -0.721,-0.576 -0.647,-0.863 -0.432,-1.225 -0.217,-1.512 0.217,-1.728 0.791,-1.367 0.505,-0.649 0.647,-0.431 0.721,-0.217 L 0,16.272 v -2.448 h -0.721 l -0.647,0.217 -0.721,0.287 -0.647,0.36 -0.649,0.432 -0.576,0.576 -0.503,0.648 -0.432,0.793 -0.649,1.727 -0.143,2.088 0.215,1.728 0.504,1.656 0.361,0.793 0.504,0.647 0.576,0.648 0.647,0.504 0.649,0.432 0.864,0.288 0.792,0.216 z m 23.76,-69.983 v 1.655 l -0.576,2.808 -1.657,2.232 -2.447,1.441 -2.592,0.575 -2.592,-0.648 -2.161,-1.584 -1.439,-2.376 -0.576,-2.88 0.576,-3.456 1.656,-3.744 2.304,-3.815 2.736,-3.889 2.592,-3.888 2.375,-3.744 1.729,-3.599 0.648,-3.313 0.792,3.313 1.656,3.599 2.304,3.744 2.664,3.888 2.663,3.889 2.376,3.815 1.584,3.744 0.721,3.456 -0.649,2.88 -1.367,2.376 -2.16,1.584 -2.664,0.648 -2.664,-0.504 -2.305,-1.512 -1.655,-2.232 -0.721,-2.808 v -1.655 l -0.575,-0.289 z m 0,-59.401 v -1.656 l -0.576,-2.807 -1.657,-2.233 -2.447,-1.44 -2.592,-0.575 -2.592,0.647 -2.161,1.584 -1.439,2.305 -0.576,2.88 0.576,3.528 1.656,3.743 2.304,3.744 2.736,3.96 2.592,3.817 2.375,3.744 1.729,3.527 0.648,3.384 0.792,-3.384 1.656,-3.527 2.304,-3.744 2.664,-3.817 2.663,-3.96 2.376,-3.744 1.584,-3.743 0.721,-3.528 -0.649,-2.88 -1.367,-2.305 -2.16,-1.584 -2.664,-0.647 -2.664,0.503 -2.305,1.512 -1.655,2.233 -0.721,2.807 v 1.656 l -0.575,0.36 z m 0,-48.816 v -1.656 l -0.576,-2.808 -1.657,-2.16 -2.447,-1.512 -2.592,-0.504 -2.592,0.577 -2.161,1.584 -1.439,2.376 -0.576,2.879 0.576,3.456 1.656,3.745 2.304,3.815 2.736,3.888 2.592,3.816 2.375,3.744 1.729,3.601 0.648,3.311 0.792,-3.311 1.656,-3.601 2.304,-3.744 2.664,-3.816 2.663,-3.888 2.376,-3.815 1.584,-3.745 0.721,-3.456 -0.649,-2.879 -1.367,-2.376 -2.16,-1.584 -2.664,-0.577 -2.664,0.504 -2.305,1.512 -1.655,2.16 -0.721,2.808 v 1.656 l -0.575,0.36 z m 38.015,69.192 v -1.727 l -0.576,-2.809 -1.655,-2.16 -2.376,-1.512 -2.664,-0.503 -2.593,0.576 -2.231,1.584 -1.368,2.376 -0.577,2.88 0.649,3.456 1.655,3.743 2.232,3.816 2.737,3.888 2.664,3.816 2.304,3.744 1.727,3.601 0.721,3.312 0.648,-3.312 1.656,-3.601 2.376,-3.744 2.664,-3.816 2.664,-3.888 2.303,-3.816 1.657,-3.743 0.647,-3.456 -0.575,-2.88 -1.368,-2.376 -2.233,-1.584 -2.592,-0.576 -2.735,0.503 -2.305,1.512 -1.655,2.16 -0.648,2.809 v 1.727 l -0.504,0.289 z M 100.008,6.625 V 8.28 l -0.576,2.808 -1.657,2.232 -2.448,1.512 -2.592,0.504 -2.591,-0.648 -2.161,-1.512 -1.439,-2.375 -0.576,-2.881 0.576,-3.527 1.655,-3.745 2.305,-3.816 2.736,-3.888 2.592,-3.887 2.304,-3.745 1.8,-3.671 0.648,-3.313 0.72,3.313 1.655,3.671 2.377,3.745 2.663,3.887 2.665,3.888 2.375,3.816 1.656,3.745 0.576,3.527 -0.576,2.881 -1.439,2.375 -2.16,1.512 -2.592,0.648 -2.664,-0.504 -2.376,-1.512 -1.656,-2.232 L 101.16,8.28 V 6.625 l -0.576,-0.289 z m 0,-48.744 v 1.655 l -0.576,2.808 -1.657,2.232 -2.448,1.441 -2.592,0.575 -2.591,-0.648 -2.161,-1.584 -1.439,-2.376 -0.576,-2.88 0.576,-3.456 1.655,-3.744 2.305,-3.815 2.736,-3.889 2.592,-3.888 2.304,-3.744 1.8,-3.599 0.648,-3.313 0.72,3.313 1.655,3.599 2.377,3.744 2.663,3.888 2.665,3.889 2.375,3.815 1.656,3.744 0.576,3.456 -0.576,2.88 -1.439,2.376 -2.16,1.584 -2.592,0.648 -2.664,-0.504 -2.376,-1.512 -1.656,-2.232 -0.648,-2.808 v -1.655 l -0.576,-0.289 z m 0,-59.401 v -1.656 l -0.576,-2.807 -1.657,-2.233 -2.448,-1.44 -2.592,-0.575 -2.591,0.647 -2.161,1.584 -1.439,2.305 -0.576,2.88 0.576,3.528 1.655,3.743 2.305,3.744 2.736,3.96 2.592,3.817 2.304,3.744 1.8,3.527 0.648,3.384 0.72,-3.384 1.655,-3.527 2.377,-3.744 2.663,-3.817 2.665,-3.96 2.375,-3.744 1.656,-3.743 0.576,-3.528 -0.576,-2.88 -1.439,-2.305 -2.16,-1.584 -2.592,-0.647 -2.664,0.503 -2.376,1.512 -1.656,2.233 -0.648,2.807 v 1.656 l -0.576,0.36 z m 0,-48.816 v -1.656 l -0.576,-2.808 -1.657,-2.16 -2.448,-1.512 -2.592,-0.504 -2.591,0.577 -2.161,1.584 -1.439,2.376 -0.576,2.879 0.576,3.456 1.655,3.745 2.305,3.815 2.736,3.888 2.592,3.816 2.304,3.744 1.8,3.601 0.648,3.311 0.72,-3.311 1.655,-3.601 2.377,-3.744 2.663,-3.816 2.665,-3.888 2.375,-3.815 1.656,-3.745 0.576,-3.456 -0.576,-2.879 -1.439,-2.376 -2.16,-1.584 -2.592,-0.577 -2.664,0.504 -2.376,1.512 -1.656,2.16 -0.648,2.808 v 1.656 l -0.576,0.36 z M 0,6.265 v 2.376 l 0.576,0.072 0.72,0.215 0.575,0.361 0.36,0.504 0.721,1.151 0.288,1.369 0.215,1.511 L 3.6,15.984 2.952,15.12 2.088,14.473 1.584,14.185 1.08,13.969 0.576,13.824 H 0 v 2.448 L 0.287,16.2 0.936,16.344 1.584,16.561 2.16,16.992 2.592,17.568 3.24,18.937 3.384,20.736 3.168,22.608 2.447,24.12 1.943,24.625 1.439,24.984 0.863,25.272 0.287,25.344 0,25.272 v 2.592 L 0.287,27.937 2.735,27.36 4.536,25.633 5.615,22.969 5.976,19.08 5.904,16.344 5.832,14.041 5.615,12.096 5.184,10.225 4.824,9.289 4.392,8.568 3.888,7.776 3.24,7.2 2.592,6.84 1.728,6.48 0.936,6.336 Z M 0,-13.824 V 0 l 0.287,-1.295 v -0.793 l 0.289,-0.143 0.287,0.143 v 0.793 L 1.08,0 1.943,1.08 3.096,1.801 4.319,2.017 5.544,1.729 6.552,0.937 7.199,-0.144 7.488,-1.512 6.479,-4.968 4.031,-8.64 1.656,-12.168 0.576,-15.479 Z m 126.144,-137.159 v -2.521 l -0.577,-0.072 -0.647,-0.215 -0.576,-0.36 -0.504,-0.433 -0.649,-1.151 -0.359,-1.369 -0.144,-1.511 -0.144,-2.233 0.647,0.865 0.792,0.719 0.505,0.288 0.504,0.145 0.575,0.143 0.577,0.073 v -2.448 l -0.216,0.071 -0.792,-0.144 -0.576,-0.216 -0.577,-0.431 -0.504,-0.576 -0.575,-1.441 -0.144,-1.727 0.216,-1.945 0.719,-1.439 0.433,-0.577 0.504,-0.36 0.647,-0.215 0.649,-0.073 0.216,0.073 v -2.665 l -0.36,-0.072 -2.448,0.649 -1.656,1.656 -1.153,2.735 -0.359,3.817 0.072,2.807 0.072,2.232 0.215,1.944 0.504,1.872 0.288,0.937 0.433,0.792 0.504,0.719 0.576,0.577 0.647,0.503 0.865,0.361 0.935,0.216 z m 0,22.175 v -12.671 l -0.216,0.071 -0.288,-0.144 v -0.792 l -0.216,-1.296 -0.792,-1.151 -1.153,-0.648 -1.223,-0.217 -1.225,0.217 -1.008,0.792 -0.719,1.152 -0.288,1.368 1.08,3.383 2.448,3.6 2.231,3.6 1.153,3.24 z M 23.76,6.625 V 8.28 l -0.576,2.808 -1.657,2.232 -2.447,1.512 -2.592,0.504 -2.592,-0.648 -2.161,-1.512 -1.439,-2.375 -0.576,-2.881 0.576,-3.527 1.656,-3.745 2.304,-3.816 2.736,-3.888 2.592,-3.887 2.375,-3.745 1.729,-3.671 0.648,-3.313 0.792,3.313 1.656,3.671 2.304,3.745 2.664,3.887 2.663,3.888 2.376,3.816 1.584,3.745 0.721,3.527 -0.649,2.881 -1.367,2.375 -2.16,1.512 -2.664,0.648 L 29.592,14.832 27.287,13.32 25.632,11.088 24.911,8.28 V 6.625 L 24.336,6.336 Z m 102.384,-148.104 v 12.671 l 0.936,-2.736 2.375,-3.6 2.377,-3.6 1.008,-3.383 -0.217,-1.368 -0.647,-1.152 -1.008,-0.792 -1.224,-0.217 -1.297,0.217 -1.151,0.648 -0.792,1.151 -0.217,1.296 v 0.792 z m 0,-12.025 v 2.521 h 0.143 0.864 l 0.792,-0.216 0.721,-0.289 0.576,-0.36 0.575,-0.504 0.361,-0.431 0.431,-0.504 0.289,-0.649 0.431,-1.295 0.072,-1.224 h -2.303 l -0.288,1.151 -0.577,0.936 -0.431,0.432 -0.504,0.216 -0.505,0.144 -0.504,0.072 z m 0,-19.224 v 2.665 l 0.503,0.071 0.865,0.217 0.719,0.576 0.649,0.935 0.432,1.153 0.215,1.584 -0.215,1.656 -0.72,1.439 -0.504,0.649 -0.649,0.431 -0.792,0.216 -0.503,0.073 v 2.448 l 0.647,-0.073 0.793,-0.216 0.647,-0.215 0.649,-0.36 0.647,-0.504 0.577,-0.505 0.503,-0.719 0.432,-0.793 0.649,-1.728 0.144,-2.016 -0.217,-1.8 -0.504,-1.655 -0.431,-0.793 -0.504,-0.648 -0.504,-0.647 -0.576,-0.504 -0.792,-0.36 -0.72,-0.361 -0.864,-0.144 z" style="fill:#ff0000;fill-opacity:1;fill-rule:nonzero;stroke:none" id="path3136"/>
  </g>
</svg>