<?xml version="1.0" encoding="utf-8"?>
<svg viewBox="1833.9492 190.5412 209.3759 296.8319" xmlns="http://www.w3.org/2000/svg">
  <g id="g96" transform="matrix(1.3333330154418945, 0, 0, -1.3333330154418945, 1842.014571521577, 190.54116198449262)">
    <path d="m 0,0 h 144.936 l 2.303,-0.648 1.945,-1.872 1.295,-2.736 0.504,-3.312 v -205.56 l -0.504,-3.312 -1.295,-2.664 -1.945,-1.872 -2.303,-0.648 H 0 l -2.377,0.648 -1.871,1.872 -1.369,2.664 -0.432,3.312 v 205.56 l 0.432,3.312 1.369,2.736 1.871,1.872 z" style="fill:#000000;fill-opacity:1;fill-rule:nonzero;stroke:none" id="path98"/>
  </g>
  <g id="g100" transform="matrix(1.3333330154418945, 0, 0, -1.3333330154418945, 1844.9898312288865, 195.2449369046917)">
    <path d="m 0,0 h 140.472 l 2.232,-0.576 1.872,-1.8 1.296,-2.592 0.432,-3.312 v -199.152 l -0.432,-3.168 -1.296,-2.664 -1.872,-1.728 -2.232,-0.648 H 0 l -2.231,0.648 -1.873,1.728 -1.224,2.664 -0.432,3.168 V -8.28 l 0.432,3.312 1.224,2.592 1.873,1.8 z" style="fill:#ffffff;fill-opacity:1;fill-rule:nonzero;stroke:none" id="path102"/>
  </g>
  <g id="g104" transform="matrix(1.3333330154418945, 0, 0, -1.3333330154418945, 1855.3583183401793, 243.05351925623472)">
    <path d="m 0,0 v -14.544 l -5.256,7.272 z m 0,13.032 -0.721,0.072 -0.647,0.216 -0.721,0.216 -0.647,0.36 -0.649,0.432 -0.576,0.648 -0.503,0.648 -0.432,0.72 -0.649,1.728 -0.143,2.16 0.215,1.728 0.504,1.656 0.361,0.72 0.504,0.72 0.576,0.576 0.647,0.576 0.649,0.432 0.864,0.288 0.792,0.144 L 0,27.144 V 24.48 l -0.504,-0.072 -0.864,-0.216 -0.721,-0.576 -0.647,-0.936 -0.432,-1.152 -0.217,-1.584 0.217,-1.656 0.791,-1.44 0.505,-0.648 0.647,-0.36 0.721,-0.288 L 0,15.48 Z m -5.256,-2.16 h 2.375 l 0.145,-1.08 0.647,-1.008 0.36,-0.36 0.504,-0.288 0.504,-0.144 0.576,-0.072 H 0 V 5.544 l -0.145,-0.072 -0.863,0.072 -0.793,0.144 -0.72,0.216 -0.575,0.36 -0.577,0.432 -0.431,0.504 -0.36,0.576 -0.288,0.576 -0.36,1.296 z m 43.199,-9.648 -2.015,2.304 -1.945,2.232 -1.799,2.304 -1.8,2.376 -1.656,2.376 -1.584,2.376 -1.512,2.376 -1.368,2.376 -1.368,-2.232 -1.512,-2.376 -1.513,-2.376 -1.727,-2.304 -1.8,-2.376 -1.872,-2.376 -2.017,-2.376 -2.016,-2.304 1.801,-2.232 1.799,-2.16 1.801,-2.304 1.8,-2.304 1.656,-2.304 1.656,-2.448 1.655,-2.592 1.657,-2.592 1.368,2.376 1.655,2.376 1.584,2.448 1.656,2.448 1.8,2.304 1.801,2.448 1.872,2.304 z m 76.393,0 -1.944,2.304 -1.945,2.232 -1.871,2.304 -1.728,2.376 -1.657,2.376 -1.584,2.376 -1.439,2.376 -1.512,2.376 -1.297,-2.232 -1.511,-2.376 -1.512,-2.376 -1.8,-2.304 L 92.808,8.28 90.936,5.904 88.92,3.528 86.832,1.224 l 1.871,-2.232 1.801,-2.16 1.8,-2.304 1.727,-2.304 1.729,-2.304 1.655,-2.448 1.657,-2.592 1.584,-2.592 1.512,2.376 1.512,2.376 1.656,2.448 1.656,2.448 1.799,2.304 1.801,2.448 1.872,2.304 z m -76.393,-49.896 -2.015,2.304 -1.945,2.304 -1.799,2.304 -1.8,2.304 -1.656,2.376 -1.584,2.376 -1.512,2.376 -1.368,2.448 -1.368,-2.376 -1.512,-2.304 -1.513,-2.304 -1.727,-2.376 -1.8,-2.376 -1.872,-2.448 -2.017,-2.304 -2.016,-2.304 1.801,-2.232 1.799,-2.16 1.801,-2.304 1.8,-2.304 1.656,-2.304 1.656,-2.448 1.655,-2.52 1.657,-2.664 1.368,2.376 1.655,2.376 1.584,2.448 1.656,2.448 1.8,2.376 1.801,2.376 1.872,2.304 z m 76.393,0 -1.944,2.304 -1.945,2.304 -1.871,2.304 -1.728,2.304 -1.657,2.376 -1.584,2.376 -1.439,2.376 -1.512,2.448 -1.297,-2.376 -1.511,-2.304 -1.512,-2.304 -1.8,-2.376 -1.728,-2.376 -1.872,-2.448 -2.016,-2.304 -2.088,-2.304 1.871,-2.232 1.801,-2.16 1.8,-2.304 1.727,-2.304 1.729,-2.304 1.655,-2.448 1.657,-2.52 1.584,-2.664 1.512,2.376 1.512,2.376 1.656,2.448 1.656,2.448 1.799,2.376 1.801,2.376 1.872,2.304 z m -76.393,-49.824 -2.015,2.232 -1.945,2.304 -1.799,2.304 -1.8,2.304 -1.656,2.376 -1.584,2.448 -1.512,2.304 -1.368,2.448 -1.368,-2.232 -1.512,-2.304 -1.513,-2.448 -1.727,-2.304 -1.8,-2.448 -1.872,-2.304 -2.017,-2.376 -2.016,-2.304 1.801,-2.232 1.799,-2.16 1.801,-2.304 1.8,-2.304 1.656,-2.376 1.656,-2.376 1.655,-2.592 1.657,-2.664 1.368,2.448 1.655,2.376 1.584,2.448 1.656,2.376 1.8,2.448 1.801,2.376 1.872,2.304 z m 38.376,26.568 -2.015,2.232 -1.872,2.304 -1.872,2.376 -1.728,2.304 -1.656,2.304 -1.584,2.448 -1.512,2.376 -1.44,2.376 -1.225,-2.304 -1.511,-2.304 -1.585,-2.376 -1.727,-2.376 -1.729,-2.304 -1.871,-2.448 -2.016,-2.304 -2.088,-2.304 1.8,-2.232 1.8,-2.16 1.871,-2.232 1.729,-2.304 1.656,-2.304 1.655,-2.52 1.657,-2.52 1.584,-2.664 1.44,2.376 1.584,2.376 1.584,2.448 1.728,2.448 1.799,2.376 1.801,2.376 1.799,2.304 z m 38.017,-26.568 -1.944,2.232 -1.945,2.304 -1.871,2.304 -1.728,2.304 -1.657,2.376 -1.584,2.448 -1.439,2.304 -1.512,2.448 -1.297,-2.232 -1.511,-2.304 -1.512,-2.448 -1.8,-2.304 -1.728,-2.448 -1.872,-2.304 -2.016,-2.376 -2.088,-2.304 1.871,-2.232 1.801,-2.16 1.8,-2.304 1.727,-2.304 1.729,-2.376 1.655,-2.376 1.657,-2.592 1.584,-2.664 1.512,2.448 1.512,2.376 1.656,2.448 1.656,2.376 1.799,2.448 1.801,2.376 1.872,2.304 z m -76.393,-49.896 -2.015,2.232 -1.945,2.304 -1.799,2.377 -1.8,2.303 -1.656,2.376 -1.584,2.376 -1.512,2.376 -1.368,2.376 -1.368,-2.304 -1.512,-2.304 -1.513,-2.376 -1.727,-2.304 -1.8,-2.376 -1.872,-2.376 -2.017,-2.376 -2.016,-2.304 1.801,-2.232 1.799,-2.16 1.801,-2.232 1.8,-2.376 1.656,-2.304 1.656,-2.448 1.655,-2.52 1.657,-2.664 1.368,2.376 1.655,2.376 1.584,2.448 1.656,2.448 1.8,2.376 1.801,2.376 1.872,2.304 z m 76.393,0 -1.944,2.232 -1.945,2.304 -1.871,2.377 -1.728,2.303 -1.657,2.376 -1.584,2.376 -1.439,2.376 -1.512,2.376 -1.297,-2.304 -1.511,-2.304 -1.512,-2.376 -1.8,-2.304 -1.728,-2.376 -1.872,-2.376 -2.016,-2.376 -2.088,-2.304 1.871,-2.232 1.801,-2.16 1.8,-2.232 1.727,-2.376 1.729,-2.304 1.655,-2.448 1.657,-2.52 1.584,-2.664 1.512,2.376 1.512,2.376 1.656,2.448 1.656,2.448 1.799,2.376 1.801,2.376 1.872,2.304 z M 0,-14.544 V 0 l 0.647,0.936 5.976,-8.208 -5.976,-8.136 z m 126.144,-137.232 v -2.52 l -0.577,-0.072 -0.647,-0.288 -0.576,-0.288 -0.504,-0.504 -0.649,-1.152 -0.359,-1.368 -0.144,-1.44 -0.144,-2.232 0.647,0.864 0.792,0.72 0.505,0.288 0.504,0.144 0.575,0.072 0.577,0.073 v -2.377 h -0.216 l -0.792,-0.072 -0.576,-0.288 -0.577,-0.36 -0.504,-0.648 -0.575,-1.368 -0.144,-1.728 0.216,-1.944 0.719,-1.512 0.433,-0.504 0.504,-0.432 0.647,-0.143 0.649,-0.073 h 0.216 v -2.592 l -0.36,-0.072 -2.448,0.576 -1.656,1.656 -1.153,2.736 -0.359,3.816 0.072,2.88 0.072,2.232 0.215,1.872 0.504,1.944 0.288,0.864 0.433,0.792 0.504,0.72 0.576,0.648 0.647,0.432 0.865,0.36 0.935,0.216 z m 0,19.872 v -15.48 l -0.36,-0.432 -5.904,8.208 5.904,8.136 z M 0,7.92 l 0.576,0.072 0.72,0.216 0.575,0.36 0.36,0.504 0.721,1.152 0.288,1.368 0.215,1.44 L 3.6,15.192 2.952,14.328 2.088,13.68 1.584,13.392 1.08,13.176 0.576,13.104 0,13.032 v 2.448 h 0.287 l 0.649,0.072 0.648,0.288 0.576,0.36 0.432,0.576 0.648,1.44 0.144,1.728 -0.216,1.944 -0.721,1.44 L 1.943,23.832 1.439,24.264 0.863,24.48 0.287,24.552 0,24.48 v 2.664 H 0.287 L 2.735,26.64 4.536,24.912 5.615,22.176 5.976,18.36 5.904,15.624 5.832,13.32 5.615,11.376 5.184,9.432 4.824,8.568 4.392,7.776 3.888,7.056 3.24,6.48 2.592,6.048 1.728,5.76 0.936,5.544 H 0 Z m 126.144,-155.304 v 15.48 l 5.688,-7.704 z m 0,-6.912 v 2.52 h 0.143 l 0.864,-0.072 0.792,-0.144 0.721,-0.288 0.576,-0.36 0.575,-0.504 0.361,-0.504 0.431,-0.504 0.289,-0.648 0.431,-1.224 0.072,-1.296 h -2.303 l -0.288,1.152 -0.577,1.008 -0.431,0.36 -0.504,0.288 -0.505,0.144 -0.504,0.072 z m 0,-19.224 v 2.592 l 0.503,0.073 0.865,0.287 0.719,0.576 0.649,0.936 0.432,1.08 0.215,1.656 -0.215,1.656 -0.72,1.44 -0.504,0.576 -0.649,0.432 -0.792,0.288 -0.503,0.072 v 2.377 0.071 l 0.647,-0.144 0.793,-0.144 0.647,-0.216 0.649,-0.36 0.647,-0.504 0.577,-0.576 0.503,-0.72 0.432,-0.72 0.649,-1.728 0.144,-2.088 -0.217,-1.728 -0.504,-1.656 -0.431,-0.792 -0.504,-0.648 -0.504,-0.648 -0.576,-0.504 -0.792,-0.432 -0.72,-0.36 -0.864,-0.144 z" style="fill:#ff0000;fill-opacity:1;fill-rule:nonzero;stroke:none" id="path106"/>
  </g>
</svg>