<?xml version="1.0" encoding="utf-8"?>
<svg viewBox="1833.9492 1212.0768 209.3759 296.8319" xmlns="http://www.w3.org/2000/svg">
  <g id="g3960" transform="matrix(1.3333330154418945, 0, 0, -1.3333330154418945, 1842.014571521577, 1212.076766413138)">
    <path d="m 0,0 h 144.936 l 2.303,-0.648 1.945,-1.872 1.295,-2.665 0.504,-3.383 v -205.56 l -0.504,-3.24 -1.295,-2.736 -1.945,-1.873 -2.303,-0.647 H 0 l -2.377,0.647 -1.871,1.873 -1.369,2.736 -0.432,3.24 v 205.56 l 0.432,3.383 1.369,2.665 1.871,1.872 z" style="fill:#000000;fill-opacity:1;fill-rule:nonzero;stroke:none" id="path3962"/>
  </g>
  <g id="g3964" transform="matrix(1.3333330154418945, 0, 0, -1.3333330154418945, 1844.9898312288865, 1216.7811923748486)">
    <path d="m 0,0 h 140.472 l 2.232,-0.575 1.872,-1.801 1.296,-2.592 0.432,-3.24 v -199.224 l -0.432,-3.168 -1.296,-2.591 -1.872,-1.8 -2.232,-0.649 H 0 l -2.231,0.649 -1.873,1.8 -1.224,2.591 -0.432,3.168 V -8.208 l 0.432,3.24 1.224,2.592 1.873,1.801 z" style="fill:#ffffff;fill-opacity:1;fill-rule:nonzero;stroke:none" id="path3966"/>
  </g>
  <g id="g3968" transform="matrix(1.3333330154418945, 0, 0, -1.3333330154418945, 1855.3583183401793, 1254.0298407206394)">
    <path d="m 0,0 v -2.375 h -0.145 l -0.863,0.071 -0.793,0.145 -0.72,0.143 -0.575,0.361 -0.577,0.504 -0.431,0.431 -0.36,0.576 -0.288,0.577 -0.36,1.368 -0.144,1.223 h 2.375 L -2.736,1.873 -2.089,0.937 -1.729,0.505 -1.225,0.288 -0.721,0.072 -0.145,0 Z M 0,19.225 V 16.633 L -0.504,16.488 -1.368,16.272 -2.089,15.696 -2.736,14.833 -3.168,13.608 -3.385,12.097 -3.168,10.369 -2.377,9 -1.872,8.28 -1.225,7.921 -0.504,7.633 H 0 V 5.185 H -0.721 L -1.368,5.4 -2.089,5.688 -2.736,6.049 -3.385,6.48 l -0.576,0.577 -0.503,0.647 -0.432,0.792 -0.649,1.729 -0.143,2.088 0.215,1.728 0.504,1.655 0.361,0.792 0.504,0.649 0.576,0.648 0.647,0.503 0.649,0.433 0.864,0.288 0.792,0.216 z m 0,-43.993 h -2.736 l 1.224,2.449 0.648,2.52 v 2.304 l -0.792,1.727 h -0.433 l 0.504,-1.007 0.217,-1.153 -0.361,-1.223 -0.792,-1.008 -1.007,-0.649 -1.153,-0.215 -1.223,0.215 -1.008,0.792 -0.649,1.008 -0.143,1.296 1.079,3.313 2.521,3.383 2.592,3.168 1.44,2.593 L 0,-5.327 Z m 30.168,-1.44 h -9.721 l 2.592,4.896 1.08,4.968 -0.143,4.536 -1.369,3.456 h -0.863 l 1.008,-2.015 0.359,-2.233 -0.575,-2.519 -1.513,-1.944 -2.087,-1.296 -2.376,-0.504 -2.376,0.504 -1.872,1.439 -1.224,2.161 -0.504,2.52 0.576,3.095 1.584,3.385 2.304,3.384 2.664,3.312 2.663,3.311 2.521,3.097 1.872,2.735 1.08,2.521 0.936,-2.449 1.8,-2.736 2.304,-3.096 2.591,-3.311 2.593,-3.313 2.088,-3.455 1.584,-3.241 0.504,-3.239 -0.504,-2.52 -1.297,-2.161 -1.871,-1.439 -2.377,-0.504 -2.375,0.504 -2.089,1.296 -1.439,1.944 -0.649,2.519 0.361,2.233 1.008,2.015 H 28.08 l -1.296,-3.456 -0.217,-4.536 1.224,-4.968 z m 0,-48.743 h -9.721 l 2.592,4.824 1.08,5.039 -0.143,4.537 -1.369,3.384 h -0.863 l 1.008,-1.944 0.359,-2.305 -0.575,-2.447 -1.513,-2.017 -2.087,-1.224 -2.376,-0.503 -2.376,0.503 -1.872,1.441 -1.224,2.159 -0.504,2.521 0.576,3.095 1.584,3.313 2.304,3.384 2.664,3.383 2.663,3.241 2.521,3.168 1.872,2.736 1.08,2.448 0.936,-2.448 1.8,-2.736 2.304,-3.096 2.591,-3.313 2.593,-3.311 2.088,-3.456 1.584,-3.24 0.504,-3.168 -0.504,-2.521 -1.297,-2.159 -1.871,-1.441 -2.377,-0.503 -2.375,0.503 -2.089,1.224 -1.439,2.017 -0.649,2.447 0.361,2.305 1.008,1.944 H 28.08 l -1.296,-3.384 -0.217,-4.537 1.224,-5.039 z m 0,-10.008 h -9.721 l 2.592,-4.824 1.08,-5.04 -0.143,-4.536 -1.369,-3.384 -0.863,-0.072 1.008,2.016 0.359,2.232 -0.575,2.52 -1.513,2.016 -2.087,1.296 -2.376,0.431 -2.376,-0.504 -1.872,-1.44 -1.224,-2.159 -0.504,-2.448 0.576,-3.168 1.584,-3.384 2.304,-3.312 2.664,-3.385 2.663,-3.312 2.521,-3.096 1.872,-2.88 1.08,-2.447 0.936,2.447 1.8,2.808 2.304,3.097 2.591,3.312 2.593,3.383 2.088,3.385 1.584,3.311 0.504,3.241 -0.504,2.448 -1.297,2.159 -1.871,1.44 -2.377,0.504 -2.375,-0.431 -2.089,-1.296 -1.439,-2.016 -0.649,-2.52 0.361,-2.232 1.008,-2.016 -0.936,0.072 -1.296,3.384 -0.217,4.536 1.224,5.04 z m 37.656,26.567 h -9.648 l 2.519,-4.823 1.08,-5.04 -0.072,-4.537 -1.367,-3.383 -0.937,-0.073 1.009,2.017 0.36,2.303 -0.577,2.449 -1.511,2.016 -2.088,1.296 -2.376,0.359 -2.305,-0.504 -1.872,-1.368 -1.295,-2.088 -0.504,-2.591 0.648,-3.096 1.584,-3.313 2.231,-3.383 2.736,-3.384 2.665,-3.312 2.448,-3.096 1.944,-2.809 1.008,-2.447 0.935,2.447 1.801,2.736 2.304,3.169 2.592,3.24 2.592,3.456 2.087,3.383 1.512,3.241 0.577,3.168 -0.505,2.591 -1.223,2.088 -1.945,1.368 -2.376,0.504 -2.376,-0.359 -2.087,-1.296 -1.512,-2.016 -0.576,-2.449 0.36,-2.303 1.008,-2.017 -0.937,0.073 -1.367,3.383 -0.144,4.537 1.151,5.04 z m -37.656,-75.311 h -9.721 l 2.592,-4.824 1.08,-5.04 -0.143,-4.537 -1.369,-3.456 h -0.863 l 1.008,1.945 0.359,2.303 -0.575,2.449 -1.513,2.016 -2.087,1.296 -2.376,0.504 -2.376,-0.504 -1.872,-1.512 -1.224,-2.088 -0.504,-2.52 0.576,-3.097 1.584,-3.383 2.304,-3.384 2.664,-3.312 2.663,-3.312 2.521,-3.168 1.872,-2.808 1.08,-2.449 0.936,2.449 1.8,2.808 2.304,3.023 2.591,3.384 2.593,3.385 2.088,3.384 1.584,3.312 0.504,3.168 -0.504,2.52 -1.297,2.088 -1.871,1.512 -2.377,0.504 -2.375,-0.504 -2.089,-1.296 -1.439,-2.016 -0.649,-2.449 0.361,-2.303 1.008,-1.945 H 28.08 l -1.296,3.456 -0.217,4.537 1.224,5.04 z m 75.311,107.495 h -9.647 l 2.52,4.896 1.08,4.968 -0.073,4.536 -1.367,3.456 h -0.936 l 1.007,-2.015 0.361,-2.233 -0.576,-2.519 -1.512,-1.944 -2.088,-1.296 -2.377,-0.504 -2.375,0.504 -1.801,1.439 -1.368,2.161 -0.431,2.52 0.648,3.095 1.584,3.385 2.231,3.384 2.664,3.312 2.737,3.311 2.376,3.097 2.015,2.735 1.009,2.521 1.008,-2.449 1.8,-2.736 2.376,-3.096 2.519,-3.311 2.521,-3.313 2.16,-3.455 1.439,-3.241 0.649,-3.239 -0.504,-2.52 -1.296,-2.161 -1.944,-1.439 -2.304,-0.504 -2.448,0.504 -2.088,1.296 -1.512,1.944 -0.505,2.519 0.361,2.233 0.935,2.015 h -0.863 l -1.368,-3.456 -0.216,-4.536 1.151,-4.968 z m 0,-48.743 h -9.647 l 2.52,4.824 1.08,5.039 -0.073,4.537 -1.367,3.384 h -0.936 l 1.007,-1.944 0.361,-2.305 -0.576,-2.447 -1.512,-2.017 -2.088,-1.224 -2.377,-0.503 -2.375,0.503 -1.801,1.441 -1.368,2.159 -0.431,2.521 0.648,3.095 1.584,3.313 2.231,3.384 2.664,3.383 2.737,3.241 2.376,3.168 2.015,2.736 1.009,2.448 1.008,-2.448 1.8,-2.736 2.376,-3.096 2.519,-3.313 2.521,-3.311 2.16,-3.456 1.439,-3.24 0.649,-3.168 -0.504,-2.521 -1.296,-2.159 -1.944,-1.441 -2.304,-0.503 -2.448,0.503 -2.088,1.224 -1.512,2.017 -0.505,2.447 0.361,2.305 0.935,1.944 h -0.863 l -1.368,-3.384 -0.216,-4.537 1.151,-5.039 z m 0,-10.008 h -9.647 l 2.52,-4.824 1.08,-5.04 -0.073,-4.536 -1.367,-3.384 -0.936,-0.072 1.007,2.016 0.361,2.232 -0.576,2.52 -1.512,2.016 -2.088,1.296 -2.377,0.431 -2.375,-0.504 -1.801,-1.44 -1.368,-2.159 -0.431,-2.448 0.648,-3.168 1.584,-3.384 2.231,-3.312 2.664,-3.385 2.737,-3.312 2.376,-3.096 2.015,-2.88 1.009,-2.447 1.008,2.447 1.8,2.808 2.376,3.097 2.519,3.312 2.521,3.383 2.16,3.385 1.439,3.311 0.649,3.241 -0.504,2.448 -1.296,2.159 -1.944,1.44 -2.304,0.504 -2.448,-0.431 -2.088,-1.296 -1.512,-2.016 -0.505,-2.52 0.361,-2.232 0.935,-2.016 -0.863,0.072 -1.368,3.384 -0.216,4.536 1.151,5.04 z m 0,-48.744 h -9.647 l 2.52,-4.824 1.08,-5.04 -0.073,-4.537 -1.367,-3.456 h -0.936 l 1.007,1.945 0.361,2.303 -0.576,2.449 -1.512,2.016 -2.088,1.296 -2.377,0.504 -2.375,-0.504 -1.801,-1.512 -1.368,-2.088 -0.431,-2.52 0.648,-3.097 1.584,-3.383 2.231,-3.384 2.664,-3.312 2.737,-3.312 2.376,-3.168 2.015,-2.808 1.009,-2.449 1.008,2.449 1.8,2.808 2.376,3.023 2.519,3.384 2.521,3.385 2.16,3.384 1.439,3.312 0.649,3.168 -0.504,2.52 -1.296,2.088 -1.944,1.512 -2.304,0.504 -2.448,-0.504 -2.088,-1.296 -1.512,-2.016 -0.505,-2.449 0.361,-2.303 0.935,-1.945 h -0.863 l -1.368,3.456 -0.216,4.537 1.151,5.04 z M 0,-2.375 V 0 l 0.576,0.072 0.72,0.216 0.575,0.36 0.36,0.504 L 2.952,2.305 3.24,3.673 3.455,5.185 3.6,7.345 2.952,6.48 2.088,5.833 1.584,5.545 1.08,5.329 0.576,5.185 H 0 V 7.633 L 0.287,7.561 0.936,7.633 1.584,7.921 2.16,8.28 2.592,8.929 3.24,10.297 3.384,12.097 3.168,13.969 2.447,15.48 1.943,15.984 1.439,16.345 0.863,16.633 H 0.287 0 v 2.592 L 0.287,19.297 2.735,18.721 4.536,16.992 5.615,14.329 5.976,10.44 5.904,7.704 5.832,5.4 5.615,3.457 5.184,1.584 4.824,0.648 4.392,-0.071 3.888,-0.863 3.24,-1.439 2.592,-1.799 1.728,-2.159 0.936,-2.304 Z m 126.144,-157.32 v -2.52 l -0.577,-0.072 -0.647,-0.217 -0.576,-0.359 -0.504,-0.504 -0.649,-1.08 -0.359,-1.368 -0.144,-1.512 -0.144,-2.233 0.647,0.865 0.792,0.719 0.505,0.288 0.504,0.145 0.575,0.144 0.577,0.072 v -2.448 l -0.216,0.072 -0.792,-0.144 -0.576,-0.216 -0.577,-0.432 -0.504,-0.576 -0.575,-1.441 -0.144,-1.727 0.216,-1.945 0.719,-1.439 0.433,-0.576 0.504,-0.361 0.647,-0.215 0.649,-0.072 0.216,0.072 v -2.664 l -0.36,-0.073 -2.448,0.649 -1.656,1.655 -1.153,2.737 -0.359,3.816 0.072,2.808 0.072,2.232 0.215,1.944 0.504,1.872 0.288,0.936 0.433,0.792 0.504,0.719 0.576,0.577 0.647,0.504 0.865,0.36 0.935,0.143 z m 0,24.048 v -19.441 l -0.145,-0.216 -1.367,2.592 -2.448,3.241 -2.376,3.455 -1.08,3.313 0.288,1.224 0.648,1.08 1.008,0.719 1.152,0.217 1.152,-0.217 1.08,-0.647 0.719,-0.936 0.361,-1.297 -0.144,-1.152 -0.577,-0.935 h 0.36 l 0.792,1.656 0.073,2.303 -0.577,2.521 -1.223,2.52 z M 2.088,-24.768 H 0 v 19.441 l 1.368,-2.521 2.52,-3.168 2.303,-3.383 1.008,-3.313 -0.216,-1.296 -0.647,-1.008 -1.009,-0.792 -1.151,-0.215 -1.224,0.215 -1.009,0.649 -0.863,1.008 -0.217,1.223 0.217,1.153 0.504,1.007 H 1.08 l -0.648,-1.727 -0.073,-2.304 0.577,-2.52 z m 124.056,-130.32 v 19.441 h 2.664 l -1.224,-2.52 -0.648,-2.521 0.072,-2.303 0.72,-1.656 h 0.432 l -0.504,0.935 -0.144,1.152 0.288,1.297 0.792,0.936 1.008,0.647 1.224,0.217 1.152,-0.217 1.007,-0.719 0.649,-1.08 0.143,-1.224 -1.08,-3.313 -2.519,-3.383 -2.592,-3.313 z m 0,-7.127 v 2.52 h 0.143 l 0.864,-0.073 0.792,-0.143 0.721,-0.288 0.576,-0.361 0.575,-0.503 0.361,-0.504 0.431,-0.433 0.289,-0.647 0.431,-1.296 0.072,-1.224 h -2.303 l -0.288,1.151 -0.577,0.937 -0.431,0.432 -0.504,0.215 -0.505,0.145 -0.504,0.072 z m 0,-19.224 v 2.664 l 0.503,0.072 0.865,0.216 0.719,0.576 0.649,0.935 0.432,1.153 0.215,1.584 -0.215,1.655 -0.72,1.44 -0.504,0.577 -0.649,0.504 -0.792,0.216 -0.503,0.072 v 2.448 l 0.647,-0.072 0.793,-0.216 0.647,-0.217 0.649,-0.359 0.647,-0.504 0.577,-0.504 0.503,-0.721 0.432,-0.792 0.649,-1.727 0.144,-2.016 -0.217,-1.8 -0.504,-1.656 -0.431,-0.792 -0.504,-0.649 -0.504,-0.648 -0.576,-0.504 -0.792,-0.359 -0.72,-0.36 -0.864,-0.144 z" style="fill:#000000;fill-opacity:1;fill-rule:nonzero;stroke:none" id="path3970"/>
  </g>
</svg>