<?xml version="1.0" encoding="utf-8"?>
<svg viewBox="1833.9492 532.6849 209.3759 296.8319" xmlns="http://www.w3.org/2000/svg">
  <g id="g1844" transform="matrix(1.3333330154418945, 0, 0, -1.3333330154418945, 1842.014571521577, 532.6849606193683)">
    <path d="m 0,0 h 144.936 l 2.303,-0.648 1.945,-1.872 1.295,-2.664 0.504,-3.384 v -205.56 l -0.504,-3.312 -1.295,-2.664 -1.945,-1.872 -2.303,-0.648 H 0 l -2.377,0.648 -1.871,1.872 -1.369,2.664 -0.432,3.312 v 205.56 l 0.432,3.384 1.369,2.664 1.871,1.872 z" style="fill:#000000;fill-opacity:1;fill-rule:nonzero;stroke:none" id="path1846"/>
  </g>
  <g id="g1848" transform="matrix(1.3333330154418945, 0, 0, -1.3333330154418945, 1844.9898312288865, 537.3892238207009)">
    <path d="m 0,0 h 140.472 l 2.232,-0.576 1.872,-1.8 1.296,-2.592 0.432,-3.24 v -199.224 l -0.432,-3.168 -1.296,-2.664 -1.872,-1.728 -2.232,-0.648 H 0 l -2.231,0.648 -1.873,1.728 -1.224,2.664 -0.432,3.168 V -8.208 l 0.432,3.24 1.224,2.592 1.873,1.8 z" style="fill:#ffffff;fill-opacity:1;fill-rule:nonzero;stroke:none" id="path1850"/>
  </g>
  <g id="g1852" transform="matrix(1.3333330154418945, 0, 0, -1.3333330154418945, 1855.3583183401793, 584.6212275336692)">
    <path d="m 0,0 v -9.36 l -0.145,0.72 v 0.144 L -0.216,-8.352 -0.721,-10.44 0,-13.32 v -0.576 h -2.592 l 1.007,3.456 -0.647,2.088 V -8.496 -8.64 l -0.289,-1.296 -0.647,-1.008 -0.936,-0.648 -1.296,-0.288 -1.296,0.288 -1.008,0.648 -0.72,1.008 -0.289,1.296 0.289,1.296 0.72,1.008 1.008,0.648 1.296,0.288 0.648,-0.072 0.576,-0.216 0.503,-0.288 0.505,-0.36 0.287,0.144 h 0.145 l 0.144,0.36 -0.793,0.432 -0.504,0.648 -0.431,0.864 -0.073,0.936 0.289,1.224 0.648,1.08 1.079,0.648 1.225,0.288 z m 0,12.6 -0.721,0.072 -0.647,0.216 -0.721,0.216 -0.647,0.36 -0.649,0.504 -0.576,0.576 -0.503,0.648 -0.432,0.72 -0.649,1.8 -0.143,2.088 0.215,1.728 0.504,1.656 0.361,0.72 0.504,0.72 0.576,0.576 0.647,0.576 0.649,0.432 0.864,0.288 0.792,0.216 H 0 V 24.12 l -0.504,-0.144 -0.864,-0.216 -0.721,-0.576 -0.647,-0.936 -0.432,-1.152 -0.217,-1.584 0.217,-1.656 0.791,-1.44 0.505,-0.648 0.647,-0.36 L -0.504,15.12 0,15.048 Z m -5.256,-2.088 h 2.375 L -2.736,9.36 -2.089,8.352 -1.729,7.992 -1.225,7.704 -0.721,7.56 -0.145,7.488 H 0 V 5.112 h -0.145 -0.863 l -0.793,0.144 -0.72,0.216 -0.575,0.36 -0.577,0.432 -0.431,0.504 -0.36,0.576 -0.288,0.576 -0.36,1.296 z M 0,-9.36 V 0 H 0.144 L 1.08,-0.648 1.728,-1.728 2.016,-2.952 1.584,-4.536 0.432,-5.76 v -0.288 l 0.144,-0.144 h 0.36 l 0.503,0.288 0.504,0.216 0.504,0.216 0.649,0.072 1.223,-0.288 1.08,-0.648 0.649,-1.008 0.288,-1.296 -0.288,-1.296 -0.649,-1.008 -1.08,-0.648 -1.223,-0.288 -1.368,0.288 -0.937,0.648 -0.647,1.008 z m 0,-4.536 v 0.576 l 0.144,-0.576 z m 44.64,-122.04 v -7.2 l -1.441,-2.16 -2.663,-1.8 -3.097,-0.576 -1.511,0.144 -1.513,0.432 -1.367,0.792 -1.224,0.864 -0.576,-0.144 -0.504,-0.216 -0.217,-0.792 1.8,-1.152 1.441,-1.656 0.864,-2.016 0.36,-2.304 -0.577,-3.096 -1.727,-2.52 -2.592,-1.8 -3.168,-0.576 -3.168,0.576 -2.52,1.8 -1.801,2.52 -0.576,3.096 0.217,2.16 0.863,1.8 1.297,1.728 1.656,1.224 -0.144,0.576 -0.504,0.432 -0.648,0.216 -1.153,-0.864 -1.223,-0.648 -1.44,-0.432 -1.513,-0.144 -3.095,0.576 -2.592,1.8 -1.8,2.592 -0.577,3.168 0.577,3.096 1.8,2.592 2.592,1.728 3.095,0.648 3.097,-0.648 2.52,-1.728 1.727,-2.592 0.649,-3.096 v -0.432 l 0.072,-0.432 1.296,1.656 0.216,3.672 -0.72,4.536 -1.801,3.96 h 7.2 l -1.799,-3.96 -0.72,-4.464 0.288,-3.744 1.079,-1.656 v 0.432 0.432 l 0.721,3.096 1.728,2.592 2.591,1.728 3.024,0.648 3.097,-0.648 2.663,-1.728 z m 0,48.744 v -7.2 l -1.441,-2.088 -2.663,-1.8 -3.097,-0.576 -1.511,0.144 -1.513,0.432 -1.367,0.72 -1.224,0.864 -0.576,-0.144 -0.504,-0.216 -0.217,-0.72 1.8,-1.224 1.441,-1.656 0.864,-1.944 0.36,-2.304 -0.577,-3.096 -1.727,-2.592 -2.592,-1.8 -3.168,-0.576 -3.168,0.576 -2.52,1.8 -1.801,2.592 -0.576,3.096 0.217,2.088 0.863,1.872 1.297,1.656 1.656,1.224 -0.144,0.648 -0.504,0.432 -0.648,0.216 -1.153,-0.864 -1.223,-0.72 -1.44,-0.36 -1.513,-0.144 -3.095,0.576 -2.592,1.8 -1.8,2.592 -0.577,3.096 0.577,3.168 1.8,2.52 2.592,1.728 3.095,0.648 3.097,-0.648 2.52,-1.728 1.727,-2.52 0.649,-3.168 v -0.36 l 0.072,-0.432 1.296,1.656 0.216,3.672 -0.72,4.464 -1.801,3.96 h 7.2 l -1.799,-3.96 -0.72,-4.464 0.288,-3.672 1.079,-1.656 v 0.432 0.36 l 0.721,3.168 1.728,2.52 2.591,1.728 3.024,0.648 3.097,-0.648 2.663,-1.728 z m 0,22.176 v -7.2 l -0.361,0.432 -0.576,3.168 0.576,3.168 z m 0,18.36 v -6.912 l -1.584,-2.232 -2.592,-1.728 -3.025,-0.648 -3.168,0.648 -2.519,1.728 -1.729,2.52 -0.648,3.168 v 0.36 l -0.144,0.36 -1.151,-1.584 -0.144,-3.6 0.648,-4.464 1.656,-4.032 h -6.984 l 1.727,4.032 0.792,4.392 -0.287,3.672 -1.224,1.584 v -0.36 -0.36 l -0.649,-3.168 -1.727,-2.52 -2.52,-1.728 -3.097,-0.648 -3.095,0.648 -2.592,1.728 -1.8,2.52 -0.577,3.168 0.577,3.168 1.8,2.448 2.592,1.8 3.095,0.576 1.584,-0.144 1.513,-0.432 1.367,-0.792 1.153,-0.864 0.648,0.216 0.432,0.144 0.288,0.792 -1.872,1.224 -1.441,1.656 -0.863,2.016 -0.289,2.232 0.577,3.096 1.728,2.664 2.592,1.656 3.096,0.648 3.096,-0.648 2.519,-1.656 1.729,-2.664 0.647,-3.096 -0.287,-2.088 -0.793,-1.8 -1.296,-1.728 -1.655,-1.296 0.144,-0.576 0.504,-0.432 0.647,-0.216 1.152,0.864 1.297,0.648 1.44,0.432 1.511,0.144 3.025,-0.576 2.592,-1.8 z m 0,48.744 v -6.84 l -1.584,-2.232 -2.592,-1.728 -3.025,-0.72 -3.168,0.72 -2.519,1.728 -1.729,2.52 -0.648,3.168 v 0.36 l -0.144,0.288 -1.151,-1.584 -0.144,-3.6 0.648,-4.464 1.656,-3.96 h -6.984 l 1.727,3.96 0.792,4.464 -0.287,3.6 -1.224,1.584 v -0.288 -0.36 l -0.649,-3.168 -1.727,-2.52 -2.52,-1.728 -3.097,-0.72 -3.095,0.72 -2.592,1.728 -1.8,2.52 -0.577,3.168 0.577,3.096 1.8,2.52 2.592,1.728 3.095,0.576 1.584,-0.144 1.513,-0.432 1.367,-0.72 1.153,-0.864 0.648,0.144 0.432,0.216 0.288,0.792 -1.872,1.152 -1.441,1.656 -0.863,2.016 -0.289,2.232 0.577,3.096 1.728,2.664 2.592,1.728 3.096,0.576 3.096,-0.576 2.519,-1.728 1.729,-2.664 0.647,-3.096 -0.287,-2.016 -0.793,-1.872 -1.296,-1.656 -1.655,-1.296 0.144,-0.576 0.504,-0.504 0.647,-0.144 1.152,0.864 1.297,0.648 1.44,0.36 1.511,0.144 3.025,-0.576 2.592,-1.728 z M 0,7.488 0.576,7.56 1.296,7.776 1.871,8.136 2.231,8.64 2.952,9.792 3.24,11.16 3.455,12.6 3.6,14.76 2.952,13.968 2.088,13.248 1.584,12.96 1.08,12.816 0.576,12.672 0,12.6 v 2.448 h 0.287 l 0.649,0.072 0.648,0.288 0.576,0.36 0.432,0.648 0.648,1.368 0.144,1.728 L 3.168,21.456 2.447,22.968 1.943,23.4 1.439,23.832 0.863,24.048 0.287,24.12 H 0 v 2.592 H 0.287 L 2.735,26.208 4.536,24.48 5.615,21.816 5.976,17.928 5.904,15.192 5.832,12.888 5.615,10.944 5.184,9 4.824,8.136 4.392,7.416 3.888,6.624 3.24,6.048 2.592,5.616 1.728,5.328 0.936,5.112 H 0 Z m 44.64,-12.24 v 6.84 L 44.784,1.8 45.432,-1.296 44.784,-4.464 Z m 0,-48.816 v 6.912 l 0.144,-0.288 0.648,-3.168 -0.648,-3.168 z m 0,-40.824 0.288,0.504 0.576,3.096 -0.576,3.168 -0.288,0.432 z m 0,-48.744 v 7.2 l 0.288,-0.504 0.576,-3.096 -0.576,-3.168 z m 35.423,7.2 v -7.272 l -0.36,0.504 -0.575,3.168 0.575,3.096 z m 0,48.744 -0.36,-0.432 -0.575,-3.168 0.575,-3.096 0.36,-0.504 z m 0,22.176 v -7.272 l -1.44,-2.016 -2.592,-1.8 -3.095,-0.648 -1.657,0.216 -1.439,0.432 -1.296,0.72 -1.296,0.936 -0.576,-0.216 -0.432,-0.216 -0.36,-0.72 1.872,-1.224 1.439,-1.656 0.865,-2.016 0.359,-2.304 -0.575,-3.096 -1.729,-2.52 -2.591,-1.728 -3.096,-0.648 -3.168,0.648 -2.521,1.728 -1.799,2.52 -0.577,3.096 0.217,2.16 0.863,1.8 1.225,1.728 1.655,1.224 -0.143,0.648 -0.432,0.432 -0.648,0.216 -1.153,-0.864 -1.296,-0.72 -1.44,-0.36 -1.512,-0.216 -3.095,0.648 -2.52,1.8 -1.44,2.088 v 7.2 l 1.44,2.016 2.52,1.8 3.095,0.648 3.168,-0.648 2.521,-1.8 1.727,-2.448 0.649,-3.168 v -0.432 l 0.072,-0.432 1.224,1.656 0.288,3.672 -0.792,4.464 -1.728,4.032 h 7.056 l -1.729,-4.032 -0.719,-4.464 0.288,-3.672 1.151,-1.656 v 0.432 0.432 l 0.721,3.168 1.656,2.448 2.592,1.8 3.096,0.648 3.095,-0.648 2.592,-1.8 z m 0,18.504 v -7.2 l -0.36,0.432 -0.575,3.168 0.575,3.168 z m 0,48.744 v -7.128 l -0.36,0.432 -0.575,3.168 0.575,3.096 z m 0,-7.128 v 7.128 l 1.441,2.088 2.592,1.728 3.095,0.576 1.584,-0.144 1.512,-0.432 1.297,-0.72 1.224,-0.864 0.576,0.144 0.504,0.216 0.288,0.792 -1.872,1.152 -1.441,1.656 -0.864,2.016 -0.359,2.232 0.647,3.096 1.729,2.664 2.52,1.728 3.167,0.576 3.097,-0.576 2.592,-1.728 1.656,-2.664 0.647,-3.096 -0.287,-2.016 -0.793,-1.872 -1.223,-1.656 -1.728,-1.296 0.144,-0.576 0.504,-0.504 0.647,-0.144 1.08,0.864 1.369,0.648 1.367,0.36 1.512,0.144 3.097,-0.576 2.592,-1.728 1.727,-2.52 0.576,-3.096 -0.576,-3.168 -1.727,-2.52 -2.592,-1.728 -3.097,-0.72 -3.096,0.72 -2.591,1.728 -1.657,2.52 -0.647,3.168 v 0.36 l -0.145,0.288 -1.152,-1.584 -0.215,-3.6 0.648,-4.464 1.728,-3.96 h -6.984 l 1.728,3.96 0.791,4.464 -0.359,3.6 -1.152,1.584 v -0.288 -0.36 l -0.648,-3.168 -1.728,-2.52 -2.521,-1.728 -3.096,-0.72 -3.095,0.72 -2.592,1.728 z m 0,-48.816 v 7.2 l 1.441,2.016 2.592,1.8 3.095,0.576 1.584,-0.144 1.512,-0.432 1.297,-0.792 1.224,-0.864 0.576,0.216 0.504,0.144 0.288,0.792 -1.872,1.224 -1.441,1.656 -0.864,2.016 -0.359,2.232 0.647,3.096 1.729,2.664 2.52,1.656 3.167,0.648 3.097,-0.648 2.592,-1.656 1.656,-2.664 0.647,-3.096 -0.287,-2.088 -0.793,-1.8 -1.223,-1.728 -1.728,-1.296 0.144,-0.576 0.504,-0.432 0.647,-0.216 1.08,0.864 1.369,0.648 1.367,0.432 1.512,0.144 3.097,-0.576 2.592,-1.8 1.727,-2.448 0.576,-3.168 -0.576,-3.168 -1.727,-2.52 -2.592,-1.728 -3.097,-0.648 -3.096,0.648 -2.591,1.728 -1.657,2.52 -0.647,3.168 v 0.36 l -0.145,0.36 -1.152,-1.584 -0.215,-3.6 0.648,-4.464 1.728,-4.032 h -6.984 l 1.728,4.032 0.791,4.392 -0.359,3.672 -1.152,1.584 v -0.36 -0.36 l -0.648,-3.168 -1.728,-2.52 -2.521,-1.728 -3.096,-0.648 -3.095,0.648 -2.592,1.728 z m 0,-18.576 v 7.272 l 0.289,-0.432 0.576,-3.168 -0.576,-3.168 z m 0,-22.104 v 7.2 l 1.441,2.088 2.592,1.728 3.095,0.648 3.096,-0.648 2.521,-1.728 1.728,-2.52 0.648,-3.168 v -0.36 l 0.072,-0.432 1.223,1.656 0.289,3.672 -0.792,4.464 -1.728,3.96 h 7.127 l -1.728,-3.96 -0.719,-4.464 0.216,-3.672 1.224,-1.656 v 0.432 0.36 l 0.648,3.168 1.728,2.52 2.592,1.728 3.023,0.648 3.168,-0.648 2.592,-1.728 1.656,-2.52 0.649,-3.168 -0.649,-3.096 -1.656,-2.592 -2.592,-1.8 -3.168,-0.576 -1.584,0.144 -1.439,0.432 -1.368,0.72 -1.224,0.864 -0.576,-0.144 -0.504,-0.216 -0.289,-0.72 1.801,-1.224 1.512,-1.656 0.864,-1.944 0.359,-2.304 -0.575,-3.096 -1.8,-2.592 -2.593,-1.8 -3.095,-0.576 -3.168,0.576 -2.52,1.8 -1.801,2.592 -0.575,3.096 0.215,2.088 0.864,1.872 1.225,1.656 1.656,1.224 -0.072,0.648 -0.504,0.432 -0.648,0.216 -1.152,-0.864 -1.224,-0.72 -1.512,-0.36 -1.441,-0.144 -3.095,0.576 -2.592,1.8 z m 0,-48.816 v 7.272 l 1.441,2.088 2.592,1.728 3.095,0.648 3.096,-0.648 2.521,-1.728 1.728,-2.592 0.648,-3.096 v -0.432 l 0.072,-0.432 1.223,1.656 0.289,3.672 -0.792,4.536 -1.728,3.96 h 7.127 l -1.728,-3.96 -0.719,-4.464 0.216,-3.744 1.224,-1.656 v 0.432 0.432 l 0.648,3.096 1.728,2.592 2.592,1.728 3.023,0.648 3.168,-0.648 2.592,-1.728 1.656,-2.592 0.649,-3.096 -0.649,-3.168 -1.656,-2.592 -2.592,-1.8 -3.168,-0.576 -1.584,0.144 -1.439,0.432 -1.368,0.792 -1.224,0.864 -0.576,-0.144 -0.504,-0.216 -0.289,-0.792 1.801,-1.152 1.512,-1.656 0.864,-2.016 0.359,-2.304 -0.575,-3.096 -1.8,-2.52 -2.593,-1.8 -3.095,-0.576 -3.168,0.576 -2.52,1.8 -1.801,2.52 -0.575,3.096 0.215,2.16 0.864,1.8 1.225,1.728 1.656,1.224 -0.072,0.576 -0.504,0.432 -0.648,0.216 -1.152,-0.864 -1.224,-0.648 -1.512,-0.432 -1.441,-0.144 -3.095,0.576 -2.592,1.8 z m 46.081,-9 v -2.52 l -0.577,-0.072 -0.647,-0.288 -0.576,-0.288 -0.504,-0.504 -0.649,-1.152 -0.359,-1.368 -0.144,-1.44 -0.144,-2.232 0.647,0.864 0.792,0.72 0.505,0.288 0.504,0.144 0.575,0.072 0.577,0.144 v -2.448 h -0.216 l -0.792,-0.072 -0.576,-0.288 -0.577,-0.36 -0.504,-0.576 -0.575,-1.44 -0.144,-1.728 0.216,-1.944 0.719,-1.44 0.433,-0.576 0.504,-0.432 0.647,-0.144 0.649,-0.072 h 0.216 v -2.592 l -0.36,-0.072 -2.448,0.576 -1.656,1.656 -1.153,2.808 -0.359,3.744 0.072,2.88 0.072,2.232 0.215,1.944 0.504,1.872 0.288,0.864 0.433,0.864 0.504,0.648 0.576,0.648 0.647,0.504 0.865,0.288 0.935,0.216 z m 0,20.664 v -1.008 l -0.648,-2.448 0.503,-2.088 0.073,0.144 v 0.216 l 0.072,0.36 v -9.216 l -1.081,-0.216 -1.223,0.288 -1.08,0.72 -0.721,1.008 -0.215,1.296 0.072,0.936 0.431,0.792 0.505,0.648 0.863,0.504 -0.216,0.36 h -0.143 l -0.288,0.072 -0.504,-0.36 -0.505,-0.216 -0.503,-0.288 h -0.721 l -1.295,0.288 -1.008,0.648 -0.721,1.008 -0.287,1.368 0.287,1.296 0.721,0.936 1.008,0.648 1.295,0.36 1.224,-0.36 1.009,-0.648 0.72,-0.936 0.215,-1.296 v -0.216 -0.144 l 0.649,2.088 -0.937,3.456 z m 0,-1.008 v 1.008 h 0.288 z m 0,-13.032 v 9.216 l 0.143,0.936 0.721,0.936 1.008,0.648 1.296,0.36 1.224,-0.36 1.079,-0.648 0.721,-0.936 0.216,-1.296 -0.216,-1.368 -0.721,-1.008 -1.079,-0.648 -1.224,-0.288 h -0.648 l -0.504,0.144 -0.504,0.36 -0.505,0.288 h -0.36 l -0.144,-0.216 v -0.288 l 1.153,-1.08 0.431,-1.656 -0.288,-1.296 -0.647,-1.008 -1.009,-0.72 z m 0,-9.144 v 2.52 h 0.143 l 0.864,-0.072 0.792,-0.144 0.721,-0.288 0.576,-0.36 0.575,-0.504 0.361,-0.504 0.431,-0.504 0.289,-0.648 0.431,-1.224 0.072,-1.296 h -2.303 l -0.288,1.152 -0.577,1.008 -0.431,0.36 -0.504,0.288 -0.505,0.144 -0.504,0.072 z m 0,-19.224 v 2.592 l 0.503,0.072 0.865,0.288 0.719,0.576 0.649,0.936 0.432,1.152 0.215,1.584 -0.215,1.656 -0.72,1.44 -0.504,0.576 -0.649,0.432 -0.792,0.288 -0.503,0.072 v 2.448 l 0.647,-0.144 0.793,-0.144 0.647,-0.216 0.649,-0.36 0.647,-0.504 0.577,-0.576 0.503,-0.648 0.432,-0.792 0.649,-1.728 0.144,-2.088 -0.217,-1.728 -0.504,-1.656 -0.431,-0.792 -0.504,-0.648 -0.504,-0.648 -0.576,-0.504 -0.792,-0.432 -0.72,-0.288 -0.864,-0.216 z" style="fill:#000000;fill-opacity:1;fill-rule:nonzero;stroke:none" id="path1854"/>
  </g>
</svg>