<?xml version="1.0" encoding="utf-8"?>
<svg viewBox="2578.3337 186.8934 212.064 300.4799" xmlns="http://www.w3.org/2000/svg">
  <g id="g862" transform="matrix(1.3333330154418945, 0, 0, -1.3333330154418945, 2586.4935606905783, 186.89337639585935)">
    <path d="m 0,0 h 146.88 l 2.305,-0.648 2.015,-1.8 1.296,-2.736 0.432,-3.456 v -208.152 l -0.432,-3.384 -1.296,-2.664 -2.015,-1.872 -2.305,-0.648 H 0 l -2.376,0.648 -1.944,1.872 -1.296,2.664 -0.504,3.384 V -8.64 l 0.504,3.456 1.296,2.736 1.944,1.8 z" style="fill:#000000;fill-opacity:1;fill-rule:nonzero;stroke:none" id="path864"/>
  </g>
  <g id="g866" transform="matrix(1.3333330154418945, 0, 0, -1.3333330154418945, 2589.4701224809105, 191.50144821387588)">
    <path d="m 0,0 h 142.344 l 2.303,-0.648 1.873,-1.8 1.295,-2.664 0.433,-3.24 v -201.744 l -0.433,-3.24 -1.295,-2.664 -1.873,-1.8 -2.303,-0.576 H 0 l -2.232,0.576 -1.872,1.8 -1.296,2.664 -0.36,3.24 V -8.352 l 0.36,3.24 1.296,2.664 1.872,1.8 z" style="fill:#ffffff;fill-opacity:1;fill-rule:nonzero;stroke:none" id="path868"/>
  </g>
  <g id="g870" transform="matrix(1.3333330154418945, 0, 0, -1.3333330154418945, 2605.9818372942104, 249.8692728395654)">
    <path d="M 0,0 -6.048,8.352 -12.168,0 l 6.12,-8.28 z" style="fill:#ff0000;fill-opacity:1;fill-rule:nonzero;stroke:none" id="path872"/>
  </g>
  <g id="g874" transform="matrix(1.3333330154418945, 0, 0, -1.3333330154418945, 2779.933618737531, 428.4291261009021)">
    <path d="M 0,0 -5.977,8.208 -12.096,0 -5.977,-8.352 Z" style="fill:#ff0000;fill-opacity:1;fill-rule:nonzero;stroke:none" id="path876"/>
  </g>
  <path d="m 1945.689,1125.062 h 109.728 v -174.6 h -109.728 z" style="fill:#000000;fill-opacity:1;fill-rule:nonzero;stroke:none" id="path878" transform="matrix(1.3333330154418945, 0, 0, -1.3333330154418945, 17.00979830339236, 1720.8630627522327)"/>
  <g id="g880" transform="matrix(1.3333330154418945, 0, 0, -1.3333330154418945, 2780.3177332292835, 460.68497778550585)">
    <path d="M 0,0 -0.144,-2.376 -0.433,-4.752 -1.008,-6.48 -1.8,-7.992 -2.16,-8.64 -2.736,-9.216 -3.168,-9.792 -3.744,-10.08 -4.248,-10.44 -4.824,-10.656 -5.4,-10.728 h -0.576 -0.648 l -0.504,0.072 -0.504,0.216 -0.576,0.288 -0.504,0.36 -0.504,0.504 -0.432,0.432 -0.432,0.648 -0.72,1.512 -0.648,1.872 -0.36,2.232 -0.144,2.592 0.216,3.6 0.432,2.808 0.36,1.224 0.504,1.08 0.432,0.864 0.648,0.72 0.72,0.504 0.791,0.36 0.937,0.288 0.936,0.072 0.72,-0.072 0.72,-0.144 0.648,-0.144 0.504,-0.36 0.576,-0.504 L -2.376,9.792 -1.872,9.288 -1.513,8.496 -0.792,6.912 -0.36,4.896 0,2.664 Z" style="fill:#ff0000;fill-opacity:1;fill-rule:nonzero;stroke:none" id="path882"/>
  </g>
  <g id="g884" transform="matrix(1.3333330154418945, 0, 0, -1.3333330154418945, 2776.8620048865278, 460.68497778550585)">
    <path d="m 0,0 -0.145,3.888 -0.647,2.88 -1.152,1.584 -1.584,0.576 H -4.176 L -4.608,8.64 -5.04,8.28 -5.544,7.92 -6.192,6.624 l -0.432,-1.8 -0.36,-2.232 -0.073,-2.664 0.073,-2.448 0.36,-2.016 0.576,-1.584 0.72,-1.08 0.432,-0.36 0.432,-0.36 0.432,-0.072 0.504,-0.072 0.504,0.072 0.503,0.072 0.432,0.36 0.433,0.36 0.792,1.224 0.504,1.512 0.36,2.088 z" style="fill:#ffffff;fill-opacity:1;fill-rule:nonzero;stroke:none" id="path886"/>
  </g>
  <g id="g888" transform="matrix(1.3333330154418945, 0, 0, -1.3333330154418945, 2782.141951544356, 452.3332545162957)">
    <path d="m 0,0 -1.944,-1.152 -1.8,-0.864 -2.016,-0.144 -2.376,0.576 -1.944,1.224 -0.937,1.44 -1.296,1.152 -3.095,0.432 V 3.888 5.04 l 3.672,-0.648 1.584,-1.224 0.935,-1.512 1.584,-1.152 2.305,-0.36 1.872,0.504 1.8,1.008 L 0,2.736 Z" style="fill:#ff0000;fill-opacity:1;fill-rule:nonzero;stroke:none" id="path890"/>
  </g>
  <g id="g892" transform="matrix(1.3333330154418945, 0, 0, -1.3333330154418945, 2589.4701224809105, 214.92527075420003)">
    <path d="M 0,0 0.144,2.376 0.432,4.608 1.08,6.408 1.8,7.92 2.231,8.568 2.735,9.216 3.24,9.648 3.672,10.08 4.319,10.296 4.896,10.584 5.399,10.656 6.048,10.728 6.552,10.656 7.128,10.584 7.703,10.368 8.136,10.08 8.712,9.72 9.216,9.288 9.72,8.712 10.08,8.136 10.943,6.624 11.52,4.752 11.88,2.592 12.023,0 l -0.215,-3.6 -0.504,-2.808 -0.361,-1.296 -0.431,-1.08 -0.504,-0.864 -0.576,-0.72 -0.72,-0.504 -0.792,-0.432 -0.864,-0.288 -1.008,-0.072 -0.792,0.072 -0.649,0.216 -0.719,0.216 -0.576,0.36 -0.504,0.36 -0.504,0.576 -0.433,0.576 -0.432,0.72 -0.648,1.656 -0.432,1.872 -0.215,2.376 z" style="fill:#ff0000;fill-opacity:1;fill-rule:nonzero;stroke:none" id="path894"/>
  </g>
  <g id="g896" transform="matrix(1.3333330154418945, 0, 0, -1.3333330154418945, 2592.925850823667, 214.92527075420003)">
    <path d="M 0,0 0.216,-4.032 0.863,-6.84 2.016,-8.424 3.6,-9 l 0.576,0.072 0.504,0.216 0.431,0.288 0.433,0.504 0.72,1.296 0.431,1.656 0.217,2.376 L 7.128,0 6.912,2.448 6.624,4.464 6.12,6.048 5.328,7.128 4.896,7.488 4.536,7.776 4.031,7.92 3.6,8.064 3.096,7.92 2.592,7.776 2.088,7.488 1.656,7.128 1.008,5.904 0.432,4.32 0.072,2.376 Z" style="fill:#ffffff;fill-opacity:1;fill-rule:nonzero;stroke:none" id="path898"/>
  </g>
  <g id="g900" transform="matrix(1.3333330154418945, 0, 0, -1.3333330154418945, 2587.6459041658386, 223.2774823045438)">
    <path d="M 0,0 2.016,1.224 3.815,1.872 5.76,2.016 8.136,1.512 10.08,0.36 l 1.008,-1.512 1.296,-1.152 3.023,-0.432 v -1.296 -1.08 l -3.599,0.576 -1.584,1.368 -0.936,1.44 L 7.632,-0.576 5.327,-0.144 3.456,-0.72 1.584,-1.728 0,-2.808 Z" style="fill:#ff0000;fill-opacity:1;fill-rule:nonzero;stroke:none" id="path902"/>
  </g>
  <g id="g904" transform="matrix(1.3333330154418945, 0, 0, -1.3333330154418945, 2655.0378151816844, 451.2772651847299)">
    <path d="M 0,0 -0.936,1.872 -2.305,3.6 -3.816,5.256 -5.4,6.696 -6.048,1.368 h -0.217 -0.288 l -1.223,6.408 -5.904,-6.12 -1.368,-0.72 h -0.217 l -0.288,0.144 0.288,1.44 0.792,1.224 1.081,0.936 1.079,1.152 0.937,0.792 0.864,0.648 0.791,0.792 0.865,0.648 -5.832,2.232 v 0.288 l 0.215,0.288 5.473,-0.576 -0.721,2.592 -1.295,2.52 -1.656,2.232 -1.801,2.088 -1.007,0.864 -0.936,0.792 -1.08,0.648 -1.008,0.648 0.216,0.288 0.288,0.144 1.151,-0.144 5.617,-3.456 1.944,-1.944 1.584,-2.232 1.08,-2.448 0.648,-2.808 0.215,-0.576 L -5.544,9.864 -2.88,8.208 -0.433,6.336 1.655,4.104 3.313,1.296 3.456,0.648 3.6,0.072 6.695,0 6.12,2.448 4.824,4.824 3.456,7.128 l -1.44,2.16 -1.08,1.584 -1.081,1.44 -1.223,1.44 -1.224,1.44 -1.224,1.512 -1.368,1.368 -1.369,1.44 -1.367,1.512 -1.656,1.584 -1.8,1.584 -1.8,1.656 -1.872,1.584 -4.176,-3.456 2.375,-4.536 1.296,-5.4 V 8.28 L -17.208,2.736 -17.856,1.368 -18.504,0 Z" style="fill:#ffff80;fill-opacity:1;fill-rule:nonzero;stroke:none" id="path906"/>
  </g>
  <g id="g908" transform="matrix(1.3333330154418945, 0, 0, -1.3333330154418945, 2673.0859879619966, 450.8933948335434)">
    <path d="M 0,0 H 0.144 L 0.504,0.072 0.647,0.36 0.575,0.576 0,1.584 -0.937,2.232 -2.017,2.88 -3.097,3.456 V 2.448 l 0.721,-0.864 0.647,-0.432 0.577,-0.36 0.504,-0.504 z" style="fill:#ffffff;fill-opacity:1;fill-rule:nonzero;stroke:none" id="path910"/>
  </g>
  <g id="g912" transform="matrix(1.3333330154418945, 0, 0, -1.3333330154418945, 2676.6367683654244, 450.8933948335434)">
    <path d="M 0,0 H 0.433 0.865 L 1.009,1.368 0.217,2.736 -1.512,4.176 -3.383,5.256 -5.327,6.12 -7.271,7.2 -6.048,4.824 -3.815,3.456 -1.728,2.16 -0.215,0.072 H 0 Z" style="fill:#ffffff;fill-opacity:1;fill-rule:nonzero;stroke:none" id="path914"/>
  </g>
  <g id="g916" transform="matrix(1.3333330154418945, 0, 0, -1.3333330154418945, 2692.7656707699934, 431.0216547796699)">
    <path d="m 0,0 -0.433,6.192 -1.798,6.265 -2.737,5.615 -3.095,4.464 -2.089,0.648 -2.232,0.144 -2.304,-0.576 -2.016,-0.72 -1.441,-0.792 -1.295,-0.719 -1.296,-0.865 -1.44,-0.792 -2.952,-2.52 -0.288,-0.432 -0.216,-0.504 0.216,-4.32 -0.145,-4.176 0.578,-3.888 2.015,-3.384 0.504,-1.296 0.576,-1.224 1.008,-2.016 1.08,-1.512 1.44,-1.224 2.016,-0.792 1.079,-0.36 1.153,-0.432 1.008,-0.576 1.007,-0.504 0.866,-0.792 0.863,-1.079 0.648,-1.369 0.504,-1.368 h 0.071 0.073 v 0.072 h 0.144 l 0.504,1.873 0.863,1.511 1.296,1.152 1.441,0.936 0.792,0.36 0.792,0.504 0.792,0.216 0.576,0.576 0.504,0.433 0.431,0.719 1.153,3.096 z" style="fill:#ffffff;fill-opacity:1;fill-rule:nonzero;stroke:none" id="path918"/>
  </g>
  <g id="g920" transform="matrix(1.3333330154418945, 0, 0, -1.3333330154418945, 2683.4544750732894, 450.8933948335434)">
    <path d="M 0,0 1.151,0.288 2.159,2.376 3.887,3.96 5.543,5.616 6.695,7.848 5.471,6.336 4.464,5.832 3.455,5.256 2.447,4.752 1.512,4.104 0.719,3.312 0.287,2.232 -0.073,1.152 -0.217,0.072 h 0.144 z" style="fill:#ffffff;fill-opacity:1;fill-rule:nonzero;stroke:none" id="path922"/>
  </g>
  <g id="g924" transform="matrix(1.3333330154418945, 0, 0, -1.3333330154418945, 2687.389369968471, 450.8933948335434)">
    <path d="M 0,0 H 0.432 L 0.936,0.072 1.801,1.944 3.024,3.456 4.104,5.112 4.608,7.272 3.456,5.544 1.801,3.816 0.432,2.088 -0.144,0 h 0.073 z" style="fill:#ffffff;fill-opacity:1;fill-rule:nonzero;stroke:none" id="path926"/>
  </g>
  <g id="g928" transform="matrix(1.3333330154418945, 0, 0, -1.3333330154418945, 2690.7487441675335, 450.8933948335434)">
    <path d="M 0,0 H 1.872 L 3.097,2.736 3.169,5.904 3.097,6.192 2.736,6.12 -0.359,0.072 h 0.215 z" style="fill:#ffffff;fill-opacity:1;fill-rule:nonzero;stroke:none" id="path930"/>
  </g>
  <g id="g932" transform="matrix(1.3333330154418945, 0, 0, -1.3333330154418945, 2657.5339083365693, 423.2447197848778)">
    <path d="M 0,0 -0.217,6.264 -1.224,12.528 -2.017,15.12 -2.952,17.496 -4.177,19.8 -5.616,21.816 -7.128,23.76 -9,25.488 -10.8,27 l -2.088,1.296 -1.44,0.576 -1.513,0.576 -1.584,0.288 -1.655,0.288 -1.513,0.216 h -1.655 l -1.728,-0.073 -1.512,-0.143 v -0.576 l 0.432,-0.504 0.648,-0.504 0.504,-0.504 2.52,0.072 2.663,-0.432 2.376,-0.576 2.377,-0.937 2.088,-1.223 1.8,-1.512 1.655,-1.944 1.297,-2.016 1.296,-2.952 0.936,-2.952 0.648,-3.168 0.36,-3.312 -0.072,-0.36 h -0.288 l -0.72,3.672 -0.864,3.312 -1.224,3.168 -1.873,2.664 -0.863,1.08 -0.937,1.152 -0.935,0.936 -1.224,0.792 -0.216,0.288 -0.216,0.288 -1.008,0.576 -1.08,0.648 -1.152,0.504 -1.152,0.359 -1.152,0.433 -1.225,0.216 -1.151,0.143 h -1.296 l 1.368,-1.439 1.655,-1.008 1.873,-1.008 1.944,-0.792 1.872,-0.864 1.584,-1.08 1.368,-1.368 0.863,-1.944 0.721,-1.512 0.648,-1.728 0.36,-1.728 0.36,-1.728 2.159,-2.593 2.017,-2.735 1.944,-2.664 1.583,-2.736 z" style="fill:#ffffff;fill-opacity:1;fill-rule:nonzero;stroke:none" id="path934"/>
  </g>
  <g id="g936" transform="matrix(1.3333330154418945, 0, 0, -1.3333330154418945, 2658.5898976681347, 407.4048798113908)">
    <path d="M 0,0 2.447,2.232 3.96,3.024 5.615,3.96 7.271,4.824 9,5.616 l 1.728,0.432 2.016,0.432 1.8,0.144 1.943,-0.216 1.368,-0.936 1.081,-1.08 L 19.8,3.24 20.664,1.944 27.216,7.56 23.688,8.064 20.16,8.496 16.56,8.64 13.031,8.496 9.288,8.208 5.688,7.704 2.016,6.984 -1.584,6.264 -0.217,0 Z" style="fill:#ffffff;fill-opacity:1;fill-rule:nonzero;stroke:none" id="path938"/>
  </g>
  <g id="g940" transform="matrix(1.3333330154418945, 0, 0, -1.3333330154418945, 2645.533911197592, 406.73300497157834)">
    <path d="M 0,0 -1.224,3.168 -3.096,5.976 -5.544,8.28 -8.137,9.936 -8.929,10.224 -9.576,10.44 0,-0.216 v 0.072 z" style="fill:#ffffff;fill-opacity:1;fill-rule:nonzero;stroke:none" id="path942"/>
  </g>
  <g id="g944" transform="matrix(1.3333330154418945, 0, 0, -1.3333330154418945, 2739.229201358889, 400.8771307166862)">
    <path d="M 0,0 0.36,0.144 H 0.864 L 1.08,1.008 0.864,2.016 0.36,2.304 -0.36,2.232 -0.647,1.8 -0.936,1.152 -0.432,0.144 h 0.216 z" style="fill:#ffff80;fill-opacity:1;fill-rule:nonzero;stroke:none" id="path946"/>
  </g>
  <g id="g948" transform="matrix(1.3333330154418945, 0, 0, -1.3333330154418945, 2734.717483684566, 397.9011385876765)">
    <path d="M 0,0 0.288,-0.216 0.792,-0.432 1.296,-0.504 1.656,-0.648 2.376,0 2.448,0.936 1.944,1.368 1.152,1.656 H 0.216 L -0.432,1.08 -0.359,0.576 Z" style="fill:#ffff80;fill-opacity:1;fill-rule:nonzero;stroke:none" id="path950"/>
  </g>
  <g id="g952" transform="matrix(1.3333330154418945, 0, 0, -1.3333330154418945, 2742.2057631492207, 398.5730134274891)">
    <path d="M 0,0 0.648,1.584 0.216,2.016 -0.36,2.232 -0.937,1.728 -1.368,1.08 -0.864,0.072 Z" style="fill:#ffff80;fill-opacity:1;fill-rule:nonzero;stroke:none" id="path954"/>
  </g>
  <g id="g956" transform="matrix(1.3333330154418945, 0, 0, -1.3333330154418945, 2733.6614943530003, 394.9252278388558)">
    <path d="m 0,0 v 0.144 l 0.072,0.144 -0.648,1.008 -0.72,1.656 -0.72,1.512 -0.432,1.44 0.432,0.072 0.576,0.216 -0.432,0.144 -0.863,0.288 -1.009,0.288 -0.575,0.288 1.223,-1.728 1.08,-2.16 1.008,-2.016 z" style="fill:#ffff80;fill-opacity:1;fill-rule:nonzero;stroke:none" id="path958"/>
  </g>
  <g id="g960" transform="matrix(1.3333330154418945, 0, 0, -1.3333330154418945, 2656.6693252093683, 392.1413743359116)">
    <path d="M 0,0 H 1.152 L 2.232,0.36 3.097,1.08 3.888,1.8 4.681,2.232 5.688,2.664 6.624,2.736 7.704,2.376 8.712,1.872 9.72,1.368 10.729,0.864 11.736,0.576 13.392,1.08 14.257,2.088 15.265,2.736 16.56,3.24 18,3.168 19.08,2.736 20.016,2.16 20.808,1.656 21.744,1.08 l 4.248,1.656 1.584,0.432 1.728,-0.144 1.369,-0.648 1.367,-1.008 0.721,-0.792 0.647,-0.504 4.248,3.6 -2.52,0.576 L 32.328,4.68 29.664,4.896 27,5.112 24.265,5.256 H 21.601 18.792 L 16.2,5.112 13.464,4.968 10.729,4.752 8.064,4.464 5.257,4.032 2.521,3.672 -0.144,3.168 -2.808,2.664 -5.399,2.088 -4.608,1.08 Z" style="fill:#c0c0ff;fill-opacity:1;fill-rule:nonzero;stroke:none" id="path962"/>
  </g>
  <g id="g964" transform="matrix(1.3333330154418945, 0, 0, -1.3333330154418945, 2728.0937873471125, 389.9328787687082)">
    <path d="M 0,0 -1.872,-0.288 H -3.96 -6.12 l -2.233,0.216 1.585,0.288 h 1.656 1.8 1.799 L -2.952,0.576 -4.32,0.792 -5.976,1.008 -8.353,0.72 -9.072,0.216 l -0.361,-1.008 1.37,0.216 h 1.51 l 1.369,-0.072 1.296,-0.216 1.224,-0.072 1.08,0.072 0.936,0.288 z" style="fill:#ffff80;fill-opacity:1;fill-rule:nonzero;stroke:none" id="path966"/>
  </g>
  <g id="g968" transform="matrix(1.3333330154418945, 0, 0, -1.3333330154418945, 2734.8138378282606, 390.70127051259266)">
    <path d="M 0,0 2.52,-0.504 4.752,0.288 6.12,2.016 5.832,4.176 5.544,3.168 4.896,2.304 3.96,1.584 2.951,0.792 5.328,1.8 4.968,1.08 4.248,0.576 3.384,0.288 2.664,-0.072 Z" style="fill:#ffff80;fill-opacity:1;fill-rule:nonzero;stroke:none" id="path970"/>
  </g>
  <g id="g972" transform="matrix(1.3333330154418945, 0, 0, -1.3333330154418945, 2733.277379861247, 385.99749559239353)">
    <path d="M 0,0 0.792,0.648 1.513,1.008 2.16,0.936 2.592,0.72 2.305,1.224 1.656,1.512 0.864,1.729 0.288,2.016 -0.432,2.088 -1.008,2.232 -1.584,2.521 -2.16,2.808 -3.168,5.4 -3.24,8.424 -7.992,5.688 -5.4,2.736 -3.96,1.152 -2.592,0.504 Z" style="fill:#ffffff;fill-opacity:1;fill-rule:nonzero;stroke:none" id="path974"/>
  </g>
  <g id="g976" transform="matrix(1.3333330154418945, 0, 0, -1.3333330154418945, 2735.4857126680727, 386.18873903638087)">
    <path d="M 0,0 H 1.584 L 1.08,0.504 0.432,0.648 H -0.36 L -0.792,0.36 -0.36,0.216 Z" style="fill:#ffffff;fill-opacity:1;fill-rule:nonzero;stroke:none" id="path978"/>
  </g>
  <g id="g980" transform="matrix(1.3333330154418945, 0, 0, -1.3333330154418945, 2738.6536806627705, 384.74953039513997)">
    <path d="M 0,0 0.288,1.152 0.216,1.944 -4.392,3.024 -4.824,2.52 -4.896,3.024 h -0.72 -0.361 L -5.832,2.736 -5.76,2.376 -4.896,1.944 -2.88,1.152 -0.864,0.36 Z" style="fill:#ffffff;fill-opacity:1;fill-rule:nonzero;stroke:none" id="path982"/>
  </g>
  <g id="g984" transform="matrix(1.3333330154418945, 0, 0, -1.3333330154418945, 2638.429746224691, 382.1570017163722)">
    <path d="m 0,0 1.008,0.216 1.008,0.288 1.152,0.288 1.08,0.216 4.608,1.008 4.536,0.864 4.464,0.72 4.536,0.576 4.464,0.36 4.536,0.288 4.392,0.072 4.392,-0.216 0.431,0.288 0.289,0.288 18.072,-3.6 1.872,1.008 -0.792,0.504 -0.937,0.288 -1.007,0.216 -0.936,0.432 -3.96,0.792 -3.96,0.576 -3.888,0.504 -3.961,0.288 -3.887,0.144 H 33.695 L 29.735,6.336 25.848,6.048 21.888,5.688 18,5.256 14.111,4.68 10.151,4.032 6.336,3.312 2.448,2.52 -1.513,1.656 -5.4,0.72 Z" style="fill:#ffff80;fill-opacity:1;fill-rule:nonzero;stroke:none" id="path986"/>
  </g>
  <g id="g988" transform="matrix(1.3333330154418945, 0, 0, -1.3333330154418945, 2628.35032154448, 380.71673513267524)">
    <path d="M 0,0 3.312,2.375 41.328,27.576 45.863,26.352 41.615,6.336 43.703,6.264 47.375,24.408 45.863,6.12 l 2.16,0.144 0.504,9.288 1.008,9.576 15.408,-4.032 0.432,1.08 -1.943,0.864 -2.016,0.576 -2.088,0.648 -2.016,0.576 -3.745,1.008 -3.816,1.08 -3.888,0.864 -3.672,0.791 -3.744,0.577 -3.816,0.576 -3.887,0.431 -3.816,0.361 -0.792,1.08 -0.433,1.224 -0.576,1.368 -0.791,1.008 -2.017,3.672 -2.448,3.168 -2.735,2.88 -2.881,2.664 -3.239,2.376 -3.313,2.232 -3.455,1.944 -3.312,1.872 -1.369,0.576 -1.296,0.575 -1.224,0.577 -1.151,0.648 -1.225,0.504 -1.367,0.648 -1.153,0.504 -1.296,0.576 0.145,-1.584 0.215,-0.216 0.432,-0.288 -0.792,-3.96 0.865,-4.176 0.719,-0.864 0.649,-1.008 0.287,-1.08 -0.287,-1.296 -1.296,-1.728 -0.937,-2.232 -0.215,-2.376 0.575,-2.304 0.793,-1.296 0.863,-1.224 0.649,-1.368 -0.289,-1.296 -1.151,-1.512 -1.009,-1.441 -0.719,-1.655 0.215,-1.872 1.513,-1.872 1.799,-1.8 1.801,-1.656 1.584,-1.512 1.872,-1.296 1.944,-1.08 1.943,-1.224 1.873,-0.936 1.656,-0.576 1.656,-0.432 1.584,-0.576 1.583,-0.216 h 3.672 l 0.36,-0.216 v -0.36 L -3.097,-0.648 Z" style="fill:#ffff80;fill-opacity:1;fill-rule:nonzero;stroke:none" id="path990"/>
  </g>
  <g id="g992" transform="matrix(1.3333330154418945, 0, 0, -1.3333330154418945, 2738.9414410108293, 380.5248406471764)">
    <path d="M 0,0 0.288,0.936 -0.792,1.584 -2.376,1.8 H -4.031 -5.472 L -5.544,1.439 -5.615,1.08 -5.76,1.439 -5.903,1.728 H -6.192 -6.624 L -6.84,1.296 -6.624,0.648 Z" style="fill:#ffffff;fill-opacity:1;fill-rule:nonzero;stroke:none" id="path994"/>
  </g>
  <g id="g996" transform="matrix(1.3333330154418945, 0, 0, -1.3333330154418945, 2738.6536806627705, 377.26100678991867)">
    <path d="M 0,0 H 0.216 0.288 L 0.504,0.792 0.432,1.656 -4.968,1.224 -5.399,0.36 -5.616,1.224 H -6.408 V 0.792 L -6.336,0 Z" style="fill:#ffffff;fill-opacity:1;fill-rule:nonzero;stroke:none" id="path998"/>
  </g>
  <g id="g1000" transform="matrix(1.3333330154418945, 0, 0, -1.3333330154418945, 2738.3659203147113, 374.093282935788)">
    <path d="M 0,0 0.504,0.504 0.432,1.368 -4.68,0.504 v -0.72 l -0.504,0.576 -0.577,-0.072 -0.071,-0.36 0.071,-0.432 1.225,0.216 1.584,0.072 L -1.368,0 Z" style="fill:#ffffff;fill-opacity:1;fill-rule:nonzero;stroke:none" id="path1002"/>
  </g>
  <g id="g1004" transform="matrix(1.3333330154418945, 0, 0, -1.3333330154418945, 2643.037818042707, 361.7090899248687)">
    <path d="m 0,0 h 1.8 1.727 l 1.729,0.216 1.728,0.504 1.656,0.432 1.44,0.864 1.296,1.152 0.937,1.368 1.583,3.384 0.432,3.6 -0.217,3.672 -1.08,3.672 -1.007,2.016 -1.152,1.872 -1.368,1.872 -1.44,1.872 -1.656,1.8 -1.584,1.584 -1.656,1.584 -1.872,1.44 -1.08,0.792 -0.937,0.72 -0.863,0.648 -1.08,0.576 -0.792,-34.128 z" style="fill:#ffc0c0;fill-opacity:1;fill-rule:nonzero;stroke:none" id="path1006"/>
  </g>
  <g id="g1008" transform="matrix(1.3333330154418945, 0, 0, -1.3333330154418945, 2636.317767561559, 359.3093509136779)">
    <path d="m 0,0 0.36,17.568 -0.216,17.568 -8.64,4.824 -1.729,0.504 -0.288,0.504 -0.575,0.216 -2.089,0.432 -0.143,-0.144 -0.144,-0.144 -0.432,-2.592 0.36,-2.808 0.792,-2.448 1.223,-2.304 -1.511,-2.664 -0.792,-3.24 0.072,-3.384 1.151,-2.952 0.721,-0.936 0.504,-0.936 -1.08,-1.656 -1.008,-1.8 -0.504,-1.944 0.216,-2.232 1.08,-1.152 1.224,-1.152 1.152,-1.008 1.367,-1.08 1.369,-1.008 1.44,-1.008 1.439,-0.864 1.513,-0.864 0.792,-0.432 0.648,-0.432 0.72,-0.288 0.792,-0.36 0.072,0.072 z" style="fill:#000000;fill-opacity:1;fill-rule:nonzero;stroke:none" id="path1010"/>
  </g>
  <g id="g1012" transform="matrix(1.3333330154418945, 0, 0, -1.3333330154418945, 2663.9648963866352, 353.93305011215483)">
    <path d="M 0,0 11.377,7.488 10.081,8.136 8.713,8.28 7.201,8.496 5.761,8.784 4.32,8.856 3.097,9 1.801,9.072 H 0.576 l -0.935,-8.856 0.072,-0.36 z" style="fill:#000000;fill-opacity:1;fill-rule:nonzero;stroke:none" id="path1014"/>
  </g>
  <g id="g1016" transform="matrix(1.3333330154418945, 0, 0, -1.3333330154418945, 2653.5977113583654, 316.4936059134161)">
    <path d="M 0,0 0.936,2.16 -0.072,4.464 -1.296,2.448 Z" style="fill:#ffffff;fill-opacity:1;fill-rule:nonzero;stroke:none" id="path1018"/>
  </g>
  <g id="g1020" transform="matrix(1.3333330154418945, 0, 0, -1.3333330154418945, 2668.285207856593, 349.2292751919558)">
    <path d="M 0,0 1.008,2.232 -0.072,4.392 -1.368,2.52 Z" style="fill:#ffffff;fill-opacity:1;fill-rule:nonzero;stroke:none" id="path1022"/>
  </g>
  <g id="g1024" transform="matrix(1.3333330154418945, 0, 0, -1.3333330154418945, 2715.516967428994, 361.99750131443943)">
    <path d="M 0,0 0.937,2.16 -0.144,4.464 -1.295,2.448 Z" style="fill:#ffffff;fill-opacity:1;fill-rule:nonzero;stroke:none" id="path1026"/>
  </g>
  <g id="g1028" transform="matrix(1.3333330154418945, 0, 0, -1.3333330154418945, 2636.317767561559, 300.6531148984177)">
    <path d="M 0,0 0.504,0.936 0.792,0.144 1.8,0.36 2.088,1.08 1.655,1.656 -4.464,1.368 l -0.36,-0.792 0.143,-1.008 0.865,-0.36 h 0.36 l 0.935,0.288 z" style="fill:#ffffff;fill-opacity:1;fill-rule:nonzero;stroke:none" id="path1030"/>
  </g>
  <g id="g1032" transform="matrix(1.3333330154418945, 0, 0, -1.3333330154418945, 2675.8698414649407, 299.0216048707334)">
    <path d="M 0,0 11.592,0.36 11.88,0.145 12.096,0 h 0.288 0.431 l 0.216,0.145 0.217,0.359 0.432,0.072 h 0.431 0.504 l 0.288,0.216 h 3.817 l 3.888,0.289 3.744,0.503 3.816,0.648 3.888,0.648 3.816,0.72 3.816,0.792 3.959,0.649 0.649,0.359 0.576,0.288 h -2.16 L 42.624,6.048 40.464,6.192 38.232,5.688 36.936,5.4 35.64,5.184 34.416,4.896 33.192,4.608 32.04,4.392 30.815,4.176 29.735,3.888 28.584,3.744 27.071,3.384 25.56,3.096 24.192,2.88 22.752,2.521 20.952,2.376 19.224,2.232 17.496,2.088 15.696,1.873 15.479,2.016 15.12,2.232 13.392,1.8 11.52,1.729 H 9.575 L 7.632,1.368 5.615,1.44 3.456,1.512 1.224,1.584 -0.792,1.729 -3.024,1.8 -5.04,2.016 l -2.088,0.216 -2.088,0.36 -1.224,0.36 -1.224,0.216 -1.296,0.289 -1.08,0.431 -1.152,0.144 -1.153,0.36 -1.008,0.36 -1.079,-0.072 -0.36,-0.504 -0.721,-0.576 2.305,-0.72 2.447,-0.576 2.449,-0.504 2.52,-0.432 2.447,-0.36 2.449,-0.288 2.52,-0.36 z" style="fill:#ffff80;fill-opacity:1;fill-rule:nonzero;stroke:none" id="path1034"/>
  </g>
  <g id="g1036" transform="matrix(1.3333330154418945, 0, 0, -1.3333330154418945, 2640.7331310921877, 298.25337588722687)">
    <path d="M 0,0 4.464,2.88 0.648,8.352 h -4.68 L -4.319,8.136 -4.536,7.848 -5.111,7.632 -5.903,7.56 l 1.367,-0.72 1.513,-0.36 1.439,-0.504 1.08,-1.224 0.217,-4.968 0.215,0.144 z" style="fill:#ffffff;fill-opacity:1;fill-rule:nonzero;stroke:none" id="path1038"/>
  </g>
  <g id="g1040" transform="matrix(1.3333330154418945, 0, 0, -1.3333330154418945, 2636.317767561559, 297.773558293291)">
    <path d="M 0,0 0.36,0.937 0.792,0 1.655,0.072 1.944,0.648 v 0.72 L -4.248,1.872 -4.536,1.729 -4.681,1.584 -4.824,0.216 -4.032,0.145 -2.376,0.072 h 1.655 z" style="fill:#ffffff;fill-opacity:1;fill-rule:nonzero;stroke:none" id="path1042"/>
  </g>
  <g id="g1044" transform="matrix(1.3333330154418945, 0, 0, -1.3333330154418945, 2636.0300072135, 294.50923615489955)">
    <path d="M 0,0 0.576,0.792 0.72,0 1.871,-0.216 2.16,0.216 V 0.72 L 2.016,0.792 1.871,1.008 -4.465,1.656 -4.608,0.504 -3.816,0.072 -2.593,0 h 1.584 z" style="fill:#ffffff;fill-opacity:1;fill-rule:nonzero;stroke:none" id="path1046"/>
  </g>
  <g id="g1048" transform="matrix(1.3333330154418945, 0, 0, -1.3333330154418945, 2636.9896424013714, 291.2449140165082)">
    <path d="M 0,0 -1.296,0.504 -2.376,0.936 -3.528,1.44 -4.536,2.375 -4.752,2.592 -4.968,2.664 V 0.288 L -1.439,-0.504 -1.151,0 -0.937,-0.648 0.145,-0.792 0.072,-0.36 Z" style="fill:#ffffff;fill-opacity:1;fill-rule:nonzero;stroke:none" id="path1050"/>
  </g>
  <g id="g1052" transform="matrix(1.3333330154418945, 0, 0, -1.3333330154418945, 2715.90238400377, 273.0053350318303)">
    <path d="m 0,0 -1.44,4.68 -0.649,5.184 v 5.04 L 4.535,7.92 5.399,4.536 6.479,1.44 7.271,0 H 4.607 L 3.527,2.016 2.231,5.688 1.367,9.864 0.791,9.792 0.575,9.288 0.791,6.048 1.584,2.664 2.879,0 Z" style="fill:#ffffff;fill-opacity:1;fill-rule:nonzero;stroke:none" id="path1054"/>
  </g>
  <g id="g1056" transform="matrix(1.3333330154418945, 0, 0, -1.3333330154418945, 2727.9974332034185, 273.0053350318303)">
    <path d="M 0,0 -0.36,0.648 -1.8,3.24 -2.735,5.832 2.232,0 Z" style="fill:#ffffff;fill-opacity:1;fill-rule:nonzero;stroke:none" id="path1058"/>
  </g>
  <g id="g1060" transform="matrix(1.3333330154418945, 0, 0, -1.3333330154418945, 2715.90238400377, 273.0053350318303)">
    <path d="m 0,0 0.071,-0.288 2.305,-4.464 3.239,-3.744 4.465,-2.664 5.615,-1.296 6.912,0.216 0.073,0.36 -0.504,0.576 -0.792,0.504 -0.864,0.504 -4.464,-0.072 -3.96,1.08 -3.601,2.16 -2.951,2.88 -2.305,3.24 L 2.879,0 Z" style="fill:#ffffff;fill-opacity:1;fill-rule:nonzero;stroke:none" id="path1062"/>
  </g>
  <g id="g1064" transform="matrix(1.3333330154418945, 0, 0, -1.3333330154418945, 2722.0456117057765, 273.0053350318303)">
    <path d="m 0,0 0.648,-1.296 2.161,-2.808 2.447,-2.232 2.88,-1.584 3.24,-1.008 3.528,-0.36 -1.584,1.872 -2.304,0.36 L 8.784,-6.12 6.769,-4.824 4.968,-3.168 3.24,-1.008 2.664,0 Z" style="fill:#ffffff;fill-opacity:1;fill-rule:nonzero;stroke:none" id="path1066"/>
  </g>
  <g id="g1068" transform="matrix(1.3333330154418945, 0, 0, -1.3333330154418945, 2727.9974332034185, 273.0053350318303)">
    <path d="M 0,0 1.296,-1.8 3.168,-3.6 4.177,-4.248 5.256,-4.824 6.408,-5.472 7.345,-5.976 2.232,0 Z" style="fill:#ffffff;fill-opacity:1;fill-rule:nonzero;stroke:none" id="path1070"/>
  </g>
  <g id="g1072" transform="matrix(1.3333330154418945, 0, 0, -1.3333330154418945, 2626.5248011463846, 287.6928315300574)">
    <path d="m 0,0 0.577,1.224 1.296,1.296 1.8,0.864 1.8,0.072 L 4.681,3.96 3.673,3.888 2.377,3.168 0.865,2.088 1.08,2.376 1.873,3.168 2.881,3.888 4.033,4.392 2.305,4.248 0.505,2.88 -0.359,1.152 -0.144,0 Z" style="fill:#ffff80;fill-opacity:1;fill-rule:nonzero;stroke:none" id="path1074"/>
  </g>
  <g id="g1076" transform="matrix(1.3333330154418945, 0, 0, -1.3333330154418945, 2688.6367655044014, 287.7891856737515)">
    <path d="m 0,0 2.809,0.216 3.023,0.288 2.881,0.216 2.951,0.144 2.953,0.432 2.951,0.36 L 20.521,2.16 23.4,2.88 21.816,4.752 20.449,4.968 18.865,5.472 17.496,5.832 15.984,5.616 12.601,3.024 H 10.584 L 8.641,3.672 6.697,4.248 4.536,3.888 3.601,2.88 2.305,2.16 0.865,1.944 -0.504,2.016 -1.943,2.952 -3.383,3.672 -4.752,3.96 -6.119,3.672 -6.768,3.24 -7.416,2.88 -7.92,2.592 -8.423,2.16 -9.647,2.016 -10.799,2.16 -11.951,2.448 -13.104,3.024 -15.551,5.256 -17.135,4.032 -17.64,3.816 -18,3.384 l -1.079,-0.792 0.864,-0.648 1.08,-0.288 1.079,-0.072 1.08,-0.504 1.872,-0.072 1.945,-0.144 1.872,-0.072 h 1.871 l 1.872,-0.072 1.801,-0.216 1.8,-0.216 z" style="fill:#c0c0ff;fill-opacity:1;fill-rule:nonzero;stroke:none" id="path1078"/>
  </g>
  <g id="g1080" transform="matrix(1.3333330154418945, 0, 0, -1.3333330154418945, 2639.4857355562563, 285.38944666256066)">
    <path d="m 0,0 -0.36,1.224 -0.648,1.44 -0.72,1.152 -0.864,0.936 -0.288,0.144 V 4.608 l 0.504,-0.648 0.648,-0.936 0.576,-0.936 -0.073,-0.36 -1.584,0.144 0.217,-0.144 0.576,-0.288 0.791,-0.576 0.649,-1.008 0.36,-0.072 z" style="fill:#ffff80;fill-opacity:1;fill-rule:nonzero;stroke:none" id="path1082"/>
  </g>
  <g id="g1084" transform="matrix(1.3333330154418945, 0, 0, -1.3333330154418945, 2652.25396167874, 283.4688742037943)">
    <path d="m 0,0 -5.04,-0.216 0.36,-0.144 0.503,-0.216 0.504,-0.072 h 0.577 l 0.648,-0.144 1.511,0.144 1.441,0.576 L 1.08,1.224 -0.792,0.72 -2.664,0.792 -4.68,1.008 -6.553,0.576 -4.896,0.288 -3.313,0.216 -1.656,0.144 Z" style="fill:#ffff80;fill-opacity:1;fill-rule:nonzero;stroke:none" id="path1086"/>
  </g>
  <g id="g1088" transform="matrix(1.3333330154418945, 0, 0, -1.3333330154418945, 2628.35032154448, 277.3249954602761)">
    <path d="M 0,0 0.215,1.224 -0.289,1.8 -0.721,2.016 H -1.369 L -1.729,1.44 -1.873,0.72 -1.656,0.432 -1.08,0.072 -0.504,0 Z" style="fill:#ffff80;fill-opacity:1;fill-rule:nonzero;stroke:none" id="path1090"/>
  </g>
  <g id="g1092" transform="matrix(1.3333330154418945, 0, 0, -1.3333330154418945, 2633.9180285503685, 277.61340684984685)">
    <path d="M 0,0 0.072,0.648 0,1.44 -0.288,1.656 h -0.504 -0.433 -0.431 l -0.361,-0.72 v -1.08 l 0.361,-0.216 0.504,-0.144 0.504,0.216 z" style="fill:#ffff80;fill-opacity:1;fill-rule:nonzero;stroke:none" id="path1094"/>
  </g>
  <g id="g1096" transform="matrix(1.3333330154418945, 0, 0, -1.3333330154418945, 2686.910203416047, 274.34908471145536)">
    <path d="M 0,0 -2.952,4.464 -9,-0.576 l 4.751,-1.08 h 3.024 2.953 3.023 l 2.953,0.072 3.024,0.288 3.023,0.288 2.953,0.432 L 19.728,0 18.071,6.336 16.704,5.256 15.479,4.248 14.039,3.456 12.672,2.448 11.231,1.656 9.647,1.008 7.992,0.216 6.335,-0.288 H 4.824 3.023 1.439 Z" style="fill:#ffffff;fill-opacity:1;fill-rule:nonzero;stroke:none" id="path1098"/>
  </g>
  <g id="g1100" transform="matrix(1.3333330154418945, 0, 0, -1.3333330154418945, 2631.229227108095, 274.34908471145536)">
    <path d="m 0,0 -0.216,1.296 -1.151,0.36 -0.649,-0.432 -0.432,-0.792 0.289,-0.864 0.935,-0.432 0.792,0.072 z" style="fill:#ffff80;fill-opacity:1;fill-rule:nonzero;stroke:none" id="path1102"/>
  </g>
  <g id="g1104" transform="matrix(1.3333330154418945, 0, 0, -1.3333330154418945, 2734.4297233365073, 259.37317682365756)">
    <path d="m 0,0 4.248,3.6 -1.584,3.024 -1.44,3.384 -0.936,3.816 v 3.816 l 0.36,2.52 0.792,2.376 0.864,2.232 0.864,2.16 -18,0.216 v -0.72 l 0.432,-0.72 0.576,-0.792 0.288,-0.864 1.008,-0.792 0.864,-0.864 0.936,-0.936 1.081,-0.792 0.647,5.472 0.937,-3.096 0.647,-3.384 1.584,1.512 1.8,1.872 1.801,2.016 1.943,1.368 H 0 L 0.288,26.352 -0.36,24.48 -1.872,22.824 -3.744,21.168 -5.4,19.656 l -0.577,-0.432 -0.431,-0.432 0.072,-0.288 0.144,-0.216 5.4,-1.656 v -0.288 l -5.4,0.648 -0.144,-0.144 -0.143,-0.432 0.791,-1.728 0.864,-1.944 1.009,-1.656 L -2.736,9.504 -1.44,7.92 0,6.624 1.512,5.328 3.239,4.176 3.384,3.96 3.239,3.672 l -4.031,1.872 -0.288,0.36 -0.504,0.288 -2.952,1.872 -2.16,2.52 -1.656,3.384 -0.936,3.888 -1.44,0.648 -1.584,0.864 -1.224,0.936 -1.296,1.152 -1.152,1.224 -1.008,1.368 -0.937,1.44 -0.863,1.584 -3.097,0.072 0.721,-2.376 1.151,-2.304 1.297,-2.304 1.512,-2.016 1.584,-2.16 1.8,-2.016 1.656,-2.088 1.655,-1.944 L -9.288,8.712 -8.063,7.416 -6.84,6.192 -5.616,4.896 -4.248,3.672 -2.88,2.52 -1.584,1.224 -0.144,0 Z" style="fill:#ffff80;fill-opacity:1;fill-rule:nonzero;stroke:none" id="path1106"/>
  </g>
  <g id="g1108" transform="matrix(1.3333330154418945, 0, 0, -1.3333330154418945, 2673.0859879619966, 427.18107952345963)">
    <path d="m 0,0 -1.368,0.072 h -1.296 l -1.296,-0.216 -1.08,-0.648 0.359,-1.872 1.008,-1.008 1.513,-0.432 2.015,-0.288 v 0.144 l 0.145,0.36 -0.576,0.144 -1.008,0.072 -1.08,0.144 -0.288,0.216 v 0.216 l 1.223,-0.432 1.584,0.144 1.513,0.432 1.295,0.648 0.36,0.288 0.073,0.72 z" style="fill:#000000;fill-opacity:1;fill-rule:nonzero;stroke:none" id="path1110"/>
  </g>
  <g id="g1112" transform="matrix(1.3333330154418945, 0, 0, -1.3333330154418945, 2672.509165182856, 427.9493898871551)">
    <path d="M 0,0 2.809,-1.152 0.864,-1.872 0.576,-0.936 Z" style="fill:#ffffff;fill-opacity:1;fill-rule:nonzero;stroke:none" id="path1114"/>
  </g>
  <g id="g1116" transform="matrix(1.3333330154418945, 0, 0, -1.3333330154418945, 2691.9023897258157, 431.88485444365864)">
    <path d="m 0,0 -1.297,-0.504 -1.152,-0.504 -1.224,-0.216 -1.079,0.216 v 0.144 0.144 h 1.079 0.72 l 0.576,0.216 1.225,0.648 -1.512,-0.36 L -4.32,-0.36 -5.617,0 l -1.224,0.647 1.224,-2.663 0.936,-0.72 h 1.441 l 1.368,0.144 1.151,-0.576 V -3.312 -3.6 l -1.296,-0.072 -1.439,-0.144 h -1.368 l -1.225,0.792 -1.152,2.304 -0.575,2.664 0.071,2.736 0.792,2.808 0.504,1.296 0.073,1.296 -2.377,1.44 -0.216,0.576 L -9,12.888 h 0.575 l 0.649,-0.576 0.575,-0.792 0.865,-0.36 0.719,-0.432 0.289,-0.432 -1.585,-7.272 1.296,0.216 1.224,0.216 1.225,0.144 1.151,-0.576 h 0.433 L -0.793,2.592 -0.072,2.16 -0.505,1.44 -0.145,0.432 Z" style="fill:#000000;fill-opacity:1;fill-rule:nonzero;stroke:none" id="path1118"/>
  </g>
  <g id="g1120" transform="matrix(1.3333330154418945, 0, 0, -1.3333330154418945, 2682.68494400676, 406.92522497783284)">
    <path d="M 0,0 -1.007,0.288 -2.159,0.504 -3.456,0.288 -4.319,0 l -0.217,-0.36 0.289,-0.216 1.079,0.288 1.081,0.072 L -1.08,-0.36 0,-0.576 0.072,-0.36 Z" style="fill:#000000;fill-opacity:1;fill-rule:nonzero;stroke:none" id="path1122"/>
  </g>
  <g id="g1124" transform="matrix(1.3333330154418945, 0, 0, -1.3333330154418945, 2681.2448401834413, 404.71672941062934)">
    <path d="M 0,0 -0.575,-0.288 H -1.367 L -2.159,-0.144 -2.808,0 -3.023,0.432 -2.808,0.504 -2.016,0.216 h 0.72 l 0.649,0.216 0.72,0.072 0.072,-0.072 z" style="fill:#000000;fill-opacity:1;fill-rule:nonzero;stroke:none" id="path1126"/>
  </g>
  <g id="g1128" transform="matrix(1.3333330154418945, 0, 0, -1.3333330154418945, 2674.5247897022928, 408.4608691429566)">
    <path d="M 0,0 -0.215,-1.512 0,-2.808 0.289,-2.52 0.793,-2.16 1.873,-2.232 2.809,-2.016 3.816,-1.8 4.753,-1.656 5.4,-1.728 6.192,-1.872 h 0.792 l 0.721,0.144 0.288,-0.144 0.071,-0.144 v 0.792 L 7.705,-0.432 6.409,-0.648 4.104,-1.008 H 1.656 Z" style="fill:#000000;fill-opacity:1;fill-rule:nonzero;stroke:none" id="path1130"/>
  </g>
  <g id="g1132" transform="matrix(1.3333330154418945, 0, 0, -1.3333330154418945, 2677.406299431954, 416.52483206410756)">
    <path d="m 0,0 -0.864,-0.216 -0.937,-0.216 -0.575,-0.576 -0.072,-0.648 0.287,-0.144 0.289,0.144 0.216,0.792 0.431,0.288 h 0.72 l 0.793,-0.216 0.719,-0.864 1.152,-0.217 0.937,0.217 0.071,0.432 -1.008,0.792 -0.792,0.216 H 0.72 Z" style="fill:#000000;fill-opacity:1;fill-rule:nonzero;stroke:none" id="path1134"/>
  </g>
  <g id="g1136" transform="matrix(1.3333330154418945, 0, 0, -1.3333330154418945, 2680.381559139263, 228.6531320645554)">
    <path d="M 0,0 0.792,0.864 2.017,2.448 3.023,4.104 3.816,4.032 4.32,3.888 3.672,1.872 2.231,0.216 2.088,0 Z" style="fill:#ffffff;fill-opacity:1;fill-rule:nonzero;stroke:none" id="path1138"/>
  </g>
  <g id="g1140" transform="matrix(1.3333330154418945, 0, 0, -1.3333330154418945, 2684.98963095728, 228.6531320645554)">
    <path d="m 0,0 1.296,1.728 1.08,2.304 H 2.808 L 3.024,3.888 3.815,1.872 4.896,0.288 5.256,0 Z" style="fill:#ffffff;fill-opacity:1;fill-rule:nonzero;stroke:none" id="path1142"/>
  </g>
  <g id="g1144" transform="matrix(1.3333330154418945, 0, 0, -1.3333330154418945, 2680.381559139263, 228.6531320645554)">
    <path d="m 0,0 -0.576,-0.648 -1.584,-1.512 -0.432,-0.864 -0.217,-1.008 0.289,0.288 0.577,0.576 0.575,0.504 0.432,0.144 1.583,1.152 L 2.088,0 Z" style="fill:#ffffff;fill-opacity:1;fill-rule:nonzero;stroke:none" id="path1146"/>
  </g>
  <g id="g1148" transform="matrix(1.3333330154418945, 0, 0, -1.3333330154418945, 2684.98963095728, 228.6531320645554)">
    <path d="m 0,0 -0.433,-0.648 -2.376,-2.16 -2.231,-1.224 -1.008,-1.584 -0.36,-1.224 v -1.368 l 0.143,-1.224 v -3.816 -3.096 l 0.073,-2.592 0.504,-2.448 0.864,-2.376 1.584,-2.664 2.089,-3.096 3.095,-3.744 1.871,-0.144 2.089,-0.144 1.945,0.144 1.798,0.648 0.504,0.072 0.289,0.072 8.711,6.192 0.073,4.968 -0.287,4.896 -1.081,4.536 -2.377,4.104 -1.08,2.304 -1.727,1.8 -2.16,1.296 L 8.063,-1.728 6.336,-0.864 5.256,0 Z" style="fill:#ffffff;fill-opacity:1;fill-rule:nonzero;stroke:none" id="path1150"/>
  </g>
  <g id="g1152" transform="matrix(1.3333330154418945, 0, 0, -1.3333330154418945, 2669.2448430444642, 428.14136575284283)">
    <path d="m 0,0 -1.512,-0.36 0.216,-1.44 0.576,1.008 z" style="fill:#ffffff;fill-opacity:1;fill-rule:nonzero;stroke:none" id="path1154"/>
  </g>
  <g id="g1156" transform="matrix(1.3333330154418945, 0, 0, -1.3333330154418945, 2667.806041304168, 435.0534734798675)">
    <path d="m 0,0 0.863,-0.936 1.296,-0.36 1.368,0.072 1.512,0.288 0.937,0.144 0.719,-0.36 0.793,-0.288 h 0.575 l 0.289,0.432 -0.361,0.36 -1.8,0.432 L 4.248,-0.432 2.376,-0.504 0.647,0.144 0.359,0.072 Z" style="fill:#000000;fill-opacity:1;fill-rule:nonzero;stroke:none" id="path1158"/>
  </g>
  <g id="g1160" transform="matrix(1.3333330154418945, 0, 0, -1.3333330154418945, 2678.748747028556, 223.468888508909)">
    <path d="M 0,0 -0.359,0.144 -0.936,0.216 -1.367,0.144 -1.871,0.216 -2.879,-0.936 -3.6,-2.16 v -1.728 l 0.937,-2.016 0.288,1.8 1.08,1.728 1.151,1.368 z" style="fill:#ffffff;fill-opacity:1;fill-rule:nonzero;stroke:none" id="path1162"/>
  </g>
  <g id="g1164" transform="matrix(1.3333330154418945, 0, 0, -1.3333330154418945, 2676.061247669306, 233.35690698475446)">
    <path d="M 0,0 0.648,2.16 2.16,4.104 3.961,5.904 5.328,7.56 H 3.456 L 2.809,5.976 1.297,4.392 0,2.448 Z" style="fill:#ffffff;fill-opacity:1;fill-rule:nonzero;stroke:none" id="path1166"/>
  </g>
  <g id="g1168" transform="matrix(1.3333330154418945, 0, 0, -1.3333330154418945, 2702.269574754086, 232.49362594057675)">
    <path d="M 0,0 -0.359,1.152 -1.08,2.232 -1.943,2.88 -2.952,3.457 -3.313,3.528 -3.527,3.672 -4.536,4.249 -5.472,4.896 -6.336,5.76 -6.912,6.912 -8.208,6.984 -8.352,5.904 -7.775,4.752 -6.191,3.096 -4.32,1.872 -2.088,0.937 -0.072,-0.144 0,-0.072 Z" style="fill:#ffffff;fill-opacity:1;fill-rule:nonzero;stroke:none" id="path1170"/>
  </g>
  <g id="g1172" transform="matrix(1.3333330154418945, 0, 0, -1.3333330154418945, 2700.636762643379, 228.07761136843692)">
    <path d="M 0,0 -0.647,2.016 -2.879,3.672 H -3.168 -3.672 V 2.521 L -2.808,1.44 -2.088,1.081 -1.295,0.792 -0.647,0.36 0,-0.216 Z" style="fill:#ffffff;fill-opacity:1;fill-rule:nonzero;stroke:none" id="path1174"/>
  </g>
  <g id="g1176" transform="matrix(1.3333330154418945, 0, 0, -1.3333330154418945, 2733.757848496695, 401.4532210741272)">
    <path d="m 0,0 -0.072,-1.224 0.504,-1.008 0.504,-0.216 h 0.792 l 0.792,0.216 0.648,0.216 0.288,0.432 0.144,0.648 0.576,-2.952 0.576,2.952 h 0.144 0.072 l 0.216,-1.08 1.728,-0.72 1.08,0.792 0.36,1.44 L 7.992,0.72 7.128,1.368 9.432,1.728 9,1.8 8.063,2.016 7.128,2.16 6.768,2.232 7.128,2.736 7.56,3.024 V 4.032 L 7.128,4.392 6.552,4.68 5.544,4.968 5.04,4.32 4.536,3.312 3.96,6.408 3.6,3.312 3.096,4.608 2.376,5.184 1.512,5.04 0.72,4.824 -0.864,7.488 V 7.704 7.992 L 0.72,7.416 2.52,7.2 4.104,7.344 5.688,8.064 6.479,8.928 7.128,9.72 7.56,10.656 v 1.08 L 7.128,12.744 6.624,13.608 6.264,14.256 5.688,15.048 5.976,12.744 5.399,10.512 4.536,9.936 3.743,9.432 2.231,9.072 H 0.72 l -1.584,0.576 -1.152,0.864 1.152,0.648 1.584,0.072 1.511,-0.144 1.512,0.072 0.937,6.768 -0.361,7.2 0.217,0.216 0.432,0.288 11.448,-5.904 -0.072,-57.24 h -46.296 l 1.224,2.376 0.432,2.88 0.359,5.04 1.369,4.392 1.872,4.464 1.8,4.608 1.656,3.312 1.512,3.312 1.296,3.456 0.864,3.528 1.08,5.832 v 5.76 L -9,16.56 -4.032,10.224 -4.681,9.648 -5.544,9.36 h -1.08 l -0.864,0.288 -1.8,0.432 -1.728,0.072 -1.585,-0.288 -1.223,-0.72 -0.36,-1.08 -0.144,-1.08 1.943,0.36 h 2.161 L -7.992,7.2 h 2.448 l 0.72,0.504 0.792,0.36 0.792,1.224 0.576,-1.224 0.576,-1.512 0.72,-1.368 L -0.144,4.32 -0.432,3.528 -0.576,2.808 -0.072,2.232 1.728,1.8 -0.792,1.584 1.512,1.152 0.504,0.72 Z" style="fill:#ffffff;fill-opacity:1;fill-rule:nonzero;stroke:none" id="path1178"/>
  </g>
  <g id="g1180" transform="matrix(1.3333330154418945, 0, 0, -1.3333330154418945, 2734.717483684566, 401.35686693043317)">
    <path d="M 0,0 1.8,1.08 2.448,0.072 2.017,-1.368 1.368,-1.656 0.792,-1.8 0.072,-1.08 Z" style="fill:#ffff80;fill-opacity:1;fill-rule:nonzero;stroke:none" id="path1182"/>
  </g>
  <g id="g1184" transform="matrix(1.3333330154418945, 0, 0, -1.3333330154418945, 2743.837273176905, 400.9734034801913)">
    <path d="m 0,0 0.217,-1.08 -0.145,-0.576 -0.504,-0.36 -1.08,-0.072 -0.576,1.512 0.792,1.152 z" style="fill:#ffff80;fill-opacity:1;fill-rule:nonzero;stroke:none" id="path1186"/>
  </g>
  <g id="g1188" transform="matrix(1.3333330154418945, 0, 0, -1.3333330154418945, 2753.341177160997, 372.94150912185074)">
    <path d="m 0,0 -19.871,10.224 -6.481,5.04 -1.656,1.584 -1.44,1.656 -1.295,1.8 -1.225,1.872 -1.151,1.872 -1.081,1.944 -1.152,2.016 -1.08,2.016 -1.872,0.144 -1.872,0.072 -1.8,0.216 -1.944,0.36 -1.944,0.216 -2.016,0.36 -1.872,0.36 -1.872,0.288 -9.936,2.232 -1.728,0.504 -1.728,0.648 -1.656,0.36 -1.655,0.504 -1.656,0.504 -1.584,0.504 -1.657,0.576 -1.656,0.576 -2.232,2.448 18.793,-5.616 1.656,19.584 1.367,-0.072 -0.648,-15.696 3.529,15.984 1.655,-0.288 -4.679,-20.088 4.391,-1.08 11.592,7.488 2.377,1.728 2.304,1.584 2.448,1.513 2.447,1.511 2.304,1.584 2.448,1.584 2.448,1.584 2.449,1.656 1.799,1.008 1.657,1.152 1.727,1.224 1.656,1.296 1.657,1.08 1.727,1.008 1.872,0.648 2.088,0.216 -18.648,-12.816 3.745,-0.144 3.527,-0.648 3.24,-1.224 3.168,-1.584 2.88,-1.944 2.88,-2.232 2.593,-2.448 2.519,-2.592 0.504,-2.52 -0.864,-2.16 -0.504,-0.792 -0.576,-0.72 -0.647,-0.792 -0.432,-0.72 0.647,-1.8 1.152,-1.8 L 0.145,22.536 0.433,20.16 -0.144,18.504 -0.792,17.136 -1.584,15.768 -2.52,14.472 -1.439,11.88 -0.359,9.144 0,6.192 -0.936,3.168 V 2.808 2.664 L 0.145,2.016 V 1.8 1.512 Z" style="fill:#ffff80;fill-opacity:1;fill-rule:nonzero;stroke:none" id="path1190"/>
  </g>
  <g id="g1192" transform="matrix(1.3333330154418945, 0, 0, -1.3333330154418945, 2740.6693051822085, 223.18112816084977)">
    <path d="m 0,0 11.16,0.144 -0.288,-46.944 -2.016,1.584 -1.944,1.512 -1.872,1.512 -1.8,1.44 -1.8,1.512 -1.656,1.512 -1.8,1.44 -1.656,1.44 -0.504,0.504 -0.504,0.432 -0.36,0.216 -0.432,0.36 -0.216,1.656 0.504,1.512 1.08,1.296 1.152,1.152 1.512,1.08 1.728,0.936 1.08,1.08 -0.288,1.44 -2.952,5.616 -1.296,5.904 0.576,6.12 z" style="fill:#ffffff;fill-opacity:1;fill-rule:nonzero;stroke:none" id="path1194"/>
  </g>
  <g id="g1196" transform="matrix(1.3333330154418945, 0, 0, -1.3333330154418945, 2632.0938102352957, 271.94934570026453)">
    <path d="M 0,0 -0.288,0.504 0.288,1.656 H 1.151 L 1.8,1.08 1.655,0.504 1.368,0 0.792,-0.216 Z" style="fill:#ffff80;fill-opacity:1;fill-rule:nonzero;stroke:none" id="path1198"/>
  </g>
  <g id="g1200" transform="matrix(1.3333330154418945, 0, 0, -1.3333330154418945, 2630.941466760036, 270.7012991228221)">
    <path d="m 0,0 -0.648,3.096 -0.36,-2.952 -0.648,0.864 -0.648,0.72 H -3.527 L -4.248,1.296 -4.464,0.504 -4.319,-0.576 -3.888,-1.08 -3.24,-1.44 -5.256,-1.944 -2.88,-2.376 -3.816,-2.52 -4.319,-3.24 v -1.008 l 0.359,-0.72 0.504,-0.36 0.648,-0.144 h 0.504 l 0.504,0.144 0.504,0.936 0.648,-2.376 0.432,2.376 L 0,-5.544 0.36,-6.12 h 0.648 l 0.72,0.288 0.577,-0.144 0.719,-0.576 0.72,-0.864 L 4.176,-8.064 4.248,-8.496 4.32,-8.568 3.024,-8.28 1.368,-7.992 -0.216,-7.848 -1.8,-8.496 -2.664,-9 l -0.649,-0.792 -0.503,-0.864 -0.432,-1.08 0.217,-1.08 0.504,-0.864 0.504,-0.936 0.719,-0.792 -0.072,1.296 -0.216,1.296 0.288,1.224 1.008,0.936 1.656,0.72 1.8,0.288 1.44,-0.288 1.296,-0.72 0.288,-0.36 0.144,-0.144 v -0.072 l -0.072,-0.36 -5.688,-0.144 -0.864,-6.552 0.288,-6.84 -0.143,-0.36 -0.361,-0.144 -11.592,6.408 v 55.008 l 44.064,0.144 -1.44,-5.76 -0.504,-6.192 -0.792,-6.264 -2.448,-5.616 -2.592,-5.832 -2.448,-5.976 -1.584,-6.264 0.144,-6.624 -0.144,-0.576 -0.288,-0.432 -6.336,-3.888 -3.744,5.184 -1.513,0.864 0.29,0.648 0.719,0.576 h 2.232 l 2.52,-0.576 2.16,-0.072 1.945,1.08 0.575,1.224 0.216,1.08 -0.648,-0.216 -0.648,-0.36 -1.224,-0.216 h -1.296 l -1.296,0.216 -1.368,0.072 H 10.152 L 8.855,-8.208 7.849,-8.568 6.84,-9.432 6.624,-9.576 6.408,-9.432 5.832,-8.28 l -0.72,1.224 -0.936,0.936 -1.152,0.792 0.073,1.08 -0.289,0.72 -0.576,0.504 -0.864,0.288 2.376,0.36 -2.664,0.72 0.36,0.144 0.576,-0.216 0.936,1.08 L 2.808,0.936 1.728,1.44 1.08,1.512 0.576,1.08 Z" style="fill:#ffffff;fill-opacity:1;fill-rule:nonzero;stroke:none" id="path1202"/>
  </g>
  <g id="g1204" transform="matrix(1.3333330154418945, 0, 0, -1.3333330154418945, 2627.773498765339, 269.3568984016856)">
    <path d="M 0,0 0.864,-1.152 0.647,-1.656 0.288,-1.872 h -0.576 l -0.504,-0.072 -0.648,0.864 0.144,0.792 0.649,0.36 z" style="fill:#ffff80;fill-opacity:1;fill-rule:nonzero;stroke:none" id="path1206"/>
  </g>
  <g id="g1208" transform="matrix(1.3333330154418945, 0, 0, -1.3333330154418945, 2613.4701167588646, 387.6290056200778)">
    <path d="m 0,0 16.415,-13.536 0.288,-1.296 -0.288,-1.368 -0.792,-1.44 -0.792,-1.224 -1.151,-1.44 -1.225,-1.152 -1.295,-1.08 -1.08,-1.224 2.592,-5.256 1.008,-6.264 -0.576,-6.624 -2.376,-5.832 L 0,-47.88 Z" style="fill:#ffffff;fill-opacity:1;fill-rule:nonzero;stroke:none" id="path1210"/>
  </g>
  <g id="g1212" transform="matrix(1.3333330154418945, 0, 0, -1.3333330154418945, 2661.1823449667145, 251.40507976506706)">
    <path d="m 0,0 -1.944,2.376 -2.016,2.232 -1.801,2.376 -1.8,2.376 -1.656,2.376 -1.656,2.448 -1.44,2.376 -1.512,2.376 -1.295,-2.232 -1.513,-2.376 -1.655,-2.376 L -19.873,9.576 -21.816,7.2 -23.688,4.752 -25.704,2.376 -27.864,0 l 1.943,-2.16 1.801,-2.232 1.8,-2.304 1.799,-2.376 1.729,-2.304 1.728,-2.592 1.655,-2.52 1.584,-2.664 1.512,2.376 1.584,2.448 1.584,2.448 1.729,2.448 1.872,2.52 1.799,2.376 1.801,2.376 z" style="fill:#ff0000;fill-opacity:1;fill-rule:nonzero;stroke:none" id="path1214"/>
  </g>
  <g id="g1216" transform="matrix(1.3333330154418945, 0, 0, -1.3333330154418945, 2744.8932625084717, 423.2447197848778)">
    <path d="m 0,0 -2.016,2.304 -1.872,2.304 -1.872,2.304 -1.8,2.376 -1.656,2.376 -1.656,2.448 -1.512,2.376 -1.368,2.52 -1.368,-2.304 -1.584,-2.376 -1.512,-2.448 -1.8,-2.304 L -21.743,7.128 -23.76,4.68 -25.704,2.304 -27.792,0 l 1.872,-2.304 1.8,-2.16 1.872,-2.232 1.728,-2.376 1.728,-2.449 1.656,-2.447 1.729,-2.592 1.655,-2.592 1.368,2.376 1.656,2.376 1.584,2.52 1.728,2.376 1.801,2.448 1.8,2.448 1.943,2.304 z" style="fill:#ff0000;fill-opacity:1;fill-rule:nonzero;stroke:none" id="path1218"/>
  </g>
  <g id="g1220" transform="matrix(1.3333330154418945, 0, 0, -1.3333330154418945, 2700.0612419472604, 330.22146722377147)">
    <path d="M 0,0 H 3.24 L 3.961,9.072 -7.703,1.296 Z" style="fill:#000000;fill-opacity:1;fill-rule:nonzero;stroke:none" id="path1222"/>
  </g>
  <g id="g1224" transform="matrix(1.3333330154418945, 0, 0, -1.3333330154418945, 2701.21358542252, 328.6850092567583)">
    <path d="M 0,0 0.936,2.232 -0.072,4.464 -1.368,2.448 Z" style="fill:#ffffff;fill-opacity:1;fill-rule:nonzero;stroke:none" id="path1226"/>
  </g>
  <g id="g1228" transform="matrix(1.3333330154418945, 0, 0, -1.3333330154418945, 2696.029992908385, 246.3171903531147)">
    <path d="M 0,0 1.367,-0.072 2.736,0 3.888,0.144 5.039,0.792 4.68,2.808 3.6,3.744 2.16,4.176 0.144,4.392 V 4.248 L 0,3.888 0.432,3.816 1.656,3.6 2.736,3.456 2.951,3.384 V 3.168 L 1.728,3.456 0.287,3.384 -1.297,2.952 -2.736,2.376 -3.024,2.016 -3.096,1.368 Z" style="fill:#000000;fill-opacity:1;fill-rule:nonzero;stroke:none" id="path1230"/>
  </g>
  <g id="g1232" transform="matrix(1.3333330154418945, 0, 0, -1.3333330154418945, 2696.5091594608098, 245.45325826742558)">
    <path d="m 0,0 -2.735,1.152 1.871,0.72 0.288,-1.008 z" style="fill:#ffffff;fill-opacity:1;fill-rule:nonzero;stroke:none" id="path1234"/>
  </g>
  <g id="g1236" transform="matrix(1.3333330154418945, 0, 0, -1.3333330154418945, 2677.213591144566, 241.70911853509824)">
    <path d="M 0,0 1.296,0.648 2.52,1.152 3.601,1.44 4.681,1.224 V 1.008 0.792 H 3.601 3.023 L 2.376,0.648 1.151,-0.072 2.592,0.36 4.32,0.432 5.688,0.144 6.84,-0.576 5.688,2.088 4.607,2.808 H 3.312 L 1.944,2.736 0.647,3.168 v 0.216 0.36 L 2.017,3.816 3.384,3.96 4.824,3.888 6.048,3.168 7.2,0.792 7.776,-1.728 7.632,-4.68 6.84,-7.416 6.336,-8.712 6.265,-9.936 8.64,-11.304 8.856,-11.952 9,-12.744 l -0.647,-0.072 -0.577,0.648 -0.648,0.792 -0.863,0.432 -0.577,0.288 -0.289,0.504 L 6.84,-3.024 5.616,-3.096 4.393,-3.312 3.168,-3.528 2.017,-3.024 1.512,-2.808 0.647,-2.52 0.072,-2.016 0.433,-1.368 0.145,-0.36 Z" style="fill:#000000;fill-opacity:1;fill-rule:nonzero;stroke:none" id="path1238"/>
  </g>
  <g id="g1240" transform="matrix(1.3333330154418945, 0, 0, -1.3333330154418945, 2686.52478684127, 266.4773417965589)">
    <path d="M 0,0 0.865,-0.36 2.089,-0.504 3.24,-0.36 4.104,-0.072 4.536,0.36 4.104,0.432 3.097,0.144 H 2.089 1.08 L 0,0.576 -0.144,0.288 Z" style="fill:#000000;fill-opacity:1;fill-rule:nonzero;stroke:none" id="path1242"/>
  </g>
  <g id="g1244" transform="matrix(1.3333330154418945, 0, 0, -1.3333330154418945, 2687.773484460224, 268.7813777055672)">
    <path d="M 0,0 0.72,0.288 H 1.513 2.304 L 2.88,0.072 3.168,-0.36 2.88,-0.504 2.16,-0.288 1.44,-0.144 0.72,-0.288 0,-0.504 -0.071,-0.288 Z" style="fill:#000000;fill-opacity:1;fill-rule:nonzero;stroke:none" id="path1246"/>
  </g>
  <g id="g1248" transform="matrix(1.3333330154418945, 0, 0, -1.3333330154418945, 2694.684941145737, 265.0372379732398)">
    <path d="M 0,0 0.145,1.512 0,2.808 -0.432,2.52 -0.936,2.088 -2.016,2.304 -2.88,2.088 -3.888,1.8 -4.823,1.584 -5.543,1.8 -6.264,1.944 H -7.056 L -7.704,1.728 -7.991,1.944 -8.136,2.088 V 1.296 L -7.704,0.504 -6.479,0.72 -4.247,1.152 -1.8,0.936 Z" style="fill:#000000;fill-opacity:1;fill-rule:nonzero;stroke:none" id="path1250"/>
  </g>
  <g id="g1252" transform="matrix(1.3333330154418945, 0, 0, -1.3333330154418945, 2691.613327294734, 256.8770836687727)">
    <path d="m 0,0 0.937,0.072 0.935,0.36 0.649,0.576 V 1.584 L 2.304,1.728 2.016,1.584 1.801,0.864 1.297,0.648 0.504,0.432 -0.216,0.792 -1.008,1.656 -2.16,1.944 -3.023,1.656 -3.168,1.224 -2.088,0.432 -1.296,0.216 -0.648,0.144 Z" style="fill:#000000;fill-opacity:1;fill-rule:nonzero;stroke:none" id="path1254"/>
  </g>
  <g id="g1256" transform="matrix(1.3333330154418945, 0, 0, -1.3333330154418945, 2699.7734815992007, 245.3569041237315)">
    <path d="M 0,0 1.584,0.36 1.296,1.872 0.792,0.864 Z" style="fill:#ffffff;fill-opacity:1;fill-rule:nonzero;stroke:none" id="path1258"/>
  </g>
  <g id="g1260" transform="matrix(1.3333330154418945, 0, 0, -1.3333330154418945, 2701.406293709908, 238.34909329452424)">
    <path d="M 0,0 -0.937,0.864 -2.232,1.296 -3.673,1.224 -5.041,0.864 H -6.048 L -6.841,1.08 -7.561,1.44 H -8.28 l -0.145,-0.36 0.361,-0.504 1.799,-0.36 2.016,0.216 1.873,0.072 1.584,-0.72 0.359,0.072 z" style="fill:#000000;fill-opacity:1;fill-rule:nonzero;stroke:none" id="path1262"/>
  </g>
  <g id="g1264" transform="matrix(1.3333330154418945, 0, 0, -1.3333330154418945, 2684.126349913102, 245.3569041237315)">
    <path d="M 0,0 1.439,0.36 1.151,1.8 0.792,0.864 Z" style="fill:#ffffff;fill-opacity:1;fill-rule:nonzero;stroke:none" id="path1266"/>
  </g>
  <g id="g1268" transform="matrix(1.3333330154418945, 0, 0, -1.3333330154418945, 2680.862027774711, 244.97344067348968)">
    <path d="M 0,0 -1.801,0.576 -1.225,1.8 -0.792,0.792 Z" style="fill:#ffffff;fill-opacity:1;fill-rule:nonzero;stroke:none" id="path1270"/>
  </g>
  <g id="g1272" transform="matrix(1.3333330154418945, 0, 0, -1.3333330154418945, 2631.03782090373, 286.9252535880623)">
    <path d="M 0,0 2.952,0.144 2.735,-0.432 2.232,-0.648 1.655,-0.432 H 1.151 Z" style="fill:#ffffff;fill-opacity:1;fill-rule:nonzero;stroke:none" id="path1274"/>
  </g>
  <g id="g1276" transform="matrix(1.3333330154418945, 0, 0, -1.3333330154418945, 2631.03782090373, 286.9252535880623)">
    <path d="M 0,0 2.952,0.144 2.735,-0.432 2.232,-0.648 1.655,-0.432 H 1.151 Z" style="fill:none;stroke:#ffffff;stroke-width:0.075;stroke-linecap:butt;stroke-linejoin:miter;stroke-miterlimit:4;stroke-dasharray:none;stroke-opacity:1" id="path1278"/>
  </g>
  <g id="g1280" transform="matrix(1.3333330154418945, 0, 0, -1.3333330154418945, 2688.253953095671, 428.4291261009021)">
    <path d="M 0,0 1.8,-0.576 1.224,-1.944 0.792,-0.864 Z" style="fill:#ffffff;fill-opacity:1;fill-rule:nonzero;stroke:none" id="path1282"/>
  </g>
  <g id="g1284" transform="matrix(1.3333330154418945, 0, 0, -1.3333330154418945, 2684.98963095728, 428.14136575284283)">
    <path d="m 0,0 -1.512,-0.36 0.287,-1.44 0.578,1.008 z" style="fill:#ffffff;fill-opacity:1;fill-rule:nonzero;stroke:none" id="path1286"/>
  </g>
  <g id="g1288" transform="matrix(1.3333330154418945, 0, 0, -1.3333330154418945, 2726.076860744652, 309.7735554322681)">
    <path d="m 0,0 h -1.799 -1.728 l -1.728,-0.144 -1.801,-0.432 -1.584,-0.432 -1.44,-0.864 -1.224,-1.152 -1.079,-1.44 -1.513,-3.384 -0.431,-3.528 0.287,-3.744 0.936,-3.672 1.081,-1.944 1.152,-1.944 1.439,-1.944 1.369,-1.8 1.656,-1.728 1.655,-1.584 1.656,-1.584 1.872,-1.44 1.009,-0.792 0.863,-0.719 0.865,-0.721 1.151,-0.504 0.792,34.128 z" style="fill:#ffc0c0;fill-opacity:1;fill-rule:nonzero;stroke:none" id="path1290"/>
  </g>
  <g id="g1292" transform="matrix(1.3333330154418945, 0, 0, -1.3333330154418945, 2732.7018591651286, 312.1732944434588)">
    <path d="m 0,0 -0.288,-17.496 0.216,-17.568 8.64,-4.752 1.656,-0.576 0.288,-0.432 0.576,-0.288 2.088,-0.36 0.216,0.072 0.072,0.216 0.504,2.664 -0.361,2.592 -0.863,2.592 -1.152,2.232 1.512,2.664 0.792,3.24 -0.144,3.384 -1.152,3.024 -0.72,0.792 -0.504,1.008 1.08,1.656 1.008,1.8 0.504,2.016 -0.216,2.16 -1.08,1.152 -1.152,1.224 -1.224,0.936 L 8.928,-4.896 7.56,-3.888 6.191,-2.952 4.752,-2.088 3.168,-1.224 2.376,-0.792 1.728,-0.36 1.08,-0.072 0.288,0.216 0.144,0.144 Z" style="fill:#000000;fill-opacity:1;fill-rule:nonzero;stroke:none" id="path1294"/>
  </g>
</svg>