<?xml version="1.0" encoding="utf-8"?>
<svg viewBox="2578.3328 1213.7083 208.2239 295.1999" xmlns="http://www.w3.org/2000/svg">
  <g id="g3982" transform="matrix(1.3333330154418945, 0, 0, -1.3333330154418945, 2586.3008524031907, 1213.708235750728)">
    <path d="m 0,0 h 144.289 l 2.304,-0.648 1.944,-1.801 1.224,-2.663 0.431,-3.384 v -204.408 l -0.431,-3.384 -1.224,-2.665 -1.944,-1.8 -2.304,-0.647 H 0 l -2.304,0.647 -1.872,1.8 -1.296,2.665 -0.504,3.384 V -8.496 l 0.504,3.384 1.296,2.663 1.872,1.801 z" style="fill:#000000;fill-opacity:1;fill-rule:nonzero;stroke:none" id="path3984"/>
  </g>
  <g id="g3986" transform="matrix(1.3333330154418945, 0, 0, -1.3333330154418945, 2589.373768337217, 1218.31626687865)">
    <path d="m 0,0 h 139.752 l 2.232,-0.648 1.871,-1.729 1.297,-2.592 0.36,-3.311 v -198 l -0.36,-3.168 -1.297,-2.664 -1.871,-1.728 -2.232,-0.648 H 0 l -2.305,0.648 -1.799,1.728 -1.224,2.664 -0.36,3.168 v 198 l 0.36,3.311 1.224,2.592 1.799,1.729 z" style="fill:#ffffff;fill-opacity:1;fill-rule:nonzero;stroke:none" id="path3988"/>
  </g>
  <path d="m 1945.257,355.31 h 107.784 V 183.877 h -107.784 z" style="fill:#000000;fill-opacity:1;fill-rule:nonzero;stroke:none" id="path3990" transform="matrix(1.3333330154418945, 0, 0, -1.3333330154418945, 17.00979830339236, 1720.8630627522327)"/>
  <path d="m 1946.913,353.726 h 104.616 V 185.462 h -104.616 z" style="fill:#ffffff;fill-opacity:1;fill-rule:nonzero;stroke:none" id="path3992" transform="matrix(1.3333330154418945, 0, 0, -1.3333330154418945, 17.00979830339236, 1720.8630627522327)"/>
  <g id="g3994" transform="matrix(1.3333330154418945, 0, 0, -1.3333330154418945, 2776.6692965991397, 1482.7016612010157)">
    <path d="M 0,0 -0.144,-2.304 -0.36,-4.607 -0.936,-6.335 -1.728,-7.848 -2.088,-8.424 -2.592,-9.071 -3.096,-9.504 -3.6,-9.863 -4.104,-10.224 -4.68,-10.439 h -0.576 l -0.576,-0.073 -0.575,0.073 h -0.576 l -0.504,0.215 -0.504,0.288 -0.505,0.361 -0.504,0.504 -0.432,0.504 -0.432,0.576 -0.72,1.44 -0.647,1.8 -0.361,2.231 -0.072,2.52 0.072,3.528 0.504,2.809 0.36,1.151 0.577,1.153 0.359,0.792 0.648,0.719 0.648,0.505 0.792,0.36 0.936,0.36 h 0.936 0.72 l 0.72,-0.217 0.649,-0.216 0.504,-0.287 0.504,-0.432 L -2.231,9.721 -1.8,9.145 -1.439,8.425 -0.72,6.769 -0.288,4.896 0,2.593 Z" style="fill:#000000;fill-opacity:1;fill-rule:nonzero;stroke:none" id="path3996"/>
  </g>
  <g id="g3998" transform="matrix(1.3333330154418945, 0, 0, -1.3333330154418945, 2773.406276543771, 1482.7016612010157)">
    <path d="M 0,0 -0.145,3.889 -0.864,6.696 -1.944,8.281 -3.528,8.856 -4.177,8.785 -4.608,8.496 -5.04,8.137 -5.473,7.776 -6.12,6.553 -6.624,4.752 -6.913,2.593 -6.984,0 l 0.071,-2.376 0.36,-2.016 0.504,-1.584 0.792,-1.08 0.361,-0.36 0.431,-0.359 0.505,-0.073 0.432,-0.072 0.504,0.072 0.503,0.073 0.432,0.359 0.433,0.36 0.719,1.224 0.577,1.44 0.215,2.088 z" style="fill:#ffffff;fill-opacity:1;fill-rule:nonzero;stroke:none" id="path4000"/>
  </g>
  <g id="g4002" transform="matrix(1.3333330154418945, 0, 0, -1.3333330154418945, 2778.493514914211, 1474.4451120627602)">
    <path d="m 0,0 -1.943,-1.151 -1.729,-0.792 -2.016,-0.145 -2.304,0.576 -1.872,1.153 -0.936,1.439 -1.296,1.152 -3.024,0.432 v 1.08 1.224 l 3.6,-0.648 1.584,-1.223 0.864,-1.441 1.584,-1.08 2.232,-0.431 1.872,0.503 1.8,1.008 L 0,2.664 Z" style="fill:#000000;fill-opacity:1;fill-rule:nonzero;stroke:none" id="path4004"/>
  </g>
  <g id="g4006" transform="matrix(1.3333330154418945, 0, 0, -1.3333330154418945, 2588.509185210016, 1241.2603532052274)">
    <path d="m 0,0 0.217,2.304 0.216,2.303 0.575,1.8 0.793,1.512 0.504,0.576 0.359,0.576 0.504,0.504 0.505,0.288 0.503,0.288 0.648,0.217 0.504,0.144 0.576,0.072 L 6.48,10.512 6.984,10.368 7.561,10.224 8.064,9.936 8.568,9.575 9.072,9.215 9.505,8.64 9.937,8.063 10.729,6.552 11.377,4.68 11.664,2.52 11.736,0 11.592,-3.457 11.16,-6.336 10.801,-7.561 10.368,-8.568 9.864,-9.433 l -0.576,-0.719 -0.792,-0.504 -0.72,-0.361 -0.864,-0.288 -1.008,-0.071 -0.719,0.071 -0.721,0.144 -0.648,0.217 -0.503,0.359 -0.504,0.36 -0.504,0.577 -0.504,0.576 -0.361,0.647 -0.647,1.585 -0.36,1.944 -0.216,2.303 z" style="fill:#000000;fill-opacity:1;fill-rule:nonzero;stroke:none" id="path4008"/>
  </g>
  <g id="g4010" transform="matrix(1.3333330154418945, 0, 0, -1.3333330154418945, 2591.869861492102, 1241.2603532052274)">
    <path d="m 0,0 0.216,-3.889 0.648,-2.807 1.079,-1.584 1.584,-0.576 0.577,0.144 0.432,0.215 0.504,0.36 0.36,0.361 0.72,1.296 0.432,1.728 0.36,2.159 L 6.984,0 6.912,2.447 6.552,4.464 5.976,6.048 5.256,7.056 4.896,7.487 4.464,7.703 3.96,7.919 3.527,7.991 2.952,7.919 2.448,7.703 2.088,7.487 1.655,7.056 1.008,5.903 0.36,4.319 0.144,2.304 Z" style="fill:#ffffff;fill-opacity:1;fill-rule:nonzero;stroke:none" id="path4012"/>
  </g>
  <g id="g4014" transform="matrix(1.3333330154418945, 0, 0, -1.3333330154418945, 2586.7813210386375, 1249.613175106988)">
    <path d="M 0,0 1.944,1.225 3.673,1.872 5.688,2.088 7.921,1.584 9.864,0.36 10.801,-1.08 12.168,-2.16 15.12,-2.592 V -3.744 -4.896 L 11.593,-4.248 9.864,-3.024 9.072,-1.512 7.416,-0.432 5.257,-0.145 3.313,-0.72 1.584,-1.512 0,-2.592 Z" style="fill:#000000;fill-opacity:1;fill-rule:nonzero;stroke:none" id="path4016"/>
  </g>
  <g id="g4018" transform="matrix(1.3333330154418945, 0, 0, -1.3333330154418945, 2598.877672321309, 1288.300625193075)">
    <path d="m 0,0 h -4.896 l 1.295,2.448 0.649,2.52 L -3.024,7.344 -3.815,9 H -4.248 L -3.744,7.92 -3.601,6.768 -3.815,5.544 -4.608,4.607 -5.688,3.96 -6.769,3.744 -7.992,3.96 l -0.936,0.792 -0.719,1.08 -0.217,1.224 1.08,3.168 2.519,3.383 2.664,3.241 1.513,2.592 1.296,-2.592 L 1.656,13.607 3.96,10.224 5.04,7.056 4.752,5.832 4.176,4.752 3.168,3.96 2.088,3.744 0.792,3.96 -0.216,4.607 -1.008,5.544 -1.296,6.768 -1.08,7.92 -0.576,9 H -1.008 L -1.729,7.344 -1.8,4.968 -1.296,2.448 Z" style="fill:#000000;fill-opacity:1;fill-rule:nonzero;stroke:none" id="path4020"/>
  </g>
  <g id="g4022" transform="matrix(1.3333330154418945, 0, 0, -1.3333330154418945, 2765.246122239303, 1435.3735067948257)">
    <path d="M 0,0 H 4.968 L 3.672,-2.447 3.096,-4.968 v -2.303 l 0.792,-1.657 h 0.36 L 3.744,-7.92 3.6,-6.839 3.888,-5.543 4.607,-4.607 5.76,-3.959 6.84,-3.672 7.992,-3.959 8.928,-4.68 9.72,-5.76 9.936,-7.056 8.783,-10.224 6.336,-13.607 3.672,-16.92 2.16,-19.512 l -1.44,2.592 -2.521,3.24 -2.231,3.456 -1.153,3.168 0.289,1.296 0.648,1.08 0.935,0.721 1.225,0.287 1.224,-0.287 1.08,-0.648 L 1.008,-5.543 1.224,-6.839 1.08,-7.92 0.504,-8.928 h 0.504 l 0.647,1.657 v 2.303 l -0.504,2.521 z" style="fill:#000000;fill-opacity:1;fill-rule:nonzero;stroke:none" id="path4024"/>
  </g>
  <g id="g4026" transform="matrix(1.3333330154418945, 0, 0, -1.3333330154418945, 2641.981828711141, 1301.837161679254)">
    <path d="m 0,0 h -9.648 l 2.591,4.824 1.009,4.968 -0.072,4.464 -1.44,3.385 -0.793,0.143 0.937,-2.016 0.359,-2.375 L -7.632,11.017 -9.144,9 l -2.088,-1.296 -2.376,-0.36 -2.304,0.504 -1.872,1.369 -1.296,2.088 -0.433,2.591 0.576,3.024 1.512,3.311 2.305,3.385 2.664,3.384 2.736,3.313 2.448,3.023 1.872,2.808 1.008,2.304 1.008,-2.304 1.8,-2.736 L 0.72,30.313 3.312,27 5.76,23.688 7.991,20.231 9.432,16.992 9.936,13.896 9.575,11.305 8.28,9.217 6.336,7.848 3.96,7.344 1.584,7.704 -0.504,9 l -1.512,2.017 -0.432,2.376 0.288,2.375 1.008,2.016 -0.936,-0.143 -1.368,-3.385 -0.216,-4.464 1.224,-4.968 z" style="fill:#000000;fill-opacity:1;fill-rule:nonzero;stroke:none" id="path4028"/>
  </g>
  <g id="g4030" transform="matrix(1.3333330154418945, 0, 0, -1.3333330154418945, 2734.8138378282606, 1420.8761754530824)">
    <path d="m 0,0 h -9.504 l 2.448,-4.753 1.224,-5.04 -0.217,-4.464 -1.295,-3.311 -0.864,-0.073 0.936,2.017 0.36,2.159 -0.649,2.521 -1.439,1.871 -2.016,1.369 -2.377,0.359 -2.303,-0.431 -1.8,-1.441 -1.296,-2.088 -0.504,-2.448 0.648,-3.167 1.44,-3.312 2.376,-3.241 2.592,-3.383 2.592,-3.168 2.52,-3.168 1.872,-2.664 1.008,-2.521 1.008,2.521 1.8,2.664 2.232,3.023 2.52,3.24 2.52,3.384 2.088,3.313 1.584,3.312 0.576,3.167 -0.504,2.448 -1.297,2.088 -1.943,1.441 -2.232,0.431 -2.376,-0.359 -2.088,-1.369 -1.512,-1.871 -0.576,-2.521 0.288,-2.159 1.08,-2.017 -0.864,0.073 -1.369,3.311 -0.143,4.464 1.08,5.04 z" style="fill:#000000;fill-opacity:1;fill-rule:nonzero;stroke:none" id="path4032"/>
  </g>
  <g id="g4034" transform="matrix(1.3333330154418945, 0, 0, -1.3333330154418945, 2710.813843550307, 1474.2524648105139)">
    <path d="m 0,0 -1.368,2.808 -1.584,3.383 -1.729,3.888 -1.655,4.609 1.655,10.295 -3.383,2.233 10.008,10.223 3.744,3.457 4.175,3.312 4.465,3.312 4.392,3.456 4.248,3.599 3.744,4.032 2.952,4.609 1.512,5.183 v 39.888 l -2.16,1.729 -2.088,2.231 -2.16,2.521 -2.161,2.448 0.361,25.488 1.727,3.743 1.009,5.257 0.864,3.167 0.72,2.952 -3.744,-2.088 -3.24,5.473 -2.952,-6.12 -0.504,0.287 -0.504,0.648 -0.504,0.577 -0.504,0.647 -1.8,1.081 0.792,-6.336 0.72,-6.696 0.72,-1.513 0.216,-1.512 0.287,-10.151 0.073,-10.224 -5.76,4.896 0.648,0.936 0.719,0.935 0.576,1.009 0.504,1.008 1.08,6.336 -0.935,6.192 -1.584,6.264 -1.44,6.048 -0.289,6.767 0.721,6.481 20.736,-0.072 0.144,-1.512 -0.144,1.728 -72.504,0.792 3.096,-7.992 1.08,-5.689 -0.648,-5.183 -2.304,-6.265 h 2.592 l 2.807,0.145 v -0.504 l -2.015,-3.528 -3.096,-3.96 -3.889,-4.249 -4.391,-4.175 -4.824,-4.392 -4.68,-4.104 -4.608,-3.529 -3.96,-3.023 -7.56,-5.473 V 59.256 l 8.208,-7.488 V 38.88 l -0.648,-13.248 -0.576,-2.448 -0.793,-0.937 -0.719,-1.151 -0.504,-2.592 -0.433,-4.681 -0.575,-2.448 0.575,-0.287 0.721,0.071 0.792,0.504 0.72,0.721 3.888,-3.96 0.936,1.08 0.648,1.008 0.504,1.151 0.648,1.441 0.432,-0.361 0.504,-0.504 0.36,-0.647 0.648,-0.504 1.655,-0.72 0.361,0.576 0.36,0.431 -1.152,3.601 -0.361,3.744 -0.504,3.6 -1.511,3.455 v 20.449 l 0.288,0.504 0.504,-0.289 1.295,-1.007 1.297,-0.936 1.295,-1.009 1.297,-0.935 0.216,-0.217 -0.216,-0.215 -2.232,-3.672 -0.937,-4.465 0.073,-4.895 1.008,-4.68 2.736,-12.745 L -51.984,0 Z" style="fill:#000000;fill-opacity:1;fill-rule:nonzero;stroke:none" id="path4036"/>
  </g>
  <g id="g4038" transform="matrix(1.3333330154418945, 0, 0, -1.3333330154418945, 2720.029987186339, 1417.1326053820776)">
    <path d="m 0,0 -2.305,0.647 -4.175,2.449 -4.176,2.376 -4.176,2.448 -4.105,2.592 -3.959,2.519 -3.888,2.665 -3.672,2.808 -3.601,2.735 -2.088,1.729 -2.303,1.8 -2.16,1.872 -2.088,2.088 -2.088,2.015 -2.16,2.089 -2.017,2.088 -1.943,2.159 0.072,-0.791 0.359,-1.008 1.512,-3.24 1.513,-2.809 1.656,-2.663 1.872,-3.096 1.871,-2.664 1.945,-2.664 1.944,-2.52 2.015,-2.593 2.088,-2.519 2.161,-2.592 2.232,-2.448 2.016,-2.592 -13.176,1.655 H -42.48 L -44.064,4.464 -45.576,4.392 -47.305,4.248 -48.961,4.176 -50.545,3.888 -52.2,3.6 -53.928,3.239 -54.864,3.168 -55.729,2.88 l -0.792,-0.288 -0.935,-0.216 2.016,9.216 1.656,9.288 1.223,9.359 0.361,9.145 -0.792,0.359 -0.576,0.433 -20.521,-6.48 -1.079,0.504 0.72,0.503 1.008,0.505 1.08,0.504 0.576,0.36 18.431,5.327 -0.071,0.145 -0.432,0.288 -1.512,3.6 -0.648,3.168 -0.144,3.383 0.216,3.529 -16.848,3.744 0.72,2.592 16.271,-4.825 1.153,2.953 0.431,-0.504 0.576,-0.576 2.089,-4.536 0.72,-5.112 -0.072,-5.257 -0.792,-4.895 1.008,-1.296 1.08,-1.225 1.007,-1.295 1.296,-1.08 1.08,-1.008 1.225,-1.152 1.224,-1.152 1.152,-1.08 1.8,-1.584 1.8,-1.584 1.872,-1.512 1.944,-1.44 1.872,-1.44 1.871,-1.368 2.017,-1.441 1.8,-1.295 2.015,-1.368 2.017,-1.152 1.944,-1.297 2.16,-1.151 1.44,-0.72 1.296,-0.721 1.224,-0.935 1.296,-0.648 1.295,-0.792 1.297,-0.648 1.367,-0.576 1.513,-0.576 7.559,-3.888 2.881,-2.16 z" style="fill:#ffff80;fill-opacity:1;fill-rule:nonzero;stroke:none" id="path4040"/>
  </g>
  <g id="g4042" transform="matrix(1.3333330154418945, 0, 0, -1.3333330154418945, 2651.6784409826214, 1373.8371445131163)">
    <path d="m 0,0 -1.513,-12.384 -0.504,-5.184 -1.151,-6.409 -1.08,-4.607 -0.217,0.504 2.952,0.721 2.809,0.503 3.023,0.288 3.025,0.144 2.88,-0.072 3.024,-0.287 2.951,-0.217 3.025,-0.288 -1.009,1.656 -1.224,1.584 -1.368,1.729 -1.368,1.655 -1.512,1.801 -1.44,1.727 -1.224,1.729 -1.296,1.8 -2.304,3.24 -2.16,3.384 L 2.303,-3.6 0.359,0 0.215,0.144 Z" style="fill:#000000;fill-opacity:1;fill-rule:nonzero;stroke:none" id="path4044"/>
  </g>
  <g id="g4046" transform="matrix(1.3333330154418945, 0, 0, -1.3333330154418945, 2656.285210717615, 1472.5245802940883)">
    <path d="m 0,0 1.44,2.232 1.152,1.368 1.944,0.935 1.656,0.289 1.656,0.288 1.728,0.072 1.728,0.288 1.657,0.432 1.512,0.719 1.296,1.009 1.368,4.319 0.359,4.609 -0.216,4.608 -0.36,4.319 -0.72,1.009 -0.792,0.791 -0.863,0.721 -0.576,0.72 -1.513,1.08 -1.367,1.008 -1.585,0.936 -1.656,0.936 -1.656,0.576 -1.727,0.576 H 2.736 l -1.872,-0.288 -1.656,-1.224 -1.296,-1.44 -1.008,-1.8 -1.08,-1.656 -1.296,-3.241 -0.792,-3.383 -0.359,-3.384 -0.145,-3.385 1.153,-0.287 1.655,0.216 h 1.584 l 1.008,-0.504 0.505,-1.009 0.071,-0.863 0.648,-0.145 0.432,0.504 L 0,13.68 l -0.287,1.872 -0.505,1.872 -0.647,1.8 0.287,1.008 0.793,0.792 1.079,0.72 0.936,0.576 0.361,-0.073 0.215,-0.503 -2.664,-2.232 0.72,-2.737 L 0.864,13.824 1.08,11.736 0.72,10.008 -0.072,8.208 -0.863,7.271 -1.584,6.696 -2.447,6.623 -3.24,6.696 -4.176,7.2 -4.968,7.416 H -5.472 L -5.832,7.271 -6.264,7.2 -6.623,7.128 v 0.647 l 0.575,0.216 0.792,0.072 0.649,-0.072 0.647,-0.216 0.72,-0.071 0.793,-0.144 0.863,0.431 0.576,0.576 0.504,0.937 0.288,0.863 L -1.584,10.296 -1.8,10.079 -2.231,9.648 -2.664,9.72 -3.096,9.792 -3.672,9.863 h -0.504 l -0.648,0.216 -0.791,0.145 -0.793,0.432 -0.432,0.432 -0.216,-0.721 -0.288,-1.512 0.073,-1.368 0.503,-1.368 0.649,-1.295 V 4.752 L -6.479,4.68 -7.416,5.472 -7.92,6.768 V 5.4 l 0.504,-1.368 -0.791,0.503 -0.505,1.081 -0.143,-1.44 0.719,-1.44 V 2.52 L -8.352,2.304 -9,2.88 -9.504,3.672 -10.152,0.432 -9.72,0.216 -8.136,0.144 -7.992,1.008 -8.352,1.8 v 0.288 l 0.216,0.216 0.865,-0.648 0.719,-1.224 0.504,-0.216 0.937,0.216 -2.449,3.095 v 0.217 l 0.216,0.144 3.672,-3.456 0.576,-0.216 0.649,-0.072 0.216,1.08 -0.505,0.864 -0.936,0.792 -0.792,0.432 -0.792,0.504 -0.72,0.576 -0.072,0.143 0.072,0.289 L -4.535,4.392 -3.24,3.744 -2.088,2.736 -1.152,1.512 -0.936,0.72 -0.576,0 Z" style="fill:#ffffff;fill-opacity:1;fill-rule:nonzero;stroke:none" id="path4048"/>
  </g>
  <g id="g4050" transform="matrix(1.3333330154418945, 0, 0, -1.3333330154418945, 2660.030001491454, 1472.5245802940883)">
    <path d="m 0,0 1.296,1.367 1.512,0.792 1.656,0.577 2.015,0.36 1.945,0.431 1.943,0.505 1.656,0.648 1.512,1.152 1.009,1.008 1.008,1.727 1.08,4.177 0.648,4.896 0.215,4.895 0.217,5.185 0.575,1.943 0.937,1.729 1.368,1.152 1.512,1.079 1.224,0.433 1.079,0.431 1.153,0.288 h 1.223 l 0.361,0.792 0.143,1.008 -1.799,0.361 H 23.615 L 21.672,36.504 19.367,35.063 17.783,33.048 16.848,31.392 16.416,29.663 15.911,27.72 15.624,21.816 15.407,13.824 15.048,11.88 14.472,10.079 13.896,8.567 13.104,7.271 11.16,5.4 9,4.824 7.775,4.535 6.552,4.392 4.968,4.176 2.016,3.6 0.216,2.52 -0.576,1.367 -1.009,0.72 -0.792,0.216 -0.217,-0.145 v 0.073 z" style="fill:#ffffff;fill-opacity:1;fill-rule:nonzero;stroke:none" id="path4052"/>
  </g>
  <g id="g4054" transform="matrix(1.3333330154418945, 0, 0, -1.3333330154418945, 2664.2539588177174, 1472.3331130545812)">
    <path d="M 0,0 2.088,-0.144 3.96,0.36 5.976,1.08 7.992,1.656 8.64,2.16 9.216,2.593 9.504,3.168 9.792,3.889 -0.217,1.08 -1.008,0.288 -0.72,0 -0.36,-0.144 h 0.215 z" style="fill:#ffffff;fill-opacity:1;fill-rule:nonzero;stroke:none" id="path4056"/>
  </g>
  <g id="g4058" transform="matrix(1.3333330154418945, 0, 0, -1.3333330154418945, 2671.2617696469247, 1472.717247891382)">
    <path d="M 0,0 H 2.736 L 3.313,0.648 3.456,1.584 -0.288,0.145 -0.144,0.072 Z" style="fill:#ffffff;fill-opacity:1;fill-rule:nonzero;stroke:none" id="path4060"/>
  </g>
  <g id="g4062" transform="matrix(1.3333330154418945, 0, 0, -1.3333330154418945, 2677.406299431954, 1471.9491206331113)">
    <path d="m 0,0 0.936,1.512 0.936,1.584 0.936,1.585 0.792,1.655 1.08,2.232 1.223,2.088 1.296,2.159 1.224,2.089 1.297,2.088 1.223,2.088 1.369,2.088 1.439,2.088 1.44,2.376 1.513,2.304 1.584,2.232 1.512,2.088 1.656,2.376 1.728,2.16 1.727,2.231 1.584,2.162 -0.72,0.575 -0.719,0.431 L 21.815,38.088 18.647,33.769 15.695,29.376 12.959,24.912 10.296,20.305 7.704,15.552 5.255,10.656 2.808,5.832 2.016,4.32 1.296,2.809 0.72,1.368 -0.072,0 Z" style="fill:#ff8080;fill-opacity:1;fill-rule:nonzero;stroke:none" id="path4064"/>
  </g>
  <g id="g4066" transform="matrix(1.3333330154418945, 0, 0, -1.3333330154418945, 2660.030001491454, 1464.0767266767034)">
    <path d="M 0,0 0.936,0.36 1.656,0.504 2.16,0.576 H 2.664 L 4.392,0.072 5.688,0.36 7.128,1.296 6.407,1.151 5.544,0.936 4.68,0.864 3.384,0.936 2.808,1.151 2.16,1.224 H 1.512 L 0.72,0.864 0,0.504 -0.288,0 h 0.071 z" style="fill:#000000;fill-opacity:1;fill-rule:nonzero;stroke:none" id="path4068"/>
  </g>
  <g id="g4070" transform="matrix(1.3333330154418945, 0, 0, -1.3333330154418945, 2634.87766373824, 1458.8931341625685)">
    <path d="m 0,0 -0.792,3.24 -0.145,3.456 -0.503,3.24 -1.44,2.879 0.072,51.913 -0.648,0.289 H -4.32 l -0.792,-0.361 -0.72,-0.143 -2.304,-51.481 -1.872,-2.808 -0.576,-3.24 -0.433,-3.383 -0.863,-3.168 1.584,0.935 1.224,1.368 1.009,1.728 0.863,1.944 0.576,1.944 0.72,1.657 0.072,0.071 0.433,0.144 0.863,-2.808 1.008,-2.952 1.368,-2.52 2.088,-2.089 z" style="fill:#ffff80;fill-opacity:1;fill-rule:nonzero;stroke:none" id="path4072"/>
  </g>
  <g id="g4074" transform="matrix(1.3333330154418945, 0, 0, -1.3333330154418945, 2633.5339140586157, 1454.8617833984574)">
    <path d="m 0,0 -1.44,8.137 -1.081,2.088 -0.359,0.072 -0.433,0.143 V 9.288 L -3.096,8.137 -2.593,5.112 0,0.217 Z" style="fill:#000000;fill-opacity:1;fill-rule:nonzero;stroke:none" id="path4076"/>
  </g>
  <g id="g4078" transform="matrix(1.3333330154418945, 0, 0, -1.3333330154418945, 2685.2773913053393, 1448.3331187766273)">
    <path d="M 0,0 1.296,2.808 5.256,11.881 4.248,11.304 3.385,10.44 2.736,9.072 2.376,7.776 V 7.272 6.84 H 2.16 1.872 l -0.071,1.513 0.359,1.511 0.576,1.152 0.936,1.008 0.721,0.288 0.576,0.361 0.575,0.216 0.576,0.143 0.576,1.153 0.216,1.294 L 5.256,15.048 3.96,14.257 2.736,13.104 1.872,11.881 0.576,9.072 -0.071,6.048 -0.216,2.952 Z" style="fill:#ffffff;fill-opacity:1;fill-rule:nonzero;stroke:none" id="path4080"/>
  </g>
  <g id="g4082" transform="matrix(1.3333330154418945, 0, 0, -1.3333330154418945, 2658.4935435244406, 1446.508981841744)">
    <path d="M 0,0 3.528,1.296 3.744,0.792 3.816,0.288 3.96,0.936 3.528,1.513 -0.359,0.432 V 0.145 Z" style="fill:#000000;fill-opacity:1;fill-rule:nonzero;stroke:none" id="path4084"/>
  </g>
  <g id="g4086" transform="matrix(1.3333330154418945, 0, 0, -1.3333330154418945, 2626.238342881348, 1439.501109977395)">
    <path d="M 0,0 H 1.655 L 2.159,49.752 1.367,37.729 0.792,25.271 0.359,12.6 -0.289,0.072 h 0.144 z" style="fill:#000000;fill-opacity:1;fill-rule:nonzero;stroke:none" id="path4088"/>
  </g>
  <g id="g4090" transform="matrix(1.3333330154418945, 0, 0, -1.3333330154418945, 2679.134163603332, 1435.0858074819082)">
    <path d="m 0,0 0.72,2.953 1.296,2.52 1.511,2.088 2.376,1.584 1.368,0.432 -3.959,1.152 -3.817,0.936 -4.176,0.791 -3.96,0.36 -4.175,0.073 -4.033,-0.433 -4.031,-0.791 -3.889,-1.225 6.624,-4.679 2.449,0.719 h 2.448 L -10.801,6.049 -8.424,5.185 -6.192,4.033 -3.961,2.809 -1.944,1.297 0,-0.216 v 0.145 z" style="fill:#ffffff;fill-opacity:1;fill-rule:nonzero;stroke:none" id="path4092"/>
  </g>
  <g id="g4094" transform="matrix(1.3333330154418945, 0, 0, -1.3333330154418945, 2658.974012159888, 1280.5246260704555)">
    <path d="m 0,0 h 1.512 l 7.704,10.512 5.904,7.92 0.791,1.152 3.168,4.104 L 14.831,23.544 13.607,21.96 12.672,20.376 11.448,19.079 9.936,18.072 9.647,14.112 8.783,12.527 7.703,11.376 6.191,10.512 3.815,9.648 5.76,11.52 7.271,13.176 8.136,15.048 8.567,17.279 6.552,16.848 H 6.048 L 5.399,16.632 H 4.68 l -0.216,0.359 0.288,0.145 0.504,0.216 0.72,0.072 0.36,0.072 1.944,0.936 -3.024,1.944 -0.504,0.432 -1.152,0.576 -1.369,0.863 -0.935,0.721 4.68,-1.656 2.736,-1.873 -0.145,4.033 1.153,-4.393 1.224,1.513 0.719,1.296 0.505,1.08 0.504,0.576 H -1.009 L 0.36,20.016 0.936,18.936 1.368,17.928 2.088,15.983 2.592,14.039 2.808,11.736 2.952,9.432 2.88,6.768 2.304,4.392 Z" style="fill:#ffff80;fill-opacity:1;fill-rule:nonzero;stroke:none" id="path4096"/>
  </g>
  <g id="g4098" transform="matrix(1.3333330154418945, 0, 0, -1.3333330154418945, 2739.516961706948, 1352.3331620098581)">
    <path d="m 0,0 0.792,52.272 1.873,2.736 0.72,3.384 0.359,3.6 1.008,3.528 -1.655,-1.224 -1.441,-1.584 -1.296,-1.8 -0.792,-1.8 -0.36,-2.015 -0.575,-1.729 -0.216,-0.216 h -0.36 l -0.721,2.88 -0.936,2.952 -1.296,2.664 -2.087,2.232 0.431,-2.808 0.361,-2.952 0.503,-2.88 0.36,-2.952 0.577,-1.8 0.216,-2.015 V 24.984 l -0.361,-26.28 0.504,-0.143 1.153,0.071 1.511,0.432 z" style="fill:#ffff80;fill-opacity:1;fill-rule:nonzero;stroke:none" id="path4100"/>
  </g>
  <g id="g4102" transform="matrix(1.3333330154418945, 0, 0, -1.3333330154418945, 2640.8294852358817, 1308.6522235309787)">
    <path d="m 0,0 2.232,1.224 2.88,-1.153 4.248,-2.376 4.032,-2.448 4.176,-2.376 4.176,-2.519 3.96,-2.665 3.816,-2.591 3.6,-2.737 3.672,-2.952 2.16,-1.584 2.232,-1.8 2.16,-1.872 2.16,-2.088 2.088,-2.087 2.16,-2.088 1.944,-2.088 1.945,-2.088 -0.073,0.792 -0.36,0.863 -1.512,3.313 -1.512,2.807 -1.656,2.737 -1.872,3.095 -1.801,2.664 -1.871,2.592 -2.015,2.664 -2.089,2.52 -2.088,2.593 -2.16,2.519 -2.232,2.448 -1.8,3.889 1.512,-0.504 1.656,-0.505 1.512,-0.504 1.728,-0.504 1.297,-0.072 1.367,-0.143 1.08,-0.073 1.225,-0.216 1.08,-0.144 1.295,-0.144 1.224,-0.071 1.368,-0.144 1.008,0.071 1.08,0.144 1.152,0.144 h 1.224 l 1.224,0.144 1.152,0.216 1.152,0.216 0.936,0.288 5.472,2.017 -3.168,-10.225 -1.656,-9.216 -1.224,-9.36 -0.288,-9.216 0.721,-0.431 0.647,-0.433 20.52,6.553 1.008,-0.504 -0.648,-0.576 -1.008,-0.433 -1.08,-0.504 -0.576,-0.36 -18.504,-5.112 0.144,-0.288 0.36,-0.288 1.512,-3.599 0.648,-3.385 0.217,-3.168 -0.288,-3.671 16.919,-3.673 -0.792,-2.664 -16.2,4.824 -1.223,-2.951 -0.433,0.431 -0.504,0.721 -2.015,4.463 -0.865,5.113 0.144,5.256 0.721,4.967 -1.009,1.296 -1.008,1.296 -1.224,1.08 -1.008,1.225 -1.224,1.079 -1.152,1.081 -1.152,1.08 -1.296,1.224 -1.728,1.584 -1.872,1.511 -1.871,1.512 -1.945,1.512 -1.872,1.44 -1.872,1.368 -1.944,1.296 -1.871,1.296 -2.017,1.296 -1.944,1.297 -2.088,1.224 -2.088,1.151 -1.368,0.721 -1.296,0.792 -1.296,0.864 -1.296,0.792 -1.296,0.72 -1.296,0.647 -1.368,0.576 -1.44,0.504 -7.632,3.96 -4.464,2.521 z" style="fill:#ffff80;fill-opacity:1;fill-rule:nonzero;stroke:none" id="path4104"/>
  </g>
  <g id="g4106" transform="matrix(1.3333330154418945, 0, 0, -1.3333330154418945, 2717.7253002358198, 1380.941268795923)">
    <path d="M 0,0 0.288,3.385 -0.072,6.049 -1.008,8.856 -2.159,12.168 -3.096,9.072 -3.168,6.049 -2.88,3.168 -1.943,0 -1.224,-1.44 -0.72,-2.808 Z" style="fill:#ffc0c0;fill-opacity:1;fill-rule:nonzero;stroke:none" id="path4108"/>
  </g>
  <g id="g4110" transform="matrix(1.3333330154418945, 0, 0, -1.3333330154418945, 2719.0703519984677, 1366.0610233202135)">
    <path d="M 0,0 13.247,3.24 12.743,4.464 -0.577,1.008 -0.36,0.36 Z" style="fill:#ffff80;fill-opacity:1;fill-rule:nonzero;stroke:none" id="path4112"/>
  </g>
  <g id="g4114" transform="matrix(1.3333330154418945, 0, 0, -1.3333330154418945, 2627.48573841728, 1365.2928757168957)">
    <path d="m 0,0 13.607,3.816 0.289,0.577 V 5.256 L -0.576,1.225 -0.36,0.504 l 0.072,-0.937 0.144,0.217 z" style="fill:#ffff80;fill-opacity:1;fill-rule:nonzero;stroke:none" id="path4116"/>
  </g>
  <g id="g4118" transform="matrix(1.3333330154418945, 0, 0, -1.3333330154418945, 2737.5976913312043, 1343.693800462872)">
    <path d="M 0,0 1.152,44.785 0.647,45.073 -0.072,45.217 -0.864,45.073 -1.584,45 -2.448,-1.871 Z" style="fill:#000000;fill-opacity:1;fill-rule:nonzero;stroke:none" id="path4120"/>
  </g>
  <g id="g4122" transform="matrix(1.3333330154418945, 0, 0, -1.3333330154418945, 2712.5417077216853, 1350.412630241186)">
    <path d="m 0,0 1.439,12.24 0.29,0.288 0.359,0.288 v 3.816 l 0.72,3.888 1.007,3.816 0.289,1.728 0.288,1.799 -1.369,-0.359 -1.439,-0.36 -1.44,-0.361 -1.44,-0.216 -1.44,-0.215 -1.512,-0.216 -1.512,-0.288 -1.512,-0.073 -1.44,0.073 -1.44,0.143 -1.512,0.217 -1.656,0.144 -1.368,0.215 -1.512,0.145 -1.512,0.143 -1.44,0.073 1.08,-1.296 1.152,-1.656 1.296,-1.728 1.512,-1.656 1.511,-1.729 1.297,-1.799 1.368,-1.728 1.224,-1.801 2.304,-3.239 2.16,-3.313 L -2.304,3.528 -0.288,0 -0.144,-0.217 Z" style="fill:#000000;fill-opacity:1;fill-rule:nonzero;stroke:none" id="path4124"/>
  </g>
  <g id="g4126" transform="matrix(1.3333330154418945, 0, 0, -1.3333330154418945, 2708.5091565997864, 1332.9412802400147)">
    <path d="M 0,0 0.648,1.009 -0.359,3.528 V 3.816 L -0.144,3.961 1.44,4.032 2.089,5.256 1.729,6.84 0.648,8.137 -0.359,9.504 -1.656,10.656 -2.808,11.952 -3.527,10.296 -4.104,8.568 -4.32,6.553 V 4.608 l 0.289,-0.432 0.287,-0.36 0.576,-0.288 0.648,-0.072 0.864,0.216 0.648,0.289 0.936,-4.032 z" style="fill:#ffff80;fill-opacity:1;fill-rule:nonzero;stroke:none" id="path4128"/>
  </g>
  <g id="g4130" transform="matrix(1.3333330154418945, 0, 0, -1.3333330154418945, 2627.6784467046677, 1319.5011385876244)">
    <path d="M 0,0 -0.505,-0.648 -1.08,-1.08 0.287,-5.472 h 1.009 l -0.217,0.361 -0.432,0.287 0.216,0.648 0.504,0.576 -0.792,2.088 z" style="fill:#ffffff;fill-opacity:1;fill-rule:nonzero;stroke:none" id="path4132"/>
  </g>
  <g id="g4134" transform="matrix(1.3333330154418945, 0, 0, -1.3333330154418945, 2628.2539674007858, 1319.0207513323658)">
    <path d="m 0,0 2.088,-5.185 0.072,-0.072 0.36,-0.215 0.36,0.215 0.143,0.505 -0.359,0.216 -0.504,0.288 0.36,0.36 0.719,0.215 L 2.16,1.512 1.728,1.296 1.367,0.72 0.792,0.144 Z" style="fill:#ffffff;fill-opacity:1;fill-rule:nonzero;stroke:none" id="path4136"/>
  </g>
  <g id="g4138" transform="matrix(1.3333330154418945, 0, 0, -1.3333330154418945, 2642.55734940726, 1338.5090279359977)">
    <path d="m 0,0 0.216,-0.072 0.36,-0.216 0.216,0.216 0.145,0.217 -2.521,16.199 -0.72,0.719 L -2.952,18 v 0.432 0.504 l 0.144,0.36 0.361,0.072 0.216,-0.576 V 18 l -0.216,2.305 -0.937,-2.521 -0.288,-2.448 0.144,-2.664 V 10.08 L -4.319,9.359 -5.4,9.145 -6.552,8.784 -7.704,8.352 h -0.72 L -9.216,8.208 -9.936,8.063 -10.584,7.848 h -0.288 l -0.287,0.289 -1.225,3.311 -1.152,-7.272 z" style="fill:#ffffff;fill-opacity:1;fill-rule:nonzero;stroke:none" id="path4140"/>
  </g>
  <g id="g4142" transform="matrix(1.3333330154418945, 0, 0, -1.3333330154418945, 2634.5899033901806, 1325.4530414654548)">
    <path d="M 0,0 0.36,0.072 0.72,0.144 0.36,0.647 -0.145,1.08 0.36,1.44 1.008,1.368 -0.36,7.632 -1.225,7.128 -1.944,6.336 -0.217,0 h 0.072 z" style="fill:#ffffff;fill-opacity:1;fill-rule:nonzero;stroke:none" id="path4144"/>
  </g>
  <g id="g4146" transform="matrix(1.3333330154418945, 0, 0, -1.3333330154418945, 2636.9896424013714, 1324.0128969520413)">
    <path d="M 0,0 -0.433,4.248 0.288,8.567 -1.439,7.128 Z" style="fill:#ffffff;fill-opacity:1;fill-rule:nonzero;stroke:none" id="path4148"/>
  </g>
  <g id="g4150" transform="matrix(1.3333330154418945, 0, 0, -1.3333330154418945, 2735.1979523200134, 1405.228982731842)">
    <path d="M 0,0 0.432,0.504 1.008,1.08 -0.288,5.399 H -1.224 L -1.152,5.04 -0.576,4.681 -0.864,4.177 -1.368,3.528 -0.576,1.368 Z" style="fill:#ffffff;fill-opacity:1;fill-rule:nonzero;stroke:none" id="path4152"/>
  </g>
  <g id="g4154" transform="matrix(1.3333330154418945, 0, 0, -1.3333330154418945, 2734.6211295408725, 1405.708210319408)">
    <path d="M 0,0 -2.016,5.04 -2.088,5.255 -2.52,5.327 -2.808,5.255 -3.023,4.751 -2.592,4.536 -2.088,4.175 -2.52,3.743 -3.24,3.527 l 1.152,-4.967 0.432,0.144 0.36,0.575 0.576,0.576 z" style="fill:#ffffff;fill-opacity:1;fill-rule:nonzero;stroke:none" id="path4156"/>
  </g>
  <g id="g4158" transform="matrix(1.3333330154418945, 0, 0, -1.3333330154418945, 2720.317747534398, 1386.2212764888936)">
    <path d="m 0,0 h -0.144 l -0.432,0.144 -0.145,-0.072 -0.215,-0.216 2.448,-16.2 0.792,-0.72 0.648,-1.007 v -0.361 -0.432 l -0.217,-0.36 -0.359,-0.072 -0.216,0.504 v 0.721 l 0.216,-2.16 0.936,2.375 0.288,2.592 -0.072,2.664 v 2.592 l 0.72,0.648 1.08,0.289 1.224,0.215 1.008,0.504 0.864,0.072 0.72,0.072 0.72,0.144 0.648,0.288 0.288,-0.072 0.36,-0.216 1.224,-3.384 1.008,7.272 z" style="fill:#ffffff;fill-opacity:1;fill-rule:nonzero;stroke:none" id="path4160"/>
  </g>
  <g id="g4162" transform="matrix(1.3333330154418945, 0, 0, -1.3333330154418945, 2728.1888394077837, 1399.2771408891533)">
    <path d="M 0,0 H -0.215 L -0.647,-0.216 -0.359,-0.648 0.145,-1.08 -0.359,-1.439 -0.936,-1.368 0.433,-7.56 1.297,-7.128 1.944,-6.264 0.217,0 H 0.145 Z" style="fill:#ffffff;fill-opacity:1;fill-rule:nonzero;stroke:none" id="path4164"/>
  </g>
  <g id="g4166" transform="matrix(1.3333330154418945, 0, 0, -1.3333330154418945, 2725.885454540287, 1400.7172650575196)">
    <path d="M 0,0 0.36,-4.247 -0.216,-8.568 1.44,-7.199 Z" style="fill:#ffffff;fill-opacity:1;fill-rule:nonzero;stroke:none" id="path4168"/>
  </g>
  <g id="g4170" transform="matrix(1.3333330154418945, 0, 0, -1.3333330154418945, 2654.1732320544834, 1307.5011414486473)">
    <path d="m 0,0 0.576,0.648 0.504,0.576 0.432,0.72 0.576,0.576 2.305,3.168 2.16,3.167 2.16,3.241 2.016,3.169 2.015,3.239 2.016,3.24 1.801,3.384 1.871,3.384 1.945,3.744 1.727,3.673 1.8,3.815 1.8,4.032 -3.096,-5.616 -3.096,-5.472 -3.096,-5.4 L 13.248,21.889 9.864,16.633 6.264,11.592 2.521,6.479 -1.512,1.512 -1.08,0.648 Z" style="fill:#ffc0c0;fill-opacity:1;fill-rule:nonzero;stroke:none" id="path4172"/>
  </g>
  <g id="g4174" transform="matrix(1.3333330154418945, 0, 0, -1.3333330154418945, 2697.8529091404343, 1305.1964951882221)">
    <path d="m 0,0 h 1.873 l 2.016,0.216 h 1.872 l 1.872,0.288 2.015,0.287 1.8,0.288 1.945,0.433 2.448,0.863 L 14.112,3.6 8.929,7.344 7.416,6.84 5.761,6.552 4.104,6.479 2.377,6.623 0.289,7.344 l -1.513,0.647 -2.088,1.153 -1.511,1.08 -0.792,0.504 -0.72,0.576 -1.296,1.655 -1.224,0.865 -0.792,-3.241 -0.865,-2.088 -1.008,-1.872 -1.728,-1.584 -1.08,-0.647 -1.224,-0.648 -1.367,-0.36 H -18 l 2.088,-0.721 2.305,-0.575 2.087,-0.576 2.376,-0.504 2.232,-0.217 2.305,-0.359 2.303,-0.216 z" style="fill:#ffffff;fill-opacity:1;fill-rule:nonzero;stroke:none" id="path4176"/>
  </g>
  <g id="g4178" transform="matrix(1.3333330154418945, 0, 0, -1.3333330154418945, 2669.821665823605, 1299.6287474922392)">
    <path d="m 0,0 5.472,1.512 1.584,0.792 1.44,1.368 0.936,1.8 0.719,2.16 0.578,8.28 0.503,8.495 3.096,7.057 -0.072,-0.36 -0.216,-0.432 -1.8,-4.464 -0.36,-4.896 0.216,-5.113 0.144,-4.895 0.72,-0.937 0.792,-0.792 0.792,-0.72 0.72,-0.719 1.368,-1.008 1.368,-0.937 1.439,-0.935 1.657,-0.937 1.8,-0.719 1.44,-0.432 1.439,-0.144 1.441,0.144 1.44,0.432 2.592,2.377 1.872,3.168 1.368,3.599 1.153,3.743 0.431,4.321 0.144,4.463 H 35.855 L 35.424,25.056 35.136,24.479 V 23.76 l -1.367,-0.576 -1.513,0.216 -1.584,0.503 -1.512,0.361 1.367,-7.273 -2.951,-2.088 -0.36,0.145 -0.216,0.359 2.664,2.521 -1.008,2.952 -0.36,3.24 0.36,3.025 1.224,2.735 0.576,0.648 1.008,0.287 1.224,-0.071 1.152,-0.432 0.576,-0.144 h 0.432 l 0.576,0.144 0.721,0.36 -0.29,-0.936 -0.719,-0.504 -2.736,0.648 h -1.44 l -1.008,-1.151 -0.648,-1.441 -0.361,-1.297 0.866,0.288 1.151,0.217 h 1.656 l 1.872,-0.432 0.216,0.504 -0.792,0.432 -1.152,0.504 -1.296,0.433 0.72,0.143 0.793,-0.143 0.935,-0.289 1.224,-0.288 0.792,-0.864 0.504,-1.152 0.215,3.096 -0.792,3.312 -0.719,0.504 -0.648,0.864 0.216,0.287 h 0.144 l 0.793,-0.575 0.718,-0.792 0.505,-0.864 0.287,-1.008 0.145,1.296 -0.504,1.368 0.072,0.216 0.144,0.143 0.648,-0.576 0.216,-0.863 0.288,1.296 -0.504,1.439 v 0.217 l 0.216,0.216 0.576,-0.576 0.288,-0.937 0.72,3.53 -0.36,0.503 -0.504,0.072 h -0.72 -0.576 l -0.071,-1.296 0.504,-1.152 -0.721,0.215 -0.432,0.504 -0.431,0.792 -0.29,0.649 -0.431,0.216 -0.504,0.072 -0.359,-0.072 -0.433,0.072 2.017,-3.025 V 34.199 L 36,33.912 l -1.08,0.649 -1.008,0.791 -0.792,1.08 -0.504,1.08 L 32.04,37.8 31.32,37.729 31.248,36.792 31.464,36 l 0.576,-0.792 0.648,-0.721 0.503,-0.143 0.433,-0.216 0.36,-0.288 0.36,-0.216 v -0.217 -0.216 h -0.575 l -0.649,0.216 -0.504,0.361 -0.72,0.144 -0.576,0.792 -0.648,0.792 -0.504,0.936 -0.216,1.08 -0.216,0.217 L 29.448,37.8 28.439,36 27.145,34.487 25.488,33.264 23.4,32.615 21.313,32.328 19.225,31.968 17.136,31.464 15.12,30.96 l 0.864,0.72 1.152,0.576 1.223,0.216 1.441,0.36 1.296,0.145 1.44,0.287 1.224,0.288 1.008,0.36 0.432,0.216 0.071,0.071 0.937,0.649 0.576,0.792 0.575,0.935 0.433,0.937 -0.433,0.288 H 26.784 L 26.208,37.296 25.92,36.72 24.984,36 23.76,35.279 22.32,34.704 20.736,34.128 19.151,33.624 17.567,33.191 16.056,32.832 14.76,32.615 l 0.144,0.217 0.72,0.575 0.792,0.505 0.432,0.575 6.048,1.368 1.368,0.937 0.215,0.288 0.216,0.792 -3.672,-0.072 -5.759,-2.16 h -0.216 l -0.144,0.215 4.321,1.945 -3.961,0.288 -0.504,-1.151 V 35.64 l -0.216,-0.432 -0.288,-0.504 -0.792,-1.297 0.288,-0.143 h 0.504 L 12.24,30.312 10.729,26.855 9.504,23.184 8.063,19.584 7.128,18.072 6.479,16.487 5.472,14.111 4.32,11.88 3.168,9.72 2.232,7.344 2.736,7.271 3.168,7.632 3.816,8.279 4.176,8.855 4.68,10.152 5.184,11.52 H 5.328 5.616 V 10.152 L 5.256,8.928 4.68,7.776 3.816,6.84 3.023,6.407 2.448,6.048 1.8,5.832 1.225,5.472 0.145,3.6 1.08,3.384 2.088,3.6 l 1.08,0.36 0.864,0.432 2.447,2.952 1.082,3.6 0.214,3.959 v 3.817 l 0.217,0.288 H 8.28 L 8.641,15.336 8.712,11.52 8.208,7.991 6.479,4.968 5.111,3.888 3.527,3.024 1.656,2.52 0,2.376 -0.576,1.656 -1.08,0.432 -0.648,0.145 Z" style="fill:#ffffff;fill-opacity:1;fill-rule:nonzero;stroke:none" id="path4180"/>
  </g>
  <g id="g4182" transform="matrix(1.3333330154418945, 0, 0, -1.3333330154418945, 2703.229209941958, 1287.148363098004)">
    <path d="M 0,0 3.024,0.432 -0.792,0.503 -0.576,0.215 Z" style="fill:#000000;fill-opacity:1;fill-rule:nonzero;stroke:none" id="path4184"/>
  </g>
  <g id="g4186" transform="matrix(1.3333330154418945, 0, 0, -1.3333330154418945, 2700.253950234648, 1284.748624086813)">
    <path d="M 0,0 1.08,0.576 2.304,1.008 H 3.456 4.68 L 5.832,0.576 6.408,0.359 7.128,0 8.063,1.8 7.128,1.08 6.84,2.088 H 5.976 L 5.184,1.8 3.527,2.592 1.367,1.08 1.08,1.296 0.792,1.655 0.216,0.576 Z" style="fill:#000000;fill-opacity:1;fill-rule:nonzero;stroke:none" id="path4188"/>
  </g>
  <g id="g4190" transform="matrix(1.3333330154418945, 0, 0, -1.3333330154418945, 2735.6784209554617, 1281.964770583869)">
    <path d="m 0,0 -0.721,1.367 v 1.946 l -0.359,1.943 -0.721,1.728 -0.648,1.871 -0.432,0.792 -0.432,0.72 0.649,-2.304 0.143,-2.807 0.289,-2.52 0.935,-2.232 0.721,-0.288 z" style="fill:#000000;fill-opacity:1;fill-rule:nonzero;stroke:none" id="path4192"/>
  </g>
  <g id="g4194" transform="matrix(1.3333330154418945, 0, 0, -1.3333330154418945, 2702.173220610392, 1278.3162525735354)">
    <path d="M 0,0 H 0.216 0.504 L 3.456,1.439 0.216,0.215 -0.072,0.432 -0.287,0.503 -0.432,0.863 -0.504,1.439 -0.647,0.792 -0.359,0.144 h 0.072 z" style="fill:#000000;fill-opacity:1;fill-rule:nonzero;stroke:none" id="path4196"/>
  </g>
  <g id="g4198" transform="matrix(1.3333330154418945, 0, 0, -1.3333330154418945, 2737.213576839451, 1275.4360856169917)">
    <path d="M 0,0 0.72,2.231 1.872,4.247 2.664,6.263 1.944,8.639 1.151,10.008 0.504,11.231 -1.08,7.416 0.647,9.792 0.792,8.711 0.936,8.135 0.433,7.055 -0.647,4.319 0,5.399 0.647,6.407 Z" style="fill:#ffff80;fill-opacity:1;fill-rule:nonzero;stroke:none" id="path4200"/>
  </g>
  <g id="g4202" transform="matrix(1.3333330154418945, 0, 0, -1.3333330154418945, 2696.7018677481974, 1267.660086494372)">
    <path d="m 0,0 4.896,1.367 v 0.288 0.36 L 3.672,2.807 2.088,3.168 0.432,3.312 -1.152,3.023 -1.009,3.168 -0.576,3.384 0,3.527 0.36,3.815 3.24,4.391 0.36,4.104 -1.872,3.384 -2.016,3.527 -2.232,3.815 -2.809,3.455 -2.593,2.807 -3.024,1.367 Z" style="fill:#000000;fill-opacity:1;fill-rule:nonzero;stroke:none" id="path4204"/>
  </g>
  <g id="g4206" transform="matrix(1.3333330154418945, 0, 0, -1.3333330154418945, 2696.7982218918914, 1266.9894323573938)">
    <path d="m 0,0 -0.289,0.216 -0.719,0.504 -0.36,0.577 0.72,0.72 L -1.585,2.089 -1.873,2.017 -2.521,1.585 -2.736,1.152 -2.305,0.864 Z" style="fill:#ffffff;fill-opacity:1;fill-rule:nonzero;stroke:none" id="path4208"/>
  </g>
  <g id="g4210" transform="matrix(1.3333330154418945, 0, 0, -1.3333330154418945, 2710.0456145667995, 1266.2212847540761)">
    <path d="M 0,0 0.072,0.505 V 1.009 L -0.504,0.936 -1.008,0.288 -0.72,0 -0.216,-0.216 V 0 Z" style="fill:#ffffff;fill-opacity:1;fill-rule:nonzero;stroke:none" id="path4212"/>
  </g>
  <g id="g4214" transform="matrix(1.3333330154418945, 0, 0, -1.3333330154418945, 2701.309939566214, 1266.2212847540761)">
    <path d="M 0,0 0.647,0.288 1.079,0.648 0.216,1.44 V 0.936 L 0.144,0.505 Z" style="fill:#ffffff;fill-opacity:1;fill-rule:nonzero;stroke:none" id="path4216"/>
  </g>
  <g id="g4218" transform="matrix(1.3333330154418945, 0, 0, -1.3333330154418945, 2694.109420449619, 1261.132622230329)">
    <path d="M 0,0 1.368,0.792 2.88,1.079 H 4.752 L 7.345,1.152 8.28,1.8 8.784,2.592 6.84,2.088 5.328,1.943 H 3.816 2.16 L 1.224,1.656 0.648,1.296 0.288,0.792 Z" style="fill:#000000;fill-opacity:1;fill-rule:nonzero;stroke:none" id="path4220"/>
  </g>
  <g id="g4222" transform="matrix(1.3333330154418945, 0, 0, -1.3333330154418945, 2715.03780087657, 1267.660086494372)">
    <path d="M 0,0 0.792,0.215 1.008,0.719 0.648,1.295 0.504,0.503 Z" style="fill:#ffffff;fill-opacity:1;fill-rule:nonzero;stroke:none" id="path4224"/>
  </g>
  <g id="g4226" transform="matrix(1.3333330154418945, 0, 0, -1.3333330154418945, 2702.8450954502046, 1442.669139007234)">
    <path d="m 0,0 -1.008,0.937 -16.416,-23.401 4.536,-0.216 0.865,1.945 1.007,1.584 1.225,1.151 1.584,1.08 0.287,4.032 0.864,1.512 0.936,1.152 1.585,0.936 2.375,0.864 -2.016,-1.8 -1.367,-1.8 -1.009,-1.8 -0.288,-2.304 1.872,0.433 h 0.576 l 0.72,0.216 0.649,0.071 0.288,-0.361 -0.361,-0.214 -0.576,-0.145 -0.575,-0.072 -0.505,-0.072 -1.871,-0.936 2.951,-1.943 0.576,-0.361 1.153,-0.72 1.367,-0.792 0.864,-0.719 -4.535,1.655 -2.809,1.872 0.216,-4.032 -1.296,4.248 -1.008,-1.367 -0.503,-1.368 -0.216,-1.225 -0.576,-0.864 13.463,0.144 -0.288,1.152 -0.719,1.44 -0.721,1.368 -0.575,1.441 -1.368,3.671 -0.937,4.176 0.217,4.464 z" style="fill:#ffff80;fill-opacity:1;fill-rule:nonzero;stroke:none" id="path4228"/>
  </g>
  <g id="g4230" transform="matrix(1.3333330154418945, 0, 0, -1.3333330154418945, 2650.7175037117267, 1356.9412745179688)">
    <path d="M 0,0 0.433,3.385 0,6.192 -0.792,8.929 -2.088,12.24 -2.88,9.072 -3.096,6.192 -2.735,3.313 -1.872,0 l 0.721,-1.367 0.575,-1.441 z" style="fill:#ffc0c0;fill-opacity:1;fill-rule:nonzero;stroke:none" id="path4232"/>
  </g>
  <g id="g4234" transform="matrix(1.3333330154418945, 0, 0, -1.3333330154418945, 2660.030001491454, 1404.1729934002763)">
    <path d="M 0,0 0.792,1.8 1.296,3.889 V 5.977 L 0.72,7.849 0,8.137 -0.72,8.208 H -1.512 L -2.16,8.137 -2.664,9.359 -2.809,10.728 -3.168,11.088 -3.744,10.944 -2.809,8.137 -3.601,8.208 -4.104,8.137 -4.68,8.064 -5.04,7.849 -5.473,7.271 -5.688,6.264 -5.185,4.393 -3.672,3.023 -1.801,1.728 -0.217,0 h 0.145 z" style="fill:#ffff80;fill-opacity:1;fill-rule:nonzero;stroke:none" id="path4236"/>
  </g>
  <g id="g4238" transform="matrix(1.3333330154418945, 0, 0, -1.3333330154418945, 2666.365937480849, 1453.8057940668916)">
    <path d="M 0,0 H 1.008 L 1.8,-0.215 2.52,-0.359 3.239,-0.792 4.896,-1.584 V -1.871 L 3.672,-2.735 2.088,-3.168 0.432,-3.239 l -1.657,0.216 0.145,-0.073 0.504,-0.143 0.504,-0.288 0.359,-0.216 2.952,-0.504 -2.952,0.216 -2.159,0.648 -0.216,-0.144 -0.144,-0.216 -0.649,0.36 0.289,0.648 -0.36,1.368 0.72,0.431 0.576,0.361 0.792,0.36 z" style="fill:#000000;fill-opacity:1;fill-rule:nonzero;stroke:none" id="path4240"/>
  </g>
  <g id="g4242" transform="matrix(1.3333330154418945, 0, 0, -1.3333330154418945, 2670.3971865197245, 1457.0688548123546)">
    <path d="M 0,0 H 0.216 L 0.505,0.145 0,0.792 -0.864,1.152 V 0.648 L -0.432,0 h 0.216 z" style="fill:#ffffff;fill-opacity:1;fill-rule:nonzero;stroke:none" id="path4244"/>
  </g>
  <g id="g4246" transform="matrix(1.3333330154418945, 0, 0, -1.3333330154418945, 2664.733125370142, 1457.0688548123546)">
    <path d="M 0,0 H -0.216 L -0.504,0.145 0,0.792 0.864,1.152 V 0.648 L 0.433,0 H 0.288 Z" style="fill:#ffffff;fill-opacity:1;fill-rule:nonzero;stroke:none" id="path4248"/>
  </g>
  <g id="g4250" transform="matrix(1.3333330154418945, 0, 0, -1.3333330154418945, 2627.101623925526, 1446.7016697840847)">
    <path d="m 0,0 -0.576,-2.159 -1.008,-1.945 -0.504,-2.016 0.72,-2.304 0.792,-1.439 0.504,-1.296 1.584,3.599 -1.584,-2.087 -0.288,0.936 -0.216,0.432 0.504,1.08 1.223,2.664 -0.718,-1.008 -0.721,-1.08 z" style="fill:#ffff80;fill-opacity:1;fill-rule:nonzero;stroke:none" id="path4252"/>
  </g>
  <g id="g4254" transform="matrix(1.3333330154418945, 0, 0, -1.3333330154418945, 2657.4375541928757, 1435.0858074819082)">
    <path d="m 0,0 3.024,-0.359 -3.744,-0.216 0.216,0.359 z" style="fill:#000000;fill-opacity:1;fill-rule:nonzero;stroke:none" id="path4256"/>
  </g>
  <g id="g4258" transform="matrix(1.3333330154418945, 0, 0, -1.3333330154418945, 2654.5573465462367, 1437.4855261480518)">
    <path d="m 0,0 1.009,-0.647 1.223,-0.289 1.153,-0.072 1.151,0.072 1.225,0.289 0.504,0.288 L 7.056,0 8.064,-1.8 7.128,-1.151 6.769,-2.088 H 5.904 L 5.185,-1.8 3.528,-2.592 1.296,-1.151 1.009,-1.296 0.648,-1.583 0.144,-0.575 Z" style="fill:#000000;fill-opacity:1;fill-rule:nonzero;stroke:none" id="path4260"/>
  </g>
  <g id="g4262" transform="matrix(1.3333330154418945, 0, 0, -1.3333330154418945, 2652.445367883105, 1456.589667914883)">
    <path d="M 0,0 -0.144,-0.359 V -0.936 L 0.433,-0.792 0.937,-0.215 0.648,0.217 0.144,0.36 V 0.217 Z" style="fill:#ffffff;fill-opacity:1;fill-rule:nonzero;stroke:none" id="path4264"/>
  </g>
  <g id="g4266" transform="matrix(1.3333330154418945, 0, 0, -1.3333330154418945, 2635.7409447824175, 1313.933431581736)">
    <path d="M 0,0 -3.455,3.385 -1.943,4.465 1.584,4.68 3.528,5.185 4.969,6.553 5.185,8.064 4.249,7.416 3.097,7.561 1.944,7.344 0.721,7.129 -0.647,6.912 -1.799,6.553 -2.808,6.12 -3.672,5.544 -4.392,4.465 -4.535,4.393 h -0.288 l 0.792,-0.649 -1.008,0.936 -1.08,0.648 -2.952,2.377 1.44,0.215 -2.089,0.216 0.937,0.217 0.216,0.792 -0.216,1.152 0.359,1.224 -2.519,-0.432 -0.865,-0.577 0.073,-1.079 -0.865,3.095 0.432,-3.168 -0.576,1.369 -2.951,-0.217 1.439,-3.168 1.512,0.361 -2.447,-1.944 2.736,1.511 0.143,-0.503 -1.007,-0.649 0.215,-0.863 0.72,-0.721 0.937,-1.151 0.648,1.08 1.079,1.151 -0.216,1.296 2.953,-2.232 0.792,-0.719 0.503,-0.433 0.216,-0.359 h 0.073 -1.153 L -8.136,3.096 -9.72,2.665 -10.943,1.801 -11.592,1.08 l -0.431,-0.864 -0.289,-0.936 -0.143,-1.008 0.432,-0.936 0.719,-0.792 0.792,-0.575 0.649,-0.576 -0.361,1.08 -0.431,1.223 -0.073,1.153 0.72,1.007 1.368,1.081 1.513,0.647 1.439,0.072 2.088,-0.863 2.376,-1.729 z" style="fill:#000000;fill-opacity:1;fill-rule:nonzero;stroke:none" id="path4268"/>
  </g>
  <g id="g4270" transform="matrix(1.3333330154418945, 0, 0, -1.3333330154418945, 2729.7252973747964, 1409.356585914411)">
    <path d="m 0,0 3.168,-3.168 -1.367,-1.008 -3.24,-0.288 -1.873,-0.432 -1.368,-1.224 -0.216,-1.368 1.008,0.504 1.008,-0.145 1.152,0.288 1.008,0.073 1.296,0.288 1.08,0.288 0.937,0.36 0.792,0.575 0.647,1.009 0.216,0.144 H 4.465 L 3.744,-3.528 4.608,-4.464 5.616,-5.04 8.424,-7.272 7.057,-7.488 9,-7.632 8.136,-7.849 7.92,-8.568 l 0.216,-1.08 -0.288,-1.153 2.304,0.433 0.792,0.431 -0.072,1.081 0.792,-2.808 -0.359,2.951 0.504,-1.296 2.807,0.145 -1.439,2.952 -1.368,-0.36 2.303,1.872 -2.591,-1.368 -0.073,0.36 0.937,0.576 -0.217,0.936 -0.647,0.576 -1.009,1.152 -0.503,-1.08 L 9,-5.257 9.217,-6.48 6.408,-4.464 5.761,-3.744 5.256,-3.385 5.04,-2.952 H 6.12 L 7.561,-2.88 9,-2.593 l 1.152,0.792 0.577,0.721 0.359,0.792 0.36,0.863 0.073,1.009 -0.433,0.792 -0.576,0.72 L 9.792,3.672 9.145,4.176 9.432,3.168 9.937,2.088 V 1.008 L 9.288,0.071 7.992,-0.937 6.624,-1.513 5.256,-1.656 3.313,-0.864 1.152,0.72 Z" style="fill:#000000;fill-opacity:1;fill-rule:nonzero;stroke:none" id="path4272"/>
  </g>
  <g id="g4274" transform="matrix(1.3333330154418945, 0, 0, -1.3333330154418945, 2620.669333792437, 1317.0050454327395)">
    <path d="M 0,0 0.288,1.296 1.08,2.664 2.521,3.888 4.177,4.393 3.385,4.752 2.521,4.393 1.44,3.456 0.288,2.088 0.432,2.376 0.937,3.312 1.801,4.177 2.593,4.969 1.009,4.393 -0.144,2.664 -0.647,0.936 -0.144,0 Z" style="fill:#ffff83;fill-opacity:1;fill-rule:nonzero;stroke:none" id="path4276"/>
  </g>
  <g id="g4278" transform="matrix(1.3333330154418945, 0, 0, -1.3333330154418945, 2743.740919033211, 1406.572732411467)">
    <path d="m 0,0 -0.359,-1.152 -0.792,-1.296 -1.369,-1.153 -1.44,-0.503 0.721,-0.36 0.792,0.432 0.935,0.864 1.08,1.224 L -0.575,-2.231 -1.08,-3.024 -1.728,-3.96 -2.592,-4.536 -1.08,-4.032 0,-2.448 0.505,-0.864 0,0.145 Z" style="fill:#ffff83;fill-opacity:1;fill-rule:nonzero;stroke:none" id="path4280"/>
  </g>
  <g id="g4282" transform="matrix(1.3333330154418945, 0, 0, -1.3333330154418945, 2630.557352268283, 1309.2290463101199)">
    <path d="M 0,0 1.08,1.368 3.744,1.656 6.265,1.729 7.488,2.448 8.568,3.601 6.553,2.448 4.536,2.304 1.584,1.8 2.593,2.304 3.6,2.592 6.192,2.88 8.353,3.601 H 6.265 L 5.112,3.24 2.808,3.024 1.224,2.304 0.216,1.008 Z" style="fill:#ffff83;fill-opacity:1;fill-rule:nonzero;stroke:none" id="path4284"/>
  </g>
  <g id="g4286" transform="matrix(1.3333330154418945, 0, 0, -1.3333330154418945, 2734.717483684566, 1413.580604275816)">
    <path d="m 0,0 -1.151,-1.512 -2.665,-0.217 -2.232,-0.143 -1.08,-0.576 -1.008,-1.152 1.8,1.079 1.944,0.289 2.663,0.36 -0.935,-0.36 L -3.6,-2.664 -6.048,-2.808 -7.92,-3.6 l 1.872,0.144 1.152,0.143 2.016,0.289 1.584,0.792 1.08,1.152 z" style="fill:#ffff83;fill-opacity:1;fill-rule:nonzero;stroke:none" id="path4288"/>
  </g>
  <g id="g4290" transform="matrix(1.3333330154418945, 0, 0, -1.3333330154418945, 2634.87766373824, 1313.933431581736)">
    <path d="m 0,0 -2.808,2.592 -0.936,1.081 -1.944,1.584 -4.104,2.592 -0.288,0.071 0.072,-0.288 3.672,-2.447 0.864,-0.72 1.657,-1.296 0.071,-0.36 -1.368,-0.361 h 0.216 l 0.504,-0.071 0.864,-0.433 3.095,-2.16 h 0.288 z" style="fill:#ffff83;fill-opacity:1;fill-rule:nonzero;stroke:none" id="path4292"/>
  </g>
  <g id="g4294" transform="matrix(1.3333330154418945, 0, 0, -1.3333330154418945, 2730.493526358303, 1409.356585914411)">
    <path d="M 0,0 2.592,-2.376 3.384,-3.385 5.185,-4.753 9.216,-7.129 9.36,-7.272 v 0.216 l -3.6,2.303 -0.72,0.649 -1.584,1.224 v 0.287 l 1.296,0.217 H 4.536 L 4.032,-2.16 3.24,-1.872 0.504,0.144 0.144,0.216 Z" style="fill:#ffff83;fill-opacity:1;fill-rule:nonzero;stroke:none" id="path4296"/>
  </g>
  <g id="g4298" transform="matrix(1.3333330154418945, 0, 0, -1.3333330154418945, 2620.862042079826, 1303.3735789561727)">
    <path d="m 0,0 -0.648,0.504 0.576,0.217 0.576,0.575 v 0.217 h -0.649 l -0.215,0.719 0.864,0.504 0.72,0.073 0.792,0.36 V 2.305 L 2.088,1.296 1.8,0.504 1.224,0.648 0.792,1.225 H 0.647 L 0.504,0.721 Z" style="fill:#ffff80;fill-opacity:1;fill-rule:nonzero;stroke:none" id="path4300"/>
  </g>
  <g id="g4302" transform="matrix(1.3333330154418945, 0, 0, -1.3333330154418945, 2743.740919033211, 1419.053259221033)">
    <path d="M 0,0 0.576,-0.432 0.072,-0.648 -0.503,-1.152 V -1.367 L 0.072,-1.44 0.289,-2.16 -0.503,-2.592 h -0.721 l -0.864,-0.359 0.216,0.719 -0.216,0.865 0.36,0.575 h 0.433 l 0.503,-0.36 h 0.217 l 0.072,0.504 z" style="fill:#ffff80;fill-opacity:1;fill-rule:nonzero;stroke:none" id="path4304"/>
  </g>
  <g id="g4306" transform="matrix(1.3333330154418945, 0, 0, -1.3333330154418945, 2619.8060527482594, 1303.180911358879)">
    <path d="M 0,0 H 0.792 L 0.504,-0.936 V -1.512 L 0.72,-1.656 1.296,-1.225 1.8,-1.656 1.512,-2.521 0.863,-3.096 0.504,-3.889 0,-3.312 l -0.648,0.72 -0.289,0.575 0.433,0.361 h 0.72 l 0.071,0.144 -0.071,0.576 z" style="fill:#ffff80;fill-opacity:1;fill-rule:nonzero;stroke:none" id="path4308"/>
  </g>
  <g id="g4310" transform="matrix(1.3333330154418945, 0, 0, -1.3333330154418945, 2744.8932625084717, 1419.1483112817043)">
    <path d="m 0,0 h -0.864 l 0.217,0.792 V 1.368 H -0.864 L -1.367,1.007 -1.944,1.512 -1.584,2.304 -1.079,2.808 -0.647,3.6 -0.359,2.88 0.36,2.304 0.504,1.584 0.145,1.368 h -0.504 -0.145 l 0.145,-0.576 z" style="fill:#ffff80;fill-opacity:1;fill-rule:nonzero;stroke:none" id="path4312"/>
  </g>
  <g id="g4314" transform="matrix(1.3333330154418945, 0, 0, -1.3333330154418945, 2620.381573444378, 1302.4126416852778)">
    <path d="M 0,0 -0.288,-0.792 -1.008,0 h -0.504 -0.217 l 0.145,-0.505 -0.72,-0.359 -0.648,0.647 L -3.096,0.575 -3.6,1.512 -2.88,1.367 -1.872,1.728 -1.08,1.512 V 0.936 L -1.512,0.504 -1.44,0.287 -0.864,0.216 Z" style="fill:#ffff80;fill-opacity:1;fill-rule:nonzero;stroke:none" id="path4316"/>
  </g>
  <g id="g4318" transform="matrix(1.3333330154418945, 0, 0, -1.3333330154418945, 2744.3177418123523, 1419.917781313092)">
    <path d="M 0,0 0.288,0.792 0.792,0 1.296,-0.215 1.44,-0.144 1.368,0.433 2.016,0.648 2.592,0.072 2.735,-0.719 3.168,-1.439 h -0.72 l -0.864,-0.36 -0.72,0.215 v 0.505 l 0.36,0.575 -0.073,0.073 -0.431,0.216 z" style="fill:#ffff80;fill-opacity:1;fill-rule:nonzero;stroke:none" id="path4320"/>
  </g>
</svg>