<?xml version="1.0" encoding="utf-8"?>
<svg viewBox="2578.3328 534.3169 208.2239 295.1999" xmlns="http://www.w3.org/2000/svg">
  <g id="g1296" transform="matrix(1.3333330154418945, 0, 0, -1.3333330154418945, 2586.3008524031907, 534.3169589281861)">
    <path d="m 0,0 h 144.289 l 2.304,-0.648 1.944,-1.8 1.224,-2.664 0.431,-3.384 v -204.48 l -0.431,-3.312 -1.224,-2.664 -1.944,-1.8 -2.304,-0.648 H 0 l -2.304,0.648 -1.872,1.8 -1.296,2.664 -0.504,3.312 v 204.48 l 0.504,3.384 1.296,2.664 1.872,1.8 z" style="fill:#000000;fill-opacity:1;fill-rule:nonzero;stroke:none" id="path1298"/>
  </g>
  <g id="g1300" transform="matrix(1.3333330154418945, 0, 0, -1.3333330154418945, 2589.277414193523, 538.9251935065804)">
    <path d="m 0,0 h 139.824 l 2.233,-0.648 1.871,-1.728 1.297,-2.664 0.431,-3.168 v -198.144 l -0.431,-3.168 -1.297,-2.664 -1.871,-1.656 -2.233,-0.648 H 0 l -2.232,0.648 -1.799,1.656 -1.225,2.664 -0.359,3.168 V -8.208 l 0.359,3.168 1.225,2.664 1.799,1.728 z" style="fill:#ffffff;fill-opacity:1;fill-rule:nonzero;stroke:none" id="path1302"/>
  </g>
  <g id="g1304" transform="matrix(1.3333330154418945, 0, 0, -1.3333330154418945, 2586.3008524031907, 829.5168397189082)">
    <path d="m 0,0 h 144.289 l 2.304,0.648 1.944,1.8 1.224,2.664 0.431,3.312 v 204.48 l -0.431,3.384 -1.224,2.664 -1.944,1.8 -2.304,0.648 H 0 l -2.304,-0.648 -1.872,-1.8 -1.296,-2.664 -0.504,-3.384 V 8.424 l 0.504,-3.312 1.296,-2.664 1.872,-1.8 z" style="fill:#000000;fill-opacity:1;fill-rule:nonzero;stroke:none" id="path1306"/>
  </g>
  <g id="g1308" transform="matrix(1.3333330154418945, 0, 0, -1.3333330154418945, 2589.1823621328513, 824.9088492810807)">
    <path d="m 0,0 h 139.823 l 2.16,0.504 1.872,1.8 1.296,2.592 0.433,3.24 V 206.28 l -0.433,3.168 -1.296,2.592 -1.872,1.8 -2.16,0.648 H 0 l -2.161,-0.648 -1.871,-1.8 -1.225,-2.592 -0.504,-3.168 V 8.136 l 0.504,-3.24 1.225,-2.592 1.871,-1.8 z" style="fill:#ffffff;fill-opacity:1;fill-rule:nonzero;stroke:none" id="path1310"/>
  </g>
  <g id="g1312" transform="matrix(1.3333330154418945, 0, 0, -1.3333330154418945, 2730.7812867063626, 595.949349832834)">
    <path d="m 0,0 v -0.288 -0.288 l 0.505,-2.52 1.439,-2.088 2.016,-1.44 2.52,-0.432 2.52,0.432 2.017,1.44 1.368,2.088 0.575,2.52 L 12.385,1.872 11.017,3.96 9,5.256 6.48,5.832 5.257,5.76 4.177,5.472 3.097,4.896 2.16,4.176 1.656,4.248 1.224,4.68 1.152,5.184 2.521,6.192 3.528,7.56 l 0.649,1.512 0.143,1.656 -0.504,2.52 -1.295,2.016 -2.161,1.44 -2.448,0.504 -2.52,-0.504 -2.016,-1.44 -1.367,-2.016 -0.577,-2.52 L -8.28,8.856 -7.56,7.272 -6.407,5.976 -4.896,4.896 -5.112,4.32 -5.472,4.176 -5.976,4.104 -6.983,4.752 -7.991,5.256 -9.288,5.76 -10.584,5.832 -13.031,5.256 -15.048,3.96 -16.56,1.872 l -0.503,-2.448 0.503,-2.52 1.512,-2.088 2.017,-1.44 2.447,-0.432 2.593,0.432 2.015,1.44 1.368,2.088 0.577,2.52 V -0.288 0 l 0.935,-1.296 0.145,-2.952 -0.505,-3.528 -1.44,-3.24 h 5.544 l -1.295,3.24 -0.577,3.6 0.216,2.88 z" style="fill:#000000;fill-opacity:1;fill-rule:nonzero;stroke:none" id="path1314"/>
  </g>
  <g id="g1316" transform="matrix(1.3333330154418945, 0, 0, -1.3333330154418945, 2597.8216829897433, 593.1654963298897)">
    <path d="M 0,0 V -0.072 -0.36 l 0.359,-1.224 0.649,-1.08 1.08,-0.72 1.296,-0.216 1.223,0.216 1.081,0.72 0.72,1.08 L 6.624,-0.36 6.408,0.937 5.688,2.016 4.607,2.664 3.384,3.024 2.664,2.952 2.088,2.808 1.584,2.521 1.151,2.088 0.864,2.16 0.576,2.376 V 2.592 L 1.368,3.168 1.8,3.888 2.088,4.608 2.304,5.4 2.016,6.768 1.368,7.776 0.288,8.496 -1.008,8.784 -2.232,8.496 -3.312,7.776 -3.96,6.768 -4.32,5.4 -4.176,4.536 -3.816,3.672 -3.168,3.024 -2.376,2.521 -2.521,2.16 -2.809,2.088 H -3.023 L -3.456,2.448 -3.96,2.664 -4.68,2.952 -5.4,3.024 -6.552,2.664 -7.632,2.016 -8.353,0.937 -8.641,-0.36 l 0.288,-1.224 0.721,-1.08 1.08,-0.72 1.152,-0.216 1.296,0.216 1.081,0.72 0.718,1.08 0.289,1.224 V -0.072 0 l 0.648,-2.304 -1.008,-3.384 h 2.88 l -1.008,3.384 z" style="fill:#000000;fill-opacity:1;fill-rule:nonzero;stroke:none" id="path1318"/>
  </g>
  <g id="g1320" transform="matrix(1.3333330154418945, 0, 0, -1.3333330154418945, 2770.526068897132, 770.2851643877185)">
    <path d="M 0,0 0.071,0.288 V 0.432 L 0.288,1.728 1.079,2.808 2.16,3.528 3.384,3.816 4.607,3.528 5.76,2.808 6.407,1.728 6.695,0.432 6.407,-0.864 5.76,-1.872 4.607,-2.664 3.384,-2.88 H 2.735 l -0.575,0.216 -0.576,0.216 -0.36,0.36 H 0.936 L 0.647,-2.376 V -2.592 L 1.296,-3.168 1.8,-3.744 2.16,-4.536 2.304,-5.328 2.016,-6.624 l -0.72,-1.152 -1.008,-0.72 -1.297,-0.216 -1.296,0.216 -1.008,0.72 -0.647,1.152 -0.288,1.296 0.071,0.936 0.433,0.72 0.647,0.792 0.721,0.432 -0.072,0.288 -0.288,0.072 H -2.952 L -3.456,-2.376 -3.96,-2.664 -4.608,-2.88 h -0.72 l -1.296,0.216 -1.008,0.792 -0.721,1.008 -0.215,1.296 0.215,1.296 0.721,1.08 1.008,0.72 1.296,0.288 1.296,-0.288 1.08,-0.72 0.647,-1.08 0.288,-1.296 V 0.288 0 l 0.577,2.304 -0.936,3.6 h 2.88 l -1.009,-3.6 z" style="fill:#000000;fill-opacity:1;fill-rule:nonzero;stroke:none" id="path1322"/>
  </g>
  <g id="g1324" transform="matrix(1.3333330154418945, 0, 0, -1.3333330154418945, 2728.7656621869246, 663.3411794684907)">
    <path d="M 0,0 5.472,-6.768 5.185,-7.344 4.68,-7.776 4.032,-8.136 3.384,-8.568 H 2.16 l -1.152,0.144 -1.08,0.288 -0.936,0.36 -1.08,1.224 -0.504,1.368 -0.216,1.584 0.288,1.512 0.36,0.792 0.36,0.576 0.576,0.504 0.791,0.36 L -0.216,0 Z" style="fill:#ffffff;fill-opacity:1;fill-rule:nonzero;stroke:none" id="path1326"/>
  </g>
  <g id="g1328" transform="matrix(1.3333330154418945, 0, 0, -1.3333330154418945, 2776.6692965991397, 803.3092450558289)">
    <path d="m 0,0 -0.144,-2.376 -0.216,-2.232 -0.576,-1.728 -0.792,-1.512 -0.36,-0.576 -0.504,-0.648 -0.504,-0.504 -0.504,-0.36 -0.504,-0.288 -0.576,-0.216 -0.576,-0.072 h -0.576 -0.575 l -0.576,0.072 -0.504,0.216 -0.504,0.288 -0.505,0.36 -0.504,0.432 -0.432,0.504 -0.432,0.576 -0.72,1.512 -0.647,1.8 -0.361,2.16 -0.072,2.592 0.144,3.528 0.432,2.808 0.36,1.152 0.577,1.08 0.359,0.864 0.648,0.648 0.648,0.576 0.792,0.36 0.936,0.216 0.936,0.144 0.72,-0.144 0.72,-0.072 0.649,-0.216 0.504,-0.288 0.504,-0.504 L -2.231,9.648 -1.8,9.144 -1.439,8.352 -0.72,6.768 -0.288,4.824 0,2.592 Z" style="fill:#000000;fill-opacity:1;fill-rule:nonzero;stroke:none" id="path1330"/>
  </g>
  <g id="g1332" transform="matrix(1.3333330154418945, 0, 0, -1.3333330154418945, 2773.406276543771, 803.3092450558289)">
    <path d="m 0,0 -0.145,3.816 -0.719,2.88 -1.08,1.512 -1.584,0.576 H -4.177 L -4.608,8.496 -5.04,8.136 -5.473,7.776 -6.12,6.48 -6.624,4.752 -6.913,2.52 l -0.071,-2.592 0.071,-2.376 0.36,-2.016 0.504,-1.512 0.792,-1.08 0.361,-0.36 0.431,-0.36 0.505,-0.072 0.432,-0.072 0.504,0.072 0.503,0.072 0.432,0.36 0.433,0.36 0.719,1.224 0.577,1.44 0.288,2.016 z" style="fill:#ffffff;fill-opacity:1;fill-rule:nonzero;stroke:none" id="path1334"/>
  </g>
  <g id="g1336" transform="matrix(1.3333330154418945, 0, 0, -1.3333330154418945, 2778.493514914211, 795.1491721315507)">
    <path d="m 0,0 -1.943,-1.152 -1.729,-0.72 -2.016,-0.216 -2.304,0.576 -1.872,1.152 -0.936,1.512 -1.296,1.08 -3.024,0.432 V 3.816 5.04 l 3.6,-0.72 1.584,-1.152 0.864,-1.512 1.584,-1.08 2.232,-0.36 1.872,0.504 1.8,0.936 L 0,2.736 Z" style="fill:#000000;fill-opacity:1;fill-rule:nonzero;stroke:none" id="path1338"/>
  </g>
  <g id="g1340" transform="matrix(1.3333330154418945, 0, 0, -1.3333330154418945, 2589.1823621328513, 561.9656339768517)">
    <path d="M 0,0 0.144,2.448 0.503,4.68 1.079,6.48 1.8,7.92 2.231,8.568 2.663,9.144 3.168,9.576 3.671,9.937 4.247,10.224 4.751,10.44 5.399,10.512 5.976,10.656 6.479,10.512 7.056,10.44 7.631,10.296 8.063,10.008 8.567,9.648 9.144,9.216 9.503,8.64 9.936,8.064 10.728,6.552 11.231,4.824 11.663,2.592 11.808,0 l -0.217,-3.384 -0.36,-2.88 -0.359,-1.152 -0.505,-1.08 -0.504,-0.936 -0.575,-0.648 -0.793,-0.504 -0.72,-0.36 -0.936,-0.287 -0.863,-0.144 -0.792,0.144 -0.72,0.144 -0.576,0.143 -0.576,0.36 -0.504,0.432 -0.504,0.505 -0.504,0.575 -0.288,0.72 -0.649,1.584 -0.575,1.944 -0.144,2.304 z" style="fill:#000000;fill-opacity:1;fill-rule:nonzero;stroke:none" id="path1342"/>
  </g>
  <g id="g1344" transform="matrix(1.3333330154418945, 0, 0, -1.3333330154418945, 2592.541736331914, 561.9656339768517)">
    <path d="m 0,0 0.216,-3.816 0.648,-2.736 1.08,-1.656 1.583,-0.503 0.505,0.071 0.504,0.288 0.575,0.216 0.361,0.432 0.792,1.296 0.36,1.728 L 6.84,-2.52 6.983,0.072 6.84,2.448 6.624,4.537 5.976,6.048 5.328,7.128 4.896,7.488 4.464,7.776 3.96,7.92 3.527,8.064 3.023,7.92 2.592,7.776 2.088,7.488 1.655,7.128 0.937,5.977 0.504,4.464 0.071,2.376 Z" style="fill:#ffffff;fill-opacity:1;fill-rule:nonzero;stroke:none" id="path1346"/>
  </g>
  <g id="g1348" transform="matrix(1.3333330154418945, 0, 0, -1.3333330154418945, 2587.3568417347565, 570.2214913835014)">
    <path d="m 0,0 2.017,1.224 1.728,0.648 1.943,0.144 2.233,-0.432 2.016,-1.296 0.935,-1.368 1.369,-1.08 2.951,-0.432 v -1.08 -1.224 L 11.593,-4.248 9.937,-3.096 9.145,-1.584 7.489,-0.432 5.328,-0.072 3.385,-0.648 1.657,-1.584 0,-2.592 Z" style="fill:#000000;fill-opacity:1;fill-rule:nonzero;stroke:none" id="path1350"/>
  </g>
  <g id="g1352" transform="matrix(1.3333330154418945, 0, 0, -1.3333330154418945, 2610.6849611728985, 597.9656253937828)">
    <path d="M 0,0 V 23.041 H 107.784 V 0 h -2.735 V 21.24 L 65.161,20.952 64.729,16.416 64.801,12.096 65.665,7.92 67.753,4.104 69.769,0 H 10.944 l 1.872,3.024 1.513,5.112 0.359,5.472 -1.224,5.4 -0.648,1.224 -0.647,0.864 H 1.585 L 1.513,0 Z" style="fill:#000000;fill-opacity:1;fill-rule:nonzero;stroke:none" id="path1354"/>
  </g>
  <g id="g1356" transform="matrix(1.3333330154418945, 0, 0, -1.3333330154418945, 2610.6849611728985, 681.9656053666222)">
    <path d="m 0,0 v 63 h 1.513 l -0.145,-21.096 1.297,1.009 1.512,1.007 1.511,1.369 1.584,1.223 1.584,1.224 1.584,1.152 1.512,1.08 1.225,0.936 1.943,1.872 1.873,1.872 2.016,1.944 1.584,2.016 v 0.216 l -0.072,0.288 -0.936,0.792 -0.937,0.648 -1.08,0.576 -1.152,0.504 -1.296,0.216 -1.367,0.144 -1.296,-0.072 -1.296,-0.216 -0.576,-0.143 -0.433,0.071 0.792,1.368 h 58.825 l 0.503,-1.296 1.873,-5.76 0.647,-6.048 L 72,43.92 86.832,29.952 l 1.44,1.8 1.153,2.232 1.152,2.448 1.079,2.233 -0.143,0.359 -0.361,0.216 -1.08,-1.511 -1.439,-1.297 -1.512,-1.079 -2.089,-0.433 -1.943,0.648 -1.585,0.864 -1.151,1.297 -0.865,1.439 0.937,-0.503 0.935,-0.649 1.153,-0.648 h 1.223 l 1.513,0.72 1.367,1.08 1.368,0.792 1.441,0.432 h 0.431 l 0.216,0.145 0.432,1.584 0.433,1.367 0.431,1.152 0.864,1.008 1.008,0.936 1.441,0.576 1.151,0.576 1.009,0.864 0.647,1.224 v 0.432 l 0.145,0.216 0.431,-2.16 -0.431,-2.52 -1.296,-1.512 -1.801,-0.792 -1.727,-0.936 -0.865,-1.8 0.577,-1.08 0.648,-0.432 0.935,-0.36 0.937,-0.504 0.936,-0.432 1.295,-0.72 1.369,-0.504 1.151,-0.72 0.864,-1.08 0.361,-5.112 -0.073,-3.672 0.361,-3.599 1.44,-4.681 2.232,-2.664 0.072,47.808 h 2.735 V 0 Z" style="fill:#000000;fill-opacity:1;fill-rule:nonzero;stroke:none" id="path1358"/>
  </g>
  <g id="g1360" transform="matrix(1.3333330154418945, 0, 0, -1.3333330154418945, 2610.6849611728985, 760.6849062599322)">
    <path d="M 0,0 V 59.04 H 107.784 V 0 h -1.943 v 25.416 l -1.512,-1.152 -1.513,-1.008 -1.511,-1.008 -1.296,-1.152 -1.584,-1.152 -1.584,-1.224 -1.512,-1.296 -1.584,-1.368 -1.513,-1.44 -1.295,-1.512 -1.512,-1.584 -1.297,-1.584 1.513,-1.368 1.727,-1.152 2.017,-0.648 2.159,-0.288 1.152,0.072 h 1.441 L 99.504,6.408 100.656,6.264 99.36,3.528 97.993,0 H 37.225 l -1.728,5.04 -0.793,5.256 1.08,5.832 -1.871,1.656 -1.872,1.8 -1.872,1.656 -1.801,1.656 -1.871,1.8 -1.944,1.728 -1.945,1.944 -1.943,1.872 -4.465,-8.856 v -0.216 l 0.216,-0.216 1.081,1.08 1.007,1.224 1.225,1.08 1.44,0.792 h 1.943 l 1.657,-0.576 1.511,-1.008 1.297,-1.296 0.215,-0.792 0.504,-0.576 -0.719,0.36 -0.793,0.936 -1.151,0.504 -1.153,0.072 -1.223,-0.288 -0.937,-0.576 -1.007,-0.936 -1.152,-0.936 -1.152,-0.72 -1.297,-0.288 -0.575,-1.44 -0.504,-1.656 -0.937,-1.512 -1.367,-0.792 -1.297,-0.432 -1.08,-0.648 -0.935,-0.792 -0.649,-1.008 v -0.576 l -0.143,-0.36 -0.577,1.872 0.433,1.944 0.863,1.44 1.296,1.08 1.224,0.792 1.152,0.792 1.225,1.584 -0.217,0.792 -0.504,0.504 -0.576,0.36 -0.791,0.432 -1.656,0.792 -1.657,0.72 L 8.856,23.76 7.488,24.624 6.841,32.4 v 9 L 6.192,49.824 3.24,55.872 3.097,0 Z" style="fill:#000000;fill-opacity:1;fill-rule:nonzero;stroke:none" id="path1362"/>
  </g>
  <g id="g1364" transform="matrix(1.3333330154418945, 0, 0, -1.3333330154418945, 2610.6849611728985, 760.6849062599322)">
    <path d="M 0,0 V -26.712 H 107.784 V 0 h -1.943 v -25.272 l -8.137,-0.216 h -0.071 l -0.864,0.936 -0.648,1.512 -0.505,0.576 -0.431,0.576 -0.432,0.576 -0.433,0.72 -0.575,4.392 1.008,6.408 2.016,7.056 L 97.993,0 H 37.225 l 2.376,-4.68 2.376,-4.824 1.799,-4.824 0.577,-5.112 -1.081,-5.616 -40.175,0.288 V 0 Z" style="fill:#000000;fill-opacity:1;fill-rule:nonzero;stroke:none" id="path1366"/>
  </g>
  <g id="g1368" transform="matrix(1.3333330154418945, 0, 0, -1.3333330154418945, 2701.0221792181546, 625.5168069761094)">
    <path d="m 0,0 -1.944,-2.376 -1.728,-2.592 -1.584,-2.736 -1.44,-2.88 -1.296,-2.952 -1.153,-3.168 -1.08,-3.24 -0.935,-3.456 0.647,3.096 0.649,3.096 0.935,3.096 0.937,2.88 1.152,2.952 1.367,2.808 1.512,2.592 1.656,2.448 z" style="fill:#ffc0c0;fill-opacity:1;fill-rule:nonzero;stroke:none" id="path1370"/>
  </g>
  <g id="g1372" transform="matrix(1.3333330154418945, 0, 0, -1.3333330154418945, 2656.477919005003, 627.9165459873002)">
    <path d="m 0,0 3.384,-0.36 2.376,-2.232 2.16,-2.448 1.943,-2.592 1.801,-2.736 1.728,-2.808 1.512,-2.952 1.295,-3.097 1.297,-3.239 -1.872,3.456 -1.872,3.024 -1.872,2.952 -2.017,2.807 -2.088,2.593 -2.303,2.448 -2.592,2.592 z" style="fill:#ffc0c0;fill-opacity:1;fill-rule:nonzero;stroke:none" id="path1374"/>
  </g>
  <g id="g1376" transform="matrix(1.3333330154418945, 0, 0, -1.3333330154418945, 2709.373739726987, 643.2773007885518)">
    <path d="m 0,0 0.72,-3.024 3.095,-1.8 0.289,-0.648 V -6.408 L 2.952,-6.984 1.656,-6.768 h -1.44 l -1.224,-0.792 -0.576,-1.224 0.071,-1.08 0.721,-0.792 0.937,-0.288 0.935,-0.144 1.152,-0.216 0.144,-0.144 0.216,-0.216 v -0.216 l 0.144,-0.288 V -12.6 L 2.52,-12.96 1.512,-13.248 0.504,-13.536 -0.504,-14.04 -1.368,-14.832 -1.8,-16.2 l 0.432,-1.152 1.152,-0.648 1.296,0.072 1.224,0.072 1.223,-0.144 0.145,-0.288 0.143,-0.36 v -0.144 L 3.6,-19.152 0.432,-21.096 0,-21.888 v -1.152 l 0.72,-0.792 0.648,-0.647 4.896,0.359 0.288,-1.08 -0.575,-1.008 -0.721,-0.648 -0.504,-0.648 -0.288,-0.792 -0.216,-0.792 v -1.152 l 0.216,-0.648 0.647,-0.36 1.08,-0.072 1.441,0.144 1.008,0.864 1.008,0.72 1.584,0.144 -1.008,-5.616 0.648,-0.72 0.936,-0.576 1.296,0.432 0.936,1.008 0.72,1.08 1.008,0.504 0.648,0.144 h 0.648 l 0.432,-4.68 1.728,-1.152 1.8,0.576 1.368,3.168 0.144,0.216 0.216,0.144 0.576,0.072 0.72,-0.072 0.792,-4.104 0.36,-0.504 0.287,-0.288 0.505,-0.216 h 0.792 l 0.36,0.288 0.36,0.504 0.36,0.432 0.576,0.144 0.936,3.96 h 0.216 l 0.36,0.144 0.361,-0.144 0.359,-0.36 0.072,-5.04 -2.304,-0.432 -2.448,-0.216 h -2.376 l -2.448,0.216 -2.376,0.432 -2.376,0.648 -2.305,0.864 -2.087,0.864 -0.936,0.576 -0.864,0.576 -0.865,0.504 -0.863,0.72 -0.432,0.504 -0.577,0.288 -0.504,0.288 -0.431,0.216 -3.025,3.096 -2.447,3.384 -1.872,3.816 -1.513,4.104 -0.647,4.32 v 4.248 l 0.576,4.464 1.296,4.392 0.72,1.008 L 0,0.072 Z" style="fill:#c0c0ff;fill-opacity:1;fill-rule:nonzero;stroke:none" id="path1378"/>
  </g>
  <g id="g1380" transform="matrix(1.3333330154418945, 0, 0, -1.3333330154418945, 2682.68494400676, 651.5331581952014)">
    <path d="M 0,0 V 0 L 0.289,-0.576 0.864,-0.864 1.513,-0.576 1.729,0 1.513,0.576 0.864,0.72 H 0.504 L 0.289,0.576 H 0.217 L 0.145,0.72 0.504,0.936 0.648,1.368 0.433,2.016 -0.144,2.232 -0.647,2.016 -0.936,1.368 -0.792,0.936 -0.575,0.576 -0.863,0.72 H -1.151 L -1.8,0.576 -2.087,0 -1.8,-0.576 -1.151,-0.864 -0.575,-0.576 -0.359,0 -0.144,-0.504 -0.575,-1.296 h 0.72 l -0.216,0.792 z" style="fill:#ffffff;fill-opacity:1;fill-rule:nonzero;stroke:none" id="path1382"/>
  </g>
  <g id="g1384" transform="matrix(1.3333330154418945, 0, 0, -1.3333330154418945, 2621.5339169196377, 699.0534105373627)">
    <path d="m 0,0 12.024,-14.112 -2.953,-5.976 -0.504,1.008 -0.576,-1.656 0.072,5.328 -0.576,0.504 -0.719,0.36 -1.369,0.72 -2.591,0.792 H 2.52 L 2.231,-13.248 0.144,-17.568 -0.144,0 Z" style="fill:#ffffff;fill-opacity:1;fill-rule:nonzero;stroke:none" id="path1386"/>
  </g>
  <g id="g1388" transform="matrix(1.3333330154418945, 0, 0, -1.3333330154418945, 2740.8620134695957, 617.5493609590304)">
    <path d="m 0,0 -1.009,-2.448 -1.727,-1.367 -1.8,-0.865 -0.792,-0.792 0.504,0.936 0.936,0.648 1.008,0.576 0.936,0.576 0.143,0.216 0.072,0.216 -3.671,-1.584 -0.36,-0.504 -0.36,-0.72 0.432,1.008 0.648,0.936 0.864,0.864 0.936,0.504 0.648,0.072 0.575,0.289 0.432,0.287 0.505,0.216 0.432,0.432 0.576,0.649 L 0,0.072 Z" style="fill:#ffff80;fill-opacity:1;fill-rule:nonzero;stroke:none" id="path1390"/>
  </g>
  <g id="g1392" transform="matrix(1.3333330154418945, 0, 0, -1.3333330154418945, 2741.533888309408, 633.965616810714)">
    <path d="m 0,0 -1.44,-4.896 -0.865,0.288 0.505,-0.72 -0.216,-0.72 -1.08,0.432 1.872,6.192 z" style="fill:#ffffff;fill-opacity:1;fill-rule:nonzero;stroke:none" id="path1394"/>
  </g>
  <g id="g1396" transform="matrix(1.3333330154418945, 0, 0, -1.3333330154418945, 2733.6614943530003, 633.6772054211433)">
    <path d="M 0,0 -0.504,-5.112 0.72,-5.904 2.088,-6.768 3.815,-7.2 5.544,-7.56 7.776,-3.24 v -5.976 l 0.144,-10.944 -1.512,1.368 -1.44,1.512 -1.512,1.728 -1.439,1.656 -1.584,1.728 -1.513,1.8 -1.512,1.656 -1.512,1.872 2.592,5.976 h 0.361 l 0.431,0.288 0.361,0.216 0.288,0.576 0.071,0 z" style="fill:#ffffff;fill-opacity:1;fill-rule:nonzero;stroke:none" id="path1398"/>
  </g>
  <g id="g1400" transform="matrix(1.3333330154418945, 0, 0, -1.3333330154418945, 2742.684929701645, 634.2532957785843)">
    <path d="m 0,0 0.504,-0.648 0.505,-0.648 -1.945,-3.744 -0.648,-0.216 0.288,-0.36 -0.071,-0.72 -0.937,0.216 z" style="fill:#ffffff;fill-opacity:1;fill-rule:nonzero;stroke:none" id="path1402"/>
  </g>
  <g id="g1404" transform="matrix(1.3333330154418945, 0, 0, -1.3333330154418945, 2666.269583337155, 576.0773656383936)">
    <path d="M 0,0 2.088,2.665 4.176,3.6 5.688,4.464 7.344,5.328 9.359,5.616 8.641,4.68 7.92,4.32 7.057,4.032 5.904,3.528 4.752,3.024 3.889,2.592 2.952,2.232 1.872,1.8 0,-1.368 l -1.296,-5.4 -1.513,-5.328 -1.655,-5.04 -1.944,-4.968 -2.376,-4.68 -2.664,-4.248 -3.312,-3.744 -3.816,-3.311 -1.224,-0.937 -1.296,-0.72 -1.297,-0.72 -1.223,-0.792 -7.704,-2.16 6.408,5.112 3.96,1.584 3.6,2.088 3.024,2.592 2.592,2.953 2.089,3.311 1.872,3.672 1.584,3.816 1.295,4.104 1.296,4.032 z" style="fill:#ffffff;fill-opacity:1;fill-rule:nonzero;stroke:none" id="path1406"/>
  </g>
  <g id="g1408" transform="matrix(1.3333330154418945, 0, 0, -1.3333330154418945, 2666.173229193461, 571.8535710725082)">
    <path d="M 0,0 3.456,1.944 H 5.04 L 4.393,1.296 3.456,0.72 2.16,0.145 1.08,-0.36 0.432,-1.224 l -0.648,-1.368 -2.231,-4.824 -1.729,-4.968 -1.728,-5.184 -1.871,-4.895 -2.088,-4.681 -2.521,-4.176 -3.384,-3.384 -4.248,-2.591 -0.792,-0.433 -0.576,-0.216 3.96,5.184 1.872,1.08 1.513,1.152 1.439,1.512 1.153,1.656 1.151,1.728 0.937,1.872 0.791,2.089 0.936,2.015 1.8,4.824 1.728,5.112 1.873,5.113 z" style="fill:#ffffff;fill-opacity:1;fill-rule:nonzero;stroke:none" id="path1410"/>
  </g>
  <g id="g1412" transform="matrix(1.3333330154418945, 0, 0, -1.3333330154418945, 2697.470096731705, 617.8373654476563)">
    <path d="M 0,0 4.464,-3.6 3.455,-4.176 2.447,-4.68 1.296,-5.112 l -1.152,-0.36 -1.081,-0.36 -1.295,-0.216 -1.153,-0.36 -1.151,-0.36 -1.656,-0.216 -1.728,-0.288 -1.728,-0.072 -1.584,-0.144 h -1.8 l -1.584,-0.072 -1.8,-0.144 -1.584,-0.216 -1.225,0.216 -1.223,0.144 h -1.153 -1.223 -1.153 -1.223 l -1.224,0.216 -1.224,0.288 -1.224,0.072 -1.297,0.144 -1.224,0.072 -1.223,0.144 -1.153,0.216 -1.295,0.216 -1.081,0.288 -1.223,0.36 0.071,0.864 1.441,1.584 0.719,0.432 0.576,0.648 2.665,-3.456 1.511,0.36 1.008,0.936 1.08,1.224 1.225,0.864 h 0.288 0.216 l 2.664,-4.104 0.504,-0.144 0.792,-0.072 0.504,0.216 0.576,0.288 0.792,0.504 0.647,0.72 0.504,0.72 0.577,0.576 1.008,0.72 1.296,-0.288 0.792,-0.864 0.647,-1.08 0.792,-1.008 1.225,-0.504 1.008,0.072 0.576,0.36 2.592,3.744 1.584,-0.216 1.296,-1.008 1.223,-1.152 1.296,-0.792 1.729,1.008 1.151,3.888 0.217,0.288 L -0.288,0 h 0.072 z" style="fill:#ffff80;fill-opacity:1;fill-rule:nonzero;stroke:none" id="path1414"/>
  </g>
  <g id="g1416" transform="matrix(1.3333330154418945, 0, 0, -1.3333330154418945, 2627.773498765339, 568.7813061799934)">
    <path d="m 0,0 19.225,-0.144 -0.361,-1.224 -0.935,-1.08 -1.297,-1.008 -1.367,-0.864 -0.721,-0.432 -0.792,-0.504 h -0.216 l -0.288,0.072 -0.216,3.6 L 12.24,-3.24 12.168,-5.472 10.656,-4.464 9.36,-3.24 7.849,-2.16 5.904,-1.152 5.688,-1.656 5.473,-2.16 6.624,-3.744 8.136,-4.536 9.647,-5.256 11.231,-6.408 6.048,-8.424 5.832,-8.64 v -0.288 l 5.689,0.864 -1.369,-3.24 -1.799,-3.024 -2.305,-2.664 -2.951,-2.088 -0.073,-0.216 -0.144,-0.36 0.144,-0.144 0.36,-0.072 5.257,2.664 1.799,1.944 1.44,2.376 0.936,2.664 0.432,2.88 2.304,0.792 2.089,1.08 1.799,1.512 1.368,1.872 0.432,1.08 0.288,0.936 h 3.96 l -1.296,-2.088 -1.8,-2.808 -2.304,-3.312 -2.592,-3.528 -2.88,-3.456 -2.952,-3.096 -3.023,-2.448 -2.809,-1.584 -6.624,0.144 2.52,4.896 1.369,6.552 -0.289,6.336 z" style="fill:#ffff80;fill-opacity:1;fill-rule:nonzero;stroke:none" id="path1418"/>
  </g>
  <g id="g1420" transform="matrix(1.3333330154418945, 0, 0, -1.3333330154418945, 2729.149776678678, 628.9726166990549)">
    <path d="M 0,0 -0.864,-1.008 -1.728,-1.8 -2.808,-2.521 -3.96,-2.953 -4.104,-3.168 -3.96,-3.456 h 1.08 l 1.008,0.432 0.792,0.72 0.864,0.792 0.648,0.72 0.792,0.504 -0.432,-1.008 -0.721,-1.008 -0.935,-0.864 -1.008,-0.577 -1.441,-0.215 -1.295,0.072 -1.152,0.36 -1.008,0.575 3.024,0.289 z" style="fill:#ffff80;fill-opacity:1;fill-rule:nonzero;stroke:none" id="path1422"/>
  </g>
  <g id="g1424" transform="matrix(1.3333330154418945, 0, 0, -1.3333330154418945, 2736.3502957952737, 631.1810308860695)">
    <path d="m 0,0 -1.44,-5.4 0.215,5.76 z" style="fill:#ffffff;fill-opacity:1;fill-rule:nonzero;stroke:none" id="path1426"/>
  </g>
  <g id="g1428" transform="matrix(1.3333330154418945, 0, 0, -1.3333330154418945, 2738.7487327234417, 632.8131919552653)">
    <path d="m 0,0 -1.295,-4.968 -0.864,0.288 0.647,-1.08 -0.504,-0.504 h -0.287 l -0.505,0.36 1.584,6.768 z" style="fill:#ffffff;fill-opacity:1;fill-rule:nonzero;stroke:none" id="path1430"/>
  </g>
  <g id="g1432" transform="matrix(1.3333330154418945, 0, 0, -1.3333330154418945, 2733.5664422923296, 631.2773036495746)">
    <path d="m 0,0 -0.145,-1.44 -1.08,-0.72 z" style="fill:#ffffff;fill-opacity:1;fill-rule:nonzero;stroke:none" id="path1434"/>
  </g>
  <g id="g1436" transform="matrix(1.3333330154418945, 0, 0, -1.3333330154418945, 2733.5664422923296, 631.2773036495746)">
    <path d="m 0,0 -0.145,-1.44 -1.08,-0.72 z" style="fill:none;stroke:#ffffff;stroke-width:0.073;stroke-linecap:butt;stroke-linejoin:miter;stroke-miterlimit:4;stroke-dasharray:none;stroke-opacity:1" id="path1438"/>
  </g>
  <g id="g1440" transform="matrix(1.3333330154418945, 0, 0, -1.3333330154418945, 2665.5977084973424, 570.6053617346879)">
    <path d="m 0,0 -2.016,-3.384 -1.656,-3.672 -1.296,-3.96 -1.297,-4.032 -1.511,-4.176 -1.512,-3.888 -2.088,-3.528 -2.664,-3.24 1.296,2.233 1.008,1.799 1.008,1.8 1.296,2.376 2.592,10.728 2.088,6.048 2.016,3.313 2.088,2.591 3.024,-0.144 z" style="fill:#ffffff;fill-opacity:1;fill-rule:nonzero;stroke:none" id="path1442"/>
  </g>
  <g id="g1444" transform="matrix(1.3333330154418945, 0, 0, -1.3333330154418945, 2666.8451040332734, 578.1886932600137)">
    <path d="m 0,0 1.08,1.583 1.297,1.081 1.512,0.72 1.511,0.432 1.657,0.432 1.584,0.503 1.296,0.865 1.295,1.296 h 0.36 l 0.792,-0.144 h 0.792 l 0.36,0.144 6.048,-3.096 -0.288,-6.192 -0.288,-5.832 -1.367,-6.48 -2.233,-6.264 -2.807,-5.04 -2.088,-0.576 -2.089,0.215 -2.087,0.721 -1.872,0.648 -2.233,1.44 -2.16,1.44 -2.015,1.583 -1.872,1.729 0.288,4.464 1.223,4.608 1.368,4.896 z" style="fill:#ffffff;fill-opacity:1;fill-rule:nonzero;stroke:none" id="path1446"/>
  </g>
  <g id="g1448" transform="matrix(1.3333330154418945, 0, 0, -1.3333330154418945, 2690.173223471415, 568.5890861737389)">
    <path d="M 0,0 0.792,-0.72 1.584,-0.936 2.16,-1.44 2.809,-2.448 v -0.504 l 0.072,-0.432 -0.433,0.792 -0.288,0.216 -0.504,0.144 -0.719,0.576 -0.577,0.36 -0.504,0.144 -0.431,0.36 -0.361,0.288 0.216,0.36 0.576,0.216 z" style="fill:#ffffff;fill-opacity:1;fill-rule:nonzero;stroke:none" id="path1450"/>
  </g>
  <g id="g1452" transform="matrix(1.3333330154418945, 0, 0, -1.3333330154418945, 2691.5169731510396, 568.013077196487)">
    <path d="M 0,0 0.792,-0.288 1.225,-0.576 1.44,-1.152 1.801,-1.872 -0.071,-0.288 -0.287,0 Z" style="fill:#ffffff;fill-opacity:1;fill-rule:nonzero;stroke:none" id="path1454"/>
  </g>
  <g id="g1456" transform="matrix(1.3333330154418945, 0, 0, -1.3333330154418945, 2694.014368388948, 567.8211013307991)">
    <path d="m 0,0 h 0.215 l 0.144,-0.216 0.144,-1.08 -0.72,1.08 0.145,0.072 z" style="fill:#ffffff;fill-opacity:1;fill-rule:nonzero;stroke:none" id="path1458"/>
  </g>
  <g id="g1460" transform="matrix(1.3333330154418945, 0, 0, -1.3333330154418945, 2660.3177618395134, 603.9165517093461)">
    <path d="m 0,0 1.944,-1.8 2.016,-1.656 2.376,-1.44 2.088,-1.296 2.231,-1.008 2.089,-0.649 2.232,-0.287 2.303,0.216 0.649,0.36 0.576,0.72 0.504,0.648 0.504,0.648 L 22.68,-7.2 19.368,-7.92 16.2,-8.424 13.032,-8.641 9.72,-8.712 6.552,-8.568 3.239,-8.28 0.071,-7.776 -3.097,-7.057 -0.216,0.144 0,0.072 Z" style="fill:#ffffff;fill-opacity:1;fill-rule:nonzero;stroke:none" id="path1462"/>
  </g>
  <g id="g1464" transform="matrix(1.3333330154418945, 0, 0, -1.3333330154418945, 2655.806044165191, 614.66931607277)">
    <path d="m 0,0 3.455,-0.792 3.457,-0.432 3.6,-0.216 h 3.527 l 3.457,0.216 3.455,0.216 3.528,0.432 3.384,0.432 V -0.36 -0.72 l -1.008,-0.36 -1.007,-0.072 -1.008,-0.216 -1.008,-0.288 -3.169,-0.432 -3.023,-0.288 -3.096,-0.216 -3.096,0.144 -3.096,0.072 -3.024,0.288 -3.169,0.432 -2.952,0.504 0.145,0.576 0.215,0.72 L -0.217,0 Z" style="fill:#ffffff;fill-opacity:1;fill-rule:nonzero;stroke:none" id="path1466"/>
  </g>
  <g id="g1468" transform="matrix(1.3333330154418945, 0, 0, -1.3333330154418945, 2682.3008295150066, 594.2214856614555)">
    <path d="M 0,0 -1.871,-0.432 -2.304,0.36 -2.231,1.512 -2.088,0.864 -2.159,0.432 -1.871,0.216 -0.863,0.288 -0.359,0.936 0,1.368 0.433,1.512 1.369,1.296 1.08,1.08 0.577,0.792 0.145,0.36 Z" style="fill:#000000;fill-opacity:1;fill-rule:nonzero;stroke:none" id="path1470"/>
  </g>
  <g id="g1472" transform="matrix(1.3333330154418945, 0, 0, -1.3333330154418945, 2683.356818846573, 608.1413228374986)">
    <path d="m 0,0 -0.575,0.216 -0.576,0.072 -0.504,-0.216 -0.792,-0.216 -0.216,0.36 v 0.36 l 0.792,0.288 h 0.792 L -0.504,0.792 0.217,0.576 0.145,0.36 Z" style="fill:#000000;fill-opacity:1;fill-rule:nonzero;stroke:none" id="path1474"/>
  </g>
  <g id="g1476" transform="matrix(1.3333330154418945, 0, 0, -1.3333330154418945, 2684.412808178138, 604.013068613418)">
    <path d="m 0,0 -1.296,-0.36 -1.584,-0.216 -1.296,0.216 -0.143,0.936 0.36,0.504 h 0.504 L -2.376,0.792 -1.151,0.576 0.145,1.08 0.289,0.288 Z" style="fill:#000000;fill-opacity:1;fill-rule:nonzero;stroke:none" id="path1478"/>
  </g>
  <g id="g1480" transform="matrix(1.3333330154418945, 0, 0, -1.3333330154418945, 2676.829476652813, 602.2852044420397)">
    <path d="M 0,0 0.145,2.52 0.721,1.944 1.512,2.448 2.305,2.304 3.096,1.944 4.248,1.872 5.04,1.944 5.473,2.232 5.904,2.16 6.768,1.656 6.984,1.728 7.271,1.872 7.344,0.432 6.984,0.144 6.48,0.792 1.224,1.008 0.648,0.504 0.145,-0.216 0.072,0 Z" style="fill:#000000;fill-opacity:1;fill-rule:nonzero;stroke:none" id="path1482"/>
  </g>
  <g id="g1484" transform="matrix(1.3333330154418945, 0, 0, -1.3333330154418945, 2682.3008295150066, 594.5091646293259)">
    <path d="m 0,0 0.433,0.144 0.647,0.504 0.649,0.576 0.503,0.36 -0.648,2.88 -0.792,3.024 -0.287,2.88 0.864,2.88 0.575,0.504 0.577,0.36 0.576,0.288 0.36,0.36 L 6.841,14.544 6.049,13.968 4.969,13.68 H 3.816 L 2.664,13.464 1.729,12.528 1.369,11.736 v -0.864 l 0.215,-0.144 0.289,0.144 1.008,0.864 4.031,-0.72 L 7.201,10.08 7.345,8.856 5.904,8.28 4.393,8.064 2.881,8.208 1.369,8.568 1.584,6.264 2.521,4.032 3.097,1.944 2.664,0.576 1.225,0.072 0.577,-0.576 0.288,-1.296 -0.071,-1.512 Z" style="fill:#000000;fill-opacity:1;fill-rule:nonzero;stroke:none" id="path1486"/>
  </g>
  <g id="g1488" transform="matrix(1.3333330154418945, 0, 0, -1.3333330154418945, 2676.350310100389, 583.8535682114853)">
    <path d="M 0,0 -5.545,0.864 -5.4,2.88 -5.112,3.024 -4.681,2.88 -3.601,3.384 -2.448,3.6 -1.297,3.672 H 0 L 0.504,3.168 0.792,2.592 2.375,1.873 2.592,1.656 2.664,1.296 Z" style="fill:#000000;fill-opacity:1;fill-rule:nonzero;stroke:none" id="path1490"/>
  </g>
  <g id="g1492" transform="matrix(1.3333330154418945, 0, 0, -1.3333330154418945, 2668.5729682046517, 577.5168184202013)">
    <path d="M 0,0 H -0.144 -0.359 L -0.071,0.576 0.433,1.008 1.152,1.296 1.944,1.44 3.673,1.368 H 5.257 L 6.913,1.656 8.353,2.088 7.849,1.368 6.913,0.72 5.112,0.576 3.457,0.72 H 1.656 Z" style="fill:#000000;fill-opacity:1;fill-rule:nonzero;stroke:none" id="path1494"/>
  </g>
  <g id="g1496" transform="matrix(1.3333330154418945, 0, 0, -1.3333330154418945, 2691.2292128029803, 582.1250529985956)">
    <path d="m 0,0 -1.728,-0.432 0.792,0.792 0.289,1.08 z" style="fill:#ffffff;fill-opacity:1;fill-rule:nonzero;stroke:none" id="path1498"/>
  </g>
  <g id="g1500" transform="matrix(1.3333330154418945, 0, 0, -1.3333330154418945, 2684.412808178138, 582.1250529985956)">
    <path d="M 0,0 1.873,-0.504 1.009,0.216 0.793,1.08 Z" style="fill:#ffffff;fill-opacity:1;fill-rule:nonzero;stroke:none" id="path1502"/>
  </g>
  <g id="g1504" transform="matrix(1.3333330154418945, 0, 0, -1.3333330154418945, 2677.9818201280723, 581.8373740307252)">
    <path d="M 0,0 -2.016,-0.792 -1.44,0 -1.152,0.648 Z" style="fill:#ffffff;fill-opacity:1;fill-rule:nonzero;stroke:none" id="path1506"/>
  </g>
  <g id="g1508" transform="matrix(1.3333330154418945, 0, 0, -1.3333330154418945, 2670.205780315359, 581.3568240150889)">
    <path d="M 0,0 1.944,-1.008 1.368,-0.216 1.224,0.72 Z" style="fill:#ffffff;fill-opacity:1;fill-rule:nonzero;stroke:none" id="path1510"/>
  </g>
  <g id="g1512" transform="matrix(1.3333330154418945, 0, 0, -1.3333330154418945, 2639.8698500480095, 761.9328714571858)">
    <path d="M 0,0 V 0.288 0.72 L 0.432,3.24 1.872,5.256 3.96,6.696 6.407,7.2 8.928,6.696 10.943,5.256 12.456,3.24 12.96,0.72 12.456,-1.872 10.943,-3.96 8.928,-5.328 6.407,-5.832 H 5.256 L 4.104,-5.472 3.096,-4.896 2.088,-4.176 1.584,-4.32 1.224,-4.752 1.08,-5.256 2.448,-6.264 3.456,-7.56 4.104,-9.144 4.319,-10.8 3.815,-13.32 2.448,-15.264 0.36,-16.776 l -2.52,-0.504 -2.521,0.504 -2.015,1.512 -1.368,1.944 -0.504,2.52 0.288,1.872 0.72,1.584 1.152,1.296 1.512,1.08 -0.289,0.576 -0.288,0.144 -0.575,0.216 -0.936,-0.792 -1.08,-0.504 -1.224,-0.504 h -1.368 l -2.448,0.504 -2.016,1.368 -1.512,2.088 -0.504,2.592 0.504,2.52 1.512,2.016 2.016,1.44 2.448,0.504 2.592,-0.504 2.016,-1.44 1.367,-2.016 0.504,-2.52 V 0.288 0 L -3.24,1.296 -2.952,4.32 -3.6,7.848 -4.896,11.088 H 0.72 L -0.72,7.848 -1.296,4.32 -1.08,1.296 Z" style="fill:#000000;fill-opacity:1;fill-rule:nonzero;stroke:none" id="path1514"/>
  </g>
  <g id="g1516" transform="matrix(1.3333330154418945, 0, 0, -1.3333330154418945, 2740.8620134695957, 728.6211932013938)">
    <path d="m 0,0 -6.265,-4.968 -0.719,-0.072 -0.792,-0.36 -0.649,-0.36 -0.792,-0.216 -1.439,-0.648 -1.513,-0.792 -1.367,-0.864 -1.296,-1.08 -1.297,-1.08 -1.224,-1.008 -1.223,-1.296 -1.153,-1.152 -0.719,-0.936 -0.576,-0.792 -0.432,-0.864 -0.648,-0.936 -1.368,-1.944 -1.152,-2.592 -1.009,-3.168 -0.935,-3.528 -1.008,-3.672 -1.225,-3.816 -1.151,-3.744 -1.656,-3.6 -1.152,-1.584 -1.296,-0.864 -1.512,-0.648 -1.512,-0.648 -4.032,-2.088 h -1.44 l 1.224,0.864 1.368,0.72 1.512,0.576 1.584,0.576 1.511,0.648 1.369,0.864 1.224,1.008 0.936,1.368 1.727,5.616 1.296,5.544 1.729,5.544 2.231,5.328 0.721,1.44 0.648,1.224 0.719,1.224 0.649,1.152 0.864,1.44 1.08,1.44 1.223,1.512 1.297,1.296 1.224,1.368 1.296,1.296 1.439,1.296 1.297,1.008 1.728,1.08 1.584,0.936 1.656,0.936 1.656,0.72 1.512,0.432 1.439,0.36 1.369,0.216 z" style="fill:#ffffff;fill-opacity:1;fill-rule:nonzero;stroke:none" id="path1518"/>
  </g>
  <g id="g1520" transform="matrix(1.3333330154418945, 0, 0, -1.3333330154418945, 2617.981834433187, 664.3971688000565)">
    <path d="m 0,0 1.872,0.072 h 1.872 l 1.944,-0.144 1.872,-0.288 2.015,-0.36 1.801,-0.576 1.872,-0.576 1.872,-0.72 2.376,-1.512 2.304,-1.656 2.304,-1.944 2.16,-2.088 1.944,-2.232 1.656,-2.376 1.296,-2.592 1.008,-2.88 0.936,-5.184 0.215,-5.472 -1.007,-5.4 -1.944,-5.184 -0.072,1.872 -0.937,1.8 -0.863,0.36 -0.792,0.36 -0.72,0.504 -0.72,0.36 -0.072,1.368 5.255,0.36 1.009,1.368 -0.144,1.656 -1.584,1.152 -2.16,0.216 -0.577,0.36 -0.504,0.72 v 0.36 l 0.145,0.36 4.176,1.08 0.719,0.864 0.217,1.296 -0.072,0.504 -0.216,0.288 -1.225,0.792 -1.439,0.144 -1.584,-0.144 -1.44,0.288 -0.216,0.648 0.216,0.648 1.08,0.648 1.152,0.504 1.08,0.792 0.792,1.008 -0.144,1.08 -0.144,0.792 -1.009,0.576 -1.079,0.072 -1.152,-0.144 -1.152,-0.288 -0.576,-0.36 -0.576,-0.072 h -0.576 l -0.36,0.216 -0.216,0.504 -0.072,0.576 0.648,1.08 1.08,0.936 0.935,0.864 0.289,1.296 v 0.504 0.288 l -0.576,0.792 -0.792,0.576 -1.44,-0.144 -1.152,-0.72 -1.224,-0.792 -1.296,-0.72 -1.08,0.216 v 1.44 l 0.72,1.44 0.576,1.44 -0.216,1.584 -0.792,0.648 -0.505,0.36 h -1.007 l -0.864,-0.36 -0.792,-0.648 -0.72,-0.864 -0.577,-0.72 -0.575,-0.576 h -1.08 l -0.433,1.296 0.217,1.512 0.071,1.584 -0.576,1.512 -0.431,0.288 -0.36,0.216 H 9.071 L 8.352,-1.512 7.632,-1.872 7.128,-2.376 5.76,-5.76 5.04,-6.192 4.248,-5.76 2.88,-0.792 2.231,-0.576 1.512,-0.504 0.792,-0.72 0.216,-1.008 -0.072,-1.512 -0.216,-1.8 -0.864,-6.048 -1.296,-6.192 h -0.576 -0.216 l -0.288,0.432 -0.288,4.968 0.576,0.216 0.792,0.216 0.576,0.216 z" style="fill:#c0c0ff;fill-opacity:1;fill-rule:nonzero;stroke:none" id="path1522"/>
  </g>
  <g id="g1524" transform="matrix(1.3333330154418945, 0, 0, -1.3333330154418945, 2633.34250785425, 687.3411737464448)">
    <path d="M 0,0 1.296,-0.144 2.735,-0.576 3.815,-1.368 4.68,-2.376 4.967,-5.256 4.176,-7.776 3.6,-8.28 2.808,-8.784 -3.24,-1.8 l 0.576,0.72 0.719,0.504 0.793,0.288 z" style="fill:#ffff80;fill-opacity:1;fill-rule:nonzero;stroke:none" id="path1526"/>
  </g>
  <g id="g1528" transform="matrix(1.3333330154418945, 0, 0, -1.3333330154418945, 2734.141962988448, 675.4376121313509)">
    <path d="M 0,0 -1.44,0.216 -2.809,0.72 -3.96,1.44 -4.752,2.448 -5.04,5.328 -4.32,7.849 -3.744,8.28 -2.952,8.856 3.239,1.944 2.664,1.152 1.943,0.72 1.152,0.288 Z" style="fill:#ffff80;fill-opacity:1;fill-rule:nonzero;stroke:none" id="path1530"/>
  </g>
  <g id="g1532" transform="matrix(1.3333330154418945, 0, 0, -1.3333330154418945, 2685.6615057970926, 704.3332758150027)">
    <path d="m 0,0 0.792,-1.728 0.864,-1.656 1.008,-1.728 0.864,-1.728 1.44,-2.232 1.511,-2.232 1.584,-2.088 1.584,-2.016 1.874,-1.944 1.799,-1.728 1.945,-1.8 2.015,-1.584 -3.672,0.36 -2.448,2.448 -2.16,2.52 -1.943,2.592 -1.801,3.024 -0.936,1.368 -0.864,1.512 -0.792,1.512 -0.792,1.44 -0.504,1.44 -0.504,1.296 -0.504,1.296 -0.576,1.152 v 0.432 z" style="fill:#ffc0c0;fill-opacity:1;fill-rule:nonzero;stroke:none" id="path1534"/>
  </g>
  <g id="g1536" transform="matrix(1.3333330154418945, 0, 0, -1.3333330154418945, 2683.0703605815365, 709.4213279873329)">
    <path d="M 0,0 V 0.072 0.216 L 0.359,0.792 0.863,0.936 1.439,0.792 1.728,0.216 1.439,-0.576 0.863,-0.72 0.503,-0.648 0.359,-0.576 H 0.215 v -0.072 l 0.288,-0.288 0.072,-0.504 -0.143,-0.504 -0.577,-0.288 -0.503,0.288 -0.289,0.504 0.073,0.504 0.431,0.36 h -0.144 -0.071 l -0.216,-0.072 -0.361,-0.072 -0.648,0.144 -0.216,0.792 0.216,0.576 0.648,0.144 0.577,-0.144 0.215,-0.576 V 0.072 0 l 0.144,0.576 -0.144,0.936 H 0.215 L -0.072,0.576 Z" style="fill:#ffffff;fill-opacity:1;fill-rule:nonzero;stroke:none" id="path1538"/>
  </g>
  <g id="g1540" transform="matrix(1.3333330154418945, 0, 0, -1.3333330154418945, 2679.134163603332, 705.6771882550055)">
    <path d="m 0,0 -1.296,-6.12 -1.872,-6.12 -2.52,-5.688 -2.953,-4.968 -2.303,-0.792 1.727,2.448 1.656,2.664 1.657,2.952 1.44,2.88 1.367,3.168 1.224,3.24 1.08,3.168 z" style="fill:#ffc0c0;fill-opacity:1;fill-rule:nonzero;stroke:none" id="path1542"/>
  </g>
  <g id="g1544" transform="matrix(1.3333330154418945, 0, 0, -1.3333330154418945, 2625.757874245901, 719.3092650829894)">
    <path d="m 0,0 -2.448,-6.264 -0.504,0.288 -0.36,0.576 2.088,4.68 0.576,-0.072 -0.289,0.504 0.217,0.504 z" style="fill:#ffffff;fill-opacity:1;fill-rule:nonzero;stroke:none" id="path1546"/>
  </g>
  <g id="g1548" transform="matrix(1.3333330154418945, 0, 0, -1.3333330154418945, 2628.157613257092, 719.981139922802)">
    <path d="m 0,0 -2.088,-6.984 -0.648,0.144 -0.648,0.504 1.728,5.112 0.864,0.144 -0.792,0.36 0.145,0.432 0.071,0.504 0.576,0.072 z" style="fill:#ffffff;fill-opacity:1;fill-rule:nonzero;stroke:none" id="path1550"/>
  </g>
  <g id="g1552" transform="matrix(1.3333330154418945, 0, 0, -1.3333330154418945, 2628.8294880969042, 720.3653357947442)">
    <path d="m 0,0 0.504,-0.288 0.432,-0.144 -1.512,-7.2 -0.72,0.144 -0.576,0.432 1.44,5.472 0.865,0.072 -0.288,0.288 -0.361,0.288 0.144,0.72 z" style="fill:#ffffff;fill-opacity:1;fill-rule:nonzero;stroke:none" id="path1554"/>
  </g>
  <g id="g1556" transform="matrix(1.3333330154418945, 0, 0, -1.3333330154418945, 2630.557352268283, 722.7649934257461)">
    <path d="M 0,0 0.433,-0.432 0,-6.696 -0.575,-6.768 -1.08,-6.408 Z" style="fill:#ffffff;fill-opacity:1;fill-rule:nonzero;stroke:none" id="path1558"/>
  </g>
  <g id="g1560" transform="matrix(1.3333330154418945, 0, 0, -1.3333330154418945, 2638.9102148601382, 728.044940083575)">
    <path d="m 0,0 h 1.295 l 1.297,-0.144 1.08,-0.288 1.008,-0.72 -3.168,-0.144 -3.385,-2.592 0.505,1.08 1.008,0.792 1.151,0.72 1.225,0.504 -0.073,0.288 -0.431,0.216 -1.008,-0.216 -3.961,-3.24 0.36,1.152 0.865,0.864 1.08,0.936 L -0.145,0 h 0.073 z" style="fill:#ffff80;fill-opacity:1;fill-rule:nonzero;stroke:none" id="path1562"/>
  </g>
  <g id="g1564" transform="matrix(1.3333330154418945, 0, 0, -1.3333330154418945, 2631.134175047424, 737.7409013135439)">
    <path d="M 0,0 -0.433,-0.576 -1.008,-1.08 -1.584,-1.584 -2.305,-2.088 -2.88,-2.232 -3.385,-2.592 -3.313,-2.88 -2.88,-3.096 0.863,-0.216 0.504,-1.224 0,-2.088 -0.793,-2.88 l -1.08,-0.432 -0.936,-0.36 -0.792,-0.36 -0.792,-0.36 -0.576,-0.576 0.217,1.008 0.359,0.864 0.577,0.792 0.936,0.576 0.863,0.432 0.937,0.504 0.863,0.504 z" style="fill:#ffff80;fill-opacity:1;fill-rule:nonzero;stroke:none" id="path1566"/>
  </g>
  <g id="g1568" transform="matrix(1.3333330154418945, 0, 0, -1.3333330154418945, 2631.806049887237, 729.5813980505881)">
    <path d="M 0,0 0.216,1.296 0.863,1.44 Z" style="fill:#ffffff;fill-opacity:1;fill-rule:nonzero;stroke:none" id="path1570"/>
  </g>
  <g id="g1572" transform="matrix(1.3333330154418945, 0, 0, -1.3333330154418945, 2631.806049887237, 729.5813980505881)">
    <path d="M 0,0 0.216,1.296 0.863,1.44 Z" style="fill:none;stroke:#ffffff;stroke-width:0.073;stroke-linecap:butt;stroke-linejoin:miter;stroke-miterlimit:4;stroke-dasharray:none;stroke-opacity:1" id="path1574"/>
  </g>
  <g id="g1576" transform="matrix(1.3333330154418945, 0, 0, -1.3333330154418945, 2680.4779132829576, 734.5729333188465)">
    <path d="m 0,0 3.312,0.216 h 3.456 3.528 L 13.68,0 l 3.528,-0.216 3.456,-0.504 3.384,-0.576 3.384,-0.792 -0.288,-0.576 -0.576,-0.288 -1.872,-2.304 -0.648,0.36 -0.144,0.72 v 0.36 0.144 l -0.576,1.008 -0.936,0.648 -0.936,-0.072 -0.576,-0.36 -0.721,-0.36 -0.504,-0.576 -0.359,-0.576 -0.504,-0.576 -0.576,-0.432 -0.504,-0.288 -1.009,0.072 -2.375,3.888 -1.368,0.072 -1.152,-0.504 -1.08,-0.864 L 9.72,-3.672 9.504,-3.96 9.359,-4.176 8.424,-4.896 6.768,-4.32 4.176,-1.224 H 3.312 L 2.52,-1.368 1.8,-1.872 1.296,-2.592 0.863,-3.384 0.359,-4.104 -0.145,-4.68 -0.864,-5.256 -2.16,-5.04 -5.544,-2.16 h -0.648 l -0.504,-0.216 -0.576,-0.288 -0.432,-0.432 -1.441,-4.248 h -0.647 l -0.505,0.288 -0.432,0.504 -0.431,0.36 -0.432,0.144 -0.36,0.072 -2.304,2.016 1.296,0.792 1.512,0.576 1.584,0.432 1.584,0.648 2.16,0.432 2.016,0.504 2.088,0.36 z" style="fill:#ffff80;fill-opacity:1;fill-rule:nonzero;stroke:none" id="path1578"/>
  </g>
  <g id="g1580" transform="matrix(1.3333330154418945, 0, 0, -1.3333330154418945, 2727.7096728553597, 739.8528799766755)">
    <path d="M 0,0 -1.296,-2.016 -2.809,-3.6 -4.464,-5.112 -6.12,-6.48 -7.775,-7.848 -9.36,-9.36 l -1.368,-1.728 -1.008,-2.088 -1.512,-3.24 -1.08,-3.528 -1.008,-3.6 -0.935,-3.6 -1.225,-3.456 -1.512,-3.24 -2.015,-2.808 -2.593,-2.376 -2.952,-2.088 h -2.52 l 6.12,3.6 1.872,2.16 1.512,2.592 1.224,2.808 0.936,3.168 0.792,3.096 0.863,3.168 1.009,3.096 1.296,2.88 1.008,2.304 1.296,2.304 1.368,2.088 1.656,1.872 1.728,1.8 1.944,1.584 2.159,1.368 L -0.216,0 h 0.144 z" style="fill:#ffffff;fill-opacity:1;fill-rule:nonzero;stroke:none" id="path1582"/>
  </g>
  <g id="g1584" transform="matrix(1.3333330154418945, 0, 0, -1.3333330154418945, 2709.7578542187402, 774.9888579277285)">
    <path d="m 0,0 -1.08,-3.816 -1.584,-3.672 -2.088,-3.6 -2.52,-3.456 h -4.033 l 1.945,1.296 1.728,1.656 1.512,1.584 1.224,1.728 0.936,1.656 0.863,1.512 0.649,1.296 0.36,0.936 1.008,4.32 1.655,5.904 2.449,5.688 3.383,4.536 L 4.392,13.464 2.736,10.368 1.44,6.408 Z" style="fill:#ffffff;fill-opacity:1;fill-rule:nonzero;stroke:none" id="path1586"/>
  </g>
  <g id="g1588" transform="matrix(1.3333330154418945, 0, 0, -1.3333330154418945, 2731.3568074024806, 763.180999414817)">
    <path d="M 0,0 5.544,-0.432 5.04,-1.512 4.393,-2.448 3.816,-3.528 3.241,-4.536 1.944,-8.568 l -0.359,-4.104 0.432,-4.176 1.08,-3.96 0.719,-1.296 0.577,-1.152 -19.512,-0.144 0.431,1.08 0.577,1.008 0.792,0.864 0.936,1.008 0.648,0.504 0.719,0.504 0.792,0.504 0.72,0.36 0.289,-4.32 0.215,-0.072 0.288,-0.144 1.081,4.752 4.248,-3.96 2.447,-1.368 0.289,0.216 0.288,0.36 -1.08,1.8 -1.728,1.368 -1.873,1.296 -1.728,1.368 5.329,1.944 v 0.144 l 0.143,0.288 -0.071,0.288 -0.072,0.144 -5.4,-1.224 0.215,1.296 0.505,1.296 0.647,1.152 0.649,1.224 1.296,1.8 1.584,1.584 1.656,1.584 1.727,1.512 -1.223,0.144 -1.153,-0.504 -1.295,-0.72 -1.152,-0.576 -1.872,-1.512 -1.656,-1.8 -1.08,-2.304 -0.721,-2.592 v -1.08 L -9,-14.976 l -2.376,-1.08 -2.375,-1.296 -2.017,-1.728 -1.368,-2.232 -0.143,-1.152 -0.216,-0.936 h -3.744 l 1.296,2.088 1.439,2.232 1.656,2.16 1.872,2.088 1.801,2.16 1.799,2.016 1.872,1.944 1.873,2.016 1.8,1.656 1.871,1.728 1.872,1.584 1.729,1.656 h 0.215 z" style="fill:#ffff80;fill-opacity:1;fill-rule:nonzero;stroke:none" id="path1590"/>
  </g>
  <g id="g1592" transform="matrix(1.3333330154418945, 0, 0, -1.3333330154418945, 2678.4609866804967, 794.6692731574258)">
    <path d="M 0,0 H -2.159 L -2.304,0.72 -2.88,1.512 -3.888,2.088 -4.968,2.448 -5.543,3.6 -5.328,4.968 -3.959,3.312 -2.304,2.304 -0.72,1.296 Z" style="fill:#ffffff;fill-opacity:1;fill-rule:nonzero;stroke:none" id="path1594"/>
  </g>
  <g id="g1596" transform="matrix(1.3333330154418945, 0, 0, -1.3333330154418945, 2670.8776551551714, 791.3092479168517)">
    <path d="M 0,0 0.864,-1.008 1.8,-1.368 2.592,-1.728 3.096,-2.52 H 1.512 l -1.153,0.792 -0.143,0.864 z" style="fill:#ffffff;fill-opacity:1;fill-rule:nonzero;stroke:none" id="path1598"/>
  </g>
  <g id="g1600" transform="matrix(1.3333330154418945, 0, 0, -1.3333330154418945, 2670.0143741109932, 791.1171906709752)">
    <path d="m 0,0 0.647,-1.872 0.72,-0.792 H 0 l -0.36,1.296 z" style="fill:#ffffff;fill-opacity:1;fill-rule:nonzero;stroke:none" id="path1602"/>
  </g>
  <g id="g1604" transform="matrix(1.3333330154418945, 0, 0, -1.3333330154418945, 2672.412811039161, 747.3411594413301)">
    <path d="M 0,0 -0.432,0.288 1.08,0.72 2.521,1.152 4.177,1.512 5.617,1.656 7.345,1.872 9,2.016 10.513,2.232 12.168,2.376 28.513,0.72 28.44,0.144 V 0 H 25.921 L 24.984,0.288 21.889,0.72 18.793,1.008 15.769,1.152 H 12.601 L 9.505,0.936 6.553,0.648 3.528,0.288 2.736,0 Z" style="fill:#ffffff;fill-opacity:1;fill-rule:nonzero;stroke:none" id="path1606"/>
  </g>
  <g id="g1608" transform="matrix(1.3333330154418945, 0, 0, -1.3333330154418945, 2683.356818846573, 747.3411594413301)">
    <path d="M 0,0 0.648,0.144 3.96,0.432 6.984,0.504 10.009,0.288 12.385,0 Z" style="fill:#ffffff;fill-opacity:1;fill-rule:nonzero;stroke:none" id="path1610"/>
  </g>
  <g id="g1612" transform="matrix(1.3333330154418945, 0, 0, -1.3333330154418945, 2678.845101172251, 753.6771768109138)">
    <path d="M 0,0 0.36,0.864 2.809,3.384 5.328,3.24 7.561,2.952 9.648,2.304 11.592,1.296 12.816,0.576 13.536,0 Z" style="fill:#ffffff;fill-opacity:1;fill-rule:nonzero;stroke:none" id="path1614"/>
  </g>
  <g id="g1616" transform="matrix(1.3333330154418945, 0, 0, -1.3333330154418945, 2699.005252615694, 753.6771768109138)">
    <path d="m 0,0 -0.36,0.288 -0.791,0.576 -0.937,0.504 -1.08,0.72 -1.224,0.576 -1.224,0.72 -1.224,0.36 -1.296,0.432 -1.368,0.216 h -1.44 l -1.44,-0.216 -3.095,-2.304 -2.809,1.728 3.816,0.792 2.736,0.36 H 0.648 1.152 L 4.176,4.248 7.272,3.6 5.904,0 Z" style="fill:#ffffff;fill-opacity:1;fill-rule:nonzero;stroke:none" id="path1618"/>
  </g>
  <g id="g1620" transform="matrix(1.3333330154418945, 0, 0, -1.3333330154418945, 2672.412811039161, 747.3411594413301)">
    <path d="M 0,0 0.865,-0.504 2.736,0 Z" style="fill:#ffffff;fill-opacity:1;fill-rule:nonzero;stroke:none" id="path1622"/>
  </g>
  <g id="g1624" transform="matrix(1.3333330154418945, 0, 0, -1.3333330154418945, 2706.974000715796, 747.3411594413301)">
    <path d="M 0,0 2.088,-0.36 2.52,0 Z" style="fill:#ffffff;fill-opacity:1;fill-rule:nonzero;stroke:none" id="path1626"/>
  </g>
  <g id="g1628" transform="matrix(1.3333330154418945, 0, 0, -1.3333330154418945, 2678.845101172251, 753.6771768109138)">
    <path d="m 0,0 -1.151,-2.232 -1.153,-3.672 -1.08,-3.672 -0.575,-3.6 -0.36,-3.456 -0.145,-4.968 -0.288,-3.96 1.584,-1.584 1.584,-0.432 1.296,-0.864 1.009,-1.008 0.575,-1.296 3.312,2.304 1.08,0.504 1.081,0.504 1.152,0.504 1.151,0.144 0.936,0.504 0.792,0.288 0.864,0.36 0.864,0.432 1.441,1.656 0.935,1.944 0.504,2.304 0.361,2.304 0.864,2.952 0.791,3.096 0.721,2.952 0.863,2.952 -0.287,0.576 -0.288,0.36 -0.505,0.504 -0.575,0.504 -0.577,0.504 -0.719,0.72 -1.008,0.864 -1.08,0.792 L 13.536,0 Z" style="fill:#ffffff;fill-opacity:1;fill-rule:nonzero;stroke:none" id="path1630"/>
  </g>
  <g id="g1632" transform="matrix(1.3333330154418945, 0, 0, -1.3333330154418945, 2699.005252615694, 753.6771768109138)">
    <path d="M 0,0 0.288,-0.216 1.296,-0.576 4.608,-3.384 5.904,0 Z" style="fill:#ffffff;fill-opacity:1;fill-rule:nonzero;stroke:none" id="path1634"/>
  </g>
  <g id="g1636" transform="matrix(1.3333330154418945, 0, 0, -1.3333330154418945, 2682.8776522941484, 766.8294360449617)">
    <path d="M 0,0 1.872,0.576 2.376,-0.288 2.304,-1.512 2.088,-0.72 2.16,-0.288 1.872,-0.144 0.937,-0.216 0.359,-0.864 0,-1.224 l -0.433,-0.072 -0.863,0.144 0.216,0.144 0.576,0.36 0.359,0.36 z" style="fill:#000000;fill-opacity:1;fill-rule:nonzero;stroke:none" id="path1638"/>
  </g>
  <g id="g1640" transform="matrix(1.3333330154418945, 0, 0, -1.3333330154418945, 2681.9180171062762, 752.621187479348)">
    <path d="M 0,0 0.504,-0.216 H 1.079 1.656 L 2.304,0.072 2.592,-0.216 V -0.72 L 1.728,-1.008 H 1.079 l -0.647,0.144 -0.504,0.072 v 0.432 z" style="fill:#000000;fill-opacity:1;fill-rule:nonzero;stroke:none" id="path1642"/>
  </g>
  <g id="g1644" transform="matrix(1.3333330154418945, 0, 0, -1.3333330154418945, 2680.9570798353825, 756.7494417034286)">
    <path d="M 0,0 1.152,0.432 2.881,0.72 4.248,0.576 4.176,-0.648 3.889,-1.152 3.313,-1.296 l -1.081,0.432 -1.08,0.216 -1.223,-0.648 -0.288,0.792 z" style="fill:#000000;fill-opacity:1;fill-rule:nonzero;stroke:none" id="path1646"/>
  </g>
  <g id="g1648" transform="matrix(1.3333330154418945, 0, 0, -1.3333330154418945, 2688.445359300036, 758.477143114429)">
    <path d="m 0,0 -0.144,-2.592 -0.576,0.504 -0.72,-0.504 -0.791,0.144 -0.793,0.36 -1.152,0.144 -0.792,-0.144 -0.432,-0.288 -0.504,0.072 -0.864,0.432 h -0.144 l -0.288,-0.144 -0.072,1.44 0.36,0.36 0.433,-0.648 5.255,-0.216 0.577,0.504 0.503,0.792 z" style="fill:#000000;fill-opacity:1;fill-rule:nonzero;stroke:none" id="path1650"/>
  </g>
  <g id="g1652" transform="matrix(1.3333330154418945, 0, 0, -1.3333330154418945, 2682.8776522941484, 766.2532643073318)">
    <path d="m 0,0 -0.288,-0.216 -0.72,-0.504 -0.721,-0.576 -0.502,-0.432 0.719,-2.88 0.792,-2.952 0.216,-3.024 -0.792,-2.736 -0.648,-0.504 -0.504,-0.432 -0.576,-0.288 -0.36,-0.288 -3.385,0.144 0.793,0.648 1.08,0.288 h 1.224 l 1.008,0.216 0.935,1.008 0.433,0.648 v 0.936 l -0.216,0.072 -0.288,-0.072 -1.008,-0.936 -3.961,0.792 -0.431,0.936 -0.071,1.296 1.367,0.576 1.512,0.072 1.584,-0.072 1.512,-0.36 -0.216,2.232 -0.864,2.376 -0.648,2.016 0.36,1.296 1.513,0.576 0.647,0.648 0.216,0.576 0.433,0.36 z" style="fill:#000000;fill-opacity:1;fill-rule:nonzero;stroke:none" id="path1654"/>
  </g>
  <g id="g1656" transform="matrix(1.3333330154418945, 0, 0, -1.3333330154418945, 2688.9258279354835, 777.0051334886775)">
    <path d="M 0,0 5.472,-1.008 5.328,-3.024 5.111,-3.096 4.536,-3.024 3.6,-3.528 2.376,-3.672 1.296,-3.816 H 0 l -0.504,0.504 -0.288,0.576 -1.584,0.792 -0.072,0.216 -0.216,0.36 z" style="fill:#000000;fill-opacity:1;fill-rule:nonzero;stroke:none" id="path1658"/>
  </g>
  <g id="g1660" transform="matrix(1.3333330154418945, 0, 0, -1.3333330154418945, 2696.7018677481974, 783.4368539604438)">
    <path d="M 0,0 H 0.072 0.216 L 0.072,-0.504 -0.432,-1.08 -1.152,-1.296 -1.872,-1.44 -3.6,-1.368 -5.256,-1.44 -6.912,-1.656 -8.28,-2.16 l 0.504,0.792 0.864,0.504 1.8,0.288 1.727,-0.072 h 1.729 z" style="fill:#000000;fill-opacity:1;fill-rule:nonzero;stroke:none" id="path1662"/>
  </g>
  <g id="g1664" transform="matrix(1.3333330154418945, 0, 0, -1.3333330154418945, 2695.0703577205136, 779.5970111259339)">
    <path d="M 0,0 -1.873,1.152 -1.369,0.216 -1.081,-0.72 Z" style="fill:#ffffff;fill-opacity:1;fill-rule:nonzero;stroke:none" id="path1666"/>
  </g>
  <g id="g1668" transform="matrix(1.3333330154418945, 0, 0, -1.3333330154418945, 2687.389369968471, 779.0209207684929)">
    <path d="M 0,0 1.944,0.72 1.368,0 1.152,-0.792 Z" style="fill:#ffffff;fill-opacity:1;fill-rule:nonzero;stroke:none" id="path1670"/>
  </g>
  <g id="g1672" transform="matrix(1.3333330154418945, 0, 0, -1.3333330154418945, 2680.9570798353825, 778.8294331839388)">
    <path d="m 0,0 -1.872,0.576 0.792,-0.648 0.217,-1.08 z" style="fill:#ffffff;fill-opacity:1;fill-rule:nonzero;stroke:none" id="path1674"/>
  </g>
  <g id="g1676" transform="matrix(1.3333330154418945, 0, 0, -1.3333330154418945, 2674.0456231498683, 778.8294331839388)">
    <path d="M 0,0 1.729,0.576 0.937,-0.432 0.648,-1.44 Z" style="fill:#ffffff;fill-opacity:1;fill-rule:nonzero;stroke:none" id="path1678"/>
  </g>
  <g id="g1680" transform="matrix(1.3333330154418945, 0, 0, -1.3333330154418945, 2726.173214888346, 623.4048283129778)">
    <path d="M 0,0 H 0.145 L 0.648,-0.36 1.297,-0.432 1.872,-0.288 2.448,0 2.809,1.152 2.232,2.16 1.656,2.448 1.08,2.592 0.505,2.376 0.072,2.088 -0.216,1.512 -0.359,1.08 -0.432,0.936 -0.575,1.08 H -0.72 V 1.872 L -1.152,2.592 -1.656,2.88 -2.231,2.952 -2.736,2.88 -3.24,2.592 -3.672,1.368 -3.24,0.288 -2.447,-0.072 -1.656,0 -1.512,-0.072 -1.656,-0.144 v -0.144 l -0.575,-0.144 -0.433,-0.36 -0.359,-1.08 0.359,-1.008 0.576,-0.288 0.576,-0.144 0.649,0.144 0.504,0.36 0.431,1.08 -0.504,1.008 -0.143,0.144 0.647,-0.216 1.008,-0.864 1.08,-1.152 0.649,-0.936 0.647,0.216 0.145,0.72 -1.009,0.576 -1.152,0.936 -1.08,0.864 z" style="fill:#000000;fill-opacity:1;fill-rule:nonzero;stroke:none" id="path1682"/>
  </g>
  <g id="g1684" transform="matrix(1.3333330154418945, 0, 0, -1.3333330154418945, 2723.197955181037, 619.949344110788)">
    <path d="M 0,0 0.72,-0.432 1.079,-1.08 0.72,-1.872 0,-2.16 l -0.72,0.288 -0.289,0.792 0.289,0.648 z" style="fill:#ffff80;fill-opacity:1;fill-rule:nonzero;stroke:none" id="path1686"/>
  </g>
  <g id="g1688" transform="matrix(1.3333330154418945, 0, 0, -1.3333330154418945, 2724.0612362252145, 624.3653586829278)">
    <path d="M 0,0 0.721,-0.288 1.009,-1.08 0.721,-1.872 0,-2.088 l -0.647,0.216 -0.289,0.792 0.289,0.792 z" style="fill:#ffff80;fill-opacity:1;fill-rule:nonzero;stroke:none" id="path1690"/>
  </g>
  <g id="g1692" transform="matrix(1.3333330154418945, 0, 0, -1.3333330154418945, 2727.7096728553597, 620.6212189506005)">
    <path d="M 0,0 0.792,-0.216 1.008,-1.008 0.792,-1.8 0,-2.088 -0.647,-1.8 l -0.361,0.792 0.361,0.792 z" style="fill:#ffff80;fill-opacity:1;fill-rule:nonzero;stroke:none" id="path1694"/>
  </g>
  <g id="g1696" transform="matrix(1.3333330154418945, 0, 0, -1.3333330154418945, 2721.949257562083, 624.4608176445436)">
    <path d="M 0,0 1.801,0.648 H -0.144 L -1.439,0.216 Z" style="fill:#000000;fill-opacity:1;fill-rule:nonzero;stroke:none" id="path1698"/>
  </g>
  <g id="g1700" transform="matrix(1.3333330154418945, 0, 0, -1.3333330154418945, 2721.852903418389, 624.4608176445436)">
    <path d="M 0,0 1.801,0.648 H -0.071 L -1.367,0.216 Z" style="fill:#000000;fill-opacity:1;fill-rule:nonzero;stroke:none" id="path1702"/>
  </g>
  <g id="g1704" transform="matrix(1.3333330154418945, 0, 0, -1.3333330154418945, 2726.173214888346, 620.5247834267175)">
    <path d="m 0,0 v 1.944 l -0.647,-1.8 0.072,-1.584 z" style="fill:#000000;fill-opacity:1;fill-rule:nonzero;stroke:none" id="path1706"/>
  </g>
  <g id="g1708" transform="matrix(1.3333330154418945, 0, 0, -1.3333330154418945, 2726.173214888346, 625.6133238801812)">
    <path d="M 0,0 0.864,-1.224 0.648,0.288 -0.359,1.44 -0.575,1.224 Z" style="fill:#000000;fill-opacity:1;fill-rule:nonzero;stroke:none" id="path1710"/>
  </g>
  <g id="g1712" transform="matrix(1.3333330154418945, 0, 0, -1.3333330154418945, 2727.4219125073, 624.1732200568622)">
    <path d="M 0,0 1.584,-0.36 0.216,0.504 -1.152,0.576 -1.296,0.216 Z" style="fill:#000000;fill-opacity:1;fill-rule:nonzero;stroke:none" id="path1714"/>
  </g>
  <g id="g1716" transform="matrix(1.3333330154418945, 0, 0, -1.3333330154418945, 2725.4062879878625, 622.3490831219788)">
    <path d="M 0,0 0.432,-0.072 0.647,-0.792 0.432,-1.224 0,-1.512 l -0.577,0.288 -0.071,0.432 0.071,0.72 z" style="fill:#ffc0c0;fill-opacity:1;fill-rule:nonzero;stroke:none" id="path1718"/>
  </g>
  <g id="g1720" transform="matrix(1.3333330154418945, 0, 0, -1.3333330154418945, 2638.333392080997, 740.1412913662462)">
    <path d="M 0,0 -0.144,0.072 -0.647,0.36 -1.224,0.504 -1.872,0.36 -2.447,0 -2.736,-1.008 -2.232,-2.16 -1.655,-2.376 h 0.504 0.576 l 0.504,0.36 0.359,0.504 0.072,0.504 0.073,0.072 0.143,-0.072 H 0.721 V -1.8 l 0.431,-0.576 0.432,-0.432 0.648,-0.072 0.504,0.072 0.504,0.432 0.432,1.08 -0.432,1.008 -0.792,0.36 H 1.584 1.513 L 1.584,0.216 V 0.36 L 2.232,0.504 2.736,0.792 3.024,2.016 2.521,2.952 2.088,3.312 1.513,3.384 0.937,3.24 0.36,2.88 -0.071,1.8 0.433,0.792 0.576,0.72 -0.071,0.864 -1.151,1.728 -2.232,2.88 -2.736,3.744 -3.384,3.672 -3.6,2.88 -2.664,2.304 -1.44,1.512 -0.36,0.576 Z" style="fill:#000000;fill-opacity:1;fill-rule:nonzero;stroke:none" id="path1722"/>
  </g>
  <g id="g1724" transform="matrix(1.3333330154418945, 0, 0, -1.3333330154418945, 2641.3099538713286, 743.3092593609435)">
    <path d="M 0,0 -0.72,0.216 -1.009,1.008 -0.72,1.656 0,2.016 0.72,1.656 1.008,1.008 0.72,0.216 Z" style="fill:#ffff80;fill-opacity:1;fill-rule:nonzero;stroke:none" id="path1726"/>
  </g>
  <g id="g1728" transform="matrix(1.3333330154418945, 0, 0, -1.3333330154418945, 2640.4453707441285, 739.0853020346804)">
    <path d="M 0,0 -0.72,0.288 -1.008,1.008 -0.72,1.872 0,2.088 0.648,1.872 0.937,1.008 0.648,0.288 Z" style="fill:#ffff80;fill-opacity:1;fill-rule:nonzero;stroke:none" id="path1730"/>
  </g>
  <g id="g1732" transform="matrix(1.3333330154418945, 0, 0, -1.3333330154418945, 2636.701882053312, 742.8294417670076)">
    <path d="M 0,0 -0.648,0.216 -1.009,1.008 -0.648,1.729 0,2.016 0.72,1.729 1.008,1.008 0.72,0.216 Z" style="fill:#ffff80;fill-opacity:1;fill-rule:nonzero;stroke:none" id="path1734"/>
  </g>
  <g id="g1736" transform="matrix(1.3333330154418945, 0, 0, -1.3333330154418945, 2642.653703550954, 739.0853020346804)">
    <path d="m 0,0 -1.8,-0.576 h 1.944 l 1.224,0.504 z" style="fill:#000000;fill-opacity:1;fill-rule:nonzero;stroke:none" id="path1738"/>
  </g>
  <g id="g1740" transform="matrix(1.3333330154418945, 0, 0, -1.3333330154418945, 2642.653703550954, 739.0853020346804)">
    <path d="m 0,0 -1.8,-0.576 h 1.944 l 1.224,0.504 z" style="fill:#000000;fill-opacity:1;fill-rule:nonzero;stroke:none" id="path1742"/>
  </g>
  <g id="g1744" transform="matrix(1.3333330154418945, 0, 0, -1.3333330154418945, 2638.1419858766317, 743.0209293515618)">
    <path d="M 0,0 V -1.8 L 0.72,0 v 1.296 z" style="fill:#000000;fill-opacity:1;fill-rule:nonzero;stroke:none" id="path1746"/>
  </g>
  <g id="g1748" transform="matrix(1.3333330154418945, 0, 0, -1.3333330154418945, 2638.333392080997, 737.9328771792317)">
    <path d="m 0,0 -0.72,1.296 0.145,-1.44 0.863,-1.152 0.288,0.144 z" style="fill:#000000;fill-opacity:1;fill-rule:nonzero;stroke:none" id="path1750"/>
  </g>
  <g id="g1752" transform="matrix(1.3333330154418945, 0, 0, -1.3333330154418945, 2636.7982361970066, 739.2772779003681)">
    <path d="m 0,0 -1.368,0.216 1.296,-0.792 1.296,-0.072 0.143,0.36 z" style="fill:#000000;fill-opacity:1;fill-rule:nonzero;stroke:none" id="path1754"/>
  </g>
  <g id="g1756" transform="matrix(1.3333330154418945, 0, 0, -1.3333330154418945, 2639.101621064503, 741.1009265541179)">
    <path d="M 0,0 -0.504,0.216 -0.647,0.72 -0.504,1.224 0,1.512 0.576,1.224 0.647,0.72 0.576,0.216 Z" style="fill:#ffc0c0;fill-opacity:1;fill-rule:nonzero;stroke:none" id="path1758"/>
  </g>
</svg>