<?xml version="1.0" encoding="utf-8"?>
<svg viewBox="1331.2942 532.6849 209.2799 296.8319" xmlns="http://www.w3.org/2000/svg">
  <g id="g1820" transform="matrix(1.3333330154418945, 0, 0, -1.3333330154418945, 1339.2622499808497, 532.6849606193683)">
    <path d="m 0,0 h 145.008 l 2.304,-0.648 1.944,-1.872 1.224,-2.664 0.504,-3.384 v -205.56 l -0.504,-3.312 -1.224,-2.664 -1.944,-1.872 -2.304,-0.648 H 0 l -2.376,0.648 -1.872,1.872 -1.296,2.664 -0.432,3.312 v 205.56 l 0.432,3.384 1.296,2.664 1.872,1.872 z" style="fill:#000000;fill-opacity:1;fill-rule:nonzero;stroke:none" id="path1822"/>
  </g>
  <g id="g1824" transform="matrix(1.3333330154418945, 0, 0, -1.3333330154418945, 1342.2379979692926, 537.3892238207009)">
    <path d="m 0,0 h 140.472 l 2.304,-0.576 1.872,-1.8 1.296,-2.592 0.432,-3.24 v -199.224 l -0.432,-3.168 -1.296,-2.664 -1.872,-1.728 -2.304,-0.648 H 0 l -2.232,0.648 -1.872,1.728 -1.224,2.664 -0.432,3.168 V -8.208 l 0.432,3.24 1.224,2.592 1.872,1.8 z" style="fill:#ffffff;fill-opacity:1;fill-rule:nonzero;stroke:none" id="path1826"/>
  </g>
  <g id="g1828" transform="matrix(1.3333330154418945, 0, 0, -1.3333330154418945, 1352.317992310826, 595.7572112067681)">
    <path d="M 0,0 0.144,-0.144 V -0.288 L 0.36,-1.584 1.008,-2.592 2.016,-3.24 3.312,-3.528 4.536,-3.24 5.688,-2.592 6.336,-1.584 6.552,-0.288 6.336,1.008 5.688,2.016 4.536,2.664 3.312,2.952 2.736,2.88 2.16,2.664 1.656,2.448 1.152,2.16 H 0.864 L 0.72,2.304 0.648,2.592 1.8,3.816 2.232,5.4 2.016,6.624 1.296,7.704 0.36,8.352 -0.864,8.64 -2.16,8.352 -3.24,7.704 -3.888,6.624 -4.104,5.4 -4.032,4.464 -3.672,3.6 -3.168,2.952 -2.304,2.52 -2.52,2.16 H -2.664 L -2.88,2.016 -3.384,2.376 -3.96,2.664 -4.464,2.88 -5.112,2.952 -6.408,2.664 -7.416,2.016 l -0.72,-1.008 -0.288,-1.296 0.288,-1.296 0.72,-1.008 1.008,-0.648 1.296,-0.288 1.224,0.288 1.008,0.648 0.648,1.008 0.216,1.296 V -0.144 0 l 0.648,-2.088 -0.936,-3.456 h 2.736 l -0.936,3.456 z m 29.52,7.704 0.072,-0.288 v -0.36 l 0.648,-3.168 1.8,-2.52 2.448,-1.728 3.168,-0.72 3.024,0.72 2.664,1.728 1.728,2.52 0.576,3.168 -0.576,3.096 -1.728,2.52 -2.664,1.728 -3.024,0.576 -1.512,-0.144 -1.368,-0.36 -1.368,-0.648 -1.08,-0.864 -0.648,0.144 -0.504,0.504 -0.144,0.576 1.656,1.296 1.296,1.656 0.792,1.872 0.216,2.016 -0.576,3.096 -1.728,2.664 -2.52,1.728 -3.168,0.576 -3.024,-0.576 -2.592,-1.728 -1.8,-2.664 -0.576,-3.096 0.36,-2.232 0.864,-2.016 1.44,-1.656 1.872,-1.152 -0.36,-0.792 -0.432,-0.216 -0.576,-0.144 -1.224,0.864 -1.368,0.72 -1.44,0.432 -1.656,0.144 -3.096,-0.576 -2.52,-1.728 -1.8,-2.52 -0.576,-3.096 0.576,-3.168 1.8,-2.52 2.52,-1.728 3.096,-0.72 3.096,0.72 2.592,1.728 1.656,2.52 0.648,3.168 v 0.36 0.288 l 1.224,-1.584 0.288,-3.6 -0.72,-4.464 -1.728,-3.96 h 6.984 l -1.728,3.96 -0.648,4.464 0.216,3.6 z m 70.92,0 0.072,-0.288 v -0.36 l 0.648,-3.168 1.728,-2.52 2.52,-1.728 3.168,-0.72 3.024,0.72 2.664,1.728 1.728,2.52 0.576,3.168 -0.576,3.096 -1.728,2.52 -2.664,1.728 -3.024,0.576 -1.512,-0.144 -1.368,-0.36 -1.368,-0.648 -1.152,-0.864 -0.648,0.144 -0.432,0.504 -0.216,0.576 1.728,1.296 1.224,1.656 0.864,1.872 0.216,2.016 -0.576,3.096 -1.728,2.664 -2.52,1.728 -3.096,0.576 -3.168,-0.576 -2.592,-1.728 -1.728,-2.664 -0.576,-3.096 0.36,-2.232 0.792,-2.016 1.512,-1.656 1.8,-1.152 -0.288,-0.792 -0.432,-0.216 -0.576,-0.144 -1.224,0.864 -1.368,0.72 -1.512,0.432 -1.584,0.144 -3.096,-0.576 -2.52,-1.728 -1.8,-2.52 -0.648,-3.096 0.648,-3.168 1.8,-2.52 2.52,-1.728 3.096,-0.72 3.096,0.72 2.592,1.728 1.656,2.52 0.72,3.168 v 0.36 0.288 l 1.152,-1.584 0.288,-3.6 -0.72,-4.464 -1.8,-3.96 h 6.984 l -1.656,3.96 -0.648,4.464 0.216,3.6 z m -75.816,-139.752 -0.144,0.432 v 0.432 l -0.648,3.096 -1.656,2.592 -2.592,1.728 -3.096,0.648 -3.096,-0.648 -2.52,-1.728 -1.8,-2.592 -0.576,-3.096 0.576,-3.168 1.8,-2.592 2.52,-1.8 3.096,-0.576 1.512,0.144 1.44,0.432 1.296,0.648 1.152,0.864 0.648,-0.216 0.504,-0.432 0.072,-0.576 -1.656,-1.224 -1.224,-1.728 -0.864,-1.8 -0.288,-2.16 0.648,-3.096 1.8,-2.52 2.448,-1.8 3.24,-0.576 3.096,0.576 2.592,1.8 1.728,2.52 0.648,3.096 -0.36,2.304 -0.936,2.016 -1.44,1.656 -1.8,1.152 0.288,0.792 0.504,0.216 0.504,0.144 1.296,-0.864 1.296,-0.792 1.512,-0.432 1.584,-0.144 3.096,0.576 2.664,1.8 1.656,2.592 0.648,3.168 -0.648,3.096 -1.656,2.592 -2.664,1.728 -3.096,0.648 -3.096,-0.648 -2.592,-1.728 -1.656,-2.592 -0.72,-3.096 v -0.432 -0.432 l -1.152,1.656 -0.216,3.744 0.72,4.464 1.728,3.96 h -7.128 l 1.728,-3.96 0.792,-4.536 -0.288,-3.672 z m 70.92,0 -0.072,0.432 v 0.432 l -0.72,3.096 -1.656,2.592 -2.592,1.728 -3.096,0.648 -3.096,-0.648 -2.52,-1.728 -1.8,-2.592 -0.648,-3.096 0.648,-3.168 1.8,-2.592 2.52,-1.8 3.096,-0.576 1.512,0.144 1.44,0.432 1.224,0.648 1.152,0.864 0.648,-0.216 0.504,-0.432 0.144,-0.576 -1.656,-1.224 -1.296,-1.728 -0.792,-1.8 -0.288,-2.16 0.576,-3.096 1.8,-2.52 2.592,-1.8 3.168,-0.576 3.096,0.576 2.592,1.8 1.728,2.52 0.576,3.096 -0.288,2.304 -0.936,2.016 -1.44,1.656 -1.8,1.152 0.216,0.792 0.504,0.216 0.576,0.144 1.224,-0.864 1.44,-0.792 1.44,-0.432 1.512,-0.144 3.168,0.576 2.592,1.8 1.728,2.592 0.576,3.168 -0.576,3.096 -1.728,2.592 -2.592,1.728 -3.168,0.648 -3.024,-0.648 -2.592,-1.728 -1.728,-2.592 -0.648,-3.096 v -0.432 -0.432 l -1.152,1.656 -0.288,3.744 0.792,4.464 1.728,3.96 h -7.128 l 1.728,-3.96 0.72,-4.536 -0.216,-3.672 z m -70.92,75.456 -0.144,0.36 v 0.36 l -0.648,3.168 -1.656,2.52 -2.592,1.728 -3.096,0.648 -3.096,-0.648 -2.52,-1.728 -1.8,-2.52 -0.576,-3.168 0.576,-3.168 1.8,-2.592 2.52,-1.728 3.096,-0.576 1.512,0.144 1.44,0.36 1.296,0.648 1.152,0.936 0.648,-0.288 0.504,-0.36 0.072,-0.648 -1.656,-1.224 -1.224,-1.656 -0.864,-1.872 -0.288,-2.088 0.648,-3.096 1.8,-2.52 2.448,-1.8 3.24,-0.648 3.096,0.648 2.592,1.8 1.728,2.52 0.648,3.096 -0.36,2.304 -0.936,1.944 -1.44,1.656 -1.8,1.224 0.288,0.72 0.504,0.216 0.504,0.144 1.296,-0.864 1.296,-0.72 1.512,-0.432 1.584,-0.144 3.096,0.576 2.664,1.728 1.656,2.592 0.648,3.168 -0.648,3.168 -1.656,2.52 -2.664,1.728 -3.096,0.648 -3.096,-0.648 -2.592,-1.728 -1.656,-2.52 -0.72,-3.168 v -0.36 -0.36 l -1.152,1.512 -0.216,3.744 0.72,4.392 1.728,4.032 h -7.128 l 1.728,-4.032 0.792,-4.392 -0.288,-3.744 z m 35.424,-35.496 -0.072,0.36 v 0.432 l -0.648,3.168 -1.656,2.592 -2.592,1.656 -3.096,0.648 -3.096,-0.648 -2.592,-1.656 -1.728,-2.592 -0.576,-3.168 0.576,-3.168 1.728,-2.52 2.592,-1.8 3.096,-0.648 1.512,0.216 1.44,0.36 1.224,0.72 1.152,0.864 0.648,-0.216 0.504,-0.504 0.072,-0.576 -1.656,-1.296 -1.224,-1.656 -0.792,-1.8 -0.288,-2.088 0.576,-3.168 1.8,-2.52 2.592,-1.8 3.096,-0.576 3.096,0.576 2.592,1.8 1.728,2.52 0.576,3.168 -0.288,2.232 -0.864,2.016 -1.44,1.656 -1.872,1.224 0.288,0.72 0.432,0.216 0.648,0.144 1.224,-0.864 1.368,-0.72 1.44,-0.432 1.584,-0.216 3.168,0.648 2.52,1.8 1.8,2.52 0.576,3.168 -0.576,3.168 -1.8,2.592 -2.52,1.656 -3.168,0.648 -3.096,-0.648 -2.52,-1.656 -1.728,-2.592 -0.72,-3.168 v -0.432 -0.36 l -1.152,1.656 -0.288,3.672 0.792,4.464 1.728,3.96 H 59.04 l 1.8,-3.96 0.72,-4.536 -0.216,-3.6 z m 35.496,35.496 -0.072,0.36 v 0.36 l -0.72,3.168 -1.656,2.52 -2.592,1.728 -3.096,0.648 -3.096,-0.648 -2.52,-1.728 -1.8,-2.52 -0.648,-3.168 0.648,-3.168 1.8,-2.592 2.52,-1.728 3.096,-0.576 1.512,0.144 1.44,0.36 1.224,0.648 1.152,0.936 0.648,-0.288 0.504,-0.36 0.144,-0.648 -1.656,-1.224 -1.296,-1.656 -0.792,-1.872 -0.288,-2.088 0.576,-3.096 1.8,-2.52 2.592,-1.8 3.168,-0.648 3.096,0.648 2.592,1.8 1.728,2.52 0.576,3.096 -0.288,2.304 -0.936,1.944 -1.44,1.656 -1.8,1.224 0.216,0.72 0.504,0.216 0.576,0.144 1.224,-0.864 1.44,-0.72 1.44,-0.432 1.512,-0.144 3.168,0.576 2.592,1.728 1.728,2.592 0.576,3.168 -0.576,3.168 -1.728,2.52 -2.592,1.728 -3.168,0.648 -3.024,-0.648 -2.592,-1.728 -1.728,-2.52 -0.648,-3.168 v -0.36 -0.36 l -1.152,1.512 -0.288,3.744 0.792,4.392 1.728,4.032 h -7.128 l 1.728,-4.032 0.72,-4.392 -0.216,-3.744 z m 33.768,-87.984 -0.504,-2.52 -0.648,-2.592 -0.432,-1.152 -0.288,-1.296 -0.504,-1.152 -0.504,-1.152 -0.936,-2.088 -0.72,-1.656 -0.432,-0.864 -0.504,-0.936 -0.648,-1.296 -0.792,-1.512 h 9.288 v -2.304 h -11.592 v 2.088 l 0.144,0.36 0.432,0.648 0.432,0.864 0.648,1.152 0.648,1.152 0.648,1.152 0.576,1.08 0.504,1.08 0.432,1.008 0.36,1.152 0.504,1.224 0.36,1.368 0.72,2.88 0.432,3.312 z m -3.024,15.84 v 0.144 0.216 l 0.288,1.296 0.72,0.936 0.936,0.648 1.296,0.36 1.296,-0.36 1.008,-0.648 0.72,-0.936 0.288,-1.296 -0.288,-1.368 -0.72,-1.008 -1.008,-0.648 -1.296,-0.288 h -0.648 l -0.504,0.144 -0.432,0.36 -0.504,0.288 h -0.36 l -0.144,-0.216 v -0.288 l 1.152,-1.08 0.36,-1.656 -0.216,-1.296 -0.648,-1.008 -1.008,-0.72 -1.296,-0.288 -1.224,0.288 -1.08,0.72 -0.648,1.008 -0.288,1.296 0.144,0.936 0.36,0.792 0.576,0.648 0.792,0.504 -0.144,0.36 h -0.144 l -0.288,0.072 -0.504,-0.36 -0.576,-0.216 -0.504,-0.288 h -0.72 l -1.296,0.288 -1.008,0.648 -0.648,1.008 -0.288,1.368 0.288,1.296 0.648,0.936 1.008,0.648 1.296,0.36 1.296,-0.36 1.008,-0.648 0.648,-0.936 0.288,-1.296 v -0.216 -0.144 l 0.648,2.088 -1.008,3.456 h 2.736 l -0.936,-3.456 z M -2.664,14.112 l 0.504,2.52 0.648,2.52 0.36,1.152 0.504,1.224 0.432,1.224 0.504,1.152 0.864,2.088 0.72,1.656 0.432,0.792 0.504,1.08 0.72,1.152 0.648,1.512 H -4.968 V 34.56 H 6.552 V 32.472 L 6.336,32.112 5.976,31.464 5.544,30.6 4.896,29.52 4.248,28.296 3.6,27.144 3.024,26.064 2.52,24.984 2.16,23.904 1.728,22.752 1.296,21.528 0.864,20.232 0.216,17.28 -0.36,14.112 Z" style="fill:#000000;fill-opacity:1;fill-rule:nonzero;stroke:none" id="path1830"/>
  </g>
</svg>