<?xml version="1.0" encoding="utf-8"?>
<svg viewBox="1331.2942 1212.0768 209.2799 296.8319" xmlns="http://www.w3.org/2000/svg">
  <g id="g3936" transform="matrix(1.3333330154418945, 0, 0, -1.3333330154418945, 1339.2622499808497, 1212.076766413138)">
    <path d="m 0,0 h 145.008 l 2.304,-0.648 1.944,-1.872 1.224,-2.665 0.504,-3.383 v -205.56 l -0.504,-3.24 -1.224,-2.736 -1.944,-1.873 -2.304,-0.647 H 0 l -2.376,0.647 -1.872,1.873 -1.296,2.736 -0.432,3.24 v 205.56 l 0.432,3.383 1.296,2.665 1.872,1.872 z" style="fill:#000000;fill-opacity:1;fill-rule:nonzero;stroke:none" id="path3938"/>
  </g>
  <g id="g3940" transform="matrix(1.3333330154418945, 0, 0, -1.3333330154418945, 1342.2379979692926, 1216.7811923748486)">
    <path d="m 0,0 h 140.472 l 2.304,-0.575 1.872,-1.801 1.296,-2.592 0.432,-3.24 v -199.224 l -0.432,-3.168 -1.296,-2.591 -1.872,-1.8 -2.304,-0.649 H 0 l -2.232,0.649 -1.872,1.8 -1.224,2.591 -0.432,3.168 V -8.208 l 0.432,3.24 1.224,2.592 1.872,1.801 z" style="fill:#ffffff;fill-opacity:1;fill-rule:nonzero;stroke:none" id="path3942"/>
  </g>
  <g id="g3944" transform="matrix(1.3333330154418945, 0, 0, -1.3333330154418945, 1392.8297827822685, 1288.9738428060045)">
    <path d="m 0,0 h -9.648 l 2.52,4.896 1.08,4.968 -0.072,4.536 -1.368,3.456 h -0.864 l 1.008,-2.015 0.288,-2.233 -0.576,-2.519 -1.512,-1.944 -2.088,-1.296 -2.376,-0.504 -2.304,0.504 -1.944,1.439 -1.224,2.161 -0.504,2.52 0.576,3.095 1.656,3.385 2.304,3.384 2.592,3.312 2.736,3.311 2.448,3.097 1.872,2.735 1.152,2.521 0.864,-2.449 1.872,-2.736 2.304,-3.096 2.592,-3.311 2.52,-3.313 2.088,-3.455 1.584,-3.241 0.576,-3.239 L 9.648,11.449 8.352,9.288 6.408,7.849 4.104,7.345 1.656,7.849 -0.36,9.145 l -1.512,1.944 -0.576,2.519 0.36,2.233 0.936,2.015 H -2.016 L -3.384,14.4 -3.6,9.864 -2.376,4.896 Z m 75.384,0 h -9.72 l 2.592,4.896 1.08,4.968 -0.144,4.536 -1.368,3.456 H 66.96 l 0.936,-2.015 0.36,-2.233 L 67.752,11.089 66.24,9.145 64.152,7.849 61.704,7.345 59.4,7.849 l -1.872,1.439 -1.296,2.161 -0.504,2.52 0.648,3.095 1.584,3.385 2.232,3.384 2.664,3.312 2.736,3.311 2.448,3.097 2.016,2.735 0.936,2.521 1.008,-2.449 1.8,-2.736 2.376,-3.096 2.52,-3.311 2.52,-3.313 2.16,-3.455 1.512,-3.241 0.576,-3.239 L 84.96,11.449 83.736,9.288 81.72,7.849 79.416,7.345 77.04,7.849 l -2.088,1.296 -1.512,1.944 -0.576,2.519 0.36,2.233 1.008,2.015 H 73.296 L 71.928,14.4 71.784,9.864 72.936,4.896 Z M 0,-32.184 h -9.648 l 2.52,-4.823 1.08,-5.04 -0.072,-4.537 -1.368,-3.383 -0.864,-0.073 1.008,2.017 0.288,2.303 -0.576,2.449 -1.512,2.016 -2.088,1.296 -2.376,0.359 -2.304,-0.504 -1.944,-1.368 -1.224,-2.088 -0.504,-2.591 0.576,-3.096 1.656,-3.313 2.304,-3.383 2.592,-3.384 2.736,-3.312 2.448,-3.096 1.872,-2.809 1.152,-2.447 0.864,2.447 1.872,2.736 2.304,3.169 2.592,3.24 2.52,3.456 2.088,3.383 1.584,3.241 0.576,3.168 -0.504,2.591 -1.296,2.088 -1.944,1.368 -2.304,0.504 -2.448,-0.359 -2.016,-1.296 -1.512,-2.016 -0.576,-2.449 0.36,-2.303 0.936,-2.017 -0.864,0.073 -1.368,3.383 -0.216,4.537 1.224,5.04 z m 35.496,-35.423 h -9.72 l 2.592,-4.824 1.08,-5.041 -0.072,-4.535 -1.368,-3.385 -0.936,-0.071 1.008,2.016 0.36,2.303 -0.576,2.449 -1.512,2.015 -2.088,1.225 -2.376,0.504 -2.304,-0.504 -1.872,-1.441 -1.368,-2.159 -0.432,-2.52 0.576,-3.097 1.584,-3.383 2.304,-3.312 2.664,-3.384 2.736,-3.312 2.376,-3.096 1.944,-2.881 1.08,-2.447 0.936,2.447 1.8,2.736 2.304,3.096 2.592,3.385 2.52,3.384 2.088,3.384 1.584,3.312 0.576,3.168 -0.504,2.52 -1.296,2.159 -1.944,1.441 -2.304,0.504 -2.376,-0.504 -2.16,-1.225 -1.44,-2.015 -0.576,-2.449 0.288,-2.303 1.008,-2.016 -0.864,0.071 -1.296,3.385 -0.216,4.535 1.152,5.041 z m 39.888,35.423 h -9.72 l 2.592,-4.823 1.08,-5.04 -0.144,-4.537 -1.368,-3.383 -0.864,-0.073 0.936,2.017 0.36,2.303 -0.504,2.449 -1.512,2.016 -2.088,1.296 -2.448,0.359 -2.304,-0.504 -1.872,-1.368 -1.296,-2.088 -0.504,-2.591 0.648,-3.096 1.584,-3.313 2.232,-3.383 2.664,-3.384 2.736,-3.312 2.448,-3.096 2.016,-2.809 0.936,-2.447 1.008,2.447 1.8,2.736 2.376,3.169 2.52,3.24 2.52,3.456 2.16,3.383 1.512,3.241 0.576,3.168 -0.504,2.591 -1.224,2.088 -2.016,1.368 -2.304,0.504 -2.376,-0.359 -2.088,-1.296 -1.512,-2.016 -0.576,-2.449 0.36,-2.303 1.008,-2.017 -0.936,0.073 -1.368,3.383 -0.144,4.537 1.152,5.04 z M 0,-107.495 h -9.648 l 2.52,-4.824 1.08,-5.04 -0.072,-4.537 -1.368,-3.456 h -0.864 l 1.008,1.945 0.288,2.303 -0.576,2.449 -1.512,2.016 -2.088,1.296 -2.376,0.504 -2.304,-0.504 -1.944,-1.512 -1.224,-2.088 -0.504,-2.52 0.576,-3.097 1.656,-3.383 2.304,-3.384 2.592,-3.312 2.736,-3.312 2.448,-3.168 1.872,-2.808 1.152,-2.449 0.864,2.449 1.872,2.808 2.304,3.023 2.592,3.384 2.52,3.385 2.088,3.384 1.584,3.312 0.576,3.168 -0.504,2.52 -1.296,2.088 -1.944,1.512 -2.304,0.504 -2.448,-0.504 -2.016,-1.296 -1.512,-2.016 -0.576,-2.449 0.36,-2.303 0.936,-1.945 h -0.864 l -1.368,3.456 -0.216,4.537 1.224,5.04 z m 75.384,0 h -9.72 l 2.592,-4.824 1.08,-5.04 -0.144,-4.537 -1.368,-3.456 H 66.96 l 0.936,1.945 0.36,2.303 -0.504,2.449 -1.512,2.016 -2.088,1.296 -2.448,0.504 -2.304,-0.504 -1.872,-1.512 -1.296,-2.088 -0.504,-2.52 0.648,-3.097 1.584,-3.383 2.232,-3.384 2.664,-3.312 2.736,-3.312 2.448,-3.168 2.016,-2.808 0.936,-2.449 1.008,2.449 1.8,2.808 2.376,3.023 2.52,3.384 2.52,3.385 2.16,3.384 1.512,3.312 0.576,3.168 -0.504,2.52 -1.224,2.088 -2.016,1.512 -2.304,0.504 -2.376,-0.504 -2.088,-1.296 -1.512,-2.016 -0.576,-2.449 0.36,-2.303 1.008,-1.945 h -0.936 l -1.368,3.456 -0.144,4.537 1.152,5.04 z M -33.048,24.48 l 0.504,2.52 0.648,2.521 0.36,1.224 0.504,1.151 0.432,1.224 0.504,1.152 0.864,2.088 0.72,1.657 0.432,0.792 0.504,1.08 0.72,1.152 0.648,1.512 h -9.144 v 2.376 h 11.52 v -2.088 l -0.216,-0.361 -0.36,-0.576 -0.432,-0.935 -0.648,-1.08 -0.648,-1.224 -0.648,-1.152 -0.576,-1.08 -0.504,-1.08 -0.36,-1.008 -0.432,-1.153 -0.432,-1.296 -0.432,-1.295 -0.648,-2.953 -0.576,-3.168 z M 93.744,-109.439 h 4.968 l -1.296,-2.52 -0.576,-2.52 0.072,-2.304 0.648,-1.656 h 0.432 l -0.432,0.935 -0.216,1.152 0.36,1.297 0.72,0.936 1.08,0.647 1.152,0.217 1.152,-0.217 1.008,-0.719 0.648,-1.08 0.216,-1.224 -1.08,-3.313 -2.52,-3.383 -2.664,-3.313 -1.512,-2.592 -1.368,2.592 -2.52,3.241 -2.304,3.455 -1.08,3.313 0.216,1.224 0.648,1.08 1.008,0.719 1.152,0.217 1.224,-0.217 1.08,-0.647 0.72,-0.936 0.36,-1.297 -0.216,-1.152 -0.576,-0.935 h 0.432 l 0.72,1.656 0.144,2.304 -0.648,2.52 z m 5.184,-24.769 -0.504,-2.52 -0.648,-2.519 -0.432,-1.225 -0.288,-1.223 -0.504,-1.152 -0.504,-1.153 -0.936,-2.159 -0.72,-1.584 -0.432,-0.864 -0.504,-1.008 -0.648,-1.224 -0.792,-1.513 h 9.288 v -2.303 H 89.712 v 2.016 l 0.144,0.36 0.432,0.648 0.432,0.863 0.648,1.153 0.648,1.223 0.648,1.153 0.576,1.008 0.504,1.08 0.432,1.007 0.36,1.153 0.504,1.296 0.36,1.296 0.72,2.952 0.432,3.239 z M -28.008,1.44 h -4.896 l 1.296,2.449 0.576,2.52 v 2.304 l -0.72,1.727 h -0.504 l 0.504,-1.007 0.216,-1.153 -0.36,-1.223 -0.72,-1.008 L -33.696,5.4 -34.848,5.185 -36,5.4 l -1.008,0.792 -0.648,1.008 -0.216,1.296 1.08,3.313 2.52,3.383 2.592,3.168 1.512,2.593 1.368,-2.593 2.52,-3.168 2.304,-3.383 1.08,-3.313 L -23.112,7.2 -23.832,6.192 -24.84,5.4 -25.992,5.185 -27.144,5.4 l -1.08,0.649 -0.792,1.008 -0.288,1.223 0.216,1.153 0.504,1.007 h -0.432 l -0.72,-1.727 -0.072,-2.304 0.576,-2.52 z" style="fill:#000000;fill-opacity:1;fill-rule:nonzero;stroke:none" id="path3946"/>
  </g>
</svg>