<?xml version="1.0" encoding="utf-8"?>
<svg viewBox="1331.2942 190.5412 209.2799 296.8319" xmlns="http://www.w3.org/2000/svg">
  <g id="g72" transform="matrix(1.3333330154418945, 0, 0, -1.3333330154418945, 1339.2622499808497, 190.54116198449262)">
    <path d="m 0,0 h 145.008 l 2.304,-0.648 1.944,-1.872 1.224,-2.736 0.504,-3.312 v -205.56 l -0.504,-3.312 -1.224,-2.664 -1.944,-1.872 -2.304,-0.648 H 0 l -2.376,0.648 -1.872,1.872 -1.296,2.664 -0.432,3.312 v 205.56 l 0.432,3.312 1.296,2.736 1.872,1.872 z" style="fill:#000000;fill-opacity:1;fill-rule:nonzero;stroke:none" id="path74"/>
  </g>
  <g id="g76" transform="matrix(1.3333330154418945, 0, 0, -1.3333330154418945, 1342.2379979692926, 195.2449369046917)">
    <path d="m 0,0 h 140.472 l 2.304,-0.576 1.872,-1.8 1.296,-2.592 0.432,-3.312 v -199.152 l -0.432,-3.168 -1.296,-2.664 -1.872,-1.728 -2.304,-0.648 H 0 l -2.232,0.648 -1.872,1.728 -1.224,2.664 -0.432,3.168 V -8.28 l 0.432,3.312 1.224,2.592 1.872,1.8 z" style="fill:#ffffff;fill-opacity:1;fill-rule:nonzero;stroke:none" id="path78"/>
  </g>
  <g id="g80" transform="matrix(1.3333330154418945, 0, 0, -1.3333330154418945, 1524.7340482088334, 446.38159577903207)">
    <path d="m 0,0 -0.504,-2.52 -0.648,-2.592 -0.432,-1.152 -0.288,-1.296 -0.504,-1.152 -0.504,-1.152 -0.936,-2.088 -0.72,-1.655 -0.432,-0.865 -0.504,-1.008 -0.648,-1.224 -0.792,-1.512 H 2.376 V -20.52 H -9.216 v 2.088 l 0.144,0.36 0.432,0.648 0.432,0.864 0.648,1.08 0.648,1.224 0.648,1.152 0.576,1.081 0.504,1.079 0.432,1.008 0.36,1.152 0.504,1.224 0.36,1.369 0.72,2.879 L -2.376,0 Z m -91.152,153.72 -2.016,2.304 -1.872,2.232 -1.872,2.305 -1.728,2.376 -1.656,2.376 -1.584,2.375 -1.512,2.376 -1.44,2.376 -1.296,-2.232 -1.512,-2.376 -1.584,-2.376 -1.728,-2.304 -1.728,-2.376 -1.944,-2.376 -1.944,-2.376 -2.088,-2.304 1.872,-2.232 1.8,-2.16 1.8,-2.304 1.728,-2.304 1.728,-2.304 1.656,-2.448 1.656,-2.592 1.584,-2.592 1.44,2.376 1.584,2.376 1.584,2.448 1.728,2.448 1.728,2.304 1.8,2.449 1.944,2.303 z m -31.392,-8.496 -5.976,8.208 -5.904,-8.208 5.904,-8.136 z M 2.736,12.888 -3.168,21.024 -9.144,12.888 -3.168,4.68 Z m -17.424,140.832 -2.016,2.304 -1.872,2.232 -1.872,2.305 -1.728,2.376 -1.728,2.376 -1.512,2.375 -1.512,2.376 -1.44,2.376 -1.368,-2.232 -1.44,-2.376 -1.584,-2.376 -1.728,-2.304 -1.728,-2.376 -1.944,-2.376 -2.016,-2.376 -2.016,-2.304 1.872,-2.232 1.8,-2.16 1.8,-2.304 1.656,-2.304 1.728,-2.304 1.656,-2.448 1.656,-2.592 1.656,-2.592 1.44,2.376 1.512,2.376 1.656,2.448 1.728,2.448 1.728,2.304 1.8,2.449 1.872,2.303 z m -76.464,-75.456 -2.016,2.232 -1.872,2.304 -1.872,2.304 -1.728,2.376 -1.656,2.304 -1.584,2.448 -1.512,2.376 -1.44,2.376 -1.296,-2.304 -1.512,-2.304 -1.584,-2.448 -1.728,-2.304 -1.728,-2.375 -1.944,-2.376 -1.944,-2.305 -2.088,-2.304 1.872,-2.232 1.8,-2.159 1.8,-2.233 1.728,-2.304 1.728,-2.376 1.656,-2.448 1.656,-2.52 1.584,-2.664 1.44,2.304 1.584,2.448 1.584,2.448 1.728,2.449 1.728,2.303 1.8,2.448 1.944,2.304 z m 76.464,0 -2.016,2.232 -1.872,2.304 -1.872,2.304 -1.728,2.376 -1.728,2.304 -1.512,2.448 -1.512,2.376 -1.44,2.376 -1.368,-2.304 -1.44,-2.304 -1.584,-2.448 -1.728,-2.304 -1.728,-2.375 -1.944,-2.376 -2.016,-2.305 -2.016,-2.304 1.872,-2.232 1.8,-2.159 1.8,-2.233 1.656,-2.304 1.728,-2.376 1.656,-2.448 1.656,-2.52 1.656,-2.664 1.44,2.304 1.512,2.448 1.656,2.448 1.728,2.449 1.728,2.303 1.8,2.448 1.872,2.304 z M -51.984,41.472 -54,43.776 l -1.872,2.304 -1.872,2.304 -1.728,2.304 -1.728,2.448 -1.584,2.376 -1.44,2.376 -1.44,2.376 -1.368,-2.232 -1.44,-2.376 -1.512,-2.376 -1.8,-2.303 -1.728,-2.449 -1.872,-2.376 -2.016,-2.304 -2.088,-2.376 1.872,-2.159 1.8,-2.161 1.8,-2.304 1.728,-2.376 1.728,-2.232 1.656,-2.52 1.656,-2.52 1.584,-2.664 1.44,2.448 1.512,2.376 1.656,2.376 1.728,2.449 1.728,2.447 1.8,2.376 1.872,2.305 z m -39.168,-37.368 -2.016,2.232 -1.872,2.304 -1.872,2.377 -1.728,2.303 -1.656,2.376 -1.584,2.376 -1.512,2.376 -1.44,2.376 -1.296,-2.304 -1.512,-2.304 -1.584,-2.376 -1.728,-2.304 -1.728,-2.376 -1.944,-2.376 -1.944,-2.376 -2.088,-2.304 1.872,-2.231 1.8,-2.161 1.8,-2.232 1.728,-2.376 1.728,-2.304 1.656,-2.447 1.656,-2.521 1.584,-2.664 1.44,2.376 1.584,2.376 1.584,2.448 1.728,2.448 1.728,2.376 1.8,2.376 1.944,2.305 z m 76.464,0 -2.016,2.232 -1.872,2.304 -1.872,2.377 -1.728,2.303 -1.728,2.376 -1.512,2.376 -1.512,2.376 -1.44,2.376 -1.368,-2.304 -1.44,-2.304 -1.584,-2.376 -1.728,-2.304 -1.728,-2.376 -1.944,-2.376 -2.016,-2.376 -2.016,-2.304 1.872,-2.231 1.8,-2.161 1.8,-2.232 1.656,-2.376 1.728,-2.304 1.656,-2.447 1.656,-2.521 1.656,-2.664 1.44,2.376 1.512,2.376 1.656,2.448 1.728,2.448 1.728,2.376 1.8,2.376 1.872,2.305 z m -117.288,154.584 0.504,2.52 0.648,2.52 0.36,1.152 0.504,1.224 0.432,1.224 0.504,1.152 0.864,2.088 0.72,1.656 0.432,0.793 0.504,1.007 0.72,1.225 0.648,1.511 h -9.144 v 2.376 h 11.52 v -2.088 l -0.216,-0.36 -0.36,-0.647 -0.432,-0.865 -0.648,-1.152 -0.648,-1.151 -0.648,-1.153 -0.576,-1.152 -0.504,-1.007 -0.36,-1.081 -0.432,-1.152 -0.432,-1.224 -0.432,-1.295 -0.648,-2.953 -0.576,-3.168 z" style="fill:#ff0000;fill-opacity:1;fill-rule:nonzero;stroke:none" id="path82"/>
  </g>
</svg>