<?xml version="1.0" encoding="utf-8"?>
<svg viewBox="1075.6464 190.5412 209.3759 296.8319" xmlns="http://www.w3.org/2000/svg">
  <g id="g60" transform="matrix(1.3333330154418948, 0, 0, -1.3333330154418948, 1083.6143617133214, 190.54116198449276)">
    <path d="m 0,0 h 145.008 l 2.304,-0.648 1.944,-1.872 1.296,-2.736 0.504,-3.312 v -205.56 l -0.504,-3.312 -1.296,-2.664 -1.944,-1.872 -2.304,-0.648 H 0 l -2.304,0.648 -1.945,1.872 -1.295,2.664 -0.432,3.312 v 205.56 l 0.432,3.312 1.295,2.736 1.945,1.872 z" style="fill:#000000;fill-opacity:1;fill-rule:nonzero;stroke:none" id="path62"/>
  </g>
  <g id="g64" transform="matrix(1.3333330154418948, 0, 0, -1.3333330154418948, 1086.6859755643247, 195.2449369046917)">
    <path d="m 0,0 h 140.4 l 2.304,-0.576 1.872,-1.8 1.296,-2.592 0.432,-3.312 v -199.152 l -0.432,-3.168 -1.296,-2.664 -1.872,-1.728 -2.304,-0.648 H 0 l -2.304,0.648 -1.8,1.728 -1.296,2.664 -0.36,3.168 V -8.28 l 0.36,3.312 1.296,2.592 1.8,1.8 z" style="fill:#ffffff;fill-opacity:1;fill-rule:nonzero;stroke:none" id="path66"/>
  </g>
  <g id="g68" transform="matrix(1.3333330154418948, 0, 0, -1.3333330154418948, 1097.629901991547, 242.18893612903412)">
    <path d="m 0,0 v -15.84 l -0.216,-0.216 -5.904,8.136 5.904,8.208 z m -5.904,15.192 0.216,2.663 0.432,2.233 0.576,1.944 0.72,1.44 0.936,1.08 1.008,0.864 1.08,0.504 L 0,25.992 V 23.4 l -0.864,-0.072 -0.792,-0.504 -0.648,-0.792 -0.432,-1.08 -0.576,-2.376 -0.216,-2.736 0.72,1.008 0.864,0.792 0.576,0.288 0.576,0.216 0.576,0.072 H 0 V 15.84 H -0.36 L -0.936,15.552 -1.512,15.264 -2.16,14.832 -3.024,13.392 -3.312,11.232 -3.24,10.583 -3.024,9.576 -2.664,8.712 -2.016,7.92 -1.656,7.632 -1.152,7.344 -0.648,7.128 -0.216,6.984 0,7.056 v -2.16 l -0.216,-0.072 -0.72,0.072 -0.72,0.144 -0.648,0.288 -0.72,0.432 -0.576,0.504 -0.648,0.648 -0.504,0.864 -0.36,0.936 -0.648,2.376 -0.216,2.952 0.072,0.648 z M 37.44,0.576 35.496,2.88 l -1.944,2.232 -1.8,2.304 -1.8,2.376 -1.656,2.376 -1.584,2.376 L 25.2,16.92 23.832,19.296 22.464,17.063 20.952,14.688 19.44,12.312 17.64,10.008 15.912,7.632 14.04,5.256 12.024,2.88 9.936,0.576 l 1.872,-2.232 1.8,-2.16 1.8,-2.304 1.728,-2.304 1.728,-2.305 1.656,-2.447 1.656,-2.592 1.656,-2.592 1.368,2.376 1.584,2.376 1.656,2.448 1.656,2.448 1.8,2.304 1.8,2.448 1.872,2.304 z m 76.464,0 -2.016,2.304 -1.872,2.232 -1.872,2.304 -1.728,2.376 -1.728,2.376 -1.512,2.376 -1.44,2.376 -1.512,2.376 L 98.928,17.063 97.416,14.688 95.832,12.312 94.104,10.008 92.376,7.632 90.432,5.256 88.488,2.88 86.4,0.576 l 1.872,-2.232 1.8,-2.16 1.8,-2.304 1.728,-2.304 1.728,-2.305 1.656,-2.447 1.656,-2.592 1.584,-2.592 1.512,2.376 1.512,2.376 1.584,2.448 1.728,2.448 1.728,2.304 1.8,2.448 1.944,2.304 z M 37.44,-74.88 l -1.944,2.232 -1.944,2.304 -1.8,2.304 -1.8,2.376 -1.656,2.304 -1.584,2.448 -1.512,2.376 -1.368,2.376 -1.368,-2.304 -1.512,-2.304 -1.512,-2.448 -1.8,-2.305 -1.728,-2.375 -1.872,-2.376 -2.016,-2.304 -2.088,-2.304 1.872,-2.232 1.8,-2.16 1.8,-2.232 1.728,-2.304 1.728,-2.376 1.656,-2.448 1.656,-2.52 1.656,-2.664 1.368,2.304 1.584,2.448 1.656,2.448 1.656,2.448 1.8,2.304 1.8,2.447 1.872,2.305 z m 76.464,0 -2.016,2.232 -1.872,2.304 -1.872,2.304 -1.728,2.376 -1.728,2.304 -1.512,2.448 -1.44,2.376 -1.512,2.376 -1.296,-2.304 -1.512,-2.304 -1.584,-2.448 -1.728,-2.305 -1.728,-2.375 -1.944,-2.376 -1.944,-2.304 -2.088,-2.304 1.872,-2.232 1.8,-2.16 1.8,-2.232 1.728,-2.304 1.728,-2.376 1.656,-2.448 1.656,-2.52 1.584,-2.664 1.512,2.304 1.512,2.448 1.584,2.448 1.728,2.448 1.728,2.304 1.8,2.447 1.944,2.305 z m -76.464,-74.16 -1.944,2.232 -1.944,2.304 -1.8,2.376 -1.8,2.304 -1.656,2.376 -1.584,2.376 -1.512,2.376 -1.368,2.376 -1.368,-2.305 -1.512,-2.303 -1.512,-2.376 -1.8,-2.304 -1.728,-2.376 -1.872,-2.376 -2.016,-2.376 -2.088,-2.304 1.872,-2.232 1.8,-2.16 1.8,-2.232 1.728,-2.376 1.728,-2.304 1.656,-2.448 1.656,-2.521 1.656,-2.663 1.368,2.376 1.584,2.376 1.656,2.448 1.656,2.448 1.8,2.376 1.8,2.376 1.872,2.304 z m 76.464,0 -2.016,2.232 -1.872,2.304 -1.872,2.376 -1.728,2.304 -1.728,2.376 -1.512,2.376 -1.44,2.376 -1.512,2.376 -1.296,-2.305 -1.512,-2.303 -1.584,-2.376 -1.728,-2.304 -1.728,-2.376 -1.944,-2.376 -1.944,-2.376 -2.088,-2.304 1.872,-2.232 1.8,-2.16 1.8,-2.232 1.728,-2.376 1.728,-2.304 1.656,-2.448 1.656,-2.521 1.584,-2.663 1.512,2.376 1.512,2.376 1.584,2.448 1.728,2.448 1.728,2.376 1.8,2.376 1.944,2.304 z M 0,-15.84 V 0 l 5.832,-7.92 z m 125.208,-155.305 v -2.591 h -0.216 -0.648 l -0.648,0.215 -0.648,0.217 -0.504,0.288 -0.504,0.36 -0.504,0.432 -0.432,0.576 -0.36,0.576 -0.432,1.512 -0.144,1.584 h 2.016 l 0.216,-1.441 0.504,-0.935 0.936,-0.576 1.224,-0.217 z m 0,18.721 v -2.305 l -0.648,-0.071 -0.72,-0.216 -0.648,-0.432 -0.36,-0.576 -0.72,-1.44 -0.216,-1.728 0.144,-1.08 0.288,-1.008 0.36,-0.936 0.648,-0.721 0.36,-0.287 0.36,-0.144 0.432,-0.144 0.504,-0.072 0.216,0.072 v -2.376 l -0.36,-0.072 -0.792,0.072 -0.72,0.144 -0.72,0.36 -0.648,0.36 -0.504,0.576 -0.504,0.576 -0.36,0.648 -0.36,0.792 -0.432,1.512 -0.144,1.584 0.144,1.728 0.432,1.584 0.36,0.72 0.432,0.72 0.576,0.647 0.576,0.505 0.72,0.36 0.792,0.36 0.792,0.216 z m 0,20.016 v -15.696 l -5.76,7.848 z M 0,18.216 h 0.432 0.72 L 1.944,18.072 2.592,17.712 3.312,17.28 3.816,16.704 4.32,16.128 4.68,15.479 5.04,14.76 5.544,13.176 5.616,11.664 5.472,9.936 5.04,8.28 4.608,7.56 4.176,6.912 3.6,6.264 3.024,5.76 2.304,5.4 1.584,5.112 0.792,4.896 H 0 v 2.16 L 0.648,7.128 1.44,7.344 2.016,7.776 2.448,8.28 3.096,9.792 3.312,11.52 3.24,12.528 2.952,13.536 2.592,14.544 1.944,15.264 1.584,15.552 1.152,15.696 0.72,15.84 H 0.288 0 Z m 0,7.776 0.288,0.071 0.648,-0.071 0.648,-0.072 0.576,-0.288 0.576,-0.288 0.504,-0.36 0.504,-0.505 0.36,-0.503 0.432,-0.648 0.504,-1.44 0.072,-1.584 H 3.096 L 2.952,21.744 2.448,22.608 1.44,23.184 0.144,23.472 0,23.4 Z m 125.208,-174.096 v 15.696 l 0.288,0.288 5.904,-8.136 -5.904,-8.208 z m 0,-25.632 v 2.591 l 0.864,0.145 0.792,0.504 0.72,0.792 0.432,1.079 0.576,2.377 0.144,2.664 -0.504,-1.008 -1.008,-0.721 -0.576,-0.287 -0.648,-0.144 -0.504,-0.144 h -0.288 v 2.376 h 0.36 l 0.648,0.216 0.576,0.359 0.576,0.433 0.864,1.44 0.36,2.16 -0.072,0.72 -0.288,0.864 -0.36,0.864 -0.576,0.792 -0.432,0.36 -0.432,0.288 -0.432,0.144 -0.648,0.216 -0.144,-0.073 v 2.305 h 0.144 l 0.864,-0.072 0.72,-0.144 0.648,-0.288 0.648,-0.504 0.648,-0.505 0.648,-0.719 0.504,-0.792 0.36,-1.008 0.648,-2.304 0.144,-2.952 v -0.72 -0.432 l -0.216,-2.736 -0.432,-2.232 -0.576,-1.872 -0.72,-1.441 -1.008,-1.079 -0.936,-0.864 -1.08,-0.504 z" style="fill:#ff0000;fill-opacity:1;fill-rule:nonzero;stroke:none" id="path70"/>
  </g>
</svg>