<?xml version="1.0" encoding="utf-8"?>
<svg viewBox="1075.6464 874.349 209.3759 296.7373" xmlns="http://www.w3.org/2000/svg">
  <g id="g3090" transform="matrix(1.3333330154418945, 0, 0, -1.3333330154418945, 1083.6143617133205, 874.3490230404968)">
    <path d="m 0,0 h 145.008 l 2.304,-0.647 1.944,-1.874 1.296,-2.664 0.504,-3.383 v -205.489 l -0.504,-3.239 -1.296,-2.736 -1.944,-1.872 -2.304,-0.649 H 0 l -2.304,0.649 -1.945,1.872 -1.295,2.736 -0.432,3.239 V -8.568 l 0.432,3.383 1.295,2.664 1.945,1.874 z" style="fill:#000000;fill-opacity:1;fill-rule:nonzero;stroke:none" id="path3092"/>
  </g>
  <g id="g3094" transform="matrix(1.3333330154418945, 0, 0, -1.3333330154418945, 1086.685975564324, 879.0533676220185)">
    <path d="m 0,0 h 140.4 l 2.304,-0.576 1.872,-1.8 1.296,-2.592 0.432,-3.24 v -199.151 l -0.432,-3.169 -1.296,-2.592 -1.872,-1.8 -2.304,-0.648 H 0 l -2.304,0.648 -1.8,1.8 -1.296,2.592 -0.36,3.169 V -8.208 l 0.36,3.24 1.296,2.592 1.8,1.8 z" style="fill:#ffffff;fill-opacity:1;fill-rule:nonzero;stroke:none" id="path3096"/>
  </g>
  <g id="g3098" transform="matrix(1.3333330154418945, 0, 0, -1.3333330154418945, 1097.6299019915461, 930.7017928080713)">
    <path d="m 0,0 v -12.959 l -1.008,2.951 -2.304,3.529 -2.448,3.671 -1.08,3.456 0.36,1.369 0.648,1.08 1.008,0.792 1.224,0.288 1.296,-0.216 1.152,-0.721 0.72,-1.08 0.216,-1.295 V 0.072 Z m -5.904,18.793 0.216,2.592 0.432,2.303 0.576,1.873 0.72,1.439 0.936,1.152 1.008,0.792 1.08,0.505 L 0,29.593 V 27 l -0.864,-0.144 -0.792,-0.503 -0.648,-0.792 -0.432,-1.008 -0.576,-2.449 -0.216,-2.664 0.72,1.009 0.864,0.719 0.576,0.289 0.576,0.215 0.576,0.072 H 0 v -2.375 h -0.36 l -0.576,-0.217 -0.576,-0.359 -0.648,-0.433 -0.864,-1.368 -0.288,-2.16 0.072,-0.72 0.216,-1.008 0.36,-0.864 0.648,-0.791 0.36,-0.289 0.504,-0.287 0.504,-0.144 0.432,-0.145 H 0 V 8.425 h -0.216 l -0.72,0.071 -0.72,0.145 -0.648,0.288 -0.72,0.36 -0.576,0.504 -0.648,0.647 -0.504,0.865 -0.36,0.935 -0.648,2.377 -0.216,3.024 0.072,0.648 z m 29.232,-5.545 v 1.656 l -0.576,2.809 -1.656,2.231 -2.448,1.441 -2.664,0.504 -2.592,-0.649 -2.16,-1.439 -1.44,-2.448 -0.504,-2.88 0.576,-3.529 1.656,-3.743 2.304,-3.816 2.664,-3.889 2.664,-3.815 2.376,-3.816 1.728,-3.6 0.648,-3.312 0.792,3.312 1.656,3.6 2.304,3.816 2.664,3.815 2.664,3.889 2.304,3.816 1.656,3.743 0.648,3.529 -0.576,2.88 -1.368,2.448 -2.16,1.439 -2.664,0.649 -2.736,-0.504 -2.304,-1.441 -1.584,-2.231 -0.72,-2.809 v -1.656 l -0.576,-0.359 z m 0,-165.815 v -1.657 l -0.576,-2.807 -1.656,-2.233 -2.448,-1.44 -2.664,-0.575 -2.592,0.648 -2.16,1.512 -1.44,2.375 -0.504,2.952 0.576,3.457 1.656,3.671 2.304,3.889 2.664,3.816 2.664,3.815 2.376,3.816 1.728,3.6 0.648,3.312 0.792,-3.312 1.656,-3.6 2.304,-3.816 2.664,-3.815 2.664,-3.816 2.304,-3.889 1.656,-3.671 0.648,-3.457 -0.576,-2.952 -1.368,-2.375 -2.16,-1.512 -2.664,-0.648 -2.736,0.504 -2.304,1.511 -1.584,2.233 -0.72,2.807 v 1.657 l -0.576,0.359 z m 0,75.383 v -1.656 l -0.576,-2.88 -1.656,-2.159 -2.448,-1.513 -2.664,-0.431 -2.592,0.575 -2.16,1.513 -1.44,2.376 -0.504,2.88 0.576,3.528 1.656,3.672 2.304,3.816 2.664,3.888 2.664,3.815 2.376,3.744 1.728,3.6 0.648,3.385 0.792,-3.385 1.656,-3.6 2.304,-3.744 2.664,-3.815 2.664,-3.888 2.304,-3.816 1.656,-3.672 0.648,-3.528 -0.576,-2.88 -1.368,-2.376 -2.16,-1.513 -2.664,-0.575 -2.736,0.431 -2.304,1.513 -1.584,2.159 -0.72,2.88 v 1.656 l -0.576,0.361 z m 76.248,90.432 v 1.656 L 99,17.713 l -1.656,2.231 -2.448,1.441 -2.664,0.504 -2.592,-0.649 -2.088,-1.439 -1.512,-2.448 -0.504,-2.88 0.504,-3.529 1.728,-3.743 2.304,-3.816 2.664,-3.889 2.664,-3.815 2.304,-3.816 1.728,-3.6 0.72,-3.312 0.72,3.312 1.656,3.6 2.376,3.816 2.664,3.815 2.664,3.889 2.304,3.816 1.656,3.743 0.648,3.529 -0.576,2.88 -1.44,2.448 -2.16,1.439 -2.592,0.649 -2.736,-0.504 -2.304,-1.441 -1.656,-2.231 -0.648,-2.809 v -1.656 l -0.576,-0.359 z m 0,-165.815 v -1.657 l -0.576,-2.807 -1.656,-2.233 -2.448,-1.44 -2.664,-0.575 -2.592,0.648 -2.088,1.512 -1.512,2.375 -0.504,2.952 0.504,3.457 1.728,3.671 2.304,3.889 2.664,3.816 2.664,3.815 2.304,3.816 1.728,3.6 0.72,3.312 0.72,-3.312 1.656,-3.6 2.376,-3.816 2.664,-3.815 2.664,-3.816 2.304,-3.889 1.656,-3.671 0.648,-3.457 -0.576,-2.952 -1.44,-2.375 -2.16,-1.512 -2.592,-0.648 -2.736,0.504 -2.304,1.511 -1.656,2.233 -0.648,2.807 v 1.657 l -0.576,0.359 z m 0,75.383 V -78.84 L 99,-81.72 l -1.656,-2.159 -2.448,-1.513 -2.664,-0.431 -2.592,0.575 -2.088,1.513 -1.512,2.376 -0.504,2.88 0.504,3.528 1.728,3.672 2.304,3.816 2.664,3.888 2.664,3.815 2.304,3.744 1.728,3.6 0.72,3.385 0.72,-3.385 1.656,-3.6 2.376,-3.744 2.664,-3.815 2.664,-3.888 2.304,-3.816 1.656,-3.672 0.648,-3.528 -0.576,-2.88 -1.44,-2.376 -2.16,-1.513 -2.592,-0.575 -2.736,0.431 -2.304,1.513 -1.656,2.159 -0.648,2.88 v 1.656 l -0.576,0.361 z M 0,-12.959 V 0 L 0.144,-0.071 0.432,0.072 V 0.865 L 0.648,2.16 1.512,3.24 2.592,3.961 3.888,4.177 5.112,3.889 6.12,3.097 6.768,2.017 7.056,0.648 6.048,-2.808 3.6,-6.479 1.224,-10.008 0.144,-13.319 Z m 125.208,-154.513 v -2.591 l -0.216,-0.072 h -0.648 l -0.648,0.216 -0.648,0.288 -0.504,0.215 -0.504,0.433 -0.504,0.36 -0.432,0.647 -0.36,0.577 -0.432,1.44 -0.144,1.583 h 2.016 l 0.216,-1.368 0.504,-0.936 0.936,-0.648 1.224,-0.215 z m 0,18.649 v -2.233 l -0.648,-0.071 -0.72,-0.289 -0.648,-0.359 -0.36,-0.649 -0.72,-1.368 -0.216,-1.8 0.144,-1.079 0.288,-1.009 0.36,-0.863 0.648,-0.792 0.36,-0.288 0.36,-0.145 0.432,-0.072 0.504,-0.143 0.216,0.071 v -2.376 h -0.36 -0.792 l -0.72,0.144 -0.72,0.361 -0.648,0.431 -0.504,0.577 -0.504,0.576 -0.36,0.648 -0.36,0.719 -0.432,1.513 -0.144,1.584 0.144,1.727 0.432,1.584 0.36,0.793 0.432,0.648 0.576,0.648 0.576,0.503 0.72,0.433 0.792,0.36 0.792,0.216 z m 0,21.887 v -12.456 -0.792 l -0.216,-1.295 -0.792,-1.152 -1.152,-0.648 -1.224,-0.217 -1.224,0.217 -1.008,0.792 -0.72,1.152 -0.288,1.368 1.08,3.383 2.376,3.601 2.304,3.599 z M 0,21.744 h 0.432 0.72 L 1.944,21.601 2.592,21.24 3.312,20.881 3.816,20.305 4.32,19.729 4.68,19.009 5.04,18.289 5.544,16.776 5.616,15.192 5.472,13.465 5.04,11.881 4.608,11.088 4.176,10.44 3.6,9.793 3.024,9.289 2.304,9 1.584,8.641 0.792,8.496 0,8.425 v 2.159 l 0.648,0.072 0.792,0.217 0.576,0.432 0.432,0.576 0.648,1.439 0.216,1.729 -0.072,1.08 -0.288,1.008 -0.36,1.008 -0.648,0.648 -0.36,0.359 L 1.152,19.297 0.72,19.369 0.288,19.44 0,19.369 Z m 0,7.849 H 0.288 0.936 L 1.584,29.449 2.16,29.16 2.736,28.944 3.24,28.513 3.744,28.08 4.104,27.504 4.536,26.929 5.04,25.488 5.112,23.904 H 3.096 L 2.952,25.272 2.448,26.137 1.44,26.785 0.144,27 H 0 Z m 125.208,-168.985 v 12.456 l 0.288,0.792 1.152,-3.24 2.376,-3.599 2.376,-3.601 1.008,-3.383 -0.216,-1.368 -0.648,-1.152 -1.008,-0.792 -1.296,-0.217 -1.224,0.217 -1.152,0.648 -0.792,1.152 -0.288,1.295 v 0.792 l -0.288,0.144 z m 0,-30.671 v 2.591 l 0.864,0.144 0.792,0.505 0.72,0.719 0.432,1.081 0.576,2.448 0.144,2.592 -0.504,-1.008 -1.008,-0.72 -0.576,-0.217 -0.648,-0.216 -0.504,-0.144 h -0.288 v 2.376 l 0.36,0.072 0.648,0.217 0.576,0.288 0.576,0.503 0.864,1.369 0.36,2.159 -0.072,0.72 -0.288,0.937 -0.36,0.864 -0.576,0.792 -0.432,0.36 -0.432,0.215 -0.432,0.217 -0.648,0.143 h -0.144 v 2.233 h 0.144 0.864 l 0.72,-0.216 0.648,-0.289 0.648,-0.504 0.648,-0.503 0.648,-0.648 0.504,-0.792 0.36,-1.008 0.648,-2.376 0.144,-2.952 v -0.721 -0.432 l -0.216,-2.664 -0.432,-2.303 -0.576,-1.873 -0.72,-1.439 -1.008,-1.08 -0.936,-0.864 -1.08,-0.504 z" style="fill:#ff0000;fill-opacity:1;fill-rule:nonzero;stroke:none" id="path3100"/>
  </g>
</svg>