<?xml version="1.0" encoding="utf-8"?>
<svg viewBox="1075.6464 1212.0768 209.3759 296.8319" xmlns="http://www.w3.org/2000/svg">
  <g id="g3924" transform="matrix(1.3333330154418945, 0, 0, -1.3333330154418945, 1083.6143617133205, 1212.076766413138)">
    <path d="m 0,0 h 145.008 l 2.304,-0.648 1.944,-1.872 1.296,-2.665 0.504,-3.383 v -205.56 l -0.504,-3.24 -1.296,-2.736 -1.944,-1.873 -2.304,-0.647 H 0 l -2.304,0.647 -1.945,1.873 -1.295,2.736 -0.432,3.24 v 205.56 l 0.432,3.383 1.295,2.665 1.945,1.872 z" style="fill:#000000;fill-opacity:1;fill-rule:nonzero;stroke:none" id="path3926"/>
  </g>
  <g id="g3928" transform="matrix(1.3333330154418945, 0, 0, -1.3333330154418945, 1086.685975564324, 1216.7811923748486)">
    <path d="m 0,0 h 140.4 l 2.304,-0.575 1.872,-1.801 1.296,-2.592 0.432,-3.24 v -199.224 l -0.432,-3.168 -1.296,-2.591 -1.872,-1.8 -2.304,-0.649 H 0 l -2.304,0.649 -1.8,1.8 -1.296,2.591 -0.36,3.168 V -8.208 l 0.36,3.24 1.296,2.592 1.8,1.801 z" style="fill:#ffffff;fill-opacity:1;fill-rule:nonzero;stroke:none" id="path3930"/>
  </g>
  <g id="g3932" transform="matrix(1.3333330154418945, 0, 0, -1.3333330154418945, 1097.6299019915461, 1228.9738571111193)">
    <path d="m 0,0 v -2.591 l -0.864,-0.144 -0.792,-0.504 -0.648,-0.792 -0.432,-1.08 -0.576,-2.376 -0.216,-2.664 0.72,1.007 0.864,0.721 0.576,0.287 0.576,0.217 0.576,0.072 H 0 v -2.377 h -0.36 l -0.576,-0.288 -0.576,-0.288 -0.648,-0.431 -0.864,-1.369 -0.288,-2.159 0.072,-0.72 0.216,-1.008 0.36,-0.865 0.648,-0.792 0.36,-0.287 0.504,-0.289 0.504,-0.143 0.432,-0.144 H 0 v -2.16 h -0.216 l -0.72,0.071 -0.72,0.145 -0.648,0.288 -0.72,0.359 -0.576,0.504 -0.648,0.649 -0.504,0.864 -0.36,0.935 -0.648,2.376 -0.216,3.025 0.072,0.647 v 0.504 l 0.216,2.592 0.432,2.305 0.576,1.872 0.72,1.44 0.936,1.079 1.008,0.865 1.08,0.503 z m 0,-43.56 h -3.168 l 1.224,2.449 0.576,2.52 v 2.304 l -0.72,1.727 H -2.52 l 0.504,-1.007 0.216,-1.153 -0.36,-1.223 -0.792,-1.008 -1.008,-0.649 -1.152,-0.215 -1.224,0.215 -1.008,0.792 -0.648,1.008 -0.216,1.296 1.152,3.313 2.448,3.383 2.592,3.168 1.512,2.593 L 0,-24.911 v -11.304 -0.072 L -0.072,-38.591 0,-38.951 Z M 29.736,-45 h -9.72 l 2.52,4.896 1.152,4.968 -0.144,4.536 -1.368,3.456 h -0.864 l 1.008,-2.015 0.36,-2.233 -0.648,-2.519 -1.44,-1.944 -2.16,-1.296 -2.304,-0.504 -2.376,0.504 -1.872,1.439 -1.296,2.161 -0.432,2.52 0.576,3.095 1.584,3.385 2.304,3.384 2.664,3.312 2.664,3.311 2.448,3.097 1.944,2.735 1.08,2.521 0.936,-2.449 1.8,-2.736 2.304,-3.096 2.592,-3.311 2.592,-3.313 2.088,-3.455 1.512,-3.241 0.576,-3.239 -0.504,-2.52 -1.296,-2.161 -1.872,-1.439 -2.376,-0.504 -2.376,0.504 -2.088,1.296 -1.512,1.944 -0.576,2.519 0.36,2.233 1.008,2.015 h -0.936 l -1.296,-3.456 -0.216,-4.536 1.152,-4.968 z m 75.312,0 H 95.4 l 2.52,4.896 1.08,4.968 -0.072,4.536 -1.44,3.456 h -0.864 l 1.008,-2.015 0.36,-2.233 -0.576,-2.519 -1.512,-1.944 -2.088,-1.296 -2.376,-0.504 -2.376,0.504 -1.872,1.439 -1.296,2.161 -0.504,2.52 0.648,3.095 1.656,3.385 2.232,3.384 2.664,3.312 2.736,3.311 2.376,3.097 2.016,2.735 1.008,2.521 1.008,-2.449 1.8,-2.736 2.304,-3.096 2.592,-3.311 2.52,-3.313 2.088,-3.455 1.512,-3.241 0.648,-3.239 -0.504,-2.52 -1.296,-2.161 -2.016,-1.439 -2.232,-0.504 -2.448,0.504 -2.088,1.296 -1.512,1.944 -0.504,2.519 0.288,2.233 1.008,2.015 h -0.864 l -1.44,-3.456 -0.144,-4.536 1.152,-4.968 z M 29.736,-77.184 h -9.72 l 2.52,-4.823 1.152,-5.04 -0.144,-4.537 -1.368,-3.383 -0.864,-0.073 1.008,2.017 0.36,2.303 -0.648,2.449 -1.44,2.016 -2.16,1.296 -2.304,0.359 -2.376,-0.504 -1.872,-1.368 -1.296,-2.088 -0.432,-2.591 0.576,-3.096 1.584,-3.313 2.304,-3.383 2.664,-3.384 2.664,-3.312 2.448,-3.096 1.944,-2.809 1.08,-2.447 0.936,2.447 1.8,2.736 2.304,3.169 2.592,3.24 2.592,3.456 2.088,3.383 1.512,3.241 0.576,3.168 -0.504,2.591 -1.296,2.088 -1.872,1.368 -2.376,0.504 -2.376,-0.359 -2.088,-1.296 -1.512,-2.016 -0.576,-2.449 0.36,-2.303 1.008,-2.017 -0.936,0.073 -1.296,3.383 -0.216,4.537 1.152,5.04 z m 75.312,0 H 95.4 l 2.52,-4.823 1.08,-5.04 -0.072,-4.537 -1.44,-3.383 -0.864,-0.073 1.008,2.017 0.36,2.303 -0.576,2.449 -1.512,2.016 -2.088,1.296 -2.376,0.359 -2.376,-0.504 -1.872,-1.368 -1.296,-2.088 -0.504,-2.591 0.648,-3.096 1.656,-3.313 2.232,-3.383 2.664,-3.384 2.736,-3.312 2.376,-3.096 2.016,-2.809 1.008,-2.447 1.008,2.447 1.8,2.736 2.304,3.169 2.592,3.24 2.52,3.456 2.088,3.383 1.512,3.241 0.648,3.168 -0.504,2.591 -1.296,2.088 -2.016,1.368 -2.232,0.504 -2.448,-0.359 -2.088,-1.296 -1.512,-2.016 -0.504,-2.449 0.288,-2.303 1.008,-2.017 -0.864,0.073 -1.44,3.383 -0.144,4.537 1.152,5.04 z m -75.312,-75.311 h -9.72 l 2.52,-4.824 1.152,-5.04 -0.144,-4.537 -1.368,-3.456 h -0.864 l 1.008,1.945 0.36,2.303 -0.648,2.449 -1.44,2.016 -2.16,1.296 -2.304,0.504 -2.376,-0.504 -1.872,-1.512 -1.296,-2.088 -0.432,-2.52 0.576,-3.097 1.584,-3.383 2.304,-3.384 2.664,-3.312 2.664,-3.312 2.448,-3.168 1.944,-2.808 1.08,-2.449 0.936,2.449 1.8,2.808 2.304,3.023 2.592,3.384 2.592,3.385 2.088,3.384 1.512,3.312 0.576,3.168 -0.504,2.52 -1.296,2.088 -1.872,1.512 -2.376,0.504 -2.376,-0.504 -2.088,-1.296 -1.512,-2.016 -0.576,-2.449 0.36,-2.303 1.008,-1.945 h -0.936 l -1.296,3.456 -0.216,4.537 1.152,5.04 z m 75.312,0 H 95.4 l 2.52,-4.824 1.08,-5.04 -0.072,-4.537 -1.44,-3.456 h -0.864 l 1.008,1.945 0.36,2.303 -0.576,2.449 -1.512,2.016 -2.088,1.296 -2.376,0.504 -2.376,-0.504 -1.872,-1.512 -1.296,-2.088 -0.504,-2.52 0.648,-3.097 1.656,-3.383 2.232,-3.384 2.664,-3.312 2.736,-3.312 2.376,-3.168 2.016,-2.808 1.008,-2.449 1.008,2.449 1.8,2.808 2.304,3.023 2.592,3.384 2.52,3.385 2.088,3.384 1.512,3.312 0.648,3.168 -0.504,2.52 -1.296,2.088 -2.016,1.512 -2.232,0.504 -2.448,-0.504 -2.088,-1.296 -1.512,-2.016 -0.504,-2.449 0.288,-2.303 1.008,-1.945 h -0.864 l -1.44,3.456 -0.144,4.537 1.152,5.04 z M 0,-2.591 V 0 H 0.288 0.936 L 1.584,-0.144 2.16,-0.431 2.736,-0.647 3.24,-1.079 3.744,-1.512 4.104,-2.088 4.536,-2.663 5.04,-4.104 5.112,-5.759 H 3.096 l -0.144,1.44 -0.504,0.864 -1.008,0.647 -1.296,0.217 z m 0,-18.576 v 2.16 l 0.648,0.071 0.792,0.216 0.576,0.433 0.432,0.575 0.648,1.441 0.216,1.727 -0.072,1.081 -0.288,1.008 -0.36,1.008 -0.648,0.647 -0.36,0.288 -0.432,0.216 -0.432,0.072 -0.432,0.073 L 0,-10.224 v 2.377 h 0.432 0.72 l 0.792,-0.144 0.648,-0.361 0.72,-0.36 0.504,-0.647 0.504,-0.504 0.36,-0.721 0.36,-0.72 0.504,-1.511 0.072,-1.584 L 5.472,-16.128 5.04,-17.712 4.608,-18.504 4.176,-19.151 3.6,-19.8 l -0.576,-0.504 -0.72,-0.287 -0.72,-0.36 -0.792,-0.145 z m 125.208,-175.969 v -2.592 l -0.216,-0.072 h -0.648 l -0.648,0.216 -0.648,0.288 -0.504,0.217 -0.504,0.432 -0.504,0.36 -0.432,0.648 -0.36,0.576 -0.432,1.439 -0.144,1.584 h 2.016 l 0.216,-1.367 0.504,-0.936 0.936,-0.648 1.224,-0.217 z m 0,18.649 v -2.233 l -0.648,-0.072 -0.72,-0.287 -0.648,-0.36 -0.36,-0.649 -0.72,-1.367 -0.216,-1.8 0.144,-1.08 0.288,-1.008 0.36,-0.865 0.648,-0.792 0.36,-0.287 0.36,-0.144 0.432,-0.073 0.504,-0.143 0.216,0.072 v -2.376 h -0.36 -0.792 l -0.72,0.143 -0.72,0.361 -0.648,0.432 -0.504,0.576 -0.504,0.576 -0.36,0.647 -0.36,0.721 -0.432,1.512 -0.144,1.584 0.144,1.727 0.432,1.584 0.36,0.792 0.432,0.649 0.576,0.647 0.576,0.505 0.72,0.432 0.792,0.36 0.792,0.143 z m 0,24.048 v -19.081 l -1.008,2.016 -2.448,3.241 -2.376,3.455 -1.08,3.313 0.288,1.224 0.648,1.08 1.008,0.719 1.152,0.217 1.152,-0.217 1.08,-0.647 0.72,-0.936 0.36,-1.297 -0.216,-1.152 -0.504,-0.935 h 0.36 l 0.792,1.656 0.072,2.304 -0.576,2.52 -1.224,2.52 z M 0,-24.911 v -11.304 l 0.648,1.655 h 0.504 l -0.504,-1.007 -0.216,-1.153 0.216,-1.223 0.792,-1.008 1.08,-0.649 1.224,-0.215 1.152,0.215 0.936,0.792 0.72,1.008 0.216,1.296 -1.08,3.313 -2.304,3.383 -2.448,3.168 z M 1.656,-43.56 H 0 v 4.609 l 0.432,-2.16 z m 123.552,-129.96 v 19.081 h 3.168 l -1.224,-2.52 -0.648,-2.52 0.072,-2.304 0.72,-1.656 h 0.432 l -0.504,0.935 -0.144,1.152 0.288,1.297 0.72,0.936 1.08,0.647 1.224,0.217 1.152,-0.217 1.008,-0.719 0.648,-1.08 0.144,-1.224 -1.08,-3.313 -2.52,-3.383 -2.592,-3.313 -1.584,-2.592 z m 0,-26.208 v 2.592 l 0.864,0.145 0.792,0.431 0.72,0.792 0.432,1.08 0.576,2.449 0.144,2.592 -0.504,-1.008 -1.008,-0.721 -0.576,-0.215 -0.648,-0.217 -0.504,-0.143 h -0.288 v 2.376 l 0.36,0.071 0.648,0.145 0.576,0.359 0.576,0.505 0.864,1.367 0.36,2.161 -0.072,0.72 -0.288,0.935 -0.36,0.865 -0.576,0.792 -0.432,0.359 -0.432,0.217 -0.432,0.216 -0.648,0.143 h -0.144 v 2.233 h 0.144 l 0.864,-0.073 0.72,-0.143 0.648,-0.288 0.648,-0.504 0.648,-0.505 0.648,-0.647 0.504,-0.792 0.36,-1.008 0.648,-2.376 0.144,-2.952 v -0.72 -0.432 l -0.216,-2.664 -0.432,-2.305 -0.576,-1.872 -0.72,-1.44 -1.008,-1.079 -0.936,-0.864 -1.08,-0.504 z" style="fill:#000000;fill-opacity:1;fill-rule:nonzero;stroke:none" id="path3934"/>
  </g>
</svg>