<?xml version="1.0" encoding="utf-8"?>
<svg viewBox="1075.6464 532.6849 209.3759 296.8319" xmlns="http://www.w3.org/2000/svg">
  <g id="g1808" transform="matrix(1.3333330154418945, 0, 0, -1.3333330154418945, 1083.6143617133205, 532.6849606193683)">
    <path d="m 0,0 h 145.008 l 2.304,-0.648 1.944,-1.872 1.296,-2.664 0.504,-3.384 v -205.56 l -0.504,-3.312 -1.296,-2.664 -1.944,-1.872 -2.304,-0.648 H 0 l -2.304,0.648 -1.945,1.872 -1.295,2.664 -0.432,3.312 v 205.56 l 0.432,3.384 1.295,2.664 1.945,1.872 z" style="fill:#000000;fill-opacity:1;fill-rule:nonzero;stroke:none" id="path1810"/>
  </g>
  <g id="g1812" transform="matrix(1.3333330154418945, 0, 0, -1.3333330154418945, 1086.685975564324, 537.3892238207009)">
    <path d="m 0,0 h 140.4 l 2.304,-0.576 1.872,-1.8 1.296,-2.592 0.432,-3.24 v -199.224 l -0.432,-3.168 -1.296,-2.664 -1.872,-1.728 -2.304,-0.648 H 0 l -2.304,0.648 -1.8,1.728 -1.296,2.664 -0.36,3.168 V -8.208 l 0.36,3.24 1.296,2.592 1.8,1.8 z" style="fill:#ffffff;fill-opacity:1;fill-rule:nonzero;stroke:none" id="path1814"/>
  </g>
  <g id="g1816" transform="matrix(1.3333330154418945, 0, 0, -1.3333330154418945, 1097.6299019915461, 584.9096389232399)">
    <path d="m 0,0 v -5.543 -0.145 -4.536 l -0.36,0.504 -0.216,1.296 v 0.144 l -0.072,0.144 -0.504,-2.088 0.864,-3.456 h -2.736 l 1.008,3.456 -0.648,2.088 V -8.28 -8.424 l -0.288,-1.296 -0.648,-1.008 -1.008,-0.648 -1.224,-0.288 -1.296,0.288 -1.008,0.648 -0.72,1.008 -0.288,1.296 0.288,1.297 0.72,1.007 1.008,0.648 1.296,0.288 0.648,-0.071 0.576,-0.217 0.504,-0.288 0.504,-0.36 0.288,0.144 h 0.144 l 0.144,0.36 -0.792,0.432 -0.504,0.648 -0.432,0.865 -0.072,0.935 0.216,1.224 0.648,1.08 1.152,0.648 1.224,0.288 1.224,-0.288 z m -5.904,15.624 0.216,2.665 0.432,2.231 0.576,1.944 0.72,1.44 0.936,1.08 1.008,0.864 1.08,0.504 L 0,26.424 v -2.52 l -0.864,-0.144 -0.792,-0.504 -0.648,-0.792 -0.432,-1.08 -0.576,-2.376 -0.216,-2.736 0.72,1.008 0.864,0.792 0.576,0.288 0.576,0.216 0.576,0.072 H 0 v -2.376 h -0.36 l -0.576,-0.288 -0.576,-0.288 -0.648,-0.432 -0.864,-1.44 -0.288,-2.159 0.072,-0.649 0.216,-1.008 0.36,-0.863 0.648,-0.793 0.36,-0.288 L -1.152,7.776 -0.648,7.632 -0.216,7.416 0,7.488 V 5.329 h -0.216 -0.72 l -0.72,0.143 -0.648,0.361 -0.72,0.359 -0.576,0.504 -0.648,0.648 -0.504,0.864 -0.36,0.937 -0.648,2.375 -0.216,2.952 0.072,0.649 z M 28.8,-4.824 l 0.144,-0.36 v -0.359 l 0.648,-3.168 1.728,-2.52 2.52,-1.728 3.096,-0.721 3.096,0.721 2.592,1.728 1.728,2.52 0.648,3.168 -0.648,3.095 -1.728,2.52 -2.592,1.801 -3.096,0.575 -1.44,-0.144 -1.44,-0.431 -1.368,-0.649 -1.08,-0.864 -0.648,0.216 -0.504,0.432 -0.144,0.576 1.656,1.296 1.296,1.657 0.792,1.799 0.288,2.161 -0.648,3.095 -1.728,2.593 -2.52,1.727 -3.096,0.576 L 23.256,15.912 20.664,14.185 18.936,11.592 18.288,8.497 18.648,6.192 19.512,4.176 20.952,2.52 22.824,1.368 22.536,0.576 22.032,0.432 21.456,0.216 20.232,1.081 18.936,1.873 17.424,2.304 15.84,2.448 12.744,1.873 10.152,0.072 l -1.8,-2.52 -0.576,-3.095 0.576,-3.168 1.8,-2.52 2.592,-1.728 3.096,-0.721 3.096,0.721 2.52,1.728 1.728,2.52 0.648,3.168 v 0.359 0.36 l 1.152,-1.656 0.36,-3.6 -0.792,-4.392 -1.728,-4.031 h 6.984 l -1.656,4.031 -0.72,4.464 0.216,3.528 z m 70.92,0 0.072,-0.36 v -0.359 l 0.648,-3.168 1.728,-2.52 2.52,-1.728 3.168,-0.721 3.096,0.721 2.592,1.728 1.728,2.52 0.576,3.168 -0.576,3.095 -1.728,2.52 -2.592,1.801 -3.096,0.575 -1.512,-0.144 -1.368,-0.431 -1.368,-0.649 -1.08,-0.864 -0.648,0.216 -0.504,0.432 -0.144,0.576 1.656,1.296 1.296,1.657 0.792,1.799 0.216,2.161 -0.576,3.095 -1.728,2.593 -2.52,1.727 -3.096,0.576 -3.168,-0.576 -2.52,-1.727 -1.8,-2.593 -0.576,-3.095 0.36,-2.305 0.864,-2.016 1.44,-1.656 1.872,-1.152 -0.36,-0.792 -0.432,-0.144 -0.576,-0.216 -1.224,0.865 -1.368,0.792 -1.44,0.431 -1.656,0.144 -3.096,-0.575 -2.52,-1.801 -1.8,-2.52 -0.576,-3.095 0.576,-3.168 1.8,-2.52 2.52,-1.728 3.096,-0.721 3.096,0.721 2.592,1.728 1.656,2.52 0.72,3.168 v 0.359 0.36 l 1.152,-1.656 0.288,-3.6 -0.72,-4.392 -1.728,-4.031 h 6.984 l -1.728,4.031 -0.648,4.464 0.216,3.528 z m -75.816,-135.36 -0.072,0.433 v 0.431 l -0.648,3.096 -1.728,2.592 -2.52,1.728 -3.096,0.648 -3.096,-0.648 -2.592,-1.728 -1.8,-2.592 -0.576,-3.096 0.576,-3.168 1.8,-2.592 2.592,-1.8 3.096,-0.576 1.512,0.144 1.44,0.432 1.224,0.648 1.152,0.864 0.648,-0.215 0.504,-0.433 0.072,-0.576 -1.656,-1.224 -1.224,-1.727 -0.864,-1.801 -0.216,-2.16 0.576,-3.096 1.8,-2.52 2.52,-1.799 3.168,-0.577 3.096,0.577 2.592,1.799 1.8,2.52 0.576,3.096 -0.36,2.304 -0.864,2.016 -1.44,1.656 -1.8,1.153 0.216,0.792 0.504,0.215 0.576,0.144 1.224,-0.864 1.368,-0.792 1.512,-0.432 1.512,-0.144 3.096,0.576 2.664,1.8 1.728,2.592 0.576,3.168 -0.576,3.096 -1.728,2.592 -2.664,1.728 -3.096,0.648 -3.024,-0.648 -2.592,-1.728 -1.728,-2.592 -0.72,-3.096 v -0.431 -0.433 l -1.152,1.656 -0.216,3.744 0.72,4.464 1.8,3.96 h -7.2 l 1.8,-3.96 0.72,-4.536 -0.216,-3.672 z m 70.92,0 -0.072,0.433 v 0.431 l -0.72,3.096 -1.656,2.592 -2.592,1.728 -3.096,0.648 -3.096,-0.648 -2.52,-1.728 -1.8,-2.592 -0.576,-3.096 0.576,-3.168 1.8,-2.592 2.52,-1.8 3.096,-0.576 1.512,0.144 1.44,0.432 1.296,0.648 1.152,0.864 0.648,-0.215 0.504,-0.433 0.072,-0.576 -1.656,-1.224 -1.224,-1.727 -0.864,-1.801 -0.216,-2.16 0.576,-3.096 1.8,-2.52 2.52,-1.799 3.168,-0.577 3.096,0.577 2.592,1.799 1.728,2.52 0.648,3.096 -0.36,2.304 -0.936,2.016 -1.44,1.656 -1.8,1.153 0.288,0.792 0.504,0.215 0.504,0.144 1.296,-0.864 1.368,-0.792 1.44,-0.432 1.584,-0.144 3.168,0.576 2.592,1.8 1.656,2.592 0.648,3.168 -0.648,3.096 -1.656,2.592 -2.592,1.728 -3.168,0.648 -3.096,-0.648 -2.592,-1.728 -1.656,-2.592 -0.648,-3.096 v -0.431 -0.433 l -1.224,1.656 -0.216,3.744 0.72,4.464 1.728,3.96 h -7.128 l 1.728,-3.96 0.792,-4.536 -0.288,-3.672 z m -70.92,70.92 -0.072,0.432 v 0.432 l -0.648,3.169 -1.728,2.447 -2.52,1.8 -3.096,0.649 -3.096,-0.649 -2.592,-1.8 -1.8,-2.447 -0.576,-3.169 0.576,-3.168 1.8,-2.52 2.592,-1.8 3.096,-0.648 1.512,0.216 1.44,0.361 1.224,0.719 1.152,0.864 0.648,-0.216 0.504,-0.431 0.072,-0.649 -1.656,-1.224 -1.224,-1.728 -0.864,-1.8 -0.216,-2.159 0.576,-3.097 1.8,-2.52 2.52,-1.728 3.168,-0.648 3.096,0.648 2.592,1.728 1.8,2.52 0.576,3.097 -0.36,2.303 -0.864,2.016 -1.44,1.656 -1.8,1.224 0.216,0.72 0.504,0.216 0.576,0.217 1.224,-0.936 1.368,-0.721 1.512,-0.432 1.512,-0.216 3.096,0.648 2.664,1.8 1.728,2.52 0.576,3.168 -0.576,3.169 -1.728,2.447 -2.664,1.8 -3.096,0.649 -3.024,-0.649 -2.592,-1.8 -1.728,-2.447 -0.72,-3.169 v -0.432 -0.432 l -1.152,1.656 -0.216,3.672 0.72,4.464 1.8,4.033 h -7.2 l 1.8,-4.033 0.72,-4.464 -0.216,-3.672 z m 70.92,0 -0.072,0.432 v 0.432 l -0.72,3.169 -1.656,2.447 -2.592,1.8 -3.096,0.649 -3.096,-0.649 -2.52,-1.8 -1.8,-2.447 -0.576,-3.169 0.576,-3.168 1.8,-2.52 2.52,-1.8 3.096,-0.648 1.512,0.216 1.44,0.361 1.296,0.719 1.152,0.864 0.648,-0.216 0.504,-0.431 0.072,-0.649 -1.656,-1.224 -1.224,-1.728 -0.864,-1.8 -0.216,-2.159 0.576,-3.097 1.8,-2.52 2.52,-1.728 3.168,-0.648 3.096,0.648 2.592,1.728 1.728,2.52 0.648,3.097 -0.36,2.303 -0.936,2.016 -1.44,1.656 -1.8,1.224 0.288,0.72 0.504,0.216 0.504,0.217 1.296,-0.936 1.368,-0.721 1.44,-0.432 1.584,-0.216 3.168,0.648 2.592,1.8 1.656,2.52 0.648,3.168 -0.648,3.169 -1.656,2.447 -2.592,1.8 -3.168,0.649 -3.096,-0.649 -2.592,-1.8 -1.656,-2.447 -0.648,-3.169 v -0.432 -0.432 l -1.224,1.656 -0.216,3.672 0.72,4.464 1.728,4.033 h -7.128 l 1.728,-4.033 0.792,-4.464 -0.288,-3.672 z M 0,-5.543 1.152,-4.32 1.584,-2.736 1.296,-1.512 0.648,-0.432 0,0 Z m 0,-4.681 v 4.536 -0.144 l 0.144,-0.144 h 0.288 l 0.504,0.288 0.504,0.216 0.576,0.217 0.576,0.071 1.296,-0.288 1.08,-0.648 0.648,-1.007 0.216,-1.297 -0.216,-1.296 -0.648,-1.008 -1.08,-0.648 -1.296,-0.288 -1.296,0.288 -1.008,0.648 z M 125.424,-170.64 v -2.592 l -0.432,-0.072 h -0.648 l -0.648,0.216 -0.648,0.216 -0.504,0.289 -0.504,0.359 -0.504,0.432 -0.432,0.576 -0.36,0.648 -0.432,1.441 -0.144,1.584 h 2.016 l 0.216,-1.441 0.504,-0.935 0.936,-0.577 1.224,-0.215 z m 0,18.648 v -2.304 l -0.72,-0.072 -0.72,-0.215 -0.576,-0.433 -0.432,-0.576 -0.648,-1.44 -0.288,-1.728 0.144,-1.08 0.288,-1.008 0.36,-0.936 0.648,-0.72 0.36,-0.288 0.36,-0.144 0.504,-0.144 0.432,-0.072 0.288,0.072 v -2.376 l -0.576,-0.072 -0.792,0.072 -0.72,0.144 -0.72,0.36 -0.648,0.432 -0.504,0.504 -0.504,0.648 -0.36,0.648 -0.36,0.72 -0.432,1.512 -0.144,1.584 0.144,1.728 0.432,1.584 0.36,0.72 0.432,0.72 0.576,0.648 0.576,0.504 0.72,0.432 0.792,0.288 0.792,0.216 0.864,0.072 z m 0,20.664 v -14.184 l -1.224,0.216 -1.08,0.72 -0.648,1.008 -0.288,1.297 0.144,0.936 0.36,0.792 0.504,0.647 0.792,0.504 -0.072,0.36 h -0.216 l -0.216,0.073 -0.504,-0.361 -0.576,-0.216 -0.504,-0.288 h -0.648 l -1.296,0.288 -1.008,0.648 -0.72,1.008 -0.288,1.368 0.288,1.296 0.72,0.936 1.008,0.648 1.296,0.361 1.224,-0.361 1.008,-0.648 0.648,-0.936 0.216,-1.296 v -0.216 -0.144 l 0.648,2.088 -1.008,3.456 z M 0,18.648 h 0.432 0.72 L 1.944,18.504 2.592,18.145 3.312,17.784 3.816,17.136 4.32,16.632 4.68,15.912 5.04,15.192 5.544,13.68 5.616,12.096 5.472,10.368 5.04,8.784 4.608,7.992 4.176,7.344 3.6,6.696 3.024,6.192 2.304,5.833 1.584,5.544 0.792,5.329 H 0 v 2.159 l 0.648,0.073 0.792,0.215 0.576,0.432 0.432,0.576 0.648,1.44 0.216,1.728 -0.072,1.08 -0.288,0.936 -0.36,1.009 -0.648,0.719 -0.36,0.288 -0.432,0.144 -0.432,0.144 H 0.288 0 Z M 0,26.424 0.288,26.497 0.936,26.424 1.584,26.352 2.16,26.064 2.736,25.776 3.24,25.416 3.744,24.984 4.104,24.408 4.536,23.833 5.04,22.32 5.112,20.736 H 3.096 L 2.952,22.176 2.448,23.041 1.44,23.616 0.144,23.904 H 0 Z m 125.424,-171.936 v 14.184 h 1.368 l -0.936,-3.456 0.504,-2.088 0.072,0.144 v 0.216 l 0.288,1.296 0.648,0.936 1.008,0.648 1.296,0.361 1.296,-0.361 1.08,-0.648 0.648,-0.936 0.216,-1.296 -0.216,-1.368 -0.648,-1.008 -1.08,-0.648 -1.296,-0.288 h -0.576 l -0.576,0.144 -0.504,0.36 -0.504,0.288 h -0.288 l -0.144,-0.216 -0.072,-0.288 1.224,-1.08 0.36,-1.655 -0.216,-1.297 -0.648,-1.008 -1.008,-0.72 -1.224,-0.287 z m 0,-27.72 v 2.592 l 0.648,0.072 0.792,0.504 0.72,0.793 0.432,1.079 0.576,2.376 0.144,2.664 -0.504,-1.008 -1.008,-0.72 -0.576,-0.287 -0.648,-0.145 -0.504,-0.144 h -0.072 v 2.376 h 0.288 l 0.648,0.216 0.576,0.36 0.648,0.432 0.864,1.44 0.288,2.16 -0.072,0.721 -0.216,0.935 -0.36,0.792 -0.648,0.792 -0.36,0.36 -0.432,0.289 -0.504,0.215 -0.576,0.144 -0.144,-0.072 v 2.304 l 0.792,-0.072 0.72,-0.144 0.648,-0.288 0.648,-0.504 0.648,-0.504 0.648,-0.72 0.504,-0.792 0.36,-1.008 0.648,-2.304 0.144,-2.952 v -0.72 -0.432 l -0.216,-2.735 -0.432,-2.233 -0.576,-1.871 -0.72,-1.44 -1.008,-1.081 -0.936,-0.864 -1.08,-0.504 z" style="fill:#000000;fill-opacity:1;fill-rule:nonzero;stroke:none" id="path1818"/>
  </g>
</svg>