<?xml version="1.0" encoding="utf-8"?>
<svg viewBox="2092.3816 532.6849 209.376 296.8319" xmlns="http://www.w3.org/2000/svg">
  <g id="g1856" transform="matrix(1.3333330154418945, 0, 0, -1.3333330154418945, 2100.445499490161, 532.6849606193683)">
    <path d="m 0,0 h 145.009 l 2.304,-0.648 1.944,-1.872 1.223,-2.664 0.504,-3.384 v -205.56 l -0.504,-3.312 -1.223,-2.664 -1.944,-1.872 -2.304,-0.648 H 0 l -2.376,0.648 -1.872,1.872 -1.296,2.664 -0.504,3.312 v 205.56 l 0.504,3.384 1.296,2.664 1.872,1.872 z" style="fill:#000000;fill-opacity:1;fill-rule:nonzero;stroke:none" id="path1858"/>
  </g>
  <g id="g1860" transform="matrix(1.3333330154418945, 0, 0, -1.3333330154418945, 2103.422061280493, 537.3892238207009)">
    <path d="m 0,0 h 140.472 l 2.304,-0.576 1.799,-1.8 1.297,-2.592 0.504,-3.24 v -199.224 l -0.504,-3.168 -1.297,-2.664 -1.799,-1.728 -2.304,-0.648 H 0 l -2.232,0.648 -1.872,1.728 -1.224,2.664 -0.433,3.168 V -8.208 l 0.433,3.24 1.224,2.592 1.872,1.8 z" style="fill:#ffffff;fill-opacity:1;fill-rule:nonzero;stroke:none" id="path1862"/>
  </g>
  <path d="m 1566.105,856.934 h 2.088 v 20.808 h -2.088 z m 10.8,-10.44 v -5.905 l -1.223,-0.287 -1.297,0.287 -1.008,0.648 -0.648,1.009 -0.288,1.296 v 0.144 l -0.072,0.144 -0.504,-2.088 0.864,-3.456 h -2.736 l 1.009,3.456 -0.648,2.088 v -0.144 -0.144 l -0.217,-1.296 -0.648,-1.009 -1.008,-0.648 -1.295,-0.287 -1.296,0.287 -1.009,0.648 -0.648,1.009 -0.288,1.296 0.288,1.296 0.648,1.008 1.009,0.648 1.296,0.288 0.648,-0.072 0.575,-0.216 0.576,-0.288 0.504,-0.36 0.216,0.144 h 0.145 l 0.143,0.36 -0.792,0.432 -0.504,0.648 -0.359,0.864 -0.145,0.935 0.288,1.225 0.649,1.08 1.079,0.648 1.225,0.288 1.295,-0.288 0.937,-0.648 0.719,-1.08 0.217,-1.225 -0.432,-1.583 -1.152,-1.224 0.071,-0.288 0.144,-0.144 h 0.288 l 0.504,0.287 0.504,0.217 0.504,0.216 0.649,0.072 z m 0,32.111 v -2.447 l -1.511,-0.576 -1.009,-1.584 -0.719,-2.665 -0.217,-3.744 0.145,-2.303 0.287,-1.944 0.576,-1.512 0.648,-1.152 0.432,-0.361 0.432,-0.359 0.505,-0.145 0.431,-0.071 v -2.448 h -0.071 -0.576 l -0.576,0.144 -0.505,0.215 -0.575,0.289 -0.504,0.287 -0.432,0.505 -0.433,0.503 -0.504,0.576 -0.648,1.513 -0.504,1.799 -0.36,2.017 -0.144,2.447 0.144,2.521 0.144,2.16 0.504,1.944 0.576,1.584 0.432,0.647 0.36,0.576 0.504,0.505 0.504,0.36 0.649,0.36 0.575,0.216 0.648,0.072 0.721,0.071 z m 0,-38.016 v 5.905 l 1.08,-0.648 0.648,-1.008 0.289,-1.296 -0.289,-1.296 -0.648,-1.009 z m 4.752,-124.487 v -6.984 l -0.216,0.36 -0.648,3.168 0.648,3.096 z m 0,48.815 v -6.983 l -0.216,0.359 -0.648,3.097 0.648,3.168 z m 0,40.681 v -7.056 l -0.216,0.36 -0.648,3.167 0.648,3.168 z m 0,48.744 v -6.985 l -0.216,0.361 -0.648,3.168 0.648,3.095 z m 0,20.16 V 861.47 l -0.071,-0.36 -0.793,-1.44 -0.504,-0.504 -0.432,-0.504 -0.431,-0.504 -0.504,-0.36 -0.504,-0.216 -0.576,-0.144 -0.504,-0.144 h -0.433 v 2.448 l 0.433,0.071 0.504,0.145 0.431,0.288 0.36,0.359 0.721,1.081 0.503,1.512 0.36,1.944 0.072,2.303 v 2.593 l -0.287,2.087 -0.505,1.729 -0.647,1.296 -0.432,0.432 -0.433,0.36 -0.504,0.144 -0.576,0.072 v 2.447 l 0.865,-0.071 0.863,-0.144 0.721,-0.432 0.719,-0.577 0.576,-0.719 0.504,-0.792 0.433,-1.009 z m 0,-13.032 0.432,1.44 0.288,2.159 0.144,2.52 -0.144,3.385 -0.504,2.808 -0.216,0.72 z m 35.569,-145.224 v -7.2 l -1.441,-2.16 -2.592,-1.801 -3.095,-0.575 -1.584,0.144 -1.512,0.431 -1.369,0.792 -1.224,0.865 -0.575,-0.144 -0.505,-0.216 -0.216,-0.792 1.8,-1.152 1.441,-1.656 0.935,-2.016 0.288,-2.305 -0.575,-3.095 -1.729,-2.52 -2.591,-1.8 -3.096,-0.576 -3.24,0.576 -2.449,1.8 -1.799,2.52 -0.649,3.095 0.288,2.161 0.792,1.8 1.296,1.727 1.656,1.225 -0.143,0.576 -0.504,0.432 -0.648,0.216 -1.153,-0.865 -1.223,-0.648 -1.441,-0.431 -1.512,-0.144 -3.096,0.575 -2.52,1.801 -1.584,2.232 v 6.984 l 1.584,2.231 2.52,1.729 3.096,0.647 3.096,-0.647 2.593,-1.729 1.655,-2.591 0.649,-3.096 v -0.432 l 0.143,-0.432 1.224,1.656 0.217,3.671 -0.72,4.537 -1.729,3.959 h 7.128 l -1.728,-3.959 -0.791,-4.464 0.287,-3.744 1.152,-1.656 v 0.432 0.432 l 0.649,3.096 1.727,2.591 2.593,1.729 3.096,0.647 3.095,-0.647 2.592,-1.729 z m 0,26.567 -0.288,-0.431 -0.649,-3.168 0.649,-3.168 0.288,-0.432 z m 0,22.177 v -7.2 l -1.441,-2.088 -2.592,-1.801 -3.095,-0.575 -1.584,0.144 -1.512,0.431 -1.369,0.721 -1.224,0.864 -0.575,-0.144 -0.505,-0.217 -0.216,-0.719 1.8,-1.224 1.441,-1.657 0.935,-1.943 0.288,-2.304 -0.575,-3.096 -1.729,-2.592 -2.591,-1.8 -3.096,-0.576 -3.24,0.576 -2.449,1.8 -1.799,2.592 -0.649,3.096 0.288,2.088 0.792,1.872 1.296,1.656 1.656,1.224 -0.143,0.648 -0.504,0.432 -0.648,0.216 -1.153,-0.864 -1.223,-0.72 -1.441,-0.36 -1.512,-0.144 -3.096,0.575 -2.52,1.801 -1.584,2.232 v 6.983 l 1.584,2.161 2.52,1.728 3.096,0.648 3.096,-0.648 2.593,-1.728 1.655,-2.52 0.649,-3.168 v -0.36 l 0.143,-0.432 1.224,1.656 0.217,3.672 -0.72,4.464 -1.729,3.96 h 7.128 l -1.728,-3.96 -0.791,-4.464 0.287,-3.672 1.152,-1.656 v 0.432 0.36 l 0.649,3.168 1.727,2.52 2.593,1.728 3.096,0.648 3.095,-0.648 2.592,-1.728 z m 0,40.536 -1.584,2.16 -2.593,1.799 -3.024,0.577 -1.511,-0.144 -1.368,-0.433 -1.369,-0.647 -1.08,-0.864 -0.719,0.215 -0.432,0.433 -0.217,0.576 1.656,1.296 1.296,1.728 0.865,1.799 0.215,2.089 -0.576,3.096 -1.8,2.664 -2.448,1.656 -3.168,0.647 -3.023,-0.647 -2.664,-1.656 -1.729,-2.664 -0.576,-3.096 0.36,-2.233 0.792,-2.016 1.512,-1.655 1.801,-1.225 -0.289,-0.792 -0.432,-0.143 -0.575,-0.216 -1.225,0.863 -1.368,0.792 -1.512,0.433 -1.584,0.144 -3.096,-0.577 -2.52,-1.799 -1.584,-2.088 v -7.056 l 1.584,-2.161 2.52,-1.728 3.096,-0.647 3.096,0.647 2.593,1.728 1.655,2.521 0.649,3.167 v 0.361 0.36 l 1.223,-1.584 0.288,-3.672 -0.719,-4.392 -1.8,-4.032 h 7.055 l -1.727,4.032 -0.649,4.463 0.216,3.601 1.153,1.584 0.071,-0.36 v -0.361 l 0.648,-3.167 1.729,-2.521 2.519,-1.728 3.168,-0.647 3.024,0.647 2.593,1.728 1.584,2.233 z m 0,22.247 v -7.127 l -0.288,0.504 -0.649,3.096 0.649,3.096 z m 0,26.497 v -6.84 l -1.584,-2.232 -2.593,-1.728 -3.024,-0.72 -3.168,0.72 -2.519,1.728 -1.729,2.52 -0.648,3.168 v 0.36 l -0.071,0.288 -1.153,-1.584 -0.216,-3.6 0.649,-4.464 1.727,-3.96 h -7.055 l 1.8,3.96 0.719,4.464 -0.288,3.6 -1.223,1.584 v -0.288 -0.36 l -0.649,-3.168 -1.655,-2.52 -2.593,-1.728 -3.096,-0.72 -3.096,0.72 -2.52,1.728 -1.584,2.159 v 6.985 l 1.584,2.16 2.52,1.727 3.096,0.577 1.584,-0.144 1.512,-0.433 1.368,-0.719 1.225,-0.864 0.575,0.144 0.432,0.216 0.289,0.792 -1.801,1.152 -1.512,1.655 -0.792,2.017 -0.36,2.232 0.576,3.096 1.729,2.664 2.664,1.728 3.023,0.575 3.168,-0.575 2.448,-1.728 1.8,-2.664 0.576,-3.096 -0.215,-2.016 -0.865,-1.873 -1.296,-1.655 -1.656,-1.296 0.217,-0.576 0.432,-0.504 0.719,-0.144 1.08,0.863 1.369,0.649 1.368,0.36 1.511,0.144 3.024,-0.577 2.593,-1.727 z m 0,-6.84 v 6.84 l 0.215,-0.289 0.577,-3.095 -0.577,-3.168 z m 0,-48.816 v 6.912 l 0.215,-0.289 0.577,-3.168 -0.577,-3.167 z m 0,-40.824 v 7.2 l 0.288,-0.432 0.575,-3.168 -0.575,-3.097 z m 0,-48.744 v 7.2 l 0.288,-0.504 0.575,-3.096 -0.575,-3.168 z m 35.423,7.2 v -7.272 l -0.36,0.504 -0.575,3.168 0.575,3.096 z m 0,26.64 v -7.272 l -1.44,-2.089 -2.52,-1.727 -3.168,-0.649 -1.583,0.144 -1.512,0.505 -1.296,0.648 -1.296,0.936 -0.576,-0.216 -0.433,-0.216 -0.288,-0.721 1.801,-1.223 1.439,-1.656 0.865,-2.017 0.36,-2.231 -0.576,-3.168 -1.729,-2.448 -2.592,-1.8 -3.095,-0.648 -3.168,0.648 -2.521,1.8 -1.8,2.448 -0.576,3.168 0.288,2.087 0.792,1.801 1.225,1.656 1.655,1.295 -0.071,0.649 -0.505,0.431 -0.647,0.217 -1.153,-0.864 -1.296,-0.72 -1.44,-0.361 -1.512,-0.144 -3.095,0.649 -2.521,1.727 -1.439,2.089 v 7.199 l 1.439,2.088 2.521,1.729 3.095,0.72 3.168,-0.72 2.592,-1.729 1.656,-2.519 0.649,-3.168 v -0.432 l 0.072,-0.36 1.224,1.656 0.288,3.672 -0.793,4.464 -1.728,4.032 h 7.128 l -1.8,-4.032 -0.719,-4.464 0.288,-3.672 1.151,-1.656 v 0.36 0.432 l 0.72,3.168 1.657,2.519 2.592,1.729 3.095,0.72 3.168,-0.72 2.52,-1.729 z m 0,22.104 v -7.2 l -0.36,0.503 -0.575,3.097 0.575,3.168 z m 0,40.68 v -7.2 l -0.36,0.432 -0.575,3.167 0.575,3.168 z m 0,21.96 v -6.769 l -1.512,-2.376 -2.591,-1.655 -3.169,-0.648 -3.096,0.648 -2.52,1.655 -1.728,2.665 -0.648,3.096 v 0.432 l -0.072,0.216 -1.152,-1.513 -0.216,-3.599 0.649,-4.536 1.727,-3.96 h -6.983 l 1.799,3.96 0.648,4.464 -0.288,3.671 -1.151,1.513 v -0.216 -0.432 l -0.649,-3.096 -1.656,-2.665 -2.592,-1.655 -3.168,-0.648 -3.095,0.648 -2.521,1.655 -1.439,2.161 v 7.127 l 1.439,2.161 2.521,1.728 3.095,0.575 1.657,-0.143 1.511,-0.432 1.296,-0.72 1.296,-0.936 0.576,0.144 0.361,0.288 0.36,0.72 -1.801,1.152 -1.512,1.728 -0.864,1.943 -0.36,2.305 0.648,3.095 1.728,2.665 2.593,1.656 3.095,0.648 3.025,-0.648 2.591,-1.656 1.656,-2.665 0.648,-3.095 -0.288,-2.088 -0.72,-1.872 -1.296,-1.656 -1.656,-1.225 0.072,-0.647 0.504,-0.504 0.72,-0.144 1.009,0.864 1.367,0.648 1.441,0.432 1.439,0.143 3.169,-0.575 2.591,-1.728 z m 0,26.784 v -7.128 l -0.36,0.432 -0.575,3.168 0.575,3.095 z m 0,-33.553 0.144,0.289 0.648,3.096 -0.648,3.096 -0.144,0.288 z m 0,-85.247 0.289,0.432 0.648,3.168 -0.648,3.168 -0.289,0.504 z m 35.785,-19.872 -1.729,2.591 -2.592,1.729 -3.168,0.647 -3.023,-0.647 -2.593,-1.729 -1.727,-2.591 -0.649,-3.096 v -0.432 -0.432 l -1.224,1.656 -0.215,3.744 0.719,4.464 1.8,3.959 h -7.199 l 1.799,-3.959 0.721,-4.537 -0.217,-3.671 -1.295,-1.656 v 0.432 0.432 l -0.721,3.096 -1.727,2.591 -2.521,1.729 -3.096,0.647 -3.095,-0.647 -2.593,-1.729 -1.44,-2.087 v -7.272 l 1.44,-2.088 2.593,-1.801 3.095,-0.575 1.512,0.144 1.44,0.431 1.224,0.648 1.152,0.865 0.649,-0.216 0.504,-0.432 0.071,-0.576 -1.584,-1.225 -1.296,-1.727 -0.863,-1.8 -0.217,-2.161 0.576,-3.095 1.8,-2.52 2.593,-1.8 3.096,-0.576 3.095,0.576 2.664,1.8 1.729,2.52 0.575,3.095 -0.36,2.305 -0.864,2.016 -1.439,1.656 -1.801,1.152 0.217,0.792 0.504,0.216 0.575,0.144 1.224,-0.865 1.44,-0.792 1.441,-0.431 1.511,-0.144 3.168,0.575 2.592,1.801 1.729,2.592 z m 0,48.816 v -6.265 l -1.729,-2.591 -2.592,-1.801 -3.168,-0.575 -1.511,0.144 -1.441,0.431 -1.44,0.721 -1.224,0.864 -0.575,-0.144 -0.504,-0.217 -0.217,-0.719 1.801,-1.224 1.439,-1.657 0.864,-1.943 0.36,-2.304 -0.575,-3.096 -1.729,-2.592 -2.664,-1.8 -3.095,-0.576 -3.096,0.576 -2.593,1.8 -1.8,2.592 -0.576,3.096 0.217,2.088 0.863,1.872 1.296,1.656 1.584,1.224 -0.071,0.648 -0.504,0.432 -0.649,0.216 -1.152,-0.864 -1.224,-0.72 -1.44,-0.36 -1.512,-0.144 -3.095,0.575 -2.593,1.801 -1.44,2.088 v 7.2 l 1.44,2.088 2.593,1.728 3.095,0.648 3.096,-0.648 2.521,-1.728 1.727,-2.52 0.721,-3.168 v -0.36 -0.432 l 1.295,1.656 0.217,3.672 -0.721,4.464 -1.799,3.96 h 7.199 l -1.8,-3.96 -0.719,-4.464 0.215,-3.672 1.224,-1.656 v 0.432 0.36 l 0.649,3.168 1.727,2.52 2.593,1.728 3.023,0.648 3.168,-0.648 2.592,-1.728 z m 0,40.104 v -5.256 l -0.145,-0.504 -1.656,-2.521 -2.664,-1.728 -3.024,-0.647 -3.168,0.647 -2.591,1.728 -1.657,2.521 -0.648,3.167 v 0.361 l -0.144,0.36 -1.151,-1.584 -0.145,-3.601 0.648,-4.463 1.656,-4.032 h -6.984 l 1.728,4.032 0.792,4.392 -0.288,3.672 -1.151,1.584 v -0.36 -0.361 l -0.721,-3.167 -1.727,-2.521 -2.521,-1.728 -3.096,-0.647 -3.095,0.647 -2.593,1.728 -1.44,2.089 v 7.2 l 1.44,2.016 2.593,1.799 3.095,0.577 1.584,-0.144 1.512,-0.433 1.368,-0.792 1.153,-0.863 0.647,0.216 0.433,0.143 0.287,0.792 -1.871,1.225 -1.441,1.655 -0.863,2.016 -0.36,2.233 0.647,3.096 1.729,2.664 2.591,1.656 3.096,0.647 3.096,-0.647 2.593,-1.656 1.655,-2.664 0.648,-3.096 -0.288,-2.089 -0.792,-1.799 -1.223,-1.728 -1.728,-1.296 0.144,-0.576 0.503,-0.433 0.649,-0.215 1.079,0.864 1.368,0.647 1.441,0.433 1.511,0.144 3.024,-0.577 2.664,-1.799 1.656,-2.449 z m 0,48.816 v -5.256 l -0.145,-0.504 -1.656,-2.52 -2.664,-1.728 -3.024,-0.72 -3.168,0.72 -2.591,1.728 -1.657,2.52 -0.648,3.168 v 0.36 l -0.144,0.288 -1.151,-1.584 -0.145,-3.6 0.648,-4.464 1.656,-3.96 h -6.984 l 1.728,3.96 0.792,4.464 -0.288,3.6 -1.151,1.584 v -0.288 -0.36 l -0.721,-3.168 -1.727,-2.52 -2.521,-1.728 -3.096,-0.72 -3.095,0.72 -2.593,1.728 -1.44,2.088 v 7.128 l 1.44,2.088 2.593,1.727 3.095,0.577 1.584,-0.144 1.512,-0.433 1.368,-0.719 1.153,-0.864 0.647,0.144 0.433,0.216 0.287,0.792 -1.871,1.152 -1.441,1.655 -0.863,2.017 -0.36,2.232 0.647,3.096 1.729,2.664 2.591,1.728 3.096,0.575 3.096,-0.575 2.593,-1.728 1.655,-2.664 0.648,-3.096 -0.288,-2.016 -0.792,-1.873 -1.223,-1.655 -1.728,-1.296 0.144,-0.576 0.503,-0.504 0.649,-0.144 1.079,0.863 1.368,0.649 1.441,0.36 1.511,0.144 3.024,-0.577 2.664,-1.727 1.656,-2.521 z m 0,-169.632 -0.217,0.648 -0.287,2.16 -0.145,2.448 0.145,3.456 0.504,2.735 z m 0,164.376 v 5.256 l 0.504,-2.592 z m 0,-48.816 v 5.256 l 0.504,-2.593 z m 0,-41.113 v 6.265 l 0.576,-3.168 z m 0,-48.815 v 6.264 l 0.576,-3.096 z m 4.967,9.216 v -6.552 l -1.296,0.288 -1.007,0.648 -0.721,1.007 -0.288,1.369 0.288,1.296 0.721,0.936 1.007,0.647 z m 0,-39.888 -0.504,0.071 -0.503,0.073 -0.504,0.216 -0.505,0.216 -0.504,0.36 -0.504,0.432 -0.432,0.504 -0.431,0.576 -0.721,1.44 -0.359,1.152 v 11.447 l 0.359,1.153 0.288,1.008 0.505,0.792 0.647,0.72 0.648,0.576 0.864,0.359 0.792,0.217 0.864,0.071 v -2.447 h -0.072 -0.575 l -0.504,-0.288 -0.36,-0.36 -0.433,-0.361 -0.647,-1.295 -0.504,-1.729 -0.217,-2.087 -0.144,-2.592 0.144,-2.304 0.288,-1.944 0.576,-1.512 0.649,-1.081 0.431,-0.359 0.432,-0.288 0.432,-0.145 0.432,-0.071 h 0.072 z m 10.657,-0.288 h -2.017 v 20.808 h 2.017 z m -10.657,33.624 v 6.552 l 1.224,-0.361 1.008,-0.647 0.721,-0.936 0.288,-1.296 v -0.216 -0.144 l 0.647,2.088 -1.008,3.456 h 2.737 l -0.937,-3.456 0.505,-2.088 0.071,0.144 v 0.216 l 0.288,1.296 0.649,0.936 1.008,0.647 1.295,0.361 1.296,-0.361 1.008,-0.647 0.721,-0.936 0.215,-1.296 -0.215,-1.369 -0.721,-1.007 -1.008,-0.648 -1.296,-0.288 h -0.647 l -0.505,0.144 -0.504,0.36 -0.504,0.288 h -0.36 l -0.144,-0.216 v -0.288 l 1.152,-1.08 0.432,-1.656 -0.288,-1.297 -0.648,-1.007 -0.936,-0.721 -1.296,-0.287 -1.223,0.287 -1.08,0.721 -0.721,1.007 -0.216,1.297 0.072,0.936 0.432,0.792 0.576,0.648 0.792,0.504 -0.144,0.36 h -0.144 l -0.36,0.072 -0.503,-0.36 -0.505,-0.216 -0.504,-0.288 z m 5.832,-23.04 -0.144,-2.376 -0.36,-2.088 -0.503,-1.728 -0.72,-1.513 -0.433,-0.575 -0.431,-0.505 -0.505,-0.504 -0.504,-0.359 -0.503,-0.288 -0.505,-0.216 -0.647,-0.073 -0.504,-0.071 h -0.073 v 2.52 l 0.433,0.071 0.504,0.145 0.432,0.288 0.36,0.432 0.72,1.08 0.576,1.584 0.359,1.872 0.072,2.376 -0.215,3.816 -0.649,2.592 -1.08,1.656 -1.512,0.504 v 2.447 h 0.073 l 0.719,-0.071 0.649,-0.072 0.647,-0.216 0.504,-0.36 0.576,-0.361 0.504,-0.504 0.361,-0.575 0.431,-0.72 0.576,-1.512 0.504,-2.016 0.216,-2.088 z" style="fill:#000000;fill-opacity:1;fill-rule:nonzero;stroke:none" id="path1864" transform="matrix(1.3333330154418945, 0, 0, -1.3333330154418945, 17.00979830339236, 1720.8630627522327)"/>
</svg>