<?xml version="1.0" encoding="utf-8"?>
<svg viewBox="2092.3816 874.349 209.376 296.7373" xmlns="http://www.w3.org/2000/svg">
  <g id="g3138" transform="matrix(1.3333330154418945, 0, 0, -1.3333330154418945, 2100.445499490161, 874.3490230404968)">
    <path d="m 0,0 h 145.009 l 2.304,-0.647 1.944,-1.874 1.223,-2.664 0.504,-3.383 v -205.489 l -0.504,-3.239 -1.223,-2.736 -1.944,-1.872 -2.304,-0.649 H 0 l -2.376,0.649 -1.872,1.872 -1.296,2.736 -0.504,3.239 V -8.568 l 0.504,3.383 1.296,2.664 1.872,1.874 z" style="fill:#000000;fill-opacity:1;fill-rule:nonzero;stroke:none" id="path3140"/>
  </g>
  <g id="g3142" transform="matrix(1.3333330154418945, 0, 0, -1.3333330154418945, 2103.422061280493, 879.0533676220185)">
    <path d="m 0,0 h 140.472 l 2.304,-0.576 1.799,-1.8 1.297,-2.592 0.504,-3.24 v -199.151 l -0.504,-3.169 -1.297,-2.592 -1.799,-1.8 -2.304,-0.648 H 0 l -2.232,0.648 -1.872,1.8 -1.224,2.592 -0.433,3.169 V -8.208 l 0.433,3.24 1.224,2.592 1.872,1.8 z" style="fill:#ffffff;fill-opacity:1;fill-rule:nonzero;stroke:none" id="path3144"/>
  </g>
  <path d="m 1566.105,601.189 h 2.088 v 20.736 h -2.088 z m 9.577,-4.607 v -11.881 l -1.441,-2.088 -1.08,-3.311 -1.08,3.311 -2.376,3.529 -2.376,3.671 -1.152,3.457 0.36,1.368 0.649,1.08 1.007,0.792 1.296,0.288 1.225,-0.216 1.151,-0.721 0.721,-1.08 0.287,-1.295 v -0.793 l 0.288,-0.143 0.288,0.143 v 0.793 l 0.288,1.295 0.792,1.08 z m 0,25.775 v -2.447 l -1.441,-0.504 -1.08,-1.584 -0.647,-2.664 -0.216,-3.744 0.143,-2.305 0.288,-2.015 0.504,-1.512 0.72,-1.152 0.432,-0.36 0.36,-0.361 0.505,-0.144 0.432,-0.071 v -2.448 l -0.577,0.071 -0.576,0.072 -0.504,0.217 -0.576,0.287 -0.504,0.288 -0.431,0.505 -0.433,0.504 -0.504,0.575 -0.647,1.513 -0.576,1.799 -0.361,2.089 -0.143,2.376 0.143,2.519 0.216,2.16 0.505,1.945 0.575,1.584 0.432,0.72 0.36,0.503 0.505,0.504 0.503,0.432 0.577,0.361 0.575,0.144 0.72,0.143 z m 20.664,-20.951 v 1.656 l -0.504,2.807 -1.729,2.233 -2.376,1.511 -2.664,0.504 -2.592,-0.647 -2.16,-1.513 -1.44,-2.375 -0.575,-2.881 0.575,-3.527 1.656,-3.744 2.305,-3.817 2.735,-3.887 2.664,-3.888 2.305,-3.744 1.8,-3.672 0.647,-3.313 0.721,3.313 1.655,3.672 2.376,3.744 2.593,3.888 2.664,3.887 2.375,3.817 1.656,3.744 0.649,3.527 -0.649,2.881 -1.368,2.375 -2.159,1.513 -2.664,0.647 -2.665,-0.504 -2.304,-1.511 -1.656,-2.233 -0.72,-2.807 v -1.656 l -0.504,-0.289 z m 0,-48.744 v 1.655 l -0.504,2.808 -1.729,2.232 -2.376,1.441 -2.664,0.575 -2.592,-0.647 -2.16,-1.584 -1.44,-2.376 -0.575,-2.88 0.575,-3.456 1.656,-3.744 2.305,-3.816 2.735,-3.889 2.664,-3.887 2.305,-3.744 1.8,-3.6 0.647,-3.312 0.721,3.312 1.655,3.6 2.376,3.744 2.593,3.887 2.664,3.889 2.375,3.816 1.656,3.744 0.649,3.456 -0.649,2.88 -1.368,2.376 -2.159,1.584 -2.664,0.647 -2.665,-0.504 -2.304,-1.512 -1.656,-2.232 -0.72,-2.808 v -1.655 l -0.504,-0.289 z m 0,-59.4 v -1.657 l -0.504,-2.807 -1.729,-2.233 -2.376,-1.44 -2.664,-0.575 -2.592,0.647 -2.16,1.584 -1.44,2.305 -0.575,2.88 0.575,3.528 1.656,3.743 2.305,3.744 2.735,3.96 2.664,3.817 2.305,3.744 1.8,3.527 0.647,3.384 0.721,-3.384 1.655,-3.527 2.376,-3.744 2.593,-3.817 2.664,-3.96 2.375,-3.744 1.656,-3.743 0.649,-3.528 -0.649,-2.88 -1.368,-2.305 -2.159,-1.584 -2.664,-0.647 -2.665,0.504 -2.304,1.511 -1.656,2.233 -0.72,2.807 v 1.657 l -0.504,0.359 z m 0,-48.817 v -1.656 l -0.504,-2.808 -1.729,-2.16 -2.376,-1.511 -2.664,-0.504 -2.592,0.576 -2.16,1.584 -1.44,2.376 -0.575,2.88 0.575,3.456 1.656,3.744 2.305,3.815 2.735,3.888 2.664,3.816 2.305,3.745 1.8,3.6 0.647,3.312 0.721,-3.312 1.655,-3.6 2.376,-3.745 2.593,-3.816 2.664,-3.888 2.375,-3.815 1.656,-3.744 0.649,-3.456 -0.649,-2.88 -1.368,-2.376 -2.159,-1.584 -2.664,-0.576 -2.665,0.504 -2.304,1.511 -1.656,2.16 -0.72,2.808 v 1.656 l -0.504,0.361 z m 38.088,128.521 v 1.655 l -0.649,2.809 -1.655,2.232 -2.376,1.44 -2.665,0.576 -2.592,-0.576 -2.159,-1.584 -1.441,-2.448 -0.576,-2.808 0.648,-3.6 1.656,-3.672 2.232,-3.816 2.737,-3.889 2.664,-3.888 2.375,-3.671 1.656,-3.601 0.721,-3.383 0.647,3.383 1.656,3.601 2.376,3.671 2.665,3.888 2.664,3.889 2.303,3.816 1.657,3.672 0.647,3.6 -0.576,2.808 -1.367,2.448 -2.233,1.584 -2.592,0.576 -2.664,-0.504 -2.376,-1.512 -1.656,-2.232 -0.647,-2.809 v -1.655 l -0.504,-0.361 z m 0,-94.824 v -1.656 l -0.649,-2.881 -1.655,-2.16 -2.376,-1.511 -2.665,-0.504 -2.592,0.648 -2.159,1.512 -1.441,2.376 -0.576,2.88 0.648,3.527 1.656,3.673 2.232,3.888 2.737,3.816 2.664,3.888 2.375,3.744 1.656,3.599 0.721,3.312 0.647,-3.312 1.656,-3.599 2.376,-3.744 2.665,-3.888 2.664,-3.816 2.303,-3.888 1.657,-3.673 0.647,-3.527 -0.576,-2.88 -1.367,-2.376 -2.233,-1.512 -2.592,-0.648 -2.664,0.504 -2.376,1.511 -1.656,2.16 -0.647,2.881 v 1.656 l -0.504,0.288 z m 38.16,123.264 v 1.656 l -0.576,2.807 -1.657,2.233 -2.376,1.511 -2.664,0.504 -2.592,-0.647 -2.16,-1.513 -1.439,-2.375 -0.577,-2.881 0.577,-3.527 1.655,-3.744 2.304,-3.817 2.736,-3.887 2.664,-3.888 2.304,-3.744 1.728,-3.672 0.649,-3.313 0.72,3.313 1.656,3.672 2.447,3.744 2.593,3.888 2.664,3.887 2.375,3.817 1.656,3.744 0.576,3.527 -0.576,2.881 -1.439,2.375 -2.16,1.513 -2.593,0.647 -2.663,-0.504 -2.377,-1.511 -1.655,-2.233 -0.649,-2.807 v -1.656 l -0.575,-0.289 z m 0,-48.744 v 1.655 l -0.576,2.808 -1.657,2.232 -2.376,1.441 -2.664,0.575 -2.592,-0.647 -2.16,-1.584 -1.439,-2.376 -0.577,-2.88 0.577,-3.456 1.655,-3.744 2.304,-3.816 2.736,-3.889 2.664,-3.887 2.304,-3.744 1.728,-3.6 0.649,-3.312 0.72,3.312 1.656,3.6 2.447,3.744 2.593,3.887 2.664,3.889 2.375,3.816 1.656,3.744 0.576,3.456 -0.576,2.88 -1.439,2.376 -2.16,1.584 -2.593,0.647 -2.663,-0.504 -2.377,-1.512 -1.655,-2.232 -0.649,-2.808 v -1.655 l -0.575,-0.289 z m 0,-59.4 v -1.657 l -0.576,-2.807 -1.657,-2.233 -2.376,-1.44 -2.664,-0.575 -2.592,0.647 -2.16,1.584 -1.439,2.305 -0.577,2.88 0.577,3.528 1.655,3.743 2.304,3.744 2.736,3.96 2.664,3.817 2.304,3.744 1.728,3.527 0.649,3.384 0.72,-3.384 1.656,-3.527 2.447,-3.744 2.593,-3.817 2.664,-3.96 2.375,-3.744 1.656,-3.743 0.576,-3.528 -0.576,-2.88 -1.439,-2.305 -2.16,-1.584 -2.593,-0.647 -2.663,0.504 -2.377,1.511 -1.655,2.233 -0.649,2.807 v 1.657 l -0.575,0.359 z m 0,-48.817 v -1.656 l -0.576,-2.808 -1.657,-2.16 -2.376,-1.511 -2.664,-0.504 -2.592,0.576 -2.16,1.584 -1.439,2.376 -0.577,2.88 0.577,3.456 1.655,3.744 2.304,3.815 2.736,3.888 2.664,3.816 2.304,3.745 1.728,3.6 0.649,3.312 0.72,-3.312 1.656,-3.6 2.447,-3.745 2.593,-3.816 2.664,-3.888 2.375,-3.815 1.656,-3.744 0.576,-3.456 -0.576,-2.88 -1.439,-2.376 -2.16,-1.584 -2.593,-0.576 -2.663,0.504 -2.377,1.511 -1.655,2.16 -0.649,2.808 v 1.656 l -0.575,0.361 z m -96.912,156.601 v 2.448 h 0.072 l 0.432,0.071 0.503,0.144 0.432,0.289 0.36,0.359 0.72,1.081 0.504,1.583 0.36,1.945 0.072,2.304 v 2.519 l -0.287,2.088 -0.504,1.728 -0.649,1.296 -0.431,0.505 -0.432,0.287 -0.505,0.217 h -0.575 -0.072 v 2.447 h 0.935 l 0.792,-0.215 0.792,-0.433 0.649,-0.504 0.647,-0.791 0.505,-0.793 0.359,-1.008 0.36,-1.08 0.505,-2.807 0.072,-3.384 -0.072,-2.52 -0.288,-2.16 -0.577,-1.801 -0.719,-1.439 -0.505,-0.504 -0.432,-0.504 -0.432,-0.504 -0.503,-0.289 -0.504,-0.287 -0.577,-0.145 -0.503,-0.072 z m 0,-16.345 v 11.881 l 1.223,0.216 1.225,-0.288 1.007,-0.792 0.648,-1.08 0.361,-1.368 -1.081,-3.457 -2.376,-3.671 z M 1695.418,460.07 v -10.873 l -0.576,-0.072 -1.225,0.217 -1.008,0.792 -0.719,1.152 -0.288,1.368 1.08,3.383 2.448,3.601 z m 0,-15.912 -0.505,-0.072 -0.504,-0.145 -0.575,-0.143 -0.505,-0.216 -0.504,-0.36 -0.431,-0.433 -0.433,-0.503 -0.432,-0.577 -0.719,-1.367 -0.577,-1.801 -0.288,-2.231 -0.144,-2.521 0.144,-3.383 0.432,-2.736 0.36,-1.152 0.361,-1.008 0.504,-0.792 0.648,-0.72 0.647,-0.576 0.792,-0.432 0.792,-0.144 0.937,-0.073 v 2.449 h -0.072 l -0.576,0.071 -0.504,0.217 -0.432,0.288 -0.36,0.431 -0.72,1.296 -0.504,1.729 -0.145,2.088 -0.144,2.592 0.144,2.303 0.289,1.945 0.575,1.511 0.648,1.153 0.361,0.288 0.503,0.36 0.432,0.144 h 0.433 0.072 z m 9.575,-0.217 h -2.088 v -20.736 h 2.088 z m -9.575,5.256 v 10.873 l 2.016,3.167 1.152,3.241 1.079,-3.241 2.376,-3.599 2.377,-3.601 1.008,-3.383 -0.217,-1.368 -0.647,-1.152 -1.009,-0.792 -1.224,-0.217 -1.296,0.217 -1.152,0.648 -0.792,1.152 -0.216,1.296 v 0.791 l -0.287,0.144 -0.36,-0.144 v -0.791 l -0.216,-1.296 -0.721,-1.152 -1.152,-0.648 z m 5.832,-15.408 -0.145,2.448 -0.36,2.089 -0.504,1.799 -0.72,1.44 -0.432,0.577 -0.503,0.576 -0.433,0.431 -0.504,0.289 -0.503,0.36 -0.577,0.143 -0.576,0.145 -0.504,0.072 h -0.071 v -2.52 h 0.432 l 0.504,-0.144 0.431,-0.36 0.361,-0.433 0.719,-1.08 0.576,-1.584 0.288,-1.871 0.144,-2.377 -0.287,-3.743 -0.648,-2.664 -1.008,-1.584 -1.512,-0.576 v -2.449 h 0.071 l 0.648,0.073 0.72,0.144 0.577,0.144 0.576,0.36 0.576,0.36 0.503,0.503 0.288,0.577 0.433,0.72 0.575,1.583 0.505,1.945 0.287,2.16 z" style="fill:#ff0000;fill-opacity:1;fill-rule:nonzero;stroke:none" id="path3146" transform="matrix(1.3333330154418945, 0, 0, -1.3333330154418945, 17.00979830339236, 1720.8630627522327)"/>
</svg>