<?xml version="1.0" encoding="utf-8"?>
<svg viewBox="2092.3816 1216.3007 209.376 296.7359" xmlns="http://www.w3.org/2000/svg">
  <g id="g3972" transform="matrix(1.3333330154418945, 0, 0, -1.3333330154418945, 2100.445499490161, 1216.3006423592124)">
    <path d="m 0,0 h 145.009 l 2.304,-0.648 1.944,-1.8 1.223,-2.737 0.504,-3.311 v -205.56 l -0.504,-3.312 -1.223,-2.664 -1.944,-1.872 -2.304,-0.648 H 0 l -2.376,0.648 -1.872,1.872 -1.296,2.664 -0.504,3.312 v 205.56 l 0.504,3.311 1.296,2.737 1.872,1.8 z" style="fill:#000000;fill-opacity:1;fill-rule:nonzero;stroke:none" id="path3974"/>
  </g>
  <g id="g3976" transform="matrix(1.3333330154418945, 0, 0, -1.3333330154418945, 2103.422061280493, 1220.908795557418)">
    <path d="m 0,0 h 140.472 l 2.304,-0.576 1.799,-1.8 1.297,-2.664 0.504,-3.24 v -199.153 l -0.504,-3.167 -1.297,-2.664 -1.799,-1.728 -2.304,-0.649 H 0 l -2.232,0.649 -1.872,1.728 -1.224,2.664 -0.433,3.167 V -8.28 l 0.433,3.24 1.224,2.664 1.872,1.8 z" style="fill:#ffffff;fill-opacity:1;fill-rule:nonzero;stroke:none" id="path3978"/>
  </g>
  <path d="m 1566.177,344.293 h 2.161 v 20.809 h -2.161 z m 10.728,21.673 v -2.448 l -1.511,-0.577 -1.009,-1.584 -0.648,-2.664 -0.288,-3.743 0.145,-2.304 0.287,-2.016 0.576,-1.441 0.648,-1.152 0.432,-0.359 0.432,-0.361 0.505,-0.143 0.431,-0.072 v -2.52 h -0.071 l -0.576,0.072 -0.576,0.072 -0.505,0.288 -0.575,0.215 -0.504,0.361 -0.361,0.504 -0.504,0.504 -0.432,0.576 -0.72,1.512 -0.504,1.8 -0.36,2.015 -0.144,2.376 0.144,2.593 0.217,2.16 0.431,1.944 0.576,1.512 0.432,0.72 0.36,0.576 0.504,0.504 0.504,0.359 0.649,0.36 0.575,0.216 0.648,0.145 h 0.721 z m -2.16,-43.704 h -4.895 l 1.296,2.376 0.575,2.591 v 2.304 l -0.791,1.656 h -0.433 l 0.505,-1.007 0.215,-1.153 -0.287,-1.223 -0.793,-0.936 -1.079,-0.721 -1.153,-0.215 -1.223,0.288 -0.937,0.719 -0.647,1.08 -0.217,1.296 1.08,3.241 2.52,3.383 2.592,3.241 1.513,2.591 1.367,-2.591 2.521,-3.241 0.431,-0.648 v -9.287 l -0.144,-0.072 -1.224,0.215 -1.008,0.721 -0.792,0.936 -0.288,1.223 0.288,1.153 0.504,1.007 h -0.504 l -0.719,-1.656 -0.073,-2.304 0.576,-2.591 z m 28.009,-1.441 h -9.721 l 2.592,4.825 1.08,5.04 -0.072,4.536 -1.44,3.383 -0.864,0.073 1.009,-2.016 0.359,-2.232 -0.576,-2.52 -1.439,-2.016 -2.161,-1.224 -2.375,-0.504 -2.304,0.504 -1.945,1.512 -1.224,2.015 -0.503,2.592 0.575,3.097 1.584,3.311 2.304,3.385 2.665,3.455 2.735,3.24 2.448,3.025 1.945,2.807 1.008,2.449 0.935,-2.376 1.872,-2.809 2.305,-3.096 2.591,-3.24 2.52,-3.383 2.088,-3.457 1.584,-3.239 0.505,-3.169 -0.505,-2.592 -1.224,-2.015 -1.944,-1.512 -2.304,-0.504 -2.376,0.504 -2.087,1.224 -1.513,2.016 -0.648,2.52 0.361,2.232 1.008,2.016 -0.865,-0.073 -1.368,-3.383 -0.143,-4.536 1.151,-5.04 z m 0,-48.743 h -9.721 l 2.592,4.751 1.08,5.041 -0.072,4.608 -1.44,3.384 h -0.864 l 1.009,-2.016 0.359,-2.233 -0.576,-2.519 -1.439,-2.016 -2.161,-1.224 -2.375,-0.432 -2.304,0.504 -1.945,1.44 -1.224,2.088 -0.503,2.52 0.575,3.096 1.584,3.312 2.304,3.456 2.665,3.384 2.735,3.24 2.448,3.096 1.945,2.808 1.008,2.375 0.935,-2.375 1.872,-2.736 2.305,-3.097 2.591,-3.311 2.52,-3.384 2.088,-3.456 1.584,-3.24 0.505,-3.168 -0.505,-2.52 -1.224,-2.088 -1.944,-1.44 -2.304,-0.504 -2.376,0.432 -2.087,1.224 -1.513,2.016 -0.648,2.519 0.361,2.233 1.008,2.016 h -0.865 l -1.368,-3.384 -0.143,-4.608 1.151,-5.041 z m 0,-10.08 h -9.721 l 2.592,-4.753 1.08,-5.04 -0.072,-4.607 -1.44,-3.312 -0.864,-0.072 1.009,2.015 0.359,2.233 -0.576,2.519 -1.439,1.945 -2.161,1.296 -2.375,0.432 -2.304,-0.505 -1.945,-1.368 -1.224,-2.16 -0.503,-2.519 0.575,-3.168 1.584,-3.313 2.304,-3.384 2.665,-3.311 2.735,-3.385 2.448,-3.096 1.945,-2.807 1.008,-2.449 0.935,2.449 1.872,2.735 2.305,3.097 2.591,3.311 2.52,3.456 2.088,3.384 1.584,3.313 0.505,3.168 -0.505,2.519 -1.224,2.16 -1.944,1.368 -2.304,0.505 -2.376,-0.432 -2.087,-1.296 -1.513,-1.945 -0.648,-2.519 0.361,-2.233 1.008,-2.015 -0.865,0.072 -1.368,3.312 -0.143,4.607 1.151,5.04 z m 37.655,-26.568 h -9.72 l 2.592,-4.825 1.08,-4.967 -0.072,-4.609 -1.439,-3.383 -0.865,-0.072 1.008,2.016 0.288,2.231 -0.504,2.521 -1.439,2.015 -2.161,1.225 -2.376,0.504 -2.304,-0.504 -1.872,-1.512 -1.296,-2.089 -0.504,-2.519 0.649,-3.096 1.584,-3.312 2.231,-3.384 2.736,-3.384 2.664,-3.312 2.448,-3.097 1.944,-2.879 1.008,-2.377 0.936,2.377 1.8,2.808 2.376,3.096 2.592,3.312 2.52,3.384 2.088,3.456 1.584,3.239 0.504,3.169 -0.504,2.519 -1.224,2.089 -1.944,1.512 -2.376,0.504 -2.304,-0.504 -2.159,-1.225 -1.513,-2.015 -0.504,-2.521 0.289,-2.231 1.008,-2.016 -0.864,0.072 -1.441,3.383 -0.143,4.609 1.151,4.967 z m 0,67.536 h -9.72 l 2.592,4.823 1.08,5.04 -0.072,4.537 -1.439,3.384 -0.865,0.071 1.008,-2.015 0.288,-2.305 -0.504,-2.447 -1.439,-2.017 -2.161,-1.296 -2.376,-0.359 -2.304,0.504 -1.872,1.368 -1.296,2.088 -0.504,2.592 0.649,3.095 1.584,3.313 2.231,3.384 2.736,3.456 2.664,3.24 2.448,3.096 1.944,2.736 1.008,2.448 0.936,-2.376 1.8,-2.736 2.376,-3.168 2.592,-3.24 2.52,-3.384 2.088,-3.456 1.584,-3.24 0.504,-3.168 -0.504,-2.592 -1.224,-2.088 -1.944,-1.368 -2.376,-0.504 -2.304,0.359 -2.159,1.296 -1.513,2.017 -0.504,2.447 0.289,2.305 1.008,2.015 -0.864,-0.071 -1.441,-3.384 -0.143,-4.537 1.151,-5.04 z m -37.655,-89.64 h -9.721 l 2.592,-4.896 1.08,-5.04 -0.072,-4.536 -1.44,-3.384 h -0.864 l 1.009,1.943 0.359,2.305 -0.576,2.448 -1.439,2.016 -2.161,1.296 -2.375,0.432 -2.304,-0.504 -1.945,-1.44 -1.224,-2.089 -0.503,-2.591 0.575,-3.097 1.584,-3.312 2.304,-3.455 2.665,-3.313 2.735,-3.311 2.448,-3.168 1.945,-2.809 1.008,-2.448 0.935,2.448 1.872,2.809 2.305,3.096 2.591,3.311 2.52,3.385 2.088,3.455 1.584,3.312 0.505,3.097 -0.505,2.591 -1.224,2.089 -1.944,1.44 -2.304,0.504 -2.376,-0.432 -2.087,-1.296 -1.513,-2.016 -0.648,-2.448 0.361,-2.305 1.008,-1.943 h -0.865 l -1.368,3.384 -0.143,4.536 1.151,5.04 z m -25.849,131.256 v 2.52 h 0.073 l 0.36,0.072 0.504,0.143 0.431,0.288 0.36,0.432 0.721,0.937 0.503,1.584 0.36,1.943 0.144,2.305 -0.072,2.591 -0.287,2.089 -0.505,1.728 -0.647,1.224 -0.361,0.503 -0.504,0.288 -0.504,0.216 -0.503,0.145 -0.073,-0.072 v 2.448 h 0.865 l 0.863,-0.288 0.721,-0.361 0.719,-0.576 0.576,-0.72 0.504,-0.792 0.433,-1.007 0.287,-1.152 0.504,-2.737 0.144,-3.456 -0.144,-2.447 -0.288,-2.16 -0.503,-1.8 -0.793,-1.441 -0.432,-0.504 -0.504,-0.504 -0.36,-0.503 -0.504,-0.289 -0.504,-0.359 -0.647,-0.144 -0.504,-0.072 z m 111.097,-164.377 -0.072,-0.288 -0.145,-3.384 0.145,-2.519 0.072,-0.721 z m 0,20.088 v -2.159 l -0.36,-1.945 -1.512,-3.312 -2.161,-3.455 -2.52,-3.385 -2.519,-3.311 -2.377,-3.096 -1.799,-2.809 -1.009,-2.448 -1.008,2.448 -1.944,2.809 -2.447,3.168 -2.737,3.311 -2.664,3.313 -2.231,3.455 -1.584,3.312 -0.649,3.097 0.504,2.591 1.296,2.089 1.872,1.44 2.304,0.504 2.377,-0.432 2.159,-1.296 1.441,-2.016 0.576,-2.448 -0.361,-2.305 -0.935,-1.943 h 0.863 l 1.368,3.384 0.144,4.536 -1.151,5.04 -2.52,4.896 h 9.719 l -2.448,-4.896 -1.152,-5.04 0.145,-4.536 1.367,-3.384 h 0.936 l -1.007,1.943 -0.361,2.305 0.576,2.448 1.44,2.016 2.16,1.296 2.377,0.432 2.304,-0.504 2.015,-1.44 1.225,-2.089 z m 0,48.816 v -2.159 l -0.36,-2.016 -1.512,-3.313 -2.161,-3.384 -2.52,-3.456 -2.519,-3.311 -2.377,-3.097 -1.799,-2.735 -1.009,-2.449 -1.008,2.449 -1.944,2.807 -2.447,3.096 -2.737,3.385 -2.664,3.311 -2.231,3.384 -1.584,3.313 -0.649,3.168 0.504,2.519 1.296,2.16 1.872,1.368 2.304,0.505 2.377,-0.432 2.159,-1.296 1.441,-1.945 0.576,-2.519 -0.361,-2.233 -0.935,-2.015 0.863,0.072 1.368,3.312 0.144,4.607 -1.151,5.04 -2.52,4.753 h 9.719 l -2.448,-4.753 -1.152,-5.04 0.145,-4.607 1.367,-3.312 0.936,-0.072 -1.007,2.015 -0.361,2.233 0.576,2.519 1.44,1.945 2.16,1.296 2.377,0.432 2.304,-0.505 2.015,-1.368 1.225,-2.16 z m 0,38.016 v -2.159 l -0.288,-1.512 -1.225,-2.088 -2.015,-1.44 -2.304,-0.504 -2.377,0.432 -2.16,1.224 -1.44,2.016 -0.576,2.519 0.361,2.233 1.007,2.016 h -0.936 l -1.367,-3.384 -0.145,-4.608 1.152,-5.041 2.448,-4.751 h -9.719 l 2.52,4.751 1.151,5.041 -0.144,4.608 -1.368,3.384 h -0.863 l 0.935,-2.016 0.361,-2.233 -0.576,-2.519 -1.441,-2.016 -2.159,-1.224 -2.377,-0.432 -2.304,0.504 -1.872,1.44 -1.296,2.088 -0.504,2.52 0.649,3.096 1.584,3.312 2.231,3.456 2.664,3.384 2.737,3.24 2.447,3.096 1.944,2.808 1.008,2.375 1.009,-2.375 1.799,-2.736 2.377,-3.097 2.519,-3.311 2.52,-3.384 2.161,-3.456 1.512,-3.24 z m 0,48.816 v -2.16 l -0.288,-1.584 -1.225,-2.015 -2.015,-1.512 -2.304,-0.504 -2.377,0.504 -2.16,1.224 -1.44,2.016 -0.576,2.52 0.361,2.232 1.007,2.016 -0.936,-0.073 -1.367,-3.383 -0.145,-4.536 1.152,-5.04 2.448,-4.825 h -9.719 l 2.52,4.825 1.151,5.04 -0.144,4.536 -1.368,3.383 -0.863,0.073 0.935,-2.016 0.361,-2.232 -0.576,-2.52 -1.441,-2.016 -2.159,-1.224 -2.377,-0.504 -2.304,0.504 -1.872,1.512 -1.296,2.015 -0.504,2.592 0.649,3.097 1.584,3.311 2.231,3.385 2.664,3.455 2.737,3.24 2.447,3.025 1.944,2.807 1.008,2.449 1.009,-2.376 1.799,-2.809 2.377,-3.096 2.519,-3.24 2.52,-3.383 2.161,-3.457 1.512,-3.239 z m -111.097,-0.648 1.872,-2.735 1.08,-3.241 -0.215,-1.296 -0.649,-1.08 -1.008,-0.719 -1.08,-0.216 z m 111.097,-1.512 v 2.16 l 0.215,-1.152 z m 0,-48.815 v 2.159 l 0.215,-1.151 z m 0,-38.016 v 2.159 l 0.215,-1.007 z m 0,-48.816 v 2.159 l 0.215,-1.007 z m 5.399,-10.584 v -2.448 h -0.072 l -0.504,-0.073 -0.504,-0.216 -0.431,-0.288 -0.433,-0.504 -0.647,-1.223 -0.504,-1.728 -0.217,-2.089 -0.144,-2.591 0.144,-2.304 0.288,-1.944 0.576,-1.512 0.649,-1.152 0.431,-0.289 0.432,-0.36 0.432,-0.143 h 0.432 0.072 v -2.52 l -0.504,0.071 -0.503,0.073 -0.504,0.215 -0.505,0.216 -0.504,0.361 -0.504,0.431 -0.432,0.504 -0.359,0.576 -0.793,1.368 -0.576,1.8 -0.215,1.512 v 6.912 l 0.432,2.449 0.359,1.152 0.288,1.007 0.505,0.792 0.647,0.721 0.648,0.576 0.864,0.431 0.792,0.145 z m 0,19.8 v -7.849 l -1.007,1.44 -1.009,3.313 0.217,1.224 0.648,1.08 1.008,0.72 z m 10.729,-41.472 h -2.089 v 20.808 h 2.089 z m -10.729,33.623 v 7.849 l 1.008,0.215 1.224,-0.287 1.009,-0.648 0.792,-0.864 0.359,-1.296 -0.216,-1.153 -0.575,-1.007 h 0.432 l 0.719,1.727 0.073,2.233 -0.577,2.519 -1.223,2.521 h 4.968 l -1.224,-2.521 -0.576,-2.519 v -2.233 l 0.791,-1.727 h 0.36 l -0.504,1.007 -0.143,1.153 0.287,1.296 0.792,0.864 1.08,0.648 1.152,0.287 1.153,-0.287 1.007,-0.72 0.648,-1.08 0.217,-1.224 -1.153,-3.313 -2.447,-3.311 -2.664,-3.313 -1.584,-2.663 -1.297,2.663 -2.519,3.169 z m 0,-33.335 v 2.52 h 0.433 l 0.504,0.143 0.432,0.36 0.431,0.432 0.649,1.08 0.576,1.585 0.359,1.872 0.072,2.375 -0.215,3.745 -0.649,2.663 -1.08,1.584 -1.512,0.577 v 2.448 h 0.073 l 0.719,-0.072 0.649,-0.072 0.647,-0.217 0.504,-0.36 0.649,-0.359 0.504,-0.504 0.288,-0.576 0.431,-0.72 0.576,-1.512 0.504,-2.016 0.216,-2.161 0.072,-2.448 -0.144,-2.447 -0.36,-2.088 -0.503,-1.728 -0.72,-1.512 -0.36,-0.576 -0.504,-0.504 -0.433,-0.504 -0.504,-0.361 -0.575,-0.288 -0.505,-0.215 -0.647,-0.073 -0.504,-0.071 z" style="fill:#000000;fill-opacity:1;fill-rule:nonzero;stroke:none" id="path3980" transform="matrix(1.3333330154418945, 0, 0, -1.3333330154418945, 17.00979830339236, 1720.8630627522327)"/>
</svg>