<?xml version="1.0" encoding="utf-8"?>
<svg viewBox="2092.3816 190.5412 209.376 296.8319" xmlns="http://www.w3.org/2000/svg">
  <g id="g108" transform="matrix(1.3333330154418945, 0, 0, -1.3333330154418945, 2100.445499490161, 190.54116198449262)">
    <path d="m 0,0 h 145.009 l 2.304,-0.648 1.944,-1.872 1.223,-2.736 0.504,-3.312 v -205.56 l -0.504,-3.312 -1.223,-2.664 -1.944,-1.872 -2.304,-0.648 H 0 l -2.376,0.648 -1.872,1.872 -1.296,2.664 -0.504,3.312 v 205.56 l 0.504,3.312 1.296,2.736 1.872,1.872 z" style="fill:#000000;fill-opacity:1;fill-rule:nonzero;stroke:none" id="path110"/>
  </g>
  <g id="g112" transform="matrix(1.3333330154418945, 0, 0, -1.3333330154418945, 2103.422061280493, 195.2449369046917)">
    <path d="m 0,0 h 140.472 l 2.304,-0.576 1.799,-1.8 1.297,-2.592 0.504,-3.312 v -199.152 l -0.504,-3.168 -1.297,-2.664 -1.799,-1.728 -2.304,-0.648 H 0 l -2.232,0.648 -1.872,1.728 -1.224,2.664 -0.433,3.168 V -8.28 l 0.433,3.312 1.224,2.592 1.872,1.8 z" style="fill:#ffffff;fill-opacity:1;fill-rule:nonzero;stroke:none" id="path114"/>
  </g>
  <path d="m 1566.105,1114.046 h 2.088 v 20.736 h -2.088 z m 9.577,-8.136 v -9.648 l -2.449,-3.312 -5.904,8.135 5.904,8.208 z m 0,29.304 v -2.448 l -1.441,-0.577 -1.08,-1.584 -0.647,-2.663 -0.216,-3.744 0.143,-2.304 0.288,-1.944 0.504,-1.512 0.72,-1.152 0.432,-0.36 0.36,-0.361 0.505,-0.143 0.432,-0.072 v -2.448 -0.072 l -0.577,0.072 -0.576,0.144 -0.504,0.216 -0.576,0.288 -0.504,0.288 -0.431,0.504 -0.433,0.504 -0.504,0.576 -0.647,1.512 -0.576,1.8 -0.361,2.016 -0.143,2.448 0.143,2.52 0.216,2.16 0.505,1.944 0.575,1.511 0.432,0.721 0.36,0.576 0.505,0.504 0.503,0.36 0.577,0.36 0.575,0.215 0.72,0.073 z m 34.847,-25.632 -2.015,2.304 -1.872,2.232 -1.872,2.304 -1.729,2.376 -1.656,2.376 -1.656,2.376 -1.44,2.376 -1.439,2.376 -1.369,-2.233 -1.44,-2.376 -1.584,-2.376 -1.728,-2.303 -1.799,-2.376 -1.872,-2.376 -2.017,-2.376 -2.016,-2.304 1.872,-2.232 1.8,-2.161 1.8,-2.303 1.729,-2.304 1.655,-2.305 1.656,-2.447 1.656,-2.592 1.657,-2.592 1.439,2.375 1.584,2.376 1.584,2.449 1.729,2.447 1.727,2.305 1.801,2.448 1.872,2.304 z m 76.464,0 -2.015,2.304 -1.945,2.232 -1.8,2.304 -1.799,2.376 -1.657,2.376 -1.584,2.376 -1.439,2.376 -1.513,2.376 -1.296,-2.233 -1.511,-2.376 -1.512,-2.376 -1.729,-2.303 -1.799,-2.376 -1.873,-2.376 -2.015,-2.376 -2.017,-2.304 1.8,-2.232 1.8,-2.161 1.801,-2.303 1.727,-2.304 1.729,-2.305 1.656,-2.447 1.655,-2.592 1.584,-2.592 1.513,2.375 1.512,2.376 1.656,2.449 1.655,2.447 1.8,2.305 1.8,2.448 1.872,2.304 z m -76.464,-49.896 -2.015,2.304 -1.872,2.303 -1.872,2.305 -1.729,2.304 -1.656,2.375 -1.656,2.377 -1.44,2.376 -1.439,2.448 -1.369,-2.376 -1.44,-2.304 -1.584,-2.304 -1.728,-2.376 -1.799,-2.376 -1.872,-2.449 -2.017,-2.303 -2.016,-2.304 1.872,-2.232 1.8,-2.161 1.8,-2.303 1.729,-2.304 1.655,-2.305 1.656,-2.447 1.656,-2.52 1.657,-2.664 1.439,2.375 1.584,2.376 1.584,2.449 1.729,2.447 1.727,2.376 1.801,2.376 1.872,2.305 z m 38.376,23.256 -2.015,2.304 -1.872,2.304 -1.872,2.232 -1.728,2.376 -1.657,2.376 -1.584,2.376 -1.44,2.376 -1.439,2.448 -1.296,-2.304 -1.513,-2.305 -1.584,-2.375 -1.728,-2.304 -1.728,-2.448 -1.872,-2.376 -2.015,-2.376 -2.088,-2.304 1.872,-2.16 1.8,-2.16 1.799,-2.305 1.728,-2.376 1.656,-2.303 1.656,-2.449 1.657,-2.519 1.656,-2.664 1.439,2.375 1.513,2.449 1.584,2.376 1.799,2.448 1.728,2.376 1.8,2.448 1.872,2.304 z m 38.088,-23.256 -2.015,2.304 -1.945,2.303 -1.8,2.305 -1.799,2.304 -1.657,2.375 -1.584,2.377 -1.439,2.376 -1.513,2.448 -1.296,-2.376 -1.511,-2.304 -1.512,-2.304 -1.729,-2.376 -1.799,-2.376 -1.873,-2.449 -2.015,-2.303 -2.017,-2.304 1.8,-2.232 1.8,-2.161 1.801,-2.303 1.727,-2.304 1.729,-2.305 1.656,-2.447 1.655,-2.52 1.584,-2.664 1.513,2.375 1.512,2.376 1.656,2.449 1.655,2.447 1.8,2.376 1.8,2.376 1.872,2.305 z m -76.464,-49.825 -2.015,2.233 -1.872,2.303 -1.872,2.305 -1.729,2.304 -1.656,2.375 -1.656,2.449 -1.44,2.304 -1.439,2.448 -1.369,-2.232 -1.44,-2.304 -1.584,-2.448 -1.728,-2.305 -1.799,-2.447 -1.872,-2.304 -2.017,-2.376 -2.016,-2.305 1.872,-2.231 1.8,-2.16 1.8,-2.304 1.729,-2.305 1.655,-2.376 1.656,-2.375 1.656,-2.592 1.657,-2.664 1.439,2.448 1.584,2.376 1.584,2.447 1.729,2.376 1.727,2.449 1.801,2.376 1.872,2.304 z m 38.376,-23.327 -2.015,2.304 -1.872,2.304 -1.872,2.304 -1.728,2.304 -1.657,2.448 -1.584,2.303 -1.44,2.449 -1.439,2.376 -1.296,-2.305 -1.513,-2.303 -1.584,-2.376 -1.728,-2.304 -1.728,-2.449 -1.872,-2.375 -2.015,-2.376 -2.088,-2.304 1.872,-2.16 1.8,-2.16 1.799,-2.304 1.728,-2.376 1.656,-2.232 1.656,-2.52 1.657,-2.52 1.656,-2.664 1.439,2.448 1.513,2.304 1.584,2.448 1.799,2.448 1.728,2.447 1.8,2.376 1.872,2.305 z m 38.088,23.327 -2.015,2.233 -1.945,2.303 -1.8,2.305 -1.799,2.304 -1.657,2.375 -1.584,2.449 -1.439,2.304 -1.513,2.448 -1.296,-2.232 -1.511,-2.304 -1.512,-2.448 -1.729,-2.305 -1.799,-2.447 -1.873,-2.304 -2.015,-2.376 -2.017,-2.305 1.8,-2.231 1.8,-2.16 1.801,-2.304 1.727,-2.305 1.729,-2.376 1.656,-2.375 1.655,-2.592 1.584,-2.664 1.513,2.448 1.512,2.376 1.656,2.447 1.655,2.376 1.8,2.449 1.8,2.376 1.872,2.304 z m -76.464,-49.895 -2.015,2.232 -1.872,2.303 -1.872,2.377 -1.729,2.304 -1.656,2.376 -1.656,2.376 -1.44,2.376 -1.439,2.376 -1.369,-2.305 -1.44,-2.303 -1.584,-2.376 -1.728,-2.305 -1.799,-2.376 -1.872,-2.375 -2.017,-2.376 -2.016,-2.304 1.872,-2.232 1.8,-2.16 1.8,-2.232 1.729,-2.376 1.655,-2.304 1.656,-2.448 1.656,-2.521 1.657,-2.663 1.439,2.376 1.584,2.376 1.584,2.447 1.729,2.449 1.727,2.376 1.801,2.376 1.872,2.304 z m 76.464,0 -2.015,2.232 -1.945,2.303 -1.8,2.377 -1.799,2.304 -1.657,2.376 -1.584,2.376 -1.439,2.376 -1.513,2.376 -1.296,-2.305 -1.511,-2.303 -1.512,-2.376 -1.729,-2.305 -1.799,-2.376 -1.873,-2.375 -2.015,-2.376 -2.017,-2.304 1.8,-2.232 1.8,-2.16 1.801,-2.232 1.727,-2.376 1.729,-2.304 1.656,-2.448 1.655,-2.521 1.584,-2.663 1.513,2.376 1.512,2.376 1.656,2.447 1.655,2.449 1.8,2.376 1.8,2.376 1.872,2.304 z m -111.311,153.936 v 2.448 h 0.072 l 0.432,0.072 0.503,0.143 0.432,0.217 0.36,0.432 0.72,1.079 0.504,1.513 0.36,1.944 0.072,2.304 v 2.592 l -0.287,2.088 -0.504,1.728 -0.649,1.224 -0.431,0.503 -0.432,0.361 -0.505,0.143 -0.575,0.073 h -0.072 v 2.448 l 0.935,-0.072 0.792,-0.144 0.792,-0.433 0.649,-0.575 0.647,-0.72 0.505,-0.792 0.359,-1.008 0.36,-1.08 0.505,-2.808 0.072,-3.384 -0.072,-2.52 -0.288,-2.16 -0.577,-1.8 -0.719,-1.441 -0.505,-0.504 -0.432,-0.503 -0.432,-0.504 -0.503,-0.36 -0.504,-0.217 -0.577,-0.143 -0.503,-0.144 z m 0,-17.64 v 9.648 l 3.527,-4.825 z m 119.736,-123.48 v -8.064 l -2.953,4.032 z m 0,-15.841 -0.505,-0.071 -0.504,-0.144 -0.575,-0.144 -0.505,-0.289 -0.504,-0.359 -0.431,-0.36 -0.433,-0.505 -0.432,-0.575 -0.719,-1.44 -0.577,-1.8 -0.288,-2.16 -0.144,-2.52 0.144,-3.385 0.432,-2.808 0.36,-1.079 0.361,-1.008 0.504,-0.792 0.648,-0.72 0.647,-0.648 0.792,-0.361 0.792,-0.215 0.937,-0.073 v 2.521 l -0.072,-0.072 -0.576,0.072 -0.504,0.288 -0.432,0.288 -0.36,0.432 -0.72,1.224 -0.504,1.8 -0.145,2.087 -0.144,2.521 0.144,2.304 0.289,1.944 0.575,1.584 0.648,1.08 0.361,0.359 0.503,0.289 0.432,0.144 0.433,0.072 h 0.072 z m 9.575,-0.215 h -2.088 V 935.99 h 2.088 z m -9.575,7.992 v 8.064 l 3.023,4.104 5.977,-8.136 -5.977,-8.208 z m 5.832,-18.144 -0.145,2.376 -0.36,2.088 -0.504,1.8 -0.72,1.512 -0.432,0.576 -0.503,0.575 -0.433,0.433 -0.504,0.288 -0.503,0.288 -0.577,0.216 -0.576,0.144 -0.504,0.071 h -0.071 v -2.519 l 0.432,-0.072 0.504,-0.144 0.431,-0.36 0.361,-0.361 0.719,-1.152 0.576,-1.511 0.288,-1.872 0.144,-2.376 -0.287,-3.816 -0.648,-2.664 -1.008,-1.584 -1.512,-0.504 v -2.521 h 0.071 l 0.648,0.073 0.72,0.144 0.577,0.215 0.576,0.36 0.576,0.361 0.503,0.504 0.288,0.504 0.433,0.792 0.575,1.583 0.505,1.873 0.287,2.231 z" style="fill:#ff0000;fill-opacity:1;fill-rule:nonzero;stroke:none" id="path116" transform="matrix(1.3333330154418945, 0, 0, -1.3333330154418945, 17.00979830339236, 1720.8630627522327)"/>
</svg>