<?xml version="1.0" encoding="utf-8"?>
<svg viewBox="314.4623 1212.0768 209.2799 296.8319" xmlns="http://www.w3.org/2000/svg">
  <g id="g3888" transform="matrix(1.3333330154418948, 0, 0, -1.3333330154418948, 322.43027805707356, 1212.076766413138)">
    <path d="m 0,0 h 145.008 l 2.304,-0.648 1.944,-1.872 1.224,-2.665 0.504,-3.383 v -205.56 l -0.504,-3.24 -1.224,-2.736 -1.944,-1.873 -2.304,-0.647 H 0 l -2.376,0.647 -1.872,1.873 -1.296,2.736 -0.432,3.24 v 205.56 l 0.432,3.383 1.296,2.665 1.872,1.872 z" style="fill:#000000;fill-opacity:1;fill-rule:nonzero;stroke:none" id="path3890"/>
  </g>
  <g id="g3892" transform="matrix(1.3333330154418948, 0, 0, -1.3333330154418948, 325.40624984103556, 1216.7811923748488)">
    <path d="m 0,0 h 140.472 l 2.304,-0.575 1.872,-1.801 1.296,-2.592 0.432,-3.24 v -199.224 l -0.432,-3.168 -1.296,-2.591 -1.872,-1.8 -2.304,-0.649 H 0 l -2.232,0.649 -1.872,1.8 -1.224,2.591 -0.432,3.168 V -8.208 l 0.432,3.24 1.224,2.592 1.872,1.801 z" style="fill:#ffffff;fill-opacity:1;fill-rule:nonzero;stroke:none" id="path3894"/>
  </g>
  <g id="g3896" transform="matrix(1.3333330154418948, 0, 0, -1.3333330154418948, 500.99023304364596, 1434.8931398846146)">
    <path d="M 0,0 H 4.896 L 3.672,-2.52 3.096,-5.04 V -7.344 L 3.816,-9 h 0.432 l -0.504,0.936 -0.144,1.152 0.36,1.297 0.72,0.935 1.08,0.648 1.152,0.217 1.152,-0.217 1.008,-0.72 0.648,-1.08 0.216,-1.224 -1.08,-3.312 -2.52,-3.384 -2.664,-3.312 -1.512,-2.592 -1.368,2.592 -2.52,3.241 -2.376,3.455 -1.008,3.312 0.216,1.224 0.648,1.08 1.008,0.72 1.152,0.217 1.224,-0.217 L 0.144,-4.68 0.936,-5.615 1.296,-6.912 1.08,-8.064 0.504,-9 h 0.432 l 0.72,1.656 0.144,2.304 -0.648,2.52 z m -58.248,109.439 h -9.72 l 2.592,4.897 1.08,4.968 -0.072,4.536 -1.368,3.456 h -0.936 l 1.008,-2.016 0.36,-2.232 -0.576,-2.52 -1.512,-1.944 -2.088,-1.296 -2.376,-0.504 -2.304,0.504 -1.944,1.44 -1.296,2.161 -0.504,2.519 0.648,3.096 1.584,3.385 2.304,3.383 2.664,3.312 2.736,3.312 2.376,3.096 1.944,2.736 1.08,2.52 0.936,-2.448 1.8,-2.737 2.304,-3.095 2.592,-3.312 2.52,-3.312 2.088,-3.455 1.584,-3.242 0.576,-3.239 -0.504,-2.519 -1.296,-2.161 -1.944,-1.44 -2.304,-0.504 -2.376,0.504 -2.16,1.296 -1.44,1.944 -0.576,2.52 0.288,2.232 1.008,2.016 h -0.864 l -1.368,-3.456 -0.144,-4.536 1.152,-4.968 z m 0,-32.183 h -9.72 l 2.592,-4.823 1.08,-5.04 -0.072,-4.538 -1.368,-3.382 -0.936,-0.074 1.008,2.017 0.36,2.304 -0.576,2.448 -1.512,2.017 -2.088,1.295 -2.376,0.36 -2.304,-0.504 -1.944,-1.368 -1.296,-2.088 -0.504,-2.592 0.648,-3.096 1.584,-3.312 2.304,-3.384 2.664,-3.384 2.736,-3.311 2.376,-3.097 1.944,-2.808 1.08,-2.448 0.936,2.448 1.8,2.736 2.304,3.169 2.592,3.239 2.52,3.456 2.088,3.384 1.584,3.24 0.576,3.168 -0.504,2.592 -1.296,2.088 -1.944,1.368 -2.304,0.504 -2.376,-0.36 -2.16,-1.295 -1.44,-2.017 -0.576,-2.448 0.288,-2.304 1.008,-2.017 -0.864,0.074 -1.368,3.382 -0.144,4.538 1.152,5.04 z m 0,-75.312 h -9.72 l 2.592,-4.824 1.08,-5.04 -0.072,-4.536 -1.368,-3.456 h -0.936 l 1.008,1.944 0.36,2.304 -0.576,2.448 -1.512,2.017 -2.088,1.296 -2.376,0.504 -2.304,-0.504 -1.944,-1.513 -1.296,-2.088 -0.504,-2.519 0.648,-3.097 1.584,-3.384 2.304,-3.384 2.664,-3.311 2.736,-3.313 2.376,-3.168 1.944,-2.807 1.08,-2.45 0.936,2.45 1.8,2.807 2.304,3.024 2.592,3.384 2.52,3.384 2.088,3.384 1.584,3.313 0.576,3.168 -0.504,2.519 -1.296,2.088 -1.944,1.513 -2.304,0.504 -2.376,-0.504 -2.16,-1.296 -1.44,-2.017 -0.576,-2.448 0.288,-2.304 1.008,-1.944 h -0.864 l -1.368,3.456 -0.144,4.536 1.152,5.04 z m -71.208,137.952 h 2.16 l 0.288,-1.799 0.576,-1.297 1.08,-0.864 1.512,-0.289 0.864,0.073 0.72,0.216 0.648,0.289 0.504,0.431 0.648,1.153 0.216,1.511 -0.144,1.008 -0.36,1.008 -0.648,0.792 -0.72,0.504 -0.504,0.217 -0.504,0.143 -0.504,0.144 h -0.576 -0.288 l -0.432,-0.073 v 2.521 h 0.216 0.36 l 0.864,0.144 0.72,0.144 0.648,0.359 0.504,0.362 0.72,1.008 0.288,1.367 -0.144,0.792 -0.36,0.72 -0.432,0.72 -0.72,0.576 -0.648,0.216 -0.864,0.144 -0.864,-0.144 -0.72,-0.216 -0.648,-0.648 -0.504,-0.864 -0.432,-1.152 -0.072,-1.368 h -2.088 l 0.072,1.655 0.432,1.585 0.432,0.792 0.36,0.649 0.504,0.503 0.504,0.505 0.792,0.431 0.72,0.216 0.792,0.216 0.864,0.072 0.72,-0.072 0.648,-0.216 0.648,-0.144 0.576,-0.289 0.576,-0.503 0.504,-0.504 0.36,-0.504 0.504,-0.504 0.432,-1.368 0.216,-1.44 -0.216,-1.296 -0.432,-1.08 -0.72,-1.009 -0.936,-0.863 0.648,-0.36 0.504,-0.432 0.504,-0.648 0.432,-0.648 0.504,-1.656 0.216,-1.8 -0.288,-1.728 -0.504,-1.368 -0.36,-0.648 -0.504,-0.504 -0.504,-0.504 -0.648,-0.288 -0.72,-0.216 -0.792,-0.288 -0.792,-0.072 -0.864,-0.072 -0.864,0.072 -0.72,0.072 -0.648,0.288 -0.648,0.216 -0.576,0.433 -0.576,0.503 -0.432,0.505 -0.36,0.719 -0.504,1.657 z M 7.776,-30.815 h -2.16 l -0.216,1.871 -0.648,1.224 -1.008,0.864 -1.44,0.289 -0.936,-0.073 -0.72,-0.144 -0.648,-0.361 -0.504,-0.359 -0.72,-1.224 -0.144,-1.44 0.144,-1.151 0.288,-0.866 0.72,-0.863 0.72,-0.504 0.432,-0.217 0.504,-0.143 0.576,-0.144 h 0.576 0.36 l 0.36,0.144 v -2.592 H 3.096 2.808 L 1.872,-36.575 1.152,-36.792 0.504,-37.08 0,-37.512 l -0.72,-1.008 -0.216,-1.295 0.072,-0.792 0.36,-0.792 0.432,-0.721 0.648,-0.504 0.72,-0.288 0.864,-0.144 0.792,0.144 0.792,0.288 0.72,0.648 0.432,0.865 0.36,1.151 0.144,1.296 h 2.16 l -0.144,-1.655 -0.504,-1.584 -0.36,-0.721 -0.36,-0.72 L 5.688,-43.848 5.112,-44.353 4.464,-44.712 3.672,-45 2.808,-45.216 H 1.944 1.296 L 0.648,-45 0,-44.856 l -0.576,0.36 -0.576,0.432 -0.504,0.503 -0.432,0.505 -0.36,0.577 -0.504,1.368 -0.144,1.439 0.144,1.224 0.432,1.08 0.72,1.008 0.936,0.936 -0.576,0.36 -0.576,0.36 -0.504,0.648 -0.432,0.649 -0.576,1.655 -0.216,1.8 0.36,1.728 0.504,1.44 0.36,0.576 0.504,0.576 0.576,0.433 0.576,0.287 0.72,0.36 0.72,0.288 0.864,0.073 0.864,0.071 0.792,-0.071 0.72,-0.216 0.792,-0.145 0.576,-0.36 0.576,-0.36 0.504,-0.504 0.432,-0.577 L 7.128,-27 7.56,-28.728 Z M -121.752,110.88 h -4.896 l 1.296,2.448 0.576,2.521 v 2.303 l -0.72,1.728 H -126 l 0.504,-1.008 0.216,-1.152 -0.36,-1.224 -0.72,-1.008 -1.08,-0.648 -1.152,-0.216 -1.152,0.216 -1.008,0.792 -0.648,1.008 -0.216,1.296 1.08,3.312 2.52,3.384 2.592,3.168 1.512,2.593 1.368,-2.593 2.52,-3.168 2.304,-3.384 1.08,-3.312 -0.216,-1.296 -0.72,-1.008 -1.008,-0.792 -1.152,-0.216 -1.152,0.216 -1.08,0.648 -0.792,1.008 -0.288,1.224 0.216,1.152 0.504,1.008 h -0.432 l -0.72,-1.728 -0.072,-2.303 0.576,-2.521 z" style="fill:#000000;fill-opacity:1;fill-rule:nonzero;stroke:none" id="path3898"/>
  </g>
</svg>