<?xml version="1.0" encoding="utf-8"?>
<svg viewBox="314.4623 532.6849 209.2799 296.8319" xmlns="http://www.w3.org/2000/svg">
  <g id="g1772" transform="matrix(1.3333330154418948, 0, 0, -1.3333330154418948, 322.43027805707356, 532.6849606193682)">
    <path d="m 0,0 h 145.008 l 2.304,-0.648 1.944,-1.872 1.224,-2.664 0.504,-3.384 v -205.56 l -0.504,-3.312 -1.224,-2.664 -1.944,-1.872 -2.304,-0.648 H 0 l -2.376,0.648 -1.872,1.872 -1.296,2.664 -0.432,3.312 v 205.56 l 0.432,3.384 1.296,2.664 1.872,1.872 z" style="fill:#000000;fill-opacity:1;fill-rule:nonzero;stroke:none" id="path1774"/>
  </g>
  <g id="g1776" transform="matrix(1.3333330154418948, 0, 0, -1.3333330154418948, 325.40624984103556, 537.3892238207009)">
    <path d="m 0,0 h 140.472 l 2.304,-0.576 1.872,-1.8 1.296,-2.592 0.432,-3.24 v -199.224 l -0.432,-3.168 -1.296,-2.664 -1.872,-1.728 -2.304,-0.648 H 0 l -2.232,0.648 -1.872,1.728 -1.224,2.664 -0.432,3.168 V -8.208 l 0.432,3.24 1.224,2.592 1.872,1.8 z" style="fill:#ffffff;fill-opacity:1;fill-rule:nonzero;stroke:none" id="path1778"/>
  </g>
  <g id="g1780" transform="matrix(1.3333330154418948, 0, 0, -1.3333330154418948, 511.35859808465534, 796.589113194492)">
    <path d="M 0,0 H -2.161 L -2.376,1.872 -3.024,3.096 -4.032,3.888 -5.473,4.248 -6.408,4.176 -7.128,4.032 -7.776,3.672 -8.28,3.24 -9,2.088 -9.145,0.576 -9,-0.504 l 0.288,-0.864 0.72,-0.864 0.72,-0.504 0.432,-0.288 0.504,-0.072 0.576,-0.144 h 0.576 0.36 l 0.36,0.072 V -5.76 h -0.217 -0.287 -0.936 l -0.721,-0.216 -0.647,-0.288 -0.504,-0.432 -0.72,-1.08 -0.216,-1.296 0.071,-0.792 0.361,-0.792 0.431,-0.648 0.649,-0.504 0.72,-0.36 0.864,-0.072 0.792,0.072 0.792,0.36 0.72,0.648 0.432,0.792 0.359,1.152 0.145,1.296 h 2.16 l -0.144,-1.656 -0.504,-1.584 -0.361,-0.648 -0.359,-0.72 -0.504,-0.504 -0.576,-0.504 -0.648,-0.432 -0.792,-0.288 -0.864,-0.144 -0.865,-0.072 -0.647,0.072 -0.648,0.144 -0.648,0.216 -0.577,0.36 -0.575,0.36 -0.505,0.504 -0.431,0.504 -0.361,0.648 -0.504,1.296 -0.143,1.512 0.143,1.224 0.433,1.08 0.72,1.008 0.935,0.936 -0.575,0.288 -0.576,0.432 -0.504,0.648 -0.433,0.648 -0.575,1.584 -0.217,1.872 0.36,1.728 0.505,1.44 0.36,0.576 0.504,0.576 0.576,0.432 0.575,0.288 0.721,0.36 0.72,0.216 0.864,0.144 h 0.863 0.792 L -3.96,6.408 -3.168,6.264 -2.592,5.904 -2.016,5.544 -1.512,5.04 -1.08,4.392 -0.648,3.744 -0.216,2.088 Z m -130.896,150.624 v -0.144 -0.144 l 0.288,-1.296 0.72,-1.008 1.008,-0.648 1.224,-0.288 1.223,0.288 1.08,0.648 0.721,1.008 0.216,1.296 -0.216,1.296 -0.721,1.008 -1.08,0.648 -1.223,0.288 -0.576,-0.072 -0.576,-0.216 -0.504,-0.216 -0.504,-0.288 h -0.288 l -0.145,0.144 -0.071,0.288 1.152,1.224 0.504,1.584 -0.36,1.224 -0.648,1.08 -1.009,0.648 -1.223,0.288 -1.224,-0.288 -1.08,-0.648 -0.648,-1.08 -0.289,-1.224 0.073,-0.936 0.431,-0.864 0.577,-0.648 0.792,-0.432 -0.144,-0.36 h -0.145 l -0.359,-0.144 -0.504,0.36 -0.504,0.288 -0.505,0.216 -0.719,0.072 -1.224,-0.288 -1.008,-0.648 -0.792,-1.008 -0.216,-1.296 0.216,-1.296 0.792,-1.008 1.008,-0.648 1.224,-0.288 1.296,0.288 0.936,0.648 0.72,1.008 0.288,1.296 v 0.144 0.144 l 0.647,-2.088 -1.007,-3.456 h 2.735 l -0.936,3.456 z M -5.616,21.888 v 0.144 0.216 l 0.287,1.296 0.648,0.936 1.009,0.648 1.296,0.36 1.296,-0.36 L -0.072,24.48 0.647,23.544 0.936,22.248 0.647,20.88 -0.072,19.872 -1.08,19.224 -2.376,18.936 h -0.648 l -0.504,0.144 -0.504,0.36 -0.432,0.288 h -0.36 l -0.144,-0.216 v -0.288 l 1.152,-1.08 0.36,-1.656 -0.216,-1.296 -0.648,-1.008 -1.009,-0.72 -1.296,-0.288 -1.224,0.288 -1.079,0.72 -0.648,1.008 -0.288,1.296 0.144,0.936 0.36,0.792 0.576,0.648 0.792,0.504 -0.144,0.36 H -8.28 l -0.288,0.072 -0.504,-0.36 -0.576,-0.216 -0.504,-0.288 h -0.72 l -1.296,0.288 -1.008,0.648 -0.648,1.008 -0.288,1.368 0.288,1.296 0.648,0.936 1.008,0.648 1.296,0.36 1.296,-0.36 1.008,-0.648 0.648,-0.936 0.288,-1.296 v -0.216 -0.144 l 0.648,2.088 -1.008,3.456 h 2.736 l -0.936,-3.456 z m -61.344,132.048 0.072,-0.36 v -0.36 l 0.648,-3.168 1.728,-2.52 2.592,-1.728 3.096,-0.72 3.095,0.72 2.593,1.728 1.656,2.52 0.647,3.168 -0.647,3.096 -1.656,2.52 -2.593,1.8 -3.095,0.576 -1.512,-0.144 -1.44,-0.432 -1.296,-0.648 -1.08,-0.864 -0.72,0.216 -0.504,0.432 -0.072,0.576 1.656,1.296 1.296,1.656 0.72,1.8 0.36,2.16 -0.648,3.096 -1.728,2.592 -2.52,1.728 -3.096,0.576 -3.096,-0.576 -2.52,-1.728 -1.8,-2.592 -0.649,-3.096 0.361,-2.304 0.864,-2.016 1.512,-1.656 1.799,-1.152 -0.288,-0.792 -0.431,-0.144 -0.576,-0.216 -1.296,0.864 -1.296,0.792 -1.441,0.432 -1.655,0.144 -3.096,-0.576 -2.592,-1.8 -1.728,-2.52 -0.576,-3.096 0.576,-3.168 1.728,-2.52 2.592,-1.728 3.096,-0.72 3.096,0.72 2.592,1.728 1.656,2.52 0.648,3.168 v 0.36 0.36 l 1.152,-1.656 0.36,-3.6 -0.72,-4.392 -1.801,-4.032 h 6.984 l -1.728,4.032 -0.648,4.464 0.217,3.528 z m -4.896,-135.36 -0.072,0.432 v 0.432 l -0.648,3.096 -1.656,2.592 -2.592,1.728 -3.096,0.648 -3.096,-0.648 -2.592,-1.728 -1.728,-2.592 -0.576,-3.096 0.576,-3.168 1.728,-2.592 2.592,-1.8 3.096,-0.576 1.44,0.144 1.512,0.432 1.223,0.648 1.153,0.864 0.648,-0.216 0.504,-0.432 0.072,-0.576 -1.656,-1.224 -1.224,-1.728 -0.793,-1.8 -0.288,-2.16 0.577,-3.096 1.799,-2.52 2.52,-1.8 3.168,-0.576 3.097,0.576 2.592,1.8 1.727,2.52 0.577,3.096 -0.36,2.304 -0.792,2.016 -1.44,1.656 -1.872,1.152 0.288,0.792 0.432,0.216 0.648,0.144 1.223,-0.864 1.369,-0.792 1.44,-0.432 1.584,-0.144 3.168,0.576 2.52,1.8 1.799,2.592 0.577,3.168 -0.577,3.096 -1.799,2.592 -2.52,1.728 -3.168,0.648 -3.097,-0.648 -2.519,-1.728 -1.728,-2.592 -0.72,-3.096 v -0.432 -0.432 l -1.152,1.656 -0.288,3.744 0.792,4.464 1.728,3.96 h -7.128 l 1.8,-3.96 0.72,-4.536 -0.288,-3.672 z m 0,70.92 -0.072,0.432 v 0.432 l -0.648,3.168 -1.656,2.448 -2.592,1.8 -3.096,0.648 -3.096,-0.648 -2.592,-1.8 -1.728,-2.448 -0.576,-3.168 0.576,-3.168 1.728,-2.52 2.592,-1.8 3.096,-0.648 1.44,0.216 1.512,0.36 1.223,0.72 1.153,0.864 0.648,-0.216 0.504,-0.432 0.072,-0.648 -1.656,-1.224 -1.224,-1.728 -0.793,-1.8 -0.288,-2.16 0.577,-3.096 1.799,-2.52 2.52,-1.728 3.168,-0.648 3.097,0.648 2.592,1.728 1.727,2.52 0.577,3.096 -0.36,2.304 -0.792,2.016 -1.44,1.656 -1.872,1.224 0.288,0.72 0.432,0.216 0.648,0.216 1.223,-0.936 1.369,-0.72 1.44,-0.432 1.584,-0.216 3.168,0.648 2.52,1.8 1.799,2.52 0.577,3.168 -0.577,3.168 -1.799,2.448 -2.52,1.8 -3.168,0.648 -3.097,-0.648 -2.519,-1.8 -1.728,-2.448 -0.72,-3.168 v -0.432 -0.432 l -1.152,1.656 -0.288,3.672 0.792,4.464 1.728,4.032 h -7.128 l 1.8,-4.032 0.72,-4.464 -0.288,-3.672 z m -65.376,81.216 h 2.16 l 0.288,-1.872 0.576,-1.224 1.08,-0.864 1.512,-0.288 0.864,0.072 0.72,0.216 0.648,0.288 0.504,0.432 0.648,1.152 0.216,1.512 -0.145,1.008 -0.36,0.936 -0.647,0.864 -0.72,0.504 -0.504,0.216 -0.504,0.072 -0.504,0.144 h -0.576 -0.289 -0.431 v 2.52 h 0.216 0.36 l 0.864,0.144 0.719,0.144 0.649,0.288 0.504,0.432 0.72,1.008 0.288,1.368 -0.145,0.792 -0.359,0.72 -0.432,0.72 -0.72,0.576 -0.649,0.216 -0.863,0.072 -0.864,-0.072 -0.72,-0.216 -0.648,-0.648 -0.504,-0.864 -0.432,-1.152 -0.072,-1.368 h -2.088 l 0.072,1.656 0.431,1.584 0.432,0.792 0.361,0.648 0.504,0.504 0.504,0.504 0.792,0.432 0.719,0.216 0.792,0.216 0.865,0.072 0.719,-0.072 0.649,-0.216 0.648,-0.216 0.576,-0.288 0.576,-0.432 0.503,-0.504 0.36,-0.504 0.505,-0.576 0.431,-1.296 0.217,-1.44 -0.217,-1.296 -0.431,-1.08 -0.72,-1.008 -0.937,-0.864 0.649,-0.36 0.503,-0.504 0.505,-0.576 0.431,-0.72 0.505,-1.584 0.216,-1.8 -0.288,-1.728 -0.504,-1.44 -0.36,-0.576 -0.505,-0.504 -0.503,-0.504 -0.649,-0.36 -0.719,-0.144 -0.792,-0.288 -0.792,-0.072 -0.864,-0.144 -0.864,0.144 -0.72,0.072 -0.648,0.288 -0.648,0.216 -0.577,0.432 -0.575,0.504 -0.432,0.504 -0.36,0.72 -0.504,1.656 z" style="fill:#000000;fill-opacity:1;fill-rule:nonzero;stroke:none" id="path1782"/>
  </g>
</svg>