<?xml version="1.0" encoding="utf-8"?>
<svg viewBox="314.4623 190.5412 209.2799 296.8319" xmlns="http://www.w3.org/2000/svg">
  <g id="g24" transform="matrix(1.3333330154418948, 0, 0, -1.3333330154418948, 322.43027805707356, 190.54116198449276)">
    <path d="m 0,0 h 145.008 l 2.304,-0.648 1.944,-1.872 1.224,-2.736 0.504,-3.312 v -205.56 l -0.504,-3.312 -1.224,-2.664 -1.944,-1.872 -2.304,-0.648 H 0 l -2.376,0.648 -1.872,1.872 -1.296,2.664 -0.432,3.312 v 205.56 l 0.432,3.312 1.296,2.736 1.872,1.872 z" style="fill:#000000;fill-opacity:1;fill-rule:nonzero;stroke:none" id="path26"/>
  </g>
  <g id="g28" transform="matrix(1.3333330154418948, 0, 0, -1.3333330154418948, 325.40624984103556, 195.2449369046917)">
    <path d="m 0,0 h 140.472 l 2.304,-0.576 1.872,-1.8 1.296,-2.592 0.432,-3.312 v -199.152 l -0.432,-3.168 -1.296,-2.664 -1.872,-1.728 -2.304,-0.648 H 0 l -2.232,0.648 -1.872,1.728 -1.224,2.664 -0.432,3.168 V -8.28 l 0.432,3.312 1.224,2.592 1.872,1.8 z" style="fill:#ffffff;fill-opacity:1;fill-rule:nonzero;stroke:none" id="path30"/>
  </g>
  <g id="g32" transform="matrix(1.3333330154418948, 0, 0, -1.3333330154418948, 511.35859808465534, 454.44539593980517)">
    <path d="M 0,0 H -2.161 L -2.376,1.872 -3.024,3.096 -4.032,3.888 -5.473,4.248 -6.408,4.176 -7.128,4.032 -7.776,3.672 -8.28,3.24 -9,2.088 -9.145,0.576 -9,-0.504 l 0.288,-0.864 0.72,-0.864 0.72,-0.504 0.432,-0.288 0.504,-0.072 0.576,-0.144 h 0.576 0.36 l 0.36,0.072 V -5.76 h -0.217 -0.287 l -0.936,-0.072 -0.721,-0.144 -0.647,-0.288 -0.504,-0.432 -0.72,-1.08 -0.216,-1.296 0.071,-0.792 0.361,-0.792 0.431,-0.648 0.649,-0.576 0.72,-0.288 0.864,-0.072 0.792,0.072 0.792,0.288 0.72,0.648 0.432,0.864 0.359,1.152 0.145,1.296 h 2.16 l -0.144,-1.656 -0.504,-1.584 -0.361,-0.72 -0.359,-0.648 -0.504,-0.504 -0.576,-0.504 -0.648,-0.432 -0.792,-0.288 -0.864,-0.144 -0.865,-0.072 -0.647,0.072 -0.648,0.144 -0.648,0.216 -0.577,0.36 -0.575,0.36 -0.505,0.504 -0.431,0.504 -0.361,0.648 -0.504,1.296 -0.143,1.44 0.143,1.296 0.433,1.08 0.72,1.008 0.935,0.864 -0.575,0.36 -0.576,0.432 -0.504,0.648 -0.433,0.648 -0.575,1.584 -0.217,1.872 0.36,1.656 0.505,1.512 0.36,0.576 0.504,0.576 0.576,0.432 0.575,0.288 0.721,0.36 0.72,0.216 0.864,0.144 h 0.863 0.792 L -3.96,6.408 -3.168,6.264 -2.592,5.904 -2.016,5.472 -1.512,4.968 -1.08,4.392 -0.648,3.744 -0.216,2.088 Z m -125.064,151.272 -5.904,8.208 -5.976,-8.208 5.976,-8.136 z M 0.144,18.936 l -5.977,8.136 -5.975,-8.136 5.975,-8.208 z m -55.512,140.832 -1.944,2.304 -1.944,2.232 -1.872,2.304 -1.728,2.376 -1.656,2.376 -1.512,2.376 -1.513,2.376 -1.439,2.376 -1.296,-2.232 -1.44,-2.376 -1.656,-2.376 -1.656,-2.304 -1.8,-2.376 -1.872,-2.376 -2.016,-2.376 -2.088,-2.304 1.872,-2.232 1.8,-2.16 1.799,-2.304 1.729,-2.304 1.728,-2.304 1.656,-2.448 1.584,-2.592 1.656,-2.592 1.439,2.376 1.513,2.376 1.656,2.448 1.727,2.448 1.729,2.304 1.8,2.448 1.872,2.304 z m 0,-74.592 -1.944,2.16 -1.944,2.304 -1.872,2.376 -1.728,2.304 -1.656,2.304 -1.512,2.448 -1.513,2.376 -1.439,2.376 -1.296,-2.304 -1.44,-2.232 -1.656,-2.448 -1.656,-2.304 -1.8,-2.376 -1.872,-2.376 -2.016,-2.304 -2.088,-2.304 1.872,-2.304 1.8,-2.088 1.799,-2.304 1.729,-2.304 1.728,-2.304 1.656,-2.448 1.584,-2.592 1.656,-2.664 1.439,2.376 1.513,2.376 1.656,2.448 1.727,2.52 1.729,2.304 1.8,2.376 1.872,2.304 z m 0,-75.024 -1.944,2.232 -1.944,2.304 -1.872,2.376 -1.728,2.304 -1.656,2.376 -1.512,2.376 -1.513,2.376 -1.439,2.376 -1.296,-2.304 -1.44,-2.304 -1.656,-2.376 -1.656,-2.304 -1.8,-2.376 -1.872,-2.376 -2.016,-2.376 -2.088,-2.304 1.872,-2.232 1.8,-2.16 1.799,-2.232 1.729,-2.376 1.728,-2.304 1.656,-2.448 1.584,-2.52 1.656,-2.664 1.439,2.376 1.513,2.376 1.656,2.448 1.727,2.448 1.729,2.376 1.8,2.376 1.872,2.304 z m -81.864,160.56 h 2.16 l 0.288,-1.872 0.576,-1.224 1.08,-0.864 1.512,-0.288 0.864,0.072 0.72,0.216 0.648,0.216 0.504,0.504 0.648,1.152 0.216,1.512 -0.145,1.008 -0.36,0.936 -0.647,0.792 -0.72,0.576 -0.504,0.216 -0.504,0.072 -0.504,0.144 h -0.576 -0.289 -0.431 v 2.52 h 0.216 0.36 l 0.864,0.072 0.719,0.144 0.649,0.36 0.504,0.432 0.72,1.008 0.288,1.368 -0.145,0.792 -0.359,0.72 -0.432,0.72 -0.72,0.504 -0.649,0.288 -0.863,0.072 -0.864,-0.072 -0.72,-0.288 -0.648,-0.648 -0.504,-0.792 -0.432,-1.152 -0.072,-1.368 h -2.088 l 0.072,1.656 0.431,1.584 0.432,0.72 0.361,0.648 0.504,0.576 0.504,0.504 0.792,0.432 0.719,0.216 0.792,0.216 0.865,0.072 0.719,-0.072 0.649,-0.216 0.648,-0.216 0.576,-0.288 0.576,-0.432 0.503,-0.504 0.36,-0.504 0.505,-0.576 0.431,-1.296 0.217,-1.512 -0.217,-1.296 -0.431,-1.008 -0.72,-1.008 -0.937,-0.936 0.649,-0.288 0.503,-0.504 0.505,-0.576 0.431,-0.72 0.505,-1.584 0.216,-1.8 -0.288,-1.728 -0.504,-1.44 -0.36,-0.576 -0.505,-0.504 -0.503,-0.504 -0.649,-0.36 -0.719,-0.216 -0.792,-0.216 -0.792,-0.072 -0.864,-0.144 -0.864,0.144 -0.72,0.072 -0.648,0.216 -0.648,0.288 -0.577,0.36 -0.575,0.504 -0.432,0.576 -0.36,0.72 -0.504,1.656 z" style="fill:#ff0000;fill-opacity:1;fill-rule:nonzero;stroke:none" id="path34"/>
  </g>
</svg>