<?xml version="1.0" encoding="utf-8"?>
<svg viewBox="314.4623 874.349 209.2799 296.7373" xmlns="http://www.w3.org/2000/svg">
  <g id="g3054" transform="matrix(1.3333330154418948, 0, 0, -1.3333330154418948, 322.43027805707356, 874.3490230404971)">
    <path d="m 0,0 h 145.008 l 2.304,-0.647 1.944,-1.874 1.224,-2.664 0.504,-3.383 v -205.489 l -0.504,-3.239 -1.224,-2.736 -1.944,-1.872 -2.304,-0.649 H 0 l -2.376,0.649 -1.872,1.872 -1.296,2.736 -0.432,3.239 V -8.568 l 0.432,3.383 1.296,2.664 1.872,1.874 z" style="fill:#000000;fill-opacity:1;fill-rule:nonzero;stroke:none" id="path3056"/>
  </g>
  <g id="g3058" transform="matrix(1.3333330154418948, 0, 0, -1.3333330154418948, 325.40624984103556, 879.0533676220186)">
    <path d="m 0,0 h 140.472 l 2.304,-0.576 1.872,-1.8 1.296,-2.592 0.432,-3.24 v -199.151 l -0.432,-3.169 -1.296,-2.592 -1.872,-1.8 -2.304,-0.648 H 0 l -2.232,0.648 -1.872,1.8 -1.224,2.592 -0.432,3.169 V -8.208 l 0.432,3.24 1.224,2.592 1.872,1.8 z" style="fill:#ffffff;fill-opacity:1;fill-rule:nonzero;stroke:none" id="path3060"/>
  </g>
  <g id="g3062" transform="matrix(1.3333330154418948, 0, 0, -1.3333330154418948, 511.35859808465534, 1138.1574725134378)">
    <path d="M 0,0 H -2.161 L -2.376,1.873 -3.024,3.168 -4.032,3.961 -5.473,4.248 -6.408,4.176 -7.128,4.032 -7.776,3.672 -8.28,3.313 -9,2.088 -9.145,0.648 -9,-0.432 l 0.288,-0.935 0.72,-0.864 0.72,-0.505 0.432,-0.215 0.504,-0.145 0.576,-0.144 h 0.576 0.36 l 0.36,0.144 V -5.688 H -4.681 -4.968 L -5.904,-5.76 -6.625,-5.976 -7.272,-6.264 -7.776,-6.696 -8.496,-7.703 -8.712,-9 l 0.071,-0.792 0.361,-0.792 0.431,-0.647 0.649,-0.577 0.72,-0.288 0.864,-0.144 0.792,0.144 0.792,0.288 0.72,0.649 0.432,0.863 0.359,1.152 0.145,1.296 h 2.16 l -0.144,-1.656 -0.504,-1.584 -0.361,-0.72 -0.359,-0.72 -0.504,-0.503 -0.576,-0.504 -0.648,-0.361 -0.792,-0.288 -0.864,-0.215 H -5.833 -6.48 l -0.648,0.215 -0.648,0.145 -0.577,0.359 -0.575,0.432 -0.505,0.505 -0.431,0.503 -0.361,0.577 -0.504,1.367 -0.143,1.441 0.143,1.223 0.433,1.08 0.72,1.009 0.935,0.936 -0.575,0.359 -0.576,0.36 -0.504,0.648 -0.433,0.648 -0.575,1.656 -0.217,1.8 0.36,1.728 0.505,1.44 0.36,0.576 0.504,0.577 0.576,0.431 0.575,0.288 0.721,0.36 0.72,0.289 0.864,0.072 0.863,0.071 0.792,-0.071 0.721,-0.217 0.792,-0.144 0.576,-0.36 0.576,-0.359 0.504,-0.504 0.432,-0.576 0.432,-0.649 0.432,-1.728 z m -71.641,169.561 v 1.656 l -0.575,2.807 -1.728,2.161 -2.376,1.511 -2.664,0.504 -2.592,-0.575 -2.16,-1.584 -1.44,-2.305 -0.576,-2.952 0.576,-3.528 1.728,-3.672 2.232,-3.888 2.736,-3.815 2.664,-3.889 2.304,-3.816 1.8,-3.6 0.648,-3.312 0.648,3.312 1.656,3.6 2.376,3.816 2.664,3.889 2.592,3.815 2.376,3.888 1.656,3.672 0.648,3.528 -0.576,2.952 -1.44,2.305 -2.161,1.584 -2.591,0.575 -2.737,-0.504 -2.303,-1.511 -1.656,-2.161 -0.72,-2.807 v -1.656 l -0.432,-0.361 z m 0,-165.745 V 2.088 l -0.575,-2.808 -1.728,-2.231 -2.376,-1.441 -2.664,-0.576 -2.592,0.576 -2.16,1.656 -1.44,2.377 -0.576,2.807 0.576,3.456 1.728,3.744 2.232,3.817 2.736,3.888 2.664,3.887 2.304,3.744 1.8,3.6 0.648,3.385 0.648,-3.385 1.656,-3.6 2.376,-3.744 2.664,-3.887 2.592,-3.888 2.376,-3.817 1.656,-3.744 0.648,-3.456 -0.576,-2.807 -1.44,-2.377 -2.161,-1.656 -2.591,-0.576 -2.737,0.504 -2.303,1.513 -1.656,2.231 -0.72,2.808 v 1.728 l -0.432,0.288 z m 0,75.313 v -1.656 l -0.575,-2.809 -1.728,-2.231 -2.376,-1.441 -2.664,-0.576 -2.592,0.648 -2.16,1.512 -1.44,2.376 -0.576,2.952 0.576,3.456 1.728,3.672 2.232,3.816 2.736,3.816 2.664,3.889 2.304,3.815 1.8,3.601 0.648,3.239 0.648,-3.239 1.656,-3.601 2.376,-3.815 2.664,-3.889 2.592,-3.816 2.376,-3.816 1.656,-3.672 0.648,-3.456 -0.576,-2.952 -1.44,-2.376 -2.161,-1.512 -2.591,-0.648 -2.737,0.505 -2.303,1.512 -1.656,2.231 -0.72,2.809 v 1.656 l -0.432,0.359 z m -59.759,76.535 v 0.793 l -0.216,1.295 -0.792,1.08 -1.153,0.721 -1.223,0.216 -1.296,-0.289 -0.936,-0.792 -0.648,-1.08 -0.36,-1.368 1.08,-3.456 2.376,-3.672 2.376,-3.528 1.08,-3.312 1.08,3.312 2.448,3.528 2.376,3.672 1.08,3.456 -0.288,1.368 -0.648,1.08 -1.008,0.792 -1.297,0.289 -1.223,-0.216 -1.08,-0.721 -0.865,-1.08 -0.287,-1.295 v -0.793 l -0.288,-0.143 z M -5.976,16.2 v -0.792 l -0.289,-1.296 -0.719,-1.151 -1.152,-0.648 -1.297,-0.217 -1.223,0.217 -1.008,0.791 -0.648,1.153 -0.36,1.368 1.151,3.383 2.376,3.6 2.305,3.6 1.152,3.24 1.08,-3.24 2.376,-3.6 2.376,-3.6 1.08,-3.383 L 0.936,14.257 0.288,13.104 -0.72,12.313 -1.944,12.096 -3.168,12.313 -4.32,12.961 -5.112,14.112 -5.4,15.408 V 16.2 l -0.288,0.144 z m -131.256,154.441 h 2.16 l 0.288,-1.801 0.576,-1.295 1.08,-0.865 1.512,-0.287 0.864,0.072 0.72,0.215 0.648,0.289 0.504,0.431 0.648,1.153 0.216,1.511 -0.145,1.081 -0.36,0.935 -0.647,0.792 -0.72,0.505 -0.504,0.215 -0.504,0.144 -0.504,0.145 h -0.576 -0.289 l -0.431,-0.072 v 2.519 h 0.216 0.36 l 0.864,0.145 0.719,0.143 0.649,0.361 0.504,0.359 0.72,1.008 0.288,1.369 -0.145,0.791 -0.359,0.793 -0.432,0.647 -0.72,0.577 -0.649,0.215 -0.863,0.145 -0.864,-0.145 -0.72,-0.215 -0.648,-0.649 -0.504,-0.864 -0.432,-1.152 -0.072,-1.368 h -2.088 l 0.072,1.657 0.431,1.584 0.432,0.792 0.361,0.647 0.504,0.576 0.504,0.432 0.792,0.432 0.719,0.288 0.792,0.145 0.865,0.071 0.719,-0.071 0.649,-0.145 0.648,-0.216 0.576,-0.287 0.576,-0.504 0.503,-0.504 0.36,-0.504 0.505,-0.504 0.431,-1.369 0.217,-1.44 -0.217,-1.296 -0.431,-1.08 -0.72,-1.007 -0.937,-0.865 0.649,-0.359 0.503,-0.433 0.505,-0.647 0.431,-0.649 0.505,-1.656 0.216,-1.8 -0.288,-1.727 -0.504,-1.369 -0.36,-0.648 -0.505,-0.504 -0.503,-0.432 -0.649,-0.36 -0.719,-0.215 -0.792,-0.289 -0.792,-0.072 -0.864,-0.072 -0.864,0.072 -0.72,0.072 -0.648,0.289 -0.648,0.215 -0.577,0.432 -0.575,0.504 -0.432,0.504 -0.36,0.72 -0.504,1.657 z" style="fill:#ff0000;fill-opacity:1;fill-rule:nonzero;stroke:none" id="path3064"/>
  </g>
</svg>