<?xml version="1.0" encoding="utf-8"?>
<svg viewBox="66.2065 1212.0768 209.28 296.8319" xmlns="http://www.w3.org/2000/svg">
  <g id="g3876" transform="matrix(1.3333330154418948, 0, 0, -1.3333330154418948, 74.17445243957354, 1212.076766413138)">
    <path d="m 0,0 h 145.008 l 2.304,-0.648 1.944,-1.872 1.296,-2.665 0.432,-3.383 v -205.56 l -0.432,-3.24 -1.296,-2.736 -1.944,-1.873 -2.304,-0.647 H 0 l -2.304,0.647 -1.944,1.873 -1.296,2.736 -0.432,3.24 v 205.56 l 0.432,3.383 1.296,2.665 1.944,1.872 z" style="fill:#000000;fill-opacity:1;fill-rule:nonzero;stroke:none" id="path3878"/>
  </g>
  <g id="g3880" transform="matrix(1.3333330154418948, 0, 0, -1.3333330154418948, 77.24671733208834, 1216.7811923748488)">
    <path d="m 0,0 h 140.4 l 2.304,-0.575 1.872,-1.801 1.296,-2.592 0.432,-3.24 v -199.224 l -0.432,-3.168 -1.296,-2.591 -1.872,-1.8 -2.304,-0.649 H 0 l -2.304,0.649 -1.8,1.8 -1.296,2.591 -0.36,3.168 V -8.208 l 0.36,3.24 1.296,2.592 1.8,1.801 z" style="fill:#ffffff;fill-opacity:1;fill-rule:nonzero;stroke:none" id="path3882"/>
  </g>
  <g id="g3884" transform="matrix(1.3333330154418948, 0, 0, -1.3333330154418948, 263.96613997778445, 1466.2849984483876)">
    <path d="m 0,0 0.144,-0.72 v -0.792 l -0.288,-2.448 -1.008,-2.16 -0.72,-0.863 -0.936,-0.937 -1.08,-0.864 -1.152,-0.936 -1.296,-0.792 -1.008,-0.792 -0.792,-0.576 -0.576,-0.433 -0.72,-1.007 -0.216,-1.296 -0.144,-0.504 v -0.288 l 0.144,-1.08 0.432,-0.936 0.576,-0.721 0.792,-0.431 0.72,-0.432 0.72,-0.072 h 0.576 l 0.504,0.072 0.432,0.145 0.432,0.143 0.864,0.504 0.648,0.792 0.36,1.367 0.144,1.801 h 2.088 v -0.648 l -0.288,-2.88 -1.008,-2.159 -0.936,-0.866 -1.008,-0.647 -1.224,-0.36 -1.44,-0.144 -0.576,0.144 h -0.648 l -0.648,0.144 -0.504,0.216 -0.504,0.288 -0.504,0.359 -0.36,0.362 -0.432,0.43 -0.72,0.865 -0.432,1.007 -0.36,1.153 -0.144,1.224 0.216,2.161 0.576,1.798 0.504,0.937 0.792,0.864 0.864,0.72 1.008,0.721 0.504,0.288 0.504,0.287 0.648,0.431 0.648,0.433 0.72,0.36 0.648,0.504 0.504,0.504 0.576,0.576 0.792,1.224 0.288,1.296 h -9.792 V 0 Z M -130.176,134.424 H -135 l 1.224,2.448 0.576,2.521 v 2.303 l -0.72,1.728 h -0.432 l 0.504,-1.008 0.144,-1.152 -0.288,-1.224 -0.792,-1.008 -1.008,-0.648 -1.152,-0.216 -1.224,0.216 -1.008,0.792 -0.648,1.008 -0.216,1.295 1.08,3.313 2.52,3.384 2.592,3.168 1.512,2.593 1.44,-2.593 2.448,-3.168 2.304,-3.384 1.08,-3.313 -0.216,-1.295 -0.72,-1.008 -1.008,-0.792 -1.152,-0.216 -1.152,0.216 -1.08,0.648 -0.792,1.008 -0.216,1.224 0.144,1.152 0.504,1.008 h -0.432 l -0.72,-1.728 v -2.303 l 0.504,-2.521 z M -8.424,23.544 h 4.968 l -1.296,-2.52 -0.576,-2.52 0.072,-2.304 0.648,-1.656 h 0.504 l -0.504,0.935 -0.144,1.153 0.288,1.297 0.72,0.935 1.08,0.648 1.224,0.217 1.08,-0.217 1.008,-0.72 0.648,-1.08 0.216,-1.224 -1.08,-3.312 -2.52,-3.384 -2.664,-3.313 -1.512,-2.591 -1.368,2.591 -2.52,3.242 -2.304,3.455 -1.08,3.312 0.288,1.224 0.648,1.08 1.008,0.72 1.152,0.217 1.152,-0.217 1.08,-0.648 0.72,-0.935 0.36,-1.297 -0.216,-1.153 -0.504,-0.935 h 0.36 l 0.792,1.656 0.072,2.304 -0.576,2.52 z M -64.44,132.983 h -9.72 l 2.592,4.897 1.08,4.968 -0.072,4.536 -1.44,3.456 h -0.864 l 1.008,-2.016 0.36,-2.232 -0.576,-2.52 -1.512,-1.944 -2.088,-1.296 -2.376,-0.504 -2.304,0.504 -1.944,1.439 -1.296,2.162 -0.504,2.519 0.648,3.096 1.656,3.385 2.232,3.383 2.664,3.312 2.736,3.311 2.448,3.097 1.872,2.735 1.08,2.521 0.864,-2.448 1.872,-2.737 2.304,-3.095 2.592,-3.312 2.52,-3.312 2.16,-3.455 1.512,-3.242 0.576,-3.239 -0.504,-2.519 -1.296,-2.162 -1.944,-1.439 -2.304,-0.504 -2.376,0.504 -2.16,1.296 -1.512,1.944 -0.504,2.52 0.36,2.232 1.008,2.016 h -0.936 l -1.368,-3.456 -0.144,-4.536 1.08,-4.968 z m 0,-107.495 h -9.72 l 2.592,-4.824 1.08,-5.04 L -70.56,11.088 -72,7.632 h -0.864 l 1.008,1.944 0.36,2.304 -0.576,2.448 -1.512,2.017 -2.088,1.296 -2.376,0.504 -2.304,-0.504 -1.944,-1.513 -1.296,-2.088 -0.504,-2.519 0.648,-3.097 1.656,-3.384 2.232,-3.384 2.664,-3.311 2.736,-3.313 2.448,-3.168 1.872,-2.807 1.08,-2.45 0.864,2.45 1.872,2.807 2.304,3.024 2.592,3.383 2.52,3.385 2.16,3.384 1.512,3.313 0.576,3.168 -0.504,2.519 -1.296,2.088 -1.944,1.513 -2.304,0.504 -2.376,-0.504 -2.16,-1.296 -1.512,-2.017 -0.504,-2.448 0.36,-2.304 1.008,-1.944 h -0.936 l -1.368,3.456 -0.144,4.536 1.08,5.04 z m -74.088,132.336 -0.144,0.72 v 0.792 l 0.36,2.519 0.864,2.017 0.792,1.008 1.008,0.864 1.008,0.936 1.08,0.936 1.368,0.792 0.936,0.72 0.864,0.647 0.576,0.362 0.72,1.008 0.216,1.367 0.072,0.505 v 0.287 l -0.072,1.08 -0.432,0.864 -0.648,0.792 -0.72,0.432 -0.72,0.36 -0.792,0.145 h -0.504 l -0.504,-0.145 -0.504,-0.144 -0.36,-0.144 -0.792,-0.504 -0.648,-0.792 -0.504,-1.368 -0.072,-1.8 h -2.16 v 0.649 l 0.288,2.951 1.08,2.16 0.864,0.792 1.08,0.648 1.224,0.361 1.44,0.143 0.648,-0.072 0.576,-0.071 0.648,-0.145 0.504,-0.216 0.504,-0.288 0.432,-0.36 0.432,-0.361 0.36,-0.359 0.792,-0.935 0.504,-0.937 0.36,-1.152 v -1.224 l -0.144,-2.16 -0.648,-1.872 -0.504,-0.863 -0.72,-0.865 -0.864,-0.72 -1.008,-0.791 -0.504,-0.217 -0.504,-0.36 -0.648,-0.432 -0.648,-0.36 -0.648,-0.432 -0.648,-0.432 -0.576,-0.576 -0.576,-0.576 -0.792,-1.153 -0.216,-1.294 h 9.648 v -2.737 z" style="fill:#000000;fill-opacity:1;fill-rule:nonzero;stroke:none" id="path3886"/>
  </g>
</svg>