<?xml version="1.0" encoding="utf-8"?>
<svg viewBox="66.2065 190.5412 209.28 296.8319" xmlns="http://www.w3.org/2000/svg">
  <g id="g12" transform="matrix(1.3333330154418948, 0, 0, -1.3333330154418948, 74.17445243957263, 190.54116198449265)">
    <path d="m 0,0 h 145.008 l 2.304,-0.648 1.944,-1.872 1.296,-2.736 0.432,-3.312 v -205.56 l -0.432,-3.312 -1.296,-2.664 -1.944,-1.872 -2.304,-0.648 H 0 l -2.304,0.648 -1.944,1.872 -1.296,2.664 -0.432,3.312 v 205.56 l 0.432,3.312 1.296,2.736 1.944,1.872 z" style="fill:#000000;fill-opacity:1;fill-rule:nonzero;stroke:none" id="path14"/>
  </g>
  <g id="g16" transform="matrix(1.3333330154418948, 0, 0, -1.3333330154418948, 77.24671733208743, 195.2449369046917)">
    <path d="m 0,0 h 140.4 l 2.304,-0.576 1.872,-1.8 1.296,-2.592 0.432,-3.312 v -199.152 l -0.432,-3.168 -1.296,-2.664 -1.872,-1.728 -2.304,-0.648 H 0 l -2.304,0.648 -1.8,1.728 -1.296,2.664 -0.36,3.168 V -8.28 l 0.36,3.312 1.296,2.592 1.8,1.8 z" style="fill:#ffffff;fill-opacity:1;fill-rule:nonzero;stroke:none" id="path18"/>
  </g>
  <g id="g20" transform="matrix(1.3333330154418948, 0, 0, -1.3333330154418948, 263.2942651379708, 429.1973550844091)">
    <path d="M 0,0 -5.976,8.136 -11.952,0 -5.976,-8.208 Z m -55.44,-8.784 -2.016,2.232 -1.944,2.304 -1.8,2.376 -1.8,2.304 -1.656,2.376 -1.512,2.376 -1.512,2.376 -1.44,2.376 -1.224,-2.304 -1.512,-2.304 -1.584,-2.376 -1.728,-2.304 -1.728,-2.376 -1.944,-2.376 -2.016,-2.376 -2.088,-2.304 1.872,-2.232 1.8,-2.16 1.872,-2.232 1.656,-2.376 1.728,-2.304 1.656,-2.448 1.656,-2.52 1.584,-2.664 1.44,2.376 1.584,2.376 1.584,2.448 1.728,2.448 1.728,2.376 1.8,2.376 1.872,2.304 z m -82.584,154.944 -0.144,0.72 v 0.792 l 0.36,2.52 0.864,2.016 0.792,0.936 1.008,0.936 1.008,0.936 1.08,0.864 1.368,0.864 0.936,0.72 0.864,0.576 0.576,0.432 0.72,1.008 0.216,1.368 0.072,0.432 v 0.36 l -0.072,1.008 -0.432,0.936 -0.648,0.72 -0.72,0.432 -0.72,0.432 -0.792,0.072 h -0.504 l -0.504,-0.072 -0.504,-0.144 -0.36,-0.144 -0.792,-0.504 -0.648,-0.792 -0.504,-1.368 -0.072,-1.872 h -2.16 v 0.72 l 0.288,2.88 1.08,2.16 0.864,0.864 1.08,0.648 1.224,0.36 1.44,0.144 0.648,-0.072 0.576,-0.144 0.648,-0.072 0.504,-0.216 0.504,-0.288 0.432,-0.36 0.432,-0.36 0.36,-0.36 0.792,-0.936 0.504,-1.008 0.36,-1.152 V 162 l -0.144,-2.16 -0.648,-1.872 -0.504,-0.936 -0.72,-0.792 -0.864,-0.792 -1.008,-0.72 -0.504,-0.288 -0.504,-0.36 -0.648,-0.36 -0.648,-0.432 -0.648,-0.36 -0.648,-0.432 -0.576,-0.576 -0.576,-0.576 -0.792,-1.152 -0.216,-1.296 H -126 v -2.736 z m 12.888,-13.824 -5.976,8.208 -5.976,-8.208 5.976,-8.136 z m 69.696,8.496 -2.016,2.304 -1.944,2.232 -1.8,2.304 -1.8,2.376 -1.656,2.376 -1.512,2.376 -1.512,2.376 -1.44,2.376 -1.224,-2.232 -1.512,-2.376 -1.584,-2.376 -1.728,-2.304 -1.728,-2.376 -1.944,-2.376 -2.016,-2.376 -2.088,-2.304 1.872,-2.232 1.8,-2.16 1.872,-2.304 1.656,-2.304 1.728,-2.304 1.656,-2.448 1.656,-2.592 1.584,-2.592 1.44,2.376 1.584,2.376 1.584,2.448 1.728,2.448 1.728,2.304 1.8,2.448 1.872,2.304 z m 55.944,-152.496 0.144,-0.72 v -0.792 l -0.288,-2.52 -1.008,-2.088 -0.72,-0.864 -0.936,-0.936 -1.08,-0.864 -1.152,-1.008 -1.296,-0.792 -1.008,-0.72 -0.792,-0.648 -0.576,-0.432 -0.72,-0.936 -0.216,-1.368 -0.144,-0.504 v -0.288 l 0.144,-1.008 0.432,-0.936 0.576,-0.72 0.792,-0.504 0.72,-0.36 0.72,-0.144 h 0.576 l 0.504,0.144 0.432,0.072 0.432,0.216 0.864,0.504 0.648,0.792 0.36,1.368 0.144,1.8 h 2.088 v -0.648 l -0.288,-2.88 -1.008,-2.16 -0.936,-0.864 -1.008,-0.648 -1.224,-0.36 -1.44,-0.144 -0.576,0.072 -0.648,0.072 -0.648,0.144 -0.504,0.216 -0.504,0.288 -0.504,0.36 -0.36,0.36 -0.432,0.36 -0.72,0.936 -0.432,1.008 -0.36,1.152 -0.144,1.152 0.216,2.16 0.576,1.872 0.504,0.864 0.792,0.864 0.864,0.792 1.008,0.648 0.504,0.288 0.504,0.36 0.648,0.36 0.648,0.432 0.72,0.432 0.648,0.504 0.504,0.504 0.576,0.576 0.792,1.152 0.288,1.296 h -9.792 v 2.736 z" style="fill:#ff0000;fill-opacity:1;fill-rule:nonzero;stroke:none" id="path22"/>
  </g>
</svg>