<?xml version="1.0" encoding="utf-8"?>
<svg viewBox="66.2065 874.349 209.28 296.7373" xmlns="http://www.w3.org/2000/svg">
  <g id="g3042" transform="matrix(1.3333330154418948, 0, 0, -1.3333330154418948, 74.17445243957354, 874.3490230404971)">
    <path d="m 0,0 h 145.008 l 2.304,-0.647 1.944,-1.874 1.296,-2.664 0.432,-3.383 v -205.489 l -0.432,-3.239 -1.296,-2.736 -1.944,-1.872 -2.304,-0.649 H 0 l -2.304,0.649 -1.944,1.872 -1.296,2.736 -0.432,3.239 V -8.568 l 0.432,3.383 1.296,2.664 1.944,1.874 z" style="fill:#000000;fill-opacity:1;fill-rule:nonzero;stroke:none" id="path3044"/>
  </g>
  <g id="g3046" transform="matrix(1.3333330154418948, 0, 0, -1.3333330154418948, 77.24671733208834, 879.0533676220186)">
    <path d="m 0,0 h 140.4 l 2.304,-0.576 1.872,-1.8 1.296,-2.592 0.432,-3.24 v -199.151 l -0.432,-3.169 -1.296,-2.592 -1.872,-1.8 -2.304,-0.648 H 0 l -2.304,0.648 -1.8,1.8 -1.296,2.592 -0.36,3.169 V -8.208 l 0.36,3.24 1.296,2.592 1.8,1.8 z" style="fill:#ffffff;fill-opacity:1;fill-rule:nonzero;stroke:none" id="path3048"/>
  </g>
  <g id="g3050" transform="matrix(1.3333330154418948, 0, 0, -1.3333330154418948, 263.96613997778445, 1128.4607788617689)">
    <path d="m 0,0 0.144,-0.72 v -0.793 l -0.288,-2.447 -1.008,-2.16 -0.72,-0.864 -0.936,-0.936 -1.08,-0.864 -1.152,-0.936 -1.296,-0.793 -1.008,-0.791 -0.792,-0.576 -0.576,-0.432 -0.72,-1.008 -0.216,-1.296 -0.144,-0.504 v -0.288 l 0.144,-1.08 0.432,-0.937 0.576,-0.719 0.792,-0.432 0.72,-0.433 0.72,-0.071 h 0.576 l 0.504,0.071 0.432,0.145 0.432,0.144 0.864,0.504 0.648,0.791 0.36,1.368 0.144,1.801 h 2.088 v -0.648 l -0.288,-2.88 -1.008,-2.16 -0.936,-0.864 -1.008,-0.648 -1.224,-0.359 -1.44,-0.145 -0.576,0.145 h -0.648 l -0.648,0.143 -0.504,0.216 -0.504,0.288 -0.504,0.36 -0.36,0.36 -0.432,0.432 -0.72,0.864 -0.432,1.008 -0.36,1.152 -0.144,1.223 0.216,2.161 0.576,1.8 0.504,0.936 0.792,0.863 0.864,0.721 1.008,0.72 0.504,0.288 0.504,0.288 0.648,0.432 0.648,0.432 0.72,0.359 0.648,0.504 0.504,0.504 0.576,0.576 0.792,1.225 0.288,1.296 h -9.792 V 0 Z m -68.616,157.104 v 1.656 l -0.576,2.807 -1.656,2.233 -2.376,1.512 -2.664,0.503 -2.664,-0.647 -2.088,-1.513 -1.44,-2.375 -0.576,-2.881 0.576,-3.527 1.728,-3.744 2.232,-3.816 2.736,-3.888 2.664,-3.888 2.376,-3.744 1.584,-3.672 0.72,-3.312 0.648,3.312 1.728,3.672 2.376,3.744 2.664,3.888 2.664,3.888 2.304,3.816 1.656,3.744 0.648,3.527 -0.576,2.881 -1.44,2.375 -2.232,1.513 -2.52,0.647 -2.736,-0.503 -2.304,-1.512 -1.728,-2.233 -0.648,-2.807 v -1.656 l -0.504,-0.289 z m 0,-156.96 v -1.657 l -0.576,-2.807 -1.656,-2.16 -2.376,-1.512 -2.664,-0.504 -2.664,0.576 -2.088,1.584 -1.44,2.376 -0.576,2.88 0.576,3.456 1.728,3.744 2.232,3.816 2.736,3.887 2.664,3.817 2.376,3.744 1.584,3.6 0.72,3.312 0.648,-3.312 1.728,-3.6 2.376,-3.744 2.664,-3.817 2.664,-3.887 2.304,-3.816 1.656,-3.744 0.648,-3.456 -0.576,-2.88 -1.44,-2.376 -2.232,-1.584 -2.52,-0.576 -2.736,0.504 -2.304,1.512 -1.728,2.16 -0.648,2.807 v 1.657 l -0.504,0.36 z m -63.432,148.248 v 0.793 l -0.216,1.294 -0.792,1.081 -1.152,0.72 -1.224,0.216 -1.224,-0.288 -1.008,-0.792 -0.648,-1.08 -0.36,-1.368 1.08,-3.456 2.448,-3.672 2.304,-3.528 1.08,-3.312 1.152,3.312 2.376,3.528 2.376,3.672 1.08,3.456 -0.288,1.368 -0.648,1.08 -1.008,0.792 -1.224,0.288 -1.296,-0.216 -1.08,-0.72 -0.864,-1.081 -0.216,-1.294 v -0.793 l -0.36,-0.144 z M -6.624,8.928 V 8.136 L -6.84,6.84 -7.632,5.688 -8.784,5.04 l -1.224,-0.217 -1.296,0.217 -0.936,0.792 -0.72,1.152 -0.288,1.369 1.08,3.382 2.376,3.601 2.304,3.6 1.152,3.24 1.08,-3.24 2.448,-3.6 2.304,-3.601 L 0.576,8.353 0.36,6.984 -0.36,5.832 -1.296,5.04 -2.592,4.823 -3.816,5.04 -4.968,5.688 -5.76,6.84 -6.048,8.136 v 0.792 l -0.288,0.143 z m -131.904,148.895 -0.144,0.649 v 0.792 l 0.36,2.52 0.864,2.088 0.792,0.936 1.008,0.864 1.008,0.936 1.08,0.936 1.368,0.792 0.936,0.72 0.864,0.648 0.576,0.359 0.72,1.008 0.216,1.369 0.072,0.504 v 0.287 l -0.072,1.081 -0.432,0.864 -0.648,0.792 -0.72,0.431 -0.72,0.361 -0.792,0.143 h -0.504 l -0.504,-0.143 -0.504,-0.144 -0.36,-0.144 -0.792,-0.504 -0.648,-0.792 -0.504,-1.368 -0.072,-1.8 h -2.16 v 0.647 l 0.288,2.953 1.08,2.161 0.864,0.791 1.08,0.648 1.224,0.359 1.44,0.145 0.648,-0.072 0.576,-0.073 0.648,-0.143 0.504,-0.216 0.504,-0.288 0.432,-0.36 0.432,-0.288 0.36,-0.432 0.792,-0.937 0.504,-0.935 0.36,-1.153 v -1.223 l -0.144,-2.16 -0.648,-1.872 -0.504,-0.864 -0.72,-0.864 -0.864,-0.72 -1.008,-0.793 -0.504,-0.215 -0.504,-0.36 -0.648,-0.432 -0.648,-0.36 -0.648,-0.431 -0.648,-0.433 -0.576,-0.576 -0.576,-0.575 -0.792,-1.153 -0.216,-1.297 h 9.648 v -2.664 z" style="fill:#ff0000;fill-opacity:1;fill-rule:nonzero;stroke:none" id="path3052"/>
  </g>
</svg>