<?xml version="1.0" encoding="utf-8"?>
<svg viewBox="66.2065 532.6849 209.28 296.8319" xmlns="http://www.w3.org/2000/svg">
  <g id="g1760" transform="matrix(1.3333330154418948, 0, 0, -1.3333330154418948, 74.17445243957354, 532.6849606193682)">
    <path d="m 0,0 h 145.008 l 2.304,-0.648 1.944,-1.872 1.296,-2.664 0.432,-3.384 v -205.56 l -0.432,-3.312 -1.296,-2.664 -1.944,-1.872 -2.304,-0.648 H 0 l -2.304,0.648 -1.944,1.872 -1.296,2.664 -0.432,3.312 v 205.56 l 0.432,3.384 1.296,2.664 1.944,1.872 z" style="fill:#000000;fill-opacity:1;fill-rule:nonzero;stroke:none" id="path1762"/>
  </g>
  <g id="g1764" transform="matrix(1.3333330154418948, 0, 0, -1.3333330154418948, 77.24671733208834, 537.3892238207009)">
    <path d="m 0,0 h 140.4 l 2.304,-0.576 1.872,-1.8 1.296,-2.592 0.432,-3.24 v -199.224 l -0.432,-3.168 -1.296,-2.664 -1.872,-1.728 -2.304,-0.648 H 0 l -2.304,0.648 -1.8,1.728 -1.296,2.664 -0.36,3.168 V -8.208 l 0.36,3.24 1.296,2.592 1.8,1.8 z" style="fill:#ffffff;fill-opacity:1;fill-rule:nonzero;stroke:none" id="path1766"/>
  </g>
  <g id="g1768" transform="matrix(1.3333330154418948, 0, 0, -1.3333330154418948, 263.96613997778445, 786.8933147249011)">
    <path d="m 0,0 0.144,-0.72 v -0.792 l -0.288,-2.52 -1.008,-2.088 -0.72,-0.864 -0.936,-0.936 -1.08,-0.864 -1.152,-1.008 -1.296,-0.792 -1.008,-0.72 -0.792,-0.576 -0.576,-0.504 -0.72,-0.936 -0.216,-1.368 -0.144,-0.504 v -0.288 l 0.144,-1.008 0.432,-0.936 0.576,-0.72 0.792,-0.504 0.72,-0.36 0.72,-0.072 h 0.576 l 0.504,0.072 0.432,0.072 0.432,0.216 0.864,0.504 0.648,0.792 0.36,1.368 0.144,1.8 h 2.088 v -0.648 l -0.288,-2.88 -1.008,-2.16 -0.936,-0.864 -1.008,-0.648 -1.224,-0.36 -1.44,-0.144 -0.576,0.072 -0.648,0.072 -0.648,0.144 -0.504,0.216 -0.504,0.288 -0.504,0.36 -0.36,0.36 -0.432,0.36 -0.72,0.936 -0.432,1.008 -0.36,1.152 -0.144,1.152 0.216,2.16 0.576,1.872 0.504,0.864 0.792,0.864 0.864,0.792 1.008,0.648 0.504,0.36 0.504,0.288 0.648,0.36 0.648,0.504 0.72,0.36 0.648,0.504 0.504,0.504 0.576,0.576 0.792,1.152 0.288,1.296 h -9.792 V 0 Z m -132.552,143.352 0.144,-0.144 v -0.144 l 0.216,-1.296 0.648,-1.008 1.008,-0.648 1.296,-0.288 1.296,0.288 1.08,0.648 0.648,1.008 0.216,1.296 -0.216,1.296 -0.648,1.008 -1.08,0.648 -1.296,0.288 -0.576,-0.072 -0.576,-0.216 -0.504,-0.216 -0.504,-0.288 h -0.288 l -0.144,0.144 -0.072,0.288 1.152,1.224 0.504,1.584 -0.288,1.224 -0.72,1.08 -0.936,0.648 -1.224,0.288 -1.224,-0.288 -1.152,-0.648 -0.648,-1.08 -0.216,-1.224 0.072,-0.936 0.432,-0.864 0.504,-0.648 0.792,-0.432 -0.144,-0.36 h -0.144 l -0.288,-0.144 -0.504,0.36 -0.504,0.288 -0.576,0.216 -0.648,0.072 -1.296,-0.288 -1.008,-0.648 -0.72,-1.008 -0.288,-1.296 0.288,-1.296 0.72,-1.008 1.008,-0.648 1.296,-0.288 1.224,0.288 1.008,0.648 0.648,1.008 0.288,1.296 v 0.144 0.144 l 0.648,-2.088 -1.008,-3.456 h 2.736 l -0.936,3.456 z M -6.264,14.616 -6.192,14.76 v 0.216 l 0.216,1.296 0.72,0.936 1.008,0.648 1.296,0.36 1.224,-0.36 1.08,-0.648 L 0,16.272 0.288,14.976 0,13.608 -0.648,12.6 -1.728,11.952 -2.952,11.664 H -3.6 l -0.504,0.144 -0.504,0.36 -0.504,0.288 h -0.36 L -5.616,12.24 v -0.288 l 1.152,-1.08 0.36,-1.656 L -4.32,7.92 -4.968,6.912 -5.976,6.192 -7.2,5.904 l -1.296,0.288 -1.008,0.72 -0.72,1.008 -0.216,1.296 0.072,0.936 0.36,0.792 0.576,0.648 0.792,0.504 -0.144,0.36 h -0.144 l -0.288,0.072 -0.504,-0.36 -0.576,-0.216 -0.504,-0.288 h -0.648 l -1.296,0.288 -1.008,0.648 -0.72,1.008 -0.288,1.368 0.288,1.296 0.72,0.936 1.008,0.648 1.296,0.36 1.224,-0.36 1.008,-0.648 0.72,-0.936 0.216,-1.296 V 14.76 14.616 l 0.648,2.088 -1.008,3.456 h 2.736 L -6.84,16.704 Z m -61.344,136.44 0.072,-0.288 v -0.36 l 0.648,-3.168 1.728,-2.52 2.592,-1.728 3.096,-0.72 3.096,0.72 2.592,1.728 1.728,2.52 0.648,3.168 -0.648,3.096 -1.728,2.52 -2.592,1.728 -3.096,0.576 -1.512,-0.144 -1.368,-0.36 -1.368,-0.648 -1.08,-0.864 -0.648,0.144 -0.504,0.504 -0.144,0.576 1.656,1.296 1.296,1.656 0.792,1.872 0.288,2.016 -0.648,3.096 -1.728,2.664 -2.52,1.728 -3.096,0.576 -3.096,-0.576 -2.52,-1.728 -1.728,-2.664 -0.648,-3.096 0.288,-2.232 0.864,-2.016 1.512,-1.656 1.8,-1.152 -0.288,-0.792 -0.432,-0.216 -0.576,-0.144 -1.224,0.864 -1.296,0.72 -1.512,0.432 -1.656,0.144 -3.096,-0.576 -2.592,-1.728 -1.728,-2.52 -0.576,-3.096 0.576,-3.168 1.728,-2.52 2.592,-1.728 3.096,-0.72 3.168,0.72 2.52,1.728 1.728,2.52 0.648,3.168 v 0.36 0.288 l 1.152,-1.584 0.288,-3.6 -0.72,-4.464 -1.8,-3.96 h 6.984 l -1.656,3.96 -0.648,4.464 0.144,3.6 z M -72.504,11.304 v 0.432 0.432 l -0.648,3.096 -1.728,2.592 -2.52,1.728 -3.168,0.648 -3.096,-0.648 -2.592,-1.728 -1.728,-2.592 -0.576,-3.096 0.576,-3.168 1.728,-2.592 2.592,-1.8 3.096,-0.576 1.512,0.144 1.44,0.432 1.224,0.648 1.152,0.864 0.648,-0.216 0.504,-0.432 0.144,-0.576 -1.656,-1.224 -1.296,-1.728 -0.792,-1.8 -0.216,-2.16 0.504,-3.096 1.8,-2.52 2.592,-1.8 3.168,-0.576 3.096,0.576 2.592,1.8 1.656,2.52 0.648,3.096 -0.36,2.304 -0.864,2.016 -1.44,1.656 -1.872,1.152 0.288,0.792 0.504,0.216 0.576,0.144 1.224,-0.864 1.368,-0.792 1.44,-0.432 1.584,-0.144 3.168,0.576 2.592,1.8 1.728,2.592 0.576,3.168 -0.576,3.096 -1.728,2.592 -2.592,1.728 -3.168,0.648 -3.096,-0.648 -2.52,-1.728 -1.728,-2.592 -0.648,-3.096 v -0.432 -0.432 l -1.152,1.656 -0.36,3.744 0.792,4.464 1.728,3.96 h -7.056 l 1.728,-3.96 0.72,-4.536 -0.216,-3.672 z m -66.024,146.52 -0.144,0.72 v 0.792 l 0.36,2.52 0.864,2.016 0.792,0.936 1.008,0.936 1.008,0.936 1.08,0.936 1.368,0.792 0.936,0.72 0.864,0.576 0.576,0.432 0.72,1.008 0.216,1.368 0.072,0.504 v 0.288 l -0.072,1.008 -0.432,0.936 -0.648,0.72 -0.72,0.504 -0.72,0.36 -0.792,0.072 h -0.504 l -0.504,-0.072 -0.504,-0.144 -0.36,-0.144 -0.792,-0.504 -0.648,-0.792 -0.504,-1.368 -0.072,-1.872 h -2.16 v 0.72 l 0.288,2.88 1.08,2.16 0.864,0.864 1.08,0.648 1.224,0.36 1.44,0.144 0.648,-0.072 0.576,-0.144 0.648,-0.072 0.504,-0.216 0.504,-0.288 0.432,-0.36 0.432,-0.36 0.36,-0.36 0.792,-0.936 0.504,-1.008 0.36,-1.152 v -1.152 l -0.144,-2.16 -0.648,-1.872 -0.504,-0.864 -0.72,-0.864 -0.864,-0.792 -1.008,-0.72 -0.504,-0.288 -0.504,-0.288 -0.648,-0.432 -0.648,-0.432 -0.648,-0.36 -0.648,-0.432 -0.576,-0.576 -0.576,-0.576 -0.792,-1.152 -0.216,-1.296 h 9.648 v -2.736 z" style="fill:#000000;fill-opacity:1;fill-rule:nonzero;stroke:none" id="path1770"/>
  </g>
</svg>